<?xml version="1.0" encoding="UTF-8" standalone="no"?>
<!DOCTYPE svg PUBLIC "-//W3C//DTD SVG 1.1//EN"
 "http://www.w3.org/Graphics/SVG/1.1/DTD/svg11.dtd">
<!-- Generated by graphviz version 2.40.1 (20161225.0304)
 -->
<!-- Title: behavior Pages: 1 -->
<svg width="1645pt" height="2466pt"
 viewBox="0.00 0.00 1645.00 2466.00" xmlns="http://www.w3.org/2000/svg" xmlns:xlink="http://www.w3.org/1999/xlink">
<g id="graph0" class="graph" transform="scale(1 1) rotate(0) translate(4 2462)">
<title>behavior</title>
<polygon fill="#ffffff" stroke="transparent" points="-4,4 -4,-2462 1641,-2462 1641,4 -4,4"/>
<!-- behavior -->
<g id="node1" class="node">
<title>behavior</title>
<polygon fill="#efefef" stroke="transparent" points="957.5,-1012.5 957.5,-1047.5 1191.5,-1047.5 1191.5,-1012.5 957.5,-1012.5"/>
<polygon fill="none" stroke="#000000" points="957.5,-1012.5 957.5,-1047.5 1191.5,-1047.5 1191.5,-1012.5 957.5,-1012.5"/>
<text text-anchor="start" x="1003.8258" y="-1025.3" font-family="Arial Bold" font-size="18.00" fill="#000000">behavior</text>
<text text-anchor="start" x="1072.8432" y="-1025.3" font-family="Arial" font-size="14.00" fill="#000000">    </text>
<text text-anchor="start" x="1107.048" y="-1025.3" font-family="Arial" font-size="14.00" fill="#666666">[table]</text>
<polygon fill="none" stroke="#000000" points="957.5,-982.5 957.5,-1012.5 1191.5,-1012.5 1191.5,-982.5 957.5,-982.5"/>
<text text-anchor="start" x="964.5" y="-993.9" font-family="Arial" font-size="14.00" fill="#000000">behavior_id </text>
<text text-anchor="start" x="1040.7426" y="-993.9" font-family="Arial" font-size="14.00" fill="#666666">[VARCHAR]</text>
<polygon fill="none" stroke="#000000" points="957.5,-952.5 957.5,-982.5 1191.5,-982.5 1191.5,-952.5 957.5,-952.5"/>
<text text-anchor="start" x="964.5" y="-963.9" font-family="Arial" font-size="14.00" fill="#000000">device_id </text>
<text text-anchor="start" x="1027.5168" y="-963.9" font-family="Arial" font-size="14.00" fill="#666666">[VARCHAR]</text>
<polygon fill="none" stroke="#000000" points="957.5,-922.5 957.5,-952.5 1191.5,-952.5 1191.5,-922.5 957.5,-922.5"/>
<text text-anchor="start" x="964.5" y="-933.9" font-family="Arial" font-size="14.00" fill="#000000">behavior_name </text>
<text text-anchor="start" x="1064.8618" y="-933.9" font-family="Arial" font-size="14.00" fill="#666666">[TEXT]</text>
<polygon fill="none" stroke="#000000" points="957.5,-892.5 957.5,-922.5 1191.5,-922.5 1191.5,-892.5 957.5,-892.5"/>
<text text-anchor="start" x="964.5" y="-903.9" font-family="Arial" font-size="14.00" fill="#000000">behavior_conf_json </text>
<text text-anchor="start" x="1089.7636" y="-903.9" font-family="Arial" font-size="14.00" fill="#666666">[TEXT]</text>
<polygon fill="none" stroke="#000000" points="957.5,-862.5 957.5,-892.5 1191.5,-892.5 1191.5,-862.5 957.5,-862.5"/>
<text text-anchor="start" x="964.4278" y="-873.9" font-family="Arial" font-size="14.00" fill="#000000">assurance_schema_id </text>
<text text-anchor="start" x="1108.3548" y="-873.9" font-family="Arial" font-size="14.00" fill="#666666">[VARCHAR]</text>
<polygon fill="none" stroke="#000000" points="957.5,-832.5 957.5,-862.5 1191.5,-862.5 1191.5,-832.5 957.5,-832.5"/>
<text text-anchor="start" x="964.5" y="-843.9" font-family="Arial" font-size="14.00" fill="#000000">governance </text>
<text text-anchor="start" x="1041.5294" y="-843.9" font-family="Arial" font-size="14.00" fill="#666666">[TEXT]</text>
<polygon fill="none" stroke="#000000" points="957.5,-802.5 957.5,-832.5 1191.5,-832.5 1191.5,-802.5 957.5,-802.5"/>
<text text-anchor="start" x="964.5" y="-813.9" font-family="Arial" font-size="14.00" fill="#000000">created_at </text>
<text text-anchor="start" x="1034.528" y="-813.9" font-family="Arial" font-size="14.00" fill="#666666">[TIMESTAMP]</text>
<polygon fill="none" stroke="#000000" points="957.5,-772.5 957.5,-802.5 1191.5,-802.5 1191.5,-772.5 957.5,-772.5"/>
<text text-anchor="start" x="964.5" y="-783.9" font-family="Arial" font-size="14.00" fill="#000000">created_by </text>
<text text-anchor="start" x="1037.6374" y="-783.9" font-family="Arial" font-size="14.00" fill="#666666">[TEXT]</text>
<polygon fill="none" stroke="#000000" points="957.5,-742.5 957.5,-772.5 1191.5,-772.5 1191.5,-742.5 957.5,-742.5"/>
<text text-anchor="start" x="964.5" y="-753.9" font-family="Arial" font-size="14.00" fill="#000000">updated_at </text>
<text text-anchor="start" x="1038.4326" y="-753.9" font-family="Arial" font-size="14.00" fill="#666666">[TIMESTAMP]</text>
<polygon fill="none" stroke="#000000" points="957.5,-712.5 957.5,-742.5 1191.5,-742.5 1191.5,-712.5 957.5,-712.5"/>
<text text-anchor="start" x="964.5" y="-723.9" font-family="Arial" font-size="14.00" fill="#000000">updated_by </text>
<text text-anchor="start" x="1041.542" y="-723.9" font-family="Arial" font-size="14.00" fill="#666666">[TEXT]</text>
<polygon fill="none" stroke="#000000" points="957.5,-682.5 957.5,-712.5 1191.5,-712.5 1191.5,-682.5 957.5,-682.5"/>
<text text-anchor="start" x="964.5" y="-693.9" font-family="Arial" font-size="14.00" fill="#000000">deleted_at </text>
<text text-anchor="start" x="1033.7566" y="-693.9" font-family="Arial" font-size="14.00" fill="#666666">[TIMESTAMP]</text>
<polygon fill="none" stroke="#000000" points="957.5,-652.5 957.5,-682.5 1191.5,-682.5 1191.5,-652.5 957.5,-652.5"/>
<text text-anchor="start" x="964.5" y="-663.9" font-family="Arial" font-size="14.00" fill="#000000">deleted_by </text>
<text text-anchor="start" x="1036.866" y="-663.9" font-family="Arial" font-size="14.00" fill="#666666">[TEXT]</text>
<polygon fill="none" stroke="#000000" points="957.5,-622.5 957.5,-652.5 1191.5,-652.5 1191.5,-622.5 957.5,-622.5"/>
<text text-anchor="start" x="964.5" y="-633.9" font-family="Arial" font-size="14.00" fill="#000000">activity_log </text>
<text text-anchor="start" x="1037.622" y="-633.9" font-family="Arial" font-size="14.00" fill="#666666">[TEXT]</text>
<polygon fill="none" stroke="#000000" stroke-width="3" points="956,-621.5 956,-1049.5 1193,-1049.5 1193,-621.5 956,-621.5"/>
</g>
<!-- device -->
<g id="node7" class="node">
<title>device</title>
<polygon fill="#efefef" stroke="transparent" points="1161.5,-462.5 1161.5,-497.5 1368.5,-497.5 1368.5,-462.5 1161.5,-462.5"/>
<polygon fill="none" stroke="#000000" points="1161.5,-462.5 1161.5,-497.5 1368.5,-497.5 1368.5,-462.5 1161.5,-462.5"/>
<text text-anchor="start" x="1202.8281" y="-475.3" font-family="Arial Bold" font-size="18.00" fill="#000000">device</text>
<text text-anchor="start" x="1254.8409" y="-475.3" font-family="Arial" font-size="14.00" fill="#000000">    </text>
<text text-anchor="start" x="1289.0457" y="-475.3" font-family="Arial" font-size="14.00" fill="#666666">[table]</text>
<polygon fill="none" stroke="#000000" points="1161.5,-432.5 1161.5,-462.5 1368.5,-462.5 1368.5,-432.5 1161.5,-432.5"/>
<text text-anchor="start" x="1168.5" y="-443.9" font-family="Arial" font-size="14.00" fill="#000000">device_id    </text>
<text text-anchor="start" x="1261.831" y="-443.9" font-family="Arial" font-size="14.00" fill="#666666">[VARCHAR]</text>
<polygon fill="none" stroke="#000000" points="1161.5,-402.5 1161.5,-432.5 1368.5,-432.5 1368.5,-402.5 1161.5,-402.5"/>
<text text-anchor="start" x="1168.5" y="-413.9" font-family="Arial" font-size="14.00" fill="#000000">name    </text>
<text text-anchor="start" x="1237.7132" y="-413.9" font-family="Arial" font-size="14.00" fill="#666666">[TEXT]</text>
<polygon fill="none" stroke="#000000" points="1161.5,-372.5 1161.5,-402.5 1368.5,-402.5 1368.5,-372.5 1161.5,-372.5"/>
<text text-anchor="start" x="1168.5" y="-383.9" font-family="Arial" font-size="14.00" fill="#000000">state    </text>
<text text-anchor="start" x="1233.0512" y="-383.9" font-family="Arial" font-size="14.00" fill="#666666">[TEXT]</text>
<polygon fill="none" stroke="#000000" points="1161.5,-342.5 1161.5,-372.5 1368.5,-372.5 1368.5,-342.5 1161.5,-342.5"/>
<text text-anchor="start" x="1168.5" y="-353.9" font-family="Arial" font-size="14.00" fill="#000000">boundary    </text>
<text text-anchor="start" x="1261.061" y="-353.9" font-family="Arial" font-size="14.00" fill="#666666">[TEXT]</text>
<polygon fill="none" stroke="#000000" points="1161.5,-312.5 1161.5,-342.5 1368.5,-342.5 1368.5,-312.5 1161.5,-312.5"/>
<text text-anchor="start" x="1168.5" y="-323.9" font-family="Arial" font-size="14.00" fill="#000000">segmentation    </text>
<text text-anchor="start" x="1286.7314" y="-323.9" font-family="Arial" font-size="14.00" fill="#666666">[TEXT]</text>
<polygon fill="none" stroke="#000000" points="1161.5,-282.5 1161.5,-312.5 1368.5,-312.5 1368.5,-282.5 1161.5,-282.5"/>
<text text-anchor="start" x="1168.5" y="-293.9" font-family="Arial" font-size="14.00" fill="#000000">state_sysinfo    </text>
<text text-anchor="start" x="1284.3962" y="-293.9" font-family="Arial" font-size="14.00" fill="#666666">[TEXT]</text>
<polygon fill="none" stroke="#000000" points="1161.5,-252.5 1161.5,-282.5 1368.5,-282.5 1368.5,-252.5 1161.5,-252.5"/>
<text text-anchor="start" x="1168.5" y="-263.9" font-family="Arial" font-size="14.00" fill="#000000">elaboration    </text>
<text text-anchor="start" x="1271.9474" y="-263.9" font-family="Arial" font-size="14.00" fill="#666666">[TEXT]</text>
<polygon fill="none" stroke="#000000" points="1161.5,-222.5 1161.5,-252.5 1368.5,-252.5 1368.5,-222.5 1161.5,-222.5"/>
<text text-anchor="start" x="1168.5" y="-233.9" font-family="Arial" font-size="14.00" fill="#000000">created_at    </text>
<text text-anchor="start" x="1268.8422" y="-233.9" font-family="Arial" font-size="14.00" fill="#666666">[TIMESTAMP]</text>
<polygon fill="none" stroke="#000000" points="1161.5,-192.5 1161.5,-222.5 1368.5,-222.5 1368.5,-192.5 1161.5,-192.5"/>
<text text-anchor="start" x="1168.5" y="-203.9" font-family="Arial" font-size="14.00" fill="#000000">created_by    </text>
<text text-anchor="start" x="1271.9516" y="-203.9" font-family="Arial" font-size="14.00" fill="#666666">[TEXT]</text>
<polygon fill="none" stroke="#000000" points="1161.5,-162.5 1161.5,-192.5 1368.5,-192.5 1368.5,-162.5 1161.5,-162.5"/>
<text text-anchor="start" x="1168.1543" y="-173.9" font-family="Arial" font-size="14.00" fill="#000000">updated_at    </text>
<text text-anchor="start" x="1272.4011" y="-173.9" font-family="Arial" font-size="14.00" fill="#666666">[TIMESTAMP]</text>
<polygon fill="none" stroke="#000000" points="1161.5,-132.5 1161.5,-162.5 1368.5,-162.5 1368.5,-132.5 1161.5,-132.5"/>
<text text-anchor="start" x="1168.5" y="-143.9" font-family="Arial" font-size="14.00" fill="#000000">updated_by    </text>
<text text-anchor="start" x="1275.8562" y="-143.9" font-family="Arial" font-size="14.00" fill="#666666">[TEXT]</text>
<polygon fill="none" stroke="#000000" points="1161.5,-102.5 1161.5,-132.5 1368.5,-132.5 1368.5,-102.5 1161.5,-102.5"/>
<text text-anchor="start" x="1168.5" y="-113.9" font-family="Arial" font-size="14.00" fill="#000000">deleted_at    </text>
<text text-anchor="start" x="1268.0708" y="-113.9" font-family="Arial" font-size="14.00" fill="#666666">[TIMESTAMP]</text>
<polygon fill="none" stroke="#000000" points="1161.5,-72.5 1161.5,-102.5 1368.5,-102.5 1368.5,-72.5 1161.5,-72.5"/>
<text text-anchor="start" x="1168.5" y="-83.9" font-family="Arial" font-size="14.00" fill="#000000">deleted_by    </text>
<text text-anchor="start" x="1271.1802" y="-83.9" font-family="Arial" font-size="14.00" fill="#666666">[TEXT]</text>
<polygon fill="none" stroke="#000000" points="1161.5,-42.5 1161.5,-72.5 1368.5,-72.5 1368.5,-42.5 1161.5,-42.5"/>
<text text-anchor="start" x="1168.5" y="-53.9" font-family="Arial" font-size="14.00" fill="#000000">activity_log    </text>
<text text-anchor="start" x="1271.9362" y="-53.9" font-family="Arial" font-size="14.00" fill="#666666">[TEXT]</text>
</g>
<!-- behavior&#45;&gt;device -->
<g id="edge7" class="edge">
<title>behavior:device_id&#45;&gt;device:device_id</title>
<path fill="none" stroke="#000000" d="M1201.4628,-965.978C1273.6292,-942.5425 1219.8297,-655.248 1191.5,-577 1184.4098,-557.4167 1168.5902,-560.5833 1161.5,-541 1147.3534,-501.9265 1119.9444,-447.5 1161.5,-447.5"/>
<polygon fill="#000000" stroke="#000000" points="1201.3853,-965.9897 1190.8204,-963.0516 1196.4427,-966.7449 1191.5,-967.5 1191.5,-967.5 1191.5,-967.5 1196.4427,-966.7449 1192.1796,-971.9484 1201.3853,-965.9897 1201.3853,-965.9897"/>
</g>
<!-- ur_ingest_session -->
<g id="node2" class="node">
<title>ur_ingest_session</title>
<polygon fill="#efefef" stroke="transparent" points="946.5,-1592.5 946.5,-1627.5 1201.5,-1627.5 1201.5,-1592.5 946.5,-1592.5"/>
<polygon fill="none" stroke="#000000" points="946.5,-1592.5 946.5,-1627.5 1201.5,-1627.5 1201.5,-1592.5 946.5,-1592.5"/>
<text text-anchor="start" x="965.3152" y="-1605.3" font-family="Arial Bold" font-size="18.00" fill="#000000">ur_ingest_session</text>
<text text-anchor="start" x="1110.3538" y="-1605.3" font-family="Arial" font-size="14.00" fill="#000000">    </text>
<text text-anchor="start" x="1144.5586" y="-1605.3" font-family="Arial" font-size="14.00" fill="#666666">[table]</text>
<polygon fill="none" stroke="#000000" points="946.5,-1562.5 946.5,-1592.5 1201.5,-1592.5 1201.5,-1562.5 946.5,-1562.5"/>
<text text-anchor="start" x="953.0491" y="-1573.9" font-family="Arial" font-size="14.00" fill="#000000">ur_ingest_session_id    </text>
<text text-anchor="start" x="1118.7335" y="-1573.9" font-family="Arial" font-size="14.00" fill="#666666">[VARCHAR]</text>
<polygon fill="none" stroke="#000000" points="946.5,-1532.5 946.5,-1562.5 1201.5,-1562.5 1201.5,-1532.5 946.5,-1532.5"/>
<text text-anchor="start" x="953.5" y="-1543.9" font-family="Arial" font-size="14.00" fill="#000000">device_id    </text>
<text text-anchor="start" x="1046.831" y="-1543.9" font-family="Arial" font-size="14.00" fill="#666666">[VARCHAR]</text>
<polygon fill="none" stroke="#000000" points="946.5,-1502.5 946.5,-1532.5 1201.5,-1532.5 1201.5,-1502.5 946.5,-1502.5"/>
<text text-anchor="start" x="953.5" y="-1513.9" font-family="Arial" font-size="14.00" fill="#000000">behavior_id    </text>
<text text-anchor="start" x="1060.0568" y="-1513.9" font-family="Arial" font-size="14.00" fill="#666666">[VARCHAR]</text>
<polygon fill="none" stroke="#000000" points="946.5,-1472.5 946.5,-1502.5 1201.5,-1502.5 1201.5,-1472.5 946.5,-1472.5"/>
<text text-anchor="start" x="953.5" y="-1483.9" font-family="Arial" font-size="14.00" fill="#000000">behavior_json    </text>
<text text-anchor="start" x="1074.8394" y="-1483.9" font-family="Arial" font-size="14.00" fill="#666666">[TEXT]</text>
<polygon fill="none" stroke="#000000" points="946.5,-1442.5 946.5,-1472.5 1201.5,-1472.5 1201.5,-1442.5 946.5,-1442.5"/>
<text text-anchor="start" x="953.5" y="-1453.9" font-family="Arial" font-size="14.00" fill="#000000">ingest_started_at    </text>
<text text-anchor="start" x="1095.0778" y="-1453.9" font-family="Arial" font-size="14.00" fill="#666666">[TIMESTAMP]</text>
<polygon fill="none" stroke="#000000" points="946.5,-1412.5 946.5,-1442.5 1201.5,-1442.5 1201.5,-1412.5 946.5,-1412.5"/>
<text text-anchor="start" x="953.5" y="-1423.9" font-family="Arial" font-size="14.00" fill="#000000">ingest_finished_at    </text>
<text text-anchor="start" x="1100.5224" y="-1423.9" font-family="Arial" font-size="14.00" fill="#666666">[TIMESTAMP]</text>
<polygon fill="none" stroke="#000000" points="946.5,-1382.5 946.5,-1412.5 1201.5,-1412.5 1201.5,-1382.5 946.5,-1382.5"/>
<text text-anchor="start" x="953.5" y="-1393.9" font-family="Arial" font-size="14.00" fill="#000000">elaboration    </text>
<text text-anchor="start" x="1056.9474" y="-1393.9" font-family="Arial" font-size="14.00" fill="#666666">[TEXT]</text>
<polygon fill="none" stroke="#000000" points="946.5,-1352.5 946.5,-1382.5 1201.5,-1382.5 1201.5,-1352.5 946.5,-1352.5"/>
<text text-anchor="start" x="953.5" y="-1363.9" font-family="Arial" font-size="14.00" fill="#000000">created_at    </text>
<text text-anchor="start" x="1053.8422" y="-1363.9" font-family="Arial" font-size="14.00" fill="#666666">[TIMESTAMP]</text>
<polygon fill="none" stroke="#000000" points="946.5,-1322.5 946.5,-1352.5 1201.5,-1352.5 1201.5,-1322.5 946.5,-1322.5"/>
<text text-anchor="start" x="953.5" y="-1333.9" font-family="Arial" font-size="14.00" fill="#000000">created_by    </text>
<text text-anchor="start" x="1056.9516" y="-1333.9" font-family="Arial" font-size="14.00" fill="#666666">[TEXT]</text>
<polygon fill="none" stroke="#000000" points="946.5,-1292.5 946.5,-1322.5 1201.5,-1322.5 1201.5,-1292.5 946.5,-1292.5"/>
<text text-anchor="start" x="953.5" y="-1303.9" font-family="Arial" font-size="14.00" fill="#000000">updated_at    </text>
<text text-anchor="start" x="1057.7468" y="-1303.9" font-family="Arial" font-size="14.00" fill="#666666">[TIMESTAMP]</text>
<polygon fill="none" stroke="#000000" points="946.5,-1262.5 946.5,-1292.5 1201.5,-1292.5 1201.5,-1262.5 946.5,-1262.5"/>
<text text-anchor="start" x="953.5" y="-1273.9" font-family="Arial" font-size="14.00" fill="#000000">updated_by    </text>
<text text-anchor="start" x="1060.8562" y="-1273.9" font-family="Arial" font-size="14.00" fill="#666666">[TEXT]</text>
<polygon fill="none" stroke="#000000" points="946.5,-1232.5 946.5,-1262.5 1201.5,-1262.5 1201.5,-1232.5 946.5,-1232.5"/>
<text text-anchor="start" x="953.5" y="-1243.9" font-family="Arial" font-size="14.00" fill="#000000">deleted_at    </text>
<text text-anchor="start" x="1053.0708" y="-1243.9" font-family="Arial" font-size="14.00" fill="#666666">[TIMESTAMP]</text>
<polygon fill="none" stroke="#000000" points="946.5,-1202.5 946.5,-1232.5 1201.5,-1232.5 1201.5,-1202.5 946.5,-1202.5"/>
<text text-anchor="start" x="953.5" y="-1213.9" font-family="Arial" font-size="14.00" fill="#000000">deleted_by    </text>
<text text-anchor="start" x="1056.1802" y="-1213.9" font-family="Arial" font-size="14.00" fill="#666666">[TEXT]</text>
<polygon fill="none" stroke="#000000" points="946.5,-1172.5 946.5,-1202.5 1201.5,-1202.5 1201.5,-1172.5 946.5,-1172.5"/>
<text text-anchor="start" x="953.5" y="-1183.9" font-family="Arial" font-size="14.00" fill="#000000">activity_log    </text>
<text text-anchor="start" x="1056.9362" y="-1183.9" font-family="Arial" font-size="14.00" fill="#666666">[TEXT]</text>
</g>
<!-- ur_ingest_session&#45;&gt;behavior -->
<g id="edge1" class="edge">
<title>ur_ingest_session:behavior_id&#45;&gt;behavior:behavior_id</title>
<path fill="none" stroke="#000000" d="M1211.8047,-1517.1789C1371.2522,-1507.0067 1311.7336,-1257.6909 1201.5,-1130 1129.8679,-1047.0238 1029.1321,-1176.9762 957.5,-1094 929.4735,-1061.5351 914.6111,-997.5 957.5,-997.5"/>
<polygon fill="#000000" stroke="#000000" points="1211.4951,-1517.1884 1201.3598,-1513.0022 1206.4976,-1517.3442 1201.5,-1517.5 1201.5,-1517.5 1201.5,-1517.5 1206.4976,-1517.3442 1201.6402,-1521.9978 1211.4951,-1517.1884 1211.4951,-1517.1884"/>
</g>
<!-- ur_ingest_session&#45;&gt;device -->
<g id="edge6" class="edge">
<title>ur_ingest_session:device_id&#45;&gt;device:device_id</title>
<path fill="none" stroke="#000000" d="M1211.5873,-1546.9681C1425.875,-1523.9974 1350.1634,-763.5385 1368.5,-541 1371.9125,-499.5848 1410.0556,-447.5 1368.5,-447.5"/>
<polygon fill="#000000" stroke="#000000" points="1211.4861,-1546.9734 1201.263,-1543.0062 1206.4931,-1547.2367 1201.5,-1547.5 1201.5,-1547.5 1201.5,-1547.5 1206.4931,-1547.2367 1201.737,-1551.9938 1211.4861,-1546.9734 1211.4861,-1546.9734"/>
</g>
<!-- ur_ingest_session_fs_path -->
<g id="node3" class="node">
<title>ur_ingest_session_fs_path</title>
<polygon fill="#efefef" stroke="transparent" points="43.5,-2229.5 43.5,-2264.5 352.5,-2264.5 352.5,-2229.5 43.5,-2229.5"/>
<polygon fill="none" stroke="#000000" points="43.5,-2229.5 43.5,-2264.5 352.5,-2264.5 352.5,-2229.5 43.5,-2229.5"/>
<text text-anchor="start" x="54.7975" y="-2242.3" font-family="Arial Bold" font-size="18.00" fill="#000000">ur_ingest_session_fs_path</text>
<text text-anchor="start" x="268.8715" y="-2242.3" font-family="Arial" font-size="14.00" fill="#000000">    </text>
<text text-anchor="start" x="303.0763" y="-2242.3" font-family="Arial" font-size="14.00" fill="#666666">[table]</text>
<polygon fill="none" stroke="#000000" points="43.5,-2199.5 43.5,-2229.5 352.5,-2229.5 352.5,-2199.5 43.5,-2199.5"/>
<text text-anchor="start" x="50.202" y="-2210.9" font-family="Arial" font-size="14.00" fill="#000000">ur_ingest_session_fs_path_id    </text>
<text text-anchor="start" x="269.5806" y="-2210.9" font-family="Arial" font-size="14.00" fill="#666666">[VARCHAR]</text>
<polygon fill="none" stroke="#000000" points="43.5,-2169.5 43.5,-2199.5 352.5,-2199.5 352.5,-2169.5 43.5,-2169.5"/>
<text text-anchor="start" x="50.5" y="-2180.9" font-family="Arial" font-size="14.00" fill="#000000">ingest_session_id    </text>
<text text-anchor="start" x="195.9586" y="-2180.9" font-family="Arial" font-size="14.00" fill="#666666">[VARCHAR]</text>
<polygon fill="none" stroke="#000000" points="43.5,-2139.5 43.5,-2169.5 352.5,-2169.5 352.5,-2139.5 43.5,-2139.5"/>
<text text-anchor="start" x="50.5" y="-2150.9" font-family="Arial" font-size="14.00" fill="#000000">root_path    </text>
<text text-anchor="start" x="143.8422" y="-2150.9" font-family="Arial" font-size="14.00" fill="#666666">[TEXT]</text>
<polygon fill="none" stroke="#000000" points="43.5,-2109.5 43.5,-2139.5 352.5,-2139.5 352.5,-2109.5 43.5,-2109.5"/>
<text text-anchor="start" x="50.5" y="-2120.9" font-family="Arial" font-size="14.00" fill="#000000">elaboration    </text>
<text text-anchor="start" x="153.9474" y="-2120.9" font-family="Arial" font-size="14.00" fill="#666666">[TEXT]</text>
<polygon fill="none" stroke="#000000" points="43.5,-2079.5 43.5,-2109.5 352.5,-2109.5 352.5,-2079.5 43.5,-2079.5"/>
<text text-anchor="start" x="50.5" y="-2090.9" font-family="Arial" font-size="14.00" fill="#000000">created_at    </text>
<text text-anchor="start" x="150.8422" y="-2090.9" font-family="Arial" font-size="14.00" fill="#666666">[TIMESTAMP]</text>
<polygon fill="none" stroke="#000000" points="43.5,-2049.5 43.5,-2079.5 352.5,-2079.5 352.5,-2049.5 43.5,-2049.5"/>
<text text-anchor="start" x="50.5" y="-2060.9" font-family="Arial" font-size="14.00" fill="#000000">created_by    </text>
<text text-anchor="start" x="153.9516" y="-2060.9" font-family="Arial" font-size="14.00" fill="#666666">[TEXT]</text>
<polygon fill="none" stroke="#000000" points="43.5,-2019.5 43.5,-2049.5 352.5,-2049.5 352.5,-2019.5 43.5,-2019.5"/>
<text text-anchor="start" x="50.5" y="-2030.9" font-family="Arial" font-size="14.00" fill="#000000">updated_at    </text>
<text text-anchor="start" x="154.7468" y="-2030.9" font-family="Arial" font-size="14.00" fill="#666666">[TIMESTAMP]</text>
<polygon fill="none" stroke="#000000" points="43.5,-1989.5 43.5,-2019.5 352.5,-2019.5 352.5,-1989.5 43.5,-1989.5"/>
<text text-anchor="start" x="50.5" y="-2000.9" font-family="Arial" font-size="14.00" fill="#000000">updated_by    </text>
<text text-anchor="start" x="157.8562" y="-2000.9" font-family="Arial" font-size="14.00" fill="#666666">[TEXT]</text>
<polygon fill="none" stroke="#000000" points="43.5,-1959.5 43.5,-1989.5 352.5,-1989.5 352.5,-1959.5 43.5,-1959.5"/>
<text text-anchor="start" x="50.5" y="-1970.9" font-family="Arial" font-size="14.00" fill="#000000">deleted_at    </text>
<text text-anchor="start" x="150.0708" y="-1970.9" font-family="Arial" font-size="14.00" fill="#666666">[TIMESTAMP]</text>
<polygon fill="none" stroke="#000000" points="43.5,-1929.5 43.5,-1959.5 352.5,-1959.5 352.5,-1929.5 43.5,-1929.5"/>
<text text-anchor="start" x="50.5" y="-1940.9" font-family="Arial" font-size="14.00" fill="#000000">deleted_by    </text>
<text text-anchor="start" x="153.1802" y="-1940.9" font-family="Arial" font-size="14.00" fill="#666666">[TEXT]</text>
<polygon fill="none" stroke="#000000" points="43.5,-1899.5 43.5,-1929.5 352.5,-1929.5 352.5,-1899.5 43.5,-1899.5"/>
<text text-anchor="start" x="50.5" y="-1910.9" font-family="Arial" font-size="14.00" fill="#000000">activity_log    </text>
<text text-anchor="start" x="153.9362" y="-1910.9" font-family="Arial" font-size="14.00" fill="#666666">[TEXT]</text>
</g>
<!-- ur_ingest_session_fs_path&#45;&gt;ur_ingest_session -->
<g id="edge2" class="edge">
<title>ur_ingest_session_fs_path:ingest_session_id&#45;&gt;ur_ingest_session:ur_ingest_session_id</title>
<path fill="none" stroke="#000000" d="M362.6487,-2183.1357C450.9012,-2157.7033 336.3406,-1784.3426 404.5,-1707 486.3749,-1614.094 822.6653,-1577.5 946.5,-1577.5"/>
<polygon fill="#000000" stroke="#000000" points="362.4108,-2183.1676 351.9004,-2180.0401 357.4554,-2183.8338 352.5,-2184.5 352.5,-2184.5 352.5,-2184.5 357.4554,-2183.8338 353.0996,-2188.9599 362.4108,-2183.1676 362.4108,-2183.1676"/>
</g>
<!-- uniform_resource -->
<g id="node4" class="node">
<title>uniform_resource</title>
<polygon fill="#efefef" stroke="transparent" points="1343.5,-2364.5 1343.5,-2399.5 1594.5,-2399.5 1594.5,-2364.5 1343.5,-2364.5"/>
<polygon fill="none" stroke="#000000" points="1343.5,-2364.5 1343.5,-2399.5 1594.5,-2399.5 1594.5,-2364.5 1343.5,-2364.5"/>
<text text-anchor="start" x="1362.8271" y="-2377.3" font-family="Arial Bold" font-size="18.00" fill="#000000">uniform_resource</text>
<text text-anchor="start" x="1502.8419" y="-2377.3" font-family="Arial" font-size="14.00" fill="#000000">    </text>
<text text-anchor="start" x="1537.0467" y="-2377.3" font-family="Arial" font-size="14.00" fill="#666666">[table]</text>
<polygon fill="none" stroke="#000000" points="1343.5,-2334.5 1343.5,-2364.5 1594.5,-2364.5 1594.5,-2334.5 1343.5,-2334.5"/>
<text text-anchor="start" x="1350.0028" y="-2345.9" font-family="Arial" font-size="14.00" fill="#000000">uniform_resource_id    </text>
<text text-anchor="start" x="1511.7798" y="-2345.9" font-family="Arial" font-size="14.00" fill="#666666">[VARCHAR]</text>
<polygon fill="none" stroke="#000000" points="1343.5,-2304.5 1343.5,-2334.5 1594.5,-2334.5 1594.5,-2304.5 1343.5,-2304.5"/>
<text text-anchor="start" x="1350.5" y="-2315.9" font-family="Arial" font-size="14.00" fill="#000000">device_id    </text>
<text text-anchor="start" x="1443.831" y="-2315.9" font-family="Arial" font-size="14.00" fill="#666666">[VARCHAR]</text>
<polygon fill="none" stroke="#000000" points="1343.5,-2274.5 1343.5,-2304.5 1594.5,-2304.5 1594.5,-2274.5 1343.5,-2274.5"/>
<text text-anchor="start" x="1350.5" y="-2285.9" font-family="Arial" font-size="14.00" fill="#000000">ingest_session_id    </text>
<text text-anchor="start" x="1495.9586" y="-2285.9" font-family="Arial" font-size="14.00" fill="#666666">[VARCHAR]</text>
<polygon fill="none" stroke="#000000" points="1343.5,-2244.5 1343.5,-2274.5 1594.5,-2274.5 1594.5,-2244.5 1343.5,-2244.5"/>
<text text-anchor="start" x="1350.5" y="-2255.9" font-family="Arial" font-size="14.00" fill="#000000">ingest_fs_path_id    </text>
<text text-anchor="start" x="1494.4158" y="-2255.9" font-family="Arial" font-size="14.00" fill="#666666">[VARCHAR]</text>
<polygon fill="none" stroke="#000000" points="1343.5,-2214.5 1343.5,-2244.5 1594.5,-2244.5 1594.5,-2214.5 1343.5,-2214.5"/>
<text text-anchor="start" x="1350.5" y="-2225.9" font-family="Arial" font-size="14.00" fill="#000000">uri    </text>
<text text-anchor="start" x="1400.2546" y="-2225.9" font-family="Arial" font-size="14.00" fill="#666666">[TEXT]</text>
<polygon fill="none" stroke="#000000" points="1343.5,-2184.5 1343.5,-2214.5 1594.5,-2214.5 1594.5,-2184.5 1343.5,-2184.5"/>
<text text-anchor="start" x="1350.5" y="-2195.9" font-family="Arial" font-size="14.00" fill="#000000">content_digest    </text>
<text text-anchor="start" x="1475.744" y="-2195.9" font-family="Arial" font-size="14.00" fill="#666666">[TEXT]</text>
<polygon fill="none" stroke="#000000" points="1343.5,-2154.5 1343.5,-2184.5 1594.5,-2184.5 1594.5,-2154.5 1343.5,-2154.5"/>
<text text-anchor="start" x="1350.5" y="-2165.9" font-family="Arial" font-size="14.00" fill="#000000">content    </text>
<text text-anchor="start" x="1430.6164" y="-2165.9" font-family="Arial" font-size="14.00" fill="#666666">[BLOB]</text>
<polygon fill="none" stroke="#000000" points="1343.5,-2124.5 1343.5,-2154.5 1594.5,-2154.5 1594.5,-2124.5 1343.5,-2124.5"/>
<text text-anchor="start" x="1350.5" y="-2135.9" font-family="Arial" font-size="14.00" fill="#000000">nature    </text>
<text text-anchor="start" x="1424.3864" y="-2135.9" font-family="Arial" font-size="14.00" fill="#666666">[TEXT]</text>
<polygon fill="none" stroke="#000000" points="1343.5,-2094.5 1343.5,-2124.5 1594.5,-2124.5 1594.5,-2094.5 1343.5,-2094.5"/>
<text text-anchor="start" x="1350.5" y="-2105.9" font-family="Arial" font-size="14.00" fill="#000000">size_bytes    </text>
<text text-anchor="start" x="1450.8324" y="-2105.9" font-family="Arial" font-size="14.00" fill="#666666">[INTEGER]</text>
<polygon fill="none" stroke="#000000" points="1343.5,-2064.5 1343.5,-2094.5 1594.5,-2094.5 1594.5,-2064.5 1343.5,-2064.5"/>
<text text-anchor="start" x="1350.5" y="-2075.9" font-family="Arial" font-size="14.00" fill="#000000">last_modified_at    </text>
<text text-anchor="start" x="1486.6178" y="-2075.9" font-family="Arial" font-size="14.00" fill="#666666">[TIMESTAMP]</text>
<polygon fill="none" stroke="#000000" points="1343.5,-2034.5 1343.5,-2064.5 1594.5,-2064.5 1594.5,-2034.5 1343.5,-2034.5"/>
<text text-anchor="start" x="1350.5" y="-2045.9" font-family="Arial" font-size="14.00" fill="#000000">content_fm_body_attrs    </text>
<text text-anchor="start" x="1527.0876" y="-2045.9" font-family="Arial" font-size="14.00" fill="#666666">[TEXT]</text>
<polygon fill="none" stroke="#000000" points="1343.5,-2004.5 1343.5,-2034.5 1594.5,-2034.5 1594.5,-2004.5 1343.5,-2004.5"/>
<text text-anchor="start" x="1350.5" y="-2015.9" font-family="Arial" font-size="14.00" fill="#000000">frontmatter    </text>
<text text-anchor="start" x="1452.3794" y="-2015.9" font-family="Arial" font-size="14.00" fill="#666666">[TEXT]</text>
<polygon fill="none" stroke="#000000" points="1343.5,-1974.5 1343.5,-2004.5 1594.5,-2004.5 1594.5,-1974.5 1343.5,-1974.5"/>
<text text-anchor="start" x="1350.5" y="-1985.9" font-family="Arial" font-size="14.00" fill="#000000">elaboration    </text>
<text text-anchor="start" x="1453.9474" y="-1985.9" font-family="Arial" font-size="14.00" fill="#666666">[TEXT]</text>
<polygon fill="none" stroke="#000000" points="1343.5,-1944.5 1343.5,-1974.5 1594.5,-1974.5 1594.5,-1944.5 1343.5,-1944.5"/>
<text text-anchor="start" x="1350.5" y="-1955.9" font-family="Arial" font-size="14.00" fill="#000000">created_at    </text>
<text text-anchor="start" x="1450.8422" y="-1955.9" font-family="Arial" font-size="14.00" fill="#666666">[TIMESTAMP]</text>
<polygon fill="none" stroke="#000000" points="1343.5,-1914.5 1343.5,-1944.5 1594.5,-1944.5 1594.5,-1914.5 1343.5,-1914.5"/>
<text text-anchor="start" x="1350.5" y="-1925.9" font-family="Arial" font-size="14.00" fill="#000000">created_by    </text>
<text text-anchor="start" x="1453.9516" y="-1925.9" font-family="Arial" font-size="14.00" fill="#666666">[TEXT]</text>
<polygon fill="none" stroke="#000000" points="1343.5,-1884.5 1343.5,-1914.5 1594.5,-1914.5 1594.5,-1884.5 1343.5,-1884.5"/>
<text text-anchor="start" x="1350.5" y="-1895.9" font-family="Arial" font-size="14.00" fill="#000000">updated_at    </text>
<text text-anchor="start" x="1454.7468" y="-1895.9" font-family="Arial" font-size="14.00" fill="#666666">[TIMESTAMP]</text>
<polygon fill="none" stroke="#000000" points="1343.5,-1854.5 1343.5,-1884.5 1594.5,-1884.5 1594.5,-1854.5 1343.5,-1854.5"/>
<text text-anchor="start" x="1350.5" y="-1865.9" font-family="Arial" font-size="14.00" fill="#000000">updated_by    </text>
<text text-anchor="start" x="1457.8562" y="-1865.9" font-family="Arial" font-size="14.00" fill="#666666">[TEXT]</text>
<polygon fill="none" stroke="#000000" points="1343.5,-1824.5 1343.5,-1854.5 1594.5,-1854.5 1594.5,-1824.5 1343.5,-1824.5"/>
<text text-anchor="start" x="1350.5" y="-1835.9" font-family="Arial" font-size="14.00" fill="#000000">deleted_at    </text>
<text text-anchor="start" x="1450.0708" y="-1835.9" font-family="Arial" font-size="14.00" fill="#666666">[TIMESTAMP]</text>
<polygon fill="none" stroke="#000000" points="1343.5,-1794.5 1343.5,-1824.5 1594.5,-1824.5 1594.5,-1794.5 1343.5,-1794.5"/>
<text text-anchor="start" x="1350.5" y="-1805.9" font-family="Arial" font-size="14.00" fill="#000000">deleted_by    </text>
<text text-anchor="start" x="1453.1802" y="-1805.9" font-family="Arial" font-size="14.00" fill="#666666">[TEXT]</text>
<polygon fill="none" stroke="#000000" points="1343.5,-1764.5 1343.5,-1794.5 1594.5,-1794.5 1594.5,-1764.5 1343.5,-1764.5"/>
<text text-anchor="start" x="1350.5" y="-1775.9" font-family="Arial" font-size="14.00" fill="#000000">activity_log    </text>
<text text-anchor="start" x="1453.9362" y="-1775.9" font-family="Arial" font-size="14.00" fill="#666666">[TEXT]</text>
</g>
<!-- uniform_resource&#45;&gt;ur_ingest_session -->
<g id="edge3" class="edge">
<title>uniform_resource:ingest_session_id&#45;&gt;ur_ingest_session:ur_ingest_session_id</title>
<path fill="none" stroke="#000000" d="M1334.022,-2285.2943C1281.9462,-2235.7915 1311.403,-1764.905 1290.5,-1707 1266.7872,-1641.3114 1271.3376,-1577.5 1201.5,-1577.5"/>
<polygon fill="#000000" stroke="#000000" points="1334.3595,-2285.444 1341.6748,-2293.6132 1338.9297,-2287.472 1343.5,-2289.5 1343.5,-2289.5 1343.5,-2289.5 1338.9297,-2287.472 1345.3252,-2285.3868 1334.3595,-2285.444 1334.3595,-2285.444"/>
</g>
<!-- uniform_resource&#45;&gt;device -->
<g id="edge8" class="edge">
<title>uniform_resource:device_id&#45;&gt;device:device_id</title>
<path fill="none" stroke="#000000" d="M1334.7159,-2314.1299C1253.7253,-2204.3281 1469.259,-447.5 1368.5,-447.5"/>
<polygon fill="#000000" stroke="#000000" points="1334.9681,-2314.284 1341.1528,-2323.3394 1339.234,-2316.892 1343.5,-2319.5 1343.5,-2319.5 1343.5,-2319.5 1339.234,-2316.892 1345.8472,-2315.6606 1334.9681,-2314.284 1334.9681,-2314.284"/>
</g>
<!-- ur_ingest_session_fs_path_entry -->
<g id="node5" class="node">
<title>ur_ingest_session_fs_path_entry</title>
<polygon fill="#efefef" stroke="transparent" points="456.5,-2379.5 456.5,-2414.5 806.5,-2414.5 806.5,-2379.5 456.5,-2379.5"/>
<polygon fill="none" stroke="#000000" points="456.5,-2379.5 456.5,-2414.5 806.5,-2414.5 806.5,-2379.5 456.5,-2379.5"/>
<text text-anchor="start" x="463.291" y="-2392.3" font-family="Arial Bold" font-size="18.00" fill="#000000">ur_ingest_session_fs_path_entry</text>
<text text-anchor="start" x="727.378" y="-2392.3" font-family="Arial" font-size="14.00" fill="#000000">    </text>
<text text-anchor="start" x="761.5828" y="-2392.3" font-family="Arial" font-size="14.00" fill="#666666">[table]</text>
<polygon fill="none" stroke="#000000" points="456.5,-2349.5 456.5,-2379.5 806.5,-2379.5 806.5,-2349.5 456.5,-2349.5"/>
<text text-anchor="start" x="463.5" y="-2360.9" font-family="Arial" font-size="14.00" fill="#000000">ur_ingest_session_fs_path_entry_id    </text>
<text text-anchor="start" x="721.7776" y="-2360.9" font-family="Arial" font-size="14.00" fill="#666666">[VARCHAR]</text>
<polygon fill="none" stroke="#000000" points="456.5,-2319.5 456.5,-2349.5 806.5,-2349.5 806.5,-2319.5 456.5,-2319.5"/>
<text text-anchor="start" x="463.5" y="-2330.9" font-family="Arial" font-size="14.00" fill="#000000">ingest_session_id    </text>
<text text-anchor="start" x="608.9586" y="-2330.9" font-family="Arial" font-size="14.00" fill="#666666">[VARCHAR]</text>
<polygon fill="none" stroke="#000000" points="456.5,-2289.5 456.5,-2319.5 806.5,-2319.5 806.5,-2289.5 456.5,-2289.5"/>
<text text-anchor="start" x="463.5" y="-2300.9" font-family="Arial" font-size="14.00" fill="#000000">ingest_fs_path_id    </text>
<text text-anchor="start" x="607.4158" y="-2300.9" font-family="Arial" font-size="14.00" fill="#666666">[VARCHAR]</text>
<polygon fill="none" stroke="#000000" points="456.5,-2259.5 456.5,-2289.5 806.5,-2289.5 806.5,-2259.5 456.5,-2259.5"/>
<text text-anchor="start" x="463.5" y="-2270.9" font-family="Arial" font-size="14.00" fill="#000000">uniform_resource_id    </text>
<text text-anchor="start" x="625.277" y="-2270.9" font-family="Arial" font-size="14.00" fill="#666666">[VARCHAR]</text>
<polygon fill="none" stroke="#000000" points="456.5,-2229.5 456.5,-2259.5 806.5,-2259.5 806.5,-2229.5 456.5,-2229.5"/>
<text text-anchor="start" x="463.5" y="-2240.9" font-family="Arial" font-size="14.00" fill="#000000">file_path_abs    </text>
<text text-anchor="start" x="580.96" y="-2240.9" font-family="Arial" font-size="14.00" fill="#666666">[TEXT]</text>
<polygon fill="none" stroke="#000000" points="456.5,-2199.5 456.5,-2229.5 806.5,-2229.5 806.5,-2199.5 456.5,-2199.5"/>
<text text-anchor="start" x="463.5" y="-2210.9" font-family="Arial" font-size="14.00" fill="#000000">file_path_rel_parent    </text>
<text text-anchor="start" x="621.4088" y="-2210.9" font-family="Arial" font-size="14.00" fill="#666666">[TEXT]</text>
<polygon fill="none" stroke="#000000" points="456.5,-2169.5 456.5,-2199.5 806.5,-2199.5 806.5,-2169.5 456.5,-2169.5"/>
<text text-anchor="start" x="463.5" y="-2180.9" font-family="Arial" font-size="14.00" fill="#000000">file_path_rel    </text>
<text text-anchor="start" x="573.9446" y="-2180.9" font-family="Arial" font-size="14.00" fill="#666666">[TEXT]</text>
<polygon fill="none" stroke="#000000" points="456.5,-2139.5 456.5,-2169.5 806.5,-2169.5 806.5,-2139.5 456.5,-2139.5"/>
<text text-anchor="start" x="463.5" y="-2150.9" font-family="Arial" font-size="14.00" fill="#000000">file_basename    </text>
<text text-anchor="start" x="588.73" y="-2150.9" font-family="Arial" font-size="14.00" fill="#666666">[TEXT]</text>
<polygon fill="none" stroke="#000000" points="456.5,-2109.5 456.5,-2139.5 806.5,-2139.5 806.5,-2109.5 456.5,-2109.5"/>
<text text-anchor="start" x="463.5" y="-2120.9" font-family="Arial" font-size="14.00" fill="#000000">file_extn    </text>
<text text-anchor="start" x="549.8296" y="-2120.9" font-family="Arial" font-size="14.00" fill="#666666">[TEXT]</text>
<polygon fill="none" stroke="#000000" points="456.5,-2079.5 456.5,-2109.5 806.5,-2109.5 806.5,-2079.5 456.5,-2079.5"/>
<text text-anchor="start" x="463.5" y="-2090.9" font-family="Arial" font-size="14.00" fill="#000000">captured_executable    </text>
<text text-anchor="start" x="627.6444" y="-2090.9" font-family="Arial" font-size="14.00" fill="#666666">[TEXT]</text>
<polygon fill="none" stroke="#000000" points="456.5,-2049.5 456.5,-2079.5 806.5,-2079.5 806.5,-2049.5 456.5,-2049.5"/>
<text text-anchor="start" x="463.5" y="-2060.9" font-family="Arial" font-size="14.00" fill="#000000">ur_status    </text>
<text text-anchor="start" x="555.277" y="-2060.9" font-family="Arial" font-size="14.00" fill="#666666">[TEXT]</text>
<polygon fill="none" stroke="#000000" points="456.5,-2019.5 456.5,-2049.5 806.5,-2049.5 806.5,-2019.5 456.5,-2019.5"/>
<text text-anchor="start" x="463.5" y="-2030.9" font-family="Arial" font-size="14.00" fill="#000000">ur_diagnostics    </text>
<text text-anchor="start" x="587.9474" y="-2030.9" font-family="Arial" font-size="14.00" fill="#666666">[TEXT]</text>
<polygon fill="none" stroke="#000000" points="456.5,-1989.5 456.5,-2019.5 806.5,-2019.5 806.5,-1989.5 456.5,-1989.5"/>
<text text-anchor="start" x="463.5" y="-2000.9" font-family="Arial" font-size="14.00" fill="#000000">ur_transformations    </text>
<text text-anchor="start" x="614.3864" y="-2000.9" font-family="Arial" font-size="14.00" fill="#666666">[TEXT]</text>
<polygon fill="none" stroke="#000000" points="456.5,-1959.5 456.5,-1989.5 806.5,-1989.5 806.5,-1959.5 456.5,-1959.5"/>
<text text-anchor="start" x="463.5" y="-1970.9" font-family="Arial" font-size="14.00" fill="#000000">elaboration    </text>
<text text-anchor="start" x="566.9474" y="-1970.9" font-family="Arial" font-size="14.00" fill="#666666">[TEXT]</text>
<polygon fill="none" stroke="#000000" points="456.5,-1929.5 456.5,-1959.5 806.5,-1959.5 806.5,-1929.5 456.5,-1929.5"/>
<text text-anchor="start" x="463.5" y="-1940.9" font-family="Arial" font-size="14.00" fill="#000000">created_at    </text>
<text text-anchor="start" x="563.8422" y="-1940.9" font-family="Arial" font-size="14.00" fill="#666666">[TIMESTAMP]</text>
<polygon fill="none" stroke="#000000" points="456.5,-1899.5 456.5,-1929.5 806.5,-1929.5 806.5,-1899.5 456.5,-1899.5"/>
<text text-anchor="start" x="463.5" y="-1910.9" font-family="Arial" font-size="14.00" fill="#000000">created_by    </text>
<text text-anchor="start" x="566.9516" y="-1910.9" font-family="Arial" font-size="14.00" fill="#666666">[TEXT]</text>
<polygon fill="none" stroke="#000000" points="456.5,-1869.5 456.5,-1899.5 806.5,-1899.5 806.5,-1869.5 456.5,-1869.5"/>
<text text-anchor="start" x="463.5" y="-1880.9" font-family="Arial" font-size="14.00" fill="#000000">updated_at    </text>
<text text-anchor="start" x="567.7468" y="-1880.9" font-family="Arial" font-size="14.00" fill="#666666">[TIMESTAMP]</text>
<polygon fill="none" stroke="#000000" points="456.5,-1839.5 456.5,-1869.5 806.5,-1869.5 806.5,-1839.5 456.5,-1839.5"/>
<text text-anchor="start" x="463.5" y="-1850.9" font-family="Arial" font-size="14.00" fill="#000000">updated_by    </text>
<text text-anchor="start" x="570.8562" y="-1850.9" font-family="Arial" font-size="14.00" fill="#666666">[TEXT]</text>
<polygon fill="none" stroke="#000000" points="456.5,-1809.5 456.5,-1839.5 806.5,-1839.5 806.5,-1809.5 456.5,-1809.5"/>
<text text-anchor="start" x="463.5" y="-1820.9" font-family="Arial" font-size="14.00" fill="#000000">deleted_at    </text>
<text text-anchor="start" x="563.0708" y="-1820.9" font-family="Arial" font-size="14.00" fill="#666666">[TIMESTAMP]</text>
<polygon fill="none" stroke="#000000" points="456.5,-1779.5 456.5,-1809.5 806.5,-1809.5 806.5,-1779.5 456.5,-1779.5"/>
<text text-anchor="start" x="463.5" y="-1790.9" font-family="Arial" font-size="14.00" fill="#000000">deleted_by    </text>
<text text-anchor="start" x="566.1802" y="-1790.9" font-family="Arial" font-size="14.00" fill="#666666">[TEXT]</text>
<polygon fill="none" stroke="#000000" points="456.5,-1749.5 456.5,-1779.5 806.5,-1779.5 806.5,-1749.5 456.5,-1749.5"/>
<text text-anchor="start" x="463.5" y="-1760.9" font-family="Arial" font-size="14.00" fill="#000000">activity_log    </text>
<text text-anchor="start" x="566.9362" y="-1760.9" font-family="Arial" font-size="14.00" fill="#666666">[TEXT]</text>
</g>
<!-- ur_ingest_session_fs_path_entry&#45;&gt;ur_ingest_session -->
<g id="edge4" class="edge">
<title>ur_ingest_session_fs_path_entry:ingest_session_id&#45;&gt;ur_ingest_session:ur_ingest_session_id</title>
<path fill="none" stroke="#000000" d="M815.9731,-2330.6066C872.5842,-2280.8438 836.3225,-1769.7408 858.5,-1707 881.6912,-1641.3914 876.9132,-1577.5 946.5,-1577.5"/>
<polygon fill="#000000" stroke="#000000" points="815.7493,-2330.6985 804.7893,-2330.3378 811.1246,-2332.5993 806.5,-2334.5 806.5,-2334.5 806.5,-2334.5 811.1246,-2332.5993 808.2107,-2338.6622 815.7493,-2330.6985 815.7493,-2330.6985"/>
</g>
<!-- ur_ingest_session_task_entry -->
<g id="node6" class="node">
<title>ur_ingest_session_task_entry</title>
<polygon fill="#efefef" stroke="transparent" points="910.5,-2289.5 910.5,-2324.5 1238.5,-2324.5 1238.5,-2289.5 910.5,-2289.5"/>
<polygon fill="none" stroke="#000000" points="910.5,-2289.5 910.5,-2324.5 1238.5,-2324.5 1238.5,-2289.5 910.5,-2289.5"/>
<text text-anchor="start" x="919.3014" y="-2302.3" font-family="Arial Bold" font-size="18.00" fill="#000000">ur_ingest_session_task_entry</text>
<text text-anchor="start" x="1157.3676" y="-2302.3" font-family="Arial" font-size="14.00" fill="#000000">    </text>
<text text-anchor="start" x="1191.5724" y="-2302.3" font-family="Arial" font-size="14.00" fill="#666666">[table]</text>
<polygon fill="none" stroke="#000000" points="910.5,-2259.5 910.5,-2289.5 1238.5,-2289.5 1238.5,-2259.5 910.5,-2259.5"/>
<text text-anchor="start" x="917.3717" y="-2270.9" font-family="Arial" font-size="14.00" fill="#000000">ur_ingest_session_task_entry_id    </text>
<text text-anchor="start" x="1155.4109" y="-2270.9" font-family="Arial" font-size="14.00" fill="#666666">[VARCHAR]</text>
<polygon fill="none" stroke="#000000" points="910.5,-2229.5 910.5,-2259.5 1238.5,-2259.5 1238.5,-2229.5 910.5,-2229.5"/>
<text text-anchor="start" x="917.5" y="-2240.9" font-family="Arial" font-size="14.00" fill="#000000">ingest_session_id    </text>
<text text-anchor="start" x="1062.9586" y="-2240.9" font-family="Arial" font-size="14.00" fill="#666666">[VARCHAR]</text>
<polygon fill="none" stroke="#000000" points="910.5,-2199.5 910.5,-2229.5 1238.5,-2229.5 1238.5,-2199.5 910.5,-2199.5"/>
<text text-anchor="start" x="917.5" y="-2210.9" font-family="Arial" font-size="14.00" fill="#000000">uniform_resource_id    </text>
<text text-anchor="start" x="1079.277" y="-2210.9" font-family="Arial" font-size="14.00" fill="#666666">[VARCHAR]</text>
<polygon fill="none" stroke="#000000" points="910.5,-2169.5 910.5,-2199.5 1238.5,-2199.5 1238.5,-2169.5 910.5,-2169.5"/>
<text text-anchor="start" x="917.5" y="-2180.9" font-family="Arial" font-size="14.00" fill="#000000">captured_executable    </text>
<text text-anchor="start" x="1081.6444" y="-2180.9" font-family="Arial" font-size="14.00" fill="#666666">[TEXT]</text>
<polygon fill="none" stroke="#000000" points="910.5,-2139.5 910.5,-2169.5 1238.5,-2169.5 1238.5,-2139.5 910.5,-2139.5"/>
<text text-anchor="start" x="917.5" y="-2150.9" font-family="Arial" font-size="14.00" fill="#000000">ur_status    </text>
<text text-anchor="start" x="1009.277" y="-2150.9" font-family="Arial" font-size="14.00" fill="#666666">[TEXT]</text>
<polygon fill="none" stroke="#000000" points="910.5,-2109.5 910.5,-2139.5 1238.5,-2139.5 1238.5,-2109.5 910.5,-2109.5"/>
<text text-anchor="start" x="917.5" y="-2120.9" font-family="Arial" font-size="14.00" fill="#000000">ur_diagnostics    </text>
<text text-anchor="start" x="1041.9474" y="-2120.9" font-family="Arial" font-size="14.00" fill="#666666">[TEXT]</text>
<polygon fill="none" stroke="#000000" points="910.5,-2079.5 910.5,-2109.5 1238.5,-2109.5 1238.5,-2079.5 910.5,-2079.5"/>
<text text-anchor="start" x="917.5" y="-2090.9" font-family="Arial" font-size="14.00" fill="#000000">ur_transformations    </text>
<text text-anchor="start" x="1068.3864" y="-2090.9" font-family="Arial" font-size="14.00" fill="#666666">[TEXT]</text>
<polygon fill="none" stroke="#000000" points="910.5,-2049.5 910.5,-2079.5 1238.5,-2079.5 1238.5,-2049.5 910.5,-2049.5"/>
<text text-anchor="start" x="917.5" y="-2060.9" font-family="Arial" font-size="14.00" fill="#000000">elaboration    </text>
<text text-anchor="start" x="1020.9474" y="-2060.9" font-family="Arial" font-size="14.00" fill="#666666">[TEXT]</text>
<polygon fill="none" stroke="#000000" points="910.5,-2019.5 910.5,-2049.5 1238.5,-2049.5 1238.5,-2019.5 910.5,-2019.5"/>
<text text-anchor="start" x="917.5" y="-2030.9" font-family="Arial" font-size="14.00" fill="#000000">created_at    </text>
<text text-anchor="start" x="1017.8422" y="-2030.9" font-family="Arial" font-size="14.00" fill="#666666">[TIMESTAMP]</text>
<polygon fill="none" stroke="#000000" points="910.5,-1989.5 910.5,-2019.5 1238.5,-2019.5 1238.5,-1989.5 910.5,-1989.5"/>
<text text-anchor="start" x="917.5" y="-2000.9" font-family="Arial" font-size="14.00" fill="#000000">created_by    </text>
<text text-anchor="start" x="1020.9516" y="-2000.9" font-family="Arial" font-size="14.00" fill="#666666">[TEXT]</text>
<polygon fill="none" stroke="#000000" points="910.5,-1959.5 910.5,-1989.5 1238.5,-1989.5 1238.5,-1959.5 910.5,-1959.5"/>
<text text-anchor="start" x="917.5" y="-1970.9" font-family="Arial" font-size="14.00" fill="#000000">updated_at    </text>
<text text-anchor="start" x="1021.7468" y="-1970.9" font-family="Arial" font-size="14.00" fill="#666666">[TIMESTAMP]</text>
<polygon fill="none" stroke="#000000" points="910.5,-1929.5 910.5,-1959.5 1238.5,-1959.5 1238.5,-1929.5 910.5,-1929.5"/>
<text text-anchor="start" x="917.5" y="-1940.9" font-family="Arial" font-size="14.00" fill="#000000">updated_by    </text>
<text text-anchor="start" x="1024.8562" y="-1940.9" font-family="Arial" font-size="14.00" fill="#666666">[TEXT]</text>
<polygon fill="none" stroke="#000000" points="910.5,-1899.5 910.5,-1929.5 1238.5,-1929.5 1238.5,-1899.5 910.5,-1899.5"/>
<text text-anchor="start" x="917.5" y="-1910.9" font-family="Arial" font-size="14.00" fill="#000000">deleted_at    </text>
<text text-anchor="start" x="1017.0708" y="-1910.9" font-family="Arial" font-size="14.00" fill="#666666">[TIMESTAMP]</text>
<polygon fill="none" stroke="#000000" points="910.5,-1869.5 910.5,-1899.5 1238.5,-1899.5 1238.5,-1869.5 910.5,-1869.5"/>
<text text-anchor="start" x="917.5" y="-1880.9" font-family="Arial" font-size="14.00" fill="#000000">deleted_by    </text>
<text text-anchor="start" x="1020.1802" y="-1880.9" font-family="Arial" font-size="14.00" fill="#666666">[TEXT]</text>
<polygon fill="none" stroke="#000000" points="910.5,-1839.5 910.5,-1869.5 1238.5,-1869.5 1238.5,-1839.5 910.5,-1839.5"/>
<text text-anchor="start" x="917.5" y="-1850.9" font-family="Arial" font-size="14.00" fill="#000000">activity_log    </text>
<text text-anchor="start" x="1020.9362" y="-1850.9" font-family="Arial" font-size="14.00" fill="#666666">[TEXT]</text>
</g>
<!-- ur_ingest_session_task_entry&#45;&gt;ur_ingest_session -->
<g id="edge5" class="edge">
<title>ur_ingest_session_task_entry:ingest_session_id&#45;&gt;ur_ingest_session:ur_ingest_session_id</title>
<path fill="none" stroke="#000000" d="M901.5292,-2239.3553C863.778,-2192.1931 885.0183,-1835.8012 910.5,-1797 987.8649,-1679.196 1124.1351,-1788.804 1201.5,-1671 1224.3113,-1636.2651 1243.0556,-1577.5 1201.5,-1577.5"/>
<polygon fill="#000000" stroke="#000000" points="901.8253,-2239.525 908.2613,-2248.4036 906.1627,-2242.0125 910.5,-2244.5 910.5,-2244.5 910.5,-2244.5 906.1627,-2242.0125 912.7387,-2240.5964 901.8253,-2239.525 901.8253,-2239.525"/>
</g>
</g>
</svg>
