<?xml version="1.0" encoding="UTF-8" standalone="no"?>
<!DOCTYPE svg PUBLIC "-//W3C//DTD SVG 1.1//EN"
 "http://www.w3.org/Graphics/SVG/1.1/DTD/svg11.dtd">
<!-- Generated by graphviz version 2.40.1 (20161225.0304)
 -->
<!-- Title: behavior Pages: 1 -->
<svg width="1213pt" height="2466pt"
 viewBox="0.00 0.00 1213.00 2466.00" xmlns="http://www.w3.org/2000/svg" xmlns:xlink="http://www.w3.org/1999/xlink">
<g id="graph0" class="graph" transform="scale(1 1) rotate(0) translate(4 2462)">
<title>behavior</title>
<polygon fill="#ffffff" stroke="transparent" points="-4,4 -4,-2462 1209,-2462 1209,4 -4,4"/>
<!-- behavior -->
<g id="node1" class="node">
<title>behavior</title>
<polygon fill="#efefef" stroke="transparent" points="602.5,-1012.5 602.5,-1047.5 836.5,-1047.5 836.5,-1012.5 602.5,-1012.5"/>
<polygon fill="none" stroke="#000000" points="602.5,-1012.5 602.5,-1047.5 836.5,-1047.5 836.5,-1012.5 602.5,-1012.5"/>
<text text-anchor="start" x="648.8258" y="-1025.3" font-family="Arial Bold" font-size="18.00" fill="#000000">behavior</text>
<text text-anchor="start" x="717.8432" y="-1025.3" font-family="Arial" font-size="14.00" fill="#000000">    </text>
<text text-anchor="start" x="752.048" y="-1025.3" font-family="Arial" font-size="14.00" fill="#666666">[table]</text>
<polygon fill="none" stroke="#000000" points="602.5,-982.5 602.5,-1012.5 836.5,-1012.5 836.5,-982.5 602.5,-982.5"/>
<text text-anchor="start" x="609.5" y="-993.9" font-family="Arial" font-size="14.00" fill="#000000">behavior_id </text>
<text text-anchor="start" x="685.7426" y="-993.9" font-family="Arial" font-size="14.00" fill="#666666">[VARCHAR]</text>
<polygon fill="none" stroke="#000000" points="602.5,-952.5 602.5,-982.5 836.5,-982.5 836.5,-952.5 602.5,-952.5"/>
<text text-anchor="start" x="609.5" y="-963.9" font-family="Arial" font-size="14.00" fill="#000000">device_id </text>
<text text-anchor="start" x="672.5168" y="-963.9" font-family="Arial" font-size="14.00" fill="#666666">[VARCHAR]</text>
<polygon fill="none" stroke="#000000" points="602.5,-922.5 602.5,-952.5 836.5,-952.5 836.5,-922.5 602.5,-922.5"/>
<text text-anchor="start" x="609.5" y="-933.9" font-family="Arial" font-size="14.00" fill="#000000">behavior_name </text>
<text text-anchor="start" x="709.8618" y="-933.9" font-family="Arial" font-size="14.00" fill="#666666">[TEXT]</text>
<polygon fill="none" stroke="#000000" points="602.5,-892.5 602.5,-922.5 836.5,-922.5 836.5,-892.5 602.5,-892.5"/>
<text text-anchor="start" x="609.5" y="-903.9" font-family="Arial" font-size="14.00" fill="#000000">behavior_conf_json </text>
<text text-anchor="start" x="734.7636" y="-903.9" font-family="Arial" font-size="14.00" fill="#666666">[TEXT]</text>
<polygon fill="none" stroke="#000000" points="602.5,-862.5 602.5,-892.5 836.5,-892.5 836.5,-862.5 602.5,-862.5"/>
<text text-anchor="start" x="609.4278" y="-873.9" font-family="Arial" font-size="14.00" fill="#000000">assurance_schema_id </text>
<text text-anchor="start" x="753.3548" y="-873.9" font-family="Arial" font-size="14.00" fill="#666666">[VARCHAR]</text>
<polygon fill="none" stroke="#000000" points="602.5,-832.5 602.5,-862.5 836.5,-862.5 836.5,-832.5 602.5,-832.5"/>
<text text-anchor="start" x="609.5" y="-843.9" font-family="Arial" font-size="14.00" fill="#000000">governance </text>
<text text-anchor="start" x="686.5294" y="-843.9" font-family="Arial" font-size="14.00" fill="#666666">[TEXT]</text>
<polygon fill="none" stroke="#000000" points="602.5,-802.5 602.5,-832.5 836.5,-832.5 836.5,-802.5 602.5,-802.5"/>
<text text-anchor="start" x="609.5" y="-813.9" font-family="Arial" font-size="14.00" fill="#000000">created_at </text>
<text text-anchor="start" x="679.528" y="-813.9" font-family="Arial" font-size="14.00" fill="#666666">[TIMESTAMP]</text>
<polygon fill="none" stroke="#000000" points="602.5,-772.5 602.5,-802.5 836.5,-802.5 836.5,-772.5 602.5,-772.5"/>
<text text-anchor="start" x="609.5" y="-783.9" font-family="Arial" font-size="14.00" fill="#000000">created_by </text>
<text text-anchor="start" x="682.6374" y="-783.9" font-family="Arial" font-size="14.00" fill="#666666">[TEXT]</text>
<polygon fill="none" stroke="#000000" points="602.5,-742.5 602.5,-772.5 836.5,-772.5 836.5,-742.5 602.5,-742.5"/>
<text text-anchor="start" x="609.5" y="-753.9" font-family="Arial" font-size="14.00" fill="#000000">updated_at </text>
<text text-anchor="start" x="683.4326" y="-753.9" font-family="Arial" font-size="14.00" fill="#666666">[TIMESTAMP]</text>
<polygon fill="none" stroke="#000000" points="602.5,-712.5 602.5,-742.5 836.5,-742.5 836.5,-712.5 602.5,-712.5"/>
<text text-anchor="start" x="609.5" y="-723.9" font-family="Arial" font-size="14.00" fill="#000000">updated_by </text>
<text text-anchor="start" x="686.542" y="-723.9" font-family="Arial" font-size="14.00" fill="#666666">[TEXT]</text>
<polygon fill="none" stroke="#000000" points="602.5,-682.5 602.5,-712.5 836.5,-712.5 836.5,-682.5 602.5,-682.5"/>
<text text-anchor="start" x="609.5" y="-693.9" font-family="Arial" font-size="14.00" fill="#000000">deleted_at </text>
<text text-anchor="start" x="678.7566" y="-693.9" font-family="Arial" font-size="14.00" fill="#666666">[TIMESTAMP]</text>
<polygon fill="none" stroke="#000000" points="602.5,-652.5 602.5,-682.5 836.5,-682.5 836.5,-652.5 602.5,-652.5"/>
<text text-anchor="start" x="609.5" y="-663.9" font-family="Arial" font-size="14.00" fill="#000000">deleted_by </text>
<text text-anchor="start" x="681.866" y="-663.9" font-family="Arial" font-size="14.00" fill="#666666">[TEXT]</text>
<polygon fill="none" stroke="#000000" points="602.5,-622.5 602.5,-652.5 836.5,-652.5 836.5,-622.5 602.5,-622.5"/>
<text text-anchor="start" x="609.5" y="-633.9" font-family="Arial" font-size="14.00" fill="#000000">activity_log </text>
<text text-anchor="start" x="682.622" y="-633.9" font-family="Arial" font-size="14.00" fill="#666666">[TEXT]</text>
<polygon fill="none" stroke="#000000" stroke-width="3" points="601,-621.5 601,-1049.5 838,-1049.5 838,-621.5 601,-621.5"/>
</g>
<!-- device -->
<g id="node6" class="node">
<title>device</title>
<polygon fill="#efefef" stroke="transparent" points="806.5,-462.5 806.5,-497.5 1013.5,-497.5 1013.5,-462.5 806.5,-462.5"/>
<polygon fill="none" stroke="#000000" points="806.5,-462.5 806.5,-497.5 1013.5,-497.5 1013.5,-462.5 806.5,-462.5"/>
<text text-anchor="start" x="847.8281" y="-475.3" font-family="Arial Bold" font-size="18.00" fill="#000000">device</text>
<text text-anchor="start" x="899.8409" y="-475.3" font-family="Arial" font-size="14.00" fill="#000000">    </text>
<text text-anchor="start" x="934.0457" y="-475.3" font-family="Arial" font-size="14.00" fill="#666666">[table]</text>
<polygon fill="none" stroke="#000000" points="806.5,-432.5 806.5,-462.5 1013.5,-462.5 1013.5,-432.5 806.5,-432.5"/>
<text text-anchor="start" x="813.5" y="-443.9" font-family="Arial" font-size="14.00" fill="#000000">device_id    </text>
<text text-anchor="start" x="906.831" y="-443.9" font-family="Arial" font-size="14.00" fill="#666666">[VARCHAR]</text>
<polygon fill="none" stroke="#000000" points="806.5,-402.5 806.5,-432.5 1013.5,-432.5 1013.5,-402.5 806.5,-402.5"/>
<text text-anchor="start" x="813.5" y="-413.9" font-family="Arial" font-size="14.00" fill="#000000">name    </text>
<text text-anchor="start" x="882.7132" y="-413.9" font-family="Arial" font-size="14.00" fill="#666666">[TEXT]</text>
<polygon fill="none" stroke="#000000" points="806.5,-372.5 806.5,-402.5 1013.5,-402.5 1013.5,-372.5 806.5,-372.5"/>
<text text-anchor="start" x="813.5" y="-383.9" font-family="Arial" font-size="14.00" fill="#000000">state    </text>
<text text-anchor="start" x="878.0512" y="-383.9" font-family="Arial" font-size="14.00" fill="#666666">[TEXT]</text>
<polygon fill="none" stroke="#000000" points="806.5,-342.5 806.5,-372.5 1013.5,-372.5 1013.5,-342.5 806.5,-342.5"/>
<text text-anchor="start" x="813.5" y="-353.9" font-family="Arial" font-size="14.00" fill="#000000">boundary    </text>
<text text-anchor="start" x="906.061" y="-353.9" font-family="Arial" font-size="14.00" fill="#666666">[TEXT]</text>
<polygon fill="none" stroke="#000000" points="806.5,-312.5 806.5,-342.5 1013.5,-342.5 1013.5,-312.5 806.5,-312.5"/>
<text text-anchor="start" x="813.5" y="-323.9" font-family="Arial" font-size="14.00" fill="#000000">segmentation    </text>
<text text-anchor="start" x="931.7314" y="-323.9" font-family="Arial" font-size="14.00" fill="#666666">[TEXT]</text>
<polygon fill="none" stroke="#000000" points="806.5,-282.5 806.5,-312.5 1013.5,-312.5 1013.5,-282.5 806.5,-282.5"/>
<text text-anchor="start" x="813.5" y="-293.9" font-family="Arial" font-size="14.00" fill="#000000">state_sysinfo    </text>
<text text-anchor="start" x="929.3962" y="-293.9" font-family="Arial" font-size="14.00" fill="#666666">[TEXT]</text>
<polygon fill="none" stroke="#000000" points="806.5,-252.5 806.5,-282.5 1013.5,-282.5 1013.5,-252.5 806.5,-252.5"/>
<text text-anchor="start" x="813.5" y="-263.9" font-family="Arial" font-size="14.00" fill="#000000">elaboration    </text>
<text text-anchor="start" x="916.9474" y="-263.9" font-family="Arial" font-size="14.00" fill="#666666">[TEXT]</text>
<polygon fill="none" stroke="#000000" points="806.5,-222.5 806.5,-252.5 1013.5,-252.5 1013.5,-222.5 806.5,-222.5"/>
<text text-anchor="start" x="813.5" y="-233.9" font-family="Arial" font-size="14.00" fill="#000000">created_at    </text>
<text text-anchor="start" x="913.8422" y="-233.9" font-family="Arial" font-size="14.00" fill="#666666">[TIMESTAMP]</text>
<polygon fill="none" stroke="#000000" points="806.5,-192.5 806.5,-222.5 1013.5,-222.5 1013.5,-192.5 806.5,-192.5"/>
<text text-anchor="start" x="813.5" y="-203.9" font-family="Arial" font-size="14.00" fill="#000000">created_by    </text>
<text text-anchor="start" x="916.9516" y="-203.9" font-family="Arial" font-size="14.00" fill="#666666">[TEXT]</text>
<polygon fill="none" stroke="#000000" points="806.5,-162.5 806.5,-192.5 1013.5,-192.5 1013.5,-162.5 806.5,-162.5"/>
<text text-anchor="start" x="813.1543" y="-173.9" font-family="Arial" font-size="14.00" fill="#000000">updated_at    </text>
<text text-anchor="start" x="917.4011" y="-173.9" font-family="Arial" font-size="14.00" fill="#666666">[TIMESTAMP]</text>
<polygon fill="none" stroke="#000000" points="806.5,-132.5 806.5,-162.5 1013.5,-162.5 1013.5,-132.5 806.5,-132.5"/>
<text text-anchor="start" x="813.5" y="-143.9" font-family="Arial" font-size="14.00" fill="#000000">updated_by    </text>
<text text-anchor="start" x="920.8562" y="-143.9" font-family="Arial" font-size="14.00" fill="#666666">[TEXT]</text>
<polygon fill="none" stroke="#000000" points="806.5,-102.5 806.5,-132.5 1013.5,-132.5 1013.5,-102.5 806.5,-102.5"/>
<text text-anchor="start" x="813.5" y="-113.9" font-family="Arial" font-size="14.00" fill="#000000">deleted_at    </text>
<text text-anchor="start" x="913.0708" y="-113.9" font-family="Arial" font-size="14.00" fill="#666666">[TIMESTAMP]</text>
<polygon fill="none" stroke="#000000" points="806.5,-72.5 806.5,-102.5 1013.5,-102.5 1013.5,-72.5 806.5,-72.5"/>
<text text-anchor="start" x="813.5" y="-83.9" font-family="Arial" font-size="14.00" fill="#000000">deleted_by    </text>
<text text-anchor="start" x="916.1802" y="-83.9" font-family="Arial" font-size="14.00" fill="#666666">[TEXT]</text>
<polygon fill="none" stroke="#000000" points="806.5,-42.5 806.5,-72.5 1013.5,-72.5 1013.5,-42.5 806.5,-42.5"/>
<text text-anchor="start" x="813.5" y="-53.9" font-family="Arial" font-size="14.00" fill="#000000">activity_log    </text>
<text text-anchor="start" x="916.9362" y="-53.9" font-family="Arial" font-size="14.00" fill="#666666">[TEXT]</text>
</g>
<!-- behavior&#45;&gt;device -->
<g id="edge6" class="edge">
<title>behavior:device_id&#45;&gt;device:device_id</title>
<path fill="none" stroke="#000000" d="M846.4628,-965.978C918.6292,-942.5425 864.8297,-655.248 836.5,-577 829.4098,-557.4167 813.5902,-560.5833 806.5,-541 792.3534,-501.9265 764.9444,-447.5 806.5,-447.5"/>
<polygon fill="#000000" stroke="#000000" points="846.3853,-965.9897 835.8204,-963.0516 841.4427,-966.7449 836.5,-967.5 836.5,-967.5 836.5,-967.5 841.4427,-966.7449 837.1796,-971.9484 846.3853,-965.9897 846.3853,-965.9897"/>
</g>
<!-- ur_ingest_session -->
<g id="node2" class="node">
<title>ur_ingest_session</title>
<polygon fill="#efefef" stroke="transparent" points="591.5,-1592.5 591.5,-1627.5 846.5,-1627.5 846.5,-1592.5 591.5,-1592.5"/>
<polygon fill="none" stroke="#000000" points="591.5,-1592.5 591.5,-1627.5 846.5,-1627.5 846.5,-1592.5 591.5,-1592.5"/>
<text text-anchor="start" x="610.3152" y="-1605.3" font-family="Arial Bold" font-size="18.00" fill="#000000">ur_ingest_session</text>
<text text-anchor="start" x="755.3538" y="-1605.3" font-family="Arial" font-size="14.00" fill="#000000">    </text>
<text text-anchor="start" x="789.5586" y="-1605.3" font-family="Arial" font-size="14.00" fill="#666666">[table]</text>
<polygon fill="none" stroke="#000000" points="591.5,-1562.5 591.5,-1592.5 846.5,-1592.5 846.5,-1562.5 591.5,-1562.5"/>
<text text-anchor="start" x="598.0491" y="-1573.9" font-family="Arial" font-size="14.00" fill="#000000">ur_ingest_session_id    </text>
<text text-anchor="start" x="763.7335" y="-1573.9" font-family="Arial" font-size="14.00" fill="#666666">[VARCHAR]</text>
<polygon fill="none" stroke="#000000" points="591.5,-1532.5 591.5,-1562.5 846.5,-1562.5 846.5,-1532.5 591.5,-1532.5"/>
<text text-anchor="start" x="598.5" y="-1543.9" font-family="Arial" font-size="14.00" fill="#000000">device_id    </text>
<text text-anchor="start" x="691.831" y="-1543.9" font-family="Arial" font-size="14.00" fill="#666666">[VARCHAR]</text>
<polygon fill="none" stroke="#000000" points="591.5,-1502.5 591.5,-1532.5 846.5,-1532.5 846.5,-1502.5 591.5,-1502.5"/>
<text text-anchor="start" x="598.5" y="-1513.9" font-family="Arial" font-size="14.00" fill="#000000">behavior_id    </text>
<text text-anchor="start" x="705.0568" y="-1513.9" font-family="Arial" font-size="14.00" fill="#666666">[VARCHAR]</text>
<polygon fill="none" stroke="#000000" points="591.5,-1472.5 591.5,-1502.5 846.5,-1502.5 846.5,-1472.5 591.5,-1472.5"/>
<text text-anchor="start" x="598.5" y="-1483.9" font-family="Arial" font-size="14.00" fill="#000000">behavior_json    </text>
<text text-anchor="start" x="719.8394" y="-1483.9" font-family="Arial" font-size="14.00" fill="#666666">[TEXT]</text>
<polygon fill="none" stroke="#000000" points="591.5,-1442.5 591.5,-1472.5 846.5,-1472.5 846.5,-1442.5 591.5,-1442.5"/>
<text text-anchor="start" x="598.5" y="-1453.9" font-family="Arial" font-size="14.00" fill="#000000">ingest_started_at    </text>
<text text-anchor="start" x="740.0778" y="-1453.9" font-family="Arial" font-size="14.00" fill="#666666">[TIMESTAMP]</text>
<polygon fill="none" stroke="#000000" points="591.5,-1412.5 591.5,-1442.5 846.5,-1442.5 846.5,-1412.5 591.5,-1412.5"/>
<text text-anchor="start" x="598.5" y="-1423.9" font-family="Arial" font-size="14.00" fill="#000000">ingest_finished_at    </text>
<text text-anchor="start" x="745.5224" y="-1423.9" font-family="Arial" font-size="14.00" fill="#666666">[TIMESTAMP]</text>
<polygon fill="none" stroke="#000000" points="591.5,-1382.5 591.5,-1412.5 846.5,-1412.5 846.5,-1382.5 591.5,-1382.5"/>
<text text-anchor="start" x="598.5" y="-1393.9" font-family="Arial" font-size="14.00" fill="#000000">elaboration    </text>
<text text-anchor="start" x="701.9474" y="-1393.9" font-family="Arial" font-size="14.00" fill="#666666">[TEXT]</text>
<polygon fill="none" stroke="#000000" points="591.5,-1352.5 591.5,-1382.5 846.5,-1382.5 846.5,-1352.5 591.5,-1352.5"/>
<text text-anchor="start" x="598.5" y="-1363.9" font-family="Arial" font-size="14.00" fill="#000000">created_at    </text>
<text text-anchor="start" x="698.8422" y="-1363.9" font-family="Arial" font-size="14.00" fill="#666666">[TIMESTAMP]</text>
<polygon fill="none" stroke="#000000" points="591.5,-1322.5 591.5,-1352.5 846.5,-1352.5 846.5,-1322.5 591.5,-1322.5"/>
<text text-anchor="start" x="598.5" y="-1333.9" font-family="Arial" font-size="14.00" fill="#000000">created_by    </text>
<text text-anchor="start" x="701.9516" y="-1333.9" font-family="Arial" font-size="14.00" fill="#666666">[TEXT]</text>
<polygon fill="none" stroke="#000000" points="591.5,-1292.5 591.5,-1322.5 846.5,-1322.5 846.5,-1292.5 591.5,-1292.5"/>
<text text-anchor="start" x="598.5" y="-1303.9" font-family="Arial" font-size="14.00" fill="#000000">updated_at    </text>
<text text-anchor="start" x="702.7468" y="-1303.9" font-family="Arial" font-size="14.00" fill="#666666">[TIMESTAMP]</text>
<polygon fill="none" stroke="#000000" points="591.5,-1262.5 591.5,-1292.5 846.5,-1292.5 846.5,-1262.5 591.5,-1262.5"/>
<text text-anchor="start" x="598.5" y="-1273.9" font-family="Arial" font-size="14.00" fill="#000000">updated_by    </text>
<text text-anchor="start" x="705.8562" y="-1273.9" font-family="Arial" font-size="14.00" fill="#666666">[TEXT]</text>
<polygon fill="none" stroke="#000000" points="591.5,-1232.5 591.5,-1262.5 846.5,-1262.5 846.5,-1232.5 591.5,-1232.5"/>
<text text-anchor="start" x="598.5" y="-1243.9" font-family="Arial" font-size="14.00" fill="#000000">deleted_at    </text>
<text text-anchor="start" x="698.0708" y="-1243.9" font-family="Arial" font-size="14.00" fill="#666666">[TIMESTAMP]</text>
<polygon fill="none" stroke="#000000" points="591.5,-1202.5 591.5,-1232.5 846.5,-1232.5 846.5,-1202.5 591.5,-1202.5"/>
<text text-anchor="start" x="598.5" y="-1213.9" font-family="Arial" font-size="14.00" fill="#000000">deleted_by    </text>
<text text-anchor="start" x="701.1802" y="-1213.9" font-family="Arial" font-size="14.00" fill="#666666">[TEXT]</text>
<polygon fill="none" stroke="#000000" points="591.5,-1172.5 591.5,-1202.5 846.5,-1202.5 846.5,-1172.5 591.5,-1172.5"/>
<text text-anchor="start" x="598.5" y="-1183.9" font-family="Arial" font-size="14.00" fill="#000000">activity_log    </text>
<text text-anchor="start" x="701.9362" y="-1183.9" font-family="Arial" font-size="14.00" fill="#666666">[TEXT]</text>
</g>
<!-- ur_ingest_session&#45;&gt;behavior -->
<g id="edge1" class="edge">
<title>ur_ingest_session:behavior_id&#45;&gt;behavior:behavior_id</title>
<path fill="none" stroke="#000000" d="M856.8047,-1517.1789C1016.2522,-1507.0067 956.7336,-1257.6909 846.5,-1130 774.8679,-1047.0238 674.1321,-1176.9762 602.5,-1094 574.4735,-1061.5351 559.6111,-997.5 602.5,-997.5"/>
<polygon fill="#000000" stroke="#000000" points="856.4951,-1517.1884 846.3598,-1513.0022 851.4976,-1517.3442 846.5,-1517.5 846.5,-1517.5 846.5,-1517.5 851.4976,-1517.3442 846.6402,-1521.9978 856.4951,-1517.1884 856.4951,-1517.1884"/>
</g>
<!-- ur_ingest_session&#45;&gt;device -->
<g id="edge5" class="edge">
<title>ur_ingest_session:device_id&#45;&gt;device:device_id</title>
<path fill="none" stroke="#000000" d="M856.7136,-1546.9021C1058.3924,-1522.6805 884.7282,-769.5229 978.5,-577 988.2716,-556.9378 1005.1057,-561.6763 1013.5,-541 1029.1319,-502.4966 1055.0556,-447.5 1013.5,-447.5"/>
<polygon fill="#000000" stroke="#000000" points="856.4829,-1546.9156 846.237,-1543.0077 851.4915,-1547.2078 846.5,-1547.5 846.5,-1547.5 846.5,-1547.5 851.4915,-1547.2078 846.763,-1551.9923 856.4829,-1546.9156 856.4829,-1546.9156"/>
</g>
<!-- ur_ingest_session_fs_path -->
<g id="node3" class="node">
<title>ur_ingest_session_fs_path</title>
<polygon fill="#efefef" stroke="transparent" points="43.5,-2229.5 43.5,-2264.5 352.5,-2264.5 352.5,-2229.5 43.5,-2229.5"/>
<polygon fill="none" stroke="#000000" points="43.5,-2229.5 43.5,-2264.5 352.5,-2264.5 352.5,-2229.5 43.5,-2229.5"/>
<text text-anchor="start" x="54.7975" y="-2242.3" font-family="Arial Bold" font-size="18.00" fill="#000000">ur_ingest_session_fs_path</text>
<text text-anchor="start" x="268.8715" y="-2242.3" font-family="Arial" font-size="14.00" fill="#000000">    </text>
<text text-anchor="start" x="303.0763" y="-2242.3" font-family="Arial" font-size="14.00" fill="#666666">[table]</text>
<polygon fill="none" stroke="#000000" points="43.5,-2199.5 43.5,-2229.5 352.5,-2229.5 352.5,-2199.5 43.5,-2199.5"/>
<text text-anchor="start" x="50.202" y="-2210.9" font-family="Arial" font-size="14.00" fill="#000000">ur_ingest_session_fs_path_id    </text>
<text text-anchor="start" x="269.5806" y="-2210.9" font-family="Arial" font-size="14.00" fill="#666666">[VARCHAR]</text>
<polygon fill="none" stroke="#000000" points="43.5,-2169.5 43.5,-2199.5 352.5,-2199.5 352.5,-2169.5 43.5,-2169.5"/>
<text text-anchor="start" x="50.5" y="-2180.9" font-family="Arial" font-size="14.00" fill="#000000">ingest_session_id    </text>
<text text-anchor="start" x="195.9586" y="-2180.9" font-family="Arial" font-size="14.00" fill="#666666">[VARCHAR]</text>
<polygon fill="none" stroke="#000000" points="43.5,-2139.5 43.5,-2169.5 352.5,-2169.5 352.5,-2139.5 43.5,-2139.5"/>
<text text-anchor="start" x="50.5" y="-2150.9" font-family="Arial" font-size="14.00" fill="#000000">root_path    </text>
<text text-anchor="start" x="143.8422" y="-2150.9" font-family="Arial" font-size="14.00" fill="#666666">[TEXT]</text>
<polygon fill="none" stroke="#000000" points="43.5,-2109.5 43.5,-2139.5 352.5,-2139.5 352.5,-2109.5 43.5,-2109.5"/>
<text text-anchor="start" x="50.5" y="-2120.9" font-family="Arial" font-size="14.00" fill="#000000">elaboration    </text>
<text text-anchor="start" x="153.9474" y="-2120.9" font-family="Arial" font-size="14.00" fill="#666666">[TEXT]</text>
<polygon fill="none" stroke="#000000" points="43.5,-2079.5 43.5,-2109.5 352.5,-2109.5 352.5,-2079.5 43.5,-2079.5"/>
<text text-anchor="start" x="50.5" y="-2090.9" font-family="Arial" font-size="14.00" fill="#000000">created_at    </text>
<text text-anchor="start" x="150.8422" y="-2090.9" font-family="Arial" font-size="14.00" fill="#666666">[TIMESTAMP]</text>
<polygon fill="none" stroke="#000000" points="43.5,-2049.5 43.5,-2079.5 352.5,-2079.5 352.5,-2049.5 43.5,-2049.5"/>
<text text-anchor="start" x="50.5" y="-2060.9" font-family="Arial" font-size="14.00" fill="#000000">created_by    </text>
<text text-anchor="start" x="153.9516" y="-2060.9" font-family="Arial" font-size="14.00" fill="#666666">[TEXT]</text>
<polygon fill="none" stroke="#000000" points="43.5,-2019.5 43.5,-2049.5 352.5,-2049.5 352.5,-2019.5 43.5,-2019.5"/>
<text text-anchor="start" x="50.5" y="-2030.9" font-family="Arial" font-size="14.00" fill="#000000">updated_at    </text>
<text text-anchor="start" x="154.7468" y="-2030.9" font-family="Arial" font-size="14.00" fill="#666666">[TIMESTAMP]</text>
<polygon fill="none" stroke="#000000" points="43.5,-1989.5 43.5,-2019.5 352.5,-2019.5 352.5,-1989.5 43.5,-1989.5"/>
<text text-anchor="start" x="50.5" y="-2000.9" font-family="Arial" font-size="14.00" fill="#000000">updated_by    </text>
<text text-anchor="start" x="157.8562" y="-2000.9" font-family="Arial" font-size="14.00" fill="#666666">[TEXT]</text>
<polygon fill="none" stroke="#000000" points="43.5,-1959.5 43.5,-1989.5 352.5,-1989.5 352.5,-1959.5 43.5,-1959.5"/>
<text text-anchor="start" x="50.5" y="-1970.9" font-family="Arial" font-size="14.00" fill="#000000">deleted_at    </text>
<text text-anchor="start" x="150.0708" y="-1970.9" font-family="Arial" font-size="14.00" fill="#666666">[TIMESTAMP]</text>
<polygon fill="none" stroke="#000000" points="43.5,-1929.5 43.5,-1959.5 352.5,-1959.5 352.5,-1929.5 43.5,-1929.5"/>
<text text-anchor="start" x="50.5" y="-1940.9" font-family="Arial" font-size="14.00" fill="#000000">deleted_by    </text>
<text text-anchor="start" x="153.1802" y="-1940.9" font-family="Arial" font-size="14.00" fill="#666666">[TEXT]</text>
<polygon fill="none" stroke="#000000" points="43.5,-1899.5 43.5,-1929.5 352.5,-1929.5 352.5,-1899.5 43.5,-1899.5"/>
<text text-anchor="start" x="50.5" y="-1910.9" font-family="Arial" font-size="14.00" fill="#000000">activity_log    </text>
<text text-anchor="start" x="153.9362" y="-1910.9" font-family="Arial" font-size="14.00" fill="#666666">[TEXT]</text>
</g>
<!-- ur_ingest_session_fs_path&#45;&gt;ur_ingest_session -->
<g id="edge2" class="edge">
<title>ur_ingest_session_fs_path:ingest_session_id&#45;&gt;ur_ingest_session:ur_ingest_session_id</title>
<path fill="none" stroke="#000000" d="M362.4315,-2183.249C452.1595,-2159.2064 351.7282,-1795.6804 404.5,-1707 456.198,-1620.1241 490.4055,-1577.5 591.5,-1577.5"/>
<polygon fill="#000000" stroke="#000000" points="362.4216,-2183.2502 351.9376,-2180.0353 357.4608,-2183.8751 352.5,-2184.5 352.5,-2184.5 352.5,-2184.5 357.4608,-2183.8751 353.0624,-2188.9647 362.4216,-2183.2502 362.4216,-2183.2502"/>
</g>
<!-- uniform_resource -->
<g id="node4" class="node">
<title>uniform_resource</title>
<polygon fill="#efefef" stroke="transparent" points="911.5,-2364.5 911.5,-2399.5 1162.5,-2399.5 1162.5,-2364.5 911.5,-2364.5"/>
<polygon fill="none" stroke="#000000" points="911.5,-2364.5 911.5,-2399.5 1162.5,-2399.5 1162.5,-2364.5 911.5,-2364.5"/>
<text text-anchor="start" x="930.8271" y="-2377.3" font-family="Arial Bold" font-size="18.00" fill="#000000">uniform_resource</text>
<text text-anchor="start" x="1070.8419" y="-2377.3" font-family="Arial" font-size="14.00" fill="#000000">    </text>
<text text-anchor="start" x="1105.0467" y="-2377.3" font-family="Arial" font-size="14.00" fill="#666666">[table]</text>
<polygon fill="none" stroke="#000000" points="911.5,-2334.5 911.5,-2364.5 1162.5,-2364.5 1162.5,-2334.5 911.5,-2334.5"/>
<text text-anchor="start" x="918.0028" y="-2345.9" font-family="Arial" font-size="14.00" fill="#000000">uniform_resource_id    </text>
<text text-anchor="start" x="1079.7798" y="-2345.9" font-family="Arial" font-size="14.00" fill="#666666">[VARCHAR]</text>
<polygon fill="none" stroke="#000000" points="911.5,-2304.5 911.5,-2334.5 1162.5,-2334.5 1162.5,-2304.5 911.5,-2304.5"/>
<text text-anchor="start" x="918.5" y="-2315.9" font-family="Arial" font-size="14.00" fill="#000000">device_id    </text>
<text text-anchor="start" x="1011.831" y="-2315.9" font-family="Arial" font-size="14.00" fill="#666666">[VARCHAR]</text>
<polygon fill="none" stroke="#000000" points="911.5,-2274.5 911.5,-2304.5 1162.5,-2304.5 1162.5,-2274.5 911.5,-2274.5"/>
<text text-anchor="start" x="918.5" y="-2285.9" font-family="Arial" font-size="14.00" fill="#000000">ingest_session_id    </text>
<text text-anchor="start" x="1063.9586" y="-2285.9" font-family="Arial" font-size="14.00" fill="#666666">[VARCHAR]</text>
<polygon fill="none" stroke="#000000" points="911.5,-2244.5 911.5,-2274.5 1162.5,-2274.5 1162.5,-2244.5 911.5,-2244.5"/>
<text text-anchor="start" x="918.5" y="-2255.9" font-family="Arial" font-size="14.00" fill="#000000">ingest_fs_path_id    </text>
<text text-anchor="start" x="1062.4158" y="-2255.9" font-family="Arial" font-size="14.00" fill="#666666">[VARCHAR]</text>
<polygon fill="none" stroke="#000000" points="911.5,-2214.5 911.5,-2244.5 1162.5,-2244.5 1162.5,-2214.5 911.5,-2214.5"/>
<text text-anchor="start" x="918.5" y="-2225.9" font-family="Arial" font-size="14.00" fill="#000000">uri    </text>
<text text-anchor="start" x="968.2546" y="-2225.9" font-family="Arial" font-size="14.00" fill="#666666">[TEXT]</text>
<polygon fill="none" stroke="#000000" points="911.5,-2184.5 911.5,-2214.5 1162.5,-2214.5 1162.5,-2184.5 911.5,-2184.5"/>
<text text-anchor="start" x="918.5" y="-2195.9" font-family="Arial" font-size="14.00" fill="#000000">content_digest    </text>
<text text-anchor="start" x="1043.744" y="-2195.9" font-family="Arial" font-size="14.00" fill="#666666">[TEXT]</text>
<polygon fill="none" stroke="#000000" points="911.5,-2154.5 911.5,-2184.5 1162.5,-2184.5 1162.5,-2154.5 911.5,-2154.5"/>
<text text-anchor="start" x="918.5" y="-2165.9" font-family="Arial" font-size="14.00" fill="#000000">content    </text>
<text text-anchor="start" x="998.6164" y="-2165.9" font-family="Arial" font-size="14.00" fill="#666666">[BLOB]</text>
<polygon fill="none" stroke="#000000" points="911.5,-2124.5 911.5,-2154.5 1162.5,-2154.5 1162.5,-2124.5 911.5,-2124.5"/>
<text text-anchor="start" x="918.5" y="-2135.9" font-family="Arial" font-size="14.00" fill="#000000">nature    </text>
<text text-anchor="start" x="992.3864" y="-2135.9" font-family="Arial" font-size="14.00" fill="#666666">[TEXT]</text>
<polygon fill="none" stroke="#000000" points="911.5,-2094.5 911.5,-2124.5 1162.5,-2124.5 1162.5,-2094.5 911.5,-2094.5"/>
<text text-anchor="start" x="918.5" y="-2105.9" font-family="Arial" font-size="14.00" fill="#000000">size_bytes    </text>
<text text-anchor="start" x="1018.8324" y="-2105.9" font-family="Arial" font-size="14.00" fill="#666666">[INTEGER]</text>
<polygon fill="none" stroke="#000000" points="911.5,-2064.5 911.5,-2094.5 1162.5,-2094.5 1162.5,-2064.5 911.5,-2064.5"/>
<text text-anchor="start" x="918.5" y="-2075.9" font-family="Arial" font-size="14.00" fill="#000000">last_modified_at    </text>
<text text-anchor="start" x="1054.6178" y="-2075.9" font-family="Arial" font-size="14.00" fill="#666666">[TIMESTAMP]</text>
<polygon fill="none" stroke="#000000" points="911.5,-2034.5 911.5,-2064.5 1162.5,-2064.5 1162.5,-2034.5 911.5,-2034.5"/>
<text text-anchor="start" x="918.5" y="-2045.9" font-family="Arial" font-size="14.00" fill="#000000">content_fm_body_attrs    </text>
<text text-anchor="start" x="1095.0876" y="-2045.9" font-family="Arial" font-size="14.00" fill="#666666">[TEXT]</text>
<polygon fill="none" stroke="#000000" points="911.5,-2004.5 911.5,-2034.5 1162.5,-2034.5 1162.5,-2004.5 911.5,-2004.5"/>
<text text-anchor="start" x="918.5" y="-2015.9" font-family="Arial" font-size="14.00" fill="#000000">frontmatter    </text>
<text text-anchor="start" x="1020.3794" y="-2015.9" font-family="Arial" font-size="14.00" fill="#666666">[TEXT]</text>
<polygon fill="none" stroke="#000000" points="911.5,-1974.5 911.5,-2004.5 1162.5,-2004.5 1162.5,-1974.5 911.5,-1974.5"/>
<text text-anchor="start" x="918.5" y="-1985.9" font-family="Arial" font-size="14.00" fill="#000000">elaboration    </text>
<text text-anchor="start" x="1021.9474" y="-1985.9" font-family="Arial" font-size="14.00" fill="#666666">[TEXT]</text>
<polygon fill="none" stroke="#000000" points="911.5,-1944.5 911.5,-1974.5 1162.5,-1974.5 1162.5,-1944.5 911.5,-1944.5"/>
<text text-anchor="start" x="918.5" y="-1955.9" font-family="Arial" font-size="14.00" fill="#000000">created_at    </text>
<text text-anchor="start" x="1018.8422" y="-1955.9" font-family="Arial" font-size="14.00" fill="#666666">[TIMESTAMP]</text>
<polygon fill="none" stroke="#000000" points="911.5,-1914.5 911.5,-1944.5 1162.5,-1944.5 1162.5,-1914.5 911.5,-1914.5"/>
<text text-anchor="start" x="918.5" y="-1925.9" font-family="Arial" font-size="14.00" fill="#000000">created_by    </text>
<text text-anchor="start" x="1021.9516" y="-1925.9" font-family="Arial" font-size="14.00" fill="#666666">[TEXT]</text>
<polygon fill="none" stroke="#000000" points="911.5,-1884.5 911.5,-1914.5 1162.5,-1914.5 1162.5,-1884.5 911.5,-1884.5"/>
<text text-anchor="start" x="918.5" y="-1895.9" font-family="Arial" font-size="14.00" fill="#000000">updated_at    </text>
<text text-anchor="start" x="1022.7468" y="-1895.9" font-family="Arial" font-size="14.00" fill="#666666">[TIMESTAMP]</text>
<polygon fill="none" stroke="#000000" points="911.5,-1854.5 911.5,-1884.5 1162.5,-1884.5 1162.5,-1854.5 911.5,-1854.5"/>
<text text-anchor="start" x="918.5" y="-1865.9" font-family="Arial" font-size="14.00" fill="#000000">updated_by    </text>
<text text-anchor="start" x="1025.8562" y="-1865.9" font-family="Arial" font-size="14.00" fill="#666666">[TEXT]</text>
<polygon fill="none" stroke="#000000" points="911.5,-1824.5 911.5,-1854.5 1162.5,-1854.5 1162.5,-1824.5 911.5,-1824.5"/>
<text text-anchor="start" x="918.5" y="-1835.9" font-family="Arial" font-size="14.00" fill="#000000">deleted_at    </text>
<text text-anchor="start" x="1018.0708" y="-1835.9" font-family="Arial" font-size="14.00" fill="#666666">[TIMESTAMP]</text>
<polygon fill="none" stroke="#000000" points="911.5,-1794.5 911.5,-1824.5 1162.5,-1824.5 1162.5,-1794.5 911.5,-1794.5"/>
<text text-anchor="start" x="918.5" y="-1805.9" font-family="Arial" font-size="14.00" fill="#000000">deleted_by    </text>
<text text-anchor="start" x="1021.1802" y="-1805.9" font-family="Arial" font-size="14.00" fill="#666666">[TEXT]</text>
<polygon fill="none" stroke="#000000" points="911.5,-1764.5 911.5,-1794.5 1162.5,-1794.5 1162.5,-1764.5 911.5,-1764.5"/>
<text text-anchor="start" x="918.5" y="-1775.9" font-family="Arial" font-size="14.00" fill="#000000">activity_log    </text>
<text text-anchor="start" x="1021.9362" y="-1775.9" font-family="Arial" font-size="14.00" fill="#666666">[TEXT]</text>
</g>
<!-- uniform_resource&#45;&gt;ur_ingest_session -->
<g id="edge3" class="edge">
<title>uniform_resource:ingest_session_id&#45;&gt;ur_ingest_session:ur_ingest_session_id</title>
<path fill="none" stroke="#000000" d="M902.1922,-2285.6692C839.8077,-2229.6271 922.5267,-1577.5 846.5,-1577.5"/>
<polygon fill="#000000" stroke="#000000" points="902.2526,-2285.694 909.7873,-2293.6613 906.8763,-2287.597 911.5,-2289.5 911.5,-2289.5 911.5,-2289.5 906.8763,-2287.597 913.2127,-2285.3387 902.2526,-2285.694 902.2526,-2285.694"/>
</g>
<!-- uniform_resource&#45;&gt;device -->
<g id="edge7" class="edge">
<title>uniform_resource:device_id&#45;&gt;device:device_id</title>
<path fill="none" stroke="#000000" d="M901.4498,-2317.8785C720.7053,-2256.0624 1218.2486,-447.5 1013.5,-447.5"/>
<polygon fill="#000000" stroke="#000000" points="901.6277,-2317.9071 910.7832,-2323.9425 906.5638,-2318.7035 911.5,-2319.5 911.5,-2319.5 911.5,-2319.5 906.5638,-2318.7035 912.2168,-2315.0575 901.6277,-2317.9071 901.6277,-2317.9071"/>
</g>
<!-- ur_ingest_session_fs_path_entry -->
<g id="node5" class="node">
<title>ur_ingest_session_fs_path_entry</title>
<polygon fill="#efefef" stroke="transparent" points="456.5,-2379.5 456.5,-2414.5 806.5,-2414.5 806.5,-2379.5 456.5,-2379.5"/>
<polygon fill="none" stroke="#000000" points="456.5,-2379.5 456.5,-2414.5 806.5,-2414.5 806.5,-2379.5 456.5,-2379.5"/>
<text text-anchor="start" x="463.291" y="-2392.3" font-family="Arial Bold" font-size="18.00" fill="#000000">ur_ingest_session_fs_path_entry</text>
<text text-anchor="start" x="727.378" y="-2392.3" font-family="Arial" font-size="14.00" fill="#000000">    </text>
<text text-anchor="start" x="761.5828" y="-2392.3" font-family="Arial" font-size="14.00" fill="#666666">[table]</text>
<polygon fill="none" stroke="#000000" points="456.5,-2349.5 456.5,-2379.5 806.5,-2379.5 806.5,-2349.5 456.5,-2349.5"/>
<text text-anchor="start" x="463.5" y="-2360.9" font-family="Arial" font-size="14.00" fill="#000000">ur_ingest_session_fs_path_entry_id    </text>
<text text-anchor="start" x="721.7776" y="-2360.9" font-family="Arial" font-size="14.00" fill="#666666">[VARCHAR]</text>
<polygon fill="none" stroke="#000000" points="456.5,-2319.5 456.5,-2349.5 806.5,-2349.5 806.5,-2319.5 456.5,-2319.5"/>
<text text-anchor="start" x="463.5" y="-2330.9" font-family="Arial" font-size="14.00" fill="#000000">ingest_session_id    </text>
<text text-anchor="start" x="608.9586" y="-2330.9" font-family="Arial" font-size="14.00" fill="#666666">[VARCHAR]</text>
<polygon fill="none" stroke="#000000" points="456.5,-2289.5 456.5,-2319.5 806.5,-2319.5 806.5,-2289.5 456.5,-2289.5"/>
<text text-anchor="start" x="463.5" y="-2300.9" font-family="Arial" font-size="14.00" fill="#000000">ingest_fs_path_id    </text>
<text text-anchor="start" x="607.4158" y="-2300.9" font-family="Arial" font-size="14.00" fill="#666666">[VARCHAR]</text>
<polygon fill="none" stroke="#000000" points="456.5,-2259.5 456.5,-2289.5 806.5,-2289.5 806.5,-2259.5 456.5,-2259.5"/>
<text text-anchor="start" x="463.5" y="-2270.9" font-family="Arial" font-size="14.00" fill="#000000">uniform_resource_id    </text>
<text text-anchor="start" x="625.277" y="-2270.9" font-family="Arial" font-size="14.00" fill="#666666">[VARCHAR]</text>
<polygon fill="none" stroke="#000000" points="456.5,-2229.5 456.5,-2259.5 806.5,-2259.5 806.5,-2229.5 456.5,-2229.5"/>
<text text-anchor="start" x="463.5" y="-2240.9" font-family="Arial" font-size="14.00" fill="#000000">file_path_abs    </text>
<text text-anchor="start" x="580.96" y="-2240.9" font-family="Arial" font-size="14.00" fill="#666666">[TEXT]</text>
<polygon fill="none" stroke="#000000" points="456.5,-2199.5 456.5,-2229.5 806.5,-2229.5 806.5,-2199.5 456.5,-2199.5"/>
<text text-anchor="start" x="463.5" y="-2210.9" font-family="Arial" font-size="14.00" fill="#000000">file_path_rel_parent    </text>
<text text-anchor="start" x="621.4088" y="-2210.9" font-family="Arial" font-size="14.00" fill="#666666">[TEXT]</text>
<polygon fill="none" stroke="#000000" points="456.5,-2169.5 456.5,-2199.5 806.5,-2199.5 806.5,-2169.5 456.5,-2169.5"/>
<text text-anchor="start" x="463.5" y="-2180.9" font-family="Arial" font-size="14.00" fill="#000000">file_path_rel    </text>
<text text-anchor="start" x="573.9446" y="-2180.9" font-family="Arial" font-size="14.00" fill="#666666">[TEXT]</text>
<polygon fill="none" stroke="#000000" points="456.5,-2139.5 456.5,-2169.5 806.5,-2169.5 806.5,-2139.5 456.5,-2139.5"/>
<text text-anchor="start" x="463.5" y="-2150.9" font-family="Arial" font-size="14.00" fill="#000000">file_basename    </text>
<text text-anchor="start" x="588.73" y="-2150.9" font-family="Arial" font-size="14.00" fill="#666666">[TEXT]</text>
<polygon fill="none" stroke="#000000" points="456.5,-2109.5 456.5,-2139.5 806.5,-2139.5 806.5,-2109.5 456.5,-2109.5"/>
<text text-anchor="start" x="463.5" y="-2120.9" font-family="Arial" font-size="14.00" fill="#000000">file_extn    </text>
<text text-anchor="start" x="549.8296" y="-2120.9" font-family="Arial" font-size="14.00" fill="#666666">[TEXT]</text>
<polygon fill="none" stroke="#000000" points="456.5,-2079.5 456.5,-2109.5 806.5,-2109.5 806.5,-2079.5 456.5,-2079.5"/>
<text text-anchor="start" x="463.5" y="-2090.9" font-family="Arial" font-size="14.00" fill="#000000">captured_executable    </text>
<text text-anchor="start" x="627.6444" y="-2090.9" font-family="Arial" font-size="14.00" fill="#666666">[TEXT]</text>
<polygon fill="none" stroke="#000000" points="456.5,-2049.5 456.5,-2079.5 806.5,-2079.5 806.5,-2049.5 456.5,-2049.5"/>
<text text-anchor="start" x="463.5" y="-2060.9" font-family="Arial" font-size="14.00" fill="#000000">ur_status    </text>
<text text-anchor="start" x="555.277" y="-2060.9" font-family="Arial" font-size="14.00" fill="#666666">[TEXT]</text>
<polygon fill="none" stroke="#000000" points="456.5,-2019.5 456.5,-2049.5 806.5,-2049.5 806.5,-2019.5 456.5,-2019.5"/>
<text text-anchor="start" x="463.5" y="-2030.9" font-family="Arial" font-size="14.00" fill="#000000">ur_diagnostics    </text>
<text text-anchor="start" x="587.9474" y="-2030.9" font-family="Arial" font-size="14.00" fill="#666666">[TEXT]</text>
<polygon fill="none" stroke="#000000" points="456.5,-1989.5 456.5,-2019.5 806.5,-2019.5 806.5,-1989.5 456.5,-1989.5"/>
<text text-anchor="start" x="463.5" y="-2000.9" font-family="Arial" font-size="14.00" fill="#000000">ur_transformations    </text>
<text text-anchor="start" x="614.3864" y="-2000.9" font-family="Arial" font-size="14.00" fill="#666666">[TEXT]</text>
<polygon fill="none" stroke="#000000" points="456.5,-1959.5 456.5,-1989.5 806.5,-1989.5 806.5,-1959.5 456.5,-1959.5"/>
<text text-anchor="start" x="463.5" y="-1970.9" font-family="Arial" font-size="14.00" fill="#000000">elaboration    </text>
<text text-anchor="start" x="566.9474" y="-1970.9" font-family="Arial" font-size="14.00" fill="#666666">[TEXT]</text>
<polygon fill="none" stroke="#000000" points="456.5,-1929.5 456.5,-1959.5 806.5,-1959.5 806.5,-1929.5 456.5,-1929.5"/>
<text text-anchor="start" x="463.5" y="-1940.9" font-family="Arial" font-size="14.00" fill="#000000">created_at    </text>
<text text-anchor="start" x="563.8422" y="-1940.9" font-family="Arial" font-size="14.00" fill="#666666">[TIMESTAMP]</text>
<polygon fill="none" stroke="#000000" points="456.5,-1899.5 456.5,-1929.5 806.5,-1929.5 806.5,-1899.5 456.5,-1899.5"/>
<text text-anchor="start" x="463.5" y="-1910.9" font-family="Arial" font-size="14.00" fill="#000000">created_by    </text>
<text text-anchor="start" x="566.9516" y="-1910.9" font-family="Arial" font-size="14.00" fill="#666666">[TEXT]</text>
<polygon fill="none" stroke="#000000" points="456.5,-1869.5 456.5,-1899.5 806.5,-1899.5 806.5,-1869.5 456.5,-1869.5"/>
<text text-anchor="start" x="463.5" y="-1880.9" font-family="Arial" font-size="14.00" fill="#000000">updated_at    </text>
<text text-anchor="start" x="567.7468" y="-1880.9" font-family="Arial" font-size="14.00" fill="#666666">[TIMESTAMP]</text>
<polygon fill="none" stroke="#000000" points="456.5,-1839.5 456.5,-1869.5 806.5,-1869.5 806.5,-1839.5 456.5,-1839.5"/>
<text text-anchor="start" x="463.5" y="-1850.9" font-family="Arial" font-size="14.00" fill="#000000">updated_by    </text>
<text text-anchor="start" x="570.8562" y="-1850.9" font-family="Arial" font-size="14.00" fill="#666666">[TEXT]</text>
<polygon fill="none" stroke="#000000" points="456.5,-1809.5 456.5,-1839.5 806.5,-1839.5 806.5,-1809.5 456.5,-1809.5"/>
<text text-anchor="start" x="463.5" y="-1820.9" font-family="Arial" font-size="14.00" fill="#000000">deleted_at    </text>
<text text-anchor="start" x="563.0708" y="-1820.9" font-family="Arial" font-size="14.00" fill="#666666">[TIMESTAMP]</text>
<polygon fill="none" stroke="#000000" points="456.5,-1779.5 456.5,-1809.5 806.5,-1809.5 806.5,-1779.5 456.5,-1779.5"/>
<text text-anchor="start" x="463.5" y="-1790.9" font-family="Arial" font-size="14.00" fill="#000000">deleted_by    </text>
<text text-anchor="start" x="566.1802" y="-1790.9" font-family="Arial" font-size="14.00" fill="#666666">[TEXT]</text>
<polygon fill="none" stroke="#000000" points="456.5,-1749.5 456.5,-1779.5 806.5,-1779.5 806.5,-1749.5 456.5,-1749.5"/>
<text text-anchor="start" x="463.5" y="-1760.9" font-family="Arial" font-size="14.00" fill="#000000">activity_log    </text>
<text text-anchor="start" x="566.9362" y="-1760.9" font-family="Arial" font-size="14.00" fill="#666666">[TEXT]</text>
</g>
<!-- ur_ingest_session_fs_path_entry&#45;&gt;ur_ingest_session -->
<g id="edge4" class="edge">
<title>ur_ingest_session_fs_path_entry:ingest_session_id&#45;&gt;ur_ingest_session:ur_ingest_session_id</title>
<path fill="none" stroke="#000000" d="M816.0466,-2330.5199C873.7639,-2279.6599 849.3471,-1757.618 806.5,-1707 743.9033,-1633.0506 654.0967,-1744.9494 591.5,-1671 564.6515,-1639.2822 549.9444,-1577.5 591.5,-1577.5"/>
<polygon fill="#000000" stroke="#000000" points="815.73,-2330.6519 804.7683,-2330.3465 811.115,-2332.5759 806.5,-2334.5 806.5,-2334.5 806.5,-2334.5 811.115,-2332.5759 808.2317,-2338.6535 815.73,-2330.6519 815.73,-2330.6519"/>
</g>
</g>
</svg>
