<?xml version="1.0" encoding="UTF-8" standalone="no"?>
<!DOCTYPE svg PUBLIC "-//W3C//DTD SVG 1.1//EN"
 "http://www.w3.org/Graphics/SVG/1.1/DTD/svg11.dtd">
<!-- Generated by graphviz version 2.40.1 (20161225.0304)
 -->
<!-- Title: behavior Pages: 1 -->
<svg width="1197pt" height="2466pt"
 viewBox="0.00 0.00 1196.50 2466.00" xmlns="http://www.w3.org/2000/svg" xmlns:xlink="http://www.w3.org/1999/xlink">
<g id="graph0" class="graph" transform="scale(1 1) rotate(0) translate(4 2462)">
<title>behavior</title>
<polygon fill="#ffffff" stroke="transparent" points="-4,4 -4,-2462 1192.5028,-2462 1192.5028,4 -4,4"/>
<!-- behavior -->
<g id="node1" class="node">
<title>behavior</title>
<polygon fill="#efefef" stroke="transparent" points="567,-1012.5 567,-1047.5 768,-1047.5 768,-1012.5 567,-1012.5"/>
<polygon fill="none" stroke="#000000" points="567,-1012.5 567,-1047.5 768,-1047.5 768,-1012.5 567,-1012.5"/>
<text text-anchor="start" x="596.8258" y="-1025.3" font-family="Arial Bold" font-size="18.00" fill="#000000">behavior</text>
<text text-anchor="start" x="665.8432" y="-1025.3" font-family="Arial" font-size="14.00" fill="#000000">    </text>
<text text-anchor="start" x="700.048" y="-1025.3" font-family="Arial" font-size="14.00" fill="#666666">[table]</text>
<polygon fill="none" stroke="#000000" points="567,-982.5 567,-1012.5 768,-1012.5 768,-982.5 567,-982.5"/>
<text text-anchor="start" x="574" y="-993.9" font-family="Arial" font-size="14.00" fill="#000000">behavior_id </text>
<text text-anchor="start" x="650.2426" y="-993.9" font-family="Arial" font-size="14.00" fill="#666666">[ULID]</text>
<polygon fill="none" stroke="#000000" points="567,-952.5 567,-982.5 768,-982.5 768,-952.5 567,-952.5"/>
<text text-anchor="start" x="574" y="-963.9" font-family="Arial" font-size="14.00" fill="#000000">device_id </text>
<text text-anchor="start" x="637.0168" y="-963.9" font-family="Arial" font-size="14.00" fill="#666666">[ULID]</text>
<polygon fill="none" stroke="#000000" points="567,-922.5 567,-952.5 768,-952.5 768,-922.5 567,-922.5"/>
<text text-anchor="start" x="574" y="-933.9" font-family="Arial" font-size="14.00" fill="#000000">behavior_name </text>
<text text-anchor="start" x="674.3618" y="-933.9" font-family="Arial" font-size="14.00" fill="#666666">[TEXT]</text>
<polygon fill="none" stroke="#000000" points="567,-892.5 567,-922.5 768,-922.5 768,-892.5 567,-892.5"/>
<text text-anchor="start" x="574" y="-903.9" font-family="Arial" font-size="14.00" fill="#000000">behavior_conf_json </text>
<text text-anchor="start" x="699.2636" y="-903.9" font-family="Arial" font-size="14.00" fill="#666666">[TEXT]</text>
<polygon fill="none" stroke="#000000" points="567,-862.5 567,-892.5 768,-892.5 768,-862.5 567,-862.5"/>
<text text-anchor="start" x="573.7567" y="-873.9" font-family="Arial" font-size="14.00" fill="#000000">assurance_schema_id </text>
<text text-anchor="start" x="717.6837" y="-873.9" font-family="Arial" font-size="14.00" fill="#666666">[TEXT]</text>
<polygon fill="none" stroke="#000000" points="567,-832.5 567,-862.5 768,-862.5 768,-832.5 567,-832.5"/>
<text text-anchor="start" x="574" y="-843.9" font-family="Arial" font-size="14.00" fill="#000000">governance </text>
<text text-anchor="start" x="651.0294" y="-843.9" font-family="Arial" font-size="14.00" fill="#666666">[TEXT]</text>
<polygon fill="none" stroke="#000000" points="567,-802.5 567,-832.5 768,-832.5 768,-802.5 567,-802.5"/>
<text text-anchor="start" x="574" y="-813.9" font-family="Arial" font-size="14.00" fill="#000000">created_at </text>
<text text-anchor="start" x="644.028" y="-813.9" font-family="Arial" font-size="14.00" fill="#666666">[TIMESTAMP]</text>
<polygon fill="none" stroke="#000000" points="567,-772.5 567,-802.5 768,-802.5 768,-772.5 567,-772.5"/>
<text text-anchor="start" x="574" y="-783.9" font-family="Arial" font-size="14.00" fill="#000000">created_by </text>
<text text-anchor="start" x="647.1374" y="-783.9" font-family="Arial" font-size="14.00" fill="#666666">[TEXT]</text>
<polygon fill="none" stroke="#000000" points="567,-742.5 567,-772.5 768,-772.5 768,-742.5 567,-742.5"/>
<text text-anchor="start" x="574" y="-753.9" font-family="Arial" font-size="14.00" fill="#000000">updated_at </text>
<text text-anchor="start" x="647.9326" y="-753.9" font-family="Arial" font-size="14.00" fill="#666666">[TIMESTAMP]</text>
<polygon fill="none" stroke="#000000" points="567,-712.5 567,-742.5 768,-742.5 768,-712.5 567,-712.5"/>
<text text-anchor="start" x="574" y="-723.9" font-family="Arial" font-size="14.00" fill="#000000">updated_by </text>
<text text-anchor="start" x="651.042" y="-723.9" font-family="Arial" font-size="14.00" fill="#666666">[TEXT]</text>
<polygon fill="none" stroke="#000000" points="567,-682.5 567,-712.5 768,-712.5 768,-682.5 567,-682.5"/>
<text text-anchor="start" x="574" y="-693.9" font-family="Arial" font-size="14.00" fill="#000000">deleted_at </text>
<text text-anchor="start" x="643.2566" y="-693.9" font-family="Arial" font-size="14.00" fill="#666666">[TIMESTAMP]</text>
<polygon fill="none" stroke="#000000" points="567,-652.5 567,-682.5 768,-682.5 768,-652.5 567,-652.5"/>
<text text-anchor="start" x="574" y="-663.9" font-family="Arial" font-size="14.00" fill="#000000">deleted_by </text>
<text text-anchor="start" x="646.366" y="-663.9" font-family="Arial" font-size="14.00" fill="#666666">[TEXT]</text>
<polygon fill="none" stroke="#000000" points="567,-622.5 567,-652.5 768,-652.5 768,-622.5 567,-622.5"/>
<text text-anchor="start" x="574" y="-633.9" font-family="Arial" font-size="14.00" fill="#000000">activity_log </text>
<text text-anchor="start" x="647.122" y="-633.9" font-family="Arial" font-size="14.00" fill="#666666">[TEXT]</text>
<polygon fill="none" stroke="#000000" stroke-width="3" points="565,-621.5 565,-1049.5 769,-1049.5 769,-621.5 565,-621.5"/>
</g>
<!-- device -->
<g id="node6" class="node">
<title>device</title>
<polygon fill="#efefef" stroke="transparent" points="738,-462.5 738,-497.5 945,-497.5 945,-462.5 738,-462.5"/>
<polygon fill="none" stroke="#000000" points="738,-462.5 738,-497.5 945,-497.5 945,-462.5 738,-462.5"/>
<text text-anchor="start" x="779.3281" y="-475.3" font-family="Arial Bold" font-size="18.00" fill="#000000">device</text>
<text text-anchor="start" x="831.3409" y="-475.3" font-family="Arial" font-size="14.00" fill="#000000">    </text>
<text text-anchor="start" x="865.5457" y="-475.3" font-family="Arial" font-size="14.00" fill="#666666">[table]</text>
<polygon fill="none" stroke="#000000" points="738,-432.5 738,-462.5 945,-462.5 945,-432.5 738,-432.5"/>
<text text-anchor="start" x="745" y="-443.9" font-family="Arial" font-size="14.00" fill="#000000">device_id    </text>
<text text-anchor="start" x="838.331" y="-443.9" font-family="Arial" font-size="14.00" fill="#666666">[ULID]</text>
<polygon fill="none" stroke="#000000" points="738,-402.5 738,-432.5 945,-432.5 945,-402.5 738,-402.5"/>
<text text-anchor="start" x="745" y="-413.9" font-family="Arial" font-size="14.00" fill="#000000">name    </text>
<text text-anchor="start" x="814.2132" y="-413.9" font-family="Arial" font-size="14.00" fill="#666666">[TEXT]</text>
<polygon fill="none" stroke="#000000" points="738,-372.5 738,-402.5 945,-402.5 945,-372.5 738,-372.5"/>
<text text-anchor="start" x="745" y="-383.9" font-family="Arial" font-size="14.00" fill="#000000">state    </text>
<text text-anchor="start" x="809.5512" y="-383.9" font-family="Arial" font-size="14.00" fill="#666666">[TEXT]</text>
<polygon fill="none" stroke="#000000" points="738,-342.5 738,-372.5 945,-372.5 945,-342.5 738,-342.5"/>
<text text-anchor="start" x="745" y="-353.9" font-family="Arial" font-size="14.00" fill="#000000">boundary    </text>
<text text-anchor="start" x="837.561" y="-353.9" font-family="Arial" font-size="14.00" fill="#666666">[TEXT]</text>
<polygon fill="none" stroke="#000000" points="738,-312.5 738,-342.5 945,-342.5 945,-312.5 738,-312.5"/>
<text text-anchor="start" x="745" y="-323.9" font-family="Arial" font-size="14.00" fill="#000000">segmentation    </text>
<text text-anchor="start" x="863.2314" y="-323.9" font-family="Arial" font-size="14.00" fill="#666666">[TEXT]</text>
<polygon fill="none" stroke="#000000" points="738,-282.5 738,-312.5 945,-312.5 945,-282.5 738,-282.5"/>
<text text-anchor="start" x="745" y="-293.9" font-family="Arial" font-size="14.00" fill="#000000">state_sysinfo    </text>
<text text-anchor="start" x="860.8962" y="-293.9" font-family="Arial" font-size="14.00" fill="#666666">[TEXT]</text>
<polygon fill="none" stroke="#000000" points="738,-252.5 738,-282.5 945,-282.5 945,-252.5 738,-252.5"/>
<text text-anchor="start" x="745" y="-263.9" font-family="Arial" font-size="14.00" fill="#000000">elaboration    </text>
<text text-anchor="start" x="848.4474" y="-263.9" font-family="Arial" font-size="14.00" fill="#666666">[TEXT]</text>
<polygon fill="none" stroke="#000000" points="738,-222.5 738,-252.5 945,-252.5 945,-222.5 738,-222.5"/>
<text text-anchor="start" x="745" y="-233.9" font-family="Arial" font-size="14.00" fill="#000000">created_at    </text>
<text text-anchor="start" x="845.3422" y="-233.9" font-family="Arial" font-size="14.00" fill="#666666">[TIMESTAMP]</text>
<polygon fill="none" stroke="#000000" points="738,-192.5 738,-222.5 945,-222.5 945,-192.5 738,-192.5"/>
<text text-anchor="start" x="745" y="-203.9" font-family="Arial" font-size="14.00" fill="#000000">created_by    </text>
<text text-anchor="start" x="848.4516" y="-203.9" font-family="Arial" font-size="14.00" fill="#666666">[TEXT]</text>
<polygon fill="none" stroke="#000000" points="738,-162.5 738,-192.5 945,-192.5 945,-162.5 738,-162.5"/>
<text text-anchor="start" x="744.6543" y="-173.9" font-family="Arial" font-size="14.00" fill="#000000">updated_at    </text>
<text text-anchor="start" x="848.9011" y="-173.9" font-family="Arial" font-size="14.00" fill="#666666">[TIMESTAMP]</text>
<polygon fill="none" stroke="#000000" points="738,-132.5 738,-162.5 945,-162.5 945,-132.5 738,-132.5"/>
<text text-anchor="start" x="745" y="-143.9" font-family="Arial" font-size="14.00" fill="#000000">updated_by    </text>
<text text-anchor="start" x="852.3562" y="-143.9" font-family="Arial" font-size="14.00" fill="#666666">[TEXT]</text>
<polygon fill="none" stroke="#000000" points="738,-102.5 738,-132.5 945,-132.5 945,-102.5 738,-102.5"/>
<text text-anchor="start" x="745" y="-113.9" font-family="Arial" font-size="14.00" fill="#000000">deleted_at    </text>
<text text-anchor="start" x="844.5708" y="-113.9" font-family="Arial" font-size="14.00" fill="#666666">[TIMESTAMP]</text>
<polygon fill="none" stroke="#000000" points="738,-72.5 738,-102.5 945,-102.5 945,-72.5 738,-72.5"/>
<text text-anchor="start" x="745" y="-83.9" font-family="Arial" font-size="14.00" fill="#000000">deleted_by    </text>
<text text-anchor="start" x="847.6802" y="-83.9" font-family="Arial" font-size="14.00" fill="#666666">[TEXT]</text>
<polygon fill="none" stroke="#000000" points="738,-42.5 738,-72.5 945,-72.5 945,-42.5 738,-42.5"/>
<text text-anchor="start" x="745" y="-53.9" font-family="Arial" font-size="14.00" fill="#000000">activity_log    </text>
<text text-anchor="start" x="848.4362" y="-53.9" font-family="Arial" font-size="14.00" fill="#666666">[TEXT]</text>
</g>
<!-- behavior&#45;&gt;device -->
<g id="edge6" class="edge">
<title>behavior:device_id&#45;&gt;device:device_id</title>
<path fill="none" stroke="#000000" d="M777.9628,-965.978C850.1292,-942.5425 796.3297,-655.248 768,-577 760.9098,-557.4167 745.0902,-560.5833 738,-541 723.8534,-501.9265 696.4444,-447.5 738,-447.5"/>
<polygon fill="#000000" stroke="#000000" points="777.8853,-965.9897 767.3204,-963.0516 772.9427,-966.7449 768,-967.5 768,-967.5 768,-967.5 772.9427,-966.7449 768.6796,-971.9484 777.8853,-965.9897 777.8853,-965.9897"/>
</g>
<!-- ur_ingest_session -->
<g id="node2" class="node">
<title>ur_ingest_session</title>
<polygon fill="#efefef" stroke="transparent" points="543,-1592.5 543,-1627.5 793,-1627.5 793,-1592.5 543,-1592.5"/>
<polygon fill="none" stroke="#000000" points="543,-1592.5 543,-1627.5 793,-1627.5 793,-1592.5 543,-1592.5"/>
<text text-anchor="start" x="559.3152" y="-1605.3" font-family="Arial Bold" font-size="18.00" fill="#000000">ur_ingest_session</text>
<text text-anchor="start" x="704.3538" y="-1605.3" font-family="Arial" font-size="14.00" fill="#000000">    </text>
<text text-anchor="start" x="738.5586" y="-1605.3" font-family="Arial" font-size="14.00" fill="#666666">[table]</text>
<polygon fill="none" stroke="#000000" points="543,-1562.5 543,-1592.5 793,-1592.5 793,-1562.5 543,-1562.5"/>
<text text-anchor="start" x="550" y="-1573.9" font-family="Arial" font-size="14.00" fill="#000000">ur_ingest_session_id    </text>
<text text-anchor="start" x="715.6844" y="-1573.9" font-family="Arial" font-size="14.00" fill="#666666">[ULID]</text>
<polygon fill="none" stroke="#000000" points="543,-1532.5 543,-1562.5 793,-1562.5 793,-1532.5 543,-1532.5"/>
<text text-anchor="start" x="550" y="-1543.9" font-family="Arial" font-size="14.00" fill="#000000">device_id    </text>
<text text-anchor="start" x="643.331" y="-1543.9" font-family="Arial" font-size="14.00" fill="#666666">[ULID]</text>
<polygon fill="none" stroke="#000000" points="543,-1502.5 543,-1532.5 793,-1532.5 793,-1502.5 543,-1502.5"/>
<text text-anchor="start" x="550" y="-1513.9" font-family="Arial" font-size="14.00" fill="#000000">behavior_id    </text>
<text text-anchor="start" x="656.5568" y="-1513.9" font-family="Arial" font-size="14.00" fill="#666666">[ULID]</text>
<polygon fill="none" stroke="#000000" points="543,-1472.5 543,-1502.5 793,-1502.5 793,-1472.5 543,-1472.5"/>
<text text-anchor="start" x="550" y="-1483.9" font-family="Arial" font-size="14.00" fill="#000000">behavior_json    </text>
<text text-anchor="start" x="671.3394" y="-1483.9" font-family="Arial" font-size="14.00" fill="#666666">[TEXT]</text>
<polygon fill="none" stroke="#000000" points="543,-1442.5 543,-1472.5 793,-1472.5 793,-1442.5 543,-1442.5"/>
<text text-anchor="start" x="550" y="-1453.9" font-family="Arial" font-size="14.00" fill="#000000">ingest_started_at    </text>
<text text-anchor="start" x="691.5778" y="-1453.9" font-family="Arial" font-size="14.00" fill="#666666">[TIMESTAMP]</text>
<polygon fill="none" stroke="#000000" points="543,-1412.5 543,-1442.5 793,-1442.5 793,-1412.5 543,-1412.5"/>
<text text-anchor="start" x="549.7665" y="-1423.9" font-family="Arial" font-size="14.00" fill="#000000">ingest_finished_at    </text>
<text text-anchor="start" x="696.7889" y="-1423.9" font-family="Arial" font-size="14.00" fill="#666666">[TIMESTAMP]</text>
<polygon fill="none" stroke="#000000" points="543,-1382.5 543,-1412.5 793,-1412.5 793,-1382.5 543,-1382.5"/>
<text text-anchor="start" x="550" y="-1393.9" font-family="Arial" font-size="14.00" fill="#000000">elaboration    </text>
<text text-anchor="start" x="653.4474" y="-1393.9" font-family="Arial" font-size="14.00" fill="#666666">[TEXT]</text>
<polygon fill="none" stroke="#000000" points="543,-1352.5 543,-1382.5 793,-1382.5 793,-1352.5 543,-1352.5"/>
<text text-anchor="start" x="550" y="-1363.9" font-family="Arial" font-size="14.00" fill="#000000">created_at    </text>
<text text-anchor="start" x="650.3422" y="-1363.9" font-family="Arial" font-size="14.00" fill="#666666">[TIMESTAMP]</text>
<polygon fill="none" stroke="#000000" points="543,-1322.5 543,-1352.5 793,-1352.5 793,-1322.5 543,-1322.5"/>
<text text-anchor="start" x="550" y="-1333.9" font-family="Arial" font-size="14.00" fill="#000000">created_by    </text>
<text text-anchor="start" x="653.4516" y="-1333.9" font-family="Arial" font-size="14.00" fill="#666666">[TEXT]</text>
<polygon fill="none" stroke="#000000" points="543,-1292.5 543,-1322.5 793,-1322.5 793,-1292.5 543,-1292.5"/>
<text text-anchor="start" x="550" y="-1303.9" font-family="Arial" font-size="14.00" fill="#000000">updated_at    </text>
<text text-anchor="start" x="654.2468" y="-1303.9" font-family="Arial" font-size="14.00" fill="#666666">[TIMESTAMP]</text>
<polygon fill="none" stroke="#000000" points="543,-1262.5 543,-1292.5 793,-1292.5 793,-1262.5 543,-1262.5"/>
<text text-anchor="start" x="550" y="-1273.9" font-family="Arial" font-size="14.00" fill="#000000">updated_by    </text>
<text text-anchor="start" x="657.3562" y="-1273.9" font-family="Arial" font-size="14.00" fill="#666666">[TEXT]</text>
<polygon fill="none" stroke="#000000" points="543,-1232.5 543,-1262.5 793,-1262.5 793,-1232.5 543,-1232.5"/>
<text text-anchor="start" x="550" y="-1243.9" font-family="Arial" font-size="14.00" fill="#000000">deleted_at    </text>
<text text-anchor="start" x="649.5708" y="-1243.9" font-family="Arial" font-size="14.00" fill="#666666">[TIMESTAMP]</text>
<polygon fill="none" stroke="#000000" points="543,-1202.5 543,-1232.5 793,-1232.5 793,-1202.5 543,-1202.5"/>
<text text-anchor="start" x="550" y="-1213.9" font-family="Arial" font-size="14.00" fill="#000000">deleted_by    </text>
<text text-anchor="start" x="652.6802" y="-1213.9" font-family="Arial" font-size="14.00" fill="#666666">[TEXT]</text>
<polygon fill="none" stroke="#000000" points="543,-1172.5 543,-1202.5 793,-1202.5 793,-1172.5 543,-1172.5"/>
<text text-anchor="start" x="550" y="-1183.9" font-family="Arial" font-size="14.00" fill="#000000">activity_log    </text>
<text text-anchor="start" x="653.4362" y="-1183.9" font-family="Arial" font-size="14.00" fill="#666666">[TEXT]</text>
</g>
<!-- ur_ingest_session&#45;&gt;behavior -->
<g id="edge1" class="edge">
<title>ur_ingest_session:behavior_id&#45;&gt;behavior:behavior_id</title>
<path fill="none" stroke="#000000" d="M532.6963,-1517.1797C373.2798,-1507.0342 433.5455,-1258.3594 543,-1130 608.7102,-1052.9404 702.2898,-1171.0596 768,-1094 795.8284,-1061.3651 810.8889,-997.5 768,-997.5"/>
<polygon fill="#000000" stroke="#000000" points="533.0048,-1517.1892 542.8601,-1521.9978 538.0024,-1517.3446 543,-1517.5 543,-1517.5 543,-1517.5 538.0024,-1517.3446 543.1399,-1513.0022 533.0048,-1517.1892 533.0048,-1517.1892"/>
</g>
<!-- ur_ingest_session&#45;&gt;device -->
<g id="edge5" class="edge">
<title>ur_ingest_session:device_id&#45;&gt;device:device_id</title>
<path fill="none" stroke="#000000" d="M798.7211,-1538.9648C839.0904,-1436.5796 974.2494,-447.5 945,-447.5"/>
<polygon fill="#000000" stroke="#000000" points="798.5679,-1539.1934 789.262,-1544.9945 795.7839,-1543.3467 793,-1547.5 793,-1547.5 793,-1547.5 795.7839,-1543.3467 796.738,-1550.0055 798.5679,-1539.1934 798.5679,-1539.1934"/>
</g>
<!-- ur_ingest_session_fs_path -->
<g id="node3" class="node">
<title>ur_ingest_session_fs_path</title>
<polygon fill="#efefef" stroke="transparent" points="43,-2229.5 43,-2264.5 343,-2264.5 343,-2229.5 43,-2229.5"/>
<polygon fill="none" stroke="#000000" points="43,-2229.5 43,-2264.5 343,-2264.5 343,-2229.5 43,-2229.5"/>
<text text-anchor="start" x="49.7975" y="-2242.3" font-family="Arial Bold" font-size="18.00" fill="#000000">ur_ingest_session_fs_path</text>
<text text-anchor="start" x="263.8715" y="-2242.3" font-family="Arial" font-size="14.00" fill="#000000">    </text>
<text text-anchor="start" x="298.0763" y="-2242.3" font-family="Arial" font-size="14.00" fill="#666666">[table]</text>
<polygon fill="none" stroke="#000000" points="43,-2199.5 43,-2229.5 343,-2229.5 343,-2199.5 43,-2199.5"/>
<text text-anchor="start" x="50" y="-2210.9" font-family="Arial" font-size="14.00" fill="#000000">ur_ingest_session_fs_path_id    </text>
<text text-anchor="start" x="269.3786" y="-2210.9" font-family="Arial" font-size="14.00" fill="#666666">[ULID]</text>
<polygon fill="none" stroke="#000000" points="43,-2169.5 43,-2199.5 343,-2199.5 343,-2169.5 43,-2169.5"/>
<text text-anchor="start" x="50" y="-2180.9" font-family="Arial" font-size="14.00" fill="#000000">ingest_session_id    </text>
<text text-anchor="start" x="195.4586" y="-2180.9" font-family="Arial" font-size="14.00" fill="#666666">[ULID]</text>
<polygon fill="none" stroke="#000000" points="43,-2139.5 43,-2169.5 343,-2169.5 343,-2139.5 43,-2139.5"/>
<text text-anchor="start" x="50" y="-2150.9" font-family="Arial" font-size="14.00" fill="#000000">root_path    </text>
<text text-anchor="start" x="143.3422" y="-2150.9" font-family="Arial" font-size="14.00" fill="#666666">[TEXT]</text>
<polygon fill="none" stroke="#000000" points="43,-2109.5 43,-2139.5 343,-2139.5 343,-2109.5 43,-2109.5"/>
<text text-anchor="start" x="50" y="-2120.9" font-family="Arial" font-size="14.00" fill="#000000">elaboration    </text>
<text text-anchor="start" x="153.4474" y="-2120.9" font-family="Arial" font-size="14.00" fill="#666666">[TEXT]</text>
<polygon fill="none" stroke="#000000" points="43,-2079.5 43,-2109.5 343,-2109.5 343,-2079.5 43,-2079.5"/>
<text text-anchor="start" x="50" y="-2090.9" font-family="Arial" font-size="14.00" fill="#000000">created_at    </text>
<text text-anchor="start" x="150.3422" y="-2090.9" font-family="Arial" font-size="14.00" fill="#666666">[TIMESTAMP]</text>
<polygon fill="none" stroke="#000000" points="43,-2049.5 43,-2079.5 343,-2079.5 343,-2049.5 43,-2049.5"/>
<text text-anchor="start" x="50" y="-2060.9" font-family="Arial" font-size="14.00" fill="#000000">created_by    </text>
<text text-anchor="start" x="153.4516" y="-2060.9" font-family="Arial" font-size="14.00" fill="#666666">[TEXT]</text>
<polygon fill="none" stroke="#000000" points="43,-2019.5 43,-2049.5 343,-2049.5 343,-2019.5 43,-2019.5"/>
<text text-anchor="start" x="50" y="-2030.9" font-family="Arial" font-size="14.00" fill="#000000">updated_at    </text>
<text text-anchor="start" x="154.2468" y="-2030.9" font-family="Arial" font-size="14.00" fill="#666666">[TIMESTAMP]</text>
<polygon fill="none" stroke="#000000" points="43,-1989.5 43,-2019.5 343,-2019.5 343,-1989.5 43,-1989.5"/>
<text text-anchor="start" x="50" y="-2000.9" font-family="Arial" font-size="14.00" fill="#000000">updated_by    </text>
<text text-anchor="start" x="157.3562" y="-2000.9" font-family="Arial" font-size="14.00" fill="#666666">[TEXT]</text>
<polygon fill="none" stroke="#000000" points="43,-1959.5 43,-1989.5 343,-1989.5 343,-1959.5 43,-1959.5"/>
<text text-anchor="start" x="50" y="-1970.9" font-family="Arial" font-size="14.00" fill="#000000">deleted_at    </text>
<text text-anchor="start" x="149.5708" y="-1970.9" font-family="Arial" font-size="14.00" fill="#666666">[TIMESTAMP]</text>
<polygon fill="none" stroke="#000000" points="43,-1929.5 43,-1959.5 343,-1959.5 343,-1929.5 43,-1929.5"/>
<text text-anchor="start" x="50" y="-1940.9" font-family="Arial" font-size="14.00" fill="#000000">deleted_by    </text>
<text text-anchor="start" x="152.6802" y="-1940.9" font-family="Arial" font-size="14.00" fill="#666666">[TEXT]</text>
<polygon fill="none" stroke="#000000" points="43,-1899.5 43,-1929.5 343,-1929.5 343,-1899.5 43,-1899.5"/>
<text text-anchor="start" x="50" y="-1910.9" font-family="Arial" font-size="14.00" fill="#000000">activity_log    </text>
<text text-anchor="start" x="153.4362" y="-1910.9" font-family="Arial" font-size="14.00" fill="#666666">[TEXT]</text>
</g>
<!-- ur_ingest_session_fs_path&#45;&gt;ur_ingest_session -->
<g id="edge2" class="edge">
<title>ur_ingest_session_fs_path:ingest_session_id&#45;&gt;ur_ingest_session:ur_ingest_session_id</title>
<path fill="none" stroke="#000000" d="M352.9483,-2183.2584C442.998,-2159.3951 347.3269,-1798.5224 395,-1707 435.3781,-1629.4825 455.5966,-1577.5 543,-1577.5"/>
<polygon fill="#000000" stroke="#000000" points="352.923,-2183.2615 342.4427,-2180.0346 347.9615,-2183.8807 343,-2184.5 343,-2184.5 343,-2184.5 347.9615,-2183.8807 343.5573,-2188.9654 352.923,-2183.2615 352.923,-2183.2615"/>
</g>
<!-- uniform_resource -->
<g id="node4" class="node">
<title>uniform_resource</title>
<polygon fill="#efefef" stroke="transparent" points="901,-2364.5 901,-2399.5 1135,-2399.5 1135,-2364.5 901,-2364.5"/>
<polygon fill="none" stroke="#000000" points="901,-2364.5 901,-2399.5 1135,-2399.5 1135,-2364.5 901,-2364.5"/>
<text text-anchor="start" x="911.8271" y="-2377.3" font-family="Arial Bold" font-size="18.00" fill="#000000">uniform_resource</text>
<text text-anchor="start" x="1051.8419" y="-2377.3" font-family="Arial" font-size="14.00" fill="#000000">    </text>
<text text-anchor="start" x="1086.0467" y="-2377.3" font-family="Arial" font-size="14.00" fill="#666666">[table]</text>
<polygon fill="none" stroke="#000000" points="901,-2334.5 901,-2364.5 1135,-2364.5 1135,-2334.5 901,-2334.5"/>
<text text-anchor="start" x="908" y="-2345.9" font-family="Arial" font-size="14.00" fill="#000000">uniform_resource_id    </text>
<text text-anchor="start" x="1069.777" y="-2345.9" font-family="Arial" font-size="14.00" fill="#666666">[ULID]</text>
<polygon fill="none" stroke="#000000" points="901,-2304.5 901,-2334.5 1135,-2334.5 1135,-2304.5 901,-2304.5"/>
<text text-anchor="start" x="908" y="-2315.9" font-family="Arial" font-size="14.00" fill="#000000">device_id    </text>
<text text-anchor="start" x="1001.331" y="-2315.9" font-family="Arial" font-size="14.00" fill="#666666">[ULID]</text>
<polygon fill="none" stroke="#000000" points="901,-2274.5 901,-2304.5 1135,-2304.5 1135,-2274.5 901,-2274.5"/>
<text text-anchor="start" x="908" y="-2285.9" font-family="Arial" font-size="14.00" fill="#000000">ingest_session_id    </text>
<text text-anchor="start" x="1053.4586" y="-2285.9" font-family="Arial" font-size="14.00" fill="#666666">[ULID]</text>
<polygon fill="none" stroke="#000000" points="901,-2244.5 901,-2274.5 1135,-2274.5 1135,-2244.5 901,-2244.5"/>
<text text-anchor="start" x="908" y="-2255.9" font-family="Arial" font-size="14.00" fill="#000000">ingest_fs_path_id    </text>
<text text-anchor="start" x="1051.9158" y="-2255.9" font-family="Arial" font-size="14.00" fill="#666666">[ULID]</text>
<polygon fill="none" stroke="#000000" points="901,-2214.5 901,-2244.5 1135,-2244.5 1135,-2214.5 901,-2214.5"/>
<text text-anchor="start" x="908" y="-2225.9" font-family="Arial" font-size="14.00" fill="#000000">uri    </text>
<text text-anchor="start" x="957.7546" y="-2225.9" font-family="Arial" font-size="14.00" fill="#666666">[TEXT]</text>
<polygon fill="none" stroke="#000000" points="901,-2184.5 901,-2214.5 1135,-2214.5 1135,-2184.5 901,-2184.5"/>
<text text-anchor="start" x="908" y="-2195.9" font-family="Arial" font-size="14.00" fill="#000000">content_digest    </text>
<text text-anchor="start" x="1033.244" y="-2195.9" font-family="Arial" font-size="14.00" fill="#666666">[TEXT]</text>
<polygon fill="none" stroke="#000000" points="901,-2154.5 901,-2184.5 1135,-2184.5 1135,-2154.5 901,-2154.5"/>
<text text-anchor="start" x="908" y="-2165.9" font-family="Arial" font-size="14.00" fill="#000000">content    </text>
<text text-anchor="start" x="988.1164" y="-2165.9" font-family="Arial" font-size="14.00" fill="#666666">[BLOB]</text>
<polygon fill="none" stroke="#000000" points="901,-2124.5 901,-2154.5 1135,-2154.5 1135,-2124.5 901,-2124.5"/>
<text text-anchor="start" x="908" y="-2135.9" font-family="Arial" font-size="14.00" fill="#000000">nature    </text>
<text text-anchor="start" x="981.8864" y="-2135.9" font-family="Arial" font-size="14.00" fill="#666666">[TEXT]</text>
<polygon fill="none" stroke="#000000" points="901,-2094.5 901,-2124.5 1135,-2124.5 1135,-2094.5 901,-2094.5"/>
<text text-anchor="start" x="908" y="-2105.9" font-family="Arial" font-size="14.00" fill="#000000">size_bytes    </text>
<text text-anchor="start" x="1008.3324" y="-2105.9" font-family="Arial" font-size="14.00" fill="#666666">[INTEGER]</text>
<polygon fill="none" stroke="#000000" points="901,-2064.5 901,-2094.5 1135,-2094.5 1135,-2064.5 901,-2064.5"/>
<text text-anchor="start" x="908" y="-2075.9" font-family="Arial" font-size="14.00" fill="#000000">last_modified_at    </text>
<text text-anchor="start" x="1044.1178" y="-2075.9" font-family="Arial" font-size="14.00" fill="#666666">[INTEGER]</text>
<polygon fill="none" stroke="#000000" points="901,-2034.5 901,-2064.5 1135,-2064.5 1135,-2034.5 901,-2034.5"/>
<text text-anchor="start" x="907.9264" y="-2045.9" font-family="Arial" font-size="14.00" fill="#000000">content_fm_body_attrs    </text>
<text text-anchor="start" x="1084.514" y="-2045.9" font-family="Arial" font-size="14.00" fill="#666666">[TEXT]</text>
<polygon fill="none" stroke="#000000" points="901,-2004.5 901,-2034.5 1135,-2034.5 1135,-2004.5 901,-2004.5"/>
<text text-anchor="start" x="908" y="-2015.9" font-family="Arial" font-size="14.00" fill="#000000">frontmatter    </text>
<text text-anchor="start" x="1009.8794" y="-2015.9" font-family="Arial" font-size="14.00" fill="#666666">[TEXT]</text>
<polygon fill="none" stroke="#000000" points="901,-1974.5 901,-2004.5 1135,-2004.5 1135,-1974.5 901,-1974.5"/>
<text text-anchor="start" x="908" y="-1985.9" font-family="Arial" font-size="14.00" fill="#000000">elaboration    </text>
<text text-anchor="start" x="1011.4474" y="-1985.9" font-family="Arial" font-size="14.00" fill="#666666">[TEXT]</text>
<polygon fill="none" stroke="#000000" points="901,-1944.5 901,-1974.5 1135,-1974.5 1135,-1944.5 901,-1944.5"/>
<text text-anchor="start" x="908" y="-1955.9" font-family="Arial" font-size="14.00" fill="#000000">created_at    </text>
<text text-anchor="start" x="1008.3422" y="-1955.9" font-family="Arial" font-size="14.00" fill="#666666">[TIMESTAMP]</text>
<polygon fill="none" stroke="#000000" points="901,-1914.5 901,-1944.5 1135,-1944.5 1135,-1914.5 901,-1914.5"/>
<text text-anchor="start" x="908" y="-1925.9" font-family="Arial" font-size="14.00" fill="#000000">created_by    </text>
<text text-anchor="start" x="1011.4516" y="-1925.9" font-family="Arial" font-size="14.00" fill="#666666">[TEXT]</text>
<polygon fill="none" stroke="#000000" points="901,-1884.5 901,-1914.5 1135,-1914.5 1135,-1884.5 901,-1884.5"/>
<text text-anchor="start" x="908" y="-1895.9" font-family="Arial" font-size="14.00" fill="#000000">updated_at    </text>
<text text-anchor="start" x="1012.2468" y="-1895.9" font-family="Arial" font-size="14.00" fill="#666666">[TIMESTAMP]</text>
<polygon fill="none" stroke="#000000" points="901,-1854.5 901,-1884.5 1135,-1884.5 1135,-1854.5 901,-1854.5"/>
<text text-anchor="start" x="908" y="-1865.9" font-family="Arial" font-size="14.00" fill="#000000">updated_by    </text>
<text text-anchor="start" x="1015.3562" y="-1865.9" font-family="Arial" font-size="14.00" fill="#666666">[TEXT]</text>
<polygon fill="none" stroke="#000000" points="901,-1824.5 901,-1854.5 1135,-1854.5 1135,-1824.5 901,-1824.5"/>
<text text-anchor="start" x="908" y="-1835.9" font-family="Arial" font-size="14.00" fill="#000000">deleted_at    </text>
<text text-anchor="start" x="1007.5708" y="-1835.9" font-family="Arial" font-size="14.00" fill="#666666">[TIMESTAMP]</text>
<polygon fill="none" stroke="#000000" points="901,-1794.5 901,-1824.5 1135,-1824.5 1135,-1794.5 901,-1794.5"/>
<text text-anchor="start" x="908" y="-1805.9" font-family="Arial" font-size="14.00" fill="#000000">deleted_by    </text>
<text text-anchor="start" x="1010.6802" y="-1805.9" font-family="Arial" font-size="14.00" fill="#666666">[TEXT]</text>
<polygon fill="none" stroke="#000000" points="901,-1764.5 901,-1794.5 1135,-1794.5 1135,-1764.5 901,-1764.5"/>
<text text-anchor="start" x="908" y="-1775.9" font-family="Arial" font-size="14.00" fill="#000000">activity_log    </text>
<text text-anchor="start" x="1011.4362" y="-1775.9" font-family="Arial" font-size="14.00" fill="#666666">[TEXT]</text>
</g>
<!-- uniform_resource&#45;&gt;ur_ingest_session -->
<g id="edge3" class="edge">
<title>uniform_resource:ingest_session_id&#45;&gt;ur_ingest_session:ur_ingest_session_id</title>
<path fill="none" stroke="#000000" d="M891.4834,-2285.3089C838.9505,-2235.9767 864.1444,-1766.6608 849,-1707 833.5718,-1646.2212 855.7064,-1577.5 793,-1577.5"/>
<polygon fill="#000000" stroke="#000000" points="891.8482,-2285.4695 899.1863,-2293.6183 896.4241,-2287.4848 901,-2289.5 901,-2289.5 901,-2289.5 896.4241,-2287.4848 902.8137,-2285.3817 891.8482,-2285.4695 891.8482,-2285.4695"/>
</g>
<!-- uniform_resource&#45;&gt;device -->
<g id="edge7" class="edge">
<title>uniform_resource:device_id&#45;&gt;device:device_id</title>
<path fill="none" stroke="#000000" d="M891.5652,-2315.215C841.2965,-2264.7754 899.749,-1784.8755 901,-1722 912.2748,-1155.3302 1511.7819,-447.5 945,-447.5"/>
<polygon fill="#000000" stroke="#000000" points="891.895,-2315.3648 899.1391,-2323.5972 896.4475,-2317.4324 901,-2319.5 901,-2319.5 901,-2319.5 896.4475,-2317.4324 902.8609,-2315.4028 891.895,-2315.3648 891.895,-2315.3648"/>
</g>
<!-- ur_ingest_session_fs_path_entry -->
<g id="node5" class="node">
<title>ur_ingest_session_fs_path_entry</title>
<polygon fill="#efefef" stroke="transparent" points="447,-2379.5 447,-2414.5 797,-2414.5 797,-2379.5 447,-2379.5"/>
<polygon fill="none" stroke="#000000" points="447,-2379.5 447,-2414.5 797,-2414.5 797,-2379.5 447,-2379.5"/>
<text text-anchor="start" x="453.791" y="-2392.3" font-family="Arial Bold" font-size="18.00" fill="#000000">ur_ingest_session_fs_path_entry</text>
<text text-anchor="start" x="717.878" y="-2392.3" font-family="Arial" font-size="14.00" fill="#000000">    </text>
<text text-anchor="start" x="752.0828" y="-2392.3" font-family="Arial" font-size="14.00" fill="#666666">[table]</text>
<polygon fill="none" stroke="#000000" points="447,-2349.5 447,-2379.5 797,-2379.5 797,-2349.5 447,-2349.5"/>
<text text-anchor="start" x="454" y="-2360.9" font-family="Arial" font-size="14.00" fill="#000000">ur_ingest_session_fs_path_entry_id    </text>
<text text-anchor="start" x="712.2776" y="-2360.9" font-family="Arial" font-size="14.00" fill="#666666">[ULID]</text>
<polygon fill="none" stroke="#000000" points="447,-2319.5 447,-2349.5 797,-2349.5 797,-2319.5 447,-2319.5"/>
<text text-anchor="start" x="454" y="-2330.9" font-family="Arial" font-size="14.00" fill="#000000">ingest_session_id    </text>
<text text-anchor="start" x="599.4586" y="-2330.9" font-family="Arial" font-size="14.00" fill="#666666">[ULID]</text>
<polygon fill="none" stroke="#000000" points="447,-2289.5 447,-2319.5 797,-2319.5 797,-2289.5 447,-2289.5"/>
<text text-anchor="start" x="454" y="-2300.9" font-family="Arial" font-size="14.00" fill="#000000">ingest_fs_path_id    </text>
<text text-anchor="start" x="597.9158" y="-2300.9" font-family="Arial" font-size="14.00" fill="#666666">[ULID]</text>
<polygon fill="none" stroke="#000000" points="447,-2259.5 447,-2289.5 797,-2289.5 797,-2259.5 447,-2259.5"/>
<text text-anchor="start" x="454" y="-2270.9" font-family="Arial" font-size="14.00" fill="#000000">uniform_resource_id    </text>
<text text-anchor="start" x="615.777" y="-2270.9" font-family="Arial" font-size="14.00" fill="#666666">[ULID]</text>
<polygon fill="none" stroke="#000000" points="447,-2229.5 447,-2259.5 797,-2259.5 797,-2229.5 447,-2229.5"/>
<text text-anchor="start" x="454" y="-2240.9" font-family="Arial" font-size="14.00" fill="#000000">file_path_abs    </text>
<text text-anchor="start" x="571.46" y="-2240.9" font-family="Arial" font-size="14.00" fill="#666666">[TEXT]</text>
<polygon fill="none" stroke="#000000" points="447,-2199.5 447,-2229.5 797,-2229.5 797,-2199.5 447,-2199.5"/>
<text text-anchor="start" x="454" y="-2210.9" font-family="Arial" font-size="14.00" fill="#000000">file_path_rel_parent    </text>
<text text-anchor="start" x="611.9088" y="-2210.9" font-family="Arial" font-size="14.00" fill="#666666">[TEXT]</text>
<polygon fill="none" stroke="#000000" points="447,-2169.5 447,-2199.5 797,-2199.5 797,-2169.5 447,-2169.5"/>
<text text-anchor="start" x="454" y="-2180.9" font-family="Arial" font-size="14.00" fill="#000000">file_path_rel    </text>
<text text-anchor="start" x="564.4446" y="-2180.9" font-family="Arial" font-size="14.00" fill="#666666">[TEXT]</text>
<polygon fill="none" stroke="#000000" points="447,-2139.5 447,-2169.5 797,-2169.5 797,-2139.5 447,-2139.5"/>
<text text-anchor="start" x="454" y="-2150.9" font-family="Arial" font-size="14.00" fill="#000000">file_basename    </text>
<text text-anchor="start" x="579.23" y="-2150.9" font-family="Arial" font-size="14.00" fill="#666666">[TEXT]</text>
<polygon fill="none" stroke="#000000" points="447,-2109.5 447,-2139.5 797,-2139.5 797,-2109.5 447,-2109.5"/>
<text text-anchor="start" x="454" y="-2120.9" font-family="Arial" font-size="14.00" fill="#000000">file_extn    </text>
<text text-anchor="start" x="540.3296" y="-2120.9" font-family="Arial" font-size="14.00" fill="#666666">[TEXT]</text>
<polygon fill="none" stroke="#000000" points="447,-2079.5 447,-2109.5 797,-2109.5 797,-2079.5 447,-2079.5"/>
<text text-anchor="start" x="454" y="-2090.9" font-family="Arial" font-size="14.00" fill="#000000">captured_executable    </text>
<text text-anchor="start" x="618.1444" y="-2090.9" font-family="Arial" font-size="14.00" fill="#666666">[TEXT]</text>
<polygon fill="none" stroke="#000000" points="447,-2049.5 447,-2079.5 797,-2079.5 797,-2049.5 447,-2049.5"/>
<text text-anchor="start" x="454" y="-2060.9" font-family="Arial" font-size="14.00" fill="#000000">ur_status    </text>
<text text-anchor="start" x="545.777" y="-2060.9" font-family="Arial" font-size="14.00" fill="#666666">[TEXT]</text>
<polygon fill="none" stroke="#000000" points="447,-2019.5 447,-2049.5 797,-2049.5 797,-2019.5 447,-2019.5"/>
<text text-anchor="start" x="454" y="-2030.9" font-family="Arial" font-size="14.00" fill="#000000">ur_diagnostics    </text>
<text text-anchor="start" x="578.4474" y="-2030.9" font-family="Arial" font-size="14.00" fill="#666666">[TEXT]</text>
<polygon fill="none" stroke="#000000" points="447,-1989.5 447,-2019.5 797,-2019.5 797,-1989.5 447,-1989.5"/>
<text text-anchor="start" x="454" y="-2000.9" font-family="Arial" font-size="14.00" fill="#000000">ur_transformations    </text>
<text text-anchor="start" x="604.8864" y="-2000.9" font-family="Arial" font-size="14.00" fill="#666666">[TEXT]</text>
<polygon fill="none" stroke="#000000" points="447,-1959.5 447,-1989.5 797,-1989.5 797,-1959.5 447,-1959.5"/>
<text text-anchor="start" x="454" y="-1970.9" font-family="Arial" font-size="14.00" fill="#000000">elaboration    </text>
<text text-anchor="start" x="557.4474" y="-1970.9" font-family="Arial" font-size="14.00" fill="#666666">[TEXT]</text>
<polygon fill="none" stroke="#000000" points="447,-1929.5 447,-1959.5 797,-1959.5 797,-1929.5 447,-1929.5"/>
<text text-anchor="start" x="454" y="-1940.9" font-family="Arial" font-size="14.00" fill="#000000">created_at    </text>
<text text-anchor="start" x="554.3422" y="-1940.9" font-family="Arial" font-size="14.00" fill="#666666">[TIMESTAMP]</text>
<polygon fill="none" stroke="#000000" points="447,-1899.5 447,-1929.5 797,-1929.5 797,-1899.5 447,-1899.5"/>
<text text-anchor="start" x="454" y="-1910.9" font-family="Arial" font-size="14.00" fill="#000000">created_by    </text>
<text text-anchor="start" x="557.4516" y="-1910.9" font-family="Arial" font-size="14.00" fill="#666666">[TEXT]</text>
<polygon fill="none" stroke="#000000" points="447,-1869.5 447,-1899.5 797,-1899.5 797,-1869.5 447,-1869.5"/>
<text text-anchor="start" x="454" y="-1880.9" font-family="Arial" font-size="14.00" fill="#000000">updated_at    </text>
<text text-anchor="start" x="558.2468" y="-1880.9" font-family="Arial" font-size="14.00" fill="#666666">[TIMESTAMP]</text>
<polygon fill="none" stroke="#000000" points="447,-1839.5 447,-1869.5 797,-1869.5 797,-1839.5 447,-1839.5"/>
<text text-anchor="start" x="454" y="-1850.9" font-family="Arial" font-size="14.00" fill="#000000">updated_by    </text>
<text text-anchor="start" x="561.3562" y="-1850.9" font-family="Arial" font-size="14.00" fill="#666666">[TEXT]</text>
<polygon fill="none" stroke="#000000" points="447,-1809.5 447,-1839.5 797,-1839.5 797,-1809.5 447,-1809.5"/>
<text text-anchor="start" x="454" y="-1820.9" font-family="Arial" font-size="14.00" fill="#000000">deleted_at    </text>
<text text-anchor="start" x="553.5708" y="-1820.9" font-family="Arial" font-size="14.00" fill="#666666">[TIMESTAMP]</text>
<polygon fill="none" stroke="#000000" points="447,-1779.5 447,-1809.5 797,-1809.5 797,-1779.5 447,-1779.5"/>
<text text-anchor="start" x="454" y="-1790.9" font-family="Arial" font-size="14.00" fill="#000000">deleted_by    </text>
<text text-anchor="start" x="556.6802" y="-1790.9" font-family="Arial" font-size="14.00" fill="#666666">[TEXT]</text>
<polygon fill="none" stroke="#000000" points="447,-1749.5 447,-1779.5 797,-1779.5 797,-1749.5 447,-1749.5"/>
<text text-anchor="start" x="454" y="-1760.9" font-family="Arial" font-size="14.00" fill="#000000">activity_log    </text>
<text text-anchor="start" x="557.4362" y="-1760.9" font-family="Arial" font-size="14.00" fill="#666666">[TEXT]</text>
</g>
<!-- ur_ingest_session_fs_path_entry&#45;&gt;ur_ingest_session -->
<g id="edge4" class="edge">
<title>ur_ingest_session_fs_path_entry:ingest_session_id&#45;&gt;ur_ingest_session:ur_ingest_session_id</title>
<path fill="none" stroke="#000000" d="M806.5512,-2330.516C864.3257,-2279.607 840.4792,-1757.0761 797,-1707 722.2483,-1620.9065 617.7517,-1757.0935 543,-1671 515.7554,-1639.6217 501.4444,-1577.5 543,-1577.5"/>
<polygon fill="#000000" stroke="#000000" points="806.2293,-2330.6502 795.2676,-2330.3468 801.6146,-2332.5751 797,-2334.5 797,-2334.5 797,-2334.5 801.6146,-2332.5751 798.7324,-2338.6532 806.2293,-2330.6502 806.2293,-2330.6502"/>
</g>
</g>
</svg>
