<?xml version="1.0" encoding="UTF-8" standalone="no"?>
<!DOCTYPE svg PUBLIC "-//W3C//DTD SVG 1.1//EN"
 "http://www.w3.org/Graphics/SVG/1.1/DTD/svg11.dtd">
<!-- Generated by graphviz version 2.40.1 (20161225.0304)
 -->
<!-- Title: behavior Pages: 1 -->
<svg width="1606pt" height="2466pt"
 viewBox="0.00 0.00 1606.00 2466.00" xmlns="http://www.w3.org/2000/svg" xmlns:xlink="http://www.w3.org/1999/xlink">
<g id="graph0" class="graph" transform="scale(1 1) rotate(0) translate(4 2462)">
<title>behavior</title>
<polygon fill="#ffffff" stroke="transparent" points="-4,4 -4,-2462 1602,-2462 1602,4 -4,4"/>
<!-- behavior -->
<g id="node1" class="node">
<title>behavior</title>
<polygon fill="#efefef" stroke="transparent" points="939.5,-1012.5 939.5,-1047.5 1173.5,-1047.5 1173.5,-1012.5 939.5,-1012.5"/>
<polygon fill="none" stroke="#000000" points="939.5,-1012.5 939.5,-1047.5 1173.5,-1047.5 1173.5,-1012.5 939.5,-1012.5"/>
<text text-anchor="start" x="985.8258" y="-1025.3" font-family="Arial Bold" font-size="18.00" fill="#000000">behavior</text>
<text text-anchor="start" x="1054.8432" y="-1025.3" font-family="Arial" font-size="14.00" fill="#000000">    </text>
<text text-anchor="start" x="1089.048" y="-1025.3" font-family="Arial" font-size="14.00" fill="#666666">[table]</text>
<polygon fill="none" stroke="#000000" points="939.5,-982.5 939.5,-1012.5 1173.5,-1012.5 1173.5,-982.5 939.5,-982.5"/>
<text text-anchor="start" x="946.5" y="-993.9" font-family="Arial" font-size="14.00" fill="#000000">behavior_id </text>
<text text-anchor="start" x="1022.7426" y="-993.9" font-family="Arial" font-size="14.00" fill="#666666">[VARCHAR]</text>
<polygon fill="none" stroke="#000000" points="939.5,-952.5 939.5,-982.5 1173.5,-982.5 1173.5,-952.5 939.5,-952.5"/>
<text text-anchor="start" x="946.5" y="-963.9" font-family="Arial" font-size="14.00" fill="#000000">device_id </text>
<text text-anchor="start" x="1009.5168" y="-963.9" font-family="Arial" font-size="14.00" fill="#666666">[VARCHAR]</text>
<polygon fill="none" stroke="#000000" points="939.5,-922.5 939.5,-952.5 1173.5,-952.5 1173.5,-922.5 939.5,-922.5"/>
<text text-anchor="start" x="946.5" y="-933.9" font-family="Arial" font-size="14.00" fill="#000000">behavior_name </text>
<text text-anchor="start" x="1046.8618" y="-933.9" font-family="Arial" font-size="14.00" fill="#666666">[TEXT]</text>
<polygon fill="none" stroke="#000000" points="939.5,-892.5 939.5,-922.5 1173.5,-922.5 1173.5,-892.5 939.5,-892.5"/>
<text text-anchor="start" x="946.5" y="-903.9" font-family="Arial" font-size="14.00" fill="#000000">behavior_conf_json </text>
<text text-anchor="start" x="1071.7636" y="-903.9" font-family="Arial" font-size="14.00" fill="#666666">[TEXT]</text>
<polygon fill="none" stroke="#000000" points="939.5,-862.5 939.5,-892.5 1173.5,-892.5 1173.5,-862.5 939.5,-862.5"/>
<text text-anchor="start" x="946.4278" y="-873.9" font-family="Arial" font-size="14.00" fill="#000000">assurance_schema_id </text>
<text text-anchor="start" x="1090.3548" y="-873.9" font-family="Arial" font-size="14.00" fill="#666666">[VARCHAR]</text>
<polygon fill="none" stroke="#000000" points="939.5,-832.5 939.5,-862.5 1173.5,-862.5 1173.5,-832.5 939.5,-832.5"/>
<text text-anchor="start" x="946.5" y="-843.9" font-family="Arial" font-size="14.00" fill="#000000">governance </text>
<text text-anchor="start" x="1023.5294" y="-843.9" font-family="Arial" font-size="14.00" fill="#666666">[TEXT]</text>
<polygon fill="none" stroke="#000000" points="939.5,-802.5 939.5,-832.5 1173.5,-832.5 1173.5,-802.5 939.5,-802.5"/>
<text text-anchor="start" x="946.5" y="-813.9" font-family="Arial" font-size="14.00" fill="#000000">created_at </text>
<text text-anchor="start" x="1016.528" y="-813.9" font-family="Arial" font-size="14.00" fill="#666666">[TIMESTAMP]</text>
<polygon fill="none" stroke="#000000" points="939.5,-772.5 939.5,-802.5 1173.5,-802.5 1173.5,-772.5 939.5,-772.5"/>
<text text-anchor="start" x="946.5" y="-783.9" font-family="Arial" font-size="14.00" fill="#000000">created_by </text>
<text text-anchor="start" x="1019.6374" y="-783.9" font-family="Arial" font-size="14.00" fill="#666666">[TEXT]</text>
<polygon fill="none" stroke="#000000" points="939.5,-742.5 939.5,-772.5 1173.5,-772.5 1173.5,-742.5 939.5,-742.5"/>
<text text-anchor="start" x="946.5" y="-753.9" font-family="Arial" font-size="14.00" fill="#000000">updated_at </text>
<text text-anchor="start" x="1020.4326" y="-753.9" font-family="Arial" font-size="14.00" fill="#666666">[TIMESTAMP]</text>
<polygon fill="none" stroke="#000000" points="939.5,-712.5 939.5,-742.5 1173.5,-742.5 1173.5,-712.5 939.5,-712.5"/>
<text text-anchor="start" x="946.5" y="-723.9" font-family="Arial" font-size="14.00" fill="#000000">updated_by </text>
<text text-anchor="start" x="1023.542" y="-723.9" font-family="Arial" font-size="14.00" fill="#666666">[TEXT]</text>
<polygon fill="none" stroke="#000000" points="939.5,-682.5 939.5,-712.5 1173.5,-712.5 1173.5,-682.5 939.5,-682.5"/>
<text text-anchor="start" x="946.5" y="-693.9" font-family="Arial" font-size="14.00" fill="#000000">deleted_at </text>
<text text-anchor="start" x="1015.7566" y="-693.9" font-family="Arial" font-size="14.00" fill="#666666">[TIMESTAMP]</text>
<polygon fill="none" stroke="#000000" points="939.5,-652.5 939.5,-682.5 1173.5,-682.5 1173.5,-652.5 939.5,-652.5"/>
<text text-anchor="start" x="946.5" y="-663.9" font-family="Arial" font-size="14.00" fill="#000000">deleted_by </text>
<text text-anchor="start" x="1018.866" y="-663.9" font-family="Arial" font-size="14.00" fill="#666666">[TEXT]</text>
<polygon fill="none" stroke="#000000" points="939.5,-622.5 939.5,-652.5 1173.5,-652.5 1173.5,-622.5 939.5,-622.5"/>
<text text-anchor="start" x="946.5" y="-633.9" font-family="Arial" font-size="14.00" fill="#000000">activity_log </text>
<text text-anchor="start" x="1019.622" y="-633.9" font-family="Arial" font-size="14.00" fill="#666666">[TEXT]</text>
<polygon fill="none" stroke="#000000" stroke-width="3" points="938,-621.5 938,-1049.5 1175,-1049.5 1175,-621.5 938,-621.5"/>
</g>
<!-- device -->
<g id="node7" class="node">
<title>device</title>
<polygon fill="#efefef" stroke="transparent" points="1143.5,-462.5 1143.5,-497.5 1350.5,-497.5 1350.5,-462.5 1143.5,-462.5"/>
<polygon fill="none" stroke="#000000" points="1143.5,-462.5 1143.5,-497.5 1350.5,-497.5 1350.5,-462.5 1143.5,-462.5"/>
<text text-anchor="start" x="1184.8281" y="-475.3" font-family="Arial Bold" font-size="18.00" fill="#000000">device</text>
<text text-anchor="start" x="1236.8409" y="-475.3" font-family="Arial" font-size="14.00" fill="#000000">    </text>
<text text-anchor="start" x="1271.0457" y="-475.3" font-family="Arial" font-size="14.00" fill="#666666">[table]</text>
<polygon fill="none" stroke="#000000" points="1143.5,-432.5 1143.5,-462.5 1350.5,-462.5 1350.5,-432.5 1143.5,-432.5"/>
<text text-anchor="start" x="1150.5" y="-443.9" font-family="Arial" font-size="14.00" fill="#000000">device_id    </text>
<text text-anchor="start" x="1243.831" y="-443.9" font-family="Arial" font-size="14.00" fill="#666666">[VARCHAR]</text>
<polygon fill="none" stroke="#000000" points="1143.5,-402.5 1143.5,-432.5 1350.5,-432.5 1350.5,-402.5 1143.5,-402.5"/>
<text text-anchor="start" x="1150.5" y="-413.9" font-family="Arial" font-size="14.00" fill="#000000">name    </text>
<text text-anchor="start" x="1219.7132" y="-413.9" font-family="Arial" font-size="14.00" fill="#666666">[TEXT]</text>
<polygon fill="none" stroke="#000000" points="1143.5,-372.5 1143.5,-402.5 1350.5,-402.5 1350.5,-372.5 1143.5,-372.5"/>
<text text-anchor="start" x="1150.5" y="-383.9" font-family="Arial" font-size="14.00" fill="#000000">state    </text>
<text text-anchor="start" x="1215.0512" y="-383.9" font-family="Arial" font-size="14.00" fill="#666666">[TEXT]</text>
<polygon fill="none" stroke="#000000" points="1143.5,-342.5 1143.5,-372.5 1350.5,-372.5 1350.5,-342.5 1143.5,-342.5"/>
<text text-anchor="start" x="1150.5" y="-353.9" font-family="Arial" font-size="14.00" fill="#000000">boundary    </text>
<text text-anchor="start" x="1243.061" y="-353.9" font-family="Arial" font-size="14.00" fill="#666666">[TEXT]</text>
<polygon fill="none" stroke="#000000" points="1143.5,-312.5 1143.5,-342.5 1350.5,-342.5 1350.5,-312.5 1143.5,-312.5"/>
<text text-anchor="start" x="1150.5" y="-323.9" font-family="Arial" font-size="14.00" fill="#000000">segmentation    </text>
<text text-anchor="start" x="1268.7314" y="-323.9" font-family="Arial" font-size="14.00" fill="#666666">[TEXT]</text>
<polygon fill="none" stroke="#000000" points="1143.5,-282.5 1143.5,-312.5 1350.5,-312.5 1350.5,-282.5 1143.5,-282.5"/>
<text text-anchor="start" x="1150.5" y="-293.9" font-family="Arial" font-size="14.00" fill="#000000">state_sysinfo    </text>
<text text-anchor="start" x="1266.3962" y="-293.9" font-family="Arial" font-size="14.00" fill="#666666">[TEXT]</text>
<polygon fill="none" stroke="#000000" points="1143.5,-252.5 1143.5,-282.5 1350.5,-282.5 1350.5,-252.5 1143.5,-252.5"/>
<text text-anchor="start" x="1150.5" y="-263.9" font-family="Arial" font-size="14.00" fill="#000000">elaboration    </text>
<text text-anchor="start" x="1253.9474" y="-263.9" font-family="Arial" font-size="14.00" fill="#666666">[TEXT]</text>
<polygon fill="none" stroke="#000000" points="1143.5,-222.5 1143.5,-252.5 1350.5,-252.5 1350.5,-222.5 1143.5,-222.5"/>
<text text-anchor="start" x="1150.5" y="-233.9" font-family="Arial" font-size="14.00" fill="#000000">created_at    </text>
<text text-anchor="start" x="1250.8422" y="-233.9" font-family="Arial" font-size="14.00" fill="#666666">[TIMESTAMP]</text>
<polygon fill="none" stroke="#000000" points="1143.5,-192.5 1143.5,-222.5 1350.5,-222.5 1350.5,-192.5 1143.5,-192.5"/>
<text text-anchor="start" x="1150.5" y="-203.9" font-family="Arial" font-size="14.00" fill="#000000">created_by    </text>
<text text-anchor="start" x="1253.9516" y="-203.9" font-family="Arial" font-size="14.00" fill="#666666">[TEXT]</text>
<polygon fill="none" stroke="#000000" points="1143.5,-162.5 1143.5,-192.5 1350.5,-192.5 1350.5,-162.5 1143.5,-162.5"/>
<text text-anchor="start" x="1150.1543" y="-173.9" font-family="Arial" font-size="14.00" fill="#000000">updated_at    </text>
<text text-anchor="start" x="1254.4011" y="-173.9" font-family="Arial" font-size="14.00" fill="#666666">[TIMESTAMP]</text>
<polygon fill="none" stroke="#000000" points="1143.5,-132.5 1143.5,-162.5 1350.5,-162.5 1350.5,-132.5 1143.5,-132.5"/>
<text text-anchor="start" x="1150.5" y="-143.9" font-family="Arial" font-size="14.00" fill="#000000">updated_by    </text>
<text text-anchor="start" x="1257.8562" y="-143.9" font-family="Arial" font-size="14.00" fill="#666666">[TEXT]</text>
<polygon fill="none" stroke="#000000" points="1143.5,-102.5 1143.5,-132.5 1350.5,-132.5 1350.5,-102.5 1143.5,-102.5"/>
<text text-anchor="start" x="1150.5" y="-113.9" font-family="Arial" font-size="14.00" fill="#000000">deleted_at    </text>
<text text-anchor="start" x="1250.0708" y="-113.9" font-family="Arial" font-size="14.00" fill="#666666">[TIMESTAMP]</text>
<polygon fill="none" stroke="#000000" points="1143.5,-72.5 1143.5,-102.5 1350.5,-102.5 1350.5,-72.5 1143.5,-72.5"/>
<text text-anchor="start" x="1150.5" y="-83.9" font-family="Arial" font-size="14.00" fill="#000000">deleted_by    </text>
<text text-anchor="start" x="1253.1802" y="-83.9" font-family="Arial" font-size="14.00" fill="#666666">[TEXT]</text>
<polygon fill="none" stroke="#000000" points="1143.5,-42.5 1143.5,-72.5 1350.5,-72.5 1350.5,-42.5 1143.5,-42.5"/>
<text text-anchor="start" x="1150.5" y="-53.9" font-family="Arial" font-size="14.00" fill="#000000">activity_log    </text>
<text text-anchor="start" x="1253.9362" y="-53.9" font-family="Arial" font-size="14.00" fill="#666666">[TEXT]</text>
</g>
<!-- behavior&#45;&gt;device -->
<g id="edge7" class="edge">
<title>behavior:device_id&#45;&gt;device:device_id</title>
<path fill="none" stroke="#000000" d="M1183.4628,-965.978C1255.6292,-942.5425 1201.8297,-655.248 1173.5,-577 1166.4098,-557.4167 1150.5902,-560.5833 1143.5,-541 1129.3534,-501.9265 1101.9444,-447.5 1143.5,-447.5"/>
<polygon fill="#000000" stroke="#000000" points="1183.3853,-965.9897 1172.8204,-963.0516 1178.4427,-966.7449 1173.5,-967.5 1173.5,-967.5 1173.5,-967.5 1178.4427,-966.7449 1174.1796,-971.9484 1183.3853,-965.9897 1183.3853,-965.9897"/>
</g>
<!-- ur_ingest_session -->
<g id="node2" class="node">
<title>ur_ingest_session</title>
<polygon fill="#efefef" stroke="transparent" points="928.5,-1592.5 928.5,-1627.5 1183.5,-1627.5 1183.5,-1592.5 928.5,-1592.5"/>
<polygon fill="none" stroke="#000000" points="928.5,-1592.5 928.5,-1627.5 1183.5,-1627.5 1183.5,-1592.5 928.5,-1592.5"/>
<text text-anchor="start" x="947.3152" y="-1605.3" font-family="Arial Bold" font-size="18.00" fill="#000000">ur_ingest_session</text>
<text text-anchor="start" x="1092.3538" y="-1605.3" font-family="Arial" font-size="14.00" fill="#000000">    </text>
<text text-anchor="start" x="1126.5586" y="-1605.3" font-family="Arial" font-size="14.00" fill="#666666">[table]</text>
<polygon fill="none" stroke="#000000" points="928.5,-1562.5 928.5,-1592.5 1183.5,-1592.5 1183.5,-1562.5 928.5,-1562.5"/>
<text text-anchor="start" x="935.0491" y="-1573.9" font-family="Arial" font-size="14.00" fill="#000000">ur_ingest_session_id    </text>
<text text-anchor="start" x="1100.7335" y="-1573.9" font-family="Arial" font-size="14.00" fill="#666666">[VARCHAR]</text>
<polygon fill="none" stroke="#000000" points="928.5,-1532.5 928.5,-1562.5 1183.5,-1562.5 1183.5,-1532.5 928.5,-1532.5"/>
<text text-anchor="start" x="935.5" y="-1543.9" font-family="Arial" font-size="14.00" fill="#000000">device_id    </text>
<text text-anchor="start" x="1028.831" y="-1543.9" font-family="Arial" font-size="14.00" fill="#666666">[VARCHAR]</text>
<polygon fill="none" stroke="#000000" points="928.5,-1502.5 928.5,-1532.5 1183.5,-1532.5 1183.5,-1502.5 928.5,-1502.5"/>
<text text-anchor="start" x="935.5" y="-1513.9" font-family="Arial" font-size="14.00" fill="#000000">behavior_id    </text>
<text text-anchor="start" x="1042.0568" y="-1513.9" font-family="Arial" font-size="14.00" fill="#666666">[VARCHAR]</text>
<polygon fill="none" stroke="#000000" points="928.5,-1472.5 928.5,-1502.5 1183.5,-1502.5 1183.5,-1472.5 928.5,-1472.5"/>
<text text-anchor="start" x="935.5" y="-1483.9" font-family="Arial" font-size="14.00" fill="#000000">behavior_json    </text>
<text text-anchor="start" x="1056.8394" y="-1483.9" font-family="Arial" font-size="14.00" fill="#666666">[TEXT]</text>
<polygon fill="none" stroke="#000000" points="928.5,-1442.5 928.5,-1472.5 1183.5,-1472.5 1183.5,-1442.5 928.5,-1442.5"/>
<text text-anchor="start" x="935.5" y="-1453.9" font-family="Arial" font-size="14.00" fill="#000000">ingest_started_at    </text>
<text text-anchor="start" x="1077.0778" y="-1453.9" font-family="Arial" font-size="14.00" fill="#666666">[TIMESTAMP]</text>
<polygon fill="none" stroke="#000000" points="928.5,-1412.5 928.5,-1442.5 1183.5,-1442.5 1183.5,-1412.5 928.5,-1412.5"/>
<text text-anchor="start" x="935.5" y="-1423.9" font-family="Arial" font-size="14.00" fill="#000000">ingest_finished_at    </text>
<text text-anchor="start" x="1082.5224" y="-1423.9" font-family="Arial" font-size="14.00" fill="#666666">[TIMESTAMP]</text>
<polygon fill="none" stroke="#000000" points="928.5,-1382.5 928.5,-1412.5 1183.5,-1412.5 1183.5,-1382.5 928.5,-1382.5"/>
<text text-anchor="start" x="935.5" y="-1393.9" font-family="Arial" font-size="14.00" fill="#000000">elaboration    </text>
<text text-anchor="start" x="1038.9474" y="-1393.9" font-family="Arial" font-size="14.00" fill="#666666">[TEXT]</text>
<polygon fill="none" stroke="#000000" points="928.5,-1352.5 928.5,-1382.5 1183.5,-1382.5 1183.5,-1352.5 928.5,-1352.5"/>
<text text-anchor="start" x="935.5" y="-1363.9" font-family="Arial" font-size="14.00" fill="#000000">created_at    </text>
<text text-anchor="start" x="1035.8422" y="-1363.9" font-family="Arial" font-size="14.00" fill="#666666">[TIMESTAMP]</text>
<polygon fill="none" stroke="#000000" points="928.5,-1322.5 928.5,-1352.5 1183.5,-1352.5 1183.5,-1322.5 928.5,-1322.5"/>
<text text-anchor="start" x="935.5" y="-1333.9" font-family="Arial" font-size="14.00" fill="#000000">created_by    </text>
<text text-anchor="start" x="1038.9516" y="-1333.9" font-family="Arial" font-size="14.00" fill="#666666">[TEXT]</text>
<polygon fill="none" stroke="#000000" points="928.5,-1292.5 928.5,-1322.5 1183.5,-1322.5 1183.5,-1292.5 928.5,-1292.5"/>
<text text-anchor="start" x="935.5" y="-1303.9" font-family="Arial" font-size="14.00" fill="#000000">updated_at    </text>
<text text-anchor="start" x="1039.7468" y="-1303.9" font-family="Arial" font-size="14.00" fill="#666666">[TIMESTAMP]</text>
<polygon fill="none" stroke="#000000" points="928.5,-1262.5 928.5,-1292.5 1183.5,-1292.5 1183.5,-1262.5 928.5,-1262.5"/>
<text text-anchor="start" x="935.5" y="-1273.9" font-family="Arial" font-size="14.00" fill="#000000">updated_by    </text>
<text text-anchor="start" x="1042.8562" y="-1273.9" font-family="Arial" font-size="14.00" fill="#666666">[TEXT]</text>
<polygon fill="none" stroke="#000000" points="928.5,-1232.5 928.5,-1262.5 1183.5,-1262.5 1183.5,-1232.5 928.5,-1232.5"/>
<text text-anchor="start" x="935.5" y="-1243.9" font-family="Arial" font-size="14.00" fill="#000000">deleted_at    </text>
<text text-anchor="start" x="1035.0708" y="-1243.9" font-family="Arial" font-size="14.00" fill="#666666">[TIMESTAMP]</text>
<polygon fill="none" stroke="#000000" points="928.5,-1202.5 928.5,-1232.5 1183.5,-1232.5 1183.5,-1202.5 928.5,-1202.5"/>
<text text-anchor="start" x="935.5" y="-1213.9" font-family="Arial" font-size="14.00" fill="#000000">deleted_by    </text>
<text text-anchor="start" x="1038.1802" y="-1213.9" font-family="Arial" font-size="14.00" fill="#666666">[TEXT]</text>
<polygon fill="none" stroke="#000000" points="928.5,-1172.5 928.5,-1202.5 1183.5,-1202.5 1183.5,-1172.5 928.5,-1172.5"/>
<text text-anchor="start" x="935.5" y="-1183.9" font-family="Arial" font-size="14.00" fill="#000000">activity_log    </text>
<text text-anchor="start" x="1038.9362" y="-1183.9" font-family="Arial" font-size="14.00" fill="#666666">[TEXT]</text>
</g>
<!-- ur_ingest_session&#45;&gt;behavior -->
<g id="edge1" class="edge">
<title>ur_ingest_session:behavior_id&#45;&gt;behavior:behavior_id</title>
<path fill="none" stroke="#000000" d="M1193.8047,-1517.1789C1353.2522,-1507.0067 1293.7336,-1257.6909 1183.5,-1130 1111.8679,-1047.0238 1011.1321,-1176.9762 939.5,-1094 911.4735,-1061.5351 896.6111,-997.5 939.5,-997.5"/>
<polygon fill="#000000" stroke="#000000" points="1193.4951,-1517.1884 1183.3598,-1513.0022 1188.4976,-1517.3442 1183.5,-1517.5 1183.5,-1517.5 1183.5,-1517.5 1188.4976,-1517.3442 1183.6402,-1521.9978 1193.4951,-1517.1884 1193.4951,-1517.1884"/>
</g>
<!-- ur_ingest_session&#45;&gt;device -->
<g id="edge6" class="edge">
<title>ur_ingest_session:device_id&#45;&gt;device:device_id</title>
<path fill="none" stroke="#000000" d="M1193.5163,-1546.9517C1399.073,-1524.0267 1305.4621,-788.7737 1343.5,-577 1353.6899,-520.2683 1408.1396,-447.5 1350.5,-447.5"/>
<polygon fill="#000000" stroke="#000000" points="1193.4851,-1546.9533 1183.254,-1543.0067 1188.4925,-1547.2267 1183.5,-1547.5 1183.5,-1547.5 1183.5,-1547.5 1188.4925,-1547.2267 1183.746,-1551.9933 1193.4851,-1546.9533 1193.4851,-1546.9533"/>
</g>
<!-- ur_ingest_session_fs_path -->
<g id="node3" class="node">
<title>ur_ingest_session_fs_path</title>
<polygon fill="#efefef" stroke="transparent" points="43.5,-2229.5 43.5,-2264.5 352.5,-2264.5 352.5,-2229.5 43.5,-2229.5"/>
<polygon fill="none" stroke="#000000" points="43.5,-2229.5 43.5,-2264.5 352.5,-2264.5 352.5,-2229.5 43.5,-2229.5"/>
<text text-anchor="start" x="54.7975" y="-2242.3" font-family="Arial Bold" font-size="18.00" fill="#000000">ur_ingest_session_fs_path</text>
<text text-anchor="start" x="268.8715" y="-2242.3" font-family="Arial" font-size="14.00" fill="#000000">    </text>
<text text-anchor="start" x="303.0763" y="-2242.3" font-family="Arial" font-size="14.00" fill="#666666">[table]</text>
<polygon fill="none" stroke="#000000" points="43.5,-2199.5 43.5,-2229.5 352.5,-2229.5 352.5,-2199.5 43.5,-2199.5"/>
<text text-anchor="start" x="50.202" y="-2210.9" font-family="Arial" font-size="14.00" fill="#000000">ur_ingest_session_fs_path_id    </text>
<text text-anchor="start" x="269.5806" y="-2210.9" font-family="Arial" font-size="14.00" fill="#666666">[VARCHAR]</text>
<polygon fill="none" stroke="#000000" points="43.5,-2169.5 43.5,-2199.5 352.5,-2199.5 352.5,-2169.5 43.5,-2169.5"/>
<text text-anchor="start" x="50.5" y="-2180.9" font-family="Arial" font-size="14.00" fill="#000000">ingest_session_id    </text>
<text text-anchor="start" x="195.9586" y="-2180.9" font-family="Arial" font-size="14.00" fill="#666666">[VARCHAR]</text>
<polygon fill="none" stroke="#000000" points="43.5,-2139.5 43.5,-2169.5 352.5,-2169.5 352.5,-2139.5 43.5,-2139.5"/>
<text text-anchor="start" x="50.5" y="-2150.9" font-family="Arial" font-size="14.00" fill="#000000">root_path    </text>
<text text-anchor="start" x="143.8422" y="-2150.9" font-family="Arial" font-size="14.00" fill="#666666">[TEXT]</text>
<polygon fill="none" stroke="#000000" points="43.5,-2109.5 43.5,-2139.5 352.5,-2139.5 352.5,-2109.5 43.5,-2109.5"/>
<text text-anchor="start" x="50.5" y="-2120.9" font-family="Arial" font-size="14.00" fill="#000000">elaboration    </text>
<text text-anchor="start" x="153.9474" y="-2120.9" font-family="Arial" font-size="14.00" fill="#666666">[TEXT]</text>
<polygon fill="none" stroke="#000000" points="43.5,-2079.5 43.5,-2109.5 352.5,-2109.5 352.5,-2079.5 43.5,-2079.5"/>
<text text-anchor="start" x="50.5" y="-2090.9" font-family="Arial" font-size="14.00" fill="#000000">created_at    </text>
<text text-anchor="start" x="150.8422" y="-2090.9" font-family="Arial" font-size="14.00" fill="#666666">[TIMESTAMP]</text>
<polygon fill="none" stroke="#000000" points="43.5,-2049.5 43.5,-2079.5 352.5,-2079.5 352.5,-2049.5 43.5,-2049.5"/>
<text text-anchor="start" x="50.5" y="-2060.9" font-family="Arial" font-size="14.00" fill="#000000">created_by    </text>
<text text-anchor="start" x="153.9516" y="-2060.9" font-family="Arial" font-size="14.00" fill="#666666">[TEXT]</text>
<polygon fill="none" stroke="#000000" points="43.5,-2019.5 43.5,-2049.5 352.5,-2049.5 352.5,-2019.5 43.5,-2019.5"/>
<text text-anchor="start" x="50.5" y="-2030.9" font-family="Arial" font-size="14.00" fill="#000000">updated_at    </text>
<text text-anchor="start" x="154.7468" y="-2030.9" font-family="Arial" font-size="14.00" fill="#666666">[TIMESTAMP]</text>
<polygon fill="none" stroke="#000000" points="43.5,-1989.5 43.5,-2019.5 352.5,-2019.5 352.5,-1989.5 43.5,-1989.5"/>
<text text-anchor="start" x="50.5" y="-2000.9" font-family="Arial" font-size="14.00" fill="#000000">updated_by    </text>
<text text-anchor="start" x="157.8562" y="-2000.9" font-family="Arial" font-size="14.00" fill="#666666">[TEXT]</text>
<polygon fill="none" stroke="#000000" points="43.5,-1959.5 43.5,-1989.5 352.5,-1989.5 352.5,-1959.5 43.5,-1959.5"/>
<text text-anchor="start" x="50.5" y="-1970.9" font-family="Arial" font-size="14.00" fill="#000000">deleted_at    </text>
<text text-anchor="start" x="150.0708" y="-1970.9" font-family="Arial" font-size="14.00" fill="#666666">[TIMESTAMP]</text>
<polygon fill="none" stroke="#000000" points="43.5,-1929.5 43.5,-1959.5 352.5,-1959.5 352.5,-1929.5 43.5,-1929.5"/>
<text text-anchor="start" x="50.5" y="-1940.9" font-family="Arial" font-size="14.00" fill="#000000">deleted_by    </text>
<text text-anchor="start" x="153.1802" y="-1940.9" font-family="Arial" font-size="14.00" fill="#666666">[TEXT]</text>
<polygon fill="none" stroke="#000000" points="43.5,-1899.5 43.5,-1929.5 352.5,-1929.5 352.5,-1899.5 43.5,-1899.5"/>
<text text-anchor="start" x="50.5" y="-1910.9" font-family="Arial" font-size="14.00" fill="#000000">activity_log    </text>
<text text-anchor="start" x="153.9362" y="-1910.9" font-family="Arial" font-size="14.00" fill="#666666">[TEXT]</text>
</g>
<!-- ur_ingest_session_fs_path&#45;&gt;ur_ingest_session -->
<g id="edge2" class="edge">
<title>ur_ingest_session_fs_path:ingest_session_id&#45;&gt;ur_ingest_session:ur_ingest_session_id</title>
<path fill="none" stroke="#000000" d="M362.6497,-2183.1366C450.9217,-2157.7213 336.6408,-1784.6061 404.5,-1707 483.4558,-1616.7035 808.5522,-1577.5 928.5,-1577.5"/>
<polygon fill="#000000" stroke="#000000" points="362.411,-2183.1686 351.9009,-2180.0401 357.4555,-2183.8343 352.5,-2184.5 352.5,-2184.5 352.5,-2184.5 357.4555,-2183.8343 353.0991,-2188.9599 362.411,-2183.1686 362.411,-2183.1686"/>
</g>
<!-- uniform_resource -->
<g id="node4" class="node">
<title>uniform_resource</title>
<polygon fill="#efefef" stroke="transparent" points="1304.5,-2364.5 1304.5,-2399.5 1555.5,-2399.5 1555.5,-2364.5 1304.5,-2364.5"/>
<polygon fill="none" stroke="#000000" points="1304.5,-2364.5 1304.5,-2399.5 1555.5,-2399.5 1555.5,-2364.5 1304.5,-2364.5"/>
<text text-anchor="start" x="1323.8271" y="-2377.3" font-family="Arial Bold" font-size="18.00" fill="#000000">uniform_resource</text>
<text text-anchor="start" x="1463.8419" y="-2377.3" font-family="Arial" font-size="14.00" fill="#000000">    </text>
<text text-anchor="start" x="1498.0467" y="-2377.3" font-family="Arial" font-size="14.00" fill="#666666">[table]</text>
<polygon fill="none" stroke="#000000" points="1304.5,-2334.5 1304.5,-2364.5 1555.5,-2364.5 1555.5,-2334.5 1304.5,-2334.5"/>
<text text-anchor="start" x="1311.0028" y="-2345.9" font-family="Arial" font-size="14.00" fill="#000000">uniform_resource_id    </text>
<text text-anchor="start" x="1472.7798" y="-2345.9" font-family="Arial" font-size="14.00" fill="#666666">[VARCHAR]</text>
<polygon fill="none" stroke="#000000" points="1304.5,-2304.5 1304.5,-2334.5 1555.5,-2334.5 1555.5,-2304.5 1304.5,-2304.5"/>
<text text-anchor="start" x="1311.5" y="-2315.9" font-family="Arial" font-size="14.00" fill="#000000">device_id    </text>
<text text-anchor="start" x="1404.831" y="-2315.9" font-family="Arial" font-size="14.00" fill="#666666">[VARCHAR]</text>
<polygon fill="none" stroke="#000000" points="1304.5,-2274.5 1304.5,-2304.5 1555.5,-2304.5 1555.5,-2274.5 1304.5,-2274.5"/>
<text text-anchor="start" x="1311.5" y="-2285.9" font-family="Arial" font-size="14.00" fill="#000000">ingest_session_id    </text>
<text text-anchor="start" x="1456.9586" y="-2285.9" font-family="Arial" font-size="14.00" fill="#666666">[VARCHAR]</text>
<polygon fill="none" stroke="#000000" points="1304.5,-2244.5 1304.5,-2274.5 1555.5,-2274.5 1555.5,-2244.5 1304.5,-2244.5"/>
<text text-anchor="start" x="1311.5" y="-2255.9" font-family="Arial" font-size="14.00" fill="#000000">ingest_fs_path_id    </text>
<text text-anchor="start" x="1455.4158" y="-2255.9" font-family="Arial" font-size="14.00" fill="#666666">[VARCHAR]</text>
<polygon fill="none" stroke="#000000" points="1304.5,-2214.5 1304.5,-2244.5 1555.5,-2244.5 1555.5,-2214.5 1304.5,-2214.5"/>
<text text-anchor="start" x="1311.5" y="-2225.9" font-family="Arial" font-size="14.00" fill="#000000">uri    </text>
<text text-anchor="start" x="1361.2546" y="-2225.9" font-family="Arial" font-size="14.00" fill="#666666">[TEXT]</text>
<polygon fill="none" stroke="#000000" points="1304.5,-2184.5 1304.5,-2214.5 1555.5,-2214.5 1555.5,-2184.5 1304.5,-2184.5"/>
<text text-anchor="start" x="1311.5" y="-2195.9" font-family="Arial" font-size="14.00" fill="#000000">content_digest    </text>
<text text-anchor="start" x="1436.744" y="-2195.9" font-family="Arial" font-size="14.00" fill="#666666">[TEXT]</text>
<polygon fill="none" stroke="#000000" points="1304.5,-2154.5 1304.5,-2184.5 1555.5,-2184.5 1555.5,-2154.5 1304.5,-2154.5"/>
<text text-anchor="start" x="1311.5" y="-2165.9" font-family="Arial" font-size="14.00" fill="#000000">content    </text>
<text text-anchor="start" x="1391.6164" y="-2165.9" font-family="Arial" font-size="14.00" fill="#666666">[BLOB]</text>
<polygon fill="none" stroke="#000000" points="1304.5,-2124.5 1304.5,-2154.5 1555.5,-2154.5 1555.5,-2124.5 1304.5,-2124.5"/>
<text text-anchor="start" x="1311.5" y="-2135.9" font-family="Arial" font-size="14.00" fill="#000000">nature    </text>
<text text-anchor="start" x="1385.3864" y="-2135.9" font-family="Arial" font-size="14.00" fill="#666666">[TEXT]</text>
<polygon fill="none" stroke="#000000" points="1304.5,-2094.5 1304.5,-2124.5 1555.5,-2124.5 1555.5,-2094.5 1304.5,-2094.5"/>
<text text-anchor="start" x="1311.5" y="-2105.9" font-family="Arial" font-size="14.00" fill="#000000">size_bytes    </text>
<text text-anchor="start" x="1411.8324" y="-2105.9" font-family="Arial" font-size="14.00" fill="#666666">[INTEGER]</text>
<polygon fill="none" stroke="#000000" points="1304.5,-2064.5 1304.5,-2094.5 1555.5,-2094.5 1555.5,-2064.5 1304.5,-2064.5"/>
<text text-anchor="start" x="1311.5" y="-2075.9" font-family="Arial" font-size="14.00" fill="#000000">last_modified_at    </text>
<text text-anchor="start" x="1447.6178" y="-2075.9" font-family="Arial" font-size="14.00" fill="#666666">[TIMESTAMP]</text>
<polygon fill="none" stroke="#000000" points="1304.5,-2034.5 1304.5,-2064.5 1555.5,-2064.5 1555.5,-2034.5 1304.5,-2034.5"/>
<text text-anchor="start" x="1311.5" y="-2045.9" font-family="Arial" font-size="14.00" fill="#000000">content_fm_body_attrs    </text>
<text text-anchor="start" x="1488.0876" y="-2045.9" font-family="Arial" font-size="14.00" fill="#666666">[TEXT]</text>
<polygon fill="none" stroke="#000000" points="1304.5,-2004.5 1304.5,-2034.5 1555.5,-2034.5 1555.5,-2004.5 1304.5,-2004.5"/>
<text text-anchor="start" x="1311.5" y="-2015.9" font-family="Arial" font-size="14.00" fill="#000000">frontmatter    </text>
<text text-anchor="start" x="1413.3794" y="-2015.9" font-family="Arial" font-size="14.00" fill="#666666">[TEXT]</text>
<polygon fill="none" stroke="#000000" points="1304.5,-1974.5 1304.5,-2004.5 1555.5,-2004.5 1555.5,-1974.5 1304.5,-1974.5"/>
<text text-anchor="start" x="1311.5" y="-1985.9" font-family="Arial" font-size="14.00" fill="#000000">elaboration    </text>
<text text-anchor="start" x="1414.9474" y="-1985.9" font-family="Arial" font-size="14.00" fill="#666666">[TEXT]</text>
<polygon fill="none" stroke="#000000" points="1304.5,-1944.5 1304.5,-1974.5 1555.5,-1974.5 1555.5,-1944.5 1304.5,-1944.5"/>
<text text-anchor="start" x="1311.5" y="-1955.9" font-family="Arial" font-size="14.00" fill="#000000">created_at    </text>
<text text-anchor="start" x="1411.8422" y="-1955.9" font-family="Arial" font-size="14.00" fill="#666666">[TIMESTAMP]</text>
<polygon fill="none" stroke="#000000" points="1304.5,-1914.5 1304.5,-1944.5 1555.5,-1944.5 1555.5,-1914.5 1304.5,-1914.5"/>
<text text-anchor="start" x="1311.5" y="-1925.9" font-family="Arial" font-size="14.00" fill="#000000">created_by    </text>
<text text-anchor="start" x="1414.9516" y="-1925.9" font-family="Arial" font-size="14.00" fill="#666666">[TEXT]</text>
<polygon fill="none" stroke="#000000" points="1304.5,-1884.5 1304.5,-1914.5 1555.5,-1914.5 1555.5,-1884.5 1304.5,-1884.5"/>
<text text-anchor="start" x="1311.5" y="-1895.9" font-family="Arial" font-size="14.00" fill="#000000">updated_at    </text>
<text text-anchor="start" x="1415.7468" y="-1895.9" font-family="Arial" font-size="14.00" fill="#666666">[TIMESTAMP]</text>
<polygon fill="none" stroke="#000000" points="1304.5,-1854.5 1304.5,-1884.5 1555.5,-1884.5 1555.5,-1854.5 1304.5,-1854.5"/>
<text text-anchor="start" x="1311.5" y="-1865.9" font-family="Arial" font-size="14.00" fill="#000000">updated_by    </text>
<text text-anchor="start" x="1418.8562" y="-1865.9" font-family="Arial" font-size="14.00" fill="#666666">[TEXT]</text>
<polygon fill="none" stroke="#000000" points="1304.5,-1824.5 1304.5,-1854.5 1555.5,-1854.5 1555.5,-1824.5 1304.5,-1824.5"/>
<text text-anchor="start" x="1311.5" y="-1835.9" font-family="Arial" font-size="14.00" fill="#000000">deleted_at    </text>
<text text-anchor="start" x="1411.0708" y="-1835.9" font-family="Arial" font-size="14.00" fill="#666666">[TIMESTAMP]</text>
<polygon fill="none" stroke="#000000" points="1304.5,-1794.5 1304.5,-1824.5 1555.5,-1824.5 1555.5,-1794.5 1304.5,-1794.5"/>
<text text-anchor="start" x="1311.5" y="-1805.9" font-family="Arial" font-size="14.00" fill="#000000">deleted_by    </text>
<text text-anchor="start" x="1414.1802" y="-1805.9" font-family="Arial" font-size="14.00" fill="#666666">[TEXT]</text>
<polygon fill="none" stroke="#000000" points="1304.5,-1764.5 1304.5,-1794.5 1555.5,-1794.5 1555.5,-1764.5 1304.5,-1764.5"/>
<text text-anchor="start" x="1311.5" y="-1775.9" font-family="Arial" font-size="14.00" fill="#000000">activity_log    </text>
<text text-anchor="start" x="1414.9362" y="-1775.9" font-family="Arial" font-size="14.00" fill="#666666">[TEXT]</text>
</g>
<!-- uniform_resource&#45;&gt;ur_ingest_session -->
<g id="edge3" class="edge">
<title>uniform_resource:ingest_session_id&#45;&gt;ur_ingest_session:ur_ingest_session_id</title>
<path fill="none" stroke="#000000" d="M1294.9931,-2285.3038C1242.5804,-2235.9114 1268.9345,-1766.0421 1251.5,-1707 1233.0897,-1644.6535 1248.5079,-1577.5 1183.5,-1577.5"/>
<polygon fill="#000000" stroke="#000000" points="1295.3515,-2285.4619 1302.6829,-2293.6168 1299.9258,-2287.481 1304.5,-2289.5 1304.5,-2289.5 1304.5,-2289.5 1299.9258,-2287.481 1306.3171,-2285.3832 1295.3515,-2285.4619 1295.3515,-2285.4619"/>
</g>
<!-- uniform_resource&#45;&gt;device -->
<g id="edge8" class="edge">
<title>uniform_resource:device_id&#45;&gt;device:device_id</title>
<path fill="none" stroke="#000000" d="M1295.7743,-2314.1299C1215.9978,-2204.3281 1451.2804,-447.5 1350.5,-447.5"/>
<polygon fill="#000000" stroke="#000000" points="1295.9836,-2314.2587 1302.1414,-2323.3324 1300.2418,-2316.8793 1304.5,-2319.5 1304.5,-2319.5 1304.5,-2319.5 1300.2418,-2316.8793 1306.8586,-2315.6676 1295.9836,-2314.2587 1295.9836,-2314.2587"/>
</g>
<!-- ur_ingest_session_fs_path_entry -->
<g id="node5" class="node">
<title>ur_ingest_session_fs_path_entry</title>
<polygon fill="#efefef" stroke="transparent" points="456.5,-2379.5 456.5,-2414.5 806.5,-2414.5 806.5,-2379.5 456.5,-2379.5"/>
<polygon fill="none" stroke="#000000" points="456.5,-2379.5 456.5,-2414.5 806.5,-2414.5 806.5,-2379.5 456.5,-2379.5"/>
<text text-anchor="start" x="463.291" y="-2392.3" font-family="Arial Bold" font-size="18.00" fill="#000000">ur_ingest_session_fs_path_entry</text>
<text text-anchor="start" x="727.378" y="-2392.3" font-family="Arial" font-size="14.00" fill="#000000">    </text>
<text text-anchor="start" x="761.5828" y="-2392.3" font-family="Arial" font-size="14.00" fill="#666666">[table]</text>
<polygon fill="none" stroke="#000000" points="456.5,-2349.5 456.5,-2379.5 806.5,-2379.5 806.5,-2349.5 456.5,-2349.5"/>
<text text-anchor="start" x="463.5" y="-2360.9" font-family="Arial" font-size="14.00" fill="#000000">ur_ingest_session_fs_path_entry_id    </text>
<text text-anchor="start" x="721.7776" y="-2360.9" font-family="Arial" font-size="14.00" fill="#666666">[VARCHAR]</text>
<polygon fill="none" stroke="#000000" points="456.5,-2319.5 456.5,-2349.5 806.5,-2349.5 806.5,-2319.5 456.5,-2319.5"/>
<text text-anchor="start" x="463.5" y="-2330.9" font-family="Arial" font-size="14.00" fill="#000000">ingest_session_id    </text>
<text text-anchor="start" x="608.9586" y="-2330.9" font-family="Arial" font-size="14.00" fill="#666666">[VARCHAR]</text>
<polygon fill="none" stroke="#000000" points="456.5,-2289.5 456.5,-2319.5 806.5,-2319.5 806.5,-2289.5 456.5,-2289.5"/>
<text text-anchor="start" x="463.5" y="-2300.9" font-family="Arial" font-size="14.00" fill="#000000">ingest_fs_path_id    </text>
<text text-anchor="start" x="607.4158" y="-2300.9" font-family="Arial" font-size="14.00" fill="#666666">[VARCHAR]</text>
<polygon fill="none" stroke="#000000" points="456.5,-2259.5 456.5,-2289.5 806.5,-2289.5 806.5,-2259.5 456.5,-2259.5"/>
<text text-anchor="start" x="463.5" y="-2270.9" font-family="Arial" font-size="14.00" fill="#000000">uniform_resource_id    </text>
<text text-anchor="start" x="625.277" y="-2270.9" font-family="Arial" font-size="14.00" fill="#666666">[VARCHAR]</text>
<polygon fill="none" stroke="#000000" points="456.5,-2229.5 456.5,-2259.5 806.5,-2259.5 806.5,-2229.5 456.5,-2229.5"/>
<text text-anchor="start" x="463.5" y="-2240.9" font-family="Arial" font-size="14.00" fill="#000000">file_path_abs    </text>
<text text-anchor="start" x="580.96" y="-2240.9" font-family="Arial" font-size="14.00" fill="#666666">[TEXT]</text>
<polygon fill="none" stroke="#000000" points="456.5,-2199.5 456.5,-2229.5 806.5,-2229.5 806.5,-2199.5 456.5,-2199.5"/>
<text text-anchor="start" x="463.5" y="-2210.9" font-family="Arial" font-size="14.00" fill="#000000">file_path_rel_parent    </text>
<text text-anchor="start" x="621.4088" y="-2210.9" font-family="Arial" font-size="14.00" fill="#666666">[TEXT]</text>
<polygon fill="none" stroke="#000000" points="456.5,-2169.5 456.5,-2199.5 806.5,-2199.5 806.5,-2169.5 456.5,-2169.5"/>
<text text-anchor="start" x="463.5" y="-2180.9" font-family="Arial" font-size="14.00" fill="#000000">file_path_rel    </text>
<text text-anchor="start" x="573.9446" y="-2180.9" font-family="Arial" font-size="14.00" fill="#666666">[TEXT]</text>
<polygon fill="none" stroke="#000000" points="456.5,-2139.5 456.5,-2169.5 806.5,-2169.5 806.5,-2139.5 456.5,-2139.5"/>
<text text-anchor="start" x="463.5" y="-2150.9" font-family="Arial" font-size="14.00" fill="#000000">file_basename    </text>
<text text-anchor="start" x="588.73" y="-2150.9" font-family="Arial" font-size="14.00" fill="#666666">[TEXT]</text>
<polygon fill="none" stroke="#000000" points="456.5,-2109.5 456.5,-2139.5 806.5,-2139.5 806.5,-2109.5 456.5,-2109.5"/>
<text text-anchor="start" x="463.5" y="-2120.9" font-family="Arial" font-size="14.00" fill="#000000">file_extn    </text>
<text text-anchor="start" x="549.8296" y="-2120.9" font-family="Arial" font-size="14.00" fill="#666666">[TEXT]</text>
<polygon fill="none" stroke="#000000" points="456.5,-2079.5 456.5,-2109.5 806.5,-2109.5 806.5,-2079.5 456.5,-2079.5"/>
<text text-anchor="start" x="463.5" y="-2090.9" font-family="Arial" font-size="14.00" fill="#000000">captured_executable    </text>
<text text-anchor="start" x="627.6444" y="-2090.9" font-family="Arial" font-size="14.00" fill="#666666">[TEXT]</text>
<polygon fill="none" stroke="#000000" points="456.5,-2049.5 456.5,-2079.5 806.5,-2079.5 806.5,-2049.5 456.5,-2049.5"/>
<text text-anchor="start" x="463.5" y="-2060.9" font-family="Arial" font-size="14.00" fill="#000000">ur_status    </text>
<text text-anchor="start" x="555.277" y="-2060.9" font-family="Arial" font-size="14.00" fill="#666666">[TEXT]</text>
<polygon fill="none" stroke="#000000" points="456.5,-2019.5 456.5,-2049.5 806.5,-2049.5 806.5,-2019.5 456.5,-2019.5"/>
<text text-anchor="start" x="463.5" y="-2030.9" font-family="Arial" font-size="14.00" fill="#000000">ur_diagnostics    </text>
<text text-anchor="start" x="587.9474" y="-2030.9" font-family="Arial" font-size="14.00" fill="#666666">[TEXT]</text>
<polygon fill="none" stroke="#000000" points="456.5,-1989.5 456.5,-2019.5 806.5,-2019.5 806.5,-1989.5 456.5,-1989.5"/>
<text text-anchor="start" x="463.5" y="-2000.9" font-family="Arial" font-size="14.00" fill="#000000">ur_transformations    </text>
<text text-anchor="start" x="614.3864" y="-2000.9" font-family="Arial" font-size="14.00" fill="#666666">[TEXT]</text>
<polygon fill="none" stroke="#000000" points="456.5,-1959.5 456.5,-1989.5 806.5,-1989.5 806.5,-1959.5 456.5,-1959.5"/>
<text text-anchor="start" x="463.5" y="-1970.9" font-family="Arial" font-size="14.00" fill="#000000">elaboration    </text>
<text text-anchor="start" x="566.9474" y="-1970.9" font-family="Arial" font-size="14.00" fill="#666666">[TEXT]</text>
<polygon fill="none" stroke="#000000" points="456.5,-1929.5 456.5,-1959.5 806.5,-1959.5 806.5,-1929.5 456.5,-1929.5"/>
<text text-anchor="start" x="463.5" y="-1940.9" font-family="Arial" font-size="14.00" fill="#000000">created_at    </text>
<text text-anchor="start" x="563.8422" y="-1940.9" font-family="Arial" font-size="14.00" fill="#666666">[TIMESTAMP]</text>
<polygon fill="none" stroke="#000000" points="456.5,-1899.5 456.5,-1929.5 806.5,-1929.5 806.5,-1899.5 456.5,-1899.5"/>
<text text-anchor="start" x="463.5" y="-1910.9" font-family="Arial" font-size="14.00" fill="#000000">created_by    </text>
<text text-anchor="start" x="566.9516" y="-1910.9" font-family="Arial" font-size="14.00" fill="#666666">[TEXT]</text>
<polygon fill="none" stroke="#000000" points="456.5,-1869.5 456.5,-1899.5 806.5,-1899.5 806.5,-1869.5 456.5,-1869.5"/>
<text text-anchor="start" x="463.5" y="-1880.9" font-family="Arial" font-size="14.00" fill="#000000">updated_at    </text>
<text text-anchor="start" x="567.7468" y="-1880.9" font-family="Arial" font-size="14.00" fill="#666666">[TIMESTAMP]</text>
<polygon fill="none" stroke="#000000" points="456.5,-1839.5 456.5,-1869.5 806.5,-1869.5 806.5,-1839.5 456.5,-1839.5"/>
<text text-anchor="start" x="463.5" y="-1850.9" font-family="Arial" font-size="14.00" fill="#000000">updated_by    </text>
<text text-anchor="start" x="570.8562" y="-1850.9" font-family="Arial" font-size="14.00" fill="#666666">[TEXT]</text>
<polygon fill="none" stroke="#000000" points="456.5,-1809.5 456.5,-1839.5 806.5,-1839.5 806.5,-1809.5 456.5,-1809.5"/>
<text text-anchor="start" x="463.5" y="-1820.9" font-family="Arial" font-size="14.00" fill="#000000">deleted_at    </text>
<text text-anchor="start" x="563.0708" y="-1820.9" font-family="Arial" font-size="14.00" fill="#666666">[TIMESTAMP]</text>
<polygon fill="none" stroke="#000000" points="456.5,-1779.5 456.5,-1809.5 806.5,-1809.5 806.5,-1779.5 456.5,-1779.5"/>
<text text-anchor="start" x="463.5" y="-1790.9" font-family="Arial" font-size="14.00" fill="#000000">deleted_by    </text>
<text text-anchor="start" x="566.1802" y="-1790.9" font-family="Arial" font-size="14.00" fill="#666666">[TEXT]</text>
<polygon fill="none" stroke="#000000" points="456.5,-1749.5 456.5,-1779.5 806.5,-1779.5 806.5,-1749.5 456.5,-1749.5"/>
<text text-anchor="start" x="463.5" y="-1760.9" font-family="Arial" font-size="14.00" fill="#000000">activity_log    </text>
<text text-anchor="start" x="566.9362" y="-1760.9" font-family="Arial" font-size="14.00" fill="#666666">[TEXT]</text>
</g>
<!-- ur_ingest_session_fs_path_entry&#45;&gt;ur_ingest_session -->
<g id="edge4" class="edge">
<title>ur_ingest_session_fs_path_entry:ingest_session_id&#45;&gt;ur_ingest_session:ur_ingest_session_id</title>
<path fill="none" stroke="#000000" d="M815.996,-2330.6141C872.8972,-2280.9456 839.5277,-1770.7833 858.5,-1707 877.1532,-1644.2895 863.0741,-1577.5 928.5,-1577.5"/>
<polygon fill="#000000" stroke="#000000" points="815.7551,-2330.7126 804.7957,-2330.3352 811.1275,-2332.6063 806.5,-2334.5 806.5,-2334.5 806.5,-2334.5 811.1275,-2332.6063 808.2043,-2338.6648 815.7551,-2330.7126 815.7551,-2330.7126"/>
</g>
<!-- ur_ingest_session_task -->
<g id="node6" class="node">
<title>ur_ingest_session_task</title>
<polygon fill="#efefef" stroke="transparent" points="911.5,-2289.5 911.5,-2324.5 1200.5,-2324.5 1200.5,-2289.5 911.5,-2289.5"/>
<polygon fill="none" stroke="#000000" points="911.5,-2289.5 911.5,-2324.5 1200.5,-2324.5 1200.5,-2289.5 911.5,-2289.5"/>
<text text-anchor="start" x="925.8079" y="-2302.3" font-family="Arial Bold" font-size="18.00" fill="#000000">ur_ingest_session_task</text>
<text text-anchor="start" x="1113.8611" y="-2302.3" font-family="Arial" font-size="14.00" fill="#000000">    </text>
<text text-anchor="start" x="1148.0659" y="-2302.3" font-family="Arial" font-size="14.00" fill="#666666">[table]</text>
<polygon fill="none" stroke="#000000" points="911.5,-2259.5 911.5,-2289.5 1200.5,-2289.5 1200.5,-2259.5 911.5,-2259.5"/>
<text text-anchor="start" x="918.3212" y="-2270.9" font-family="Arial" font-size="14.00" fill="#000000">ur_ingest_session_task_id    </text>
<text text-anchor="start" x="1117.4614" y="-2270.9" font-family="Arial" font-size="14.00" fill="#666666">[VARCHAR]</text>
<polygon fill="none" stroke="#000000" points="911.5,-2229.5 911.5,-2259.5 1200.5,-2259.5 1200.5,-2229.5 911.5,-2229.5"/>
<text text-anchor="start" x="918.5" y="-2240.9" font-family="Arial" font-size="14.00" fill="#000000">ingest_session_id    </text>
<text text-anchor="start" x="1063.9586" y="-2240.9" font-family="Arial" font-size="14.00" fill="#666666">[VARCHAR]</text>
<polygon fill="none" stroke="#000000" points="911.5,-2199.5 911.5,-2229.5 1200.5,-2229.5 1200.5,-2199.5 911.5,-2199.5"/>
<text text-anchor="start" x="918.5" y="-2210.9" font-family="Arial" font-size="14.00" fill="#000000">uniform_resource_id    </text>
<text text-anchor="start" x="1080.277" y="-2210.9" font-family="Arial" font-size="14.00" fill="#666666">[VARCHAR]</text>
<polygon fill="none" stroke="#000000" points="911.5,-2169.5 911.5,-2199.5 1200.5,-2199.5 1200.5,-2169.5 911.5,-2169.5"/>
<text text-anchor="start" x="918.5" y="-2180.9" font-family="Arial" font-size="14.00" fill="#000000">captured_executable    </text>
<text text-anchor="start" x="1082.6444" y="-2180.9" font-family="Arial" font-size="14.00" fill="#666666">[TEXT]</text>
<polygon fill="none" stroke="#000000" points="911.5,-2139.5 911.5,-2169.5 1200.5,-2169.5 1200.5,-2139.5 911.5,-2139.5"/>
<text text-anchor="start" x="918.5" y="-2150.9" font-family="Arial" font-size="14.00" fill="#000000">ur_status    </text>
<text text-anchor="start" x="1010.277" y="-2150.9" font-family="Arial" font-size="14.00" fill="#666666">[TEXT]</text>
<polygon fill="none" stroke="#000000" points="911.5,-2109.5 911.5,-2139.5 1200.5,-2139.5 1200.5,-2109.5 911.5,-2109.5"/>
<text text-anchor="start" x="918.5" y="-2120.9" font-family="Arial" font-size="14.00" fill="#000000">ur_diagnostics    </text>
<text text-anchor="start" x="1042.9474" y="-2120.9" font-family="Arial" font-size="14.00" fill="#666666">[TEXT]</text>
<polygon fill="none" stroke="#000000" points="911.5,-2079.5 911.5,-2109.5 1200.5,-2109.5 1200.5,-2079.5 911.5,-2079.5"/>
<text text-anchor="start" x="918.5" y="-2090.9" font-family="Arial" font-size="14.00" fill="#000000">ur_transformations    </text>
<text text-anchor="start" x="1069.3864" y="-2090.9" font-family="Arial" font-size="14.00" fill="#666666">[TEXT]</text>
<polygon fill="none" stroke="#000000" points="911.5,-2049.5 911.5,-2079.5 1200.5,-2079.5 1200.5,-2049.5 911.5,-2049.5"/>
<text text-anchor="start" x="918.5" y="-2060.9" font-family="Arial" font-size="14.00" fill="#000000">elaboration    </text>
<text text-anchor="start" x="1021.9474" y="-2060.9" font-family="Arial" font-size="14.00" fill="#666666">[TEXT]</text>
<polygon fill="none" stroke="#000000" points="911.5,-2019.5 911.5,-2049.5 1200.5,-2049.5 1200.5,-2019.5 911.5,-2019.5"/>
<text text-anchor="start" x="918.5" y="-2030.9" font-family="Arial" font-size="14.00" fill="#000000">created_at    </text>
<text text-anchor="start" x="1018.8422" y="-2030.9" font-family="Arial" font-size="14.00" fill="#666666">[TIMESTAMP]</text>
<polygon fill="none" stroke="#000000" points="911.5,-1989.5 911.5,-2019.5 1200.5,-2019.5 1200.5,-1989.5 911.5,-1989.5"/>
<text text-anchor="start" x="918.5" y="-2000.9" font-family="Arial" font-size="14.00" fill="#000000">created_by    </text>
<text text-anchor="start" x="1021.9516" y="-2000.9" font-family="Arial" font-size="14.00" fill="#666666">[TEXT]</text>
<polygon fill="none" stroke="#000000" points="911.5,-1959.5 911.5,-1989.5 1200.5,-1989.5 1200.5,-1959.5 911.5,-1959.5"/>
<text text-anchor="start" x="918.5" y="-1970.9" font-family="Arial" font-size="14.00" fill="#000000">updated_at    </text>
<text text-anchor="start" x="1022.7468" y="-1970.9" font-family="Arial" font-size="14.00" fill="#666666">[TIMESTAMP]</text>
<polygon fill="none" stroke="#000000" points="911.5,-1929.5 911.5,-1959.5 1200.5,-1959.5 1200.5,-1929.5 911.5,-1929.5"/>
<text text-anchor="start" x="918.5" y="-1940.9" font-family="Arial" font-size="14.00" fill="#000000">updated_by    </text>
<text text-anchor="start" x="1025.8562" y="-1940.9" font-family="Arial" font-size="14.00" fill="#666666">[TEXT]</text>
<polygon fill="none" stroke="#000000" points="911.5,-1899.5 911.5,-1929.5 1200.5,-1929.5 1200.5,-1899.5 911.5,-1899.5"/>
<text text-anchor="start" x="918.5" y="-1910.9" font-family="Arial" font-size="14.00" fill="#000000">deleted_at    </text>
<text text-anchor="start" x="1018.0708" y="-1910.9" font-family="Arial" font-size="14.00" fill="#666666">[TIMESTAMP]</text>
<polygon fill="none" stroke="#000000" points="911.5,-1869.5 911.5,-1899.5 1200.5,-1899.5 1200.5,-1869.5 911.5,-1869.5"/>
<text text-anchor="start" x="918.5" y="-1880.9" font-family="Arial" font-size="14.00" fill="#000000">deleted_by    </text>
<text text-anchor="start" x="1021.1802" y="-1880.9" font-family="Arial" font-size="14.00" fill="#666666">[TEXT]</text>
<polygon fill="none" stroke="#000000" points="911.5,-1839.5 911.5,-1869.5 1200.5,-1869.5 1200.5,-1839.5 911.5,-1839.5"/>
<text text-anchor="start" x="918.5" y="-1850.9" font-family="Arial" font-size="14.00" fill="#000000">activity_log    </text>
<text text-anchor="start" x="1021.9362" y="-1850.9" font-family="Arial" font-size="14.00" fill="#666666">[TEXT]</text>
</g>
<!-- ur_ingest_session_task&#45;&gt;ur_ingest_session -->
<g id="edge5" class="edge">
<title>ur_ingest_session_task:ingest_session_id&#45;&gt;ur_ingest_session:ur_ingest_session_id</title>
<path fill="none" stroke="#000000" d="M902.0578,-2240.583C839.0075,-2185.9202 857.6951,-1577.5 928.5,-1577.5"/>
<polygon fill="#000000" stroke="#000000" points="902.2633,-2240.6681 909.7757,-2248.6565 906.8816,-2242.5841 911.5,-2244.5 911.5,-2244.5 911.5,-2244.5 906.8816,-2242.5841 913.2243,-2240.3435 902.2633,-2240.6681 902.2633,-2240.6681"/>
</g>
</g>
</svg>
