<?xml version="1.0" encoding="UTF-8" standalone="no"?>
<!DOCTYPE svg PUBLIC "-//W3C//DTD SVG 1.1//EN"
 "http://www.w3.org/Graphics/SVG/1.1/DTD/svg11.dtd">
<!-- Generated by graphviz version 2.40.1 (20161225.0304)
 -->
<!-- Title: behavior Pages: 1 -->
<svg width="1138pt" height="2466pt"
 viewBox="0.00 0.00 1138.00 2466.00" xmlns="http://www.w3.org/2000/svg" xmlns:xlink="http://www.w3.org/1999/xlink">
<g id="graph0" class="graph" transform="scale(1 1) rotate(0) translate(4 2462)">
<title>behavior</title>
<polygon fill="#ffffff" stroke="transparent" points="-4,4 -4,-2462 1134,-2462 1134,4 -4,4"/>
<!-- behavior -->
<g id="node1" class="node">
<title>behavior</title>
<polygon fill="#efefef" stroke="transparent" points="568,-1012.5 568,-1047.5 769,-1047.5 769,-1012.5 568,-1012.5"/>
<polygon fill="none" stroke="#000000" points="568,-1012.5 568,-1047.5 769,-1047.5 769,-1012.5 568,-1012.5"/>
<text text-anchor="start" x="597.8258" y="-1025.3" font-family="Arial Bold" font-size="18.00" fill="#000000">behavior</text>
<text text-anchor="start" x="666.8432" y="-1025.3" font-family="Arial" font-size="14.00" fill="#000000">    </text>
<text text-anchor="start" x="701.048" y="-1025.3" font-family="Arial" font-size="14.00" fill="#666666">[table]</text>
<polygon fill="none" stroke="#000000" points="568,-982.5 568,-1012.5 769,-1012.5 769,-982.5 568,-982.5"/>
<text text-anchor="start" x="575" y="-993.9" font-family="Arial" font-size="14.00" fill="#000000">behavior_id </text>
<text text-anchor="start" x="651.2426" y="-993.9" font-family="Arial" font-size="14.00" fill="#666666">[ULID]</text>
<polygon fill="none" stroke="#000000" points="568,-952.5 568,-982.5 769,-982.5 769,-952.5 568,-952.5"/>
<text text-anchor="start" x="575" y="-963.9" font-family="Arial" font-size="14.00" fill="#000000">device_id </text>
<text text-anchor="start" x="638.0168" y="-963.9" font-family="Arial" font-size="14.00" fill="#666666">[ULID]</text>
<polygon fill="none" stroke="#000000" points="568,-922.5 568,-952.5 769,-952.5 769,-922.5 568,-922.5"/>
<text text-anchor="start" x="575" y="-933.9" font-family="Arial" font-size="14.00" fill="#000000">behavior_name </text>
<text text-anchor="start" x="675.3618" y="-933.9" font-family="Arial" font-size="14.00" fill="#666666">[TEXT]</text>
<polygon fill="none" stroke="#000000" points="568,-892.5 568,-922.5 769,-922.5 769,-892.5 568,-892.5"/>
<text text-anchor="start" x="575" y="-903.9" font-family="Arial" font-size="14.00" fill="#000000">behavior_conf_json </text>
<text text-anchor="start" x="700.2636" y="-903.9" font-family="Arial" font-size="14.00" fill="#666666">[TEXT]</text>
<polygon fill="none" stroke="#000000" points="568,-862.5 568,-892.5 769,-892.5 769,-862.5 568,-862.5"/>
<text text-anchor="start" x="574.7567" y="-873.9" font-family="Arial" font-size="14.00" fill="#000000">assurance_schema_id </text>
<text text-anchor="start" x="718.6837" y="-873.9" font-family="Arial" font-size="14.00" fill="#666666">[TEXT]</text>
<polygon fill="none" stroke="#000000" points="568,-832.5 568,-862.5 769,-862.5 769,-832.5 568,-832.5"/>
<text text-anchor="start" x="575" y="-843.9" font-family="Arial" font-size="14.00" fill="#000000">governance </text>
<text text-anchor="start" x="652.0294" y="-843.9" font-family="Arial" font-size="14.00" fill="#666666">[TEXT]</text>
<polygon fill="none" stroke="#000000" points="568,-802.5 568,-832.5 769,-832.5 769,-802.5 568,-802.5"/>
<text text-anchor="start" x="575" y="-813.9" font-family="Arial" font-size="14.00" fill="#000000">created_at </text>
<text text-anchor="start" x="645.028" y="-813.9" font-family="Arial" font-size="14.00" fill="#666666">[TIMESTAMP]</text>
<polygon fill="none" stroke="#000000" points="568,-772.5 568,-802.5 769,-802.5 769,-772.5 568,-772.5"/>
<text text-anchor="start" x="575" y="-783.9" font-family="Arial" font-size="14.00" fill="#000000">created_by </text>
<text text-anchor="start" x="648.1374" y="-783.9" font-family="Arial" font-size="14.00" fill="#666666">[TEXT]</text>
<polygon fill="none" stroke="#000000" points="568,-742.5 568,-772.5 769,-772.5 769,-742.5 568,-742.5"/>
<text text-anchor="start" x="575" y="-753.9" font-family="Arial" font-size="14.00" fill="#000000">updated_at </text>
<text text-anchor="start" x="648.9326" y="-753.9" font-family="Arial" font-size="14.00" fill="#666666">[TIMESTAMP]</text>
<polygon fill="none" stroke="#000000" points="568,-712.5 568,-742.5 769,-742.5 769,-712.5 568,-712.5"/>
<text text-anchor="start" x="575" y="-723.9" font-family="Arial" font-size="14.00" fill="#000000">updated_by </text>
<text text-anchor="start" x="652.042" y="-723.9" font-family="Arial" font-size="14.00" fill="#666666">[TEXT]</text>
<polygon fill="none" stroke="#000000" points="568,-682.5 568,-712.5 769,-712.5 769,-682.5 568,-682.5"/>
<text text-anchor="start" x="575" y="-693.9" font-family="Arial" font-size="14.00" fill="#000000">deleted_at </text>
<text text-anchor="start" x="644.2566" y="-693.9" font-family="Arial" font-size="14.00" fill="#666666">[TIMESTAMP]</text>
<polygon fill="none" stroke="#000000" points="568,-652.5 568,-682.5 769,-682.5 769,-652.5 568,-652.5"/>
<text text-anchor="start" x="575" y="-663.9" font-family="Arial" font-size="14.00" fill="#000000">deleted_by </text>
<text text-anchor="start" x="647.366" y="-663.9" font-family="Arial" font-size="14.00" fill="#666666">[TEXT]</text>
<polygon fill="none" stroke="#000000" points="568,-622.5 568,-652.5 769,-652.5 769,-622.5 568,-622.5"/>
<text text-anchor="start" x="575" y="-633.9" font-family="Arial" font-size="14.00" fill="#000000">activity_log </text>
<text text-anchor="start" x="648.122" y="-633.9" font-family="Arial" font-size="14.00" fill="#666666">[TEXT]</text>
<polygon fill="none" stroke="#000000" stroke-width="3" points="566,-621.5 566,-1049.5 770,-1049.5 770,-621.5 566,-621.5"/>
</g>
<!-- device -->
<g id="node6" class="node">
<title>device</title>
<polygon fill="#efefef" stroke="transparent" points="739,-462.5 739,-497.5 946,-497.5 946,-462.5 739,-462.5"/>
<polygon fill="none" stroke="#000000" points="739,-462.5 739,-497.5 946,-497.5 946,-462.5 739,-462.5"/>
<text text-anchor="start" x="780.3281" y="-475.3" font-family="Arial Bold" font-size="18.00" fill="#000000">device</text>
<text text-anchor="start" x="832.3409" y="-475.3" font-family="Arial" font-size="14.00" fill="#000000">    </text>
<text text-anchor="start" x="866.5457" y="-475.3" font-family="Arial" font-size="14.00" fill="#666666">[table]</text>
<polygon fill="none" stroke="#000000" points="739,-432.5 739,-462.5 946,-462.5 946,-432.5 739,-432.5"/>
<text text-anchor="start" x="746" y="-443.9" font-family="Arial" font-size="14.00" fill="#000000">device_id    </text>
<text text-anchor="start" x="839.331" y="-443.9" font-family="Arial" font-size="14.00" fill="#666666">[ULID]</text>
<polygon fill="none" stroke="#000000" points="739,-402.5 739,-432.5 946,-432.5 946,-402.5 739,-402.5"/>
<text text-anchor="start" x="746" y="-413.9" font-family="Arial" font-size="14.00" fill="#000000">name    </text>
<text text-anchor="start" x="815.2132" y="-413.9" font-family="Arial" font-size="14.00" fill="#666666">[TEXT]</text>
<polygon fill="none" stroke="#000000" points="739,-372.5 739,-402.5 946,-402.5 946,-372.5 739,-372.5"/>
<text text-anchor="start" x="746" y="-383.9" font-family="Arial" font-size="14.00" fill="#000000">state    </text>
<text text-anchor="start" x="810.5512" y="-383.9" font-family="Arial" font-size="14.00" fill="#666666">[TEXT]</text>
<polygon fill="none" stroke="#000000" points="739,-342.5 739,-372.5 946,-372.5 946,-342.5 739,-342.5"/>
<text text-anchor="start" x="746" y="-353.9" font-family="Arial" font-size="14.00" fill="#000000">boundary    </text>
<text text-anchor="start" x="838.561" y="-353.9" font-family="Arial" font-size="14.00" fill="#666666">[TEXT]</text>
<polygon fill="none" stroke="#000000" points="739,-312.5 739,-342.5 946,-342.5 946,-312.5 739,-312.5"/>
<text text-anchor="start" x="746" y="-323.9" font-family="Arial" font-size="14.00" fill="#000000">segmentation    </text>
<text text-anchor="start" x="864.2314" y="-323.9" font-family="Arial" font-size="14.00" fill="#666666">[TEXT]</text>
<polygon fill="none" stroke="#000000" points="739,-282.5 739,-312.5 946,-312.5 946,-282.5 739,-282.5"/>
<text text-anchor="start" x="746" y="-293.9" font-family="Arial" font-size="14.00" fill="#000000">state_sysinfo    </text>
<text text-anchor="start" x="861.8962" y="-293.9" font-family="Arial" font-size="14.00" fill="#666666">[TEXT]</text>
<polygon fill="none" stroke="#000000" points="739,-252.5 739,-282.5 946,-282.5 946,-252.5 739,-252.5"/>
<text text-anchor="start" x="746" y="-263.9" font-family="Arial" font-size="14.00" fill="#000000">elaboration    </text>
<text text-anchor="start" x="849.4474" y="-263.9" font-family="Arial" font-size="14.00" fill="#666666">[TEXT]</text>
<polygon fill="none" stroke="#000000" points="739,-222.5 739,-252.5 946,-252.5 946,-222.5 739,-222.5"/>
<text text-anchor="start" x="746" y="-233.9" font-family="Arial" font-size="14.00" fill="#000000">created_at    </text>
<text text-anchor="start" x="846.3422" y="-233.9" font-family="Arial" font-size="14.00" fill="#666666">[TIMESTAMP]</text>
<polygon fill="none" stroke="#000000" points="739,-192.5 739,-222.5 946,-222.5 946,-192.5 739,-192.5"/>
<text text-anchor="start" x="746" y="-203.9" font-family="Arial" font-size="14.00" fill="#000000">created_by    </text>
<text text-anchor="start" x="849.4516" y="-203.9" font-family="Arial" font-size="14.00" fill="#666666">[TEXT]</text>
<polygon fill="none" stroke="#000000" points="739,-162.5 739,-192.5 946,-192.5 946,-162.5 739,-162.5"/>
<text text-anchor="start" x="745.6543" y="-173.9" font-family="Arial" font-size="14.00" fill="#000000">updated_at    </text>
<text text-anchor="start" x="849.9011" y="-173.9" font-family="Arial" font-size="14.00" fill="#666666">[TIMESTAMP]</text>
<polygon fill="none" stroke="#000000" points="739,-132.5 739,-162.5 946,-162.5 946,-132.5 739,-132.5"/>
<text text-anchor="start" x="746" y="-143.9" font-family="Arial" font-size="14.00" fill="#000000">updated_by    </text>
<text text-anchor="start" x="853.3562" y="-143.9" font-family="Arial" font-size="14.00" fill="#666666">[TEXT]</text>
<polygon fill="none" stroke="#000000" points="739,-102.5 739,-132.5 946,-132.5 946,-102.5 739,-102.5"/>
<text text-anchor="start" x="746" y="-113.9" font-family="Arial" font-size="14.00" fill="#000000">deleted_at    </text>
<text text-anchor="start" x="845.5708" y="-113.9" font-family="Arial" font-size="14.00" fill="#666666">[TIMESTAMP]</text>
<polygon fill="none" stroke="#000000" points="739,-72.5 739,-102.5 946,-102.5 946,-72.5 739,-72.5"/>
<text text-anchor="start" x="746" y="-83.9" font-family="Arial" font-size="14.00" fill="#000000">deleted_by    </text>
<text text-anchor="start" x="848.6802" y="-83.9" font-family="Arial" font-size="14.00" fill="#666666">[TEXT]</text>
<polygon fill="none" stroke="#000000" points="739,-42.5 739,-72.5 946,-72.5 946,-42.5 739,-42.5"/>
<text text-anchor="start" x="746" y="-53.9" font-family="Arial" font-size="14.00" fill="#000000">activity_log    </text>
<text text-anchor="start" x="849.4362" y="-53.9" font-family="Arial" font-size="14.00" fill="#666666">[TEXT]</text>
</g>
<!-- behavior&#45;&gt;device -->
<g id="edge6" class="edge">
<title>behavior:device_id&#45;&gt;device:device_id</title>
<path fill="none" stroke="#000000" d="M778.9628,-965.978C851.1292,-942.5425 797.3297,-655.248 769,-577 761.9098,-557.4167 746.0902,-560.5833 739,-541 724.8534,-501.9265 697.4444,-447.5 739,-447.5"/>
<polygon fill="#000000" stroke="#000000" points="778.8853,-965.9897 768.3204,-963.0516 773.9427,-966.7449 769,-967.5 769,-967.5 769,-967.5 773.9427,-966.7449 769.6796,-971.9484 778.8853,-965.9897 778.8853,-965.9897"/>
</g>
<!-- ur_walk_session -->
<g id="node2" class="node">
<title>ur_walk_session</title>
<polygon fill="#efefef" stroke="transparent" points="548,-1592.5 548,-1627.5 789,-1627.5 789,-1592.5 548,-1592.5"/>
<polygon fill="none" stroke="#000000" points="548,-1592.5 548,-1627.5 789,-1627.5 789,-1592.5 548,-1592.5"/>
<text text-anchor="start" x="565.8254" y="-1605.3" font-family="Arial Bold" font-size="18.00" fill="#000000">ur_walk_session</text>
<text text-anchor="start" x="698.8436" y="-1605.3" font-family="Arial" font-size="14.00" fill="#000000">    </text>
<text text-anchor="start" x="733.0484" y="-1605.3" font-family="Arial" font-size="14.00" fill="#666666">[table]</text>
<polygon fill="none" stroke="#000000" points="548,-1562.5 548,-1592.5 789,-1592.5 789,-1562.5 548,-1562.5"/>
<text text-anchor="start" x="555" y="-1573.9" font-family="Arial" font-size="14.00" fill="#000000">ur_walk_session_id    </text>
<text text-anchor="start" x="711.3352" y="-1573.9" font-family="Arial" font-size="14.00" fill="#666666">[ULID]</text>
<polygon fill="none" stroke="#000000" points="548,-1532.5 548,-1562.5 789,-1562.5 789,-1532.5 548,-1532.5"/>
<text text-anchor="start" x="555" y="-1543.9" font-family="Arial" font-size="14.00" fill="#000000">device_id    </text>
<text text-anchor="start" x="648.331" y="-1543.9" font-family="Arial" font-size="14.00" fill="#666666">[ULID]</text>
<polygon fill="none" stroke="#000000" points="548,-1502.5 548,-1532.5 789,-1532.5 789,-1502.5 548,-1502.5"/>
<text text-anchor="start" x="555" y="-1513.9" font-family="Arial" font-size="14.00" fill="#000000">behavior_id    </text>
<text text-anchor="start" x="661.5568" y="-1513.9" font-family="Arial" font-size="14.00" fill="#666666">[ULID]</text>
<polygon fill="none" stroke="#000000" points="548,-1472.5 548,-1502.5 789,-1502.5 789,-1472.5 548,-1472.5"/>
<text text-anchor="start" x="555" y="-1483.9" font-family="Arial" font-size="14.00" fill="#000000">behavior_json    </text>
<text text-anchor="start" x="676.3394" y="-1483.9" font-family="Arial" font-size="14.00" fill="#666666">[TEXT]</text>
<polygon fill="none" stroke="#000000" points="548,-1442.5 548,-1472.5 789,-1472.5 789,-1442.5 548,-1442.5"/>
<text text-anchor="start" x="555" y="-1453.9" font-family="Arial" font-size="14.00" fill="#000000">walk_started_at    </text>
<text text-anchor="start" x="687.2286" y="-1453.9" font-family="Arial" font-size="14.00" fill="#666666">[TIMESTAMP]</text>
<polygon fill="none" stroke="#000000" points="548,-1412.5 548,-1442.5 789,-1442.5 789,-1412.5 548,-1412.5"/>
<text text-anchor="start" x="554.9411" y="-1423.9" font-family="Arial" font-size="14.00" fill="#000000">walk_finished_at    </text>
<text text-anchor="start" x="692.6143" y="-1423.9" font-family="Arial" font-size="14.00" fill="#666666">[TIMESTAMP]</text>
<polygon fill="none" stroke="#000000" points="548,-1382.5 548,-1412.5 789,-1412.5 789,-1382.5 548,-1382.5"/>
<text text-anchor="start" x="555" y="-1393.9" font-family="Arial" font-size="14.00" fill="#000000">elaboration    </text>
<text text-anchor="start" x="658.4474" y="-1393.9" font-family="Arial" font-size="14.00" fill="#666666">[TEXT]</text>
<polygon fill="none" stroke="#000000" points="548,-1352.5 548,-1382.5 789,-1382.5 789,-1352.5 548,-1352.5"/>
<text text-anchor="start" x="555" y="-1363.9" font-family="Arial" font-size="14.00" fill="#000000">created_at    </text>
<text text-anchor="start" x="655.3422" y="-1363.9" font-family="Arial" font-size="14.00" fill="#666666">[TIMESTAMP]</text>
<polygon fill="none" stroke="#000000" points="548,-1322.5 548,-1352.5 789,-1352.5 789,-1322.5 548,-1322.5"/>
<text text-anchor="start" x="555" y="-1333.9" font-family="Arial" font-size="14.00" fill="#000000">created_by    </text>
<text text-anchor="start" x="658.4516" y="-1333.9" font-family="Arial" font-size="14.00" fill="#666666">[TEXT]</text>
<polygon fill="none" stroke="#000000" points="548,-1292.5 548,-1322.5 789,-1322.5 789,-1292.5 548,-1292.5"/>
<text text-anchor="start" x="555" y="-1303.9" font-family="Arial" font-size="14.00" fill="#000000">updated_at    </text>
<text text-anchor="start" x="659.2468" y="-1303.9" font-family="Arial" font-size="14.00" fill="#666666">[TIMESTAMP]</text>
<polygon fill="none" stroke="#000000" points="548,-1262.5 548,-1292.5 789,-1292.5 789,-1262.5 548,-1262.5"/>
<text text-anchor="start" x="555" y="-1273.9" font-family="Arial" font-size="14.00" fill="#000000">updated_by    </text>
<text text-anchor="start" x="662.3562" y="-1273.9" font-family="Arial" font-size="14.00" fill="#666666">[TEXT]</text>
<polygon fill="none" stroke="#000000" points="548,-1232.5 548,-1262.5 789,-1262.5 789,-1232.5 548,-1232.5"/>
<text text-anchor="start" x="555" y="-1243.9" font-family="Arial" font-size="14.00" fill="#000000">deleted_at    </text>
<text text-anchor="start" x="654.5708" y="-1243.9" font-family="Arial" font-size="14.00" fill="#666666">[TIMESTAMP]</text>
<polygon fill="none" stroke="#000000" points="548,-1202.5 548,-1232.5 789,-1232.5 789,-1202.5 548,-1202.5"/>
<text text-anchor="start" x="555" y="-1213.9" font-family="Arial" font-size="14.00" fill="#000000">deleted_by    </text>
<text text-anchor="start" x="657.6802" y="-1213.9" font-family="Arial" font-size="14.00" fill="#666666">[TEXT]</text>
<polygon fill="none" stroke="#000000" points="548,-1172.5 548,-1202.5 789,-1202.5 789,-1172.5 548,-1172.5"/>
<text text-anchor="start" x="555" y="-1183.9" font-family="Arial" font-size="14.00" fill="#000000">activity_log    </text>
<text text-anchor="start" x="658.4362" y="-1183.9" font-family="Arial" font-size="14.00" fill="#666666">[TEXT]</text>
</g>
<!-- ur_walk_session&#45;&gt;behavior -->
<g id="edge1" class="edge">
<title>ur_walk_session:behavior_id&#45;&gt;behavior:behavior_id</title>
<path fill="none" stroke="#000000" d="M537.9979,-1517.1685C317.3493,-1502.3772 340.1059,-997.5 568,-997.5"/>
<polygon fill="#000000" stroke="#000000" points="538.0055,-1517.1687 547.8509,-1521.9975 543.0027,-1517.3343 548,-1517.5 548,-1517.5 548,-1517.5 543.0027,-1517.3343 548.1491,-1513.0025 538.0055,-1517.1687 538.0055,-1517.1687"/>
</g>
<!-- ur_walk_session&#45;&gt;device -->
<g id="edge5" class="edge">
<title>ur_walk_session:device_id&#45;&gt;device:device_id</title>
<path fill="none" stroke="#000000" d="M799.1933,-1546.9023C1000.329,-1522.6874 818.3275,-769.7397 911,-577 920.6699,-556.8886 937.6057,-561.6763 946,-541 961.6319,-502.4966 987.5556,-447.5 946,-447.5"/>
<polygon fill="#000000" stroke="#000000" points="798.9829,-1546.9146 788.7366,-1543.0077 793.9914,-1547.2073 789,-1547.5 789,-1547.5 789,-1547.5 793.9914,-1547.2073 789.2634,-1551.9923 798.9829,-1546.9146 798.9829,-1546.9146"/>
</g>
<!-- ur_walk_session_path -->
<g id="node3" class="node">
<title>ur_walk_session_path</title>
<polygon fill="#efefef" stroke="transparent" points="43,-2229.5 43,-2264.5 307,-2264.5 307,-2229.5 43,-2229.5"/>
<polygon fill="none" stroke="#000000" points="43,-2229.5 43,-2264.5 307,-2264.5 307,-2229.5 43,-2229.5"/>
<text text-anchor="start" x="49.8119" y="-2242.3" font-family="Arial Bold" font-size="18.00" fill="#000000">ur_walk_session_path</text>
<text text-anchor="start" x="227.8571" y="-2242.3" font-family="Arial" font-size="14.00" fill="#000000">    </text>
<text text-anchor="start" x="262.0619" y="-2242.3" font-family="Arial" font-size="14.00" fill="#666666">[table]</text>
<polygon fill="none" stroke="#000000" points="43,-2199.5 43,-2229.5 307,-2229.5 307,-2199.5 43,-2199.5"/>
<text text-anchor="start" x="50" y="-2210.9" font-family="Arial" font-size="14.00" fill="#000000">ur_walk_session_path_id    </text>
<text text-anchor="start" x="241.3562" y="-2210.9" font-family="Arial" font-size="14.00" fill="#666666">[ULID]</text>
<polygon fill="none" stroke="#000000" points="43,-2169.5 43,-2199.5 307,-2199.5 307,-2169.5 43,-2169.5"/>
<text text-anchor="start" x="50" y="-2180.9" font-family="Arial" font-size="14.00" fill="#000000">walk_session_id    </text>
<text text-anchor="start" x="186.1094" y="-2180.9" font-family="Arial" font-size="14.00" fill="#666666">[ULID]</text>
<polygon fill="none" stroke="#000000" points="43,-2139.5 43,-2169.5 307,-2169.5 307,-2139.5 43,-2139.5"/>
<text text-anchor="start" x="50" y="-2150.9" font-family="Arial" font-size="14.00" fill="#000000">root_path    </text>
<text text-anchor="start" x="143.3422" y="-2150.9" font-family="Arial" font-size="14.00" fill="#666666">[TEXT]</text>
<polygon fill="none" stroke="#000000" points="43,-2109.5 43,-2139.5 307,-2139.5 307,-2109.5 43,-2109.5"/>
<text text-anchor="start" x="50" y="-2120.9" font-family="Arial" font-size="14.00" fill="#000000">elaboration    </text>
<text text-anchor="start" x="153.4474" y="-2120.9" font-family="Arial" font-size="14.00" fill="#666666">[TEXT]</text>
<polygon fill="none" stroke="#000000" points="43,-2079.5 43,-2109.5 307,-2109.5 307,-2079.5 43,-2079.5"/>
<text text-anchor="start" x="50" y="-2090.9" font-family="Arial" font-size="14.00" fill="#000000">created_at    </text>
<text text-anchor="start" x="150.3422" y="-2090.9" font-family="Arial" font-size="14.00" fill="#666666">[TIMESTAMP]</text>
<polygon fill="none" stroke="#000000" points="43,-2049.5 43,-2079.5 307,-2079.5 307,-2049.5 43,-2049.5"/>
<text text-anchor="start" x="50" y="-2060.9" font-family="Arial" font-size="14.00" fill="#000000">created_by    </text>
<text text-anchor="start" x="153.4516" y="-2060.9" font-family="Arial" font-size="14.00" fill="#666666">[TEXT]</text>
<polygon fill="none" stroke="#000000" points="43,-2019.5 43,-2049.5 307,-2049.5 307,-2019.5 43,-2019.5"/>
<text text-anchor="start" x="50" y="-2030.9" font-family="Arial" font-size="14.00" fill="#000000">updated_at    </text>
<text text-anchor="start" x="154.2468" y="-2030.9" font-family="Arial" font-size="14.00" fill="#666666">[TIMESTAMP]</text>
<polygon fill="none" stroke="#000000" points="43,-1989.5 43,-2019.5 307,-2019.5 307,-1989.5 43,-1989.5"/>
<text text-anchor="start" x="50" y="-2000.9" font-family="Arial" font-size="14.00" fill="#000000">updated_by    </text>
<text text-anchor="start" x="157.3562" y="-2000.9" font-family="Arial" font-size="14.00" fill="#666666">[TEXT]</text>
<polygon fill="none" stroke="#000000" points="43,-1959.5 43,-1989.5 307,-1989.5 307,-1959.5 43,-1959.5"/>
<text text-anchor="start" x="50" y="-1970.9" font-family="Arial" font-size="14.00" fill="#000000">deleted_at    </text>
<text text-anchor="start" x="149.5708" y="-1970.9" font-family="Arial" font-size="14.00" fill="#666666">[TIMESTAMP]</text>
<polygon fill="none" stroke="#000000" points="43,-1929.5 43,-1959.5 307,-1959.5 307,-1929.5 43,-1929.5"/>
<text text-anchor="start" x="50" y="-1940.9" font-family="Arial" font-size="14.00" fill="#000000">deleted_by    </text>
<text text-anchor="start" x="152.6802" y="-1940.9" font-family="Arial" font-size="14.00" fill="#666666">[TEXT]</text>
<polygon fill="none" stroke="#000000" points="43,-1899.5 43,-1929.5 307,-1929.5 307,-1899.5 43,-1899.5"/>
<text text-anchor="start" x="50" y="-1910.9" font-family="Arial" font-size="14.00" fill="#000000">activity_log    </text>
<text text-anchor="start" x="153.4362" y="-1910.9" font-family="Arial" font-size="14.00" fill="#666666">[TEXT]</text>
</g>
<!-- ur_walk_session_path&#45;&gt;ur_walk_session -->
<g id="edge2" class="edge">
<title>ur_walk_session_path:walk_session_id&#45;&gt;ur_walk_session:ur_walk_session_id</title>
<path fill="none" stroke="#000000" d="M316.9307,-2183.2486C406.6448,-2159.1976 306.008,-1795.549 359,-1707 411.2896,-1619.6247 446.1735,-1577.5 548,-1577.5"/>
<polygon fill="#000000" stroke="#000000" points="316.9215,-2183.2496 306.4373,-2180.0353 311.9608,-2183.8748 307,-2184.5 307,-2184.5 307,-2184.5 311.9608,-2183.8748 307.5627,-2188.9647 316.9215,-2183.2496 316.9215,-2183.2496"/>
</g>
<!-- uniform_resource -->
<g id="node4" class="node">
<title>uniform_resource</title>
<polygon fill="#efefef" stroke="transparent" points="853,-2364.5 853,-2399.5 1087,-2399.5 1087,-2364.5 853,-2364.5"/>
<polygon fill="none" stroke="#000000" points="853,-2364.5 853,-2399.5 1087,-2399.5 1087,-2364.5 853,-2364.5"/>
<text text-anchor="start" x="863.8271" y="-2377.3" font-family="Arial Bold" font-size="18.00" fill="#000000">uniform_resource</text>
<text text-anchor="start" x="1003.8419" y="-2377.3" font-family="Arial" font-size="14.00" fill="#000000">    </text>
<text text-anchor="start" x="1038.0467" y="-2377.3" font-family="Arial" font-size="14.00" fill="#666666">[table]</text>
<polygon fill="none" stroke="#000000" points="853,-2334.5 853,-2364.5 1087,-2364.5 1087,-2334.5 853,-2334.5"/>
<text text-anchor="start" x="860" y="-2345.9" font-family="Arial" font-size="14.00" fill="#000000">uniform_resource_id    </text>
<text text-anchor="start" x="1021.777" y="-2345.9" font-family="Arial" font-size="14.00" fill="#666666">[ULID]</text>
<polygon fill="none" stroke="#000000" points="853,-2304.5 853,-2334.5 1087,-2334.5 1087,-2304.5 853,-2304.5"/>
<text text-anchor="start" x="860" y="-2315.9" font-family="Arial" font-size="14.00" fill="#000000">device_id    </text>
<text text-anchor="start" x="953.331" y="-2315.9" font-family="Arial" font-size="14.00" fill="#666666">[ULID]</text>
<polygon fill="none" stroke="#000000" points="853,-2274.5 853,-2304.5 1087,-2304.5 1087,-2274.5 853,-2274.5"/>
<text text-anchor="start" x="860" y="-2285.9" font-family="Arial" font-size="14.00" fill="#000000">walk_session_id    </text>
<text text-anchor="start" x="996.1094" y="-2285.9" font-family="Arial" font-size="14.00" fill="#666666">[ULID]</text>
<polygon fill="none" stroke="#000000" points="853,-2244.5 853,-2274.5 1087,-2274.5 1087,-2244.5 853,-2244.5"/>
<text text-anchor="start" x="860" y="-2255.9" font-family="Arial" font-size="14.00" fill="#000000">walk_path_id    </text>
<text text-anchor="start" x="975.8934" y="-2255.9" font-family="Arial" font-size="14.00" fill="#666666">[ULID]</text>
<polygon fill="none" stroke="#000000" points="853,-2214.5 853,-2244.5 1087,-2244.5 1087,-2214.5 853,-2214.5"/>
<text text-anchor="start" x="860" y="-2225.9" font-family="Arial" font-size="14.00" fill="#000000">uri    </text>
<text text-anchor="start" x="909.7546" y="-2225.9" font-family="Arial" font-size="14.00" fill="#666666">[TEXT]</text>
<polygon fill="none" stroke="#000000" points="853,-2184.5 853,-2214.5 1087,-2214.5 1087,-2184.5 853,-2184.5"/>
<text text-anchor="start" x="860" y="-2195.9" font-family="Arial" font-size="14.00" fill="#000000">content_digest    </text>
<text text-anchor="start" x="985.244" y="-2195.9" font-family="Arial" font-size="14.00" fill="#666666">[TEXT]</text>
<polygon fill="none" stroke="#000000" points="853,-2154.5 853,-2184.5 1087,-2184.5 1087,-2154.5 853,-2154.5"/>
<text text-anchor="start" x="860" y="-2165.9" font-family="Arial" font-size="14.00" fill="#000000">content    </text>
<text text-anchor="start" x="940.1164" y="-2165.9" font-family="Arial" font-size="14.00" fill="#666666">[BLOB]</text>
<polygon fill="none" stroke="#000000" points="853,-2124.5 853,-2154.5 1087,-2154.5 1087,-2124.5 853,-2124.5"/>
<text text-anchor="start" x="860" y="-2135.9" font-family="Arial" font-size="14.00" fill="#000000">nature    </text>
<text text-anchor="start" x="933.8864" y="-2135.9" font-family="Arial" font-size="14.00" fill="#666666">[TEXT]</text>
<polygon fill="none" stroke="#000000" points="853,-2094.5 853,-2124.5 1087,-2124.5 1087,-2094.5 853,-2094.5"/>
<text text-anchor="start" x="860" y="-2105.9" font-family="Arial" font-size="14.00" fill="#000000">size_bytes    </text>
<text text-anchor="start" x="960.3324" y="-2105.9" font-family="Arial" font-size="14.00" fill="#666666">[INTEGER]</text>
<polygon fill="none" stroke="#000000" points="853,-2064.5 853,-2094.5 1087,-2094.5 1087,-2064.5 853,-2064.5"/>
<text text-anchor="start" x="860" y="-2075.9" font-family="Arial" font-size="14.00" fill="#000000">last_modified_at    </text>
<text text-anchor="start" x="996.1178" y="-2075.9" font-family="Arial" font-size="14.00" fill="#666666">[INTEGER]</text>
<polygon fill="none" stroke="#000000" points="853,-2034.5 853,-2064.5 1087,-2064.5 1087,-2034.5 853,-2034.5"/>
<text text-anchor="start" x="859.9264" y="-2045.9" font-family="Arial" font-size="14.00" fill="#000000">content_fm_body_attrs    </text>
<text text-anchor="start" x="1036.514" y="-2045.9" font-family="Arial" font-size="14.00" fill="#666666">[TEXT]</text>
<polygon fill="none" stroke="#000000" points="853,-2004.5 853,-2034.5 1087,-2034.5 1087,-2004.5 853,-2004.5"/>
<text text-anchor="start" x="860" y="-2015.9" font-family="Arial" font-size="14.00" fill="#000000">frontmatter    </text>
<text text-anchor="start" x="961.8794" y="-2015.9" font-family="Arial" font-size="14.00" fill="#666666">[TEXT]</text>
<polygon fill="none" stroke="#000000" points="853,-1974.5 853,-2004.5 1087,-2004.5 1087,-1974.5 853,-1974.5"/>
<text text-anchor="start" x="860" y="-1985.9" font-family="Arial" font-size="14.00" fill="#000000">elaboration    </text>
<text text-anchor="start" x="963.4474" y="-1985.9" font-family="Arial" font-size="14.00" fill="#666666">[TEXT]</text>
<polygon fill="none" stroke="#000000" points="853,-1944.5 853,-1974.5 1087,-1974.5 1087,-1944.5 853,-1944.5"/>
<text text-anchor="start" x="860" y="-1955.9" font-family="Arial" font-size="14.00" fill="#000000">created_at    </text>
<text text-anchor="start" x="960.3422" y="-1955.9" font-family="Arial" font-size="14.00" fill="#666666">[TIMESTAMP]</text>
<polygon fill="none" stroke="#000000" points="853,-1914.5 853,-1944.5 1087,-1944.5 1087,-1914.5 853,-1914.5"/>
<text text-anchor="start" x="860" y="-1925.9" font-family="Arial" font-size="14.00" fill="#000000">created_by    </text>
<text text-anchor="start" x="963.4516" y="-1925.9" font-family="Arial" font-size="14.00" fill="#666666">[TEXT]</text>
<polygon fill="none" stroke="#000000" points="853,-1884.5 853,-1914.5 1087,-1914.5 1087,-1884.5 853,-1884.5"/>
<text text-anchor="start" x="860" y="-1895.9" font-family="Arial" font-size="14.00" fill="#000000">updated_at    </text>
<text text-anchor="start" x="964.2468" y="-1895.9" font-family="Arial" font-size="14.00" fill="#666666">[TIMESTAMP]</text>
<polygon fill="none" stroke="#000000" points="853,-1854.5 853,-1884.5 1087,-1884.5 1087,-1854.5 853,-1854.5"/>
<text text-anchor="start" x="860" y="-1865.9" font-family="Arial" font-size="14.00" fill="#000000">updated_by    </text>
<text text-anchor="start" x="967.3562" y="-1865.9" font-family="Arial" font-size="14.00" fill="#666666">[TEXT]</text>
<polygon fill="none" stroke="#000000" points="853,-1824.5 853,-1854.5 1087,-1854.5 1087,-1824.5 853,-1824.5"/>
<text text-anchor="start" x="860" y="-1835.9" font-family="Arial" font-size="14.00" fill="#000000">deleted_at    </text>
<text text-anchor="start" x="959.5708" y="-1835.9" font-family="Arial" font-size="14.00" fill="#666666">[TIMESTAMP]</text>
<polygon fill="none" stroke="#000000" points="853,-1794.5 853,-1824.5 1087,-1824.5 1087,-1794.5 853,-1794.5"/>
<text text-anchor="start" x="860" y="-1805.9" font-family="Arial" font-size="14.00" fill="#000000">deleted_by    </text>
<text text-anchor="start" x="962.6802" y="-1805.9" font-family="Arial" font-size="14.00" fill="#666666">[TEXT]</text>
<polygon fill="none" stroke="#000000" points="853,-1764.5 853,-1794.5 1087,-1794.5 1087,-1764.5 853,-1764.5"/>
<text text-anchor="start" x="860" y="-1775.9" font-family="Arial" font-size="14.00" fill="#000000">activity_log    </text>
<text text-anchor="start" x="963.4362" y="-1775.9" font-family="Arial" font-size="14.00" fill="#666666">[TEXT]</text>
</g>
<!-- uniform_resource&#45;&gt;ur_walk_session -->
<g id="edge3" class="edge">
<title>uniform_resource:walk_session_id&#45;&gt;ur_walk_session:ur_walk_session_id</title>
<path fill="none" stroke="#000000" d="M843.6987,-2285.6692C781.4002,-2229.6271 865.0171,-1577.5 789,-1577.5"/>
<polygon fill="#000000" stroke="#000000" points="843.7535,-2285.6918 851.2863,-2293.6609 848.3767,-2287.5959 853,-2289.5 853,-2289.5 853,-2289.5 848.3767,-2287.5959 854.7137,-2285.3391 843.7535,-2285.6918 843.7535,-2285.6918"/>
</g>
<!-- uniform_resource&#45;&gt;device -->
<g id="edge7" class="edge">
<title>uniform_resource:device_id&#45;&gt;device:device_id</title>
<path fill="none" stroke="#000000" d="M842.9445,-2317.8785C661.9488,-2256.0624 1150.6974,-447.5 946,-447.5"/>
<polygon fill="#000000" stroke="#000000" points="843.1275,-2317.9079 852.2836,-2323.9426 848.0638,-2318.7039 853,-2319.5 853,-2319.5 853,-2319.5 848.0638,-2318.7039 853.7164,-2315.0574 843.1275,-2317.9079 843.1275,-2317.9079"/>
</g>
<!-- ur_walk_session_path_fs_entry -->
<g id="node5" class="node">
<title>ur_walk_session_path_fs_entry</title>
<polygon fill="#efefef" stroke="transparent" points="411,-2379.5 411,-2414.5 749,-2414.5 749,-2379.5 411,-2379.5"/>
<polygon fill="none" stroke="#000000" points="411,-2379.5 411,-2414.5 749,-2414.5 749,-2379.5 411,-2379.5"/>
<text text-anchor="start" x="417.8012" y="-2392.3" font-family="Arial Bold" font-size="18.00" fill="#000000">ur_walk_session_path_fs_entry</text>
<text text-anchor="start" x="669.8678" y="-2392.3" font-family="Arial" font-size="14.00" fill="#000000">    </text>
<text text-anchor="start" x="704.0726" y="-2392.3" font-family="Arial" font-size="14.00" fill="#666666">[table]</text>
<polygon fill="none" stroke="#000000" points="411,-2349.5 411,-2379.5 749,-2379.5 749,-2349.5 411,-2349.5"/>
<text text-anchor="start" x="418" y="-2360.9" font-family="Arial" font-size="14.00" fill="#000000">ur_walk_session_path_fs_entry_id    </text>
<text text-anchor="start" x="666.9284" y="-2360.9" font-family="Arial" font-size="14.00" fill="#666666">[ULID]</text>
<polygon fill="none" stroke="#000000" points="411,-2319.5 411,-2349.5 749,-2349.5 749,-2319.5 411,-2319.5"/>
<text text-anchor="start" x="418" y="-2330.9" font-family="Arial" font-size="14.00" fill="#000000">walk_session_id    </text>
<text text-anchor="start" x="554.1094" y="-2330.9" font-family="Arial" font-size="14.00" fill="#666666">[ULID]</text>
<polygon fill="none" stroke="#000000" points="411,-2289.5 411,-2319.5 749,-2319.5 749,-2289.5 411,-2289.5"/>
<text text-anchor="start" x="418" y="-2300.9" font-family="Arial" font-size="14.00" fill="#000000">walk_path_id    </text>
<text text-anchor="start" x="533.8934" y="-2300.9" font-family="Arial" font-size="14.00" fill="#666666">[ULID]</text>
<polygon fill="none" stroke="#000000" points="411,-2259.5 411,-2289.5 749,-2289.5 749,-2259.5 411,-2259.5"/>
<text text-anchor="start" x="418" y="-2270.9" font-family="Arial" font-size="14.00" fill="#000000">uniform_resource_id    </text>
<text text-anchor="start" x="579.777" y="-2270.9" font-family="Arial" font-size="14.00" fill="#666666">[ULID]</text>
<polygon fill="none" stroke="#000000" points="411,-2229.5 411,-2259.5 749,-2259.5 749,-2229.5 411,-2229.5"/>
<text text-anchor="start" x="418" y="-2240.9" font-family="Arial" font-size="14.00" fill="#000000">file_path_abs    </text>
<text text-anchor="start" x="535.46" y="-2240.9" font-family="Arial" font-size="14.00" fill="#666666">[TEXT]</text>
<polygon fill="none" stroke="#000000" points="411,-2199.5 411,-2229.5 749,-2229.5 749,-2199.5 411,-2199.5"/>
<text text-anchor="start" x="418" y="-2210.9" font-family="Arial" font-size="14.00" fill="#000000">file_path_rel_parent    </text>
<text text-anchor="start" x="575.9088" y="-2210.9" font-family="Arial" font-size="14.00" fill="#666666">[TEXT]</text>
<polygon fill="none" stroke="#000000" points="411,-2169.5 411,-2199.5 749,-2199.5 749,-2169.5 411,-2169.5"/>
<text text-anchor="start" x="418" y="-2180.9" font-family="Arial" font-size="14.00" fill="#000000">file_path_rel    </text>
<text text-anchor="start" x="528.4446" y="-2180.9" font-family="Arial" font-size="14.00" fill="#666666">[TEXT]</text>
<polygon fill="none" stroke="#000000" points="411,-2139.5 411,-2169.5 749,-2169.5 749,-2139.5 411,-2139.5"/>
<text text-anchor="start" x="418" y="-2150.9" font-family="Arial" font-size="14.00" fill="#000000">file_basename    </text>
<text text-anchor="start" x="543.23" y="-2150.9" font-family="Arial" font-size="14.00" fill="#666666">[TEXT]</text>
<polygon fill="none" stroke="#000000" points="411,-2109.5 411,-2139.5 749,-2139.5 749,-2109.5 411,-2109.5"/>
<text text-anchor="start" x="418" y="-2120.9" font-family="Arial" font-size="14.00" fill="#000000">file_extn    </text>
<text text-anchor="start" x="504.3296" y="-2120.9" font-family="Arial" font-size="14.00" fill="#666666">[TEXT]</text>
<polygon fill="none" stroke="#000000" points="411,-2079.5 411,-2109.5 749,-2109.5 749,-2079.5 411,-2079.5"/>
<text text-anchor="start" x="418" y="-2090.9" font-family="Arial" font-size="14.00" fill="#000000">captured_executable    </text>
<text text-anchor="start" x="582.1444" y="-2090.9" font-family="Arial" font-size="14.00" fill="#666666">[TEXT]</text>
<polygon fill="none" stroke="#000000" points="411,-2049.5 411,-2079.5 749,-2079.5 749,-2049.5 411,-2049.5"/>
<text text-anchor="start" x="418" y="-2060.9" font-family="Arial" font-size="14.00" fill="#000000">ur_status    </text>
<text text-anchor="start" x="509.777" y="-2060.9" font-family="Arial" font-size="14.00" fill="#666666">[TEXT]</text>
<polygon fill="none" stroke="#000000" points="411,-2019.5 411,-2049.5 749,-2049.5 749,-2019.5 411,-2019.5"/>
<text text-anchor="start" x="418" y="-2030.9" font-family="Arial" font-size="14.00" fill="#000000">ur_diagnostics    </text>
<text text-anchor="start" x="542.4474" y="-2030.9" font-family="Arial" font-size="14.00" fill="#666666">[TEXT]</text>
<polygon fill="none" stroke="#000000" points="411,-1989.5 411,-2019.5 749,-2019.5 749,-1989.5 411,-1989.5"/>
<text text-anchor="start" x="418" y="-2000.9" font-family="Arial" font-size="14.00" fill="#000000">ur_transformations    </text>
<text text-anchor="start" x="568.8864" y="-2000.9" font-family="Arial" font-size="14.00" fill="#666666">[TEXT]</text>
<polygon fill="none" stroke="#000000" points="411,-1959.5 411,-1989.5 749,-1989.5 749,-1959.5 411,-1959.5"/>
<text text-anchor="start" x="418" y="-1970.9" font-family="Arial" font-size="14.00" fill="#000000">elaboration    </text>
<text text-anchor="start" x="521.4474" y="-1970.9" font-family="Arial" font-size="14.00" fill="#666666">[TEXT]</text>
<polygon fill="none" stroke="#000000" points="411,-1929.5 411,-1959.5 749,-1959.5 749,-1929.5 411,-1929.5"/>
<text text-anchor="start" x="418" y="-1940.9" font-family="Arial" font-size="14.00" fill="#000000">created_at    </text>
<text text-anchor="start" x="518.3422" y="-1940.9" font-family="Arial" font-size="14.00" fill="#666666">[TIMESTAMP]</text>
<polygon fill="none" stroke="#000000" points="411,-1899.5 411,-1929.5 749,-1929.5 749,-1899.5 411,-1899.5"/>
<text text-anchor="start" x="418" y="-1910.9" font-family="Arial" font-size="14.00" fill="#000000">created_by    </text>
<text text-anchor="start" x="521.4516" y="-1910.9" font-family="Arial" font-size="14.00" fill="#666666">[TEXT]</text>
<polygon fill="none" stroke="#000000" points="411,-1869.5 411,-1899.5 749,-1899.5 749,-1869.5 411,-1869.5"/>
<text text-anchor="start" x="418" y="-1880.9" font-family="Arial" font-size="14.00" fill="#000000">updated_at    </text>
<text text-anchor="start" x="522.2468" y="-1880.9" font-family="Arial" font-size="14.00" fill="#666666">[TIMESTAMP]</text>
<polygon fill="none" stroke="#000000" points="411,-1839.5 411,-1869.5 749,-1869.5 749,-1839.5 411,-1839.5"/>
<text text-anchor="start" x="418" y="-1850.9" font-family="Arial" font-size="14.00" fill="#000000">updated_by    </text>
<text text-anchor="start" x="525.3562" y="-1850.9" font-family="Arial" font-size="14.00" fill="#666666">[TEXT]</text>
<polygon fill="none" stroke="#000000" points="411,-1809.5 411,-1839.5 749,-1839.5 749,-1809.5 411,-1809.5"/>
<text text-anchor="start" x="418" y="-1820.9" font-family="Arial" font-size="14.00" fill="#000000">deleted_at    </text>
<text text-anchor="start" x="517.5708" y="-1820.9" font-family="Arial" font-size="14.00" fill="#666666">[TIMESTAMP]</text>
<polygon fill="none" stroke="#000000" points="411,-1779.5 411,-1809.5 749,-1809.5 749,-1779.5 411,-1779.5"/>
<text text-anchor="start" x="418" y="-1790.9" font-family="Arial" font-size="14.00" fill="#000000">deleted_by    </text>
<text text-anchor="start" x="520.6802" y="-1790.9" font-family="Arial" font-size="14.00" fill="#666666">[TEXT]</text>
<polygon fill="none" stroke="#000000" points="411,-1749.5 411,-1779.5 749,-1779.5 749,-1749.5 411,-1749.5"/>
<text text-anchor="start" x="418" y="-1760.9" font-family="Arial" font-size="14.00" fill="#000000">activity_log    </text>
<text text-anchor="start" x="521.4362" y="-1760.9" font-family="Arial" font-size="14.00" fill="#666666">[TEXT]</text>
</g>
<!-- ur_walk_session_path_fs_entry&#45;&gt;ur_walk_session -->
<g id="edge4" class="edge">
<title>ur_walk_session_path_fs_entry:walk_session_id&#45;&gt;ur_walk_session:ur_walk_session_id</title>
<path fill="none" stroke="#000000" d="M758.5446,-2330.5216C816.2359,-2279.6836 791.5598,-1757.8597 749,-1707 690.7575,-1637.3993 606.2425,-1740.6007 548,-1671 521.3315,-1639.1307 506.4444,-1577.5 548,-1577.5"/>
<polygon fill="#000000" stroke="#000000" points="758.2303,-2330.6526 747.2687,-2330.3464 753.6151,-2332.5763 749,-2334.5 749,-2334.5 749,-2334.5 753.6151,-2332.5763 750.7313,-2338.6536 758.2303,-2330.6526 758.2303,-2330.6526"/>
</g>
</g>
</svg>
