<?xml version="1.0" encoding="UTF-8" standalone="no"?>
<!DOCTYPE svg PUBLIC "-//W3C//DTD SVG 1.1//EN"
 "http://www.w3.org/Graphics/SVG/1.1/DTD/svg11.dtd">
<!-- Generated by graphviz version 2.40.1 (20161225.0304)
 -->
<!-- Title: device Pages: 1 -->
<svg width="866pt" height="3710pt"
 viewBox="0.00 0.00 866.00 3710.00" xmlns="http://www.w3.org/2000/svg" xmlns:xlink="http://www.w3.org/1999/xlink">
<g id="graph0" class="graph" transform="scale(1 1) rotate(0) translate(4 3706)">
<title>device</title>
<polygon fill="#ffffff" stroke="transparent" points="-4,4 -4,-3706 862,-3706 862,4 -4,4"/>
<!-- device -->
<g id="node1" class="node">
<title>device</title>
<polygon fill="#efefef" stroke="transparent" points="393,-465.5 393,-500.5 570,-500.5 570,-465.5 393,-465.5"/>
<polygon fill="none" stroke="#000000" points="393,-465.5 393,-500.5 570,-500.5 570,-465.5 393,-465.5"/>
<text text-anchor="start" x="419.3281" y="-478.3" font-family="Arial Bold" font-size="18.00" fill="#000000">device</text>
<text text-anchor="start" x="471.3409" y="-478.3" font-family="Arial" font-size="14.00" fill="#000000">    </text>
<text text-anchor="start" x="505.5457" y="-478.3" font-family="Arial" font-size="14.00" fill="#666666">[table]</text>
<polygon fill="none" stroke="#000000" points="393,-435.5 393,-465.5 570,-465.5 570,-435.5 393,-435.5"/>
<text text-anchor="start" x="400" y="-446.9" font-family="Arial" font-size="14.00" fill="#000000">device_id </text>
<text text-anchor="start" x="463.0168" y="-446.9" font-family="Arial" font-size="14.00" fill="#666666">[VARCHAR]</text>
<polygon fill="none" stroke="#000000" points="393,-405.5 393,-435.5 570,-435.5 570,-405.5 393,-405.5"/>
<text text-anchor="start" x="400" y="-416.9" font-family="Arial" font-size="14.00" fill="#000000">name </text>
<text text-anchor="start" x="438.899" y="-416.9" font-family="Arial" font-size="14.00" fill="#666666">[TEXT]</text>
<polygon fill="none" stroke="#000000" points="393,-375.5 393,-405.5 570,-405.5 570,-375.5 393,-375.5"/>
<text text-anchor="start" x="400" y="-386.9" font-family="Arial" font-size="14.00" fill="#000000">state </text>
<text text-anchor="start" x="434.237" y="-386.9" font-family="Arial" font-size="14.00" fill="#666666">[TEXT]</text>
<polygon fill="none" stroke="#000000" points="393,-345.5 393,-375.5 570,-375.5 570,-345.5 393,-345.5"/>
<text text-anchor="start" x="400" y="-356.9" font-family="Arial" font-size="14.00" fill="#000000">boundary </text>
<text text-anchor="start" x="462.2468" y="-356.9" font-family="Arial" font-size="14.00" fill="#666666">[TEXT]</text>
<polygon fill="none" stroke="#000000" points="393,-315.5 393,-345.5 570,-345.5 570,-315.5 393,-315.5"/>
<text text-anchor="start" x="400" y="-326.9" font-family="Arial" font-size="14.00" fill="#000000">segmentation </text>
<text text-anchor="start" x="487.9172" y="-326.9" font-family="Arial" font-size="14.00" fill="#666666">[TEXT]</text>
<polygon fill="none" stroke="#000000" points="393,-285.5 393,-315.5 570,-315.5 570,-285.5 393,-285.5"/>
<text text-anchor="start" x="400" y="-296.9" font-family="Arial" font-size="14.00" fill="#000000">state_sysinfo </text>
<text text-anchor="start" x="485.582" y="-296.9" font-family="Arial" font-size="14.00" fill="#666666">[TEXT]</text>
<polygon fill="none" stroke="#000000" points="393,-255.5 393,-285.5 570,-285.5 570,-255.5 393,-255.5"/>
<text text-anchor="start" x="400" y="-266.9" font-family="Arial" font-size="14.00" fill="#000000">elaboration </text>
<text text-anchor="start" x="473.1332" y="-266.9" font-family="Arial" font-size="14.00" fill="#666666">[TEXT]</text>
<polygon fill="none" stroke="#000000" points="393,-225.5 393,-255.5 570,-255.5 570,-225.5 393,-225.5"/>
<text text-anchor="start" x="400" y="-236.9" font-family="Arial" font-size="14.00" fill="#000000">created_at </text>
<text text-anchor="start" x="470.028" y="-236.9" font-family="Arial" font-size="14.00" fill="#666666">[TIMESTAMP]</text>
<polygon fill="none" stroke="#000000" points="393,-195.5 393,-225.5 570,-225.5 570,-195.5 393,-195.5"/>
<text text-anchor="start" x="400" y="-206.9" font-family="Arial" font-size="14.00" fill="#000000">created_by </text>
<text text-anchor="start" x="473.1374" y="-206.9" font-family="Arial" font-size="14.00" fill="#666666">[TEXT]</text>
<polygon fill="none" stroke="#000000" points="393,-165.5 393,-195.5 570,-195.5 570,-165.5 393,-165.5"/>
<text text-anchor="start" x="399.8114" y="-176.9" font-family="Arial" font-size="14.00" fill="#000000">updated_at </text>
<text text-anchor="start" x="473.744" y="-176.9" font-family="Arial" font-size="14.00" fill="#666666">[TIMESTAMP]</text>
<polygon fill="none" stroke="#000000" points="393,-135.5 393,-165.5 570,-165.5 570,-135.5 393,-135.5"/>
<text text-anchor="start" x="400" y="-146.9" font-family="Arial" font-size="14.00" fill="#000000">updated_by </text>
<text text-anchor="start" x="477.042" y="-146.9" font-family="Arial" font-size="14.00" fill="#666666">[TEXT]</text>
<polygon fill="none" stroke="#000000" points="393,-105.5 393,-135.5 570,-135.5 570,-105.5 393,-105.5"/>
<text text-anchor="start" x="400" y="-116.9" font-family="Arial" font-size="14.00" fill="#000000">deleted_at </text>
<text text-anchor="start" x="469.2566" y="-116.9" font-family="Arial" font-size="14.00" fill="#666666">[TIMESTAMP]</text>
<polygon fill="none" stroke="#000000" points="393,-75.5 393,-105.5 570,-105.5 570,-75.5 393,-75.5"/>
<text text-anchor="start" x="400" y="-86.9" font-family="Arial" font-size="14.00" fill="#000000">deleted_by </text>
<text text-anchor="start" x="472.366" y="-86.9" font-family="Arial" font-size="14.00" fill="#666666">[TEXT]</text>
<polygon fill="none" stroke="#000000" points="393,-45.5 393,-75.5 570,-75.5 570,-45.5 393,-45.5"/>
<text text-anchor="start" x="400" y="-56.9" font-family="Arial" font-size="14.00" fill="#000000">activity_log </text>
<text text-anchor="start" x="473.122" y="-56.9" font-family="Arial" font-size="14.00" fill="#666666">[TEXT]</text>
<polygon fill="none" stroke="#000000" stroke-width="3" points="391,-44.5 391,-502.5 571,-502.5 571,-44.5 391,-44.5"/>
</g>
<!-- behavior -->
<g id="node2" class="node">
<title>behavior</title>
<polygon fill="#efefef" stroke="transparent" points="350,-1015.5 350,-1050.5 614,-1050.5 614,-1015.5 350,-1015.5"/>
<polygon fill="none" stroke="#000000" points="350,-1015.5 350,-1050.5 614,-1050.5 614,-1015.5 350,-1015.5"/>
<text text-anchor="start" x="411.3258" y="-1028.3" font-family="Arial Bold" font-size="18.00" fill="#000000">behavior</text>
<text text-anchor="start" x="480.3432" y="-1028.3" font-family="Arial" font-size="14.00" fill="#000000">    </text>
<text text-anchor="start" x="514.548" y="-1028.3" font-family="Arial" font-size="14.00" fill="#666666">[table]</text>
<polygon fill="none" stroke="#000000" points="350,-985.5 350,-1015.5 614,-1015.5 614,-985.5 350,-985.5"/>
<text text-anchor="start" x="357" y="-996.9" font-family="Arial" font-size="14.00" fill="#000000">behavior_id    </text>
<text text-anchor="start" x="463.5568" y="-996.9" font-family="Arial" font-size="14.00" fill="#666666">[VARCHAR]</text>
<polygon fill="none" stroke="#000000" points="350,-955.5 350,-985.5 614,-985.5 614,-955.5 350,-955.5"/>
<text text-anchor="start" x="357" y="-966.9" font-family="Arial" font-size="14.00" fill="#000000">device_id    </text>
<text text-anchor="start" x="450.331" y="-966.9" font-family="Arial" font-size="14.00" fill="#666666">[VARCHAR]</text>
<polygon fill="none" stroke="#000000" points="350,-925.5 350,-955.5 614,-955.5 614,-925.5 350,-925.5"/>
<text text-anchor="start" x="357" y="-936.9" font-family="Arial" font-size="14.00" fill="#000000">behavior_name    </text>
<text text-anchor="start" x="487.676" y="-936.9" font-family="Arial" font-size="14.00" fill="#666666">[TEXT]</text>
<polygon fill="none" stroke="#000000" points="350,-895.5 350,-925.5 614,-925.5 614,-895.5 350,-895.5"/>
<text text-anchor="start" x="357" y="-906.9" font-family="Arial" font-size="14.00" fill="#000000">behavior_conf_json    </text>
<text text-anchor="start" x="512.5778" y="-906.9" font-family="Arial" font-size="14.00" fill="#666666">[TEXT]</text>
<polygon fill="none" stroke="#000000" points="350,-865.5 350,-895.5 614,-895.5 614,-865.5 350,-865.5"/>
<text text-anchor="start" x="356.7707" y="-876.9" font-family="Arial" font-size="14.00" fill="#000000">assurance_schema_id    </text>
<text text-anchor="start" x="531.0119" y="-876.9" font-family="Arial" font-size="14.00" fill="#666666">[VARCHAR]</text>
<polygon fill="none" stroke="#000000" points="350,-835.5 350,-865.5 614,-865.5 614,-835.5 350,-835.5"/>
<text text-anchor="start" x="357" y="-846.9" font-family="Arial" font-size="14.00" fill="#000000">governance    </text>
<text text-anchor="start" x="464.3436" y="-846.9" font-family="Arial" font-size="14.00" fill="#666666">[TEXT]</text>
<polygon fill="none" stroke="#000000" points="350,-805.5 350,-835.5 614,-835.5 614,-805.5 350,-805.5"/>
<text text-anchor="start" x="357" y="-816.9" font-family="Arial" font-size="14.00" fill="#000000">created_at    </text>
<text text-anchor="start" x="457.3422" y="-816.9" font-family="Arial" font-size="14.00" fill="#666666">[TIMESTAMP]</text>
<polygon fill="none" stroke="#000000" points="350,-775.5 350,-805.5 614,-805.5 614,-775.5 350,-775.5"/>
<text text-anchor="start" x="357" y="-786.9" font-family="Arial" font-size="14.00" fill="#000000">created_by    </text>
<text text-anchor="start" x="460.4516" y="-786.9" font-family="Arial" font-size="14.00" fill="#666666">[TEXT]</text>
<polygon fill="none" stroke="#000000" points="350,-745.5 350,-775.5 614,-775.5 614,-745.5 350,-745.5"/>
<text text-anchor="start" x="357" y="-756.9" font-family="Arial" font-size="14.00" fill="#000000">updated_at    </text>
<text text-anchor="start" x="461.2468" y="-756.9" font-family="Arial" font-size="14.00" fill="#666666">[TIMESTAMP]</text>
<polygon fill="none" stroke="#000000" points="350,-715.5 350,-745.5 614,-745.5 614,-715.5 350,-715.5"/>
<text text-anchor="start" x="357" y="-726.9" font-family="Arial" font-size="14.00" fill="#000000">updated_by    </text>
<text text-anchor="start" x="464.3562" y="-726.9" font-family="Arial" font-size="14.00" fill="#666666">[TEXT]</text>
<polygon fill="none" stroke="#000000" points="350,-685.5 350,-715.5 614,-715.5 614,-685.5 350,-685.5"/>
<text text-anchor="start" x="357" y="-696.9" font-family="Arial" font-size="14.00" fill="#000000">deleted_at    </text>
<text text-anchor="start" x="456.5708" y="-696.9" font-family="Arial" font-size="14.00" fill="#666666">[TIMESTAMP]</text>
<polygon fill="none" stroke="#000000" points="350,-655.5 350,-685.5 614,-685.5 614,-655.5 350,-655.5"/>
<text text-anchor="start" x="357" y="-666.9" font-family="Arial" font-size="14.00" fill="#000000">deleted_by    </text>
<text text-anchor="start" x="459.6802" y="-666.9" font-family="Arial" font-size="14.00" fill="#666666">[TEXT]</text>
<polygon fill="none" stroke="#000000" points="350,-625.5 350,-655.5 614,-655.5 614,-625.5 350,-625.5"/>
<text text-anchor="start" x="357" y="-636.9" font-family="Arial" font-size="14.00" fill="#000000">activity_log    </text>
<text text-anchor="start" x="460.4362" y="-636.9" font-family="Arial" font-size="14.00" fill="#666666">[TEXT]</text>
</g>
<!-- behavior&#45;&gt;device -->
<g id="edge1" class="edge">
<title>behavior:device_id&#45;&gt;device:device_id</title>
<path fill="none" stroke="#000000" d="M339.9858,-968.9154C266.4216,-944.5271 296.53,-645.9308 350,-583 414.1531,-507.4959 505.8469,-622.5041 570,-547 597.7705,-514.3158 612.8889,-450.5 570,-450.5"/>
<polygon fill="#000000" stroke="#000000" points="340.1229,-968.937 349.2967,-974.9447 345.0614,-969.7185 350,-970.5 350,-970.5 350,-970.5 345.0614,-969.7185 350.7033,-966.0553 340.1229,-968.937 340.1229,-968.937"/>
</g>
<!-- ur_ingest_session -->
<g id="node3" class="node">
<title>ur_ingest_session</title>
<polygon fill="#efefef" stroke="transparent" points="151,-1592.5 151,-1627.5 406,-1627.5 406,-1592.5 151,-1592.5"/>
<polygon fill="none" stroke="#000000" points="151,-1592.5 151,-1627.5 406,-1627.5 406,-1592.5 151,-1592.5"/>
<text text-anchor="start" x="169.8152" y="-1605.3" font-family="Arial Bold" font-size="18.00" fill="#000000">ur_ingest_session</text>
<text text-anchor="start" x="314.8538" y="-1605.3" font-family="Arial" font-size="14.00" fill="#000000">    </text>
<text text-anchor="start" x="349.0586" y="-1605.3" font-family="Arial" font-size="14.00" fill="#666666">[table]</text>
<polygon fill="none" stroke="#000000" points="151,-1562.5 151,-1592.5 406,-1592.5 406,-1562.5 151,-1562.5"/>
<text text-anchor="start" x="157.5491" y="-1573.9" font-family="Arial" font-size="14.00" fill="#000000">ur_ingest_session_id    </text>
<text text-anchor="start" x="323.2335" y="-1573.9" font-family="Arial" font-size="14.00" fill="#666666">[VARCHAR]</text>
<polygon fill="none" stroke="#000000" points="151,-1532.5 151,-1562.5 406,-1562.5 406,-1532.5 151,-1532.5"/>
<text text-anchor="start" x="158" y="-1543.9" font-family="Arial" font-size="14.00" fill="#000000">device_id    </text>
<text text-anchor="start" x="251.331" y="-1543.9" font-family="Arial" font-size="14.00" fill="#666666">[VARCHAR]</text>
<polygon fill="none" stroke="#000000" points="151,-1502.5 151,-1532.5 406,-1532.5 406,-1502.5 151,-1502.5"/>
<text text-anchor="start" x="158" y="-1513.9" font-family="Arial" font-size="14.00" fill="#000000">behavior_id    </text>
<text text-anchor="start" x="264.5568" y="-1513.9" font-family="Arial" font-size="14.00" fill="#666666">[VARCHAR]</text>
<polygon fill="none" stroke="#000000" points="151,-1472.5 151,-1502.5 406,-1502.5 406,-1472.5 151,-1472.5"/>
<text text-anchor="start" x="158" y="-1483.9" font-family="Arial" font-size="14.00" fill="#000000">behavior_json    </text>
<text text-anchor="start" x="279.3394" y="-1483.9" font-family="Arial" font-size="14.00" fill="#666666">[TEXT]</text>
<polygon fill="none" stroke="#000000" points="151,-1442.5 151,-1472.5 406,-1472.5 406,-1442.5 151,-1442.5"/>
<text text-anchor="start" x="158" y="-1453.9" font-family="Arial" font-size="14.00" fill="#000000">ingest_started_at    </text>
<text text-anchor="start" x="299.5778" y="-1453.9" font-family="Arial" font-size="14.00" fill="#666666">[TIMESTAMP]</text>
<polygon fill="none" stroke="#000000" points="151,-1412.5 151,-1442.5 406,-1442.5 406,-1412.5 151,-1412.5"/>
<text text-anchor="start" x="158" y="-1423.9" font-family="Arial" font-size="14.00" fill="#000000">ingest_finished_at    </text>
<text text-anchor="start" x="305.0224" y="-1423.9" font-family="Arial" font-size="14.00" fill="#666666">[TIMESTAMP]</text>
<polygon fill="none" stroke="#000000" points="151,-1382.5 151,-1412.5 406,-1412.5 406,-1382.5 151,-1382.5"/>
<text text-anchor="start" x="158" y="-1393.9" font-family="Arial" font-size="14.00" fill="#000000">elaboration    </text>
<text text-anchor="start" x="261.4474" y="-1393.9" font-family="Arial" font-size="14.00" fill="#666666">[TEXT]</text>
<polygon fill="none" stroke="#000000" points="151,-1352.5 151,-1382.5 406,-1382.5 406,-1352.5 151,-1352.5"/>
<text text-anchor="start" x="158" y="-1363.9" font-family="Arial" font-size="14.00" fill="#000000">created_at    </text>
<text text-anchor="start" x="258.3422" y="-1363.9" font-family="Arial" font-size="14.00" fill="#666666">[TIMESTAMP]</text>
<polygon fill="none" stroke="#000000" points="151,-1322.5 151,-1352.5 406,-1352.5 406,-1322.5 151,-1322.5"/>
<text text-anchor="start" x="158" y="-1333.9" font-family="Arial" font-size="14.00" fill="#000000">created_by    </text>
<text text-anchor="start" x="261.4516" y="-1333.9" font-family="Arial" font-size="14.00" fill="#666666">[TEXT]</text>
<polygon fill="none" stroke="#000000" points="151,-1292.5 151,-1322.5 406,-1322.5 406,-1292.5 151,-1292.5"/>
<text text-anchor="start" x="158" y="-1303.9" font-family="Arial" font-size="14.00" fill="#000000">updated_at    </text>
<text text-anchor="start" x="262.2468" y="-1303.9" font-family="Arial" font-size="14.00" fill="#666666">[TIMESTAMP]</text>
<polygon fill="none" stroke="#000000" points="151,-1262.5 151,-1292.5 406,-1292.5 406,-1262.5 151,-1262.5"/>
<text text-anchor="start" x="158" y="-1273.9" font-family="Arial" font-size="14.00" fill="#000000">updated_by    </text>
<text text-anchor="start" x="265.3562" y="-1273.9" font-family="Arial" font-size="14.00" fill="#666666">[TEXT]</text>
<polygon fill="none" stroke="#000000" points="151,-1232.5 151,-1262.5 406,-1262.5 406,-1232.5 151,-1232.5"/>
<text text-anchor="start" x="158" y="-1243.9" font-family="Arial" font-size="14.00" fill="#000000">deleted_at    </text>
<text text-anchor="start" x="257.5708" y="-1243.9" font-family="Arial" font-size="14.00" fill="#666666">[TIMESTAMP]</text>
<polygon fill="none" stroke="#000000" points="151,-1202.5 151,-1232.5 406,-1232.5 406,-1202.5 151,-1202.5"/>
<text text-anchor="start" x="158" y="-1213.9" font-family="Arial" font-size="14.00" fill="#000000">deleted_by    </text>
<text text-anchor="start" x="260.6802" y="-1213.9" font-family="Arial" font-size="14.00" fill="#666666">[TEXT]</text>
<polygon fill="none" stroke="#000000" points="151,-1172.5 151,-1202.5 406,-1202.5 406,-1172.5 151,-1172.5"/>
<text text-anchor="start" x="158" y="-1183.9" font-family="Arial" font-size="14.00" fill="#000000">activity_log    </text>
<text text-anchor="start" x="261.4362" y="-1183.9" font-family="Arial" font-size="14.00" fill="#666666">[TEXT]</text>
</g>
<!-- ur_ingest_session&#45;&gt;device -->
<g id="edge3" class="edge">
<title>ur_ingest_session:device_id&#45;&gt;device:device_id</title>
<path fill="none" stroke="#000000" d="M416.059,-1547.2267C588.6851,-1537.633 512.4831,-1277.7374 406,-1130 376.4157,-1088.954 327.5843,-1135.046 298,-1094 128.9604,-859.47 103.9002,-450.5 393,-450.5"/>
<polygon fill="#000000" stroke="#000000" points="415.9963,-1547.2283 405.8777,-1543.0017 410.9982,-1547.3642 406,-1547.5 406,-1547.5 406,-1547.5 410.9982,-1547.3642 406.1223,-1551.9983 415.9963,-1547.2283 415.9963,-1547.2283"/>
</g>
<!-- ur_ingest_session&#45;&gt;behavior -->
<g id="edge2" class="edge">
<title>ur_ingest_session:behavior_id&#45;&gt;behavior:behavior_id</title>
<path fill="none" stroke="#000000" d="M416.2676,-1517.2046C574.5463,-1507.8423 486.8344,-1278.0616 406,-1130 391.8217,-1104.0301 364.1783,-1119.9699 350,-1094 330.0871,-1057.5262 308.4444,-1000.5 350,-1000.5"/>
<polygon fill="#000000" stroke="#000000" points="415.9959,-1517.2123 405.8705,-1513.0019 410.9979,-1517.3562 406,-1517.5 406,-1517.5 406,-1517.5 410.9979,-1517.3562 406.1295,-1521.9981 415.9959,-1517.2123 415.9959,-1517.2123"/>
</g>
<!-- ur_ingest_session_fs_path -->
<g id="node4" class="node">
<title>ur_ingest_session_fs_path</title>
<polygon fill="#efefef" stroke="transparent" points="328,-2079.5 328,-2114.5 637,-2114.5 637,-2079.5 328,-2079.5"/>
<polygon fill="none" stroke="#000000" points="328,-2079.5 328,-2114.5 637,-2114.5 637,-2079.5 328,-2079.5"/>
<text text-anchor="start" x="339.2975" y="-2092.3" font-family="Arial Bold" font-size="18.00" fill="#000000">ur_ingest_session_fs_path</text>
<text text-anchor="start" x="553.3715" y="-2092.3" font-family="Arial" font-size="14.00" fill="#000000">    </text>
<text text-anchor="start" x="587.5763" y="-2092.3" font-family="Arial" font-size="14.00" fill="#666666">[table]</text>
<polygon fill="none" stroke="#000000" points="328,-2049.5 328,-2079.5 637,-2079.5 637,-2049.5 328,-2049.5"/>
<text text-anchor="start" x="334.702" y="-2060.9" font-family="Arial" font-size="14.00" fill="#000000">ur_ingest_session_fs_path_id    </text>
<text text-anchor="start" x="554.0806" y="-2060.9" font-family="Arial" font-size="14.00" fill="#666666">[VARCHAR]</text>
<polygon fill="none" stroke="#000000" points="328,-2019.5 328,-2049.5 637,-2049.5 637,-2019.5 328,-2019.5"/>
<text text-anchor="start" x="335" y="-2030.9" font-family="Arial" font-size="14.00" fill="#000000">ingest_session_id    </text>
<text text-anchor="start" x="480.4586" y="-2030.9" font-family="Arial" font-size="14.00" fill="#666666">[VARCHAR]</text>
<polygon fill="none" stroke="#000000" points="328,-1989.5 328,-2019.5 637,-2019.5 637,-1989.5 328,-1989.5"/>
<text text-anchor="start" x="335" y="-2000.9" font-family="Arial" font-size="14.00" fill="#000000">root_path    </text>
<text text-anchor="start" x="428.3422" y="-2000.9" font-family="Arial" font-size="14.00" fill="#666666">[TEXT]</text>
<polygon fill="none" stroke="#000000" points="328,-1959.5 328,-1989.5 637,-1989.5 637,-1959.5 328,-1959.5"/>
<text text-anchor="start" x="335" y="-1970.9" font-family="Arial" font-size="14.00" fill="#000000">elaboration    </text>
<text text-anchor="start" x="438.4474" y="-1970.9" font-family="Arial" font-size="14.00" fill="#666666">[TEXT]</text>
<polygon fill="none" stroke="#000000" points="328,-1929.5 328,-1959.5 637,-1959.5 637,-1929.5 328,-1929.5"/>
<text text-anchor="start" x="335" y="-1940.9" font-family="Arial" font-size="14.00" fill="#000000">created_at    </text>
<text text-anchor="start" x="435.3422" y="-1940.9" font-family="Arial" font-size="14.00" fill="#666666">[TIMESTAMP]</text>
<polygon fill="none" stroke="#000000" points="328,-1899.5 328,-1929.5 637,-1929.5 637,-1899.5 328,-1899.5"/>
<text text-anchor="start" x="335" y="-1910.9" font-family="Arial" font-size="14.00" fill="#000000">created_by    </text>
<text text-anchor="start" x="438.4516" y="-1910.9" font-family="Arial" font-size="14.00" fill="#666666">[TEXT]</text>
<polygon fill="none" stroke="#000000" points="328,-1869.5 328,-1899.5 637,-1899.5 637,-1869.5 328,-1869.5"/>
<text text-anchor="start" x="335" y="-1880.9" font-family="Arial" font-size="14.00" fill="#000000">updated_at    </text>
<text text-anchor="start" x="439.2468" y="-1880.9" font-family="Arial" font-size="14.00" fill="#666666">[TIMESTAMP]</text>
<polygon fill="none" stroke="#000000" points="328,-1839.5 328,-1869.5 637,-1869.5 637,-1839.5 328,-1839.5"/>
<text text-anchor="start" x="335" y="-1850.9" font-family="Arial" font-size="14.00" fill="#000000">updated_by    </text>
<text text-anchor="start" x="442.3562" y="-1850.9" font-family="Arial" font-size="14.00" fill="#666666">[TEXT]</text>
<polygon fill="none" stroke="#000000" points="328,-1809.5 328,-1839.5 637,-1839.5 637,-1809.5 328,-1809.5"/>
<text text-anchor="start" x="335" y="-1820.9" font-family="Arial" font-size="14.00" fill="#000000">deleted_at    </text>
<text text-anchor="start" x="434.5708" y="-1820.9" font-family="Arial" font-size="14.00" fill="#666666">[TIMESTAMP]</text>
<polygon fill="none" stroke="#000000" points="328,-1779.5 328,-1809.5 637,-1809.5 637,-1779.5 328,-1779.5"/>
<text text-anchor="start" x="335" y="-1790.9" font-family="Arial" font-size="14.00" fill="#000000">deleted_by    </text>
<text text-anchor="start" x="437.6802" y="-1790.9" font-family="Arial" font-size="14.00" fill="#666666">[TEXT]</text>
<polygon fill="none" stroke="#000000" points="328,-1749.5 328,-1779.5 637,-1779.5 637,-1749.5 328,-1749.5"/>
<text text-anchor="start" x="335" y="-1760.9" font-family="Arial" font-size="14.00" fill="#000000">activity_log    </text>
<text text-anchor="start" x="438.4362" y="-1760.9" font-family="Arial" font-size="14.00" fill="#666666">[TEXT]</text>
</g>
<!-- ur_ingest_session_fs_path&#45;&gt;ur_ingest_session -->
<g id="edge4" class="edge">
<title>ur_ingest_session_fs_path:ingest_session_id&#45;&gt;ur_ingest_session:ur_ingest_session_id</title>
<path fill="none" stroke="#000000" d="M318.088,-2032.6509C258.5125,-2008.9927 290.6914,-1765.31 328,-1707 348.5777,-1674.8389 385.4223,-1703.1611 406,-1671 428.3965,-1635.9963 447.5556,-1577.5 406,-1577.5"/>
<polygon fill="#000000" stroke="#000000" points="318.1696,-2032.666 327.1747,-2038.9237 323.0848,-2033.583 328,-2034.5 328,-2034.5 328,-2034.5 323.0848,-2033.583 328.8253,-2030.0763 318.1696,-2032.666 318.1696,-2032.666"/>
</g>
<!-- uniform_resource -->
<g id="node5" class="node">
<title>uniform_resource</title>
<polygon fill="#efefef" stroke="transparent" points="357,-2836.5 357,-2871.5 608,-2871.5 608,-2836.5 357,-2836.5"/>
<polygon fill="none" stroke="#000000" points="357,-2836.5 357,-2871.5 608,-2871.5 608,-2836.5 357,-2836.5"/>
<text text-anchor="start" x="376.3271" y="-2849.3" font-family="Arial Bold" font-size="18.00" fill="#000000">uniform_resource</text>
<text text-anchor="start" x="516.3419" y="-2849.3" font-family="Arial" font-size="14.00" fill="#000000">    </text>
<text text-anchor="start" x="550.5467" y="-2849.3" font-family="Arial" font-size="14.00" fill="#666666">[table]</text>
<polygon fill="none" stroke="#000000" points="357,-2806.5 357,-2836.5 608,-2836.5 608,-2806.5 357,-2806.5"/>
<text text-anchor="start" x="363.5028" y="-2817.9" font-family="Arial" font-size="14.00" fill="#000000">uniform_resource_id    </text>
<text text-anchor="start" x="525.2798" y="-2817.9" font-family="Arial" font-size="14.00" fill="#666666">[VARCHAR]</text>
<polygon fill="none" stroke="#000000" points="357,-2776.5 357,-2806.5 608,-2806.5 608,-2776.5 357,-2776.5"/>
<text text-anchor="start" x="364" y="-2787.9" font-family="Arial" font-size="14.00" fill="#000000">device_id    </text>
<text text-anchor="start" x="457.331" y="-2787.9" font-family="Arial" font-size="14.00" fill="#666666">[VARCHAR]</text>
<polygon fill="none" stroke="#000000" points="357,-2746.5 357,-2776.5 608,-2776.5 608,-2746.5 357,-2746.5"/>
<text text-anchor="start" x="364" y="-2757.9" font-family="Arial" font-size="14.00" fill="#000000">ingest_session_id    </text>
<text text-anchor="start" x="509.4586" y="-2757.9" font-family="Arial" font-size="14.00" fill="#666666">[VARCHAR]</text>
<polygon fill="none" stroke="#000000" points="357,-2716.5 357,-2746.5 608,-2746.5 608,-2716.5 357,-2716.5"/>
<text text-anchor="start" x="364" y="-2727.9" font-family="Arial" font-size="14.00" fill="#000000">ingest_fs_path_id    </text>
<text text-anchor="start" x="507.9158" y="-2727.9" font-family="Arial" font-size="14.00" fill="#666666">[VARCHAR]</text>
<polygon fill="none" stroke="#000000" points="357,-2686.5 357,-2716.5 608,-2716.5 608,-2686.5 357,-2686.5"/>
<text text-anchor="start" x="364" y="-2697.9" font-family="Arial" font-size="14.00" fill="#000000">uri    </text>
<text text-anchor="start" x="413.7546" y="-2697.9" font-family="Arial" font-size="14.00" fill="#666666">[TEXT]</text>
<polygon fill="none" stroke="#000000" points="357,-2656.5 357,-2686.5 608,-2686.5 608,-2656.5 357,-2656.5"/>
<text text-anchor="start" x="364" y="-2667.9" font-family="Arial" font-size="14.00" fill="#000000">content_digest    </text>
<text text-anchor="start" x="489.244" y="-2667.9" font-family="Arial" font-size="14.00" fill="#666666">[TEXT]</text>
<polygon fill="none" stroke="#000000" points="357,-2626.5 357,-2656.5 608,-2656.5 608,-2626.5 357,-2626.5"/>
<text text-anchor="start" x="364" y="-2637.9" font-family="Arial" font-size="14.00" fill="#000000">content    </text>
<text text-anchor="start" x="444.1164" y="-2637.9" font-family="Arial" font-size="14.00" fill="#666666">[BLOB]</text>
<polygon fill="none" stroke="#000000" points="357,-2596.5 357,-2626.5 608,-2626.5 608,-2596.5 357,-2596.5"/>
<text text-anchor="start" x="364" y="-2607.9" font-family="Arial" font-size="14.00" fill="#000000">nature    </text>
<text text-anchor="start" x="437.8864" y="-2607.9" font-family="Arial" font-size="14.00" fill="#666666">[TEXT]</text>
<polygon fill="none" stroke="#000000" points="357,-2566.5 357,-2596.5 608,-2596.5 608,-2566.5 357,-2566.5"/>
<text text-anchor="start" x="364" y="-2577.9" font-family="Arial" font-size="14.00" fill="#000000">size_bytes    </text>
<text text-anchor="start" x="464.3324" y="-2577.9" font-family="Arial" font-size="14.00" fill="#666666">[INTEGER]</text>
<polygon fill="none" stroke="#000000" points="357,-2536.5 357,-2566.5 608,-2566.5 608,-2536.5 357,-2536.5"/>
<text text-anchor="start" x="364" y="-2547.9" font-family="Arial" font-size="14.00" fill="#000000">last_modified_at    </text>
<text text-anchor="start" x="500.1178" y="-2547.9" font-family="Arial" font-size="14.00" fill="#666666">[TIMESTAMP]</text>
<polygon fill="none" stroke="#000000" points="357,-2506.5 357,-2536.5 608,-2536.5 608,-2506.5 357,-2506.5"/>
<text text-anchor="start" x="364" y="-2517.9" font-family="Arial" font-size="14.00" fill="#000000">content_fm_body_attrs    </text>
<text text-anchor="start" x="540.5876" y="-2517.9" font-family="Arial" font-size="14.00" fill="#666666">[TEXT]</text>
<polygon fill="none" stroke="#000000" points="357,-2476.5 357,-2506.5 608,-2506.5 608,-2476.5 357,-2476.5"/>
<text text-anchor="start" x="364" y="-2487.9" font-family="Arial" font-size="14.00" fill="#000000">frontmatter    </text>
<text text-anchor="start" x="465.8794" y="-2487.9" font-family="Arial" font-size="14.00" fill="#666666">[TEXT]</text>
<polygon fill="none" stroke="#000000" points="357,-2446.5 357,-2476.5 608,-2476.5 608,-2446.5 357,-2446.5"/>
<text text-anchor="start" x="364" y="-2457.9" font-family="Arial" font-size="14.00" fill="#000000">elaboration    </text>
<text text-anchor="start" x="467.4474" y="-2457.9" font-family="Arial" font-size="14.00" fill="#666666">[TEXT]</text>
<polygon fill="none" stroke="#000000" points="357,-2416.5 357,-2446.5 608,-2446.5 608,-2416.5 357,-2416.5"/>
<text text-anchor="start" x="364" y="-2427.9" font-family="Arial" font-size="14.00" fill="#000000">created_at    </text>
<text text-anchor="start" x="464.3422" y="-2427.9" font-family="Arial" font-size="14.00" fill="#666666">[TIMESTAMP]</text>
<polygon fill="none" stroke="#000000" points="357,-2386.5 357,-2416.5 608,-2416.5 608,-2386.5 357,-2386.5"/>
<text text-anchor="start" x="364" y="-2397.9" font-family="Arial" font-size="14.00" fill="#000000">created_by    </text>
<text text-anchor="start" x="467.4516" y="-2397.9" font-family="Arial" font-size="14.00" fill="#666666">[TEXT]</text>
<polygon fill="none" stroke="#000000" points="357,-2356.5 357,-2386.5 608,-2386.5 608,-2356.5 357,-2356.5"/>
<text text-anchor="start" x="364" y="-2367.9" font-family="Arial" font-size="14.00" fill="#000000">updated_at    </text>
<text text-anchor="start" x="468.2468" y="-2367.9" font-family="Arial" font-size="14.00" fill="#666666">[TIMESTAMP]</text>
<polygon fill="none" stroke="#000000" points="357,-2326.5 357,-2356.5 608,-2356.5 608,-2326.5 357,-2326.5"/>
<text text-anchor="start" x="364" y="-2337.9" font-family="Arial" font-size="14.00" fill="#000000">updated_by    </text>
<text text-anchor="start" x="471.3562" y="-2337.9" font-family="Arial" font-size="14.00" fill="#666666">[TEXT]</text>
<polygon fill="none" stroke="#000000" points="357,-2296.5 357,-2326.5 608,-2326.5 608,-2296.5 357,-2296.5"/>
<text text-anchor="start" x="364" y="-2307.9" font-family="Arial" font-size="14.00" fill="#000000">deleted_at    </text>
<text text-anchor="start" x="463.5708" y="-2307.9" font-family="Arial" font-size="14.00" fill="#666666">[TIMESTAMP]</text>
<polygon fill="none" stroke="#000000" points="357,-2266.5 357,-2296.5 608,-2296.5 608,-2266.5 357,-2266.5"/>
<text text-anchor="start" x="364" y="-2277.9" font-family="Arial" font-size="14.00" fill="#000000">deleted_by    </text>
<text text-anchor="start" x="466.6802" y="-2277.9" font-family="Arial" font-size="14.00" fill="#666666">[TEXT]</text>
<polygon fill="none" stroke="#000000" points="357,-2236.5 357,-2266.5 608,-2266.5 608,-2236.5 357,-2236.5"/>
<text text-anchor="start" x="364" y="-2247.9" font-family="Arial" font-size="14.00" fill="#000000">activity_log    </text>
<text text-anchor="start" x="467.4362" y="-2247.9" font-family="Arial" font-size="14.00" fill="#666666">[TEXT]</text>
</g>
<!-- uniform_resource&#45;&gt;device -->
<g id="edge7" class="edge">
<title>uniform_resource:device_id&#45;&gt;device:device_id</title>
<path fill="none" stroke="#000000" d="M618.1337,-2790.2901C867.1048,-2730.1813 826.7157,-450.5 570,-450.5"/>
<polygon fill="#000000" stroke="#000000" points="617.9295,-2790.3144 607.4665,-2787.0317 612.9647,-2790.9072 608,-2791.5 608,-2791.5 608,-2791.5 612.9647,-2790.9072 608.5335,-2795.9683 617.9295,-2790.3144 617.9295,-2790.3144"/>
</g>
<!-- uniform_resource&#45;&gt;ur_ingest_session -->
<g id="edge5" class="edge">
<title>uniform_resource:ingest_session_id&#45;&gt;ur_ingest_session:ur_ingest_session_id</title>
<path fill="none" stroke="#000000" d="M347.0855,-2759.0771C242.5281,-2706.0648 298.9012,-1799.9593 232,-1707 208.9877,-1675.0244 172.4671,-1704.0328 151,-1671 128.3558,-1636.156 109.4444,-1577.5 151,-1577.5"/>
<polygon fill="#000000" stroke="#000000" points="347.2858,-2759.126 355.9317,-2765.8714 352.1429,-2760.313 357,-2761.5 357,-2761.5 357,-2761.5 352.1429,-2760.313 358.0683,-2757.1286 347.2858,-2759.126 347.2858,-2759.126"/>
</g>
<!-- uniform_resource&#45;&gt;ur_ingest_session_fs_path -->
<g id="edge10" class="edge">
<title>uniform_resource:ingest_fs_path_id&#45;&gt;ur_ingest_session_fs_path:ur_ingest_session_fs_path_id</title>
<path fill="none" stroke="#000000" d="M347.2817,-2727.583C280.4216,-2672.9202 257.1512,-2064.5 328,-2064.5"/>
<polygon fill="#000000" stroke="#000000" points="347.725,-2727.7616 355.3177,-2735.6737 352.3625,-2729.6308 357,-2731.5 357,-2731.5 357,-2731.5 352.3625,-2729.6308 358.6823,-2727.3263 347.725,-2727.7616 347.725,-2727.7616"/>
</g>
<!-- ur_ingest_session_fs_path_entry -->
<g id="node6" class="node">
<title>ur_ingest_session_fs_path_entry</title>
<polygon fill="#efefef" stroke="transparent" points="43,-3623.5 43,-3658.5 393,-3658.5 393,-3623.5 43,-3623.5"/>
<polygon fill="none" stroke="#000000" points="43,-3623.5 43,-3658.5 393,-3658.5 393,-3623.5 43,-3623.5"/>
<text text-anchor="start" x="49.791" y="-3636.3" font-family="Arial Bold" font-size="18.00" fill="#000000">ur_ingest_session_fs_path_entry</text>
<text text-anchor="start" x="313.878" y="-3636.3" font-family="Arial" font-size="14.00" fill="#000000">    </text>
<text text-anchor="start" x="348.0828" y="-3636.3" font-family="Arial" font-size="14.00" fill="#666666">[table]</text>
<polygon fill="none" stroke="#000000" points="43,-3593.5 43,-3623.5 393,-3623.5 393,-3593.5 43,-3593.5"/>
<text text-anchor="start" x="50" y="-3604.9" font-family="Arial" font-size="14.00" fill="#000000">ur_ingest_session_fs_path_entry_id    </text>
<text text-anchor="start" x="308.2776" y="-3604.9" font-family="Arial" font-size="14.00" fill="#666666">[VARCHAR]</text>
<polygon fill="none" stroke="#000000" points="43,-3563.5 43,-3593.5 393,-3593.5 393,-3563.5 43,-3563.5"/>
<text text-anchor="start" x="50" y="-3574.9" font-family="Arial" font-size="14.00" fill="#000000">ingest_session_id    </text>
<text text-anchor="start" x="195.4586" y="-3574.9" font-family="Arial" font-size="14.00" fill="#666666">[VARCHAR]</text>
<polygon fill="none" stroke="#000000" points="43,-3533.5 43,-3563.5 393,-3563.5 393,-3533.5 43,-3533.5"/>
<text text-anchor="start" x="50" y="-3544.9" font-family="Arial" font-size="14.00" fill="#000000">ingest_fs_path_id    </text>
<text text-anchor="start" x="193.9158" y="-3544.9" font-family="Arial" font-size="14.00" fill="#666666">[VARCHAR]</text>
<polygon fill="none" stroke="#000000" points="43,-3503.5 43,-3533.5 393,-3533.5 393,-3503.5 43,-3503.5"/>
<text text-anchor="start" x="50" y="-3514.9" font-family="Arial" font-size="14.00" fill="#000000">uniform_resource_id    </text>
<text text-anchor="start" x="211.777" y="-3514.9" font-family="Arial" font-size="14.00" fill="#666666">[VARCHAR]</text>
<polygon fill="none" stroke="#000000" points="43,-3473.5 43,-3503.5 393,-3503.5 393,-3473.5 43,-3473.5"/>
<text text-anchor="start" x="50" y="-3484.9" font-family="Arial" font-size="14.00" fill="#000000">file_path_abs    </text>
<text text-anchor="start" x="167.46" y="-3484.9" font-family="Arial" font-size="14.00" fill="#666666">[TEXT]</text>
<polygon fill="none" stroke="#000000" points="43,-3443.5 43,-3473.5 393,-3473.5 393,-3443.5 43,-3443.5"/>
<text text-anchor="start" x="50" y="-3454.9" font-family="Arial" font-size="14.00" fill="#000000">file_path_rel_parent    </text>
<text text-anchor="start" x="207.9088" y="-3454.9" font-family="Arial" font-size="14.00" fill="#666666">[TEXT]</text>
<polygon fill="none" stroke="#000000" points="43,-3413.5 43,-3443.5 393,-3443.5 393,-3413.5 43,-3413.5"/>
<text text-anchor="start" x="50" y="-3424.9" font-family="Arial" font-size="14.00" fill="#000000">file_path_rel    </text>
<text text-anchor="start" x="160.4446" y="-3424.9" font-family="Arial" font-size="14.00" fill="#666666">[TEXT]</text>
<polygon fill="none" stroke="#000000" points="43,-3383.5 43,-3413.5 393,-3413.5 393,-3383.5 43,-3383.5"/>
<text text-anchor="start" x="50" y="-3394.9" font-family="Arial" font-size="14.00" fill="#000000">file_basename    </text>
<text text-anchor="start" x="175.23" y="-3394.9" font-family="Arial" font-size="14.00" fill="#666666">[TEXT]</text>
<polygon fill="none" stroke="#000000" points="43,-3353.5 43,-3383.5 393,-3383.5 393,-3353.5 43,-3353.5"/>
<text text-anchor="start" x="50" y="-3364.9" font-family="Arial" font-size="14.00" fill="#000000">file_extn    </text>
<text text-anchor="start" x="136.3296" y="-3364.9" font-family="Arial" font-size="14.00" fill="#666666">[TEXT]</text>
<polygon fill="none" stroke="#000000" points="43,-3323.5 43,-3353.5 393,-3353.5 393,-3323.5 43,-3323.5"/>
<text text-anchor="start" x="50" y="-3334.9" font-family="Arial" font-size="14.00" fill="#000000">captured_executable    </text>
<text text-anchor="start" x="214.1444" y="-3334.9" font-family="Arial" font-size="14.00" fill="#666666">[TEXT]</text>
<polygon fill="none" stroke="#000000" points="43,-3293.5 43,-3323.5 393,-3323.5 393,-3293.5 43,-3293.5"/>
<text text-anchor="start" x="50" y="-3304.9" font-family="Arial" font-size="14.00" fill="#000000">ur_status    </text>
<text text-anchor="start" x="141.777" y="-3304.9" font-family="Arial" font-size="14.00" fill="#666666">[TEXT]</text>
<polygon fill="none" stroke="#000000" points="43,-3263.5 43,-3293.5 393,-3293.5 393,-3263.5 43,-3263.5"/>
<text text-anchor="start" x="50" y="-3274.9" font-family="Arial" font-size="14.00" fill="#000000">ur_diagnostics    </text>
<text text-anchor="start" x="174.4474" y="-3274.9" font-family="Arial" font-size="14.00" fill="#666666">[TEXT]</text>
<polygon fill="none" stroke="#000000" points="43,-3233.5 43,-3263.5 393,-3263.5 393,-3233.5 43,-3233.5"/>
<text text-anchor="start" x="50" y="-3244.9" font-family="Arial" font-size="14.00" fill="#000000">ur_transformations    </text>
<text text-anchor="start" x="200.8864" y="-3244.9" font-family="Arial" font-size="14.00" fill="#666666">[TEXT]</text>
<polygon fill="none" stroke="#000000" points="43,-3203.5 43,-3233.5 393,-3233.5 393,-3203.5 43,-3203.5"/>
<text text-anchor="start" x="50" y="-3214.9" font-family="Arial" font-size="14.00" fill="#000000">elaboration    </text>
<text text-anchor="start" x="153.4474" y="-3214.9" font-family="Arial" font-size="14.00" fill="#666666">[TEXT]</text>
<polygon fill="none" stroke="#000000" points="43,-3173.5 43,-3203.5 393,-3203.5 393,-3173.5 43,-3173.5"/>
<text text-anchor="start" x="50" y="-3184.9" font-family="Arial" font-size="14.00" fill="#000000">created_at    </text>
<text text-anchor="start" x="150.3422" y="-3184.9" font-family="Arial" font-size="14.00" fill="#666666">[TIMESTAMP]</text>
<polygon fill="none" stroke="#000000" points="43,-3143.5 43,-3173.5 393,-3173.5 393,-3143.5 43,-3143.5"/>
<text text-anchor="start" x="50" y="-3154.9" font-family="Arial" font-size="14.00" fill="#000000">created_by    </text>
<text text-anchor="start" x="153.4516" y="-3154.9" font-family="Arial" font-size="14.00" fill="#666666">[TEXT]</text>
<polygon fill="none" stroke="#000000" points="43,-3113.5 43,-3143.5 393,-3143.5 393,-3113.5 43,-3113.5"/>
<text text-anchor="start" x="50" y="-3124.9" font-family="Arial" font-size="14.00" fill="#000000">updated_at    </text>
<text text-anchor="start" x="154.2468" y="-3124.9" font-family="Arial" font-size="14.00" fill="#666666">[TIMESTAMP]</text>
<polygon fill="none" stroke="#000000" points="43,-3083.5 43,-3113.5 393,-3113.5 393,-3083.5 43,-3083.5"/>
<text text-anchor="start" x="50" y="-3094.9" font-family="Arial" font-size="14.00" fill="#000000">updated_by    </text>
<text text-anchor="start" x="157.3562" y="-3094.9" font-family="Arial" font-size="14.00" fill="#666666">[TEXT]</text>
<polygon fill="none" stroke="#000000" points="43,-3053.5 43,-3083.5 393,-3083.5 393,-3053.5 43,-3053.5"/>
<text text-anchor="start" x="50" y="-3064.9" font-family="Arial" font-size="14.00" fill="#000000">deleted_at    </text>
<text text-anchor="start" x="149.5708" y="-3064.9" font-family="Arial" font-size="14.00" fill="#666666">[TIMESTAMP]</text>
<polygon fill="none" stroke="#000000" points="43,-3023.5 43,-3053.5 393,-3053.5 393,-3023.5 43,-3023.5"/>
<text text-anchor="start" x="50" y="-3034.9" font-family="Arial" font-size="14.00" fill="#000000">deleted_by    </text>
<text text-anchor="start" x="152.6802" y="-3034.9" font-family="Arial" font-size="14.00" fill="#666666">[TEXT]</text>
<polygon fill="none" stroke="#000000" points="43,-2993.5 43,-3023.5 393,-3023.5 393,-2993.5 43,-2993.5"/>
<text text-anchor="start" x="50" y="-3004.9" font-family="Arial" font-size="14.00" fill="#000000">activity_log    </text>
<text text-anchor="start" x="153.4362" y="-3004.9" font-family="Arial" font-size="14.00" fill="#666666">[TEXT]</text>
</g>
<!-- ur_ingest_session_fs_path_entry&#45;&gt;ur_ingest_session -->
<g id="edge6" class="edge">
<title>ur_ingest_session_fs_path_entry:ingest_session_id&#45;&gt;ur_ingest_session:ur_ingest_session_id</title>
<path fill="none" stroke="#000000" d="M402.5054,-3574.5512C459.7001,-3524.0866 430.0734,-3005.9874 393,-2951 369.1469,-2915.621 329.9719,-2948.8542 304,-2915 -35.0694,-2473.0248 185.0637,-2227.0124 151,-1671 148.4589,-1629.5222 109.4444,-1577.5 151,-1577.5"/>
<polygon fill="#000000" stroke="#000000" points="402.2348,-3574.6635 391.2736,-3574.3443 397.6174,-3576.5818 393,-3578.5 393,-3578.5 393,-3578.5 397.6174,-3576.5818 394.7264,-3582.6557 402.2348,-3574.6635 402.2348,-3574.6635"/>
</g>
<!-- ur_ingest_session_fs_path_entry&#45;&gt;uniform_resource -->
<g id="edge9" class="edge">
<title>ur_ingest_session_fs_path_entry:uniform_resource_id&#45;&gt;uniform_resource:uniform_resource_id</title>
<path fill="none" stroke="#000000" d="M402.1419,-3514.3923C451.9913,-3466.0448 415.8578,-3006.1837 393,-2951 384.3409,-2930.095 365.6591,-2935.905 357,-2915 341.0974,-2876.6077 315.4444,-2821.5 357,-2821.5"/>
<polygon fill="#000000" stroke="#000000" points="402.1215,-3514.4014 391.1556,-3514.3953 397.5608,-3516.4507 393,-3518.5 393,-3518.5 393,-3518.5 397.5608,-3516.4507 394.8444,-3522.6047 402.1215,-3514.4014 402.1215,-3514.4014"/>
</g>
<!-- uniform_resource_transform -->
<g id="node7" class="node">
<title>uniform_resource_transform</title>
<polygon fill="#efefef" stroke="transparent" points="497,-3533.5 497,-3568.5 815,-3568.5 815,-3533.5 497,-3533.5"/>
<polygon fill="none" stroke="#000000" points="497,-3533.5 497,-3568.5 815,-3568.5 815,-3533.5 497,-3533.5"/>
<text text-anchor="start" x="506.8242" y="-3546.3" font-family="Arial Bold" font-size="18.00" fill="#000000">uniform_resource_transform</text>
<text text-anchor="start" x="732.8448" y="-3546.3" font-family="Arial" font-size="14.00" fill="#000000">    </text>
<text text-anchor="start" x="767.0496" y="-3546.3" font-family="Arial" font-size="14.00" fill="#666666">[table]</text>
<polygon fill="none" stroke="#000000" points="497,-3503.5 497,-3533.5 815,-3533.5 815,-3503.5 497,-3503.5"/>
<text text-anchor="start" x="503.5561" y="-3514.9" font-family="Arial" font-size="14.00" fill="#000000">uniform_resource_transform_id    </text>
<text text-anchor="start" x="732.2265" y="-3514.9" font-family="Arial" font-size="14.00" fill="#666666">[VARCHAR]</text>
<polygon fill="none" stroke="#000000" points="497,-3473.5 497,-3503.5 815,-3503.5 815,-3473.5 497,-3473.5"/>
<text text-anchor="start" x="504" y="-3484.9" font-family="Arial" font-size="14.00" fill="#000000">uniform_resource_id    </text>
<text text-anchor="start" x="665.777" y="-3484.9" font-family="Arial" font-size="14.00" fill="#666666">[VARCHAR]</text>
<polygon fill="none" stroke="#000000" points="497,-3443.5 497,-3473.5 815,-3473.5 815,-3443.5 497,-3443.5"/>
<text text-anchor="start" x="504" y="-3454.9" font-family="Arial" font-size="14.00" fill="#000000">uri    </text>
<text text-anchor="start" x="553.7546" y="-3454.9" font-family="Arial" font-size="14.00" fill="#666666">[TEXT]</text>
<polygon fill="none" stroke="#000000" points="497,-3413.5 497,-3443.5 815,-3443.5 815,-3413.5 497,-3413.5"/>
<text text-anchor="start" x="504" y="-3424.9" font-family="Arial" font-size="14.00" fill="#000000">content_digest    </text>
<text text-anchor="start" x="629.244" y="-3424.9" font-family="Arial" font-size="14.00" fill="#666666">[TEXT]</text>
<polygon fill="none" stroke="#000000" points="497,-3383.5 497,-3413.5 815,-3413.5 815,-3383.5 497,-3383.5"/>
<text text-anchor="start" x="504" y="-3394.9" font-family="Arial" font-size="14.00" fill="#000000">content    </text>
<text text-anchor="start" x="584.1164" y="-3394.9" font-family="Arial" font-size="14.00" fill="#666666">[BLOB]</text>
<polygon fill="none" stroke="#000000" points="497,-3353.5 497,-3383.5 815,-3383.5 815,-3353.5 497,-3353.5"/>
<text text-anchor="start" x="504" y="-3364.9" font-family="Arial" font-size="14.00" fill="#000000">nature    </text>
<text text-anchor="start" x="577.8864" y="-3364.9" font-family="Arial" font-size="14.00" fill="#666666">[TEXT]</text>
<polygon fill="none" stroke="#000000" points="497,-3323.5 497,-3353.5 815,-3353.5 815,-3323.5 497,-3323.5"/>
<text text-anchor="start" x="504" y="-3334.9" font-family="Arial" font-size="14.00" fill="#000000">size_bytes    </text>
<text text-anchor="start" x="604.3324" y="-3334.9" font-family="Arial" font-size="14.00" fill="#666666">[INTEGER]</text>
<polygon fill="none" stroke="#000000" points="497,-3293.5 497,-3323.5 815,-3323.5 815,-3293.5 497,-3293.5"/>
<text text-anchor="start" x="504" y="-3304.9" font-family="Arial" font-size="14.00" fill="#000000">elaboration    </text>
<text text-anchor="start" x="607.4474" y="-3304.9" font-family="Arial" font-size="14.00" fill="#666666">[TEXT]</text>
<polygon fill="none" stroke="#000000" points="497,-3263.5 497,-3293.5 815,-3293.5 815,-3263.5 497,-3263.5"/>
<text text-anchor="start" x="504" y="-3274.9" font-family="Arial" font-size="14.00" fill="#000000">created_at    </text>
<text text-anchor="start" x="604.3422" y="-3274.9" font-family="Arial" font-size="14.00" fill="#666666">[TIMESTAMP]</text>
<polygon fill="none" stroke="#000000" points="497,-3233.5 497,-3263.5 815,-3263.5 815,-3233.5 497,-3233.5"/>
<text text-anchor="start" x="504" y="-3244.9" font-family="Arial" font-size="14.00" fill="#000000">created_by    </text>
<text text-anchor="start" x="607.4516" y="-3244.9" font-family="Arial" font-size="14.00" fill="#666666">[TEXT]</text>
<polygon fill="none" stroke="#000000" points="497,-3203.5 497,-3233.5 815,-3233.5 815,-3203.5 497,-3203.5"/>
<text text-anchor="start" x="504" y="-3214.9" font-family="Arial" font-size="14.00" fill="#000000">updated_at    </text>
<text text-anchor="start" x="608.2468" y="-3214.9" font-family="Arial" font-size="14.00" fill="#666666">[TIMESTAMP]</text>
<polygon fill="none" stroke="#000000" points="497,-3173.5 497,-3203.5 815,-3203.5 815,-3173.5 497,-3173.5"/>
<text text-anchor="start" x="504" y="-3184.9" font-family="Arial" font-size="14.00" fill="#000000">updated_by    </text>
<text text-anchor="start" x="611.3562" y="-3184.9" font-family="Arial" font-size="14.00" fill="#666666">[TEXT]</text>
<polygon fill="none" stroke="#000000" points="497,-3143.5 497,-3173.5 815,-3173.5 815,-3143.5 497,-3143.5"/>
<text text-anchor="start" x="504" y="-3154.9" font-family="Arial" font-size="14.00" fill="#000000">deleted_at    </text>
<text text-anchor="start" x="603.5708" y="-3154.9" font-family="Arial" font-size="14.00" fill="#666666">[TIMESTAMP]</text>
<polygon fill="none" stroke="#000000" points="497,-3113.5 497,-3143.5 815,-3143.5 815,-3113.5 497,-3113.5"/>
<text text-anchor="start" x="504" y="-3124.9" font-family="Arial" font-size="14.00" fill="#000000">deleted_by    </text>
<text text-anchor="start" x="606.6802" y="-3124.9" font-family="Arial" font-size="14.00" fill="#666666">[TEXT]</text>
<polygon fill="none" stroke="#000000" points="497,-3083.5 497,-3113.5 815,-3113.5 815,-3083.5 497,-3083.5"/>
<text text-anchor="start" x="504" y="-3094.9" font-family="Arial" font-size="14.00" fill="#000000">activity_log    </text>
<text text-anchor="start" x="607.4362" y="-3094.9" font-family="Arial" font-size="14.00" fill="#666666">[TEXT]</text>
</g>
<!-- uniform_resource_transform&#45;&gt;uniform_resource -->
<g id="edge8" class="edge">
<title>uniform_resource_transform:uniform_resource_id&#45;&gt;uniform_resource:uniform_resource_id</title>
<path fill="none" stroke="#000000" d="M488.1493,-3483.4165C451.4841,-3436.8074 480.5997,-3084.4267 497,-3041 523.3671,-2971.182 581.6329,-2984.818 608,-2915 622.6816,-2876.1244 649.5556,-2821.5 608,-2821.5"/>
<polygon fill="#000000" stroke="#000000" points="488.3286,-3483.5194 494.7587,-3492.4021 492.6643,-3486.0097 497,-3488.5 497,-3488.5 497,-3488.5 492.6643,-3486.0097 499.2413,-3484.5979 488.3286,-3483.5194 488.3286,-3483.5194"/>
</g>
</g>
</svg>
