<?xml version="1.0" encoding="UTF-8" standalone="no"?>
<!DOCTYPE svg PUBLIC "-//W3C//DTD SVG 1.1//EN"
 "http://www.w3.org/Graphics/SVG/1.1/DTD/svg11.dtd">
<!-- Generated by graphviz version 2.40.1 (20161225.0304)
 -->
<!-- Title: device Pages: 1 -->
<svg width="688pt" height="3133pt"
 viewBox="0.00 0.00 687.82 3133.00" xmlns="http://www.w3.org/2000/svg" xmlns:xlink="http://www.w3.org/1999/xlink">
<g id="graph0" class="graph" transform="scale(1 1) rotate(0) translate(4 3129)">
<title>device</title>
<polygon fill="#ffffff" stroke="transparent" points="-4,4 -4,-3129 683.8192,-3129 683.8192,4 -4,4"/>
<!-- device -->
<g id="node1" class="node">
<title>device</title>
<polygon fill="#efefef" stroke="transparent" points="349.6176,-465.5 349.6176,-500.5 526.6176,-500.5 526.6176,-465.5 349.6176,-465.5"/>
<polygon fill="none" stroke="#000000" points="349.6176,-465.5 349.6176,-500.5 526.6176,-500.5 526.6176,-465.5 349.6176,-465.5"/>
<text text-anchor="start" x="375.9457" y="-478.3" font-family="Arial Bold" font-size="18.00" fill="#000000">device</text>
<text text-anchor="start" x="427.9585" y="-478.3" font-family="Arial" font-size="14.00" fill="#000000">    </text>
<text text-anchor="start" x="462.1633" y="-478.3" font-family="Arial" font-size="14.00" fill="#666666">[table]</text>
<polygon fill="none" stroke="#000000" points="349.6176,-435.5 349.6176,-465.5 526.6176,-465.5 526.6176,-435.5 349.6176,-435.5"/>
<text text-anchor="start" x="356.6176" y="-446.9" font-family="Arial" font-size="14.00" fill="#000000">device_id </text>
<text text-anchor="start" x="419.6344" y="-446.9" font-family="Arial" font-size="14.00" fill="#666666">[ULID]</text>
<polygon fill="none" stroke="#000000" points="349.6176,-405.5 349.6176,-435.5 526.6176,-435.5 526.6176,-405.5 349.6176,-405.5"/>
<text text-anchor="start" x="356.6176" y="-416.9" font-family="Arial" font-size="14.00" fill="#000000">name </text>
<text text-anchor="start" x="395.5166" y="-416.9" font-family="Arial" font-size="14.00" fill="#666666">[TEXT]</text>
<polygon fill="none" stroke="#000000" points="349.6176,-375.5 349.6176,-405.5 526.6176,-405.5 526.6176,-375.5 349.6176,-375.5"/>
<text text-anchor="start" x="356.6176" y="-386.9" font-family="Arial" font-size="14.00" fill="#000000">state </text>
<text text-anchor="start" x="390.8546" y="-386.9" font-family="Arial" font-size="14.00" fill="#666666">[TEXT]</text>
<polygon fill="none" stroke="#000000" points="349.6176,-345.5 349.6176,-375.5 526.6176,-375.5 526.6176,-345.5 349.6176,-345.5"/>
<text text-anchor="start" x="356.6176" y="-356.9" font-family="Arial" font-size="14.00" fill="#000000">boundary </text>
<text text-anchor="start" x="418.8644" y="-356.9" font-family="Arial" font-size="14.00" fill="#666666">[TEXT]</text>
<polygon fill="none" stroke="#000000" points="349.6176,-315.5 349.6176,-345.5 526.6176,-345.5 526.6176,-315.5 349.6176,-315.5"/>
<text text-anchor="start" x="356.6176" y="-326.9" font-family="Arial" font-size="14.00" fill="#000000">segmentation </text>
<text text-anchor="start" x="444.5348" y="-326.9" font-family="Arial" font-size="14.00" fill="#666666">[TEXT]</text>
<polygon fill="none" stroke="#000000" points="349.6176,-285.5 349.6176,-315.5 526.6176,-315.5 526.6176,-285.5 349.6176,-285.5"/>
<text text-anchor="start" x="356.6176" y="-296.9" font-family="Arial" font-size="14.00" fill="#000000">state_sysinfo </text>
<text text-anchor="start" x="442.1996" y="-296.9" font-family="Arial" font-size="14.00" fill="#666666">[TEXT]</text>
<polygon fill="none" stroke="#000000" points="349.6176,-255.5 349.6176,-285.5 526.6176,-285.5 526.6176,-255.5 349.6176,-255.5"/>
<text text-anchor="start" x="356.6176" y="-266.9" font-family="Arial" font-size="14.00" fill="#000000">elaboration </text>
<text text-anchor="start" x="429.7508" y="-266.9" font-family="Arial" font-size="14.00" fill="#666666">[TEXT]</text>
<polygon fill="none" stroke="#000000" points="349.6176,-225.5 349.6176,-255.5 526.6176,-255.5 526.6176,-225.5 349.6176,-225.5"/>
<text text-anchor="start" x="356.6176" y="-236.9" font-family="Arial" font-size="14.00" fill="#000000">created_at </text>
<text text-anchor="start" x="426.6456" y="-236.9" font-family="Arial" font-size="14.00" fill="#666666">[TIMESTAMP]</text>
<polygon fill="none" stroke="#000000" points="349.6176,-195.5 349.6176,-225.5 526.6176,-225.5 526.6176,-195.5 349.6176,-195.5"/>
<text text-anchor="start" x="356.6176" y="-206.9" font-family="Arial" font-size="14.00" fill="#000000">created_by </text>
<text text-anchor="start" x="429.755" y="-206.9" font-family="Arial" font-size="14.00" fill="#666666">[TEXT]</text>
<polygon fill="none" stroke="#000000" points="349.6176,-165.5 349.6176,-195.5 526.6176,-195.5 526.6176,-165.5 349.6176,-165.5"/>
<text text-anchor="start" x="356.429" y="-176.9" font-family="Arial" font-size="14.00" fill="#000000">updated_at </text>
<text text-anchor="start" x="430.3616" y="-176.9" font-family="Arial" font-size="14.00" fill="#666666">[TIMESTAMP]</text>
<polygon fill="none" stroke="#000000" points="349.6176,-135.5 349.6176,-165.5 526.6176,-165.5 526.6176,-135.5 349.6176,-135.5"/>
<text text-anchor="start" x="356.6176" y="-146.9" font-family="Arial" font-size="14.00" fill="#000000">updated_by </text>
<text text-anchor="start" x="433.6596" y="-146.9" font-family="Arial" font-size="14.00" fill="#666666">[TEXT]</text>
<polygon fill="none" stroke="#000000" points="349.6176,-105.5 349.6176,-135.5 526.6176,-135.5 526.6176,-105.5 349.6176,-105.5"/>
<text text-anchor="start" x="356.6176" y="-116.9" font-family="Arial" font-size="14.00" fill="#000000">deleted_at </text>
<text text-anchor="start" x="425.8742" y="-116.9" font-family="Arial" font-size="14.00" fill="#666666">[TIMESTAMP]</text>
<polygon fill="none" stroke="#000000" points="349.6176,-75.5 349.6176,-105.5 526.6176,-105.5 526.6176,-75.5 349.6176,-75.5"/>
<text text-anchor="start" x="356.6176" y="-86.9" font-family="Arial" font-size="14.00" fill="#000000">deleted_by </text>
<text text-anchor="start" x="428.9836" y="-86.9" font-family="Arial" font-size="14.00" fill="#666666">[TEXT]</text>
<polygon fill="none" stroke="#000000" points="349.6176,-45.5 349.6176,-75.5 526.6176,-75.5 526.6176,-45.5 349.6176,-45.5"/>
<text text-anchor="start" x="356.6176" y="-56.9" font-family="Arial" font-size="14.00" fill="#000000">activity_log </text>
<text text-anchor="start" x="429.7396" y="-56.9" font-family="Arial" font-size="14.00" fill="#666666">[TEXT]</text>
<polygon fill="none" stroke="#000000" stroke-width="3" points="347.6176,-44.5 347.6176,-502.5 527.6176,-502.5 527.6176,-44.5 347.6176,-44.5"/>
</g>
<!-- ur_walk_session -->
<g id="node2" class="node">
<title>ur_walk_session</title>
<polygon fill="#efefef" stroke="transparent" points="216.6176,-1075.5 216.6176,-1110.5 457.6176,-1110.5 457.6176,-1075.5 216.6176,-1075.5"/>
<polygon fill="none" stroke="#000000" points="216.6176,-1075.5 216.6176,-1110.5 457.6176,-1110.5 457.6176,-1075.5 216.6176,-1075.5"/>
<text text-anchor="start" x="234.443" y="-1088.3" font-family="Arial Bold" font-size="18.00" fill="#000000">ur_walk_session</text>
<text text-anchor="start" x="367.4612" y="-1088.3" font-family="Arial" font-size="14.00" fill="#000000">    </text>
<text text-anchor="start" x="401.666" y="-1088.3" font-family="Arial" font-size="14.00" fill="#666666">[table]</text>
<polygon fill="none" stroke="#000000" points="216.6176,-1045.5 216.6176,-1075.5 457.6176,-1075.5 457.6176,-1045.5 216.6176,-1045.5"/>
<text text-anchor="start" x="223.6176" y="-1056.9" font-family="Arial" font-size="14.00" fill="#000000">ur_walk_session_id    </text>
<text text-anchor="start" x="379.9528" y="-1056.9" font-family="Arial" font-size="14.00" fill="#666666">[ULID]</text>
<polygon fill="none" stroke="#000000" points="216.6176,-1015.5 216.6176,-1045.5 457.6176,-1045.5 457.6176,-1015.5 216.6176,-1015.5"/>
<text text-anchor="start" x="223.6176" y="-1026.9" font-family="Arial" font-size="14.00" fill="#000000">device_id    </text>
<text text-anchor="start" x="316.9486" y="-1026.9" font-family="Arial" font-size="14.00" fill="#666666">[ULID]</text>
<polygon fill="none" stroke="#000000" points="216.6176,-985.5 216.6176,-1015.5 457.6176,-1015.5 457.6176,-985.5 216.6176,-985.5"/>
<text text-anchor="start" x="223.6176" y="-996.9" font-family="Arial" font-size="14.00" fill="#000000">walk_started_at    </text>
<text text-anchor="start" x="355.8462" y="-996.9" font-family="Arial" font-size="14.00" fill="#666666">[TIMESTAMP]</text>
<polygon fill="none" stroke="#000000" points="216.6176,-955.5 216.6176,-985.5 457.6176,-985.5 457.6176,-955.5 216.6176,-955.5"/>
<text text-anchor="start" x="223.5587" y="-966.9" font-family="Arial" font-size="14.00" fill="#000000">walk_finished_at    </text>
<text text-anchor="start" x="361.2319" y="-966.9" font-family="Arial" font-size="14.00" fill="#666666">[TIMESTAMP]</text>
<polygon fill="none" stroke="#000000" points="216.6176,-925.5 216.6176,-955.5 457.6176,-955.5 457.6176,-925.5 216.6176,-925.5"/>
<text text-anchor="start" x="223.6176" y="-936.9" font-family="Arial" font-size="14.00" fill="#000000">ignore_paths_regex    </text>
<text text-anchor="start" x="381.532" y="-936.9" font-family="Arial" font-size="14.00" fill="#666666">[TEXT]</text>
<polygon fill="none" stroke="#000000" points="216.6176,-895.5 216.6176,-925.5 457.6176,-925.5 457.6176,-895.5 216.6176,-895.5"/>
<text text-anchor="start" x="223.6176" y="-906.9" font-family="Arial" font-size="14.00" fill="#000000">blobs_regex    </text>
<text text-anchor="start" x="334.0678" y="-906.9" font-family="Arial" font-size="14.00" fill="#666666">[TEXT]</text>
<polygon fill="none" stroke="#000000" points="216.6176,-865.5 216.6176,-895.5 457.6176,-895.5 457.6176,-865.5 216.6176,-865.5"/>
<text text-anchor="start" x="223.6176" y="-876.9" font-family="Arial" font-size="14.00" fill="#000000">digests_regex    </text>
<text text-anchor="start" x="344.9584" y="-876.9" font-family="Arial" font-size="14.00" fill="#666666">[TEXT]</text>
<polygon fill="none" stroke="#000000" points="216.6176,-835.5 216.6176,-865.5 457.6176,-865.5 457.6176,-835.5 216.6176,-835.5"/>
<text text-anchor="start" x="223.6176" y="-846.9" font-family="Arial" font-size="14.00" fill="#000000">elaboration    </text>
<text text-anchor="start" x="327.065" y="-846.9" font-family="Arial" font-size="14.00" fill="#666666">[TEXT]</text>
<polygon fill="none" stroke="#000000" points="216.6176,-805.5 216.6176,-835.5 457.6176,-835.5 457.6176,-805.5 216.6176,-805.5"/>
<text text-anchor="start" x="223.6176" y="-816.9" font-family="Arial" font-size="14.00" fill="#000000">created_at    </text>
<text text-anchor="start" x="323.9598" y="-816.9" font-family="Arial" font-size="14.00" fill="#666666">[TIMESTAMP]</text>
<polygon fill="none" stroke="#000000" points="216.6176,-775.5 216.6176,-805.5 457.6176,-805.5 457.6176,-775.5 216.6176,-775.5"/>
<text text-anchor="start" x="223.6176" y="-786.9" font-family="Arial" font-size="14.00" fill="#000000">created_by    </text>
<text text-anchor="start" x="327.0692" y="-786.9" font-family="Arial" font-size="14.00" fill="#666666">[TEXT]</text>
<polygon fill="none" stroke="#000000" points="216.6176,-745.5 216.6176,-775.5 457.6176,-775.5 457.6176,-745.5 216.6176,-745.5"/>
<text text-anchor="start" x="223.6176" y="-756.9" font-family="Arial" font-size="14.00" fill="#000000">updated_at    </text>
<text text-anchor="start" x="327.8644" y="-756.9" font-family="Arial" font-size="14.00" fill="#666666">[TIMESTAMP]</text>
<polygon fill="none" stroke="#000000" points="216.6176,-715.5 216.6176,-745.5 457.6176,-745.5 457.6176,-715.5 216.6176,-715.5"/>
<text text-anchor="start" x="223.6176" y="-726.9" font-family="Arial" font-size="14.00" fill="#000000">updated_by    </text>
<text text-anchor="start" x="330.9738" y="-726.9" font-family="Arial" font-size="14.00" fill="#666666">[TEXT]</text>
<polygon fill="none" stroke="#000000" points="216.6176,-685.5 216.6176,-715.5 457.6176,-715.5 457.6176,-685.5 216.6176,-685.5"/>
<text text-anchor="start" x="223.6176" y="-696.9" font-family="Arial" font-size="14.00" fill="#000000">deleted_at    </text>
<text text-anchor="start" x="323.1884" y="-696.9" font-family="Arial" font-size="14.00" fill="#666666">[TIMESTAMP]</text>
<polygon fill="none" stroke="#000000" points="216.6176,-655.5 216.6176,-685.5 457.6176,-685.5 457.6176,-655.5 216.6176,-655.5"/>
<text text-anchor="start" x="223.6176" y="-666.9" font-family="Arial" font-size="14.00" fill="#000000">deleted_by    </text>
<text text-anchor="start" x="326.2978" y="-666.9" font-family="Arial" font-size="14.00" fill="#666666">[TEXT]</text>
<polygon fill="none" stroke="#000000" points="216.6176,-625.5 216.6176,-655.5 457.6176,-655.5 457.6176,-625.5 216.6176,-625.5"/>
<text text-anchor="start" x="223.6176" y="-636.9" font-family="Arial" font-size="14.00" fill="#000000">activity_log    </text>
<text text-anchor="start" x="327.0538" y="-636.9" font-family="Arial" font-size="14.00" fill="#666666">[TEXT]</text>
</g>
<!-- ur_walk_session&#45;&gt;device -->
<g id="edge1" class="edge">
<title>ur_walk_session:device_id&#45;&gt;device:device_id</title>
<path fill="none" stroke="#000000" d="M467.8463,-1030.237C653.5923,-1020.4785 571.8658,-741.5109 457.6176,-583 428.0334,-541.954 379.2019,-588.046 349.6176,-547 324.54,-512.2067 306.7287,-450.5 349.6176,-450.5"/>
<polygon fill="#000000" stroke="#000000" points="467.6143,-1030.2428 457.5019,-1026.0015 462.616,-1030.3714 457.6176,-1030.5 457.6176,-1030.5 457.6176,-1030.5 462.616,-1030.3714 457.7333,-1034.9985 467.6143,-1030.2428 467.6143,-1030.2428"/>
</g>
<!-- ur_walk_session_path -->
<g id="node3" class="node">
<title>ur_walk_session_path</title>
<polygon fill="#efefef" stroke="transparent" points="306.6176,-1562.5 306.6176,-1597.5 570.6176,-1597.5 570.6176,-1562.5 306.6176,-1562.5"/>
<polygon fill="none" stroke="#000000" points="306.6176,-1562.5 306.6176,-1597.5 570.6176,-1597.5 570.6176,-1562.5 306.6176,-1562.5"/>
<text text-anchor="start" x="313.4295" y="-1575.3" font-family="Arial Bold" font-size="18.00" fill="#000000">ur_walk_session_path</text>
<text text-anchor="start" x="491.4747" y="-1575.3" font-family="Arial" font-size="14.00" fill="#000000">    </text>
<text text-anchor="start" x="525.6795" y="-1575.3" font-family="Arial" font-size="14.00" fill="#666666">[table]</text>
<polygon fill="none" stroke="#000000" points="306.6176,-1532.5 306.6176,-1562.5 570.6176,-1562.5 570.6176,-1532.5 306.6176,-1532.5"/>
<text text-anchor="start" x="313.6176" y="-1543.9" font-family="Arial" font-size="14.00" fill="#000000">ur_walk_session_path_id    </text>
<text text-anchor="start" x="504.9738" y="-1543.9" font-family="Arial" font-size="14.00" fill="#666666">[ULID]</text>
<polygon fill="none" stroke="#000000" points="306.6176,-1502.5 306.6176,-1532.5 570.6176,-1532.5 570.6176,-1502.5 306.6176,-1502.5"/>
<text text-anchor="start" x="313.6176" y="-1513.9" font-family="Arial" font-size="14.00" fill="#000000">walk_session_id    </text>
<text text-anchor="start" x="449.727" y="-1513.9" font-family="Arial" font-size="14.00" fill="#666666">[ULID]</text>
<polygon fill="none" stroke="#000000" points="306.6176,-1472.5 306.6176,-1502.5 570.6176,-1502.5 570.6176,-1472.5 306.6176,-1472.5"/>
<text text-anchor="start" x="313.6176" y="-1483.9" font-family="Arial" font-size="14.00" fill="#000000">root_path    </text>
<text text-anchor="start" x="406.9598" y="-1483.9" font-family="Arial" font-size="14.00" fill="#666666">[TEXT]</text>
<polygon fill="none" stroke="#000000" points="306.6176,-1442.5 306.6176,-1472.5 570.6176,-1472.5 570.6176,-1442.5 306.6176,-1442.5"/>
<text text-anchor="start" x="313.6176" y="-1453.9" font-family="Arial" font-size="14.00" fill="#000000">elaboration    </text>
<text text-anchor="start" x="417.065" y="-1453.9" font-family="Arial" font-size="14.00" fill="#666666">[TEXT]</text>
<polygon fill="none" stroke="#000000" points="306.6176,-1412.5 306.6176,-1442.5 570.6176,-1442.5 570.6176,-1412.5 306.6176,-1412.5"/>
<text text-anchor="start" x="313.6176" y="-1423.9" font-family="Arial" font-size="14.00" fill="#000000">created_at    </text>
<text text-anchor="start" x="413.9598" y="-1423.9" font-family="Arial" font-size="14.00" fill="#666666">[TIMESTAMP]</text>
<polygon fill="none" stroke="#000000" points="306.6176,-1382.5 306.6176,-1412.5 570.6176,-1412.5 570.6176,-1382.5 306.6176,-1382.5"/>
<text text-anchor="start" x="313.6176" y="-1393.9" font-family="Arial" font-size="14.00" fill="#000000">created_by    </text>
<text text-anchor="start" x="417.0692" y="-1393.9" font-family="Arial" font-size="14.00" fill="#666666">[TEXT]</text>
<polygon fill="none" stroke="#000000" points="306.6176,-1352.5 306.6176,-1382.5 570.6176,-1382.5 570.6176,-1352.5 306.6176,-1352.5"/>
<text text-anchor="start" x="313.6176" y="-1363.9" font-family="Arial" font-size="14.00" fill="#000000">updated_at    </text>
<text text-anchor="start" x="417.8644" y="-1363.9" font-family="Arial" font-size="14.00" fill="#666666">[TIMESTAMP]</text>
<polygon fill="none" stroke="#000000" points="306.6176,-1322.5 306.6176,-1352.5 570.6176,-1352.5 570.6176,-1322.5 306.6176,-1322.5"/>
<text text-anchor="start" x="313.6176" y="-1333.9" font-family="Arial" font-size="14.00" fill="#000000">updated_by    </text>
<text text-anchor="start" x="420.9738" y="-1333.9" font-family="Arial" font-size="14.00" fill="#666666">[TEXT]</text>
<polygon fill="none" stroke="#000000" points="306.6176,-1292.5 306.6176,-1322.5 570.6176,-1322.5 570.6176,-1292.5 306.6176,-1292.5"/>
<text text-anchor="start" x="313.6176" y="-1303.9" font-family="Arial" font-size="14.00" fill="#000000">deleted_at    </text>
<text text-anchor="start" x="413.1884" y="-1303.9" font-family="Arial" font-size="14.00" fill="#666666">[TIMESTAMP]</text>
<polygon fill="none" stroke="#000000" points="306.6176,-1262.5 306.6176,-1292.5 570.6176,-1292.5 570.6176,-1262.5 306.6176,-1262.5"/>
<text text-anchor="start" x="313.6176" y="-1273.9" font-family="Arial" font-size="14.00" fill="#000000">deleted_by    </text>
<text text-anchor="start" x="416.2978" y="-1273.9" font-family="Arial" font-size="14.00" fill="#666666">[TEXT]</text>
<polygon fill="none" stroke="#000000" points="306.6176,-1232.5 306.6176,-1262.5 570.6176,-1262.5 570.6176,-1232.5 306.6176,-1232.5"/>
<text text-anchor="start" x="313.6176" y="-1243.9" font-family="Arial" font-size="14.00" fill="#000000">activity_log    </text>
<text text-anchor="start" x="417.0538" y="-1243.9" font-family="Arial" font-size="14.00" fill="#666666">[TEXT]</text>
</g>
<!-- ur_walk_session_path&#45;&gt;ur_walk_session -->
<g id="edge2" class="edge">
<title>ur_walk_session_path:walk_session_id&#45;&gt;ur_walk_session:ur_walk_session_id</title>
<path fill="none" stroke="#000000" d="M296.6656,-1515.6224C236.5842,-1491.604 263.7185,-1244.3291 306.6176,-1190 349.3729,-1135.8531 414.8623,-1208.1469 457.6176,-1154 483.3701,-1121.386 499.1732,-1060.5 457.6176,-1060.5"/>
<polygon fill="#000000" stroke="#000000" points="296.791,-1515.6459 305.7833,-1521.922 301.7043,-1516.573 306.6176,-1517.5 306.6176,-1517.5 306.6176,-1517.5 301.7043,-1516.573 307.4519,-1513.078 296.791,-1515.6459 296.791,-1515.6459"/>
</g>
<!-- uniform_resource -->
<g id="node4" class="node">
<title>uniform_resource</title>
<polygon fill="#efefef" stroke="transparent" points="294.6176,-2319.5 294.6176,-2354.5 528.6176,-2354.5 528.6176,-2319.5 294.6176,-2319.5"/>
<polygon fill="none" stroke="#000000" points="294.6176,-2319.5 294.6176,-2354.5 528.6176,-2354.5 528.6176,-2319.5 294.6176,-2319.5"/>
<text text-anchor="start" x="305.4447" y="-2332.3" font-family="Arial Bold" font-size="18.00" fill="#000000">uniform_resource</text>
<text text-anchor="start" x="445.4595" y="-2332.3" font-family="Arial" font-size="14.00" fill="#000000">    </text>
<text text-anchor="start" x="479.6643" y="-2332.3" font-family="Arial" font-size="14.00" fill="#666666">[table]</text>
<polygon fill="none" stroke="#000000" points="294.6176,-2289.5 294.6176,-2319.5 528.6176,-2319.5 528.6176,-2289.5 294.6176,-2289.5"/>
<text text-anchor="start" x="301.6176" y="-2300.9" font-family="Arial" font-size="14.00" fill="#000000">uniform_resource_id    </text>
<text text-anchor="start" x="463.3946" y="-2300.9" font-family="Arial" font-size="14.00" fill="#666666">[ULID]</text>
<polygon fill="none" stroke="#000000" points="294.6176,-2259.5 294.6176,-2289.5 528.6176,-2289.5 528.6176,-2259.5 294.6176,-2259.5"/>
<text text-anchor="start" x="301.6176" y="-2270.9" font-family="Arial" font-size="14.00" fill="#000000">device_id    </text>
<text text-anchor="start" x="394.9486" y="-2270.9" font-family="Arial" font-size="14.00" fill="#666666">[ULID]</text>
<polygon fill="none" stroke="#000000" points="294.6176,-2229.5 294.6176,-2259.5 528.6176,-2259.5 528.6176,-2229.5 294.6176,-2229.5"/>
<text text-anchor="start" x="301.6176" y="-2240.9" font-family="Arial" font-size="14.00" fill="#000000">walk_session_id    </text>
<text text-anchor="start" x="437.727" y="-2240.9" font-family="Arial" font-size="14.00" fill="#666666">[ULID]</text>
<polygon fill="none" stroke="#000000" points="294.6176,-2199.5 294.6176,-2229.5 528.6176,-2229.5 528.6176,-2199.5 294.6176,-2199.5"/>
<text text-anchor="start" x="301.6176" y="-2210.9" font-family="Arial" font-size="14.00" fill="#000000">walk_path_id    </text>
<text text-anchor="start" x="417.511" y="-2210.9" font-family="Arial" font-size="14.00" fill="#666666">[ULID]</text>
<polygon fill="none" stroke="#000000" points="294.6176,-2169.5 294.6176,-2199.5 528.6176,-2199.5 528.6176,-2169.5 294.6176,-2169.5"/>
<text text-anchor="start" x="301.6176" y="-2180.9" font-family="Arial" font-size="14.00" fill="#000000">uri    </text>
<text text-anchor="start" x="351.3722" y="-2180.9" font-family="Arial" font-size="14.00" fill="#666666">[TEXT]</text>
<polygon fill="none" stroke="#000000" points="294.6176,-2139.5 294.6176,-2169.5 528.6176,-2169.5 528.6176,-2139.5 294.6176,-2139.5"/>
<text text-anchor="start" x="301.6176" y="-2150.9" font-family="Arial" font-size="14.00" fill="#000000">content_digest    </text>
<text text-anchor="start" x="426.8616" y="-2150.9" font-family="Arial" font-size="14.00" fill="#666666">[TEXT]</text>
<polygon fill="none" stroke="#000000" points="294.6176,-2109.5 294.6176,-2139.5 528.6176,-2139.5 528.6176,-2109.5 294.6176,-2109.5"/>
<text text-anchor="start" x="301.6176" y="-2120.9" font-family="Arial" font-size="14.00" fill="#000000">content    </text>
<text text-anchor="start" x="381.734" y="-2120.9" font-family="Arial" font-size="14.00" fill="#666666">[BLOB]</text>
<polygon fill="none" stroke="#000000" points="294.6176,-2079.5 294.6176,-2109.5 528.6176,-2109.5 528.6176,-2079.5 294.6176,-2079.5"/>
<text text-anchor="start" x="301.6176" y="-2090.9" font-family="Arial" font-size="14.00" fill="#000000">nature    </text>
<text text-anchor="start" x="375.504" y="-2090.9" font-family="Arial" font-size="14.00" fill="#666666">[TEXT]</text>
<polygon fill="none" stroke="#000000" points="294.6176,-2049.5 294.6176,-2079.5 528.6176,-2079.5 528.6176,-2049.5 294.6176,-2049.5"/>
<text text-anchor="start" x="301.6176" y="-2060.9" font-family="Arial" font-size="14.00" fill="#000000">size_bytes    </text>
<text text-anchor="start" x="401.95" y="-2060.9" font-family="Arial" font-size="14.00" fill="#666666">[INTEGER]</text>
<polygon fill="none" stroke="#000000" points="294.6176,-2019.5 294.6176,-2049.5 528.6176,-2049.5 528.6176,-2019.5 294.6176,-2019.5"/>
<text text-anchor="start" x="301.6176" y="-2030.9" font-family="Arial" font-size="14.00" fill="#000000">last_modified_at    </text>
<text text-anchor="start" x="437.7354" y="-2030.9" font-family="Arial" font-size="14.00" fill="#666666">[INTEGER]</text>
<polygon fill="none" stroke="#000000" points="294.6176,-1989.5 294.6176,-2019.5 528.6176,-2019.5 528.6176,-1989.5 294.6176,-1989.5"/>
<text text-anchor="start" x="301.544" y="-2000.9" font-family="Arial" font-size="14.00" fill="#000000">content_fm_body_attrs    </text>
<text text-anchor="start" x="478.1316" y="-2000.9" font-family="Arial" font-size="14.00" fill="#666666">[TEXT]</text>
<polygon fill="none" stroke="#000000" points="294.6176,-1959.5 294.6176,-1989.5 528.6176,-1989.5 528.6176,-1959.5 294.6176,-1959.5"/>
<text text-anchor="start" x="301.6176" y="-1970.9" font-family="Arial" font-size="14.00" fill="#000000">frontmatter    </text>
<text text-anchor="start" x="403.497" y="-1970.9" font-family="Arial" font-size="14.00" fill="#666666">[TEXT]</text>
<polygon fill="none" stroke="#000000" points="294.6176,-1929.5 294.6176,-1959.5 528.6176,-1959.5 528.6176,-1929.5 294.6176,-1929.5"/>
<text text-anchor="start" x="301.6176" y="-1940.9" font-family="Arial" font-size="14.00" fill="#000000">elaboration    </text>
<text text-anchor="start" x="405.065" y="-1940.9" font-family="Arial" font-size="14.00" fill="#666666">[TEXT]</text>
<polygon fill="none" stroke="#000000" points="294.6176,-1899.5 294.6176,-1929.5 528.6176,-1929.5 528.6176,-1899.5 294.6176,-1899.5"/>
<text text-anchor="start" x="301.6176" y="-1910.9" font-family="Arial" font-size="14.00" fill="#000000">created_at    </text>
<text text-anchor="start" x="401.9598" y="-1910.9" font-family="Arial" font-size="14.00" fill="#666666">[TIMESTAMP]</text>
<polygon fill="none" stroke="#000000" points="294.6176,-1869.5 294.6176,-1899.5 528.6176,-1899.5 528.6176,-1869.5 294.6176,-1869.5"/>
<text text-anchor="start" x="301.6176" y="-1880.9" font-family="Arial" font-size="14.00" fill="#000000">created_by    </text>
<text text-anchor="start" x="405.0692" y="-1880.9" font-family="Arial" font-size="14.00" fill="#666666">[TEXT]</text>
<polygon fill="none" stroke="#000000" points="294.6176,-1839.5 294.6176,-1869.5 528.6176,-1869.5 528.6176,-1839.5 294.6176,-1839.5"/>
<text text-anchor="start" x="301.6176" y="-1850.9" font-family="Arial" font-size="14.00" fill="#000000">updated_at    </text>
<text text-anchor="start" x="405.8644" y="-1850.9" font-family="Arial" font-size="14.00" fill="#666666">[TIMESTAMP]</text>
<polygon fill="none" stroke="#000000" points="294.6176,-1809.5 294.6176,-1839.5 528.6176,-1839.5 528.6176,-1809.5 294.6176,-1809.5"/>
<text text-anchor="start" x="301.6176" y="-1820.9" font-family="Arial" font-size="14.00" fill="#000000">updated_by    </text>
<text text-anchor="start" x="408.9738" y="-1820.9" font-family="Arial" font-size="14.00" fill="#666666">[TEXT]</text>
<polygon fill="none" stroke="#000000" points="294.6176,-1779.5 294.6176,-1809.5 528.6176,-1809.5 528.6176,-1779.5 294.6176,-1779.5"/>
<text text-anchor="start" x="301.6176" y="-1790.9" font-family="Arial" font-size="14.00" fill="#000000">deleted_at    </text>
<text text-anchor="start" x="401.1884" y="-1790.9" font-family="Arial" font-size="14.00" fill="#666666">[TIMESTAMP]</text>
<polygon fill="none" stroke="#000000" points="294.6176,-1749.5 294.6176,-1779.5 528.6176,-1779.5 528.6176,-1749.5 294.6176,-1749.5"/>
<text text-anchor="start" x="301.6176" y="-1760.9" font-family="Arial" font-size="14.00" fill="#000000">deleted_by    </text>
<text text-anchor="start" x="404.2978" y="-1760.9" font-family="Arial" font-size="14.00" fill="#666666">[TEXT]</text>
<polygon fill="none" stroke="#000000" points="294.6176,-1719.5 294.6176,-1749.5 528.6176,-1749.5 528.6176,-1719.5 294.6176,-1719.5"/>
<text text-anchor="start" x="301.6176" y="-1730.9" font-family="Arial" font-size="14.00" fill="#000000">activity_log    </text>
<text text-anchor="start" x="405.0538" y="-1730.9" font-family="Arial" font-size="14.00" fill="#666666">[TEXT]</text>
</g>
<!-- uniform_resource&#45;&gt;device -->
<g id="edge5" class="edge">
<title>uniform_resource:device_id&#45;&gt;device:device_id</title>
<path fill="none" stroke="#000000" d="M538.5422,-2273.0085C731.1627,-2214.4402 725.9198,-450.5 526.6176,-450.5"/>
<polygon fill="#000000" stroke="#000000" points="538.5066,-2273.0138 527.9488,-2270.05 533.5621,-2273.7569 528.6176,-2274.5 528.6176,-2274.5 528.6176,-2274.5 533.5621,-2273.7569 529.2864,-2278.95 538.5066,-2273.0138 538.5066,-2273.0138"/>
</g>
<!-- uniform_resource&#45;&gt;ur_walk_session -->
<g id="edge3" class="edge">
<title>uniform_resource:walk_session_id&#45;&gt;ur_walk_session:ur_walk_session_id</title>
<path fill="none" stroke="#000000" d="M291.52,-2234.9695C270.1737,-2122.9176 201.0066,-1060.5 216.6176,-1060.5"/>
<polygon fill="#000000" stroke="#000000" points="291.5266,-2234.9897 290.338,-2245.891 293.0721,-2239.7448 294.6176,-2244.5 294.6176,-2244.5 294.6176,-2244.5 293.0721,-2239.7448 298.8972,-2243.109 291.5266,-2234.9897 291.5266,-2234.9897"/>
</g>
<!-- uniform_resource&#45;&gt;ur_walk_session_path -->
<g id="edge7" class="edge">
<title>uniform_resource:walk_path_id&#45;&gt;ur_walk_session_path:ur_walk_session_path_id</title>
<path fill="none" stroke="#000000" d="M538.9085,-2214.2728C765.0281,-2204.1204 681.161,-1856.2728 528.6176,-1677 463.8418,-1600.8738 371.3935,-1717.1262 306.6176,-1641 279.6877,-1609.3513 265.0621,-1547.5 306.6176,-1547.5"/>
<polygon fill="#000000" stroke="#000000" points="538.6152,-2214.2792 528.5182,-2210.0011 533.6164,-2214.3896 528.6176,-2214.5 528.6176,-2214.5 528.6176,-2214.5 533.6164,-2214.3896 528.717,-2218.9989 538.6152,-2214.2792 538.6152,-2214.2792"/>
</g>
<!-- ur_walk_session_path_fs_entry -->
<g id="node5" class="node">
<title>ur_walk_session_path_fs_entry</title>
<polygon fill="#efefef" stroke="transparent" points="122.6176,-3046.5 122.6176,-3081.5 460.6176,-3081.5 460.6176,-3046.5 122.6176,-3046.5"/>
<polygon fill="none" stroke="#000000" points="122.6176,-3046.5 122.6176,-3081.5 460.6176,-3081.5 460.6176,-3046.5 122.6176,-3046.5"/>
<text text-anchor="start" x="129.4188" y="-3059.3" font-family="Arial Bold" font-size="18.00" fill="#000000">ur_walk_session_path_fs_entry</text>
<text text-anchor="start" x="381.4854" y="-3059.3" font-family="Arial" font-size="14.00" fill="#000000">    </text>
<text text-anchor="start" x="415.6902" y="-3059.3" font-family="Arial" font-size="14.00" fill="#666666">[table]</text>
<polygon fill="none" stroke="#000000" points="122.6176,-3016.5 122.6176,-3046.5 460.6176,-3046.5 460.6176,-3016.5 122.6176,-3016.5"/>
<text text-anchor="start" x="129.6176" y="-3027.9" font-family="Arial" font-size="14.00" fill="#000000">ur_walk_session_path_fs_entry_id    </text>
<text text-anchor="start" x="378.546" y="-3027.9" font-family="Arial" font-size="14.00" fill="#666666">[ULID]</text>
<polygon fill="none" stroke="#000000" points="122.6176,-2986.5 122.6176,-3016.5 460.6176,-3016.5 460.6176,-2986.5 122.6176,-2986.5"/>
<text text-anchor="start" x="129.6176" y="-2997.9" font-family="Arial" font-size="14.00" fill="#000000">walk_session_id    </text>
<text text-anchor="start" x="265.727" y="-2997.9" font-family="Arial" font-size="14.00" fill="#666666">[ULID]</text>
<polygon fill="none" stroke="#000000" points="122.6176,-2956.5 122.6176,-2986.5 460.6176,-2986.5 460.6176,-2956.5 122.6176,-2956.5"/>
<text text-anchor="start" x="129.6176" y="-2967.9" font-family="Arial" font-size="14.00" fill="#000000">walk_path_id    </text>
<text text-anchor="start" x="245.511" y="-2967.9" font-family="Arial" font-size="14.00" fill="#666666">[ULID]</text>
<polygon fill="none" stroke="#000000" points="122.6176,-2926.5 122.6176,-2956.5 460.6176,-2956.5 460.6176,-2926.5 122.6176,-2926.5"/>
<text text-anchor="start" x="129.6176" y="-2937.9" font-family="Arial" font-size="14.00" fill="#000000">uniform_resource_id    </text>
<text text-anchor="start" x="291.3946" y="-2937.9" font-family="Arial" font-size="14.00" fill="#666666">[ULID]</text>
<polygon fill="none" stroke="#000000" points="122.6176,-2896.5 122.6176,-2926.5 460.6176,-2926.5 460.6176,-2896.5 122.6176,-2896.5"/>
<text text-anchor="start" x="129.6176" y="-2907.9" font-family="Arial" font-size="14.00" fill="#000000">file_path_abs    </text>
<text text-anchor="start" x="247.0776" y="-2907.9" font-family="Arial" font-size="14.00" fill="#666666">[TEXT]</text>
<polygon fill="none" stroke="#000000" points="122.6176,-2866.5 122.6176,-2896.5 460.6176,-2896.5 460.6176,-2866.5 122.6176,-2866.5"/>
<text text-anchor="start" x="129.6176" y="-2877.9" font-family="Arial" font-size="14.00" fill="#000000">file_path_rel_parent    </text>
<text text-anchor="start" x="287.5264" y="-2877.9" font-family="Arial" font-size="14.00" fill="#666666">[TEXT]</text>
<polygon fill="none" stroke="#000000" points="122.6176,-2836.5 122.6176,-2866.5 460.6176,-2866.5 460.6176,-2836.5 122.6176,-2836.5"/>
<text text-anchor="start" x="129.6176" y="-2847.9" font-family="Arial" font-size="14.00" fill="#000000">file_path_rel    </text>
<text text-anchor="start" x="240.0622" y="-2847.9" font-family="Arial" font-size="14.00" fill="#666666">[TEXT]</text>
<polygon fill="none" stroke="#000000" points="122.6176,-2806.5 122.6176,-2836.5 460.6176,-2836.5 460.6176,-2806.5 122.6176,-2806.5"/>
<text text-anchor="start" x="129.6176" y="-2817.9" font-family="Arial" font-size="14.00" fill="#000000">file_basename    </text>
<text text-anchor="start" x="254.8476" y="-2817.9" font-family="Arial" font-size="14.00" fill="#666666">[TEXT]</text>
<polygon fill="none" stroke="#000000" points="122.6176,-2776.5 122.6176,-2806.5 460.6176,-2806.5 460.6176,-2776.5 122.6176,-2776.5"/>
<text text-anchor="start" x="129.6176" y="-2787.9" font-family="Arial" font-size="14.00" fill="#000000">file_extn    </text>
<text text-anchor="start" x="215.9472" y="-2787.9" font-family="Arial" font-size="14.00" fill="#666666">[TEXT]</text>
<polygon fill="none" stroke="#000000" points="122.6176,-2746.5 122.6176,-2776.5 460.6176,-2776.5 460.6176,-2746.5 122.6176,-2746.5"/>
<text text-anchor="start" x="129.6176" y="-2757.9" font-family="Arial" font-size="14.00" fill="#000000">ur_status    </text>
<text text-anchor="start" x="221.3946" y="-2757.9" font-family="Arial" font-size="14.00" fill="#666666">[TEXT]</text>
<polygon fill="none" stroke="#000000" points="122.6176,-2716.5 122.6176,-2746.5 460.6176,-2746.5 460.6176,-2716.5 122.6176,-2716.5"/>
<text text-anchor="start" x="129.6176" y="-2727.9" font-family="Arial" font-size="14.00" fill="#000000">ur_status_explanation    </text>
<text text-anchor="start" x="300.7592" y="-2727.9" font-family="Arial" font-size="14.00" fill="#666666">[TEXT]</text>
<polygon fill="none" stroke="#000000" points="122.6176,-2686.5 122.6176,-2716.5 460.6176,-2716.5 460.6176,-2686.5 122.6176,-2686.5"/>
<text text-anchor="start" x="129.6176" y="-2697.9" font-family="Arial" font-size="14.00" fill="#000000">elaboration    </text>
<text text-anchor="start" x="233.065" y="-2697.9" font-family="Arial" font-size="14.00" fill="#666666">[TEXT]</text>
<polygon fill="none" stroke="#000000" points="122.6176,-2656.5 122.6176,-2686.5 460.6176,-2686.5 460.6176,-2656.5 122.6176,-2656.5"/>
<text text-anchor="start" x="129.6176" y="-2667.9" font-family="Arial" font-size="14.00" fill="#000000">created_at    </text>
<text text-anchor="start" x="229.9598" y="-2667.9" font-family="Arial" font-size="14.00" fill="#666666">[TIMESTAMP]</text>
<polygon fill="none" stroke="#000000" points="122.6176,-2626.5 122.6176,-2656.5 460.6176,-2656.5 460.6176,-2626.5 122.6176,-2626.5"/>
<text text-anchor="start" x="129.6176" y="-2637.9" font-family="Arial" font-size="14.00" fill="#000000">created_by    </text>
<text text-anchor="start" x="233.0692" y="-2637.9" font-family="Arial" font-size="14.00" fill="#666666">[TEXT]</text>
<polygon fill="none" stroke="#000000" points="122.6176,-2596.5 122.6176,-2626.5 460.6176,-2626.5 460.6176,-2596.5 122.6176,-2596.5"/>
<text text-anchor="start" x="129.6176" y="-2607.9" font-family="Arial" font-size="14.00" fill="#000000">updated_at    </text>
<text text-anchor="start" x="233.8644" y="-2607.9" font-family="Arial" font-size="14.00" fill="#666666">[TIMESTAMP]</text>
<polygon fill="none" stroke="#000000" points="122.6176,-2566.5 122.6176,-2596.5 460.6176,-2596.5 460.6176,-2566.5 122.6176,-2566.5"/>
<text text-anchor="start" x="129.6176" y="-2577.9" font-family="Arial" font-size="14.00" fill="#000000">updated_by    </text>
<text text-anchor="start" x="236.9738" y="-2577.9" font-family="Arial" font-size="14.00" fill="#666666">[TEXT]</text>
<polygon fill="none" stroke="#000000" points="122.6176,-2536.5 122.6176,-2566.5 460.6176,-2566.5 460.6176,-2536.5 122.6176,-2536.5"/>
<text text-anchor="start" x="129.6176" y="-2547.9" font-family="Arial" font-size="14.00" fill="#000000">deleted_at    </text>
<text text-anchor="start" x="229.1884" y="-2547.9" font-family="Arial" font-size="14.00" fill="#666666">[TIMESTAMP]</text>
<polygon fill="none" stroke="#000000" points="122.6176,-2506.5 122.6176,-2536.5 460.6176,-2536.5 460.6176,-2506.5 122.6176,-2506.5"/>
<text text-anchor="start" x="129.6176" y="-2517.9" font-family="Arial" font-size="14.00" fill="#000000">deleted_by    </text>
<text text-anchor="start" x="232.2978" y="-2517.9" font-family="Arial" font-size="14.00" fill="#666666">[TEXT]</text>
<polygon fill="none" stroke="#000000" points="122.6176,-2476.5 122.6176,-2506.5 460.6176,-2506.5 460.6176,-2476.5 122.6176,-2476.5"/>
<text text-anchor="start" x="129.6176" y="-2487.9" font-family="Arial" font-size="14.00" fill="#000000">activity_log    </text>
<text text-anchor="start" x="233.0538" y="-2487.9" font-family="Arial" font-size="14.00" fill="#666666">[TEXT]</text>
</g>
<!-- ur_walk_session_path_fs_entry&#45;&gt;ur_walk_session -->
<g id="edge4" class="edge">
<title>ur_walk_session_path_fs_entry:walk_session_id&#45;&gt;ur_walk_session:ur_walk_session_id</title>
<path fill="none" stroke="#000000" d="M112.4207,-3000.0044C-90.2409,-2939.4522 4.1774,-1060.5 216.6176,-1060.5"/>
<polygon fill="#000000" stroke="#000000" points="112.7235,-3000.0487 121.9645,-3005.9524 117.6705,-3000.7743 122.6176,-3001.5 122.6176,-3001.5 122.6176,-3001.5 117.6705,-3000.7743 123.2707,-2997.0476 112.7235,-3000.0487 112.7235,-3000.0487"/>
</g>
<!-- ur_walk_session_path_fs_entry&#45;&gt;uniform_resource -->
<g id="edge6" class="edge">
<title>ur_walk_session_path_fs_entry:uniform_resource_id&#45;&gt;uniform_resource:uniform_resource_id</title>
<path fill="none" stroke="#000000" d="M470.6482,-2941.2735C683.6179,-2931.4875 600.0597,-2606.924 460.6176,-2434 413.2295,-2375.2333 342.0058,-2456.7667 294.6176,-2398 268.5325,-2365.6515 253.0621,-2304.5 294.6176,-2304.5"/>
<polygon fill="#000000" stroke="#000000" points="470.6151,-2941.2742 460.516,-2937.0011 465.6163,-2941.3871 460.6176,-2941.5 460.6176,-2941.5 460.6176,-2941.5 465.6163,-2941.3871 460.7192,-2945.9989 470.6151,-2941.2742 470.6151,-2941.2742"/>
</g>
</g>
</svg>
