<?xml version="1.0" encoding="UTF-8" standalone="no"?>
<!DOCTYPE svg PUBLIC "-//W3C//DTD SVG 1.1//EN"
 "http://www.w3.org/Graphics/SVG/1.1/DTD/svg11.dtd">
<!-- Generated by graphviz version 2.40.1 (20161225.0304)
 -->
<!-- Title: device Pages: 1 -->
<svg width="642pt" height="3650pt"
 viewBox="0.00 0.00 641.82 3650.00" xmlns="http://www.w3.org/2000/svg" xmlns:xlink="http://www.w3.org/1999/xlink">
<g id="graph0" class="graph" transform="scale(1 1) rotate(0) translate(4 3646)">
<title>device</title>
<polygon fill="#ffffff" stroke="transparent" points="-4,4 -4,-3646 637.8227,-3646 637.8227,4 -4,4"/>
<!-- device -->
<g id="node1" class="node">
<title>device</title>
<polygon fill="#efefef" stroke="transparent" points="305.4988,-465.5 305.4988,-500.5 482.4988,-500.5 482.4988,-465.5 305.4988,-465.5"/>
<polygon fill="none" stroke="#000000" points="305.4988,-465.5 305.4988,-500.5 482.4988,-500.5 482.4988,-465.5 305.4988,-465.5"/>
<text text-anchor="start" x="331.8269" y="-478.3" font-family="Arial Bold" font-size="18.00" fill="#000000">device</text>
<text text-anchor="start" x="383.8397" y="-478.3" font-family="Arial" font-size="14.00" fill="#000000">    </text>
<text text-anchor="start" x="418.0445" y="-478.3" font-family="Arial" font-size="14.00" fill="#666666">[table]</text>
<polygon fill="none" stroke="#000000" points="305.4988,-435.5 305.4988,-465.5 482.4988,-465.5 482.4988,-435.5 305.4988,-435.5"/>
<text text-anchor="start" x="312.4988" y="-446.9" font-family="Arial" font-size="14.00" fill="#000000">device_id </text>
<text text-anchor="start" x="375.5156" y="-446.9" font-family="Arial" font-size="14.00" fill="#666666">[ULID]</text>
<polygon fill="none" stroke="#000000" points="305.4988,-405.5 305.4988,-435.5 482.4988,-435.5 482.4988,-405.5 305.4988,-405.5"/>
<text text-anchor="start" x="312.4988" y="-416.9" font-family="Arial" font-size="14.00" fill="#000000">name </text>
<text text-anchor="start" x="351.3978" y="-416.9" font-family="Arial" font-size="14.00" fill="#666666">[TEXT]</text>
<polygon fill="none" stroke="#000000" points="305.4988,-375.5 305.4988,-405.5 482.4988,-405.5 482.4988,-375.5 305.4988,-375.5"/>
<text text-anchor="start" x="312.4988" y="-386.9" font-family="Arial" font-size="14.00" fill="#000000">state </text>
<text text-anchor="start" x="346.7358" y="-386.9" font-family="Arial" font-size="14.00" fill="#666666">[TEXT]</text>
<polygon fill="none" stroke="#000000" points="305.4988,-345.5 305.4988,-375.5 482.4988,-375.5 482.4988,-345.5 305.4988,-345.5"/>
<text text-anchor="start" x="312.4988" y="-356.9" font-family="Arial" font-size="14.00" fill="#000000">boundary </text>
<text text-anchor="start" x="374.7456" y="-356.9" font-family="Arial" font-size="14.00" fill="#666666">[TEXT]</text>
<polygon fill="none" stroke="#000000" points="305.4988,-315.5 305.4988,-345.5 482.4988,-345.5 482.4988,-315.5 305.4988,-315.5"/>
<text text-anchor="start" x="312.4988" y="-326.9" font-family="Arial" font-size="14.00" fill="#000000">segmentation </text>
<text text-anchor="start" x="400.416" y="-326.9" font-family="Arial" font-size="14.00" fill="#666666">[TEXT]</text>
<polygon fill="none" stroke="#000000" points="305.4988,-285.5 305.4988,-315.5 482.4988,-315.5 482.4988,-285.5 305.4988,-285.5"/>
<text text-anchor="start" x="312.4988" y="-296.9" font-family="Arial" font-size="14.00" fill="#000000">state_sysinfo </text>
<text text-anchor="start" x="398.0808" y="-296.9" font-family="Arial" font-size="14.00" fill="#666666">[TEXT]</text>
<polygon fill="none" stroke="#000000" points="305.4988,-255.5 305.4988,-285.5 482.4988,-285.5 482.4988,-255.5 305.4988,-255.5"/>
<text text-anchor="start" x="312.4988" y="-266.9" font-family="Arial" font-size="14.00" fill="#000000">elaboration </text>
<text text-anchor="start" x="385.632" y="-266.9" font-family="Arial" font-size="14.00" fill="#666666">[TEXT]</text>
<polygon fill="none" stroke="#000000" points="305.4988,-225.5 305.4988,-255.5 482.4988,-255.5 482.4988,-225.5 305.4988,-225.5"/>
<text text-anchor="start" x="312.4988" y="-236.9" font-family="Arial" font-size="14.00" fill="#000000">created_at </text>
<text text-anchor="start" x="382.5268" y="-236.9" font-family="Arial" font-size="14.00" fill="#666666">[TIMESTAMP]</text>
<polygon fill="none" stroke="#000000" points="305.4988,-195.5 305.4988,-225.5 482.4988,-225.5 482.4988,-195.5 305.4988,-195.5"/>
<text text-anchor="start" x="312.4988" y="-206.9" font-family="Arial" font-size="14.00" fill="#000000">created_by </text>
<text text-anchor="start" x="385.6362" y="-206.9" font-family="Arial" font-size="14.00" fill="#666666">[TEXT]</text>
<polygon fill="none" stroke="#000000" points="305.4988,-165.5 305.4988,-195.5 482.4988,-195.5 482.4988,-165.5 305.4988,-165.5"/>
<text text-anchor="start" x="312.3102" y="-176.9" font-family="Arial" font-size="14.00" fill="#000000">updated_at </text>
<text text-anchor="start" x="386.2428" y="-176.9" font-family="Arial" font-size="14.00" fill="#666666">[TIMESTAMP]</text>
<polygon fill="none" stroke="#000000" points="305.4988,-135.5 305.4988,-165.5 482.4988,-165.5 482.4988,-135.5 305.4988,-135.5"/>
<text text-anchor="start" x="312.4988" y="-146.9" font-family="Arial" font-size="14.00" fill="#000000">updated_by </text>
<text text-anchor="start" x="389.5408" y="-146.9" font-family="Arial" font-size="14.00" fill="#666666">[TEXT]</text>
<polygon fill="none" stroke="#000000" points="305.4988,-105.5 305.4988,-135.5 482.4988,-135.5 482.4988,-105.5 305.4988,-105.5"/>
<text text-anchor="start" x="312.4988" y="-116.9" font-family="Arial" font-size="14.00" fill="#000000">deleted_at </text>
<text text-anchor="start" x="381.7554" y="-116.9" font-family="Arial" font-size="14.00" fill="#666666">[TIMESTAMP]</text>
<polygon fill="none" stroke="#000000" points="305.4988,-75.5 305.4988,-105.5 482.4988,-105.5 482.4988,-75.5 305.4988,-75.5"/>
<text text-anchor="start" x="312.4988" y="-86.9" font-family="Arial" font-size="14.00" fill="#000000">deleted_by </text>
<text text-anchor="start" x="384.8648" y="-86.9" font-family="Arial" font-size="14.00" fill="#666666">[TEXT]</text>
<polygon fill="none" stroke="#000000" points="305.4988,-45.5 305.4988,-75.5 482.4988,-75.5 482.4988,-45.5 305.4988,-45.5"/>
<text text-anchor="start" x="312.4988" y="-56.9" font-family="Arial" font-size="14.00" fill="#000000">activity_log </text>
<text text-anchor="start" x="385.6208" y="-56.9" font-family="Arial" font-size="14.00" fill="#666666">[TEXT]</text>
<polygon fill="none" stroke="#000000" stroke-width="3" points="303.4988,-44.5 303.4988,-502.5 483.4988,-502.5 483.4988,-44.5 303.4988,-44.5"/>
</g>
<!-- behavior -->
<g id="node2" class="node">
<title>behavior</title>
<polygon fill="#efefef" stroke="transparent" points="278.4988,-1015.5 278.4988,-1050.5 509.4988,-1050.5 509.4988,-1015.5 278.4988,-1015.5"/>
<polygon fill="none" stroke="#000000" points="278.4988,-1015.5 278.4988,-1050.5 509.4988,-1050.5 509.4988,-1015.5 278.4988,-1015.5"/>
<text text-anchor="start" x="323.3246" y="-1028.3" font-family="Arial Bold" font-size="18.00" fill="#000000">behavior</text>
<text text-anchor="start" x="392.342" y="-1028.3" font-family="Arial" font-size="14.00" fill="#000000">    </text>
<text text-anchor="start" x="426.5468" y="-1028.3" font-family="Arial" font-size="14.00" fill="#666666">[table]</text>
<polygon fill="none" stroke="#000000" points="278.4988,-985.5 278.4988,-1015.5 509.4988,-1015.5 509.4988,-985.5 278.4988,-985.5"/>
<text text-anchor="start" x="285.4988" y="-996.9" font-family="Arial" font-size="14.00" fill="#000000">behavior_id    </text>
<text text-anchor="start" x="392.0556" y="-996.9" font-family="Arial" font-size="14.00" fill="#666666">[ULID]</text>
<polygon fill="none" stroke="#000000" points="278.4988,-955.5 278.4988,-985.5 509.4988,-985.5 509.4988,-955.5 278.4988,-955.5"/>
<text text-anchor="start" x="285.4988" y="-966.9" font-family="Arial" font-size="14.00" fill="#000000">device_id    </text>
<text text-anchor="start" x="378.8298" y="-966.9" font-family="Arial" font-size="14.00" fill="#666666">[ULID]</text>
<polygon fill="none" stroke="#000000" points="278.4988,-925.5 278.4988,-955.5 509.4988,-955.5 509.4988,-925.5 278.4988,-925.5"/>
<text text-anchor="start" x="285.4988" y="-936.9" font-family="Arial" font-size="14.00" fill="#000000">behavior_name    </text>
<text text-anchor="start" x="416.1748" y="-936.9" font-family="Arial" font-size="14.00" fill="#666666">[TEXT]</text>
<polygon fill="none" stroke="#000000" points="278.4988,-895.5 278.4988,-925.5 509.4988,-925.5 509.4988,-895.5 278.4988,-895.5"/>
<text text-anchor="start" x="285.4988" y="-906.9" font-family="Arial" font-size="14.00" fill="#000000">behavior_conf_json    </text>
<text text-anchor="start" x="441.0766" y="-906.9" font-family="Arial" font-size="14.00" fill="#666666">[TEXT]</text>
<polygon fill="none" stroke="#000000" points="278.4988,-865.5 278.4988,-895.5 509.4988,-895.5 509.4988,-865.5 278.4988,-865.5"/>
<text text-anchor="start" x="285.0984" y="-876.9" font-family="Arial" font-size="14.00" fill="#000000">assurance_schema_id    </text>
<text text-anchor="start" x="459.3396" y="-876.9" font-family="Arial" font-size="14.00" fill="#666666">[TEXT]</text>
<polygon fill="none" stroke="#000000" points="278.4988,-835.5 278.4988,-865.5 509.4988,-865.5 509.4988,-835.5 278.4988,-835.5"/>
<text text-anchor="start" x="285.4988" y="-846.9" font-family="Arial" font-size="14.00" fill="#000000">governance    </text>
<text text-anchor="start" x="392.8424" y="-846.9" font-family="Arial" font-size="14.00" fill="#666666">[TEXT]</text>
<polygon fill="none" stroke="#000000" points="278.4988,-805.5 278.4988,-835.5 509.4988,-835.5 509.4988,-805.5 278.4988,-805.5"/>
<text text-anchor="start" x="285.4988" y="-816.9" font-family="Arial" font-size="14.00" fill="#000000">created_at    </text>
<text text-anchor="start" x="385.841" y="-816.9" font-family="Arial" font-size="14.00" fill="#666666">[TIMESTAMP]</text>
<polygon fill="none" stroke="#000000" points="278.4988,-775.5 278.4988,-805.5 509.4988,-805.5 509.4988,-775.5 278.4988,-775.5"/>
<text text-anchor="start" x="285.4988" y="-786.9" font-family="Arial" font-size="14.00" fill="#000000">created_by    </text>
<text text-anchor="start" x="388.9504" y="-786.9" font-family="Arial" font-size="14.00" fill="#666666">[TEXT]</text>
<polygon fill="none" stroke="#000000" points="278.4988,-745.5 278.4988,-775.5 509.4988,-775.5 509.4988,-745.5 278.4988,-745.5"/>
<text text-anchor="start" x="285.4988" y="-756.9" font-family="Arial" font-size="14.00" fill="#000000">updated_at    </text>
<text text-anchor="start" x="389.7456" y="-756.9" font-family="Arial" font-size="14.00" fill="#666666">[TIMESTAMP]</text>
<polygon fill="none" stroke="#000000" points="278.4988,-715.5 278.4988,-745.5 509.4988,-745.5 509.4988,-715.5 278.4988,-715.5"/>
<text text-anchor="start" x="285.4988" y="-726.9" font-family="Arial" font-size="14.00" fill="#000000">updated_by    </text>
<text text-anchor="start" x="392.855" y="-726.9" font-family="Arial" font-size="14.00" fill="#666666">[TEXT]</text>
<polygon fill="none" stroke="#000000" points="278.4988,-685.5 278.4988,-715.5 509.4988,-715.5 509.4988,-685.5 278.4988,-685.5"/>
<text text-anchor="start" x="285.4988" y="-696.9" font-family="Arial" font-size="14.00" fill="#000000">deleted_at    </text>
<text text-anchor="start" x="385.0696" y="-696.9" font-family="Arial" font-size="14.00" fill="#666666">[TIMESTAMP]</text>
<polygon fill="none" stroke="#000000" points="278.4988,-655.5 278.4988,-685.5 509.4988,-685.5 509.4988,-655.5 278.4988,-655.5"/>
<text text-anchor="start" x="285.4988" y="-666.9" font-family="Arial" font-size="14.00" fill="#000000">deleted_by    </text>
<text text-anchor="start" x="388.179" y="-666.9" font-family="Arial" font-size="14.00" fill="#666666">[TEXT]</text>
<polygon fill="none" stroke="#000000" points="278.4988,-625.5 278.4988,-655.5 509.4988,-655.5 509.4988,-625.5 278.4988,-625.5"/>
<text text-anchor="start" x="285.4988" y="-636.9" font-family="Arial" font-size="14.00" fill="#000000">activity_log    </text>
<text text-anchor="start" x="388.935" y="-636.9" font-family="Arial" font-size="14.00" fill="#666666">[TEXT]</text>
</g>
<!-- behavior&#45;&gt;device -->
<g id="edge1" class="edge">
<title>behavior:device_id&#45;&gt;device:device_id</title>
<path fill="none" stroke="#000000" d="M269.4748,-965.6843C223.8008,-913.262 250.9202,-450.5 305.4988,-450.5"/>
<polygon fill="#000000" stroke="#000000" points="269.6765,-965.7918 276.3801,-974.4701 274.0876,-968.1459 278.4988,-970.5 278.4988,-970.5 278.4988,-970.5 274.0876,-968.1459 280.6175,-966.5299 269.6765,-965.7918 269.6765,-965.7918"/>
</g>
<!-- ur_walk_session -->
<g id="node3" class="node">
<title>ur_walk_session</title>
<polygon fill="#efefef" stroke="transparent" points="85.4988,-1592.5 85.4988,-1627.5 326.4988,-1627.5 326.4988,-1592.5 85.4988,-1592.5"/>
<polygon fill="none" stroke="#000000" points="85.4988,-1592.5 85.4988,-1627.5 326.4988,-1627.5 326.4988,-1592.5 85.4988,-1592.5"/>
<text text-anchor="start" x="103.3242" y="-1605.3" font-family="Arial Bold" font-size="18.00" fill="#000000">ur_walk_session</text>
<text text-anchor="start" x="236.3424" y="-1605.3" font-family="Arial" font-size="14.00" fill="#000000">    </text>
<text text-anchor="start" x="270.5472" y="-1605.3" font-family="Arial" font-size="14.00" fill="#666666">[table]</text>
<polygon fill="none" stroke="#000000" points="85.4988,-1562.5 85.4988,-1592.5 326.4988,-1592.5 326.4988,-1562.5 85.4988,-1562.5"/>
<text text-anchor="start" x="92.4988" y="-1573.9" font-family="Arial" font-size="14.00" fill="#000000">ur_walk_session_id    </text>
<text text-anchor="start" x="248.834" y="-1573.9" font-family="Arial" font-size="14.00" fill="#666666">[ULID]</text>
<polygon fill="none" stroke="#000000" points="85.4988,-1532.5 85.4988,-1562.5 326.4988,-1562.5 326.4988,-1532.5 85.4988,-1532.5"/>
<text text-anchor="start" x="92.4988" y="-1543.9" font-family="Arial" font-size="14.00" fill="#000000">device_id    </text>
<text text-anchor="start" x="185.8298" y="-1543.9" font-family="Arial" font-size="14.00" fill="#666666">[ULID]</text>
<polygon fill="none" stroke="#000000" points="85.4988,-1502.5 85.4988,-1532.5 326.4988,-1532.5 326.4988,-1502.5 85.4988,-1502.5"/>
<text text-anchor="start" x="92.4988" y="-1513.9" font-family="Arial" font-size="14.00" fill="#000000">behavior_id    </text>
<text text-anchor="start" x="199.0556" y="-1513.9" font-family="Arial" font-size="14.00" fill="#666666">[ULID]</text>
<polygon fill="none" stroke="#000000" points="85.4988,-1472.5 85.4988,-1502.5 326.4988,-1502.5 326.4988,-1472.5 85.4988,-1472.5"/>
<text text-anchor="start" x="92.4988" y="-1483.9" font-family="Arial" font-size="14.00" fill="#000000">behavior_json    </text>
<text text-anchor="start" x="213.8382" y="-1483.9" font-family="Arial" font-size="14.00" fill="#666666">[TEXT]</text>
<polygon fill="none" stroke="#000000" points="85.4988,-1442.5 85.4988,-1472.5 326.4988,-1472.5 326.4988,-1442.5 85.4988,-1442.5"/>
<text text-anchor="start" x="92.4988" y="-1453.9" font-family="Arial" font-size="14.00" fill="#000000">walk_started_at    </text>
<text text-anchor="start" x="224.7274" y="-1453.9" font-family="Arial" font-size="14.00" fill="#666666">[TIMESTAMP]</text>
<polygon fill="none" stroke="#000000" points="85.4988,-1412.5 85.4988,-1442.5 326.4988,-1442.5 326.4988,-1412.5 85.4988,-1412.5"/>
<text text-anchor="start" x="92.4399" y="-1423.9" font-family="Arial" font-size="14.00" fill="#000000">walk_finished_at    </text>
<text text-anchor="start" x="230.1131" y="-1423.9" font-family="Arial" font-size="14.00" fill="#666666">[TIMESTAMP]</text>
<polygon fill="none" stroke="#000000" points="85.4988,-1382.5 85.4988,-1412.5 326.4988,-1412.5 326.4988,-1382.5 85.4988,-1382.5"/>
<text text-anchor="start" x="92.4988" y="-1393.9" font-family="Arial" font-size="14.00" fill="#000000">elaboration    </text>
<text text-anchor="start" x="195.9462" y="-1393.9" font-family="Arial" font-size="14.00" fill="#666666">[TEXT]</text>
<polygon fill="none" stroke="#000000" points="85.4988,-1352.5 85.4988,-1382.5 326.4988,-1382.5 326.4988,-1352.5 85.4988,-1352.5"/>
<text text-anchor="start" x="92.4988" y="-1363.9" font-family="Arial" font-size="14.00" fill="#000000">created_at    </text>
<text text-anchor="start" x="192.841" y="-1363.9" font-family="Arial" font-size="14.00" fill="#666666">[TIMESTAMP]</text>
<polygon fill="none" stroke="#000000" points="85.4988,-1322.5 85.4988,-1352.5 326.4988,-1352.5 326.4988,-1322.5 85.4988,-1322.5"/>
<text text-anchor="start" x="92.4988" y="-1333.9" font-family="Arial" font-size="14.00" fill="#000000">created_by    </text>
<text text-anchor="start" x="195.9504" y="-1333.9" font-family="Arial" font-size="14.00" fill="#666666">[TEXT]</text>
<polygon fill="none" stroke="#000000" points="85.4988,-1292.5 85.4988,-1322.5 326.4988,-1322.5 326.4988,-1292.5 85.4988,-1292.5"/>
<text text-anchor="start" x="92.4988" y="-1303.9" font-family="Arial" font-size="14.00" fill="#000000">updated_at    </text>
<text text-anchor="start" x="196.7456" y="-1303.9" font-family="Arial" font-size="14.00" fill="#666666">[TIMESTAMP]</text>
<polygon fill="none" stroke="#000000" points="85.4988,-1262.5 85.4988,-1292.5 326.4988,-1292.5 326.4988,-1262.5 85.4988,-1262.5"/>
<text text-anchor="start" x="92.4988" y="-1273.9" font-family="Arial" font-size="14.00" fill="#000000">updated_by    </text>
<text text-anchor="start" x="199.855" y="-1273.9" font-family="Arial" font-size="14.00" fill="#666666">[TEXT]</text>
<polygon fill="none" stroke="#000000" points="85.4988,-1232.5 85.4988,-1262.5 326.4988,-1262.5 326.4988,-1232.5 85.4988,-1232.5"/>
<text text-anchor="start" x="92.4988" y="-1243.9" font-family="Arial" font-size="14.00" fill="#000000">deleted_at    </text>
<text text-anchor="start" x="192.0696" y="-1243.9" font-family="Arial" font-size="14.00" fill="#666666">[TIMESTAMP]</text>
<polygon fill="none" stroke="#000000" points="85.4988,-1202.5 85.4988,-1232.5 326.4988,-1232.5 326.4988,-1202.5 85.4988,-1202.5"/>
<text text-anchor="start" x="92.4988" y="-1213.9" font-family="Arial" font-size="14.00" fill="#000000">deleted_by    </text>
<text text-anchor="start" x="195.179" y="-1213.9" font-family="Arial" font-size="14.00" fill="#666666">[TEXT]</text>
<polygon fill="none" stroke="#000000" points="85.4988,-1172.5 85.4988,-1202.5 326.4988,-1202.5 326.4988,-1172.5 85.4988,-1172.5"/>
<text text-anchor="start" x="92.4988" y="-1183.9" font-family="Arial" font-size="14.00" fill="#000000">activity_log    </text>
<text text-anchor="start" x="195.935" y="-1183.9" font-family="Arial" font-size="14.00" fill="#666666">[TEXT]</text>
</g>
<!-- ur_walk_session&#45;&gt;device -->
<g id="edge3" class="edge">
<title>ur_walk_session:device_id&#45;&gt;device:device_id</title>
<path fill="none" stroke="#000000" d="M336.556,-1547.228C509.1184,-1537.6797 431.216,-1278.9944 326.4988,-1130 299.3371,-1091.3535 253.6606,-1132.6465 226.4988,-1094 60.8104,-858.2541 17.3516,-450.5 305.4988,-450.5"/>
<polygon fill="#000000" stroke="#000000" points="336.4952,-1547.2296 326.3771,-1543.0016 331.497,-1547.3648 326.4988,-1547.5 326.4988,-1547.5 326.4988,-1547.5 331.497,-1547.3648 326.6205,-1551.9984 336.4952,-1547.2296 336.4952,-1547.2296"/>
</g>
<!-- ur_walk_session&#45;&gt;behavior -->
<g id="edge2" class="edge">
<title>ur_walk_session:behavior_id&#45;&gt;behavior:behavior_id</title>
<path fill="none" stroke="#000000" d="M336.7596,-1517.2081C494.8239,-1507.9579 401.9394,-1280.8812 326.4988,-1130 314.5731,-1106.1486 290.4245,-1117.8514 278.4988,-1094 259.9146,-1056.8316 236.9433,-1000.5 278.4988,-1000.5"/>
<polygon fill="#000000" stroke="#000000" points="336.4948,-1517.2156 326.3708,-1513.0018 331.4968,-1517.3578 326.4988,-1517.5 326.4988,-1517.5 326.4988,-1517.5 331.4968,-1517.3578 326.6268,-1521.9982 336.4948,-1517.2156 336.4948,-1517.2156"/>
</g>
<!-- ur_walk_session_path -->
<g id="node4" class="node">
<title>ur_walk_session_path</title>
<polygon fill="#efefef" stroke="transparent" points="261.4988,-2079.5 261.4988,-2114.5 525.4988,-2114.5 525.4988,-2079.5 261.4988,-2079.5"/>
<polygon fill="none" stroke="#000000" points="261.4988,-2079.5 261.4988,-2114.5 525.4988,-2114.5 525.4988,-2079.5 261.4988,-2079.5"/>
<text text-anchor="start" x="268.3107" y="-2092.3" font-family="Arial Bold" font-size="18.00" fill="#000000">ur_walk_session_path</text>
<text text-anchor="start" x="446.3559" y="-2092.3" font-family="Arial" font-size="14.00" fill="#000000">    </text>
<text text-anchor="start" x="480.5607" y="-2092.3" font-family="Arial" font-size="14.00" fill="#666666">[table]</text>
<polygon fill="none" stroke="#000000" points="261.4988,-2049.5 261.4988,-2079.5 525.4988,-2079.5 525.4988,-2049.5 261.4988,-2049.5"/>
<text text-anchor="start" x="268.4988" y="-2060.9" font-family="Arial" font-size="14.00" fill="#000000">ur_walk_session_path_id    </text>
<text text-anchor="start" x="459.855" y="-2060.9" font-family="Arial" font-size="14.00" fill="#666666">[ULID]</text>
<polygon fill="none" stroke="#000000" points="261.4988,-2019.5 261.4988,-2049.5 525.4988,-2049.5 525.4988,-2019.5 261.4988,-2019.5"/>
<text text-anchor="start" x="268.4988" y="-2030.9" font-family="Arial" font-size="14.00" fill="#000000">walk_session_id    </text>
<text text-anchor="start" x="404.6082" y="-2030.9" font-family="Arial" font-size="14.00" fill="#666666">[ULID]</text>
<polygon fill="none" stroke="#000000" points="261.4988,-1989.5 261.4988,-2019.5 525.4988,-2019.5 525.4988,-1989.5 261.4988,-1989.5"/>
<text text-anchor="start" x="268.4988" y="-2000.9" font-family="Arial" font-size="14.00" fill="#000000">root_path    </text>
<text text-anchor="start" x="361.841" y="-2000.9" font-family="Arial" font-size="14.00" fill="#666666">[TEXT]</text>
<polygon fill="none" stroke="#000000" points="261.4988,-1959.5 261.4988,-1989.5 525.4988,-1989.5 525.4988,-1959.5 261.4988,-1959.5"/>
<text text-anchor="start" x="268.4988" y="-1970.9" font-family="Arial" font-size="14.00" fill="#000000">elaboration    </text>
<text text-anchor="start" x="371.9462" y="-1970.9" font-family="Arial" font-size="14.00" fill="#666666">[TEXT]</text>
<polygon fill="none" stroke="#000000" points="261.4988,-1929.5 261.4988,-1959.5 525.4988,-1959.5 525.4988,-1929.5 261.4988,-1929.5"/>
<text text-anchor="start" x="268.4988" y="-1940.9" font-family="Arial" font-size="14.00" fill="#000000">created_at    </text>
<text text-anchor="start" x="368.841" y="-1940.9" font-family="Arial" font-size="14.00" fill="#666666">[TIMESTAMP]</text>
<polygon fill="none" stroke="#000000" points="261.4988,-1899.5 261.4988,-1929.5 525.4988,-1929.5 525.4988,-1899.5 261.4988,-1899.5"/>
<text text-anchor="start" x="268.4988" y="-1910.9" font-family="Arial" font-size="14.00" fill="#000000">created_by    </text>
<text text-anchor="start" x="371.9504" y="-1910.9" font-family="Arial" font-size="14.00" fill="#666666">[TEXT]</text>
<polygon fill="none" stroke="#000000" points="261.4988,-1869.5 261.4988,-1899.5 525.4988,-1899.5 525.4988,-1869.5 261.4988,-1869.5"/>
<text text-anchor="start" x="268.4988" y="-1880.9" font-family="Arial" font-size="14.00" fill="#000000">updated_at    </text>
<text text-anchor="start" x="372.7456" y="-1880.9" font-family="Arial" font-size="14.00" fill="#666666">[TIMESTAMP]</text>
<polygon fill="none" stroke="#000000" points="261.4988,-1839.5 261.4988,-1869.5 525.4988,-1869.5 525.4988,-1839.5 261.4988,-1839.5"/>
<text text-anchor="start" x="268.4988" y="-1850.9" font-family="Arial" font-size="14.00" fill="#000000">updated_by    </text>
<text text-anchor="start" x="375.855" y="-1850.9" font-family="Arial" font-size="14.00" fill="#666666">[TEXT]</text>
<polygon fill="none" stroke="#000000" points="261.4988,-1809.5 261.4988,-1839.5 525.4988,-1839.5 525.4988,-1809.5 261.4988,-1809.5"/>
<text text-anchor="start" x="268.4988" y="-1820.9" font-family="Arial" font-size="14.00" fill="#000000">deleted_at    </text>
<text text-anchor="start" x="368.0696" y="-1820.9" font-family="Arial" font-size="14.00" fill="#666666">[TIMESTAMP]</text>
<polygon fill="none" stroke="#000000" points="261.4988,-1779.5 261.4988,-1809.5 525.4988,-1809.5 525.4988,-1779.5 261.4988,-1779.5"/>
<text text-anchor="start" x="268.4988" y="-1790.9" font-family="Arial" font-size="14.00" fill="#000000">deleted_by    </text>
<text text-anchor="start" x="371.179" y="-1790.9" font-family="Arial" font-size="14.00" fill="#666666">[TEXT]</text>
<polygon fill="none" stroke="#000000" points="261.4988,-1749.5 261.4988,-1779.5 525.4988,-1779.5 525.4988,-1749.5 261.4988,-1749.5"/>
<text text-anchor="start" x="268.4988" y="-1760.9" font-family="Arial" font-size="14.00" fill="#000000">activity_log    </text>
<text text-anchor="start" x="371.935" y="-1760.9" font-family="Arial" font-size="14.00" fill="#666666">[TEXT]</text>
</g>
<!-- ur_walk_session_path&#45;&gt;ur_walk_session -->
<g id="edge4" class="edge">
<title>ur_walk_session_path:walk_session_id&#45;&gt;ur_walk_session:ur_walk_session_id</title>
<path fill="none" stroke="#000000" d="M251.6023,-2032.6604C192.2226,-2009.1226 226.3543,-1766.6393 261.4988,-1707 278.2647,-1678.5487 309.7329,-1699.4513 326.4988,-1671 347.5962,-1635.1983 368.0544,-1577.5 326.4988,-1577.5"/>
<polygon fill="#000000" stroke="#000000" points="251.6672,-2032.6724 260.6764,-2038.9242 256.583,-2033.5862 261.4988,-2034.5 261.4988,-2034.5 261.4988,-2034.5 256.583,-2033.5862 262.3212,-2030.0758 251.6672,-2032.6724 251.6672,-2032.6724"/>
</g>
<!-- uniform_resource -->
<g id="node5" class="node">
<title>uniform_resource</title>
<polygon fill="#efefef" stroke="transparent" points="249.4988,-2836.5 249.4988,-2871.5 483.4988,-2871.5 483.4988,-2836.5 249.4988,-2836.5"/>
<polygon fill="none" stroke="#000000" points="249.4988,-2836.5 249.4988,-2871.5 483.4988,-2871.5 483.4988,-2836.5 249.4988,-2836.5"/>
<text text-anchor="start" x="260.3259" y="-2849.3" font-family="Arial Bold" font-size="18.00" fill="#000000">uniform_resource</text>
<text text-anchor="start" x="400.3407" y="-2849.3" font-family="Arial" font-size="14.00" fill="#000000">    </text>
<text text-anchor="start" x="434.5455" y="-2849.3" font-family="Arial" font-size="14.00" fill="#666666">[table]</text>
<polygon fill="none" stroke="#000000" points="249.4988,-2806.5 249.4988,-2836.5 483.4988,-2836.5 483.4988,-2806.5 249.4988,-2806.5"/>
<text text-anchor="start" x="256.4988" y="-2817.9" font-family="Arial" font-size="14.00" fill="#000000">uniform_resource_id    </text>
<text text-anchor="start" x="418.2758" y="-2817.9" font-family="Arial" font-size="14.00" fill="#666666">[ULID]</text>
<polygon fill="none" stroke="#000000" points="249.4988,-2776.5 249.4988,-2806.5 483.4988,-2806.5 483.4988,-2776.5 249.4988,-2776.5"/>
<text text-anchor="start" x="256.4988" y="-2787.9" font-family="Arial" font-size="14.00" fill="#000000">device_id    </text>
<text text-anchor="start" x="349.8298" y="-2787.9" font-family="Arial" font-size="14.00" fill="#666666">[ULID]</text>
<polygon fill="none" stroke="#000000" points="249.4988,-2746.5 249.4988,-2776.5 483.4988,-2776.5 483.4988,-2746.5 249.4988,-2746.5"/>
<text text-anchor="start" x="256.4988" y="-2757.9" font-family="Arial" font-size="14.00" fill="#000000">walk_session_id    </text>
<text text-anchor="start" x="392.6082" y="-2757.9" font-family="Arial" font-size="14.00" fill="#666666">[ULID]</text>
<polygon fill="none" stroke="#000000" points="249.4988,-2716.5 249.4988,-2746.5 483.4988,-2746.5 483.4988,-2716.5 249.4988,-2716.5"/>
<text text-anchor="start" x="256.4988" y="-2727.9" font-family="Arial" font-size="14.00" fill="#000000">walk_path_id    </text>
<text text-anchor="start" x="372.3922" y="-2727.9" font-family="Arial" font-size="14.00" fill="#666666">[ULID]</text>
<polygon fill="none" stroke="#000000" points="249.4988,-2686.5 249.4988,-2716.5 483.4988,-2716.5 483.4988,-2686.5 249.4988,-2686.5"/>
<text text-anchor="start" x="256.4988" y="-2697.9" font-family="Arial" font-size="14.00" fill="#000000">uri    </text>
<text text-anchor="start" x="306.2534" y="-2697.9" font-family="Arial" font-size="14.00" fill="#666666">[TEXT]</text>
<polygon fill="none" stroke="#000000" points="249.4988,-2656.5 249.4988,-2686.5 483.4988,-2686.5 483.4988,-2656.5 249.4988,-2656.5"/>
<text text-anchor="start" x="256.4988" y="-2667.9" font-family="Arial" font-size="14.00" fill="#000000">content_digest    </text>
<text text-anchor="start" x="381.7428" y="-2667.9" font-family="Arial" font-size="14.00" fill="#666666">[TEXT]</text>
<polygon fill="none" stroke="#000000" points="249.4988,-2626.5 249.4988,-2656.5 483.4988,-2656.5 483.4988,-2626.5 249.4988,-2626.5"/>
<text text-anchor="start" x="256.4988" y="-2637.9" font-family="Arial" font-size="14.00" fill="#000000">content    </text>
<text text-anchor="start" x="336.6152" y="-2637.9" font-family="Arial" font-size="14.00" fill="#666666">[BLOB]</text>
<polygon fill="none" stroke="#000000" points="249.4988,-2596.5 249.4988,-2626.5 483.4988,-2626.5 483.4988,-2596.5 249.4988,-2596.5"/>
<text text-anchor="start" x="256.4988" y="-2607.9" font-family="Arial" font-size="14.00" fill="#000000">nature    </text>
<text text-anchor="start" x="330.3852" y="-2607.9" font-family="Arial" font-size="14.00" fill="#666666">[TEXT]</text>
<polygon fill="none" stroke="#000000" points="249.4988,-2566.5 249.4988,-2596.5 483.4988,-2596.5 483.4988,-2566.5 249.4988,-2566.5"/>
<text text-anchor="start" x="256.4988" y="-2577.9" font-family="Arial" font-size="14.00" fill="#000000">size_bytes    </text>
<text text-anchor="start" x="356.8312" y="-2577.9" font-family="Arial" font-size="14.00" fill="#666666">[INTEGER]</text>
<polygon fill="none" stroke="#000000" points="249.4988,-2536.5 249.4988,-2566.5 483.4988,-2566.5 483.4988,-2536.5 249.4988,-2536.5"/>
<text text-anchor="start" x="256.4988" y="-2547.9" font-family="Arial" font-size="14.00" fill="#000000">last_modified_at    </text>
<text text-anchor="start" x="392.6166" y="-2547.9" font-family="Arial" font-size="14.00" fill="#666666">[INTEGER]</text>
<polygon fill="none" stroke="#000000" points="249.4988,-2506.5 249.4988,-2536.5 483.4988,-2536.5 483.4988,-2506.5 249.4988,-2506.5"/>
<text text-anchor="start" x="256.4252" y="-2517.9" font-family="Arial" font-size="14.00" fill="#000000">content_fm_body_attrs    </text>
<text text-anchor="start" x="433.0128" y="-2517.9" font-family="Arial" font-size="14.00" fill="#666666">[TEXT]</text>
<polygon fill="none" stroke="#000000" points="249.4988,-2476.5 249.4988,-2506.5 483.4988,-2506.5 483.4988,-2476.5 249.4988,-2476.5"/>
<text text-anchor="start" x="256.4988" y="-2487.9" font-family="Arial" font-size="14.00" fill="#000000">frontmatter    </text>
<text text-anchor="start" x="358.3782" y="-2487.9" font-family="Arial" font-size="14.00" fill="#666666">[TEXT]</text>
<polygon fill="none" stroke="#000000" points="249.4988,-2446.5 249.4988,-2476.5 483.4988,-2476.5 483.4988,-2446.5 249.4988,-2446.5"/>
<text text-anchor="start" x="256.4988" y="-2457.9" font-family="Arial" font-size="14.00" fill="#000000">elaboration    </text>
<text text-anchor="start" x="359.9462" y="-2457.9" font-family="Arial" font-size="14.00" fill="#666666">[TEXT]</text>
<polygon fill="none" stroke="#000000" points="249.4988,-2416.5 249.4988,-2446.5 483.4988,-2446.5 483.4988,-2416.5 249.4988,-2416.5"/>
<text text-anchor="start" x="256.4988" y="-2427.9" font-family="Arial" font-size="14.00" fill="#000000">created_at    </text>
<text text-anchor="start" x="356.841" y="-2427.9" font-family="Arial" font-size="14.00" fill="#666666">[TIMESTAMP]</text>
<polygon fill="none" stroke="#000000" points="249.4988,-2386.5 249.4988,-2416.5 483.4988,-2416.5 483.4988,-2386.5 249.4988,-2386.5"/>
<text text-anchor="start" x="256.4988" y="-2397.9" font-family="Arial" font-size="14.00" fill="#000000">created_by    </text>
<text text-anchor="start" x="359.9504" y="-2397.9" font-family="Arial" font-size="14.00" fill="#666666">[TEXT]</text>
<polygon fill="none" stroke="#000000" points="249.4988,-2356.5 249.4988,-2386.5 483.4988,-2386.5 483.4988,-2356.5 249.4988,-2356.5"/>
<text text-anchor="start" x="256.4988" y="-2367.9" font-family="Arial" font-size="14.00" fill="#000000">updated_at    </text>
<text text-anchor="start" x="360.7456" y="-2367.9" font-family="Arial" font-size="14.00" fill="#666666">[TIMESTAMP]</text>
<polygon fill="none" stroke="#000000" points="249.4988,-2326.5 249.4988,-2356.5 483.4988,-2356.5 483.4988,-2326.5 249.4988,-2326.5"/>
<text text-anchor="start" x="256.4988" y="-2337.9" font-family="Arial" font-size="14.00" fill="#000000">updated_by    </text>
<text text-anchor="start" x="363.855" y="-2337.9" font-family="Arial" font-size="14.00" fill="#666666">[TEXT]</text>
<polygon fill="none" stroke="#000000" points="249.4988,-2296.5 249.4988,-2326.5 483.4988,-2326.5 483.4988,-2296.5 249.4988,-2296.5"/>
<text text-anchor="start" x="256.4988" y="-2307.9" font-family="Arial" font-size="14.00" fill="#000000">deleted_at    </text>
<text text-anchor="start" x="356.0696" y="-2307.9" font-family="Arial" font-size="14.00" fill="#666666">[TIMESTAMP]</text>
<polygon fill="none" stroke="#000000" points="249.4988,-2266.5 249.4988,-2296.5 483.4988,-2296.5 483.4988,-2266.5 249.4988,-2266.5"/>
<text text-anchor="start" x="256.4988" y="-2277.9" font-family="Arial" font-size="14.00" fill="#000000">deleted_by    </text>
<text text-anchor="start" x="359.179" y="-2277.9" font-family="Arial" font-size="14.00" fill="#666666">[TEXT]</text>
<polygon fill="none" stroke="#000000" points="249.4988,-2236.5 249.4988,-2266.5 483.4988,-2266.5 483.4988,-2236.5 249.4988,-2236.5"/>
<text text-anchor="start" x="256.4988" y="-2247.9" font-family="Arial" font-size="14.00" fill="#000000">activity_log    </text>
<text text-anchor="start" x="359.935" y="-2247.9" font-family="Arial" font-size="14.00" fill="#666666">[TEXT]</text>
</g>
<!-- uniform_resource&#45;&gt;device -->
<g id="edge7" class="edge">
<title>uniform_resource:device_id&#45;&gt;device:device_id</title>
<path fill="none" stroke="#000000" d="M493.7021,-2791.3445C763.006,-2782.9738 556.8088,-2438.4013 577.4988,-2158 604.0455,-1798.2261 603.4798,-731.2586 561.4988,-583 542.8193,-517.0321 551.0604,-450.5 482.4988,-450.5"/>
<polygon fill="#000000" stroke="#000000" points="493.4976,-2791.3475 483.4302,-2787.0005 488.4982,-2791.4237 483.4988,-2791.5 483.4988,-2791.5 483.4988,-2791.5 488.4982,-2791.4237 483.5674,-2795.9995 493.4976,-2791.3475 493.4976,-2791.3475"/>
</g>
<!-- uniform_resource&#45;&gt;ur_walk_session -->
<g id="edge5" class="edge">
<title>uniform_resource:walk_session_id&#45;&gt;ur_walk_session:ur_walk_session_id</title>
<path fill="none" stroke="#000000" d="M239.7256,-2759.0776C137.8232,-2706.0757 232.3738,-1800.1454 166.4988,-1707 143.7513,-1674.8356 106.9659,-1704.0328 85.4988,-1671 62.8546,-1636.156 43.9433,-1577.5 85.4988,-1577.5"/>
<polygon fill="#000000" stroke="#000000" points="239.7925,-2759.0941 248.4162,-2765.8678 244.6457,-2760.2971 249.4988,-2761.5 249.4988,-2761.5 249.4988,-2761.5 244.6457,-2760.2971 250.5814,-2757.1322 239.7925,-2759.0941 239.7925,-2759.0941"/>
</g>
<!-- uniform_resource&#45;&gt;ur_walk_session_path -->
<g id="edge9" class="edge">
<title>uniform_resource:walk_path_id&#45;&gt;ur_walk_session_path:ur_walk_session_path_id</title>
<path fill="none" stroke="#000000" d="M493.7897,-2731.2728C719.9093,-2721.1204 636.0422,-2373.2728 483.4988,-2194 418.723,-2117.8738 326.2747,-2234.1262 261.4988,-2158 234.5689,-2126.3513 219.9433,-2064.5 261.4988,-2064.5"/>
<polygon fill="#000000" stroke="#000000" points="493.4964,-2731.2792 483.3994,-2727.0011 488.4976,-2731.3896 483.4988,-2731.5 483.4988,-2731.5 483.4988,-2731.5 488.4976,-2731.3896 483.5982,-2735.9989 493.4964,-2731.2792 493.4964,-2731.2792"/>
</g>
<!-- ur_walk_session_path_fs_entry -->
<g id="node6" class="node">
<title>ur_walk_session_path_fs_entry</title>
<polygon fill="#efefef" stroke="transparent" points="77.4988,-3563.5 77.4988,-3598.5 415.4988,-3598.5 415.4988,-3563.5 77.4988,-3563.5"/>
<polygon fill="none" stroke="#000000" points="77.4988,-3563.5 77.4988,-3598.5 415.4988,-3598.5 415.4988,-3563.5 77.4988,-3563.5"/>
<text text-anchor="start" x="84.3" y="-3576.3" font-family="Arial Bold" font-size="18.00" fill="#000000">ur_walk_session_path_fs_entry</text>
<text text-anchor="start" x="336.3666" y="-3576.3" font-family="Arial" font-size="14.00" fill="#000000">    </text>
<text text-anchor="start" x="370.5714" y="-3576.3" font-family="Arial" font-size="14.00" fill="#666666">[table]</text>
<polygon fill="none" stroke="#000000" points="77.4988,-3533.5 77.4988,-3563.5 415.4988,-3563.5 415.4988,-3533.5 77.4988,-3533.5"/>
<text text-anchor="start" x="84.4988" y="-3544.9" font-family="Arial" font-size="14.00" fill="#000000">ur_walk_session_path_fs_entry_id    </text>
<text text-anchor="start" x="333.4272" y="-3544.9" font-family="Arial" font-size="14.00" fill="#666666">[ULID]</text>
<polygon fill="none" stroke="#000000" points="77.4988,-3503.5 77.4988,-3533.5 415.4988,-3533.5 415.4988,-3503.5 77.4988,-3503.5"/>
<text text-anchor="start" x="84.4988" y="-3514.9" font-family="Arial" font-size="14.00" fill="#000000">walk_session_id    </text>
<text text-anchor="start" x="220.6082" y="-3514.9" font-family="Arial" font-size="14.00" fill="#666666">[ULID]</text>
<polygon fill="none" stroke="#000000" points="77.4988,-3473.5 77.4988,-3503.5 415.4988,-3503.5 415.4988,-3473.5 77.4988,-3473.5"/>
<text text-anchor="start" x="84.4988" y="-3484.9" font-family="Arial" font-size="14.00" fill="#000000">walk_path_id    </text>
<text text-anchor="start" x="200.3922" y="-3484.9" font-family="Arial" font-size="14.00" fill="#666666">[ULID]</text>
<polygon fill="none" stroke="#000000" points="77.4988,-3443.5 77.4988,-3473.5 415.4988,-3473.5 415.4988,-3443.5 77.4988,-3443.5"/>
<text text-anchor="start" x="84.4988" y="-3454.9" font-family="Arial" font-size="14.00" fill="#000000">uniform_resource_id    </text>
<text text-anchor="start" x="246.2758" y="-3454.9" font-family="Arial" font-size="14.00" fill="#666666">[ULID]</text>
<polygon fill="none" stroke="#000000" points="77.4988,-3413.5 77.4988,-3443.5 415.4988,-3443.5 415.4988,-3413.5 77.4988,-3413.5"/>
<text text-anchor="start" x="84.4988" y="-3424.9" font-family="Arial" font-size="14.00" fill="#000000">file_path_abs    </text>
<text text-anchor="start" x="201.9588" y="-3424.9" font-family="Arial" font-size="14.00" fill="#666666">[TEXT]</text>
<polygon fill="none" stroke="#000000" points="77.4988,-3383.5 77.4988,-3413.5 415.4988,-3413.5 415.4988,-3383.5 77.4988,-3383.5"/>
<text text-anchor="start" x="84.4988" y="-3394.9" font-family="Arial" font-size="14.00" fill="#000000">file_path_rel_parent    </text>
<text text-anchor="start" x="242.4076" y="-3394.9" font-family="Arial" font-size="14.00" fill="#666666">[TEXT]</text>
<polygon fill="none" stroke="#000000" points="77.4988,-3353.5 77.4988,-3383.5 415.4988,-3383.5 415.4988,-3353.5 77.4988,-3353.5"/>
<text text-anchor="start" x="84.4988" y="-3364.9" font-family="Arial" font-size="14.00" fill="#000000">file_path_rel    </text>
<text text-anchor="start" x="194.9434" y="-3364.9" font-family="Arial" font-size="14.00" fill="#666666">[TEXT]</text>
<polygon fill="none" stroke="#000000" points="77.4988,-3323.5 77.4988,-3353.5 415.4988,-3353.5 415.4988,-3323.5 77.4988,-3323.5"/>
<text text-anchor="start" x="84.4988" y="-3334.9" font-family="Arial" font-size="14.00" fill="#000000">file_basename    </text>
<text text-anchor="start" x="209.7288" y="-3334.9" font-family="Arial" font-size="14.00" fill="#666666">[TEXT]</text>
<polygon fill="none" stroke="#000000" points="77.4988,-3293.5 77.4988,-3323.5 415.4988,-3323.5 415.4988,-3293.5 77.4988,-3293.5"/>
<text text-anchor="start" x="84.4988" y="-3304.9" font-family="Arial" font-size="14.00" fill="#000000">file_extn    </text>
<text text-anchor="start" x="170.8284" y="-3304.9" font-family="Arial" font-size="14.00" fill="#666666">[TEXT]</text>
<polygon fill="none" stroke="#000000" points="77.4988,-3263.5 77.4988,-3293.5 415.4988,-3293.5 415.4988,-3263.5 77.4988,-3263.5"/>
<text text-anchor="start" x="84.4988" y="-3274.9" font-family="Arial" font-size="14.00" fill="#000000">ur_status    </text>
<text text-anchor="start" x="176.2758" y="-3274.9" font-family="Arial" font-size="14.00" fill="#666666">[TEXT]</text>
<polygon fill="none" stroke="#000000" points="77.4988,-3233.5 77.4988,-3263.5 415.4988,-3263.5 415.4988,-3233.5 77.4988,-3233.5"/>
<text text-anchor="start" x="84.4988" y="-3244.9" font-family="Arial" font-size="14.00" fill="#000000">ur_status_explanation    </text>
<text text-anchor="start" x="255.6404" y="-3244.9" font-family="Arial" font-size="14.00" fill="#666666">[TEXT]</text>
<polygon fill="none" stroke="#000000" points="77.4988,-3203.5 77.4988,-3233.5 415.4988,-3233.5 415.4988,-3203.5 77.4988,-3203.5"/>
<text text-anchor="start" x="84.4988" y="-3214.9" font-family="Arial" font-size="14.00" fill="#000000">elaboration    </text>
<text text-anchor="start" x="187.9462" y="-3214.9" font-family="Arial" font-size="14.00" fill="#666666">[TEXT]</text>
<polygon fill="none" stroke="#000000" points="77.4988,-3173.5 77.4988,-3203.5 415.4988,-3203.5 415.4988,-3173.5 77.4988,-3173.5"/>
<text text-anchor="start" x="84.4988" y="-3184.9" font-family="Arial" font-size="14.00" fill="#000000">created_at    </text>
<text text-anchor="start" x="184.841" y="-3184.9" font-family="Arial" font-size="14.00" fill="#666666">[TIMESTAMP]</text>
<polygon fill="none" stroke="#000000" points="77.4988,-3143.5 77.4988,-3173.5 415.4988,-3173.5 415.4988,-3143.5 77.4988,-3143.5"/>
<text text-anchor="start" x="84.4988" y="-3154.9" font-family="Arial" font-size="14.00" fill="#000000">created_by    </text>
<text text-anchor="start" x="187.9504" y="-3154.9" font-family="Arial" font-size="14.00" fill="#666666">[TEXT]</text>
<polygon fill="none" stroke="#000000" points="77.4988,-3113.5 77.4988,-3143.5 415.4988,-3143.5 415.4988,-3113.5 77.4988,-3113.5"/>
<text text-anchor="start" x="84.4988" y="-3124.9" font-family="Arial" font-size="14.00" fill="#000000">updated_at    </text>
<text text-anchor="start" x="188.7456" y="-3124.9" font-family="Arial" font-size="14.00" fill="#666666">[TIMESTAMP]</text>
<polygon fill="none" stroke="#000000" points="77.4988,-3083.5 77.4988,-3113.5 415.4988,-3113.5 415.4988,-3083.5 77.4988,-3083.5"/>
<text text-anchor="start" x="84.4988" y="-3094.9" font-family="Arial" font-size="14.00" fill="#000000">updated_by    </text>
<text text-anchor="start" x="191.855" y="-3094.9" font-family="Arial" font-size="14.00" fill="#666666">[TEXT]</text>
<polygon fill="none" stroke="#000000" points="77.4988,-3053.5 77.4988,-3083.5 415.4988,-3083.5 415.4988,-3053.5 77.4988,-3053.5"/>
<text text-anchor="start" x="84.4988" y="-3064.9" font-family="Arial" font-size="14.00" fill="#000000">deleted_at    </text>
<text text-anchor="start" x="184.0696" y="-3064.9" font-family="Arial" font-size="14.00" fill="#666666">[TIMESTAMP]</text>
<polygon fill="none" stroke="#000000" points="77.4988,-3023.5 77.4988,-3053.5 415.4988,-3053.5 415.4988,-3023.5 77.4988,-3023.5"/>
<text text-anchor="start" x="84.4988" y="-3034.9" font-family="Arial" font-size="14.00" fill="#000000">deleted_by    </text>
<text text-anchor="start" x="187.179" y="-3034.9" font-family="Arial" font-size="14.00" fill="#666666">[TEXT]</text>
<polygon fill="none" stroke="#000000" points="77.4988,-2993.5 77.4988,-3023.5 415.4988,-3023.5 415.4988,-2993.5 77.4988,-2993.5"/>
<text text-anchor="start" x="84.4988" y="-3004.9" font-family="Arial" font-size="14.00" fill="#000000">activity_log    </text>
<text text-anchor="start" x="187.935" y="-3004.9" font-family="Arial" font-size="14.00" fill="#666666">[TEXT]</text>
</g>
<!-- ur_walk_session_path_fs_entry&#45;&gt;ur_walk_session -->
<g id="edge6" class="edge">
<title>ur_walk_session_path_fs_entry:walk_session_id&#45;&gt;ur_walk_session:ur_walk_session_id</title>
<path fill="none" stroke="#000000" d="M68.319,-3513.5997C-29.781,-3406.4355 -19.1762,-1577.5 85.4988,-1577.5"/>
<polygon fill="#000000" stroke="#000000" points="68.677,-3513.7907 75.3796,-3522.4698 73.0879,-3516.1454 77.4988,-3518.5 77.4988,-3518.5 77.4988,-3518.5 73.0879,-3516.1454 79.618,-3514.5302 68.677,-3513.7907 68.677,-3513.7907"/>
</g>
<!-- ur_walk_session_path_fs_entry&#45;&gt;uniform_resource -->
<g id="edge8" class="edge">
<title>ur_walk_session_path_fs_entry:uniform_resource_id&#45;&gt;uniform_resource:uniform_resource_id</title>
<path fill="none" stroke="#000000" d="M425.5294,-3458.2735C638.4991,-3448.4875 554.9409,-3123.924 415.4988,-2951 368.1106,-2892.2333 296.887,-2973.7667 249.4988,-2915 223.4136,-2882.6515 207.9433,-2821.5 249.4988,-2821.5"/>
<polygon fill="#000000" stroke="#000000" points="425.4963,-3458.2742 415.3972,-3454.0011 420.4975,-3458.3871 415.4988,-3458.5 415.4988,-3458.5 415.4988,-3458.5 420.4975,-3458.3871 415.6004,-3462.9989 425.4963,-3458.2742 425.4963,-3458.2742"/>
</g>
</g>
</svg>
