<?xml version="1.0" encoding="UTF-8" standalone="no"?>
<!DOCTYPE svg PUBLIC "-//W3C//DTD SVG 1.1//EN"
 "http://www.w3.org/Graphics/SVG/1.1/DTD/svg11.dtd">
<!-- Generated by graphviz version 2.40.1 (20161225.0304)
 -->
<!-- Title: device Pages: 1 -->
<svg width="683pt" height="3073pt"
 viewBox="0.00 0.00 682.99 3073.00" xmlns="http://www.w3.org/2000/svg" xmlns:xlink="http://www.w3.org/1999/xlink">
<g id="graph0" class="graph" transform="scale(1 1) rotate(0) translate(4 3069)">
<title>device</title>
<polygon fill="#ffffff" stroke="transparent" points="-4,4 -4,-3069 678.9894,-3069 678.9894,4 -4,4"/>
<!-- device -->
<g id="node1" class="node">
<title>device</title>
<polygon fill="#efefef" stroke="transparent" points="344.7878,-465.5 344.7878,-500.5 521.7878,-500.5 521.7878,-465.5 344.7878,-465.5"/>
<polygon fill="none" stroke="#000000" points="344.7878,-465.5 344.7878,-500.5 521.7878,-500.5 521.7878,-465.5 344.7878,-465.5"/>
<text text-anchor="start" x="371.1159" y="-478.3" font-family="Arial Bold" font-size="18.00" fill="#000000">device</text>
<text text-anchor="start" x="423.1287" y="-478.3" font-family="Arial" font-size="14.00" fill="#000000">    </text>
<text text-anchor="start" x="457.3335" y="-478.3" font-family="Arial" font-size="14.00" fill="#666666">[table]</text>
<polygon fill="none" stroke="#000000" points="344.7878,-435.5 344.7878,-465.5 521.7878,-465.5 521.7878,-435.5 344.7878,-435.5"/>
<text text-anchor="start" x="351.7878" y="-446.9" font-family="Arial" font-size="14.00" fill="#000000">device_id </text>
<text text-anchor="start" x="414.8046" y="-446.9" font-family="Arial" font-size="14.00" fill="#666666">[ULID]</text>
<polygon fill="none" stroke="#000000" points="344.7878,-405.5 344.7878,-435.5 521.7878,-435.5 521.7878,-405.5 344.7878,-405.5"/>
<text text-anchor="start" x="351.7878" y="-416.9" font-family="Arial" font-size="14.00" fill="#000000">name </text>
<text text-anchor="start" x="390.6868" y="-416.9" font-family="Arial" font-size="14.00" fill="#666666">[TEXT]</text>
<polygon fill="none" stroke="#000000" points="344.7878,-375.5 344.7878,-405.5 521.7878,-405.5 521.7878,-375.5 344.7878,-375.5"/>
<text text-anchor="start" x="351.7878" y="-386.9" font-family="Arial" font-size="14.00" fill="#000000">state </text>
<text text-anchor="start" x="386.0248" y="-386.9" font-family="Arial" font-size="14.00" fill="#666666">[TEXT]</text>
<polygon fill="none" stroke="#000000" points="344.7878,-345.5 344.7878,-375.5 521.7878,-375.5 521.7878,-345.5 344.7878,-345.5"/>
<text text-anchor="start" x="351.7878" y="-356.9" font-family="Arial" font-size="14.00" fill="#000000">boundary </text>
<text text-anchor="start" x="414.0346" y="-356.9" font-family="Arial" font-size="14.00" fill="#666666">[TEXT]</text>
<polygon fill="none" stroke="#000000" points="344.7878,-315.5 344.7878,-345.5 521.7878,-345.5 521.7878,-315.5 344.7878,-315.5"/>
<text text-anchor="start" x="351.7878" y="-326.9" font-family="Arial" font-size="14.00" fill="#000000">segmentation </text>
<text text-anchor="start" x="439.705" y="-326.9" font-family="Arial" font-size="14.00" fill="#666666">[TEXT]</text>
<polygon fill="none" stroke="#000000" points="344.7878,-285.5 344.7878,-315.5 521.7878,-315.5 521.7878,-285.5 344.7878,-285.5"/>
<text text-anchor="start" x="351.7878" y="-296.9" font-family="Arial" font-size="14.00" fill="#000000">state_sysinfo </text>
<text text-anchor="start" x="437.3698" y="-296.9" font-family="Arial" font-size="14.00" fill="#666666">[TEXT]</text>
<polygon fill="none" stroke="#000000" points="344.7878,-255.5 344.7878,-285.5 521.7878,-285.5 521.7878,-255.5 344.7878,-255.5"/>
<text text-anchor="start" x="351.7878" y="-266.9" font-family="Arial" font-size="14.00" fill="#000000">elaboration </text>
<text text-anchor="start" x="424.921" y="-266.9" font-family="Arial" font-size="14.00" fill="#666666">[TEXT]</text>
<polygon fill="none" stroke="#000000" points="344.7878,-225.5 344.7878,-255.5 521.7878,-255.5 521.7878,-225.5 344.7878,-225.5"/>
<text text-anchor="start" x="351.7878" y="-236.9" font-family="Arial" font-size="14.00" fill="#000000">created_at </text>
<text text-anchor="start" x="421.8158" y="-236.9" font-family="Arial" font-size="14.00" fill="#666666">[TIMESTAMP]</text>
<polygon fill="none" stroke="#000000" points="344.7878,-195.5 344.7878,-225.5 521.7878,-225.5 521.7878,-195.5 344.7878,-195.5"/>
<text text-anchor="start" x="351.7878" y="-206.9" font-family="Arial" font-size="14.00" fill="#000000">created_by </text>
<text text-anchor="start" x="424.9252" y="-206.9" font-family="Arial" font-size="14.00" fill="#666666">[TEXT]</text>
<polygon fill="none" stroke="#000000" points="344.7878,-165.5 344.7878,-195.5 521.7878,-195.5 521.7878,-165.5 344.7878,-165.5"/>
<text text-anchor="start" x="351.5992" y="-176.9" font-family="Arial" font-size="14.00" fill="#000000">updated_at </text>
<text text-anchor="start" x="425.5318" y="-176.9" font-family="Arial" font-size="14.00" fill="#666666">[TIMESTAMP]</text>
<polygon fill="none" stroke="#000000" points="344.7878,-135.5 344.7878,-165.5 521.7878,-165.5 521.7878,-135.5 344.7878,-135.5"/>
<text text-anchor="start" x="351.7878" y="-146.9" font-family="Arial" font-size="14.00" fill="#000000">updated_by </text>
<text text-anchor="start" x="428.8298" y="-146.9" font-family="Arial" font-size="14.00" fill="#666666">[TEXT]</text>
<polygon fill="none" stroke="#000000" points="344.7878,-105.5 344.7878,-135.5 521.7878,-135.5 521.7878,-105.5 344.7878,-105.5"/>
<text text-anchor="start" x="351.7878" y="-116.9" font-family="Arial" font-size="14.00" fill="#000000">deleted_at </text>
<text text-anchor="start" x="421.0444" y="-116.9" font-family="Arial" font-size="14.00" fill="#666666">[TIMESTAMP]</text>
<polygon fill="none" stroke="#000000" points="344.7878,-75.5 344.7878,-105.5 521.7878,-105.5 521.7878,-75.5 344.7878,-75.5"/>
<text text-anchor="start" x="351.7878" y="-86.9" font-family="Arial" font-size="14.00" fill="#000000">deleted_by </text>
<text text-anchor="start" x="424.1538" y="-86.9" font-family="Arial" font-size="14.00" fill="#666666">[TEXT]</text>
<polygon fill="none" stroke="#000000" points="344.7878,-45.5 344.7878,-75.5 521.7878,-75.5 521.7878,-45.5 344.7878,-45.5"/>
<text text-anchor="start" x="351.7878" y="-56.9" font-family="Arial" font-size="14.00" fill="#000000">activity_log </text>
<text text-anchor="start" x="424.9098" y="-56.9" font-family="Arial" font-size="14.00" fill="#666666">[TEXT]</text>
<polygon fill="none" stroke="#000000" stroke-width="3" points="342.7878,-44.5 342.7878,-502.5 522.7878,-502.5 522.7878,-44.5 342.7878,-44.5"/>
</g>
<!-- ur_walk_session -->
<g id="node2" class="node">
<title>ur_walk_session</title>
<polygon fill="#efefef" stroke="transparent" points="211.7878,-1075.5 211.7878,-1110.5 452.7878,-1110.5 452.7878,-1075.5 211.7878,-1075.5"/>
<polygon fill="none" stroke="#000000" points="211.7878,-1075.5 211.7878,-1110.5 452.7878,-1110.5 452.7878,-1075.5 211.7878,-1075.5"/>
<text text-anchor="start" x="229.6132" y="-1088.3" font-family="Arial Bold" font-size="18.00" fill="#000000">ur_walk_session</text>
<text text-anchor="start" x="362.6314" y="-1088.3" font-family="Arial" font-size="14.00" fill="#000000">    </text>
<text text-anchor="start" x="396.8362" y="-1088.3" font-family="Arial" font-size="14.00" fill="#666666">[table]</text>
<polygon fill="none" stroke="#000000" points="211.7878,-1045.5 211.7878,-1075.5 452.7878,-1075.5 452.7878,-1045.5 211.7878,-1045.5"/>
<text text-anchor="start" x="218.7878" y="-1056.9" font-family="Arial" font-size="14.00" fill="#000000">ur_walk_session_id    </text>
<text text-anchor="start" x="375.123" y="-1056.9" font-family="Arial" font-size="14.00" fill="#666666">[ULID]</text>
<polygon fill="none" stroke="#000000" points="211.7878,-1015.5 211.7878,-1045.5 452.7878,-1045.5 452.7878,-1015.5 211.7878,-1015.5"/>
<text text-anchor="start" x="218.7878" y="-1026.9" font-family="Arial" font-size="14.00" fill="#000000">device_id    </text>
<text text-anchor="start" x="312.1188" y="-1026.9" font-family="Arial" font-size="14.00" fill="#666666">[ULID]</text>
<polygon fill="none" stroke="#000000" points="211.7878,-985.5 211.7878,-1015.5 452.7878,-1015.5 452.7878,-985.5 211.7878,-985.5"/>
<text text-anchor="start" x="218.7878" y="-996.9" font-family="Arial" font-size="14.00" fill="#000000">walk_started_at    </text>
<text text-anchor="start" x="351.0164" y="-996.9" font-family="Arial" font-size="14.00" fill="#666666">[TIMESTAMP]</text>
<polygon fill="none" stroke="#000000" points="211.7878,-955.5 211.7878,-985.5 452.7878,-985.5 452.7878,-955.5 211.7878,-955.5"/>
<text text-anchor="start" x="218.7289" y="-966.9" font-family="Arial" font-size="14.00" fill="#000000">walk_finished_at    </text>
<text text-anchor="start" x="356.4021" y="-966.9" font-family="Arial" font-size="14.00" fill="#666666">[TIMESTAMP]</text>
<polygon fill="none" stroke="#000000" points="211.7878,-925.5 211.7878,-955.5 452.7878,-955.5 452.7878,-925.5 211.7878,-925.5"/>
<text text-anchor="start" x="218.7878" y="-936.9" font-family="Arial" font-size="14.00" fill="#000000">ignore_paths_regex    </text>
<text text-anchor="start" x="376.7022" y="-936.9" font-family="Arial" font-size="14.00" fill="#666666">[TEXT]</text>
<polygon fill="none" stroke="#000000" points="211.7878,-895.5 211.7878,-925.5 452.7878,-925.5 452.7878,-895.5 211.7878,-895.5"/>
<text text-anchor="start" x="218.7878" y="-906.9" font-family="Arial" font-size="14.00" fill="#000000">blobs_regex    </text>
<text text-anchor="start" x="329.238" y="-906.9" font-family="Arial" font-size="14.00" fill="#666666">[TEXT]</text>
<polygon fill="none" stroke="#000000" points="211.7878,-865.5 211.7878,-895.5 452.7878,-895.5 452.7878,-865.5 211.7878,-865.5"/>
<text text-anchor="start" x="218.7878" y="-876.9" font-family="Arial" font-size="14.00" fill="#000000">digests_regex    </text>
<text text-anchor="start" x="340.1286" y="-876.9" font-family="Arial" font-size="14.00" fill="#666666">[TEXT]</text>
<polygon fill="none" stroke="#000000" points="211.7878,-835.5 211.7878,-865.5 452.7878,-865.5 452.7878,-835.5 211.7878,-835.5"/>
<text text-anchor="start" x="218.7878" y="-846.9" font-family="Arial" font-size="14.00" fill="#000000">elaboration    </text>
<text text-anchor="start" x="322.2352" y="-846.9" font-family="Arial" font-size="14.00" fill="#666666">[TEXT]</text>
<polygon fill="none" stroke="#000000" points="211.7878,-805.5 211.7878,-835.5 452.7878,-835.5 452.7878,-805.5 211.7878,-805.5"/>
<text text-anchor="start" x="218.7878" y="-816.9" font-family="Arial" font-size="14.00" fill="#000000">created_at    </text>
<text text-anchor="start" x="319.13" y="-816.9" font-family="Arial" font-size="14.00" fill="#666666">[TIMESTAMP]</text>
<polygon fill="none" stroke="#000000" points="211.7878,-775.5 211.7878,-805.5 452.7878,-805.5 452.7878,-775.5 211.7878,-775.5"/>
<text text-anchor="start" x="218.7878" y="-786.9" font-family="Arial" font-size="14.00" fill="#000000">created_by    </text>
<text text-anchor="start" x="322.2394" y="-786.9" font-family="Arial" font-size="14.00" fill="#666666">[TEXT]</text>
<polygon fill="none" stroke="#000000" points="211.7878,-745.5 211.7878,-775.5 452.7878,-775.5 452.7878,-745.5 211.7878,-745.5"/>
<text text-anchor="start" x="218.7878" y="-756.9" font-family="Arial" font-size="14.00" fill="#000000">updated_at    </text>
<text text-anchor="start" x="323.0346" y="-756.9" font-family="Arial" font-size="14.00" fill="#666666">[TIMESTAMP]</text>
<polygon fill="none" stroke="#000000" points="211.7878,-715.5 211.7878,-745.5 452.7878,-745.5 452.7878,-715.5 211.7878,-715.5"/>
<text text-anchor="start" x="218.7878" y="-726.9" font-family="Arial" font-size="14.00" fill="#000000">updated_by    </text>
<text text-anchor="start" x="326.144" y="-726.9" font-family="Arial" font-size="14.00" fill="#666666">[TEXT]</text>
<polygon fill="none" stroke="#000000" points="211.7878,-685.5 211.7878,-715.5 452.7878,-715.5 452.7878,-685.5 211.7878,-685.5"/>
<text text-anchor="start" x="218.7878" y="-696.9" font-family="Arial" font-size="14.00" fill="#000000">deleted_at    </text>
<text text-anchor="start" x="318.3586" y="-696.9" font-family="Arial" font-size="14.00" fill="#666666">[TIMESTAMP]</text>
<polygon fill="none" stroke="#000000" points="211.7878,-655.5 211.7878,-685.5 452.7878,-685.5 452.7878,-655.5 211.7878,-655.5"/>
<text text-anchor="start" x="218.7878" y="-666.9" font-family="Arial" font-size="14.00" fill="#000000">deleted_by    </text>
<text text-anchor="start" x="321.468" y="-666.9" font-family="Arial" font-size="14.00" fill="#666666">[TEXT]</text>
<polygon fill="none" stroke="#000000" points="211.7878,-625.5 211.7878,-655.5 452.7878,-655.5 452.7878,-625.5 211.7878,-625.5"/>
<text text-anchor="start" x="218.7878" y="-636.9" font-family="Arial" font-size="14.00" fill="#000000">activity_log    </text>
<text text-anchor="start" x="322.224" y="-636.9" font-family="Arial" font-size="14.00" fill="#666666">[TEXT]</text>
</g>
<!-- ur_walk_session&#45;&gt;device -->
<g id="edge1" class="edge">
<title>ur_walk_session:device_id&#45;&gt;device:device_id</title>
<path fill="none" stroke="#000000" d="M463.0165,-1030.237C648.7625,-1020.4785 567.036,-741.5109 452.7878,-583 423.2036,-541.954 374.3721,-588.046 344.7878,-547 319.7103,-512.2067 301.8989,-450.5 344.7878,-450.5"/>
<polygon fill="#000000" stroke="#000000" points="462.7845,-1030.2428 452.6721,-1026.0015 457.7862,-1030.3714 452.7878,-1030.5 452.7878,-1030.5 452.7878,-1030.5 457.7862,-1030.3714 452.9036,-1034.9985 462.7845,-1030.2428 462.7845,-1030.2428"/>
</g>
<!-- ur_walk_session_path -->
<g id="node3" class="node">
<title>ur_walk_session_path</title>
<polygon fill="#efefef" stroke="transparent" points="301.7878,-1562.5 301.7878,-1597.5 565.7878,-1597.5 565.7878,-1562.5 301.7878,-1562.5"/>
<polygon fill="none" stroke="#000000" points="301.7878,-1562.5 301.7878,-1597.5 565.7878,-1597.5 565.7878,-1562.5 301.7878,-1562.5"/>
<text text-anchor="start" x="308.5997" y="-1575.3" font-family="Arial Bold" font-size="18.00" fill="#000000">ur_walk_session_path</text>
<text text-anchor="start" x="486.6449" y="-1575.3" font-family="Arial" font-size="14.00" fill="#000000">    </text>
<text text-anchor="start" x="520.8497" y="-1575.3" font-family="Arial" font-size="14.00" fill="#666666">[table]</text>
<polygon fill="none" stroke="#000000" points="301.7878,-1532.5 301.7878,-1562.5 565.7878,-1562.5 565.7878,-1532.5 301.7878,-1532.5"/>
<text text-anchor="start" x="308.7878" y="-1543.9" font-family="Arial" font-size="14.00" fill="#000000">ur_walk_session_path_id    </text>
<text text-anchor="start" x="500.144" y="-1543.9" font-family="Arial" font-size="14.00" fill="#666666">[ULID]</text>
<polygon fill="none" stroke="#000000" points="301.7878,-1502.5 301.7878,-1532.5 565.7878,-1532.5 565.7878,-1502.5 301.7878,-1502.5"/>
<text text-anchor="start" x="308.7878" y="-1513.9" font-family="Arial" font-size="14.00" fill="#000000">walk_session_id    </text>
<text text-anchor="start" x="444.8972" y="-1513.9" font-family="Arial" font-size="14.00" fill="#666666">[ULID]</text>
<polygon fill="none" stroke="#000000" points="301.7878,-1472.5 301.7878,-1502.5 565.7878,-1502.5 565.7878,-1472.5 301.7878,-1472.5"/>
<text text-anchor="start" x="308.7878" y="-1483.9" font-family="Arial" font-size="14.00" fill="#000000">root_path    </text>
<text text-anchor="start" x="402.13" y="-1483.9" font-family="Arial" font-size="14.00" fill="#666666">[TEXT]</text>
<polygon fill="none" stroke="#000000" points="301.7878,-1442.5 301.7878,-1472.5 565.7878,-1472.5 565.7878,-1442.5 301.7878,-1442.5"/>
<text text-anchor="start" x="308.7878" y="-1453.9" font-family="Arial" font-size="14.00" fill="#000000">elaboration    </text>
<text text-anchor="start" x="412.2352" y="-1453.9" font-family="Arial" font-size="14.00" fill="#666666">[TEXT]</text>
<polygon fill="none" stroke="#000000" points="301.7878,-1412.5 301.7878,-1442.5 565.7878,-1442.5 565.7878,-1412.5 301.7878,-1412.5"/>
<text text-anchor="start" x="308.7878" y="-1423.9" font-family="Arial" font-size="14.00" fill="#000000">created_at    </text>
<text text-anchor="start" x="409.13" y="-1423.9" font-family="Arial" font-size="14.00" fill="#666666">[TIMESTAMP]</text>
<polygon fill="none" stroke="#000000" points="301.7878,-1382.5 301.7878,-1412.5 565.7878,-1412.5 565.7878,-1382.5 301.7878,-1382.5"/>
<text text-anchor="start" x="308.7878" y="-1393.9" font-family="Arial" font-size="14.00" fill="#000000">created_by    </text>
<text text-anchor="start" x="412.2394" y="-1393.9" font-family="Arial" font-size="14.00" fill="#666666">[TEXT]</text>
<polygon fill="none" stroke="#000000" points="301.7878,-1352.5 301.7878,-1382.5 565.7878,-1382.5 565.7878,-1352.5 301.7878,-1352.5"/>
<text text-anchor="start" x="308.7878" y="-1363.9" font-family="Arial" font-size="14.00" fill="#000000">updated_at    </text>
<text text-anchor="start" x="413.0346" y="-1363.9" font-family="Arial" font-size="14.00" fill="#666666">[TIMESTAMP]</text>
<polygon fill="none" stroke="#000000" points="301.7878,-1322.5 301.7878,-1352.5 565.7878,-1352.5 565.7878,-1322.5 301.7878,-1322.5"/>
<text text-anchor="start" x="308.7878" y="-1333.9" font-family="Arial" font-size="14.00" fill="#000000">updated_by    </text>
<text text-anchor="start" x="416.144" y="-1333.9" font-family="Arial" font-size="14.00" fill="#666666">[TEXT]</text>
<polygon fill="none" stroke="#000000" points="301.7878,-1292.5 301.7878,-1322.5 565.7878,-1322.5 565.7878,-1292.5 301.7878,-1292.5"/>
<text text-anchor="start" x="308.7878" y="-1303.9" font-family="Arial" font-size="14.00" fill="#000000">deleted_at    </text>
<text text-anchor="start" x="408.3586" y="-1303.9" font-family="Arial" font-size="14.00" fill="#666666">[TIMESTAMP]</text>
<polygon fill="none" stroke="#000000" points="301.7878,-1262.5 301.7878,-1292.5 565.7878,-1292.5 565.7878,-1262.5 301.7878,-1262.5"/>
<text text-anchor="start" x="308.7878" y="-1273.9" font-family="Arial" font-size="14.00" fill="#000000">deleted_by    </text>
<text text-anchor="start" x="411.468" y="-1273.9" font-family="Arial" font-size="14.00" fill="#666666">[TEXT]</text>
<polygon fill="none" stroke="#000000" points="301.7878,-1232.5 301.7878,-1262.5 565.7878,-1262.5 565.7878,-1232.5 301.7878,-1232.5"/>
<text text-anchor="start" x="308.7878" y="-1243.9" font-family="Arial" font-size="14.00" fill="#000000">activity_log    </text>
<text text-anchor="start" x="412.224" y="-1243.9" font-family="Arial" font-size="14.00" fill="#666666">[TEXT]</text>
</g>
<!-- ur_walk_session_path&#45;&gt;ur_walk_session -->
<g id="edge2" class="edge">
<title>ur_walk_session_path:walk_session_id&#45;&gt;ur_walk_session:ur_walk_session_id</title>
<path fill="none" stroke="#000000" d="M291.8359,-1515.6224C231.7544,-1491.604 258.8887,-1244.3291 301.7878,-1190 344.5431,-1135.8531 410.0326,-1208.1469 452.7878,-1154 478.5404,-1121.386 494.3434,-1060.5 452.7878,-1060.5"/>
<polygon fill="#000000" stroke="#000000" points="291.9612,-1515.6459 300.9535,-1521.922 296.8745,-1516.573 301.7878,-1517.5 301.7878,-1517.5 301.7878,-1517.5 296.8745,-1516.573 302.6222,-1513.078 291.9612,-1515.6459 291.9612,-1515.6459"/>
</g>
<!-- uniform_resource -->
<g id="node4" class="node">
<title>uniform_resource</title>
<polygon fill="#efefef" stroke="transparent" points="289.7878,-2319.5 289.7878,-2354.5 523.7878,-2354.5 523.7878,-2319.5 289.7878,-2319.5"/>
<polygon fill="none" stroke="#000000" points="289.7878,-2319.5 289.7878,-2354.5 523.7878,-2354.5 523.7878,-2319.5 289.7878,-2319.5"/>
<text text-anchor="start" x="300.6149" y="-2332.3" font-family="Arial Bold" font-size="18.00" fill="#000000">uniform_resource</text>
<text text-anchor="start" x="440.6297" y="-2332.3" font-family="Arial" font-size="14.00" fill="#000000">    </text>
<text text-anchor="start" x="474.8345" y="-2332.3" font-family="Arial" font-size="14.00" fill="#666666">[table]</text>
<polygon fill="none" stroke="#000000" points="289.7878,-2289.5 289.7878,-2319.5 523.7878,-2319.5 523.7878,-2289.5 289.7878,-2289.5"/>
<text text-anchor="start" x="296.7878" y="-2300.9" font-family="Arial" font-size="14.00" fill="#000000">uniform_resource_id    </text>
<text text-anchor="start" x="458.5648" y="-2300.9" font-family="Arial" font-size="14.00" fill="#666666">[ULID]</text>
<polygon fill="none" stroke="#000000" points="289.7878,-2259.5 289.7878,-2289.5 523.7878,-2289.5 523.7878,-2259.5 289.7878,-2259.5"/>
<text text-anchor="start" x="296.7878" y="-2270.9" font-family="Arial" font-size="14.00" fill="#000000">device_id    </text>
<text text-anchor="start" x="390.1188" y="-2270.9" font-family="Arial" font-size="14.00" fill="#666666">[ULID]</text>
<polygon fill="none" stroke="#000000" points="289.7878,-2229.5 289.7878,-2259.5 523.7878,-2259.5 523.7878,-2229.5 289.7878,-2229.5"/>
<text text-anchor="start" x="296.7878" y="-2240.9" font-family="Arial" font-size="14.00" fill="#000000">walk_session_id    </text>
<text text-anchor="start" x="432.8972" y="-2240.9" font-family="Arial" font-size="14.00" fill="#666666">[ULID]</text>
<polygon fill="none" stroke="#000000" points="289.7878,-2199.5 289.7878,-2229.5 523.7878,-2229.5 523.7878,-2199.5 289.7878,-2199.5"/>
<text text-anchor="start" x="296.7878" y="-2210.9" font-family="Arial" font-size="14.00" fill="#000000">walk_path_id    </text>
<text text-anchor="start" x="412.6812" y="-2210.9" font-family="Arial" font-size="14.00" fill="#666666">[ULID]</text>
<polygon fill="none" stroke="#000000" points="289.7878,-2169.5 289.7878,-2199.5 523.7878,-2199.5 523.7878,-2169.5 289.7878,-2169.5"/>
<text text-anchor="start" x="296.7878" y="-2180.9" font-family="Arial" font-size="14.00" fill="#000000">uri    </text>
<text text-anchor="start" x="346.5424" y="-2180.9" font-family="Arial" font-size="14.00" fill="#666666">[TEXT]</text>
<polygon fill="none" stroke="#000000" points="289.7878,-2139.5 289.7878,-2169.5 523.7878,-2169.5 523.7878,-2139.5 289.7878,-2139.5"/>
<text text-anchor="start" x="296.7878" y="-2150.9" font-family="Arial" font-size="14.00" fill="#000000">content_digest    </text>
<text text-anchor="start" x="422.0318" y="-2150.9" font-family="Arial" font-size="14.00" fill="#666666">[TEXT]</text>
<polygon fill="none" stroke="#000000" points="289.7878,-2109.5 289.7878,-2139.5 523.7878,-2139.5 523.7878,-2109.5 289.7878,-2109.5"/>
<text text-anchor="start" x="296.7878" y="-2120.9" font-family="Arial" font-size="14.00" fill="#000000">content    </text>
<text text-anchor="start" x="376.9042" y="-2120.9" font-family="Arial" font-size="14.00" fill="#666666">[BLOB]</text>
<polygon fill="none" stroke="#000000" points="289.7878,-2079.5 289.7878,-2109.5 523.7878,-2109.5 523.7878,-2079.5 289.7878,-2079.5"/>
<text text-anchor="start" x="296.7878" y="-2090.9" font-family="Arial" font-size="14.00" fill="#000000">nature    </text>
<text text-anchor="start" x="370.6742" y="-2090.9" font-family="Arial" font-size="14.00" fill="#666666">[TEXT]</text>
<polygon fill="none" stroke="#000000" points="289.7878,-2049.5 289.7878,-2079.5 523.7878,-2079.5 523.7878,-2049.5 289.7878,-2049.5"/>
<text text-anchor="start" x="296.7878" y="-2060.9" font-family="Arial" font-size="14.00" fill="#000000">size_bytes    </text>
<text text-anchor="start" x="397.1202" y="-2060.9" font-family="Arial" font-size="14.00" fill="#666666">[INTEGER]</text>
<polygon fill="none" stroke="#000000" points="289.7878,-2019.5 289.7878,-2049.5 523.7878,-2049.5 523.7878,-2019.5 289.7878,-2019.5"/>
<text text-anchor="start" x="296.7878" y="-2030.9" font-family="Arial" font-size="14.00" fill="#000000">last_modified_at    </text>
<text text-anchor="start" x="432.9056" y="-2030.9" font-family="Arial" font-size="14.00" fill="#666666">[INTEGER]</text>
<polygon fill="none" stroke="#000000" points="289.7878,-1989.5 289.7878,-2019.5 523.7878,-2019.5 523.7878,-1989.5 289.7878,-1989.5"/>
<text text-anchor="start" x="296.7142" y="-2000.9" font-family="Arial" font-size="14.00" fill="#000000">content_fm_body_attrs    </text>
<text text-anchor="start" x="473.3018" y="-2000.9" font-family="Arial" font-size="14.00" fill="#666666">[TEXT]</text>
<polygon fill="none" stroke="#000000" points="289.7878,-1959.5 289.7878,-1989.5 523.7878,-1989.5 523.7878,-1959.5 289.7878,-1959.5"/>
<text text-anchor="start" x="296.7878" y="-1970.9" font-family="Arial" font-size="14.00" fill="#000000">frontmatter    </text>
<text text-anchor="start" x="398.6672" y="-1970.9" font-family="Arial" font-size="14.00" fill="#666666">[TEXT]</text>
<polygon fill="none" stroke="#000000" points="289.7878,-1929.5 289.7878,-1959.5 523.7878,-1959.5 523.7878,-1929.5 289.7878,-1929.5"/>
<text text-anchor="start" x="296.7878" y="-1940.9" font-family="Arial" font-size="14.00" fill="#000000">elaboration    </text>
<text text-anchor="start" x="400.2352" y="-1940.9" font-family="Arial" font-size="14.00" fill="#666666">[TEXT]</text>
<polygon fill="none" stroke="#000000" points="289.7878,-1899.5 289.7878,-1929.5 523.7878,-1929.5 523.7878,-1899.5 289.7878,-1899.5"/>
<text text-anchor="start" x="296.7878" y="-1910.9" font-family="Arial" font-size="14.00" fill="#000000">created_at    </text>
<text text-anchor="start" x="397.13" y="-1910.9" font-family="Arial" font-size="14.00" fill="#666666">[TIMESTAMP]</text>
<polygon fill="none" stroke="#000000" points="289.7878,-1869.5 289.7878,-1899.5 523.7878,-1899.5 523.7878,-1869.5 289.7878,-1869.5"/>
<text text-anchor="start" x="296.7878" y="-1880.9" font-family="Arial" font-size="14.00" fill="#000000">created_by    </text>
<text text-anchor="start" x="400.2394" y="-1880.9" font-family="Arial" font-size="14.00" fill="#666666">[TEXT]</text>
<polygon fill="none" stroke="#000000" points="289.7878,-1839.5 289.7878,-1869.5 523.7878,-1869.5 523.7878,-1839.5 289.7878,-1839.5"/>
<text text-anchor="start" x="296.7878" y="-1850.9" font-family="Arial" font-size="14.00" fill="#000000">updated_at    </text>
<text text-anchor="start" x="401.0346" y="-1850.9" font-family="Arial" font-size="14.00" fill="#666666">[TIMESTAMP]</text>
<polygon fill="none" stroke="#000000" points="289.7878,-1809.5 289.7878,-1839.5 523.7878,-1839.5 523.7878,-1809.5 289.7878,-1809.5"/>
<text text-anchor="start" x="296.7878" y="-1820.9" font-family="Arial" font-size="14.00" fill="#000000">updated_by    </text>
<text text-anchor="start" x="404.144" y="-1820.9" font-family="Arial" font-size="14.00" fill="#666666">[TEXT]</text>
<polygon fill="none" stroke="#000000" points="289.7878,-1779.5 289.7878,-1809.5 523.7878,-1809.5 523.7878,-1779.5 289.7878,-1779.5"/>
<text text-anchor="start" x="296.7878" y="-1790.9" font-family="Arial" font-size="14.00" fill="#000000">deleted_at    </text>
<text text-anchor="start" x="396.3586" y="-1790.9" font-family="Arial" font-size="14.00" fill="#666666">[TIMESTAMP]</text>
<polygon fill="none" stroke="#000000" points="289.7878,-1749.5 289.7878,-1779.5 523.7878,-1779.5 523.7878,-1749.5 289.7878,-1749.5"/>
<text text-anchor="start" x="296.7878" y="-1760.9" font-family="Arial" font-size="14.00" fill="#000000">deleted_by    </text>
<text text-anchor="start" x="399.468" y="-1760.9" font-family="Arial" font-size="14.00" fill="#666666">[TEXT]</text>
<polygon fill="none" stroke="#000000" points="289.7878,-1719.5 289.7878,-1749.5 523.7878,-1749.5 523.7878,-1719.5 289.7878,-1719.5"/>
<text text-anchor="start" x="296.7878" y="-1730.9" font-family="Arial" font-size="14.00" fill="#000000">activity_log    </text>
<text text-anchor="start" x="400.224" y="-1730.9" font-family="Arial" font-size="14.00" fill="#666666">[TEXT]</text>
</g>
<!-- uniform_resource&#45;&gt;device -->
<g id="edge5" class="edge">
<title>uniform_resource:device_id&#45;&gt;device:device_id</title>
<path fill="none" stroke="#000000" d="M533.7124,-2273.0085C726.3329,-2214.4402 721.09,-450.5 521.7878,-450.5"/>
<polygon fill="#000000" stroke="#000000" points="533.6768,-2273.0138 523.1191,-2270.05 528.7323,-2273.7569 523.7878,-2274.5 523.7878,-2274.5 523.7878,-2274.5 528.7323,-2273.7569 524.4566,-2278.95 533.6768,-2273.0138 533.6768,-2273.0138"/>
</g>
<!-- uniform_resource&#45;&gt;ur_walk_session -->
<g id="edge3" class="edge">
<title>uniform_resource:walk_session_id&#45;&gt;ur_walk_session:ur_walk_session_id</title>
<path fill="none" stroke="#000000" d="M286.6903,-2234.9695C265.3439,-2122.9176 196.1768,-1060.5 211.7878,-1060.5"/>
<polygon fill="#000000" stroke="#000000" points="286.6968,-2234.9897 285.5082,-2245.891 288.2423,-2239.7448 289.7878,-2244.5 289.7878,-2244.5 289.7878,-2244.5 288.2423,-2239.7448 294.0675,-2243.109 286.6968,-2234.9897 286.6968,-2234.9897"/>
</g>
<!-- uniform_resource&#45;&gt;ur_walk_session_path -->
<g id="edge7" class="edge">
<title>uniform_resource:walk_path_id&#45;&gt;ur_walk_session_path:ur_walk_session_path_id</title>
<path fill="none" stroke="#000000" d="M534.0788,-2214.2728C760.1983,-2204.1204 676.3312,-1856.2728 523.7878,-1677 459.012,-1600.8738 366.5637,-1717.1262 301.7878,-1641 274.8579,-1609.3513 260.2323,-1547.5 301.7878,-1547.5"/>
<polygon fill="#000000" stroke="#000000" points="533.7854,-2214.2792 523.6885,-2210.0011 528.7866,-2214.3896 523.7878,-2214.5 523.7878,-2214.5 523.7878,-2214.5 528.7866,-2214.3896 523.8872,-2218.9989 533.7854,-2214.2792 533.7854,-2214.2792"/>
</g>
<!-- ur_walk_session_path_fs_entry -->
<g id="node5" class="node">
<title>ur_walk_session_path_fs_entry</title>
<polygon fill="#efefef" stroke="transparent" points="117.7878,-2986.5 117.7878,-3021.5 455.7878,-3021.5 455.7878,-2986.5 117.7878,-2986.5"/>
<polygon fill="none" stroke="#000000" points="117.7878,-2986.5 117.7878,-3021.5 455.7878,-3021.5 455.7878,-2986.5 117.7878,-2986.5"/>
<text text-anchor="start" x="124.589" y="-2999.3" font-family="Arial Bold" font-size="18.00" fill="#000000">ur_walk_session_path_fs_entry</text>
<text text-anchor="start" x="376.6556" y="-2999.3" font-family="Arial" font-size="14.00" fill="#000000">    </text>
<text text-anchor="start" x="410.8604" y="-2999.3" font-family="Arial" font-size="14.00" fill="#666666">[table]</text>
<polygon fill="none" stroke="#000000" points="117.7878,-2956.5 117.7878,-2986.5 455.7878,-2986.5 455.7878,-2956.5 117.7878,-2956.5"/>
<text text-anchor="start" x="124.7878" y="-2967.9" font-family="Arial" font-size="14.00" fill="#000000">ur_walk_session_path_fs_entry_id    </text>
<text text-anchor="start" x="373.7162" y="-2967.9" font-family="Arial" font-size="14.00" fill="#666666">[ULID]</text>
<polygon fill="none" stroke="#000000" points="117.7878,-2926.5 117.7878,-2956.5 455.7878,-2956.5 455.7878,-2926.5 117.7878,-2926.5"/>
<text text-anchor="start" x="124.7878" y="-2937.9" font-family="Arial" font-size="14.00" fill="#000000">walk_session_id    </text>
<text text-anchor="start" x="260.8972" y="-2937.9" font-family="Arial" font-size="14.00" fill="#666666">[ULID]</text>
<polygon fill="none" stroke="#000000" points="117.7878,-2896.5 117.7878,-2926.5 455.7878,-2926.5 455.7878,-2896.5 117.7878,-2896.5"/>
<text text-anchor="start" x="124.7878" y="-2907.9" font-family="Arial" font-size="14.00" fill="#000000">walk_path_id    </text>
<text text-anchor="start" x="240.6812" y="-2907.9" font-family="Arial" font-size="14.00" fill="#666666">[ULID]</text>
<polygon fill="none" stroke="#000000" points="117.7878,-2866.5 117.7878,-2896.5 455.7878,-2896.5 455.7878,-2866.5 117.7878,-2866.5"/>
<text text-anchor="start" x="124.7878" y="-2877.9" font-family="Arial" font-size="14.00" fill="#000000">uniform_resource_id    </text>
<text text-anchor="start" x="286.5648" y="-2877.9" font-family="Arial" font-size="14.00" fill="#666666">[ULID]</text>
<polygon fill="none" stroke="#000000" points="117.7878,-2836.5 117.7878,-2866.5 455.7878,-2866.5 455.7878,-2836.5 117.7878,-2836.5"/>
<text text-anchor="start" x="124.7878" y="-2847.9" font-family="Arial" font-size="14.00" fill="#000000">file_path_abs    </text>
<text text-anchor="start" x="242.2478" y="-2847.9" font-family="Arial" font-size="14.00" fill="#666666">[TEXT]</text>
<polygon fill="none" stroke="#000000" points="117.7878,-2806.5 117.7878,-2836.5 455.7878,-2836.5 455.7878,-2806.5 117.7878,-2806.5"/>
<text text-anchor="start" x="124.7878" y="-2817.9" font-family="Arial" font-size="14.00" fill="#000000">file_path_rel_parent    </text>
<text text-anchor="start" x="282.6966" y="-2817.9" font-family="Arial" font-size="14.00" fill="#666666">[TEXT]</text>
<polygon fill="none" stroke="#000000" points="117.7878,-2776.5 117.7878,-2806.5 455.7878,-2806.5 455.7878,-2776.5 117.7878,-2776.5"/>
<text text-anchor="start" x="124.7878" y="-2787.9" font-family="Arial" font-size="14.00" fill="#000000">file_path_rel    </text>
<text text-anchor="start" x="235.2324" y="-2787.9" font-family="Arial" font-size="14.00" fill="#666666">[TEXT]</text>
<polygon fill="none" stroke="#000000" points="117.7878,-2746.5 117.7878,-2776.5 455.7878,-2776.5 455.7878,-2746.5 117.7878,-2746.5"/>
<text text-anchor="start" x="124.7878" y="-2757.9" font-family="Arial" font-size="14.00" fill="#000000">file_basename    </text>
<text text-anchor="start" x="250.0178" y="-2757.9" font-family="Arial" font-size="14.00" fill="#666666">[TEXT]</text>
<polygon fill="none" stroke="#000000" points="117.7878,-2716.5 117.7878,-2746.5 455.7878,-2746.5 455.7878,-2716.5 117.7878,-2716.5"/>
<text text-anchor="start" x="124.7878" y="-2727.9" font-family="Arial" font-size="14.00" fill="#000000">file_extn    </text>
<text text-anchor="start" x="211.1174" y="-2727.9" font-family="Arial" font-size="14.00" fill="#666666">[TEXT]</text>
<polygon fill="none" stroke="#000000" points="117.7878,-2686.5 117.7878,-2716.5 455.7878,-2716.5 455.7878,-2686.5 117.7878,-2686.5"/>
<text text-anchor="start" x="124.7878" y="-2697.9" font-family="Arial" font-size="14.00" fill="#000000">elaboration    </text>
<text text-anchor="start" x="228.2352" y="-2697.9" font-family="Arial" font-size="14.00" fill="#666666">[TEXT]</text>
<polygon fill="none" stroke="#000000" points="117.7878,-2656.5 117.7878,-2686.5 455.7878,-2686.5 455.7878,-2656.5 117.7878,-2656.5"/>
<text text-anchor="start" x="124.7878" y="-2667.9" font-family="Arial" font-size="14.00" fill="#000000">created_at    </text>
<text text-anchor="start" x="225.13" y="-2667.9" font-family="Arial" font-size="14.00" fill="#666666">[TIMESTAMP]</text>
<polygon fill="none" stroke="#000000" points="117.7878,-2626.5 117.7878,-2656.5 455.7878,-2656.5 455.7878,-2626.5 117.7878,-2626.5"/>
<text text-anchor="start" x="124.7878" y="-2637.9" font-family="Arial" font-size="14.00" fill="#000000">created_by    </text>
<text text-anchor="start" x="228.2394" y="-2637.9" font-family="Arial" font-size="14.00" fill="#666666">[TEXT]</text>
<polygon fill="none" stroke="#000000" points="117.7878,-2596.5 117.7878,-2626.5 455.7878,-2626.5 455.7878,-2596.5 117.7878,-2596.5"/>
<text text-anchor="start" x="124.7878" y="-2607.9" font-family="Arial" font-size="14.00" fill="#000000">updated_at    </text>
<text text-anchor="start" x="229.0346" y="-2607.9" font-family="Arial" font-size="14.00" fill="#666666">[TIMESTAMP]</text>
<polygon fill="none" stroke="#000000" points="117.7878,-2566.5 117.7878,-2596.5 455.7878,-2596.5 455.7878,-2566.5 117.7878,-2566.5"/>
<text text-anchor="start" x="124.7878" y="-2577.9" font-family="Arial" font-size="14.00" fill="#000000">updated_by    </text>
<text text-anchor="start" x="232.144" y="-2577.9" font-family="Arial" font-size="14.00" fill="#666666">[TEXT]</text>
<polygon fill="none" stroke="#000000" points="117.7878,-2536.5 117.7878,-2566.5 455.7878,-2566.5 455.7878,-2536.5 117.7878,-2536.5"/>
<text text-anchor="start" x="124.7878" y="-2547.9" font-family="Arial" font-size="14.00" fill="#000000">deleted_at    </text>
<text text-anchor="start" x="224.3586" y="-2547.9" font-family="Arial" font-size="14.00" fill="#666666">[TIMESTAMP]</text>
<polygon fill="none" stroke="#000000" points="117.7878,-2506.5 117.7878,-2536.5 455.7878,-2536.5 455.7878,-2506.5 117.7878,-2506.5"/>
<text text-anchor="start" x="124.7878" y="-2517.9" font-family="Arial" font-size="14.00" fill="#000000">deleted_by    </text>
<text text-anchor="start" x="227.468" y="-2517.9" font-family="Arial" font-size="14.00" fill="#666666">[TEXT]</text>
<polygon fill="none" stroke="#000000" points="117.7878,-2476.5 117.7878,-2506.5 455.7878,-2506.5 455.7878,-2476.5 117.7878,-2476.5"/>
<text text-anchor="start" x="124.7878" y="-2487.9" font-family="Arial" font-size="14.00" fill="#000000">activity_log    </text>
<text text-anchor="start" x="228.224" y="-2487.9" font-family="Arial" font-size="14.00" fill="#666666">[TEXT]</text>
</g>
<!-- ur_walk_session_path_fs_entry&#45;&gt;ur_walk_session -->
<g id="edge4" class="edge">
<title>ur_walk_session_path_fs_entry:walk_session_id&#45;&gt;ur_walk_session:ur_walk_session_id</title>
<path fill="none" stroke="#000000" d="M107.6156,-2939.9619C-88.3201,-2879.5633 6.0011,-1060.5 211.7878,-1060.5"/>
<polygon fill="#000000" stroke="#000000" points="107.9002,-2940.0049 117.115,-2945.9494 112.844,-2940.7524 117.7878,-2941.5 117.7878,-2941.5 117.7878,-2941.5 112.844,-2940.7524 118.4606,-2937.0506 107.9002,-2940.0049 107.9002,-2940.0049"/>
</g>
<!-- ur_walk_session_path_fs_entry&#45;&gt;uniform_resource -->
<g id="edge6" class="edge">
<title>ur_walk_session_path_fs_entry:uniform_resource_id&#45;&gt;uniform_resource:uniform_resource_id</title>
<path fill="none" stroke="#000000" d="M466.0243,-2881.231C652.058,-2871.2532 578.4394,-2586.1018 455.7878,-2434 408.3997,-2375.2333 337.176,-2456.7667 289.7878,-2398 263.7027,-2365.6515 248.2323,-2304.5 289.7878,-2304.5"/>
<polygon fill="#000000" stroke="#000000" points="465.7844,-2881.2372 455.6696,-2877.0016 460.7861,-2881.3686 455.7878,-2881.5 455.7878,-2881.5 455.7878,-2881.5 460.7861,-2881.3686 455.9061,-2885.9984 465.7844,-2881.2372 465.7844,-2881.2372"/>
</g>
</g>
</svg>
