<?xml version="1.0" encoding="UTF-8" standalone="no"?>
<!DOCTYPE svg PUBLIC "-//W3C//DTD SVG 1.1//EN"
 "http://www.w3.org/Graphics/SVG/1.1/DTD/svg11.dtd">
<!-- Generated by graphviz version 2.40.1 (20161225.0304)
 -->
<!-- Title: device Pages: 1 -->
<svg width="860pt" height="3710pt"
 viewBox="0.00 0.00 860.00 3710.00" xmlns="http://www.w3.org/2000/svg" xmlns:xlink="http://www.w3.org/1999/xlink">
<g id="graph0" class="graph" transform="scale(1 1) rotate(0) translate(4 3706)">
<title>device</title>
<polygon fill="#ffffff" stroke="transparent" points="-4,4 -4,-3706 856,-3706 856,4 -4,4"/>
<!-- device -->
<g id="node1" class="node">
<title>device</title>
<polygon fill="#efefef" stroke="transparent" points="389,-465.5 389,-500.5 566,-500.5 566,-465.5 389,-465.5"/>
<polygon fill="none" stroke="#000000" points="389,-465.5 389,-500.5 566,-500.5 566,-465.5 389,-465.5"/>
<text text-anchor="start" x="415.3281" y="-478.3" font-family="Arial Bold" font-size="18.00" fill="#000000">device</text>
<text text-anchor="start" x="467.3409" y="-478.3" font-family="Arial" font-size="14.00" fill="#000000">    </text>
<text text-anchor="start" x="501.5457" y="-478.3" font-family="Arial" font-size="14.00" fill="#666666">[table]</text>
<polygon fill="none" stroke="#000000" points="389,-435.5 389,-465.5 566,-465.5 566,-435.5 389,-435.5"/>
<text text-anchor="start" x="396" y="-446.9" font-family="Arial" font-size="14.00" fill="#000000">device_id </text>
<text text-anchor="start" x="459.0168" y="-446.9" font-family="Arial" font-size="14.00" fill="#666666">[ULID]</text>
<polygon fill="none" stroke="#000000" points="389,-405.5 389,-435.5 566,-435.5 566,-405.5 389,-405.5"/>
<text text-anchor="start" x="396" y="-416.9" font-family="Arial" font-size="14.00" fill="#000000">name </text>
<text text-anchor="start" x="434.899" y="-416.9" font-family="Arial" font-size="14.00" fill="#666666">[TEXT]</text>
<polygon fill="none" stroke="#000000" points="389,-375.5 389,-405.5 566,-405.5 566,-375.5 389,-375.5"/>
<text text-anchor="start" x="396" y="-386.9" font-family="Arial" font-size="14.00" fill="#000000">state </text>
<text text-anchor="start" x="430.237" y="-386.9" font-family="Arial" font-size="14.00" fill="#666666">[TEXT]</text>
<polygon fill="none" stroke="#000000" points="389,-345.5 389,-375.5 566,-375.5 566,-345.5 389,-345.5"/>
<text text-anchor="start" x="396" y="-356.9" font-family="Arial" font-size="14.00" fill="#000000">boundary </text>
<text text-anchor="start" x="458.2468" y="-356.9" font-family="Arial" font-size="14.00" fill="#666666">[TEXT]</text>
<polygon fill="none" stroke="#000000" points="389,-315.5 389,-345.5 566,-345.5 566,-315.5 389,-315.5"/>
<text text-anchor="start" x="396" y="-326.9" font-family="Arial" font-size="14.00" fill="#000000">segmentation </text>
<text text-anchor="start" x="483.9172" y="-326.9" font-family="Arial" font-size="14.00" fill="#666666">[TEXT]</text>
<polygon fill="none" stroke="#000000" points="389,-285.5 389,-315.5 566,-315.5 566,-285.5 389,-285.5"/>
<text text-anchor="start" x="396" y="-296.9" font-family="Arial" font-size="14.00" fill="#000000">state_sysinfo </text>
<text text-anchor="start" x="481.582" y="-296.9" font-family="Arial" font-size="14.00" fill="#666666">[TEXT]</text>
<polygon fill="none" stroke="#000000" points="389,-255.5 389,-285.5 566,-285.5 566,-255.5 389,-255.5"/>
<text text-anchor="start" x="396" y="-266.9" font-family="Arial" font-size="14.00" fill="#000000">elaboration </text>
<text text-anchor="start" x="469.1332" y="-266.9" font-family="Arial" font-size="14.00" fill="#666666">[TEXT]</text>
<polygon fill="none" stroke="#000000" points="389,-225.5 389,-255.5 566,-255.5 566,-225.5 389,-225.5"/>
<text text-anchor="start" x="396" y="-236.9" font-family="Arial" font-size="14.00" fill="#000000">created_at </text>
<text text-anchor="start" x="466.028" y="-236.9" font-family="Arial" font-size="14.00" fill="#666666">[TIMESTAMP]</text>
<polygon fill="none" stroke="#000000" points="389,-195.5 389,-225.5 566,-225.5 566,-195.5 389,-195.5"/>
<text text-anchor="start" x="396" y="-206.9" font-family="Arial" font-size="14.00" fill="#000000">created_by </text>
<text text-anchor="start" x="469.1374" y="-206.9" font-family="Arial" font-size="14.00" fill="#666666">[TEXT]</text>
<polygon fill="none" stroke="#000000" points="389,-165.5 389,-195.5 566,-195.5 566,-165.5 389,-165.5"/>
<text text-anchor="start" x="395.8114" y="-176.9" font-family="Arial" font-size="14.00" fill="#000000">updated_at </text>
<text text-anchor="start" x="469.744" y="-176.9" font-family="Arial" font-size="14.00" fill="#666666">[TIMESTAMP]</text>
<polygon fill="none" stroke="#000000" points="389,-135.5 389,-165.5 566,-165.5 566,-135.5 389,-135.5"/>
<text text-anchor="start" x="396" y="-146.9" font-family="Arial" font-size="14.00" fill="#000000">updated_by </text>
<text text-anchor="start" x="473.042" y="-146.9" font-family="Arial" font-size="14.00" fill="#666666">[TEXT]</text>
<polygon fill="none" stroke="#000000" points="389,-105.5 389,-135.5 566,-135.5 566,-105.5 389,-105.5"/>
<text text-anchor="start" x="396" y="-116.9" font-family="Arial" font-size="14.00" fill="#000000">deleted_at </text>
<text text-anchor="start" x="465.2566" y="-116.9" font-family="Arial" font-size="14.00" fill="#666666">[TIMESTAMP]</text>
<polygon fill="none" stroke="#000000" points="389,-75.5 389,-105.5 566,-105.5 566,-75.5 389,-75.5"/>
<text text-anchor="start" x="396" y="-86.9" font-family="Arial" font-size="14.00" fill="#000000">deleted_by </text>
<text text-anchor="start" x="468.366" y="-86.9" font-family="Arial" font-size="14.00" fill="#666666">[TEXT]</text>
<polygon fill="none" stroke="#000000" points="389,-45.5 389,-75.5 566,-75.5 566,-45.5 389,-45.5"/>
<text text-anchor="start" x="396" y="-56.9" font-family="Arial" font-size="14.00" fill="#000000">activity_log </text>
<text text-anchor="start" x="469.122" y="-56.9" font-family="Arial" font-size="14.00" fill="#666666">[TEXT]</text>
<polygon fill="none" stroke="#000000" stroke-width="3" points="387,-44.5 387,-502.5 567,-502.5 567,-44.5 387,-44.5"/>
</g>
<!-- behavior -->
<g id="node2" class="node">
<title>behavior</title>
<polygon fill="#efefef" stroke="transparent" points="362,-1015.5 362,-1050.5 593,-1050.5 593,-1015.5 362,-1015.5"/>
<polygon fill="none" stroke="#000000" points="362,-1015.5 362,-1050.5 593,-1050.5 593,-1015.5 362,-1015.5"/>
<text text-anchor="start" x="406.8258" y="-1028.3" font-family="Arial Bold" font-size="18.00" fill="#000000">behavior</text>
<text text-anchor="start" x="475.8432" y="-1028.3" font-family="Arial" font-size="14.00" fill="#000000">    </text>
<text text-anchor="start" x="510.048" y="-1028.3" font-family="Arial" font-size="14.00" fill="#666666">[table]</text>
<polygon fill="none" stroke="#000000" points="362,-985.5 362,-1015.5 593,-1015.5 593,-985.5 362,-985.5"/>
<text text-anchor="start" x="369" y="-996.9" font-family="Arial" font-size="14.00" fill="#000000">behavior_id    </text>
<text text-anchor="start" x="475.5568" y="-996.9" font-family="Arial" font-size="14.00" fill="#666666">[ULID]</text>
<polygon fill="none" stroke="#000000" points="362,-955.5 362,-985.5 593,-985.5 593,-955.5 362,-955.5"/>
<text text-anchor="start" x="369" y="-966.9" font-family="Arial" font-size="14.00" fill="#000000">device_id    </text>
<text text-anchor="start" x="462.331" y="-966.9" font-family="Arial" font-size="14.00" fill="#666666">[ULID]</text>
<polygon fill="none" stroke="#000000" points="362,-925.5 362,-955.5 593,-955.5 593,-925.5 362,-925.5"/>
<text text-anchor="start" x="369" y="-936.9" font-family="Arial" font-size="14.00" fill="#000000">behavior_name    </text>
<text text-anchor="start" x="499.676" y="-936.9" font-family="Arial" font-size="14.00" fill="#666666">[TEXT]</text>
<polygon fill="none" stroke="#000000" points="362,-895.5 362,-925.5 593,-925.5 593,-895.5 362,-895.5"/>
<text text-anchor="start" x="369" y="-906.9" font-family="Arial" font-size="14.00" fill="#000000">behavior_conf_json    </text>
<text text-anchor="start" x="524.5778" y="-906.9" font-family="Arial" font-size="14.00" fill="#666666">[TEXT]</text>
<polygon fill="none" stroke="#000000" points="362,-865.5 362,-895.5 593,-895.5 593,-865.5 362,-865.5"/>
<text text-anchor="start" x="368.5996" y="-876.9" font-family="Arial" font-size="14.00" fill="#000000">assurance_schema_id    </text>
<text text-anchor="start" x="542.8408" y="-876.9" font-family="Arial" font-size="14.00" fill="#666666">[TEXT]</text>
<polygon fill="none" stroke="#000000" points="362,-835.5 362,-865.5 593,-865.5 593,-835.5 362,-835.5"/>
<text text-anchor="start" x="369" y="-846.9" font-family="Arial" font-size="14.00" fill="#000000">governance    </text>
<text text-anchor="start" x="476.3436" y="-846.9" font-family="Arial" font-size="14.00" fill="#666666">[TEXT]</text>
<polygon fill="none" stroke="#000000" points="362,-805.5 362,-835.5 593,-835.5 593,-805.5 362,-805.5"/>
<text text-anchor="start" x="369" y="-816.9" font-family="Arial" font-size="14.00" fill="#000000">created_at    </text>
<text text-anchor="start" x="469.3422" y="-816.9" font-family="Arial" font-size="14.00" fill="#666666">[TIMESTAMP]</text>
<polygon fill="none" stroke="#000000" points="362,-775.5 362,-805.5 593,-805.5 593,-775.5 362,-775.5"/>
<text text-anchor="start" x="369" y="-786.9" font-family="Arial" font-size="14.00" fill="#000000">created_by    </text>
<text text-anchor="start" x="472.4516" y="-786.9" font-family="Arial" font-size="14.00" fill="#666666">[TEXT]</text>
<polygon fill="none" stroke="#000000" points="362,-745.5 362,-775.5 593,-775.5 593,-745.5 362,-745.5"/>
<text text-anchor="start" x="369" y="-756.9" font-family="Arial" font-size="14.00" fill="#000000">updated_at    </text>
<text text-anchor="start" x="473.2468" y="-756.9" font-family="Arial" font-size="14.00" fill="#666666">[TIMESTAMP]</text>
<polygon fill="none" stroke="#000000" points="362,-715.5 362,-745.5 593,-745.5 593,-715.5 362,-715.5"/>
<text text-anchor="start" x="369" y="-726.9" font-family="Arial" font-size="14.00" fill="#000000">updated_by    </text>
<text text-anchor="start" x="476.3562" y="-726.9" font-family="Arial" font-size="14.00" fill="#666666">[TEXT]</text>
<polygon fill="none" stroke="#000000" points="362,-685.5 362,-715.5 593,-715.5 593,-685.5 362,-685.5"/>
<text text-anchor="start" x="369" y="-696.9" font-family="Arial" font-size="14.00" fill="#000000">deleted_at    </text>
<text text-anchor="start" x="468.5708" y="-696.9" font-family="Arial" font-size="14.00" fill="#666666">[TIMESTAMP]</text>
<polygon fill="none" stroke="#000000" points="362,-655.5 362,-685.5 593,-685.5 593,-655.5 362,-655.5"/>
<text text-anchor="start" x="369" y="-666.9" font-family="Arial" font-size="14.00" fill="#000000">deleted_by    </text>
<text text-anchor="start" x="471.6802" y="-666.9" font-family="Arial" font-size="14.00" fill="#666666">[TEXT]</text>
<polygon fill="none" stroke="#000000" points="362,-625.5 362,-655.5 593,-655.5 593,-625.5 362,-625.5"/>
<text text-anchor="start" x="369" y="-636.9" font-family="Arial" font-size="14.00" fill="#000000">activity_log    </text>
<text text-anchor="start" x="472.4362" y="-636.9" font-family="Arial" font-size="14.00" fill="#666666">[TEXT]</text>
</g>
<!-- behavior&#45;&gt;device -->
<g id="edge1" class="edge">
<title>behavior:device_id&#45;&gt;device:device_id</title>
<path fill="none" stroke="#000000" d="M352.9759,-965.6843C307.302,-913.262 334.4214,-450.5 389,-450.5"/>
<polygon fill="#000000" stroke="#000000" points="353.1776,-965.7918 359.8813,-974.4701 357.5888,-968.1459 362,-970.5 362,-970.5 362,-970.5 357.5888,-968.1459 364.1187,-966.5299 353.1776,-965.7918 353.1776,-965.7918"/>
</g>
<!-- ur_ingest_session -->
<g id="node3" class="node">
<title>ur_ingest_session</title>
<polygon fill="#efefef" stroke="transparent" points="165,-1592.5 165,-1627.5 415,-1627.5 415,-1592.5 165,-1592.5"/>
<polygon fill="none" stroke="#000000" points="165,-1592.5 165,-1627.5 415,-1627.5 415,-1592.5 165,-1592.5"/>
<text text-anchor="start" x="181.3152" y="-1605.3" font-family="Arial Bold" font-size="18.00" fill="#000000">ur_ingest_session</text>
<text text-anchor="start" x="326.3538" y="-1605.3" font-family="Arial" font-size="14.00" fill="#000000">    </text>
<text text-anchor="start" x="360.5586" y="-1605.3" font-family="Arial" font-size="14.00" fill="#666666">[table]</text>
<polygon fill="none" stroke="#000000" points="165,-1562.5 165,-1592.5 415,-1592.5 415,-1562.5 165,-1562.5"/>
<text text-anchor="start" x="172" y="-1573.9" font-family="Arial" font-size="14.00" fill="#000000">ur_ingest_session_id    </text>
<text text-anchor="start" x="337.6844" y="-1573.9" font-family="Arial" font-size="14.00" fill="#666666">[ULID]</text>
<polygon fill="none" stroke="#000000" points="165,-1532.5 165,-1562.5 415,-1562.5 415,-1532.5 165,-1532.5"/>
<text text-anchor="start" x="172" y="-1543.9" font-family="Arial" font-size="14.00" fill="#000000">device_id    </text>
<text text-anchor="start" x="265.331" y="-1543.9" font-family="Arial" font-size="14.00" fill="#666666">[ULID]</text>
<polygon fill="none" stroke="#000000" points="165,-1502.5 165,-1532.5 415,-1532.5 415,-1502.5 165,-1502.5"/>
<text text-anchor="start" x="172" y="-1513.9" font-family="Arial" font-size="14.00" fill="#000000">behavior_id    </text>
<text text-anchor="start" x="278.5568" y="-1513.9" font-family="Arial" font-size="14.00" fill="#666666">[ULID]</text>
<polygon fill="none" stroke="#000000" points="165,-1472.5 165,-1502.5 415,-1502.5 415,-1472.5 165,-1472.5"/>
<text text-anchor="start" x="172" y="-1483.9" font-family="Arial" font-size="14.00" fill="#000000">behavior_json    </text>
<text text-anchor="start" x="293.3394" y="-1483.9" font-family="Arial" font-size="14.00" fill="#666666">[TEXT]</text>
<polygon fill="none" stroke="#000000" points="165,-1442.5 165,-1472.5 415,-1472.5 415,-1442.5 165,-1442.5"/>
<text text-anchor="start" x="172" y="-1453.9" font-family="Arial" font-size="14.00" fill="#000000">ingest_started_at    </text>
<text text-anchor="start" x="313.5778" y="-1453.9" font-family="Arial" font-size="14.00" fill="#666666">[TIMESTAMP]</text>
<polygon fill="none" stroke="#000000" points="165,-1412.5 165,-1442.5 415,-1442.5 415,-1412.5 165,-1412.5"/>
<text text-anchor="start" x="171.7665" y="-1423.9" font-family="Arial" font-size="14.00" fill="#000000">ingest_finished_at    </text>
<text text-anchor="start" x="318.7889" y="-1423.9" font-family="Arial" font-size="14.00" fill="#666666">[TIMESTAMP]</text>
<polygon fill="none" stroke="#000000" points="165,-1382.5 165,-1412.5 415,-1412.5 415,-1382.5 165,-1382.5"/>
<text text-anchor="start" x="172" y="-1393.9" font-family="Arial" font-size="14.00" fill="#000000">elaboration    </text>
<text text-anchor="start" x="275.4474" y="-1393.9" font-family="Arial" font-size="14.00" fill="#666666">[TEXT]</text>
<polygon fill="none" stroke="#000000" points="165,-1352.5 165,-1382.5 415,-1382.5 415,-1352.5 165,-1352.5"/>
<text text-anchor="start" x="172" y="-1363.9" font-family="Arial" font-size="14.00" fill="#000000">created_at    </text>
<text text-anchor="start" x="272.3422" y="-1363.9" font-family="Arial" font-size="14.00" fill="#666666">[TIMESTAMP]</text>
<polygon fill="none" stroke="#000000" points="165,-1322.5 165,-1352.5 415,-1352.5 415,-1322.5 165,-1322.5"/>
<text text-anchor="start" x="172" y="-1333.9" font-family="Arial" font-size="14.00" fill="#000000">created_by    </text>
<text text-anchor="start" x="275.4516" y="-1333.9" font-family="Arial" font-size="14.00" fill="#666666">[TEXT]</text>
<polygon fill="none" stroke="#000000" points="165,-1292.5 165,-1322.5 415,-1322.5 415,-1292.5 165,-1292.5"/>
<text text-anchor="start" x="172" y="-1303.9" font-family="Arial" font-size="14.00" fill="#000000">updated_at    </text>
<text text-anchor="start" x="276.2468" y="-1303.9" font-family="Arial" font-size="14.00" fill="#666666">[TIMESTAMP]</text>
<polygon fill="none" stroke="#000000" points="165,-1262.5 165,-1292.5 415,-1292.5 415,-1262.5 165,-1262.5"/>
<text text-anchor="start" x="172" y="-1273.9" font-family="Arial" font-size="14.00" fill="#000000">updated_by    </text>
<text text-anchor="start" x="279.3562" y="-1273.9" font-family="Arial" font-size="14.00" fill="#666666">[TEXT]</text>
<polygon fill="none" stroke="#000000" points="165,-1232.5 165,-1262.5 415,-1262.5 415,-1232.5 165,-1232.5"/>
<text text-anchor="start" x="172" y="-1243.9" font-family="Arial" font-size="14.00" fill="#000000">deleted_at    </text>
<text text-anchor="start" x="271.5708" y="-1243.9" font-family="Arial" font-size="14.00" fill="#666666">[TIMESTAMP]</text>
<polygon fill="none" stroke="#000000" points="165,-1202.5 165,-1232.5 415,-1232.5 415,-1202.5 165,-1202.5"/>
<text text-anchor="start" x="172" y="-1213.9" font-family="Arial" font-size="14.00" fill="#000000">deleted_by    </text>
<text text-anchor="start" x="274.6802" y="-1213.9" font-family="Arial" font-size="14.00" fill="#666666">[TEXT]</text>
<polygon fill="none" stroke="#000000" points="165,-1172.5 165,-1202.5 415,-1202.5 415,-1172.5 165,-1172.5"/>
<text text-anchor="start" x="172" y="-1183.9" font-family="Arial" font-size="14.00" fill="#000000">activity_log    </text>
<text text-anchor="start" x="275.4362" y="-1183.9" font-family="Arial" font-size="14.00" fill="#666666">[TEXT]</text>
</g>
<!-- ur_ingest_session&#45;&gt;device -->
<g id="edge3" class="edge">
<title>ur_ingest_session:device_id&#45;&gt;device:device_id</title>
<path fill="none" stroke="#000000" d="M425.0586,-1547.227C597.6696,-1537.6442 521.0654,-1278.0377 415,-1130 386.0225,-1089.5555 337.9775,-1134.4445 309,-1094 141.1466,-859.7236 100.7983,-450.5 389,-450.5"/>
<polygon fill="#000000" stroke="#000000" points="424.9963,-1547.2286 414.8779,-1543.0017 419.9982,-1547.3643 415,-1547.5 415,-1547.5 415,-1547.5 419.9982,-1547.3643 415.1221,-1551.9983 424.9963,-1547.2286 424.9963,-1547.2286"/>
</g>
<!-- ur_ingest_session&#45;&gt;behavior -->
<g id="edge2" class="edge">
<title>ur_ingest_session:behavior_id&#45;&gt;behavior:behavior_id</title>
<path fill="none" stroke="#000000" d="M425.2652,-1517.2059C583.4692,-1507.8837 493.9533,-1279.0731 415,-1130 401.6723,-1104.8358 375.3277,-1119.1642 362,-1094 342.5505,-1057.277 320.4444,-1000.5 362,-1000.5"/>
<polygon fill="#000000" stroke="#000000" points="424.9959,-1517.2135 414.8711,-1513.0018 419.9979,-1517.3567 415,-1517.5 415,-1517.5 415,-1517.5 419.9979,-1517.3567 415.1289,-1521.9982 424.9959,-1517.2135 424.9959,-1517.2135"/>
</g>
<!-- ur_ingest_session_fs_path -->
<g id="node4" class="node">
<title>ur_ingest_session_fs_path</title>
<polygon fill="#efefef" stroke="transparent" points="327,-2079.5 327,-2114.5 627,-2114.5 627,-2079.5 327,-2079.5"/>
<polygon fill="none" stroke="#000000" points="327,-2079.5 327,-2114.5 627,-2114.5 627,-2079.5 327,-2079.5"/>
<text text-anchor="start" x="333.7975" y="-2092.3" font-family="Arial Bold" font-size="18.00" fill="#000000">ur_ingest_session_fs_path</text>
<text text-anchor="start" x="547.8715" y="-2092.3" font-family="Arial" font-size="14.00" fill="#000000">    </text>
<text text-anchor="start" x="582.0763" y="-2092.3" font-family="Arial" font-size="14.00" fill="#666666">[table]</text>
<polygon fill="none" stroke="#000000" points="327,-2049.5 327,-2079.5 627,-2079.5 627,-2049.5 327,-2049.5"/>
<text text-anchor="start" x="334" y="-2060.9" font-family="Arial" font-size="14.00" fill="#000000">ur_ingest_session_fs_path_id    </text>
<text text-anchor="start" x="553.3786" y="-2060.9" font-family="Arial" font-size="14.00" fill="#666666">[ULID]</text>
<polygon fill="none" stroke="#000000" points="327,-2019.5 327,-2049.5 627,-2049.5 627,-2019.5 327,-2019.5"/>
<text text-anchor="start" x="334" y="-2030.9" font-family="Arial" font-size="14.00" fill="#000000">ingest_session_id    </text>
<text text-anchor="start" x="479.4586" y="-2030.9" font-family="Arial" font-size="14.00" fill="#666666">[ULID]</text>
<polygon fill="none" stroke="#000000" points="327,-1989.5 327,-2019.5 627,-2019.5 627,-1989.5 327,-1989.5"/>
<text text-anchor="start" x="334" y="-2000.9" font-family="Arial" font-size="14.00" fill="#000000">root_path    </text>
<text text-anchor="start" x="427.3422" y="-2000.9" font-family="Arial" font-size="14.00" fill="#666666">[TEXT]</text>
<polygon fill="none" stroke="#000000" points="327,-1959.5 327,-1989.5 627,-1989.5 627,-1959.5 327,-1959.5"/>
<text text-anchor="start" x="334" y="-1970.9" font-family="Arial" font-size="14.00" fill="#000000">elaboration    </text>
<text text-anchor="start" x="437.4474" y="-1970.9" font-family="Arial" font-size="14.00" fill="#666666">[TEXT]</text>
<polygon fill="none" stroke="#000000" points="327,-1929.5 327,-1959.5 627,-1959.5 627,-1929.5 327,-1929.5"/>
<text text-anchor="start" x="334" y="-1940.9" font-family="Arial" font-size="14.00" fill="#000000">created_at    </text>
<text text-anchor="start" x="434.3422" y="-1940.9" font-family="Arial" font-size="14.00" fill="#666666">[TIMESTAMP]</text>
<polygon fill="none" stroke="#000000" points="327,-1899.5 327,-1929.5 627,-1929.5 627,-1899.5 327,-1899.5"/>
<text text-anchor="start" x="334" y="-1910.9" font-family="Arial" font-size="14.00" fill="#000000">created_by    </text>
<text text-anchor="start" x="437.4516" y="-1910.9" font-family="Arial" font-size="14.00" fill="#666666">[TEXT]</text>
<polygon fill="none" stroke="#000000" points="327,-1869.5 327,-1899.5 627,-1899.5 627,-1869.5 327,-1869.5"/>
<text text-anchor="start" x="334" y="-1880.9" font-family="Arial" font-size="14.00" fill="#000000">updated_at    </text>
<text text-anchor="start" x="438.2468" y="-1880.9" font-family="Arial" font-size="14.00" fill="#666666">[TIMESTAMP]</text>
<polygon fill="none" stroke="#000000" points="327,-1839.5 327,-1869.5 627,-1869.5 627,-1839.5 327,-1839.5"/>
<text text-anchor="start" x="334" y="-1850.9" font-family="Arial" font-size="14.00" fill="#000000">updated_by    </text>
<text text-anchor="start" x="441.3562" y="-1850.9" font-family="Arial" font-size="14.00" fill="#666666">[TEXT]</text>
<polygon fill="none" stroke="#000000" points="327,-1809.5 327,-1839.5 627,-1839.5 627,-1809.5 327,-1809.5"/>
<text text-anchor="start" x="334" y="-1820.9" font-family="Arial" font-size="14.00" fill="#000000">deleted_at    </text>
<text text-anchor="start" x="433.5708" y="-1820.9" font-family="Arial" font-size="14.00" fill="#666666">[TIMESTAMP]</text>
<polygon fill="none" stroke="#000000" points="327,-1779.5 327,-1809.5 627,-1809.5 627,-1779.5 327,-1779.5"/>
<text text-anchor="start" x="334" y="-1790.9" font-family="Arial" font-size="14.00" fill="#000000">deleted_by    </text>
<text text-anchor="start" x="436.6802" y="-1790.9" font-family="Arial" font-size="14.00" fill="#666666">[TEXT]</text>
<polygon fill="none" stroke="#000000" points="327,-1749.5 327,-1779.5 627,-1779.5 627,-1749.5 327,-1749.5"/>
<text text-anchor="start" x="334" y="-1760.9" font-family="Arial" font-size="14.00" fill="#000000">activity_log    </text>
<text text-anchor="start" x="437.4362" y="-1760.9" font-family="Arial" font-size="14.00" fill="#666666">[TEXT]</text>
</g>
<!-- ur_ingest_session_fs_path&#45;&gt;ur_ingest_session -->
<g id="edge4" class="edge">
<title>ur_ingest_session_fs_path:ingest_session_id&#45;&gt;ur_ingest_session:ur_ingest_session_id</title>
<path fill="none" stroke="#000000" d="M317.0789,-2032.6449C257.3879,-2008.911 288.4151,-1764.4734 327,-1707 350.5538,-1671.9158 391.4462,-1706.0842 415,-1671 438.1626,-1636.4985 456.5556,-1577.5 415,-1577.5"/>
<polygon fill="#000000" stroke="#000000" points="317.1704,-2032.6619 326.1729,-2038.9233 322.0852,-2033.5809 327,-2034.5 327,-2034.5 327,-2034.5 322.0852,-2033.5809 327.8271,-2030.0767 317.1704,-2032.6619 317.1704,-2032.6619"/>
</g>
<!-- uniform_resource -->
<g id="node5" class="node">
<title>uniform_resource</title>
<polygon fill="#efefef" stroke="transparent" points="360,-2836.5 360,-2871.5 594,-2871.5 594,-2836.5 360,-2836.5"/>
<polygon fill="none" stroke="#000000" points="360,-2836.5 360,-2871.5 594,-2871.5 594,-2836.5 360,-2836.5"/>
<text text-anchor="start" x="370.8271" y="-2849.3" font-family="Arial Bold" font-size="18.00" fill="#000000">uniform_resource</text>
<text text-anchor="start" x="510.8419" y="-2849.3" font-family="Arial" font-size="14.00" fill="#000000">    </text>
<text text-anchor="start" x="545.0467" y="-2849.3" font-family="Arial" font-size="14.00" fill="#666666">[table]</text>
<polygon fill="none" stroke="#000000" points="360,-2806.5 360,-2836.5 594,-2836.5 594,-2806.5 360,-2806.5"/>
<text text-anchor="start" x="367" y="-2817.9" font-family="Arial" font-size="14.00" fill="#000000">uniform_resource_id    </text>
<text text-anchor="start" x="528.777" y="-2817.9" font-family="Arial" font-size="14.00" fill="#666666">[ULID]</text>
<polygon fill="none" stroke="#000000" points="360,-2776.5 360,-2806.5 594,-2806.5 594,-2776.5 360,-2776.5"/>
<text text-anchor="start" x="367" y="-2787.9" font-family="Arial" font-size="14.00" fill="#000000">device_id    </text>
<text text-anchor="start" x="460.331" y="-2787.9" font-family="Arial" font-size="14.00" fill="#666666">[ULID]</text>
<polygon fill="none" stroke="#000000" points="360,-2746.5 360,-2776.5 594,-2776.5 594,-2746.5 360,-2746.5"/>
<text text-anchor="start" x="367" y="-2757.9" font-family="Arial" font-size="14.00" fill="#000000">ingest_session_id    </text>
<text text-anchor="start" x="512.4586" y="-2757.9" font-family="Arial" font-size="14.00" fill="#666666">[ULID]</text>
<polygon fill="none" stroke="#000000" points="360,-2716.5 360,-2746.5 594,-2746.5 594,-2716.5 360,-2716.5"/>
<text text-anchor="start" x="367" y="-2727.9" font-family="Arial" font-size="14.00" fill="#000000">ingest_fs_path_id    </text>
<text text-anchor="start" x="510.9158" y="-2727.9" font-family="Arial" font-size="14.00" fill="#666666">[ULID]</text>
<polygon fill="none" stroke="#000000" points="360,-2686.5 360,-2716.5 594,-2716.5 594,-2686.5 360,-2686.5"/>
<text text-anchor="start" x="367" y="-2697.9" font-family="Arial" font-size="14.00" fill="#000000">uri    </text>
<text text-anchor="start" x="416.7546" y="-2697.9" font-family="Arial" font-size="14.00" fill="#666666">[TEXT]</text>
<polygon fill="none" stroke="#000000" points="360,-2656.5 360,-2686.5 594,-2686.5 594,-2656.5 360,-2656.5"/>
<text text-anchor="start" x="367" y="-2667.9" font-family="Arial" font-size="14.00" fill="#000000">content_digest    </text>
<text text-anchor="start" x="492.244" y="-2667.9" font-family="Arial" font-size="14.00" fill="#666666">[TEXT]</text>
<polygon fill="none" stroke="#000000" points="360,-2626.5 360,-2656.5 594,-2656.5 594,-2626.5 360,-2626.5"/>
<text text-anchor="start" x="367" y="-2637.9" font-family="Arial" font-size="14.00" fill="#000000">content    </text>
<text text-anchor="start" x="447.1164" y="-2637.9" font-family="Arial" font-size="14.00" fill="#666666">[BLOB]</text>
<polygon fill="none" stroke="#000000" points="360,-2596.5 360,-2626.5 594,-2626.5 594,-2596.5 360,-2596.5"/>
<text text-anchor="start" x="367" y="-2607.9" font-family="Arial" font-size="14.00" fill="#000000">nature    </text>
<text text-anchor="start" x="440.8864" y="-2607.9" font-family="Arial" font-size="14.00" fill="#666666">[TEXT]</text>
<polygon fill="none" stroke="#000000" points="360,-2566.5 360,-2596.5 594,-2596.5 594,-2566.5 360,-2566.5"/>
<text text-anchor="start" x="367" y="-2577.9" font-family="Arial" font-size="14.00" fill="#000000">size_bytes    </text>
<text text-anchor="start" x="467.3324" y="-2577.9" font-family="Arial" font-size="14.00" fill="#666666">[INTEGER]</text>
<polygon fill="none" stroke="#000000" points="360,-2536.5 360,-2566.5 594,-2566.5 594,-2536.5 360,-2536.5"/>
<text text-anchor="start" x="367" y="-2547.9" font-family="Arial" font-size="14.00" fill="#000000">last_modified_at    </text>
<text text-anchor="start" x="503.1178" y="-2547.9" font-family="Arial" font-size="14.00" fill="#666666">[INTEGER]</text>
<polygon fill="none" stroke="#000000" points="360,-2506.5 360,-2536.5 594,-2536.5 594,-2506.5 360,-2506.5"/>
<text text-anchor="start" x="366.9264" y="-2517.9" font-family="Arial" font-size="14.00" fill="#000000">content_fm_body_attrs    </text>
<text text-anchor="start" x="543.514" y="-2517.9" font-family="Arial" font-size="14.00" fill="#666666">[TEXT]</text>
<polygon fill="none" stroke="#000000" points="360,-2476.5 360,-2506.5 594,-2506.5 594,-2476.5 360,-2476.5"/>
<text text-anchor="start" x="367" y="-2487.9" font-family="Arial" font-size="14.00" fill="#000000">frontmatter    </text>
<text text-anchor="start" x="468.8794" y="-2487.9" font-family="Arial" font-size="14.00" fill="#666666">[TEXT]</text>
<polygon fill="none" stroke="#000000" points="360,-2446.5 360,-2476.5 594,-2476.5 594,-2446.5 360,-2446.5"/>
<text text-anchor="start" x="367" y="-2457.9" font-family="Arial" font-size="14.00" fill="#000000">elaboration    </text>
<text text-anchor="start" x="470.4474" y="-2457.9" font-family="Arial" font-size="14.00" fill="#666666">[TEXT]</text>
<polygon fill="none" stroke="#000000" points="360,-2416.5 360,-2446.5 594,-2446.5 594,-2416.5 360,-2416.5"/>
<text text-anchor="start" x="367" y="-2427.9" font-family="Arial" font-size="14.00" fill="#000000">created_at    </text>
<text text-anchor="start" x="467.3422" y="-2427.9" font-family="Arial" font-size="14.00" fill="#666666">[TIMESTAMP]</text>
<polygon fill="none" stroke="#000000" points="360,-2386.5 360,-2416.5 594,-2416.5 594,-2386.5 360,-2386.5"/>
<text text-anchor="start" x="367" y="-2397.9" font-family="Arial" font-size="14.00" fill="#000000">created_by    </text>
<text text-anchor="start" x="470.4516" y="-2397.9" font-family="Arial" font-size="14.00" fill="#666666">[TEXT]</text>
<polygon fill="none" stroke="#000000" points="360,-2356.5 360,-2386.5 594,-2386.5 594,-2356.5 360,-2356.5"/>
<text text-anchor="start" x="367" y="-2367.9" font-family="Arial" font-size="14.00" fill="#000000">updated_at    </text>
<text text-anchor="start" x="471.2468" y="-2367.9" font-family="Arial" font-size="14.00" fill="#666666">[TIMESTAMP]</text>
<polygon fill="none" stroke="#000000" points="360,-2326.5 360,-2356.5 594,-2356.5 594,-2326.5 360,-2326.5"/>
<text text-anchor="start" x="367" y="-2337.9" font-family="Arial" font-size="14.00" fill="#000000">updated_by    </text>
<text text-anchor="start" x="474.3562" y="-2337.9" font-family="Arial" font-size="14.00" fill="#666666">[TEXT]</text>
<polygon fill="none" stroke="#000000" points="360,-2296.5 360,-2326.5 594,-2326.5 594,-2296.5 360,-2296.5"/>
<text text-anchor="start" x="367" y="-2307.9" font-family="Arial" font-size="14.00" fill="#000000">deleted_at    </text>
<text text-anchor="start" x="466.5708" y="-2307.9" font-family="Arial" font-size="14.00" fill="#666666">[TIMESTAMP]</text>
<polygon fill="none" stroke="#000000" points="360,-2266.5 360,-2296.5 594,-2296.5 594,-2266.5 360,-2266.5"/>
<text text-anchor="start" x="367" y="-2277.9" font-family="Arial" font-size="14.00" fill="#000000">deleted_by    </text>
<text text-anchor="start" x="469.6802" y="-2277.9" font-family="Arial" font-size="14.00" fill="#666666">[TEXT]</text>
<polygon fill="none" stroke="#000000" points="360,-2236.5 360,-2266.5 594,-2266.5 594,-2236.5 360,-2236.5"/>
<text text-anchor="start" x="367" y="-2247.9" font-family="Arial" font-size="14.00" fill="#000000">activity_log    </text>
<text text-anchor="start" x="470.4362" y="-2247.9" font-family="Arial" font-size="14.00" fill="#666666">[TEXT]</text>
</g>
<!-- uniform_resource&#45;&gt;device -->
<g id="edge7" class="edge">
<title>uniform_resource:device_id&#45;&gt;device:device_id</title>
<path fill="none" stroke="#000000" d="M604.1382,-2790.2901C853.3511,-2730.1813 822.7003,-450.5 566,-450.5"/>
<polygon fill="#000000" stroke="#000000" points="603.9295,-2790.3149 593.4667,-2787.0317 598.9648,-2790.9074 594,-2791.5 594,-2791.5 594,-2791.5 598.9648,-2790.9074 594.5333,-2795.9683 603.9295,-2790.3149 603.9295,-2790.3149"/>
</g>
<!-- uniform_resource&#45;&gt;ur_ingest_session -->
<g id="edge5" class="edge">
<title>uniform_resource:ingest_session_id&#45;&gt;ur_ingest_session:ur_ingest_session_id</title>
<path fill="none" stroke="#000000" d="M349.9295,-2760.9525C130.8599,-2736.5086 360.7107,-1900.7376 232,-1707 213.2939,-1678.8433 182.3472,-1700.0136 165,-1671 143.675,-1635.3334 123.4444,-1577.5 165,-1577.5"/>
<polygon fill="#000000" stroke="#000000" points="350.0147,-2760.9571 359.7557,-2765.9934 355.0074,-2761.2285 360,-2761.5 360,-2761.5 360,-2761.5 355.0074,-2761.2285 360.2443,-2757.0066 350.0147,-2760.9571 350.0147,-2760.9571"/>
</g>
<!-- uniform_resource&#45;&gt;ur_ingest_session_fs_path -->
<g id="edge10" class="edge">
<title>uniform_resource:ingest_fs_path_id&#45;&gt;ur_ingest_session_fs_path:ur_ingest_session_fs_path_id</title>
<path fill="none" stroke="#000000" d="M603.7444,-2727.583C670.9503,-2672.9202 697.8685,-2064.5 627,-2064.5"/>
<polygon fill="#000000" stroke="#000000" points="603.2784,-2727.7702 592.3216,-2727.3247 598.6392,-2729.6351 594,-2731.5 594,-2731.5 594,-2731.5 598.6392,-2729.6351 595.6784,-2735.6753 603.2784,-2727.7702 603.2784,-2727.7702"/>
</g>
<!-- ur_ingest_session_fs_path_entry -->
<g id="node6" class="node">
<title>ur_ingest_session_fs_path_entry</title>
<polygon fill="#efefef" stroke="transparent" points="43,-3623.5 43,-3658.5 393,-3658.5 393,-3623.5 43,-3623.5"/>
<polygon fill="none" stroke="#000000" points="43,-3623.5 43,-3658.5 393,-3658.5 393,-3623.5 43,-3623.5"/>
<text text-anchor="start" x="49.791" y="-3636.3" font-family="Arial Bold" font-size="18.00" fill="#000000">ur_ingest_session_fs_path_entry</text>
<text text-anchor="start" x="313.878" y="-3636.3" font-family="Arial" font-size="14.00" fill="#000000">    </text>
<text text-anchor="start" x="348.0828" y="-3636.3" font-family="Arial" font-size="14.00" fill="#666666">[table]</text>
<polygon fill="none" stroke="#000000" points="43,-3593.5 43,-3623.5 393,-3623.5 393,-3593.5 43,-3593.5"/>
<text text-anchor="start" x="50" y="-3604.9" font-family="Arial" font-size="14.00" fill="#000000">ur_ingest_session_fs_path_entry_id    </text>
<text text-anchor="start" x="308.2776" y="-3604.9" font-family="Arial" font-size="14.00" fill="#666666">[ULID]</text>
<polygon fill="none" stroke="#000000" points="43,-3563.5 43,-3593.5 393,-3593.5 393,-3563.5 43,-3563.5"/>
<text text-anchor="start" x="50" y="-3574.9" font-family="Arial" font-size="14.00" fill="#000000">ingest_session_id    </text>
<text text-anchor="start" x="195.4586" y="-3574.9" font-family="Arial" font-size="14.00" fill="#666666">[ULID]</text>
<polygon fill="none" stroke="#000000" points="43,-3533.5 43,-3563.5 393,-3563.5 393,-3533.5 43,-3533.5"/>
<text text-anchor="start" x="50" y="-3544.9" font-family="Arial" font-size="14.00" fill="#000000">ingest_fs_path_id    </text>
<text text-anchor="start" x="193.9158" y="-3544.9" font-family="Arial" font-size="14.00" fill="#666666">[ULID]</text>
<polygon fill="none" stroke="#000000" points="43,-3503.5 43,-3533.5 393,-3533.5 393,-3503.5 43,-3503.5"/>
<text text-anchor="start" x="50" y="-3514.9" font-family="Arial" font-size="14.00" fill="#000000">uniform_resource_id    </text>
<text text-anchor="start" x="211.777" y="-3514.9" font-family="Arial" font-size="14.00" fill="#666666">[ULID]</text>
<polygon fill="none" stroke="#000000" points="43,-3473.5 43,-3503.5 393,-3503.5 393,-3473.5 43,-3473.5"/>
<text text-anchor="start" x="50" y="-3484.9" font-family="Arial" font-size="14.00" fill="#000000">file_path_abs    </text>
<text text-anchor="start" x="167.46" y="-3484.9" font-family="Arial" font-size="14.00" fill="#666666">[TEXT]</text>
<polygon fill="none" stroke="#000000" points="43,-3443.5 43,-3473.5 393,-3473.5 393,-3443.5 43,-3443.5"/>
<text text-anchor="start" x="50" y="-3454.9" font-family="Arial" font-size="14.00" fill="#000000">file_path_rel_parent    </text>
<text text-anchor="start" x="207.9088" y="-3454.9" font-family="Arial" font-size="14.00" fill="#666666">[TEXT]</text>
<polygon fill="none" stroke="#000000" points="43,-3413.5 43,-3443.5 393,-3443.5 393,-3413.5 43,-3413.5"/>
<text text-anchor="start" x="50" y="-3424.9" font-family="Arial" font-size="14.00" fill="#000000">file_path_rel    </text>
<text text-anchor="start" x="160.4446" y="-3424.9" font-family="Arial" font-size="14.00" fill="#666666">[TEXT]</text>
<polygon fill="none" stroke="#000000" points="43,-3383.5 43,-3413.5 393,-3413.5 393,-3383.5 43,-3383.5"/>
<text text-anchor="start" x="50" y="-3394.9" font-family="Arial" font-size="14.00" fill="#000000">file_basename    </text>
<text text-anchor="start" x="175.23" y="-3394.9" font-family="Arial" font-size="14.00" fill="#666666">[TEXT]</text>
<polygon fill="none" stroke="#000000" points="43,-3353.5 43,-3383.5 393,-3383.5 393,-3353.5 43,-3353.5"/>
<text text-anchor="start" x="50" y="-3364.9" font-family="Arial" font-size="14.00" fill="#000000">file_extn    </text>
<text text-anchor="start" x="136.3296" y="-3364.9" font-family="Arial" font-size="14.00" fill="#666666">[TEXT]</text>
<polygon fill="none" stroke="#000000" points="43,-3323.5 43,-3353.5 393,-3353.5 393,-3323.5 43,-3323.5"/>
<text text-anchor="start" x="50" y="-3334.9" font-family="Arial" font-size="14.00" fill="#000000">captured_executable    </text>
<text text-anchor="start" x="214.1444" y="-3334.9" font-family="Arial" font-size="14.00" fill="#666666">[TEXT]</text>
<polygon fill="none" stroke="#000000" points="43,-3293.5 43,-3323.5 393,-3323.5 393,-3293.5 43,-3293.5"/>
<text text-anchor="start" x="50" y="-3304.9" font-family="Arial" font-size="14.00" fill="#000000">ur_status    </text>
<text text-anchor="start" x="141.777" y="-3304.9" font-family="Arial" font-size="14.00" fill="#666666">[TEXT]</text>
<polygon fill="none" stroke="#000000" points="43,-3263.5 43,-3293.5 393,-3293.5 393,-3263.5 43,-3263.5"/>
<text text-anchor="start" x="50" y="-3274.9" font-family="Arial" font-size="14.00" fill="#000000">ur_diagnostics    </text>
<text text-anchor="start" x="174.4474" y="-3274.9" font-family="Arial" font-size="14.00" fill="#666666">[TEXT]</text>
<polygon fill="none" stroke="#000000" points="43,-3233.5 43,-3263.5 393,-3263.5 393,-3233.5 43,-3233.5"/>
<text text-anchor="start" x="50" y="-3244.9" font-family="Arial" font-size="14.00" fill="#000000">ur_transformations    </text>
<text text-anchor="start" x="200.8864" y="-3244.9" font-family="Arial" font-size="14.00" fill="#666666">[TEXT]</text>
<polygon fill="none" stroke="#000000" points="43,-3203.5 43,-3233.5 393,-3233.5 393,-3203.5 43,-3203.5"/>
<text text-anchor="start" x="50" y="-3214.9" font-family="Arial" font-size="14.00" fill="#000000">elaboration    </text>
<text text-anchor="start" x="153.4474" y="-3214.9" font-family="Arial" font-size="14.00" fill="#666666">[TEXT]</text>
<polygon fill="none" stroke="#000000" points="43,-3173.5 43,-3203.5 393,-3203.5 393,-3173.5 43,-3173.5"/>
<text text-anchor="start" x="50" y="-3184.9" font-family="Arial" font-size="14.00" fill="#000000">created_at    </text>
<text text-anchor="start" x="150.3422" y="-3184.9" font-family="Arial" font-size="14.00" fill="#666666">[TIMESTAMP]</text>
<polygon fill="none" stroke="#000000" points="43,-3143.5 43,-3173.5 393,-3173.5 393,-3143.5 43,-3143.5"/>
<text text-anchor="start" x="50" y="-3154.9" font-family="Arial" font-size="14.00" fill="#000000">created_by    </text>
<text text-anchor="start" x="153.4516" y="-3154.9" font-family="Arial" font-size="14.00" fill="#666666">[TEXT]</text>
<polygon fill="none" stroke="#000000" points="43,-3113.5 43,-3143.5 393,-3143.5 393,-3113.5 43,-3113.5"/>
<text text-anchor="start" x="50" y="-3124.9" font-family="Arial" font-size="14.00" fill="#000000">updated_at    </text>
<text text-anchor="start" x="154.2468" y="-3124.9" font-family="Arial" font-size="14.00" fill="#666666">[TIMESTAMP]</text>
<polygon fill="none" stroke="#000000" points="43,-3083.5 43,-3113.5 393,-3113.5 393,-3083.5 43,-3083.5"/>
<text text-anchor="start" x="50" y="-3094.9" font-family="Arial" font-size="14.00" fill="#000000">updated_by    </text>
<text text-anchor="start" x="157.3562" y="-3094.9" font-family="Arial" font-size="14.00" fill="#666666">[TEXT]</text>
<polygon fill="none" stroke="#000000" points="43,-3053.5 43,-3083.5 393,-3083.5 393,-3053.5 43,-3053.5"/>
<text text-anchor="start" x="50" y="-3064.9" font-family="Arial" font-size="14.00" fill="#000000">deleted_at    </text>
<text text-anchor="start" x="149.5708" y="-3064.9" font-family="Arial" font-size="14.00" fill="#666666">[TIMESTAMP]</text>
<polygon fill="none" stroke="#000000" points="43,-3023.5 43,-3053.5 393,-3053.5 393,-3023.5 43,-3023.5"/>
<text text-anchor="start" x="50" y="-3034.9" font-family="Arial" font-size="14.00" fill="#000000">deleted_by    </text>
<text text-anchor="start" x="152.6802" y="-3034.9" font-family="Arial" font-size="14.00" fill="#666666">[TEXT]</text>
<polygon fill="none" stroke="#000000" points="43,-2993.5 43,-3023.5 393,-3023.5 393,-2993.5 43,-2993.5"/>
<text text-anchor="start" x="50" y="-3004.9" font-family="Arial" font-size="14.00" fill="#000000">activity_log    </text>
<text text-anchor="start" x="153.4362" y="-3004.9" font-family="Arial" font-size="14.00" fill="#666666">[TEXT]</text>
</g>
<!-- ur_ingest_session_fs_path_entry&#45;&gt;ur_ingest_session -->
<g id="edge6" class="edge">
<title>ur_ingest_session_fs_path_entry:ingest_session_id&#45;&gt;ur_ingest_session:ur_ingest_session_id</title>
<path fill="none" stroke="#000000" d="M402.5021,-3574.5533C459.6563,-3524.1159 429.6254,-3006.2868 393,-2951 370.3423,-2916.7978 332.5767,-2947.8504 308,-2915 -25.3876,-2469.379 196.8299,-2226.6188 165,-1671 162.6233,-1629.5125 123.4444,-1577.5 165,-1577.5"/>
<polygon fill="#000000" stroke="#000000" points="402.2351,-3574.6642 391.2739,-3574.3442 397.6175,-3576.5821 393,-3578.5 393,-3578.5 393,-3578.5 397.6175,-3576.5821 394.7261,-3582.6558 402.2351,-3574.6642 402.2351,-3574.6642"/>
</g>
<!-- ur_ingest_session_fs_path_entry&#45;&gt;uniform_resource -->
<g id="edge9" class="edge">
<title>ur_ingest_session_fs_path_entry:uniform_resource_id&#45;&gt;uniform_resource:uniform_resource_id</title>
<path fill="none" stroke="#000000" d="M402.1319,-3514.3964C451.8643,-3466.0958 414.6536,-3006.6672 393,-2951 385.1314,-2930.7714 367.8686,-2935.2286 360,-2915 344.9352,-2876.2713 318.4444,-2821.5 360,-2821.5"/>
<polygon fill="#000000" stroke="#000000" points="402.1214,-3514.401 391.1555,-3514.3954 397.5607,-3516.4505 393,-3518.5 393,-3518.5 393,-3518.5 397.5607,-3516.4505 394.8445,-3522.6046 402.1214,-3514.401 402.1214,-3514.401"/>
</g>
<!-- uniform_resource_transform -->
<g id="node7" class="node">
<title>uniform_resource_transform</title>
<polygon fill="#efefef" stroke="transparent" points="497,-3533.5 497,-3568.5 809,-3568.5 809,-3533.5 497,-3533.5"/>
<polygon fill="none" stroke="#000000" points="497,-3533.5 497,-3568.5 809,-3568.5 809,-3533.5 497,-3533.5"/>
<text text-anchor="start" x="503.8242" y="-3546.3" font-family="Arial Bold" font-size="18.00" fill="#000000">uniform_resource_transform</text>
<text text-anchor="start" x="729.8448" y="-3546.3" font-family="Arial" font-size="14.00" fill="#000000">    </text>
<text text-anchor="start" x="764.0496" y="-3546.3" font-family="Arial" font-size="14.00" fill="#666666">[table]</text>
<polygon fill="none" stroke="#000000" points="497,-3503.5 497,-3533.5 809,-3533.5 809,-3503.5 497,-3503.5"/>
<text text-anchor="start" x="504" y="-3514.9" font-family="Arial" font-size="14.00" fill="#000000">uniform_resource_transform_id    </text>
<text text-anchor="start" x="732.6704" y="-3514.9" font-family="Arial" font-size="14.00" fill="#666666">[ULID]</text>
<polygon fill="none" stroke="#000000" points="497,-3473.5 497,-3503.5 809,-3503.5 809,-3473.5 497,-3473.5"/>
<text text-anchor="start" x="504" y="-3484.9" font-family="Arial" font-size="14.00" fill="#000000">uniform_resource_id    </text>
<text text-anchor="start" x="665.777" y="-3484.9" font-family="Arial" font-size="14.00" fill="#666666">[ULID]</text>
<polygon fill="none" stroke="#000000" points="497,-3443.5 497,-3473.5 809,-3473.5 809,-3443.5 497,-3443.5"/>
<text text-anchor="start" x="504" y="-3454.9" font-family="Arial" font-size="14.00" fill="#000000">uri    </text>
<text text-anchor="start" x="553.7546" y="-3454.9" font-family="Arial" font-size="14.00" fill="#666666">[TEXT]</text>
<polygon fill="none" stroke="#000000" points="497,-3413.5 497,-3443.5 809,-3443.5 809,-3413.5 497,-3413.5"/>
<text text-anchor="start" x="504" y="-3424.9" font-family="Arial" font-size="14.00" fill="#000000">content_digest    </text>
<text text-anchor="start" x="629.244" y="-3424.9" font-family="Arial" font-size="14.00" fill="#666666">[TEXT]</text>
<polygon fill="none" stroke="#000000" points="497,-3383.5 497,-3413.5 809,-3413.5 809,-3383.5 497,-3383.5"/>
<text text-anchor="start" x="504" y="-3394.9" font-family="Arial" font-size="14.00" fill="#000000">content    </text>
<text text-anchor="start" x="584.1164" y="-3394.9" font-family="Arial" font-size="14.00" fill="#666666">[BLOB]</text>
<polygon fill="none" stroke="#000000" points="497,-3353.5 497,-3383.5 809,-3383.5 809,-3353.5 497,-3353.5"/>
<text text-anchor="start" x="504" y="-3364.9" font-family="Arial" font-size="14.00" fill="#000000">nature    </text>
<text text-anchor="start" x="577.8864" y="-3364.9" font-family="Arial" font-size="14.00" fill="#666666">[TEXT]</text>
<polygon fill="none" stroke="#000000" points="497,-3323.5 497,-3353.5 809,-3353.5 809,-3323.5 497,-3323.5"/>
<text text-anchor="start" x="504" y="-3334.9" font-family="Arial" font-size="14.00" fill="#000000">size_bytes    </text>
<text text-anchor="start" x="604.3324" y="-3334.9" font-family="Arial" font-size="14.00" fill="#666666">[INTEGER]</text>
<polygon fill="none" stroke="#000000" points="497,-3293.5 497,-3323.5 809,-3323.5 809,-3293.5 497,-3293.5"/>
<text text-anchor="start" x="504" y="-3304.9" font-family="Arial" font-size="14.00" fill="#000000">elaboration    </text>
<text text-anchor="start" x="607.4474" y="-3304.9" font-family="Arial" font-size="14.00" fill="#666666">[TEXT]</text>
<polygon fill="none" stroke="#000000" points="497,-3263.5 497,-3293.5 809,-3293.5 809,-3263.5 497,-3263.5"/>
<text text-anchor="start" x="504" y="-3274.9" font-family="Arial" font-size="14.00" fill="#000000">created_at    </text>
<text text-anchor="start" x="604.3422" y="-3274.9" font-family="Arial" font-size="14.00" fill="#666666">[TIMESTAMP]</text>
<polygon fill="none" stroke="#000000" points="497,-3233.5 497,-3263.5 809,-3263.5 809,-3233.5 497,-3233.5"/>
<text text-anchor="start" x="504" y="-3244.9" font-family="Arial" font-size="14.00" fill="#000000">created_by    </text>
<text text-anchor="start" x="607.4516" y="-3244.9" font-family="Arial" font-size="14.00" fill="#666666">[TEXT]</text>
<polygon fill="none" stroke="#000000" points="497,-3203.5 497,-3233.5 809,-3233.5 809,-3203.5 497,-3203.5"/>
<text text-anchor="start" x="504" y="-3214.9" font-family="Arial" font-size="14.00" fill="#000000">updated_at    </text>
<text text-anchor="start" x="608.2468" y="-3214.9" font-family="Arial" font-size="14.00" fill="#666666">[TIMESTAMP]</text>
<polygon fill="none" stroke="#000000" points="497,-3173.5 497,-3203.5 809,-3203.5 809,-3173.5 497,-3173.5"/>
<text text-anchor="start" x="504" y="-3184.9" font-family="Arial" font-size="14.00" fill="#000000">updated_by    </text>
<text text-anchor="start" x="611.3562" y="-3184.9" font-family="Arial" font-size="14.00" fill="#666666">[TEXT]</text>
<polygon fill="none" stroke="#000000" points="497,-3143.5 497,-3173.5 809,-3173.5 809,-3143.5 497,-3143.5"/>
<text text-anchor="start" x="504" y="-3154.9" font-family="Arial" font-size="14.00" fill="#000000">deleted_at    </text>
<text text-anchor="start" x="603.5708" y="-3154.9" font-family="Arial" font-size="14.00" fill="#666666">[TIMESTAMP]</text>
<polygon fill="none" stroke="#000000" points="497,-3113.5 497,-3143.5 809,-3143.5 809,-3113.5 497,-3113.5"/>
<text text-anchor="start" x="504" y="-3124.9" font-family="Arial" font-size="14.00" fill="#000000">deleted_by    </text>
<text text-anchor="start" x="606.6802" y="-3124.9" font-family="Arial" font-size="14.00" fill="#666666">[TEXT]</text>
<polygon fill="none" stroke="#000000" points="497,-3083.5 497,-3113.5 809,-3113.5 809,-3083.5 497,-3083.5"/>
<text text-anchor="start" x="504" y="-3094.9" font-family="Arial" font-size="14.00" fill="#000000">activity_log    </text>
<text text-anchor="start" x="607.4362" y="-3094.9" font-family="Arial" font-size="14.00" fill="#666666">[TEXT]</text>
</g>
<!-- uniform_resource_transform&#45;&gt;uniform_resource -->
<g id="edge8" class="edge">
<title>uniform_resource_transform:uniform_resource_id&#45;&gt;uniform_resource:uniform_resource_id</title>
<path fill="none" stroke="#000000" d="M488.1684,-3483.4233C451.6759,-3436.8762 482.0439,-3084.945 497,-3041 519.7697,-2974.0963 571.2303,-2981.9037 594,-2915 607.3887,-2875.6604 635.5556,-2821.5 594,-2821.5"/>
<polygon fill="#000000" stroke="#000000" points="488.3303,-3483.5163 494.7573,-3492.4014 492.6652,-3486.0082 497,-3488.5 497,-3488.5 497,-3488.5 492.6652,-3486.0082 499.2427,-3484.5986 488.3303,-3483.5163 488.3303,-3483.5163"/>
</g>
</g>
</svg>
