<?xml version="1.0" encoding="UTF-8" standalone="no"?>
<!DOCTYPE svg PUBLIC "-//W3C//DTD SVG 1.1//EN"
 "http://www.w3.org/Graphics/SVG/1.1/DTD/svg11.dtd">
<!-- Generated by graphviz version 2.40.1 (20161225.0304)
 -->
<!-- Title: device Pages: 1 -->
<svg width="848pt" height="3680pt"
 viewBox="0.00 0.00 848.00 3680.00" xmlns="http://www.w3.org/2000/svg" xmlns:xlink="http://www.w3.org/1999/xlink">
<g id="graph0" class="graph" transform="scale(1 1) rotate(0) translate(4 3676)">
<title>device</title>
<polygon fill="#ffffff" stroke="transparent" points="-4,4 -4,-3676 844,-3676 844,4 -4,4"/>
<!-- device -->
<g id="node1" class="node">
<title>device</title>
<polygon fill="#efefef" stroke="transparent" points="365,-465.5 365,-500.5 542,-500.5 542,-465.5 365,-465.5"/>
<polygon fill="none" stroke="#000000" points="365,-465.5 365,-500.5 542,-500.5 542,-465.5 365,-465.5"/>
<text text-anchor="start" x="391.3281" y="-478.3" font-family="Arial Bold" font-size="18.00" fill="#000000">device</text>
<text text-anchor="start" x="443.3409" y="-478.3" font-family="Arial" font-size="14.00" fill="#000000">    </text>
<text text-anchor="start" x="477.5457" y="-478.3" font-family="Arial" font-size="14.00" fill="#666666">[table]</text>
<polygon fill="none" stroke="#000000" points="365,-435.5 365,-465.5 542,-465.5 542,-435.5 365,-435.5"/>
<text text-anchor="start" x="372" y="-446.9" font-family="Arial" font-size="14.00" fill="#000000">device_id </text>
<text text-anchor="start" x="435.0168" y="-446.9" font-family="Arial" font-size="14.00" fill="#666666">[ULID]</text>
<polygon fill="none" stroke="#000000" points="365,-405.5 365,-435.5 542,-435.5 542,-405.5 365,-405.5"/>
<text text-anchor="start" x="372" y="-416.9" font-family="Arial" font-size="14.00" fill="#000000">name </text>
<text text-anchor="start" x="410.899" y="-416.9" font-family="Arial" font-size="14.00" fill="#666666">[TEXT]</text>
<polygon fill="none" stroke="#000000" points="365,-375.5 365,-405.5 542,-405.5 542,-375.5 365,-375.5"/>
<text text-anchor="start" x="372" y="-386.9" font-family="Arial" font-size="14.00" fill="#000000">state </text>
<text text-anchor="start" x="406.237" y="-386.9" font-family="Arial" font-size="14.00" fill="#666666">[TEXT]</text>
<polygon fill="none" stroke="#000000" points="365,-345.5 365,-375.5 542,-375.5 542,-345.5 365,-345.5"/>
<text text-anchor="start" x="372" y="-356.9" font-family="Arial" font-size="14.00" fill="#000000">boundary </text>
<text text-anchor="start" x="434.2468" y="-356.9" font-family="Arial" font-size="14.00" fill="#666666">[TEXT]</text>
<polygon fill="none" stroke="#000000" points="365,-315.5 365,-345.5 542,-345.5 542,-315.5 365,-315.5"/>
<text text-anchor="start" x="372" y="-326.9" font-family="Arial" font-size="14.00" fill="#000000">segmentation </text>
<text text-anchor="start" x="459.9172" y="-326.9" font-family="Arial" font-size="14.00" fill="#666666">[TEXT]</text>
<polygon fill="none" stroke="#000000" points="365,-285.5 365,-315.5 542,-315.5 542,-285.5 365,-285.5"/>
<text text-anchor="start" x="372" y="-296.9" font-family="Arial" font-size="14.00" fill="#000000">state_sysinfo </text>
<text text-anchor="start" x="457.582" y="-296.9" font-family="Arial" font-size="14.00" fill="#666666">[TEXT]</text>
<polygon fill="none" stroke="#000000" points="365,-255.5 365,-285.5 542,-285.5 542,-255.5 365,-255.5"/>
<text text-anchor="start" x="372" y="-266.9" font-family="Arial" font-size="14.00" fill="#000000">elaboration </text>
<text text-anchor="start" x="445.1332" y="-266.9" font-family="Arial" font-size="14.00" fill="#666666">[TEXT]</text>
<polygon fill="none" stroke="#000000" points="365,-225.5 365,-255.5 542,-255.5 542,-225.5 365,-225.5"/>
<text text-anchor="start" x="372" y="-236.9" font-family="Arial" font-size="14.00" fill="#000000">created_at </text>
<text text-anchor="start" x="442.028" y="-236.9" font-family="Arial" font-size="14.00" fill="#666666">[TIMESTAMP]</text>
<polygon fill="none" stroke="#000000" points="365,-195.5 365,-225.5 542,-225.5 542,-195.5 365,-195.5"/>
<text text-anchor="start" x="372" y="-206.9" font-family="Arial" font-size="14.00" fill="#000000">created_by </text>
<text text-anchor="start" x="445.1374" y="-206.9" font-family="Arial" font-size="14.00" fill="#666666">[TEXT]</text>
<polygon fill="none" stroke="#000000" points="365,-165.5 365,-195.5 542,-195.5 542,-165.5 365,-165.5"/>
<text text-anchor="start" x="371.8114" y="-176.9" font-family="Arial" font-size="14.00" fill="#000000">updated_at </text>
<text text-anchor="start" x="445.744" y="-176.9" font-family="Arial" font-size="14.00" fill="#666666">[TIMESTAMP]</text>
<polygon fill="none" stroke="#000000" points="365,-135.5 365,-165.5 542,-165.5 542,-135.5 365,-135.5"/>
<text text-anchor="start" x="372" y="-146.9" font-family="Arial" font-size="14.00" fill="#000000">updated_by </text>
<text text-anchor="start" x="449.042" y="-146.9" font-family="Arial" font-size="14.00" fill="#666666">[TEXT]</text>
<polygon fill="none" stroke="#000000" points="365,-105.5 365,-135.5 542,-135.5 542,-105.5 365,-105.5"/>
<text text-anchor="start" x="372" y="-116.9" font-family="Arial" font-size="14.00" fill="#000000">deleted_at </text>
<text text-anchor="start" x="441.2566" y="-116.9" font-family="Arial" font-size="14.00" fill="#666666">[TIMESTAMP]</text>
<polygon fill="none" stroke="#000000" points="365,-75.5 365,-105.5 542,-105.5 542,-75.5 365,-75.5"/>
<text text-anchor="start" x="372" y="-86.9" font-family="Arial" font-size="14.00" fill="#000000">deleted_by </text>
<text text-anchor="start" x="444.366" y="-86.9" font-family="Arial" font-size="14.00" fill="#666666">[TEXT]</text>
<polygon fill="none" stroke="#000000" points="365,-45.5 365,-75.5 542,-75.5 542,-45.5 365,-45.5"/>
<text text-anchor="start" x="372" y="-56.9" font-family="Arial" font-size="14.00" fill="#000000">activity_log </text>
<text text-anchor="start" x="445.122" y="-56.9" font-family="Arial" font-size="14.00" fill="#666666">[TEXT]</text>
<polygon fill="none" stroke="#000000" stroke-width="3" points="363,-44.5 363,-502.5 543,-502.5 543,-44.5 363,-44.5"/>
</g>
<!-- behavior -->
<g id="node2" class="node">
<title>behavior</title>
<polygon fill="#efefef" stroke="transparent" points="338,-1015.5 338,-1050.5 569,-1050.5 569,-1015.5 338,-1015.5"/>
<polygon fill="none" stroke="#000000" points="338,-1015.5 338,-1050.5 569,-1050.5 569,-1015.5 338,-1015.5"/>
<text text-anchor="start" x="382.8258" y="-1028.3" font-family="Arial Bold" font-size="18.00" fill="#000000">behavior</text>
<text text-anchor="start" x="451.8432" y="-1028.3" font-family="Arial" font-size="14.00" fill="#000000">    </text>
<text text-anchor="start" x="486.048" y="-1028.3" font-family="Arial" font-size="14.00" fill="#666666">[table]</text>
<polygon fill="none" stroke="#000000" points="338,-985.5 338,-1015.5 569,-1015.5 569,-985.5 338,-985.5"/>
<text text-anchor="start" x="345" y="-996.9" font-family="Arial" font-size="14.00" fill="#000000">behavior_id    </text>
<text text-anchor="start" x="451.5568" y="-996.9" font-family="Arial" font-size="14.00" fill="#666666">[ULID]</text>
<polygon fill="none" stroke="#000000" points="338,-955.5 338,-985.5 569,-985.5 569,-955.5 338,-955.5"/>
<text text-anchor="start" x="345" y="-966.9" font-family="Arial" font-size="14.00" fill="#000000">device_id    </text>
<text text-anchor="start" x="438.331" y="-966.9" font-family="Arial" font-size="14.00" fill="#666666">[ULID]</text>
<polygon fill="none" stroke="#000000" points="338,-925.5 338,-955.5 569,-955.5 569,-925.5 338,-925.5"/>
<text text-anchor="start" x="345" y="-936.9" font-family="Arial" font-size="14.00" fill="#000000">behavior_name    </text>
<text text-anchor="start" x="475.676" y="-936.9" font-family="Arial" font-size="14.00" fill="#666666">[TEXT]</text>
<polygon fill="none" stroke="#000000" points="338,-895.5 338,-925.5 569,-925.5 569,-895.5 338,-895.5"/>
<text text-anchor="start" x="345" y="-906.9" font-family="Arial" font-size="14.00" fill="#000000">behavior_conf_json    </text>
<text text-anchor="start" x="500.5778" y="-906.9" font-family="Arial" font-size="14.00" fill="#666666">[TEXT]</text>
<polygon fill="none" stroke="#000000" points="338,-865.5 338,-895.5 569,-895.5 569,-865.5 338,-865.5"/>
<text text-anchor="start" x="344.5996" y="-876.9" font-family="Arial" font-size="14.00" fill="#000000">assurance_schema_id    </text>
<text text-anchor="start" x="518.8408" y="-876.9" font-family="Arial" font-size="14.00" fill="#666666">[TEXT]</text>
<polygon fill="none" stroke="#000000" points="338,-835.5 338,-865.5 569,-865.5 569,-835.5 338,-835.5"/>
<text text-anchor="start" x="345" y="-846.9" font-family="Arial" font-size="14.00" fill="#000000">governance    </text>
<text text-anchor="start" x="452.3436" y="-846.9" font-family="Arial" font-size="14.00" fill="#666666">[TEXT]</text>
<polygon fill="none" stroke="#000000" points="338,-805.5 338,-835.5 569,-835.5 569,-805.5 338,-805.5"/>
<text text-anchor="start" x="345" y="-816.9" font-family="Arial" font-size="14.00" fill="#000000">created_at    </text>
<text text-anchor="start" x="445.3422" y="-816.9" font-family="Arial" font-size="14.00" fill="#666666">[TIMESTAMP]</text>
<polygon fill="none" stroke="#000000" points="338,-775.5 338,-805.5 569,-805.5 569,-775.5 338,-775.5"/>
<text text-anchor="start" x="345" y="-786.9" font-family="Arial" font-size="14.00" fill="#000000">created_by    </text>
<text text-anchor="start" x="448.4516" y="-786.9" font-family="Arial" font-size="14.00" fill="#666666">[TEXT]</text>
<polygon fill="none" stroke="#000000" points="338,-745.5 338,-775.5 569,-775.5 569,-745.5 338,-745.5"/>
<text text-anchor="start" x="345" y="-756.9" font-family="Arial" font-size="14.00" fill="#000000">updated_at    </text>
<text text-anchor="start" x="449.2468" y="-756.9" font-family="Arial" font-size="14.00" fill="#666666">[TIMESTAMP]</text>
<polygon fill="none" stroke="#000000" points="338,-715.5 338,-745.5 569,-745.5 569,-715.5 338,-715.5"/>
<text text-anchor="start" x="345" y="-726.9" font-family="Arial" font-size="14.00" fill="#000000">updated_by    </text>
<text text-anchor="start" x="452.3562" y="-726.9" font-family="Arial" font-size="14.00" fill="#666666">[TEXT]</text>
<polygon fill="none" stroke="#000000" points="338,-685.5 338,-715.5 569,-715.5 569,-685.5 338,-685.5"/>
<text text-anchor="start" x="345" y="-696.9" font-family="Arial" font-size="14.00" fill="#000000">deleted_at    </text>
<text text-anchor="start" x="444.5708" y="-696.9" font-family="Arial" font-size="14.00" fill="#666666">[TIMESTAMP]</text>
<polygon fill="none" stroke="#000000" points="338,-655.5 338,-685.5 569,-685.5 569,-655.5 338,-655.5"/>
<text text-anchor="start" x="345" y="-666.9" font-family="Arial" font-size="14.00" fill="#000000">deleted_by    </text>
<text text-anchor="start" x="447.6802" y="-666.9" font-family="Arial" font-size="14.00" fill="#666666">[TEXT]</text>
<polygon fill="none" stroke="#000000" points="338,-625.5 338,-655.5 569,-655.5 569,-625.5 338,-625.5"/>
<text text-anchor="start" x="345" y="-636.9" font-family="Arial" font-size="14.00" fill="#000000">activity_log    </text>
<text text-anchor="start" x="448.4362" y="-636.9" font-family="Arial" font-size="14.00" fill="#666666">[TEXT]</text>
</g>
<!-- behavior&#45;&gt;device -->
<g id="edge1" class="edge">
<title>behavior:device_id&#45;&gt;device:device_id</title>
<path fill="none" stroke="#000000" d="M328.9759,-965.6843C283.302,-913.262 310.4214,-450.5 365,-450.5"/>
<polygon fill="#000000" stroke="#000000" points="329.1776,-965.7918 335.8813,-974.4701 333.5888,-968.1459 338,-970.5 338,-970.5 338,-970.5 333.5888,-968.1459 340.1187,-966.5299 329.1776,-965.7918 329.1776,-965.7918"/>
</g>
<!-- ur_walk_session -->
<g id="node3" class="node">
<title>ur_walk_session</title>
<polygon fill="#efefef" stroke="transparent" points="145,-1592.5 145,-1627.5 386,-1627.5 386,-1592.5 145,-1592.5"/>
<polygon fill="none" stroke="#000000" points="145,-1592.5 145,-1627.5 386,-1627.5 386,-1592.5 145,-1592.5"/>
<text text-anchor="start" x="162.8254" y="-1605.3" font-family="Arial Bold" font-size="18.00" fill="#000000">ur_walk_session</text>
<text text-anchor="start" x="295.8436" y="-1605.3" font-family="Arial" font-size="14.00" fill="#000000">    </text>
<text text-anchor="start" x="330.0484" y="-1605.3" font-family="Arial" font-size="14.00" fill="#666666">[table]</text>
<polygon fill="none" stroke="#000000" points="145,-1562.5 145,-1592.5 386,-1592.5 386,-1562.5 145,-1562.5"/>
<text text-anchor="start" x="152" y="-1573.9" font-family="Arial" font-size="14.00" fill="#000000">ur_walk_session_id    </text>
<text text-anchor="start" x="308.3352" y="-1573.9" font-family="Arial" font-size="14.00" fill="#666666">[ULID]</text>
<polygon fill="none" stroke="#000000" points="145,-1532.5 145,-1562.5 386,-1562.5 386,-1532.5 145,-1532.5"/>
<text text-anchor="start" x="152" y="-1543.9" font-family="Arial" font-size="14.00" fill="#000000">device_id    </text>
<text text-anchor="start" x="245.331" y="-1543.9" font-family="Arial" font-size="14.00" fill="#666666">[ULID]</text>
<polygon fill="none" stroke="#000000" points="145,-1502.5 145,-1532.5 386,-1532.5 386,-1502.5 145,-1502.5"/>
<text text-anchor="start" x="152" y="-1513.9" font-family="Arial" font-size="14.00" fill="#000000">behavior_id    </text>
<text text-anchor="start" x="258.5568" y="-1513.9" font-family="Arial" font-size="14.00" fill="#666666">[ULID]</text>
<polygon fill="none" stroke="#000000" points="145,-1472.5 145,-1502.5 386,-1502.5 386,-1472.5 145,-1472.5"/>
<text text-anchor="start" x="152" y="-1483.9" font-family="Arial" font-size="14.00" fill="#000000">behavior_json    </text>
<text text-anchor="start" x="273.3394" y="-1483.9" font-family="Arial" font-size="14.00" fill="#666666">[TEXT]</text>
<polygon fill="none" stroke="#000000" points="145,-1442.5 145,-1472.5 386,-1472.5 386,-1442.5 145,-1442.5"/>
<text text-anchor="start" x="152" y="-1453.9" font-family="Arial" font-size="14.00" fill="#000000">walk_started_at    </text>
<text text-anchor="start" x="284.2286" y="-1453.9" font-family="Arial" font-size="14.00" fill="#666666">[TIMESTAMP]</text>
<polygon fill="none" stroke="#000000" points="145,-1412.5 145,-1442.5 386,-1442.5 386,-1412.5 145,-1412.5"/>
<text text-anchor="start" x="151.9411" y="-1423.9" font-family="Arial" font-size="14.00" fill="#000000">walk_finished_at    </text>
<text text-anchor="start" x="289.6143" y="-1423.9" font-family="Arial" font-size="14.00" fill="#666666">[TIMESTAMP]</text>
<polygon fill="none" stroke="#000000" points="145,-1382.5 145,-1412.5 386,-1412.5 386,-1382.5 145,-1382.5"/>
<text text-anchor="start" x="152" y="-1393.9" font-family="Arial" font-size="14.00" fill="#000000">elaboration    </text>
<text text-anchor="start" x="255.4474" y="-1393.9" font-family="Arial" font-size="14.00" fill="#666666">[TEXT]</text>
<polygon fill="none" stroke="#000000" points="145,-1352.5 145,-1382.5 386,-1382.5 386,-1352.5 145,-1352.5"/>
<text text-anchor="start" x="152" y="-1363.9" font-family="Arial" font-size="14.00" fill="#000000">created_at    </text>
<text text-anchor="start" x="252.3422" y="-1363.9" font-family="Arial" font-size="14.00" fill="#666666">[TIMESTAMP]</text>
<polygon fill="none" stroke="#000000" points="145,-1322.5 145,-1352.5 386,-1352.5 386,-1322.5 145,-1322.5"/>
<text text-anchor="start" x="152" y="-1333.9" font-family="Arial" font-size="14.00" fill="#000000">created_by    </text>
<text text-anchor="start" x="255.4516" y="-1333.9" font-family="Arial" font-size="14.00" fill="#666666">[TEXT]</text>
<polygon fill="none" stroke="#000000" points="145,-1292.5 145,-1322.5 386,-1322.5 386,-1292.5 145,-1292.5"/>
<text text-anchor="start" x="152" y="-1303.9" font-family="Arial" font-size="14.00" fill="#000000">updated_at    </text>
<text text-anchor="start" x="256.2468" y="-1303.9" font-family="Arial" font-size="14.00" fill="#666666">[TIMESTAMP]</text>
<polygon fill="none" stroke="#000000" points="145,-1262.5 145,-1292.5 386,-1292.5 386,-1262.5 145,-1262.5"/>
<text text-anchor="start" x="152" y="-1273.9" font-family="Arial" font-size="14.00" fill="#000000">updated_by    </text>
<text text-anchor="start" x="259.3562" y="-1273.9" font-family="Arial" font-size="14.00" fill="#666666">[TEXT]</text>
<polygon fill="none" stroke="#000000" points="145,-1232.5 145,-1262.5 386,-1262.5 386,-1232.5 145,-1232.5"/>
<text text-anchor="start" x="152" y="-1243.9" font-family="Arial" font-size="14.00" fill="#000000">deleted_at    </text>
<text text-anchor="start" x="251.5708" y="-1243.9" font-family="Arial" font-size="14.00" fill="#666666">[TIMESTAMP]</text>
<polygon fill="none" stroke="#000000" points="145,-1202.5 145,-1232.5 386,-1232.5 386,-1202.5 145,-1202.5"/>
<text text-anchor="start" x="152" y="-1213.9" font-family="Arial" font-size="14.00" fill="#000000">deleted_by    </text>
<text text-anchor="start" x="254.6802" y="-1213.9" font-family="Arial" font-size="14.00" fill="#666666">[TEXT]</text>
<polygon fill="none" stroke="#000000" points="145,-1172.5 145,-1202.5 386,-1202.5 386,-1172.5 145,-1172.5"/>
<text text-anchor="start" x="152" y="-1183.9" font-family="Arial" font-size="14.00" fill="#000000">activity_log    </text>
<text text-anchor="start" x="255.4362" y="-1183.9" font-family="Arial" font-size="14.00" fill="#666666">[TEXT]</text>
</g>
<!-- ur_walk_session&#45;&gt;device -->
<g id="edge3" class="edge">
<title>ur_walk_session:device_id&#45;&gt;device:device_id</title>
<path fill="none" stroke="#000000" d="M396.0572,-1547.228C568.6196,-1537.6797 490.7172,-1278.9944 386,-1130 358.8383,-1091.3535 313.1617,-1132.6465 286,-1094 120.3116,-858.2541 76.8528,-450.5 365,-450.5"/>
<polygon fill="#000000" stroke="#000000" points="395.9963,-1547.2296 385.8783,-1543.0016 390.9982,-1547.3648 386,-1547.5 386,-1547.5 386,-1547.5 390.9982,-1547.3648 386.1217,-1551.9984 395.9963,-1547.2296 395.9963,-1547.2296"/>
</g>
<!-- ur_walk_session&#45;&gt;behavior -->
<g id="edge2" class="edge">
<title>ur_walk_session:behavior_id&#45;&gt;behavior:behavior_id</title>
<path fill="none" stroke="#000000" d="M396.2608,-1517.2081C554.3251,-1507.9579 461.4406,-1280.8812 386,-1130 374.0743,-1106.1486 349.9257,-1117.8514 338,-1094 319.4158,-1056.8316 296.4444,-1000.5 338,-1000.5"/>
<polygon fill="#000000" stroke="#000000" points="395.996,-1517.2156 385.872,-1513.0018 390.998,-1517.3578 386,-1517.5 386,-1517.5 386,-1517.5 390.998,-1517.3578 386.128,-1521.9982 395.996,-1517.2156 395.996,-1517.2156"/>
</g>
<!-- ur_walk_session_path -->
<g id="node4" class="node">
<title>ur_walk_session_path</title>
<polygon fill="#efefef" stroke="transparent" points="321,-2079.5 321,-2114.5 585,-2114.5 585,-2079.5 321,-2079.5"/>
<polygon fill="none" stroke="#000000" points="321,-2079.5 321,-2114.5 585,-2114.5 585,-2079.5 321,-2079.5"/>
<text text-anchor="start" x="327.8119" y="-2092.3" font-family="Arial Bold" font-size="18.00" fill="#000000">ur_walk_session_path</text>
<text text-anchor="start" x="505.8571" y="-2092.3" font-family="Arial" font-size="14.00" fill="#000000">    </text>
<text text-anchor="start" x="540.0619" y="-2092.3" font-family="Arial" font-size="14.00" fill="#666666">[table]</text>
<polygon fill="none" stroke="#000000" points="321,-2049.5 321,-2079.5 585,-2079.5 585,-2049.5 321,-2049.5"/>
<text text-anchor="start" x="328" y="-2060.9" font-family="Arial" font-size="14.00" fill="#000000">ur_walk_session_path_id    </text>
<text text-anchor="start" x="519.3562" y="-2060.9" font-family="Arial" font-size="14.00" fill="#666666">[ULID]</text>
<polygon fill="none" stroke="#000000" points="321,-2019.5 321,-2049.5 585,-2049.5 585,-2019.5 321,-2019.5"/>
<text text-anchor="start" x="328" y="-2030.9" font-family="Arial" font-size="14.00" fill="#000000">walk_session_id    </text>
<text text-anchor="start" x="464.1094" y="-2030.9" font-family="Arial" font-size="14.00" fill="#666666">[ULID]</text>
<polygon fill="none" stroke="#000000" points="321,-1989.5 321,-2019.5 585,-2019.5 585,-1989.5 321,-1989.5"/>
<text text-anchor="start" x="328" y="-2000.9" font-family="Arial" font-size="14.00" fill="#000000">root_path    </text>
<text text-anchor="start" x="421.3422" y="-2000.9" font-family="Arial" font-size="14.00" fill="#666666">[TEXT]</text>
<polygon fill="none" stroke="#000000" points="321,-1959.5 321,-1989.5 585,-1989.5 585,-1959.5 321,-1959.5"/>
<text text-anchor="start" x="328" y="-1970.9" font-family="Arial" font-size="14.00" fill="#000000">elaboration    </text>
<text text-anchor="start" x="431.4474" y="-1970.9" font-family="Arial" font-size="14.00" fill="#666666">[TEXT]</text>
<polygon fill="none" stroke="#000000" points="321,-1929.5 321,-1959.5 585,-1959.5 585,-1929.5 321,-1929.5"/>
<text text-anchor="start" x="328" y="-1940.9" font-family="Arial" font-size="14.00" fill="#000000">created_at    </text>
<text text-anchor="start" x="428.3422" y="-1940.9" font-family="Arial" font-size="14.00" fill="#666666">[TIMESTAMP]</text>
<polygon fill="none" stroke="#000000" points="321,-1899.5 321,-1929.5 585,-1929.5 585,-1899.5 321,-1899.5"/>
<text text-anchor="start" x="328" y="-1910.9" font-family="Arial" font-size="14.00" fill="#000000">created_by    </text>
<text text-anchor="start" x="431.4516" y="-1910.9" font-family="Arial" font-size="14.00" fill="#666666">[TEXT]</text>
<polygon fill="none" stroke="#000000" points="321,-1869.5 321,-1899.5 585,-1899.5 585,-1869.5 321,-1869.5"/>
<text text-anchor="start" x="328" y="-1880.9" font-family="Arial" font-size="14.00" fill="#000000">updated_at    </text>
<text text-anchor="start" x="432.2468" y="-1880.9" font-family="Arial" font-size="14.00" fill="#666666">[TIMESTAMP]</text>
<polygon fill="none" stroke="#000000" points="321,-1839.5 321,-1869.5 585,-1869.5 585,-1839.5 321,-1839.5"/>
<text text-anchor="start" x="328" y="-1850.9" font-family="Arial" font-size="14.00" fill="#000000">updated_by    </text>
<text text-anchor="start" x="435.3562" y="-1850.9" font-family="Arial" font-size="14.00" fill="#666666">[TEXT]</text>
<polygon fill="none" stroke="#000000" points="321,-1809.5 321,-1839.5 585,-1839.5 585,-1809.5 321,-1809.5"/>
<text text-anchor="start" x="328" y="-1820.9" font-family="Arial" font-size="14.00" fill="#000000">deleted_at    </text>
<text text-anchor="start" x="427.5708" y="-1820.9" font-family="Arial" font-size="14.00" fill="#666666">[TIMESTAMP]</text>
<polygon fill="none" stroke="#000000" points="321,-1779.5 321,-1809.5 585,-1809.5 585,-1779.5 321,-1779.5"/>
<text text-anchor="start" x="328" y="-1790.9" font-family="Arial" font-size="14.00" fill="#000000">deleted_by    </text>
<text text-anchor="start" x="430.6802" y="-1790.9" font-family="Arial" font-size="14.00" fill="#666666">[TEXT]</text>
<polygon fill="none" stroke="#000000" points="321,-1749.5 321,-1779.5 585,-1779.5 585,-1749.5 321,-1749.5"/>
<text text-anchor="start" x="328" y="-1760.9" font-family="Arial" font-size="14.00" fill="#000000">activity_log    </text>
<text text-anchor="start" x="431.4362" y="-1760.9" font-family="Arial" font-size="14.00" fill="#666666">[TEXT]</text>
</g>
<!-- ur_walk_session_path&#45;&gt;ur_walk_session -->
<g id="edge4" class="edge">
<title>ur_walk_session_path:walk_session_id&#45;&gt;ur_walk_session:ur_walk_session_id</title>
<path fill="none" stroke="#000000" d="M311.1035,-2032.6604C251.7238,-2009.1226 285.8555,-1766.6393 321,-1707 337.7659,-1678.5487 369.2341,-1699.4513 386,-1671 407.0974,-1635.1983 427.5556,-1577.5 386,-1577.5"/>
<polygon fill="#000000" stroke="#000000" points="311.1684,-2032.6724 320.1776,-2038.9242 316.0842,-2033.5862 321,-2034.5 321,-2034.5 321,-2034.5 316.0842,-2033.5862 321.8224,-2030.0758 311.1684,-2032.6724 311.1684,-2032.6724"/>
</g>
<!-- uniform_resource -->
<g id="node5" class="node">
<title>uniform_resource</title>
<polygon fill="#efefef" stroke="transparent" points="336,-2836.5 336,-2871.5 570,-2871.5 570,-2836.5 336,-2836.5"/>
<polygon fill="none" stroke="#000000" points="336,-2836.5 336,-2871.5 570,-2871.5 570,-2836.5 336,-2836.5"/>
<text text-anchor="start" x="346.8271" y="-2849.3" font-family="Arial Bold" font-size="18.00" fill="#000000">uniform_resource</text>
<text text-anchor="start" x="486.8419" y="-2849.3" font-family="Arial" font-size="14.00" fill="#000000">    </text>
<text text-anchor="start" x="521.0467" y="-2849.3" font-family="Arial" font-size="14.00" fill="#666666">[table]</text>
<polygon fill="none" stroke="#000000" points="336,-2806.5 336,-2836.5 570,-2836.5 570,-2806.5 336,-2806.5"/>
<text text-anchor="start" x="343" y="-2817.9" font-family="Arial" font-size="14.00" fill="#000000">uniform_resource_id    </text>
<text text-anchor="start" x="504.777" y="-2817.9" font-family="Arial" font-size="14.00" fill="#666666">[ULID]</text>
<polygon fill="none" stroke="#000000" points="336,-2776.5 336,-2806.5 570,-2806.5 570,-2776.5 336,-2776.5"/>
<text text-anchor="start" x="343" y="-2787.9" font-family="Arial" font-size="14.00" fill="#000000">device_id    </text>
<text text-anchor="start" x="436.331" y="-2787.9" font-family="Arial" font-size="14.00" fill="#666666">[ULID]</text>
<polygon fill="none" stroke="#000000" points="336,-2746.5 336,-2776.5 570,-2776.5 570,-2746.5 336,-2746.5"/>
<text text-anchor="start" x="343" y="-2757.9" font-family="Arial" font-size="14.00" fill="#000000">walk_session_id    </text>
<text text-anchor="start" x="479.1094" y="-2757.9" font-family="Arial" font-size="14.00" fill="#666666">[ULID]</text>
<polygon fill="none" stroke="#000000" points="336,-2716.5 336,-2746.5 570,-2746.5 570,-2716.5 336,-2716.5"/>
<text text-anchor="start" x="343" y="-2727.9" font-family="Arial" font-size="14.00" fill="#000000">walk_path_id    </text>
<text text-anchor="start" x="458.8934" y="-2727.9" font-family="Arial" font-size="14.00" fill="#666666">[ULID]</text>
<polygon fill="none" stroke="#000000" points="336,-2686.5 336,-2716.5 570,-2716.5 570,-2686.5 336,-2686.5"/>
<text text-anchor="start" x="343" y="-2697.9" font-family="Arial" font-size="14.00" fill="#000000">uri    </text>
<text text-anchor="start" x="392.7546" y="-2697.9" font-family="Arial" font-size="14.00" fill="#666666">[TEXT]</text>
<polygon fill="none" stroke="#000000" points="336,-2656.5 336,-2686.5 570,-2686.5 570,-2656.5 336,-2656.5"/>
<text text-anchor="start" x="343" y="-2667.9" font-family="Arial" font-size="14.00" fill="#000000">content_digest    </text>
<text text-anchor="start" x="468.244" y="-2667.9" font-family="Arial" font-size="14.00" fill="#666666">[TEXT]</text>
<polygon fill="none" stroke="#000000" points="336,-2626.5 336,-2656.5 570,-2656.5 570,-2626.5 336,-2626.5"/>
<text text-anchor="start" x="343" y="-2637.9" font-family="Arial" font-size="14.00" fill="#000000">content    </text>
<text text-anchor="start" x="423.1164" y="-2637.9" font-family="Arial" font-size="14.00" fill="#666666">[BLOB]</text>
<polygon fill="none" stroke="#000000" points="336,-2596.5 336,-2626.5 570,-2626.5 570,-2596.5 336,-2596.5"/>
<text text-anchor="start" x="343" y="-2607.9" font-family="Arial" font-size="14.00" fill="#000000">nature    </text>
<text text-anchor="start" x="416.8864" y="-2607.9" font-family="Arial" font-size="14.00" fill="#666666">[TEXT]</text>
<polygon fill="none" stroke="#000000" points="336,-2566.5 336,-2596.5 570,-2596.5 570,-2566.5 336,-2566.5"/>
<text text-anchor="start" x="343" y="-2577.9" font-family="Arial" font-size="14.00" fill="#000000">size_bytes    </text>
<text text-anchor="start" x="443.3324" y="-2577.9" font-family="Arial" font-size="14.00" fill="#666666">[INTEGER]</text>
<polygon fill="none" stroke="#000000" points="336,-2536.5 336,-2566.5 570,-2566.5 570,-2536.5 336,-2536.5"/>
<text text-anchor="start" x="343" y="-2547.9" font-family="Arial" font-size="14.00" fill="#000000">last_modified_at    </text>
<text text-anchor="start" x="479.1178" y="-2547.9" font-family="Arial" font-size="14.00" fill="#666666">[INTEGER]</text>
<polygon fill="none" stroke="#000000" points="336,-2506.5 336,-2536.5 570,-2536.5 570,-2506.5 336,-2506.5"/>
<text text-anchor="start" x="342.9264" y="-2517.9" font-family="Arial" font-size="14.00" fill="#000000">content_fm_body_attrs    </text>
<text text-anchor="start" x="519.514" y="-2517.9" font-family="Arial" font-size="14.00" fill="#666666">[TEXT]</text>
<polygon fill="none" stroke="#000000" points="336,-2476.5 336,-2506.5 570,-2506.5 570,-2476.5 336,-2476.5"/>
<text text-anchor="start" x="343" y="-2487.9" font-family="Arial" font-size="14.00" fill="#000000">frontmatter    </text>
<text text-anchor="start" x="444.8794" y="-2487.9" font-family="Arial" font-size="14.00" fill="#666666">[TEXT]</text>
<polygon fill="none" stroke="#000000" points="336,-2446.5 336,-2476.5 570,-2476.5 570,-2446.5 336,-2446.5"/>
<text text-anchor="start" x="343" y="-2457.9" font-family="Arial" font-size="14.00" fill="#000000">elaboration    </text>
<text text-anchor="start" x="446.4474" y="-2457.9" font-family="Arial" font-size="14.00" fill="#666666">[TEXT]</text>
<polygon fill="none" stroke="#000000" points="336,-2416.5 336,-2446.5 570,-2446.5 570,-2416.5 336,-2416.5"/>
<text text-anchor="start" x="343" y="-2427.9" font-family="Arial" font-size="14.00" fill="#000000">created_at    </text>
<text text-anchor="start" x="443.3422" y="-2427.9" font-family="Arial" font-size="14.00" fill="#666666">[TIMESTAMP]</text>
<polygon fill="none" stroke="#000000" points="336,-2386.5 336,-2416.5 570,-2416.5 570,-2386.5 336,-2386.5"/>
<text text-anchor="start" x="343" y="-2397.9" font-family="Arial" font-size="14.00" fill="#000000">created_by    </text>
<text text-anchor="start" x="446.4516" y="-2397.9" font-family="Arial" font-size="14.00" fill="#666666">[TEXT]</text>
<polygon fill="none" stroke="#000000" points="336,-2356.5 336,-2386.5 570,-2386.5 570,-2356.5 336,-2356.5"/>
<text text-anchor="start" x="343" y="-2367.9" font-family="Arial" font-size="14.00" fill="#000000">updated_at    </text>
<text text-anchor="start" x="447.2468" y="-2367.9" font-family="Arial" font-size="14.00" fill="#666666">[TIMESTAMP]</text>
<polygon fill="none" stroke="#000000" points="336,-2326.5 336,-2356.5 570,-2356.5 570,-2326.5 336,-2326.5"/>
<text text-anchor="start" x="343" y="-2337.9" font-family="Arial" font-size="14.00" fill="#000000">updated_by    </text>
<text text-anchor="start" x="450.3562" y="-2337.9" font-family="Arial" font-size="14.00" fill="#666666">[TEXT]</text>
<polygon fill="none" stroke="#000000" points="336,-2296.5 336,-2326.5 570,-2326.5 570,-2296.5 336,-2296.5"/>
<text text-anchor="start" x="343" y="-2307.9" font-family="Arial" font-size="14.00" fill="#000000">deleted_at    </text>
<text text-anchor="start" x="442.5708" y="-2307.9" font-family="Arial" font-size="14.00" fill="#666666">[TIMESTAMP]</text>
<polygon fill="none" stroke="#000000" points="336,-2266.5 336,-2296.5 570,-2296.5 570,-2266.5 336,-2266.5"/>
<text text-anchor="start" x="343" y="-2277.9" font-family="Arial" font-size="14.00" fill="#000000">deleted_by    </text>
<text text-anchor="start" x="445.6802" y="-2277.9" font-family="Arial" font-size="14.00" fill="#666666">[TEXT]</text>
<polygon fill="none" stroke="#000000" points="336,-2236.5 336,-2266.5 570,-2266.5 570,-2236.5 336,-2236.5"/>
<text text-anchor="start" x="343" y="-2247.9" font-family="Arial" font-size="14.00" fill="#000000">activity_log    </text>
<text text-anchor="start" x="446.4362" y="-2247.9" font-family="Arial" font-size="14.00" fill="#666666">[TEXT]</text>
</g>
<!-- uniform_resource&#45;&gt;device -->
<g id="edge7" class="edge">
<title>uniform_resource:device_id&#45;&gt;device:device_id</title>
<path fill="none" stroke="#000000" d="M580.1382,-2790.2901C829.3511,-2730.1813 798.7003,-450.5 542,-450.5"/>
<polygon fill="#000000" stroke="#000000" points="579.9295,-2790.3149 569.4667,-2787.0317 574.9648,-2790.9074 570,-2791.5 570,-2791.5 570,-2791.5 574.9648,-2790.9074 570.5333,-2795.9683 579.9295,-2790.3149 579.9295,-2790.3149"/>
</g>
<!-- uniform_resource&#45;&gt;ur_walk_session -->
<g id="edge5" class="edge">
<title>uniform_resource:walk_session_id&#45;&gt;ur_walk_session:ur_walk_session_id</title>
<path fill="none" stroke="#000000" d="M325.9646,-2760.9491C108.021,-2736.3531 361.6091,-1895.4289 226,-1707 202.9877,-1675.0244 166.4671,-1704.0328 145,-1671 122.3558,-1636.156 103.4444,-1577.5 145,-1577.5"/>
<polygon fill="#000000" stroke="#000000" points="326.015,-2760.9518 335.7533,-2765.9932 331.0075,-2761.2259 336,-2761.5 336,-2761.5 336,-2761.5 331.0075,-2761.2259 336.2467,-2757.0068 326.015,-2760.9518 326.015,-2760.9518"/>
</g>
<!-- uniform_resource&#45;&gt;ur_walk_session_path -->
<g id="edge10" class="edge">
<title>uniform_resource:walk_path_id&#45;&gt;ur_walk_session_path:ur_walk_session_path_id</title>
<path fill="none" stroke="#000000" d="M579.6295,-2727.583C645.2976,-2672.9202 655.7998,-2064.5 585,-2064.5"/>
<polygon fill="#000000" stroke="#000000" points="579.263,-2727.732 568.3044,-2727.3317 574.6315,-2729.616 570,-2731.5 570,-2731.5 570,-2731.5 574.6315,-2729.616 571.6956,-2735.6683 579.263,-2727.732 579.263,-2727.732"/>
</g>
<!-- ur_walk_session_path_fs_entry -->
<g id="node6" class="node">
<title>ur_walk_session_path_fs_entry</title>
<polygon fill="#efefef" stroke="transparent" points="43,-3593.5 43,-3628.5 381,-3628.5 381,-3593.5 43,-3593.5"/>
<polygon fill="none" stroke="#000000" points="43,-3593.5 43,-3628.5 381,-3628.5 381,-3593.5 43,-3593.5"/>
<text text-anchor="start" x="49.8012" y="-3606.3" font-family="Arial Bold" font-size="18.00" fill="#000000">ur_walk_session_path_fs_entry</text>
<text text-anchor="start" x="301.8678" y="-3606.3" font-family="Arial" font-size="14.00" fill="#000000">    </text>
<text text-anchor="start" x="336.0726" y="-3606.3" font-family="Arial" font-size="14.00" fill="#666666">[table]</text>
<polygon fill="none" stroke="#000000" points="43,-3563.5 43,-3593.5 381,-3593.5 381,-3563.5 43,-3563.5"/>
<text text-anchor="start" x="50" y="-3574.9" font-family="Arial" font-size="14.00" fill="#000000">ur_walk_session_path_fs_entry_id    </text>
<text text-anchor="start" x="298.9284" y="-3574.9" font-family="Arial" font-size="14.00" fill="#666666">[ULID]</text>
<polygon fill="none" stroke="#000000" points="43,-3533.5 43,-3563.5 381,-3563.5 381,-3533.5 43,-3533.5"/>
<text text-anchor="start" x="50" y="-3544.9" font-family="Arial" font-size="14.00" fill="#000000">walk_session_id    </text>
<text text-anchor="start" x="186.1094" y="-3544.9" font-family="Arial" font-size="14.00" fill="#666666">[ULID]</text>
<polygon fill="none" stroke="#000000" points="43,-3503.5 43,-3533.5 381,-3533.5 381,-3503.5 43,-3503.5"/>
<text text-anchor="start" x="50" y="-3514.9" font-family="Arial" font-size="14.00" fill="#000000">walk_path_id    </text>
<text text-anchor="start" x="165.8934" y="-3514.9" font-family="Arial" font-size="14.00" fill="#666666">[ULID]</text>
<polygon fill="none" stroke="#000000" points="43,-3473.5 43,-3503.5 381,-3503.5 381,-3473.5 43,-3473.5"/>
<text text-anchor="start" x="50" y="-3484.9" font-family="Arial" font-size="14.00" fill="#000000">uniform_resource_id    </text>
<text text-anchor="start" x="211.777" y="-3484.9" font-family="Arial" font-size="14.00" fill="#666666">[ULID]</text>
<polygon fill="none" stroke="#000000" points="43,-3443.5 43,-3473.5 381,-3473.5 381,-3443.5 43,-3443.5"/>
<text text-anchor="start" x="50" y="-3454.9" font-family="Arial" font-size="14.00" fill="#000000">file_path_abs    </text>
<text text-anchor="start" x="167.46" y="-3454.9" font-family="Arial" font-size="14.00" fill="#666666">[TEXT]</text>
<polygon fill="none" stroke="#000000" points="43,-3413.5 43,-3443.5 381,-3443.5 381,-3413.5 43,-3413.5"/>
<text text-anchor="start" x="50" y="-3424.9" font-family="Arial" font-size="14.00" fill="#000000">file_path_rel_parent    </text>
<text text-anchor="start" x="207.9088" y="-3424.9" font-family="Arial" font-size="14.00" fill="#666666">[TEXT]</text>
<polygon fill="none" stroke="#000000" points="43,-3383.5 43,-3413.5 381,-3413.5 381,-3383.5 43,-3383.5"/>
<text text-anchor="start" x="50" y="-3394.9" font-family="Arial" font-size="14.00" fill="#000000">file_path_rel    </text>
<text text-anchor="start" x="160.4446" y="-3394.9" font-family="Arial" font-size="14.00" fill="#666666">[TEXT]</text>
<polygon fill="none" stroke="#000000" points="43,-3353.5 43,-3383.5 381,-3383.5 381,-3353.5 43,-3353.5"/>
<text text-anchor="start" x="50" y="-3364.9" font-family="Arial" font-size="14.00" fill="#000000">file_basename    </text>
<text text-anchor="start" x="175.23" y="-3364.9" font-family="Arial" font-size="14.00" fill="#666666">[TEXT]</text>
<polygon fill="none" stroke="#000000" points="43,-3323.5 43,-3353.5 381,-3353.5 381,-3323.5 43,-3323.5"/>
<text text-anchor="start" x="50" y="-3334.9" font-family="Arial" font-size="14.00" fill="#000000">file_extn    </text>
<text text-anchor="start" x="136.3296" y="-3334.9" font-family="Arial" font-size="14.00" fill="#666666">[TEXT]</text>
<polygon fill="none" stroke="#000000" points="43,-3293.5 43,-3323.5 381,-3323.5 381,-3293.5 43,-3293.5"/>
<text text-anchor="start" x="50" y="-3304.9" font-family="Arial" font-size="14.00" fill="#000000">ur_status    </text>
<text text-anchor="start" x="141.777" y="-3304.9" font-family="Arial" font-size="14.00" fill="#666666">[TEXT]</text>
<polygon fill="none" stroke="#000000" points="43,-3263.5 43,-3293.5 381,-3293.5 381,-3263.5 43,-3263.5"/>
<text text-anchor="start" x="50" y="-3274.9" font-family="Arial" font-size="14.00" fill="#000000">ur_diagnostics    </text>
<text text-anchor="start" x="174.4474" y="-3274.9" font-family="Arial" font-size="14.00" fill="#666666">[TEXT]</text>
<polygon fill="none" stroke="#000000" points="43,-3233.5 43,-3263.5 381,-3263.5 381,-3233.5 43,-3233.5"/>
<text text-anchor="start" x="50" y="-3244.9" font-family="Arial" font-size="14.00" fill="#000000">ur_transformations    </text>
<text text-anchor="start" x="200.8864" y="-3244.9" font-family="Arial" font-size="14.00" fill="#666666">[TEXT]</text>
<polygon fill="none" stroke="#000000" points="43,-3203.5 43,-3233.5 381,-3233.5 381,-3203.5 43,-3203.5"/>
<text text-anchor="start" x="50" y="-3214.9" font-family="Arial" font-size="14.00" fill="#000000">elaboration    </text>
<text text-anchor="start" x="153.4474" y="-3214.9" font-family="Arial" font-size="14.00" fill="#666666">[TEXT]</text>
<polygon fill="none" stroke="#000000" points="43,-3173.5 43,-3203.5 381,-3203.5 381,-3173.5 43,-3173.5"/>
<text text-anchor="start" x="50" y="-3184.9" font-family="Arial" font-size="14.00" fill="#000000">created_at    </text>
<text text-anchor="start" x="150.3422" y="-3184.9" font-family="Arial" font-size="14.00" fill="#666666">[TIMESTAMP]</text>
<polygon fill="none" stroke="#000000" points="43,-3143.5 43,-3173.5 381,-3173.5 381,-3143.5 43,-3143.5"/>
<text text-anchor="start" x="50" y="-3154.9" font-family="Arial" font-size="14.00" fill="#000000">created_by    </text>
<text text-anchor="start" x="153.4516" y="-3154.9" font-family="Arial" font-size="14.00" fill="#666666">[TEXT]</text>
<polygon fill="none" stroke="#000000" points="43,-3113.5 43,-3143.5 381,-3143.5 381,-3113.5 43,-3113.5"/>
<text text-anchor="start" x="50" y="-3124.9" font-family="Arial" font-size="14.00" fill="#000000">updated_at    </text>
<text text-anchor="start" x="154.2468" y="-3124.9" font-family="Arial" font-size="14.00" fill="#666666">[TIMESTAMP]</text>
<polygon fill="none" stroke="#000000" points="43,-3083.5 43,-3113.5 381,-3113.5 381,-3083.5 43,-3083.5"/>
<text text-anchor="start" x="50" y="-3094.9" font-family="Arial" font-size="14.00" fill="#000000">updated_by    </text>
<text text-anchor="start" x="157.3562" y="-3094.9" font-family="Arial" font-size="14.00" fill="#666666">[TEXT]</text>
<polygon fill="none" stroke="#000000" points="43,-3053.5 43,-3083.5 381,-3083.5 381,-3053.5 43,-3053.5"/>
<text text-anchor="start" x="50" y="-3064.9" font-family="Arial" font-size="14.00" fill="#000000">deleted_at    </text>
<text text-anchor="start" x="149.5708" y="-3064.9" font-family="Arial" font-size="14.00" fill="#666666">[TIMESTAMP]</text>
<polygon fill="none" stroke="#000000" points="43,-3023.5 43,-3053.5 381,-3053.5 381,-3023.5 43,-3023.5"/>
<text text-anchor="start" x="50" y="-3034.9" font-family="Arial" font-size="14.00" fill="#000000">deleted_by    </text>
<text text-anchor="start" x="152.6802" y="-3034.9" font-family="Arial" font-size="14.00" fill="#666666">[TEXT]</text>
<polygon fill="none" stroke="#000000" points="43,-2993.5 43,-3023.5 381,-3023.5 381,-2993.5 43,-2993.5"/>
<text text-anchor="start" x="50" y="-3004.9" font-family="Arial" font-size="14.00" fill="#000000">activity_log    </text>
<text text-anchor="start" x="153.4362" y="-3004.9" font-family="Arial" font-size="14.00" fill="#666666">[TEXT]</text>
</g>
<!-- ur_walk_session_path_fs_entry&#45;&gt;ur_walk_session -->
<g id="edge6" class="edge">
<title>ur_walk_session_path_fs_entry:walk_session_id&#45;&gt;ur_walk_session:ur_walk_session_id</title>
<path fill="none" stroke="#000000" d="M390.3912,-3544.4343C444.4719,-3494.6115 416.9823,-3002.7348 381,-2951 354.7434,-2913.2487 312.3153,-2951.2328 284,-2915 -58.5641,-2476.6481 175.9368,-2226.4688 145,-1671 142.6892,-1629.5087 103.4444,-1577.5 145,-1577.5"/>
<polygon fill="#000000" stroke="#000000" points="390.1769,-3544.527 379.2122,-3544.3704 385.5885,-3546.5135 381,-3548.5 381,-3548.5 381,-3548.5 385.5885,-3546.5135 382.7878,-3552.6296 390.1769,-3544.527 390.1769,-3544.527"/>
</g>
<!-- ur_walk_session_path_fs_entry&#45;&gt;uniform_resource -->
<g id="edge9" class="edge">
<title>ur_walk_session_path_fs_entry:uniform_resource_id&#45;&gt;uniform_resource:uniform_resource_id</title>
<path fill="none" stroke="#000000" d="M390.266,-3484.0109C436.9131,-3435.088 405.4056,-3001.779 381,-2951 369.905,-2927.9154 347.095,-2938.0846 336,-2915 317.9986,-2877.5458 294.4444,-2821.5 336,-2821.5"/>
<polygon fill="#000000" stroke="#000000" points="389.9995,-3484.14 379.038,-3484.4502 385.4997,-3486.32 381,-3488.5 381,-3488.5 381,-3488.5 385.4997,-3486.32 382.962,-3492.5498 389.9995,-3484.14 389.9995,-3484.14"/>
</g>
<!-- uniform_resource_transform -->
<g id="node7" class="node">
<title>uniform_resource_transform</title>
<polygon fill="#efefef" stroke="transparent" points="485,-3518.5 485,-3553.5 797,-3553.5 797,-3518.5 485,-3518.5"/>
<polygon fill="none" stroke="#000000" points="485,-3518.5 485,-3553.5 797,-3553.5 797,-3518.5 485,-3518.5"/>
<text text-anchor="start" x="491.8242" y="-3531.3" font-family="Arial Bold" font-size="18.00" fill="#000000">uniform_resource_transform</text>
<text text-anchor="start" x="717.8448" y="-3531.3" font-family="Arial" font-size="14.00" fill="#000000">    </text>
<text text-anchor="start" x="752.0496" y="-3531.3" font-family="Arial" font-size="14.00" fill="#666666">[table]</text>
<polygon fill="none" stroke="#000000" points="485,-3488.5 485,-3518.5 797,-3518.5 797,-3488.5 485,-3488.5"/>
<text text-anchor="start" x="492" y="-3499.9" font-family="Arial" font-size="14.00" fill="#000000">uniform_resource_transform_id    </text>
<text text-anchor="start" x="720.6704" y="-3499.9" font-family="Arial" font-size="14.00" fill="#666666">[ULID]</text>
<polygon fill="none" stroke="#000000" points="485,-3458.5 485,-3488.5 797,-3488.5 797,-3458.5 485,-3458.5"/>
<text text-anchor="start" x="492" y="-3469.9" font-family="Arial" font-size="14.00" fill="#000000">uniform_resource_id    </text>
<text text-anchor="start" x="653.777" y="-3469.9" font-family="Arial" font-size="14.00" fill="#666666">[ULID]</text>
<polygon fill="none" stroke="#000000" points="485,-3428.5 485,-3458.5 797,-3458.5 797,-3428.5 485,-3428.5"/>
<text text-anchor="start" x="492" y="-3439.9" font-family="Arial" font-size="14.00" fill="#000000">uri    </text>
<text text-anchor="start" x="541.7546" y="-3439.9" font-family="Arial" font-size="14.00" fill="#666666">[TEXT]</text>
<polygon fill="none" stroke="#000000" points="485,-3398.5 485,-3428.5 797,-3428.5 797,-3398.5 485,-3398.5"/>
<text text-anchor="start" x="492" y="-3409.9" font-family="Arial" font-size="14.00" fill="#000000">content_digest    </text>
<text text-anchor="start" x="617.244" y="-3409.9" font-family="Arial" font-size="14.00" fill="#666666">[TEXT]</text>
<polygon fill="none" stroke="#000000" points="485,-3368.5 485,-3398.5 797,-3398.5 797,-3368.5 485,-3368.5"/>
<text text-anchor="start" x="492" y="-3379.9" font-family="Arial" font-size="14.00" fill="#000000">content    </text>
<text text-anchor="start" x="572.1164" y="-3379.9" font-family="Arial" font-size="14.00" fill="#666666">[BLOB]</text>
<polygon fill="none" stroke="#000000" points="485,-3338.5 485,-3368.5 797,-3368.5 797,-3338.5 485,-3338.5"/>
<text text-anchor="start" x="492" y="-3349.9" font-family="Arial" font-size="14.00" fill="#000000">nature    </text>
<text text-anchor="start" x="565.8864" y="-3349.9" font-family="Arial" font-size="14.00" fill="#666666">[TEXT]</text>
<polygon fill="none" stroke="#000000" points="485,-3308.5 485,-3338.5 797,-3338.5 797,-3308.5 485,-3308.5"/>
<text text-anchor="start" x="492" y="-3319.9" font-family="Arial" font-size="14.00" fill="#000000">size_bytes    </text>
<text text-anchor="start" x="592.3324" y="-3319.9" font-family="Arial" font-size="14.00" fill="#666666">[INTEGER]</text>
<polygon fill="none" stroke="#000000" points="485,-3278.5 485,-3308.5 797,-3308.5 797,-3278.5 485,-3278.5"/>
<text text-anchor="start" x="492" y="-3289.9" font-family="Arial" font-size="14.00" fill="#000000">elaboration    </text>
<text text-anchor="start" x="595.4474" y="-3289.9" font-family="Arial" font-size="14.00" fill="#666666">[TEXT]</text>
<polygon fill="none" stroke="#000000" points="485,-3248.5 485,-3278.5 797,-3278.5 797,-3248.5 485,-3248.5"/>
<text text-anchor="start" x="492" y="-3259.9" font-family="Arial" font-size="14.00" fill="#000000">created_at    </text>
<text text-anchor="start" x="592.3422" y="-3259.9" font-family="Arial" font-size="14.00" fill="#666666">[TIMESTAMP]</text>
<polygon fill="none" stroke="#000000" points="485,-3218.5 485,-3248.5 797,-3248.5 797,-3218.5 485,-3218.5"/>
<text text-anchor="start" x="492" y="-3229.9" font-family="Arial" font-size="14.00" fill="#000000">created_by    </text>
<text text-anchor="start" x="595.4516" y="-3229.9" font-family="Arial" font-size="14.00" fill="#666666">[TEXT]</text>
<polygon fill="none" stroke="#000000" points="485,-3188.5 485,-3218.5 797,-3218.5 797,-3188.5 485,-3188.5"/>
<text text-anchor="start" x="492" y="-3199.9" font-family="Arial" font-size="14.00" fill="#000000">updated_at    </text>
<text text-anchor="start" x="596.2468" y="-3199.9" font-family="Arial" font-size="14.00" fill="#666666">[TIMESTAMP]</text>
<polygon fill="none" stroke="#000000" points="485,-3158.5 485,-3188.5 797,-3188.5 797,-3158.5 485,-3158.5"/>
<text text-anchor="start" x="492" y="-3169.9" font-family="Arial" font-size="14.00" fill="#000000">updated_by    </text>
<text text-anchor="start" x="599.3562" y="-3169.9" font-family="Arial" font-size="14.00" fill="#666666">[TEXT]</text>
<polygon fill="none" stroke="#000000" points="485,-3128.5 485,-3158.5 797,-3158.5 797,-3128.5 485,-3128.5"/>
<text text-anchor="start" x="492" y="-3139.9" font-family="Arial" font-size="14.00" fill="#000000">deleted_at    </text>
<text text-anchor="start" x="591.5708" y="-3139.9" font-family="Arial" font-size="14.00" fill="#666666">[TIMESTAMP]</text>
<polygon fill="none" stroke="#000000" points="485,-3098.5 485,-3128.5 797,-3128.5 797,-3098.5 485,-3098.5"/>
<text text-anchor="start" x="492" y="-3109.9" font-family="Arial" font-size="14.00" fill="#000000">deleted_by    </text>
<text text-anchor="start" x="594.6802" y="-3109.9" font-family="Arial" font-size="14.00" fill="#666666">[TEXT]</text>
<polygon fill="none" stroke="#000000" points="485,-3068.5 485,-3098.5 797,-3098.5 797,-3068.5 485,-3068.5"/>
<text text-anchor="start" x="492" y="-3079.9" font-family="Arial" font-size="14.00" fill="#000000">activity_log    </text>
<text text-anchor="start" x="595.4362" y="-3079.9" font-family="Arial" font-size="14.00" fill="#666666">[TEXT]</text>
</g>
<!-- uniform_resource_transform&#45;&gt;uniform_resource -->
<g id="edge8" class="edge">
<title>uniform_resource_transform:uniform_resource_id&#45;&gt;uniform_resource:uniform_resource_id</title>
<path fill="none" stroke="#000000" d="M476.1692,-3468.4236C439.6834,-3421.8788 470.1003,-3069.9642 485,-3026 504.9442,-2967.1513 550.0558,-2973.8487 570,-2915 583.3382,-2875.6432 611.5556,-2821.5 570,-2821.5"/>
<polygon fill="#000000" stroke="#000000" points="476.3304,-3468.5162 482.7573,-3477.4013 480.6652,-3471.0081 485,-3473.5 485,-3473.5 485,-3473.5 480.6652,-3471.0081 487.2427,-3469.5987 476.3304,-3468.5162 476.3304,-3468.5162"/>
</g>
</g>
</svg>
