<?xml version="1.0" encoding="UTF-8" standalone="no"?>
<!DOCTYPE svg PUBLIC "-//W3C//DTD SVG 1.1//EN"
 "http://www.w3.org/Graphics/SVG/1.1/DTD/svg11.dtd">
<!-- Generated by graphviz version 2.40.1 (20161225.0304)
 -->
<!-- Title: fs_content_walk_session_stats Pages: 1 -->
<svg width="432pt" height="585pt"
 viewBox="0.00 0.00 432.00 585.00" xmlns="http://www.w3.org/2000/svg" xmlns:xlink="http://www.w3.org/1999/xlink">
<g id="graph0" class="graph" transform="scale(1 1) rotate(0) translate(4 581)">
<title>fs_content_walk_session_stats</title>
<polygon fill="#ffffff" stroke="transparent" points="-4,4 -4,-581 428,-581 428,4 -4,4"/>
<!-- fs_content_walk_session_stats -->
<g id="node1" class="node">
<title>fs_content_walk_session_stats</title>
<polygon fill="#efefef" stroke="transparent" points="46,-495.5 46,-530.5 378,-530.5 378,-495.5 46,-495.5"/>
<polygon fill="none" stroke="#000000" points="46,-495.5 46,-530.5 378,-530.5 378,-495.5 46,-495.5"/>
<text text-anchor="start" x="52.972" y="-508.3" font-family="Arial Bold" font-size="18.00" fill="#000000">fs_content_walk_session_stats</text>
<text text-anchor="start" x="301.0462" y="-508.3" font-family="Arial" font-size="14.00" fill="#000000">    </text>
<text text-anchor="start" x="335.251" y="-508.3" font-family="Arial" font-size="14.00" fill="#666666">[view]</text>
<polygon fill="none" stroke="#000000" points="46,-465.5 46,-495.5 378,-495.5 378,-465.5 46,-465.5"/>
<text text-anchor="start" x="53" y="-476.9" font-family="Arial" font-size="14.00" fill="#000000">device_id </text>
<text text-anchor="start" x="116.0168" y="-476.9" font-family="Arial" font-size="14.00" fill="#666666">[ULID]</text>
<polygon fill="none" stroke="#000000" points="46,-435.5 46,-465.5 378,-465.5 378,-435.5 46,-435.5"/>
<text text-anchor="start" x="53" y="-446.9" font-family="Arial" font-size="14.00" fill="#000000">walk_session_id </text>
<text text-anchor="start" x="158.7952" y="-446.9" font-family="Arial" font-size="14.00" fill="#666666">[ULID]</text>
<polygon fill="none" stroke="#000000" points="46,-405.5 46,-435.5 378,-435.5 378,-405.5 46,-405.5"/>
<text text-anchor="start" x="53" y="-416.9" font-family="Arial" font-size="14.00" fill="#000000">walk_session_started_at </text>
<text text-anchor="start" x="210.1514" y="-416.9" font-family="Arial" font-size="14.00" fill="#666666">[TIMESTAMP]</text>
<polygon fill="none" stroke="#000000" points="46,-375.5 46,-405.5 378,-405.5 378,-375.5 46,-375.5"/>
<text text-anchor="start" x="53" y="-386.9" font-family="Arial" font-size="14.00" fill="#000000">walk_session_finished_at </text>
<text text-anchor="start" x="215.596" y="-386.9" font-family="Arial" font-size="14.00" fill="#666666">[TIMESTAMP]</text>
<polygon fill="none" stroke="#000000" points="46,-345.5 46,-375.5 378,-375.5 378,-345.5 46,-345.5"/>
<text text-anchor="start" x="53" y="-356.9" font-family="Arial" font-size="14.00" fill="#000000">file_extension </text>
<text text-anchor="start" x="142.4698" y="-356.9" font-family="Arial" font-size="14.00" fill="#666666">[]</text>
<polygon fill="none" stroke="#000000" points="46,-315.5 46,-345.5 378,-345.5 378,-315.5 46,-315.5"/>
<text text-anchor="start" x="53" y="-326.9" font-family="Arial" font-size="14.00" fill="#000000">walk_session_path_id </text>
<text text-anchor="start" x="193.8162" y="-326.9" font-family="Arial" font-size="14.00" fill="#666666">[ULID]</text>
<polygon fill="none" stroke="#000000" points="46,-285.5 46,-315.5 378,-315.5 378,-285.5 46,-285.5"/>
<text text-anchor="start" x="53" y="-296.9" font-family="Arial" font-size="14.00" fill="#000000">walk_session_root_path </text>
<text text-anchor="start" x="207.0434" y="-296.9" font-family="Arial" font-size="14.00" fill="#666666">[TEXT]</text>
<polygon fill="none" stroke="#000000" points="46,-255.5 46,-285.5 378,-285.5 378,-255.5 46,-255.5"/>
<text text-anchor="start" x="53" y="-266.9" font-family="Arial" font-size="14.00" fill="#000000">total_file_count </text>
<text text-anchor="start" x="151.0336" y="-266.9" font-family="Arial" font-size="14.00" fill="#666666">[]</text>
<polygon fill="none" stroke="#000000" points="46,-225.5 46,-255.5 378,-255.5 378,-225.5 46,-225.5"/>
<text text-anchor="start" x="53" y="-236.9" font-family="Arial" font-size="14.00" fill="#000000">file_count_with_content </text>
<text text-anchor="start" x="203.1612" y="-236.9" font-family="Arial" font-size="14.00" fill="#666666">[]</text>
<polygon fill="none" stroke="#000000" points="46,-195.5 46,-225.5 378,-225.5 378,-195.5 46,-195.5"/>
<text text-anchor="start" x="53" y="-206.9" font-family="Arial" font-size="14.00" fill="#000000">file_count_with_frontmatter </text>
<text text-anchor="start" x="224.9242" y="-206.9" font-family="Arial" font-size="14.00" fill="#666666">[]</text>
<polygon fill="none" stroke="#000000" points="46,-165.5 46,-195.5 378,-195.5 378,-165.5 46,-165.5"/>
<text text-anchor="start" x="53" y="-176.9" font-family="Arial" font-size="14.00" fill="#000000">min_file_size_bytes </text>
<text text-anchor="start" x="179.0196" y="-176.9" font-family="Arial" font-size="14.00" fill="#666666">[]</text>
<polygon fill="none" stroke="#000000" points="46,-135.5 46,-165.5 378,-165.5 378,-135.5 46,-135.5"/>
<text text-anchor="start" x="53" y="-146.9" font-family="Arial" font-size="14.00" fill="#000000">average_file_size_bytes </text>
<text text-anchor="start" x="207.0434" y="-146.9" font-family="Arial" font-size="14.00" fill="#666666">[INT]</text>
<polygon fill="none" stroke="#000000" points="46,-105.5 46,-135.5 378,-135.5 378,-105.5 46,-105.5"/>
<text text-anchor="start" x="53" y="-116.9" font-family="Arial" font-size="14.00" fill="#000000">max_file_size_bytes </text>
<text text-anchor="start" x="182.913" y="-116.9" font-family="Arial" font-size="14.00" fill="#666666">[]</text>
<polygon fill="none" stroke="#000000" points="46,-75.5 46,-105.5 378,-105.5 378,-75.5 46,-75.5"/>
<text text-anchor="start" x="53" y="-86.9" font-family="Arial" font-size="14.00" fill="#000000">oldest_file_last_modified_datetime </text>
<text text-anchor="start" x="271.6058" y="-86.9" font-family="Arial" font-size="14.00" fill="#666666">[]</text>
<polygon fill="none" stroke="#000000" points="46,-45.5 46,-75.5 378,-75.5 378,-45.5 46,-45.5"/>
<text text-anchor="start" x="53" y="-56.9" font-family="Arial" font-size="14.00" fill="#000000">youngest_file_last_modified_datetime </text>
<text text-anchor="start" x="291.0644" y="-56.9" font-family="Arial" font-size="14.00" fill="#666666">[]</text>
<polygon fill="none" stroke="#000000" stroke-width="3" points="44.5,-44.5 44.5,-532.5 379.5,-532.5 379.5,-44.5 44.5,-44.5"/>
</g>
</g>
</svg>
