<?xml version="1.0" encoding="UTF-8" standalone="no"?>
<!DOCTYPE svg PUBLIC "-//W3C//DTD SVG 1.1//EN"
 "http://www.w3.org/Graphics/SVG/1.1/DTD/svg11.dtd">
<!-- Generated by graphviz version 2.40.1 (20161225.0304)
 -->
<!-- Title: fs_content_walk_session_stats_latest Pages: 1 -->
<svg width="485pt" height="585pt"
 viewBox="0.00 0.00 485.00 585.00" xmlns="http://www.w3.org/2000/svg" xmlns:xlink="http://www.w3.org/1999/xlink">
<g id="graph0" class="graph" transform="scale(1 1) rotate(0) translate(4 581)">
<title>fs_content_walk_session_stats_latest</title>
<polygon fill="#ffffff" stroke="transparent" points="-4,4 -4,-581 481,-581 481,4 -4,4"/>
<!-- fs_content_walk_session_stats_latest -->
<g id="node1" class="node">
<title>fs_content_walk_session_stats_latest</title>
<polygon fill="#efefef" stroke="transparent" points="46.5,-495.5 46.5,-530.5 431.5,-530.5 431.5,-495.5 46.5,-495.5"/>
<polygon fill="none" stroke="#000000" points="46.5,-495.5 46.5,-530.5 431.5,-530.5 431.5,-495.5 46.5,-495.5"/>
<text text-anchor="start" x="53.4634" y="-508.3" font-family="Arial Bold" font-size="18.00" fill="#000000">fs_content_walk_session_stats_latest</text>
<text text-anchor="start" x="354.5548" y="-508.3" font-family="Arial" font-size="14.00" fill="#000000">    </text>
<text text-anchor="start" x="388.7596" y="-508.3" font-family="Arial" font-size="14.00" fill="#666666">[view]</text>
<polygon fill="none" stroke="#000000" points="46.5,-465.5 46.5,-495.5 431.5,-495.5 431.5,-465.5 46.5,-465.5"/>
<text text-anchor="start" x="53.5" y="-476.9" font-family="Arial" font-size="14.00" fill="#000000">device_id </text>
<text text-anchor="start" x="116.5168" y="-476.9" font-family="Arial" font-size="14.00" fill="#666666">[ULID]</text>
<polygon fill="none" stroke="#000000" points="46.5,-435.5 46.5,-465.5 431.5,-465.5 431.5,-435.5 46.5,-435.5"/>
<text text-anchor="start" x="53.5" y="-446.9" font-family="Arial" font-size="14.00" fill="#000000">walk_session_id </text>
<text text-anchor="start" x="159.2952" y="-446.9" font-family="Arial" font-size="14.00" fill="#666666">[ULID]</text>
<polygon fill="none" stroke="#000000" points="46.5,-405.5 46.5,-435.5 431.5,-435.5 431.5,-405.5 46.5,-405.5"/>
<text text-anchor="start" x="53.5" y="-416.9" font-family="Arial" font-size="14.00" fill="#000000">walk_session_started_at </text>
<text text-anchor="start" x="210.6514" y="-416.9" font-family="Arial" font-size="14.00" fill="#666666">[TIMESTAMP]</text>
<polygon fill="none" stroke="#000000" points="46.5,-375.5 46.5,-405.5 431.5,-405.5 431.5,-375.5 46.5,-375.5"/>
<text text-anchor="start" x="53.5" y="-386.9" font-family="Arial" font-size="14.00" fill="#000000">walk_session_finished_at </text>
<text text-anchor="start" x="216.096" y="-386.9" font-family="Arial" font-size="14.00" fill="#666666">[TIMESTAMP]</text>
<polygon fill="none" stroke="#000000" points="46.5,-345.5 46.5,-375.5 431.5,-375.5 431.5,-345.5 46.5,-345.5"/>
<text text-anchor="start" x="53.5" y="-356.9" font-family="Arial" font-size="14.00" fill="#000000">file_extension </text>
<text text-anchor="start" x="142.9698" y="-356.9" font-family="Arial" font-size="14.00" fill="#666666">[]</text>
<polygon fill="none" stroke="#000000" points="46.5,-315.5 46.5,-345.5 431.5,-345.5 431.5,-315.5 46.5,-315.5"/>
<text text-anchor="start" x="53.5" y="-326.9" font-family="Arial" font-size="14.00" fill="#000000">walk_session_path_id </text>
<text text-anchor="start" x="194.3162" y="-326.9" font-family="Arial" font-size="14.00" fill="#666666">[ULID]</text>
<polygon fill="none" stroke="#000000" points="46.5,-285.5 46.5,-315.5 431.5,-315.5 431.5,-285.5 46.5,-285.5"/>
<text text-anchor="start" x="53.5" y="-296.9" font-family="Arial" font-size="14.00" fill="#000000">walk_session_root_path </text>
<text text-anchor="start" x="207.5434" y="-296.9" font-family="Arial" font-size="14.00" fill="#666666">[TEXT]</text>
<polygon fill="none" stroke="#000000" points="46.5,-255.5 46.5,-285.5 431.5,-285.5 431.5,-255.5 46.5,-255.5"/>
<text text-anchor="start" x="53.5" y="-266.9" font-family="Arial" font-size="14.00" fill="#000000">total_file_count </text>
<text text-anchor="start" x="151.5336" y="-266.9" font-family="Arial" font-size="14.00" fill="#666666">[]</text>
<polygon fill="none" stroke="#000000" points="46.5,-225.5 46.5,-255.5 431.5,-255.5 431.5,-225.5 46.5,-225.5"/>
<text text-anchor="start" x="53.5" y="-236.9" font-family="Arial" font-size="14.00" fill="#000000">file_count_with_content </text>
<text text-anchor="start" x="203.6612" y="-236.9" font-family="Arial" font-size="14.00" fill="#666666">[]</text>
<polygon fill="none" stroke="#000000" points="46.5,-195.5 46.5,-225.5 431.5,-225.5 431.5,-195.5 46.5,-195.5"/>
<text text-anchor="start" x="53.5" y="-206.9" font-family="Arial" font-size="14.00" fill="#000000">file_count_with_frontmatter </text>
<text text-anchor="start" x="225.4242" y="-206.9" font-family="Arial" font-size="14.00" fill="#666666">[]</text>
<polygon fill="none" stroke="#000000" points="46.5,-165.5 46.5,-195.5 431.5,-195.5 431.5,-165.5 46.5,-165.5"/>
<text text-anchor="start" x="53.5" y="-176.9" font-family="Arial" font-size="14.00" fill="#000000">min_file_size_bytes </text>
<text text-anchor="start" x="179.5196" y="-176.9" font-family="Arial" font-size="14.00" fill="#666666">[]</text>
<polygon fill="none" stroke="#000000" points="46.5,-135.5 46.5,-165.5 431.5,-165.5 431.5,-135.5 46.5,-135.5"/>
<text text-anchor="start" x="53.5" y="-146.9" font-family="Arial" font-size="14.00" fill="#000000">average_file_size_bytes </text>
<text text-anchor="start" x="207.5434" y="-146.9" font-family="Arial" font-size="14.00" fill="#666666">[INT]</text>
<polygon fill="none" stroke="#000000" points="46.5,-105.5 46.5,-135.5 431.5,-135.5 431.5,-105.5 46.5,-105.5"/>
<text text-anchor="start" x="53.5" y="-116.9" font-family="Arial" font-size="14.00" fill="#000000">max_file_size_bytes </text>
<text text-anchor="start" x="183.413" y="-116.9" font-family="Arial" font-size="14.00" fill="#666666">[]</text>
<polygon fill="none" stroke="#000000" points="46.5,-75.5 46.5,-105.5 431.5,-105.5 431.5,-75.5 46.5,-75.5"/>
<text text-anchor="start" x="53.5" y="-86.9" font-family="Arial" font-size="14.00" fill="#000000">oldest_file_last_modified_datetime </text>
<text text-anchor="start" x="272.1058" y="-86.9" font-family="Arial" font-size="14.00" fill="#666666">[]</text>
<polygon fill="none" stroke="#000000" points="46.5,-45.5 46.5,-75.5 431.5,-75.5 431.5,-45.5 46.5,-45.5"/>
<text text-anchor="start" x="53.5" y="-56.9" font-family="Arial" font-size="14.00" fill="#000000">youngest_file_last_modified_datetime </text>
<text text-anchor="start" x="291.5644" y="-56.9" font-family="Arial" font-size="14.00" fill="#666666">[]</text>
<polygon fill="none" stroke="#000000" stroke-width="3" points="44.5,-44.5 44.5,-532.5 432.5,-532.5 432.5,-44.5 44.5,-44.5"/>
</g>
</g>
</svg>
