<?xml version="1.0" encoding="UTF-8" standalone="no"?>
<!DOCTYPE svg PUBLIC "-//W3C//DTD SVG 1.1//EN"
 "http://www.w3.org/Graphics/SVG/1.1/DTD/svg11.dtd">
<!-- Generated by graphviz version 2.40.1 (20161225.0304)
 -->
<!-- Title: Resource Surveillance State Schema Pages: 1 -->
<svg width="929pt" height="3704pt"
 viewBox="0.00 0.00 928.98 3704.00" xmlns="http://www.w3.org/2000/svg" xmlns:xlink="http://www.w3.org/1999/xlink">
<g id="graph0" class="graph" transform="scale(1 1) rotate(0) translate(4 3700)">
<title>Resource Surveillance State Schema</title>
<polygon fill="#ffffff" stroke="transparent" points="-4,4 -4,-3700 924.9751,-3700 924.9751,4 -4,4"/>
<!-- device -->
<g id="node1" class="node">
<title>device</title>
<polygon fill="#efefef" stroke="transparent" points="215,-462.5 215,-497.5 422,-497.5 422,-462.5 215,-462.5"/>
<polygon fill="none" stroke="#000000" points="215,-462.5 215,-497.5 422,-497.5 422,-462.5 215,-462.5"/>
<text text-anchor="start" x="256.3281" y="-475.3" font-family="Arial Bold" font-size="18.00" fill="#000000">device</text>
<text text-anchor="start" x="308.3409" y="-475.3" font-family="Arial" font-size="14.00" fill="#000000">    </text>
<text text-anchor="start" x="342.5457" y="-475.3" font-family="Arial" font-size="14.00" fill="#666666">[table]</text>
<polygon fill="none" stroke="#000000" points="215,-432.5 215,-462.5 422,-462.5 422,-432.5 215,-432.5"/>
<text text-anchor="start" x="222" y="-443.9" font-family="Arial" font-size="14.00" fill="#000000">device_id    </text>
<text text-anchor="start" x="315.331" y="-443.9" font-family="Arial" font-size="14.00" fill="#666666">[VARCHAR]</text>
<polygon fill="none" stroke="#000000" points="215,-402.5 215,-432.5 422,-432.5 422,-402.5 215,-402.5"/>
<text text-anchor="start" x="222" y="-413.9" font-family="Arial" font-size="14.00" fill="#000000">name    </text>
<text text-anchor="start" x="291.2132" y="-413.9" font-family="Arial" font-size="14.00" fill="#666666">[TEXT]</text>
<polygon fill="none" stroke="#000000" points="215,-372.5 215,-402.5 422,-402.5 422,-372.5 215,-372.5"/>
<text text-anchor="start" x="222" y="-383.9" font-family="Arial" font-size="14.00" fill="#000000">state    </text>
<text text-anchor="start" x="286.5512" y="-383.9" font-family="Arial" font-size="14.00" fill="#666666">[TEXT]</text>
<polygon fill="none" stroke="#000000" points="215,-342.5 215,-372.5 422,-372.5 422,-342.5 215,-342.5"/>
<text text-anchor="start" x="222" y="-353.9" font-family="Arial" font-size="14.00" fill="#000000">boundary    </text>
<text text-anchor="start" x="314.561" y="-353.9" font-family="Arial" font-size="14.00" fill="#666666">[TEXT]</text>
<polygon fill="none" stroke="#000000" points="215,-312.5 215,-342.5 422,-342.5 422,-312.5 215,-312.5"/>
<text text-anchor="start" x="222" y="-323.9" font-family="Arial" font-size="14.00" fill="#000000">segmentation    </text>
<text text-anchor="start" x="340.2314" y="-323.9" font-family="Arial" font-size="14.00" fill="#666666">[TEXT]</text>
<polygon fill="none" stroke="#000000" points="215,-282.5 215,-312.5 422,-312.5 422,-282.5 215,-282.5"/>
<text text-anchor="start" x="222" y="-293.9" font-family="Arial" font-size="14.00" fill="#000000">state_sysinfo    </text>
<text text-anchor="start" x="337.8962" y="-293.9" font-family="Arial" font-size="14.00" fill="#666666">[TEXT]</text>
<polygon fill="none" stroke="#000000" points="215,-252.5 215,-282.5 422,-282.5 422,-252.5 215,-252.5"/>
<text text-anchor="start" x="222" y="-263.9" font-family="Arial" font-size="14.00" fill="#000000">elaboration    </text>
<text text-anchor="start" x="325.4474" y="-263.9" font-family="Arial" font-size="14.00" fill="#666666">[TEXT]</text>
<polygon fill="none" stroke="#000000" points="215,-222.5 215,-252.5 422,-252.5 422,-222.5 215,-222.5"/>
<text text-anchor="start" x="222" y="-233.9" font-family="Arial" font-size="14.00" fill="#000000">created_at    </text>
<text text-anchor="start" x="322.3422" y="-233.9" font-family="Arial" font-size="14.00" fill="#666666">[TIMESTAMP]</text>
<polygon fill="none" stroke="#000000" points="215,-192.5 215,-222.5 422,-222.5 422,-192.5 215,-192.5"/>
<text text-anchor="start" x="222" y="-203.9" font-family="Arial" font-size="14.00" fill="#000000">created_by    </text>
<text text-anchor="start" x="325.4516" y="-203.9" font-family="Arial" font-size="14.00" fill="#666666">[TEXT]</text>
<polygon fill="none" stroke="#000000" points="215,-162.5 215,-192.5 422,-192.5 422,-162.5 215,-162.5"/>
<text text-anchor="start" x="221.6543" y="-173.9" font-family="Arial" font-size="14.00" fill="#000000">updated_at    </text>
<text text-anchor="start" x="325.9011" y="-173.9" font-family="Arial" font-size="14.00" fill="#666666">[TIMESTAMP]</text>
<polygon fill="none" stroke="#000000" points="215,-132.5 215,-162.5 422,-162.5 422,-132.5 215,-132.5"/>
<text text-anchor="start" x="222" y="-143.9" font-family="Arial" font-size="14.00" fill="#000000">updated_by    </text>
<text text-anchor="start" x="329.3562" y="-143.9" font-family="Arial" font-size="14.00" fill="#666666">[TEXT]</text>
<polygon fill="none" stroke="#000000" points="215,-102.5 215,-132.5 422,-132.5 422,-102.5 215,-102.5"/>
<text text-anchor="start" x="222" y="-113.9" font-family="Arial" font-size="14.00" fill="#000000">deleted_at    </text>
<text text-anchor="start" x="321.5708" y="-113.9" font-family="Arial" font-size="14.00" fill="#666666">[TIMESTAMP]</text>
<polygon fill="none" stroke="#000000" points="215,-72.5 215,-102.5 422,-102.5 422,-72.5 215,-72.5"/>
<text text-anchor="start" x="222" y="-83.9" font-family="Arial" font-size="14.00" fill="#000000">deleted_by    </text>
<text text-anchor="start" x="324.6802" y="-83.9" font-family="Arial" font-size="14.00" fill="#666666">[TEXT]</text>
<polygon fill="none" stroke="#000000" points="215,-42.5 215,-72.5 422,-72.5 422,-42.5 215,-42.5"/>
<text text-anchor="start" x="222" y="-53.9" font-family="Arial" font-size="14.00" fill="#000000">activity_log    </text>
<text text-anchor="start" x="325.4362" y="-53.9" font-family="Arial" font-size="14.00" fill="#666666">[TEXT]</text>
</g>
<!-- behavior -->
<g id="node2" class="node">
<title>behavior</title>
<polygon fill="#efefef" stroke="transparent" points="390,-1009.5 390,-1044.5 654,-1044.5 654,-1009.5 390,-1009.5"/>
<polygon fill="none" stroke="#000000" points="390,-1009.5 390,-1044.5 654,-1044.5 654,-1009.5 390,-1009.5"/>
<text text-anchor="start" x="451.3258" y="-1022.3" font-family="Arial Bold" font-size="18.00" fill="#000000">behavior</text>
<text text-anchor="start" x="520.3432" y="-1022.3" font-family="Arial" font-size="14.00" fill="#000000">    </text>
<text text-anchor="start" x="554.548" y="-1022.3" font-family="Arial" font-size="14.00" fill="#666666">[table]</text>
<polygon fill="none" stroke="#000000" points="390,-979.5 390,-1009.5 654,-1009.5 654,-979.5 390,-979.5"/>
<text text-anchor="start" x="397" y="-990.9" font-family="Arial" font-size="14.00" fill="#000000">behavior_id    </text>
<text text-anchor="start" x="503.5568" y="-990.9" font-family="Arial" font-size="14.00" fill="#666666">[VARCHAR]</text>
<polygon fill="none" stroke="#000000" points="390,-949.5 390,-979.5 654,-979.5 654,-949.5 390,-949.5"/>
<text text-anchor="start" x="397" y="-960.9" font-family="Arial" font-size="14.00" fill="#000000">device_id    </text>
<text text-anchor="start" x="490.331" y="-960.9" font-family="Arial" font-size="14.00" fill="#666666">[VARCHAR]</text>
<polygon fill="none" stroke="#000000" points="390,-919.5 390,-949.5 654,-949.5 654,-919.5 390,-919.5"/>
<text text-anchor="start" x="397" y="-930.9" font-family="Arial" font-size="14.00" fill="#000000">behavior_name    </text>
<text text-anchor="start" x="527.676" y="-930.9" font-family="Arial" font-size="14.00" fill="#666666">[TEXT]</text>
<polygon fill="none" stroke="#000000" points="390,-889.5 390,-919.5 654,-919.5 654,-889.5 390,-889.5"/>
<text text-anchor="start" x="397" y="-900.9" font-family="Arial" font-size="14.00" fill="#000000">behavior_conf_json    </text>
<text text-anchor="start" x="552.5778" y="-900.9" font-family="Arial" font-size="14.00" fill="#666666">[TEXT]</text>
<polygon fill="none" stroke="#000000" points="390,-859.5 390,-889.5 654,-889.5 654,-859.5 390,-859.5"/>
<text text-anchor="start" x="396.7707" y="-870.9" font-family="Arial" font-size="14.00" fill="#000000">assurance_schema_id    </text>
<text text-anchor="start" x="571.0119" y="-870.9" font-family="Arial" font-size="14.00" fill="#666666">[VARCHAR]</text>
<polygon fill="none" stroke="#000000" points="390,-829.5 390,-859.5 654,-859.5 654,-829.5 390,-829.5"/>
<text text-anchor="start" x="397" y="-840.9" font-family="Arial" font-size="14.00" fill="#000000">governance    </text>
<text text-anchor="start" x="504.3436" y="-840.9" font-family="Arial" font-size="14.00" fill="#666666">[TEXT]</text>
<polygon fill="none" stroke="#000000" points="390,-799.5 390,-829.5 654,-829.5 654,-799.5 390,-799.5"/>
<text text-anchor="start" x="397" y="-810.9" font-family="Arial" font-size="14.00" fill="#000000">created_at    </text>
<text text-anchor="start" x="497.3422" y="-810.9" font-family="Arial" font-size="14.00" fill="#666666">[TIMESTAMP]</text>
<polygon fill="none" stroke="#000000" points="390,-769.5 390,-799.5 654,-799.5 654,-769.5 390,-769.5"/>
<text text-anchor="start" x="397" y="-780.9" font-family="Arial" font-size="14.00" fill="#000000">created_by    </text>
<text text-anchor="start" x="500.4516" y="-780.9" font-family="Arial" font-size="14.00" fill="#666666">[TEXT]</text>
<polygon fill="none" stroke="#000000" points="390,-739.5 390,-769.5 654,-769.5 654,-739.5 390,-739.5"/>
<text text-anchor="start" x="397" y="-750.9" font-family="Arial" font-size="14.00" fill="#000000">updated_at    </text>
<text text-anchor="start" x="501.2468" y="-750.9" font-family="Arial" font-size="14.00" fill="#666666">[TIMESTAMP]</text>
<polygon fill="none" stroke="#000000" points="390,-709.5 390,-739.5 654,-739.5 654,-709.5 390,-709.5"/>
<text text-anchor="start" x="397" y="-720.9" font-family="Arial" font-size="14.00" fill="#000000">updated_by    </text>
<text text-anchor="start" x="504.3562" y="-720.9" font-family="Arial" font-size="14.00" fill="#666666">[TEXT]</text>
<polygon fill="none" stroke="#000000" points="390,-679.5 390,-709.5 654,-709.5 654,-679.5 390,-679.5"/>
<text text-anchor="start" x="397" y="-690.9" font-family="Arial" font-size="14.00" fill="#000000">deleted_at    </text>
<text text-anchor="start" x="496.5708" y="-690.9" font-family="Arial" font-size="14.00" fill="#666666">[TIMESTAMP]</text>
<polygon fill="none" stroke="#000000" points="390,-649.5 390,-679.5 654,-679.5 654,-649.5 390,-649.5"/>
<text text-anchor="start" x="397" y="-660.9" font-family="Arial" font-size="14.00" fill="#000000">deleted_by    </text>
<text text-anchor="start" x="499.6802" y="-660.9" font-family="Arial" font-size="14.00" fill="#666666">[TEXT]</text>
<polygon fill="none" stroke="#000000" points="390,-619.5 390,-649.5 654,-649.5 654,-619.5 390,-619.5"/>
<text text-anchor="start" x="397" y="-630.9" font-family="Arial" font-size="14.00" fill="#000000">activity_log    </text>
<text text-anchor="start" x="500.4362" y="-630.9" font-family="Arial" font-size="14.00" fill="#666666">[TEXT]</text>
</g>
<!-- behavior&#45;&gt;device -->
<g id="edge1" class="edge">
<title>behavior:device_id&#45;&gt;device:device_id</title>
<path fill="none" stroke="#000000" d="M380.1075,-962.9874C308.4005,-939.6967 360.653,-654.1886 390,-577 397.6077,-556.9902 414.3923,-561.0098 422,-541 436.768,-502.1571 463.5556,-447.5 422,-447.5"/>
<polygon fill="#000000" stroke="#000000" points="380.1149,-962.9884 389.3198,-968.9483 385.0574,-963.7442 390,-964.5 390,-964.5 390,-964.5 385.0574,-963.7442 390.6802,-960.0517 380.1149,-962.9884 380.1149,-962.9884"/>
</g>
<!-- ur_ingest_session -->
<g id="node3" class="node">
<title>ur_ingest_session</title>
<polygon fill="#efefef" stroke="transparent" points="394,-1586.5 394,-1621.5 649,-1621.5 649,-1586.5 394,-1586.5"/>
<polygon fill="none" stroke="#000000" points="394,-1586.5 394,-1621.5 649,-1621.5 649,-1586.5 394,-1586.5"/>
<text text-anchor="start" x="412.8152" y="-1599.3" font-family="Arial Bold" font-size="18.00" fill="#000000">ur_ingest_session</text>
<text text-anchor="start" x="557.8538" y="-1599.3" font-family="Arial" font-size="14.00" fill="#000000">    </text>
<text text-anchor="start" x="592.0586" y="-1599.3" font-family="Arial" font-size="14.00" fill="#666666">[table]</text>
<polygon fill="none" stroke="#000000" points="394,-1556.5 394,-1586.5 649,-1586.5 649,-1556.5 394,-1556.5"/>
<text text-anchor="start" x="400.5491" y="-1567.9" font-family="Arial" font-size="14.00" fill="#000000">ur_ingest_session_id    </text>
<text text-anchor="start" x="566.2335" y="-1567.9" font-family="Arial" font-size="14.00" fill="#666666">[VARCHAR]</text>
<polygon fill="none" stroke="#000000" points="394,-1526.5 394,-1556.5 649,-1556.5 649,-1526.5 394,-1526.5"/>
<text text-anchor="start" x="401" y="-1537.9" font-family="Arial" font-size="14.00" fill="#000000">device_id    </text>
<text text-anchor="start" x="494.331" y="-1537.9" font-family="Arial" font-size="14.00" fill="#666666">[VARCHAR]</text>
<polygon fill="none" stroke="#000000" points="394,-1496.5 394,-1526.5 649,-1526.5 649,-1496.5 394,-1496.5"/>
<text text-anchor="start" x="401" y="-1507.9" font-family="Arial" font-size="14.00" fill="#000000">behavior_id    </text>
<text text-anchor="start" x="507.5568" y="-1507.9" font-family="Arial" font-size="14.00" fill="#666666">[VARCHAR]</text>
<polygon fill="none" stroke="#000000" points="394,-1466.5 394,-1496.5 649,-1496.5 649,-1466.5 394,-1466.5"/>
<text text-anchor="start" x="401" y="-1477.9" font-family="Arial" font-size="14.00" fill="#000000">behavior_json    </text>
<text text-anchor="start" x="522.3394" y="-1477.9" font-family="Arial" font-size="14.00" fill="#666666">[TEXT]</text>
<polygon fill="none" stroke="#000000" points="394,-1436.5 394,-1466.5 649,-1466.5 649,-1436.5 394,-1436.5"/>
<text text-anchor="start" x="401" y="-1447.9" font-family="Arial" font-size="14.00" fill="#000000">ingest_started_at    </text>
<text text-anchor="start" x="542.5778" y="-1447.9" font-family="Arial" font-size="14.00" fill="#666666">[TIMESTAMP]</text>
<polygon fill="none" stroke="#000000" points="394,-1406.5 394,-1436.5 649,-1436.5 649,-1406.5 394,-1406.5"/>
<text text-anchor="start" x="401" y="-1417.9" font-family="Arial" font-size="14.00" fill="#000000">ingest_finished_at    </text>
<text text-anchor="start" x="548.0224" y="-1417.9" font-family="Arial" font-size="14.00" fill="#666666">[TIMESTAMP]</text>
<polygon fill="none" stroke="#000000" points="394,-1376.5 394,-1406.5 649,-1406.5 649,-1376.5 394,-1376.5"/>
<text text-anchor="start" x="401" y="-1387.9" font-family="Arial" font-size="14.00" fill="#000000">elaboration    </text>
<text text-anchor="start" x="504.4474" y="-1387.9" font-family="Arial" font-size="14.00" fill="#666666">[TEXT]</text>
<polygon fill="none" stroke="#000000" points="394,-1346.5 394,-1376.5 649,-1376.5 649,-1346.5 394,-1346.5"/>
<text text-anchor="start" x="401" y="-1357.9" font-family="Arial" font-size="14.00" fill="#000000">created_at    </text>
<text text-anchor="start" x="501.3422" y="-1357.9" font-family="Arial" font-size="14.00" fill="#666666">[TIMESTAMP]</text>
<polygon fill="none" stroke="#000000" points="394,-1316.5 394,-1346.5 649,-1346.5 649,-1316.5 394,-1316.5"/>
<text text-anchor="start" x="401" y="-1327.9" font-family="Arial" font-size="14.00" fill="#000000">created_by    </text>
<text text-anchor="start" x="504.4516" y="-1327.9" font-family="Arial" font-size="14.00" fill="#666666">[TEXT]</text>
<polygon fill="none" stroke="#000000" points="394,-1286.5 394,-1316.5 649,-1316.5 649,-1286.5 394,-1286.5"/>
<text text-anchor="start" x="401" y="-1297.9" font-family="Arial" font-size="14.00" fill="#000000">updated_at    </text>
<text text-anchor="start" x="505.2468" y="-1297.9" font-family="Arial" font-size="14.00" fill="#666666">[TIMESTAMP]</text>
<polygon fill="none" stroke="#000000" points="394,-1256.5 394,-1286.5 649,-1286.5 649,-1256.5 394,-1256.5"/>
<text text-anchor="start" x="401" y="-1267.9" font-family="Arial" font-size="14.00" fill="#000000">updated_by    </text>
<text text-anchor="start" x="508.3562" y="-1267.9" font-family="Arial" font-size="14.00" fill="#666666">[TEXT]</text>
<polygon fill="none" stroke="#000000" points="394,-1226.5 394,-1256.5 649,-1256.5 649,-1226.5 394,-1226.5"/>
<text text-anchor="start" x="401" y="-1237.9" font-family="Arial" font-size="14.00" fill="#000000">deleted_at    </text>
<text text-anchor="start" x="500.5708" y="-1237.9" font-family="Arial" font-size="14.00" fill="#666666">[TIMESTAMP]</text>
<polygon fill="none" stroke="#000000" points="394,-1196.5 394,-1226.5 649,-1226.5 649,-1196.5 394,-1196.5"/>
<text text-anchor="start" x="401" y="-1207.9" font-family="Arial" font-size="14.00" fill="#000000">deleted_by    </text>
<text text-anchor="start" x="503.6802" y="-1207.9" font-family="Arial" font-size="14.00" fill="#666666">[TEXT]</text>
<polygon fill="none" stroke="#000000" points="394,-1166.5 394,-1196.5 649,-1196.5 649,-1166.5 394,-1166.5"/>
<text text-anchor="start" x="401" y="-1177.9" font-family="Arial" font-size="14.00" fill="#000000">activity_log    </text>
<text text-anchor="start" x="504.4362" y="-1177.9" font-family="Arial" font-size="14.00" fill="#666666">[TEXT]</text>
</g>
<!-- ur_ingest_session&#45;&gt;device -->
<g id="edge3" class="edge">
<title>ur_ingest_session:device_id&#45;&gt;device:device_id</title>
<path fill="none" stroke="#000000" d="M383.8528,-1539.4717C268.0145,-1491.807 309.8819,-619.6422 338,-577 360.3595,-543.0909 399.6405,-574.9091 422,-541 444.876,-506.3077 463.5556,-447.5 422,-447.5"/>
<polygon fill="#000000" stroke="#000000" points="384.194,-1539.5398 393.1179,-1545.9127 389.097,-1540.5199 394,-1541.5 394,-1541.5 394,-1541.5 389.097,-1540.5199 394.8821,-1537.0873 384.194,-1539.5398 384.194,-1539.5398"/>
</g>
<!-- ur_ingest_session&#45;&gt;behavior -->
<g id="edge2" class="edge">
<title>ur_ingest_session:behavior_id&#45;&gt;behavior:behavior_id</title>
<path fill="none" stroke="#000000" d="M659.3053,-1511.1783C818.774,-1500.9878 759.7672,-1251.2283 649,-1124 572.6879,-1036.3471 466.3121,-1175.6529 390,-1088 362.7134,-1056.6583 348.4444,-994.5 390,-994.5"/>
<polygon fill="#000000" stroke="#000000" points="658.9951,-1511.1879 648.8595,-1507.0022 653.9976,-1511.3439 649,-1511.5 649,-1511.5 649,-1511.5 653.9976,-1511.3439 649.1405,-1515.9978 658.9951,-1511.1879 658.9951,-1511.1879"/>
</g>
<!-- ur_ingest_session_fs_path -->
<g id="node4" class="node">
<title>ur_ingest_session_fs_path</title>
<polygon fill="#efefef" stroke="transparent" points="379,-2073.5 379,-2108.5 688,-2108.5 688,-2073.5 379,-2073.5"/>
<polygon fill="none" stroke="#000000" points="379,-2073.5 379,-2108.5 688,-2108.5 688,-2073.5 379,-2073.5"/>
<text text-anchor="start" x="390.2975" y="-2086.3" font-family="Arial Bold" font-size="18.00" fill="#000000">ur_ingest_session_fs_path</text>
<text text-anchor="start" x="604.3715" y="-2086.3" font-family="Arial" font-size="14.00" fill="#000000">    </text>
<text text-anchor="start" x="638.5763" y="-2086.3" font-family="Arial" font-size="14.00" fill="#666666">[table]</text>
<polygon fill="none" stroke="#000000" points="379,-2043.5 379,-2073.5 688,-2073.5 688,-2043.5 379,-2043.5"/>
<text text-anchor="start" x="385.702" y="-2054.9" font-family="Arial" font-size="14.00" fill="#000000">ur_ingest_session_fs_path_id    </text>
<text text-anchor="start" x="605.0806" y="-2054.9" font-family="Arial" font-size="14.00" fill="#666666">[VARCHAR]</text>
<polygon fill="none" stroke="#000000" points="379,-2013.5 379,-2043.5 688,-2043.5 688,-2013.5 379,-2013.5"/>
<text text-anchor="start" x="386" y="-2024.9" font-family="Arial" font-size="14.00" fill="#000000">ingest_session_id    </text>
<text text-anchor="start" x="531.4586" y="-2024.9" font-family="Arial" font-size="14.00" fill="#666666">[VARCHAR]</text>
<polygon fill="none" stroke="#000000" points="379,-1983.5 379,-2013.5 688,-2013.5 688,-1983.5 379,-1983.5"/>
<text text-anchor="start" x="386" y="-1994.9" font-family="Arial" font-size="14.00" fill="#000000">root_path    </text>
<text text-anchor="start" x="479.3422" y="-1994.9" font-family="Arial" font-size="14.00" fill="#666666">[TEXT]</text>
<polygon fill="none" stroke="#000000" points="379,-1953.5 379,-1983.5 688,-1983.5 688,-1953.5 379,-1953.5"/>
<text text-anchor="start" x="386" y="-1964.9" font-family="Arial" font-size="14.00" fill="#000000">elaboration    </text>
<text text-anchor="start" x="489.4474" y="-1964.9" font-family="Arial" font-size="14.00" fill="#666666">[TEXT]</text>
<polygon fill="none" stroke="#000000" points="379,-1923.5 379,-1953.5 688,-1953.5 688,-1923.5 379,-1923.5"/>
<text text-anchor="start" x="386" y="-1934.9" font-family="Arial" font-size="14.00" fill="#000000">created_at    </text>
<text text-anchor="start" x="486.3422" y="-1934.9" font-family="Arial" font-size="14.00" fill="#666666">[TIMESTAMP]</text>
<polygon fill="none" stroke="#000000" points="379,-1893.5 379,-1923.5 688,-1923.5 688,-1893.5 379,-1893.5"/>
<text text-anchor="start" x="386" y="-1904.9" font-family="Arial" font-size="14.00" fill="#000000">created_by    </text>
<text text-anchor="start" x="489.4516" y="-1904.9" font-family="Arial" font-size="14.00" fill="#666666">[TEXT]</text>
<polygon fill="none" stroke="#000000" points="379,-1863.5 379,-1893.5 688,-1893.5 688,-1863.5 379,-1863.5"/>
<text text-anchor="start" x="386" y="-1874.9" font-family="Arial" font-size="14.00" fill="#000000">updated_at    </text>
<text text-anchor="start" x="490.2468" y="-1874.9" font-family="Arial" font-size="14.00" fill="#666666">[TIMESTAMP]</text>
<polygon fill="none" stroke="#000000" points="379,-1833.5 379,-1863.5 688,-1863.5 688,-1833.5 379,-1833.5"/>
<text text-anchor="start" x="386" y="-1844.9" font-family="Arial" font-size="14.00" fill="#000000">updated_by    </text>
<text text-anchor="start" x="493.3562" y="-1844.9" font-family="Arial" font-size="14.00" fill="#666666">[TEXT]</text>
<polygon fill="none" stroke="#000000" points="379,-1803.5 379,-1833.5 688,-1833.5 688,-1803.5 379,-1803.5"/>
<text text-anchor="start" x="386" y="-1814.9" font-family="Arial" font-size="14.00" fill="#000000">deleted_at    </text>
<text text-anchor="start" x="485.5708" y="-1814.9" font-family="Arial" font-size="14.00" fill="#666666">[TIMESTAMP]</text>
<polygon fill="none" stroke="#000000" points="379,-1773.5 379,-1803.5 688,-1803.5 688,-1773.5 379,-1773.5"/>
<text text-anchor="start" x="386" y="-1784.9" font-family="Arial" font-size="14.00" fill="#000000">deleted_by    </text>
<text text-anchor="start" x="488.6802" y="-1784.9" font-family="Arial" font-size="14.00" fill="#666666">[TEXT]</text>
<polygon fill="none" stroke="#000000" points="379,-1743.5 379,-1773.5 688,-1773.5 688,-1743.5 379,-1743.5"/>
<text text-anchor="start" x="386" y="-1754.9" font-family="Arial" font-size="14.00" fill="#000000">activity_log    </text>
<text text-anchor="start" x="489.4362" y="-1754.9" font-family="Arial" font-size="14.00" fill="#666666">[TEXT]</text>
</g>
<!-- ur_ingest_session_fs_path&#45;&gt;ur_ingest_session -->
<g id="edge4" class="edge">
<title>ur_ingest_session_fs_path:ingest_session_id&#45;&gt;ur_ingest_session:ur_ingest_session_id</title>
<path fill="none" stroke="#000000" d="M369.0287,-2026.6063C308.7028,-2002.3846 333.4003,-1753.0832 379,-1701 458.7465,-1609.9149 569.2535,-1756.0851 649,-1665 676.3737,-1633.7343 690.5556,-1571.5 649,-1571.5"/>
<polygon fill="#000000" stroke="#000000" points="369.1756,-2026.6341 378.1604,-2032.921 374.0878,-2027.5671 379,-2028.5 379,-2028.5 379,-2028.5 374.0878,-2027.5671 379.8396,-2024.079 369.1756,-2026.6341 369.1756,-2026.6341"/>
</g>
<!-- uniform_resource -->
<g id="node5" class="node">
<title>uniform_resource</title>
<polygon fill="#efefef" stroke="transparent" points="181,-2830.5 181,-2865.5 432,-2865.5 432,-2830.5 181,-2830.5"/>
<polygon fill="none" stroke="#000000" points="181,-2830.5 181,-2865.5 432,-2865.5 432,-2830.5 181,-2830.5"/>
<text text-anchor="start" x="200.3271" y="-2843.3" font-family="Arial Bold" font-size="18.00" fill="#000000">uniform_resource</text>
<text text-anchor="start" x="340.3419" y="-2843.3" font-family="Arial" font-size="14.00" fill="#000000">    </text>
<text text-anchor="start" x="374.5467" y="-2843.3" font-family="Arial" font-size="14.00" fill="#666666">[table]</text>
<polygon fill="none" stroke="#000000" points="181,-2800.5 181,-2830.5 432,-2830.5 432,-2800.5 181,-2800.5"/>
<text text-anchor="start" x="187.5028" y="-2811.9" font-family="Arial" font-size="14.00" fill="#000000">uniform_resource_id    </text>
<text text-anchor="start" x="349.2798" y="-2811.9" font-family="Arial" font-size="14.00" fill="#666666">[VARCHAR]</text>
<polygon fill="none" stroke="#000000" points="181,-2770.5 181,-2800.5 432,-2800.5 432,-2770.5 181,-2770.5"/>
<text text-anchor="start" x="188" y="-2781.9" font-family="Arial" font-size="14.00" fill="#000000">device_id    </text>
<text text-anchor="start" x="281.331" y="-2781.9" font-family="Arial" font-size="14.00" fill="#666666">[VARCHAR]</text>
<polygon fill="none" stroke="#000000" points="181,-2740.5 181,-2770.5 432,-2770.5 432,-2740.5 181,-2740.5"/>
<text text-anchor="start" x="188" y="-2751.9" font-family="Arial" font-size="14.00" fill="#000000">ingest_session_id    </text>
<text text-anchor="start" x="333.4586" y="-2751.9" font-family="Arial" font-size="14.00" fill="#666666">[VARCHAR]</text>
<polygon fill="none" stroke="#000000" points="181,-2710.5 181,-2740.5 432,-2740.5 432,-2710.5 181,-2710.5"/>
<text text-anchor="start" x="188" y="-2721.9" font-family="Arial" font-size="14.00" fill="#000000">ingest_fs_path_id    </text>
<text text-anchor="start" x="331.9158" y="-2721.9" font-family="Arial" font-size="14.00" fill="#666666">[VARCHAR]</text>
<polygon fill="none" stroke="#000000" points="181,-2680.5 181,-2710.5 432,-2710.5 432,-2680.5 181,-2680.5"/>
<text text-anchor="start" x="188" y="-2691.9" font-family="Arial" font-size="14.00" fill="#000000">uri    </text>
<text text-anchor="start" x="237.7546" y="-2691.9" font-family="Arial" font-size="14.00" fill="#666666">[TEXT]</text>
<polygon fill="none" stroke="#000000" points="181,-2650.5 181,-2680.5 432,-2680.5 432,-2650.5 181,-2650.5"/>
<text text-anchor="start" x="188" y="-2661.9" font-family="Arial" font-size="14.00" fill="#000000">content_digest    </text>
<text text-anchor="start" x="313.244" y="-2661.9" font-family="Arial" font-size="14.00" fill="#666666">[TEXT]</text>
<polygon fill="none" stroke="#000000" points="181,-2620.5 181,-2650.5 432,-2650.5 432,-2620.5 181,-2620.5"/>
<text text-anchor="start" x="188" y="-2631.9" font-family="Arial" font-size="14.00" fill="#000000">content    </text>
<text text-anchor="start" x="268.1164" y="-2631.9" font-family="Arial" font-size="14.00" fill="#666666">[BLOB]</text>
<polygon fill="none" stroke="#000000" points="181,-2590.5 181,-2620.5 432,-2620.5 432,-2590.5 181,-2590.5"/>
<text text-anchor="start" x="188" y="-2601.9" font-family="Arial" font-size="14.00" fill="#000000">nature    </text>
<text text-anchor="start" x="261.8864" y="-2601.9" font-family="Arial" font-size="14.00" fill="#666666">[TEXT]</text>
<polygon fill="none" stroke="#000000" points="181,-2560.5 181,-2590.5 432,-2590.5 432,-2560.5 181,-2560.5"/>
<text text-anchor="start" x="188" y="-2571.9" font-family="Arial" font-size="14.00" fill="#000000">size_bytes    </text>
<text text-anchor="start" x="288.3324" y="-2571.9" font-family="Arial" font-size="14.00" fill="#666666">[INTEGER]</text>
<polygon fill="none" stroke="#000000" points="181,-2530.5 181,-2560.5 432,-2560.5 432,-2530.5 181,-2530.5"/>
<text text-anchor="start" x="188" y="-2541.9" font-family="Arial" font-size="14.00" fill="#000000">last_modified_at    </text>
<text text-anchor="start" x="324.1178" y="-2541.9" font-family="Arial" font-size="14.00" fill="#666666">[INTEGER]</text>
<polygon fill="none" stroke="#000000" points="181,-2500.5 181,-2530.5 432,-2530.5 432,-2500.5 181,-2500.5"/>
<text text-anchor="start" x="188" y="-2511.9" font-family="Arial" font-size="14.00" fill="#000000">content_fm_body_attrs    </text>
<text text-anchor="start" x="364.5876" y="-2511.9" font-family="Arial" font-size="14.00" fill="#666666">[TEXT]</text>
<polygon fill="none" stroke="#000000" points="181,-2470.5 181,-2500.5 432,-2500.5 432,-2470.5 181,-2470.5"/>
<text text-anchor="start" x="188" y="-2481.9" font-family="Arial" font-size="14.00" fill="#000000">frontmatter    </text>
<text text-anchor="start" x="289.8794" y="-2481.9" font-family="Arial" font-size="14.00" fill="#666666">[TEXT]</text>
<polygon fill="none" stroke="#000000" points="181,-2440.5 181,-2470.5 432,-2470.5 432,-2440.5 181,-2440.5"/>
<text text-anchor="start" x="188" y="-2451.9" font-family="Arial" font-size="14.00" fill="#000000">elaboration    </text>
<text text-anchor="start" x="291.4474" y="-2451.9" font-family="Arial" font-size="14.00" fill="#666666">[TEXT]</text>
<polygon fill="none" stroke="#000000" points="181,-2410.5 181,-2440.5 432,-2440.5 432,-2410.5 181,-2410.5"/>
<text text-anchor="start" x="188" y="-2421.9" font-family="Arial" font-size="14.00" fill="#000000">created_at    </text>
<text text-anchor="start" x="288.3422" y="-2421.9" font-family="Arial" font-size="14.00" fill="#666666">[TIMESTAMP]</text>
<polygon fill="none" stroke="#000000" points="181,-2380.5 181,-2410.5 432,-2410.5 432,-2380.5 181,-2380.5"/>
<text text-anchor="start" x="188" y="-2391.9" font-family="Arial" font-size="14.00" fill="#000000">created_by    </text>
<text text-anchor="start" x="291.4516" y="-2391.9" font-family="Arial" font-size="14.00" fill="#666666">[TEXT]</text>
<polygon fill="none" stroke="#000000" points="181,-2350.5 181,-2380.5 432,-2380.5 432,-2350.5 181,-2350.5"/>
<text text-anchor="start" x="188" y="-2361.9" font-family="Arial" font-size="14.00" fill="#000000">updated_at    </text>
<text text-anchor="start" x="292.2468" y="-2361.9" font-family="Arial" font-size="14.00" fill="#666666">[TIMESTAMP]</text>
<polygon fill="none" stroke="#000000" points="181,-2320.5 181,-2350.5 432,-2350.5 432,-2320.5 181,-2320.5"/>
<text text-anchor="start" x="188" y="-2331.9" font-family="Arial" font-size="14.00" fill="#000000">updated_by    </text>
<text text-anchor="start" x="295.3562" y="-2331.9" font-family="Arial" font-size="14.00" fill="#666666">[TEXT]</text>
<polygon fill="none" stroke="#000000" points="181,-2290.5 181,-2320.5 432,-2320.5 432,-2290.5 181,-2290.5"/>
<text text-anchor="start" x="188" y="-2301.9" font-family="Arial" font-size="14.00" fill="#000000">deleted_at    </text>
<text text-anchor="start" x="287.5708" y="-2301.9" font-family="Arial" font-size="14.00" fill="#666666">[TIMESTAMP]</text>
<polygon fill="none" stroke="#000000" points="181,-2260.5 181,-2290.5 432,-2290.5 432,-2260.5 181,-2260.5"/>
<text text-anchor="start" x="188" y="-2271.9" font-family="Arial" font-size="14.00" fill="#000000">deleted_by    </text>
<text text-anchor="start" x="290.6802" y="-2271.9" font-family="Arial" font-size="14.00" fill="#666666">[TEXT]</text>
<polygon fill="none" stroke="#000000" points="181,-2230.5 181,-2260.5 432,-2260.5 432,-2230.5 181,-2230.5"/>
<text text-anchor="start" x="188" y="-2241.9" font-family="Arial" font-size="14.00" fill="#000000">activity_log    </text>
<text text-anchor="start" x="291.4362" y="-2241.9" font-family="Arial" font-size="14.00" fill="#666666">[TEXT]</text>
</g>
<!-- uniform_resource&#45;&gt;device -->
<g id="edge7" class="edge">
<title>uniform_resource:device_id&#45;&gt;device:device_id</title>
<path fill="none" stroke="#000000" d="M170.8775,-2784.2916C-77.8695,-2724.2599 -41.3801,-447.5 215,-447.5"/>
<polygon fill="#000000" stroke="#000000" points="171.0705,-2784.3146 180.4666,-2789.9683 176.0352,-2784.9073 181,-2785.5 181,-2785.5 181,-2785.5 176.0352,-2784.9073 181.5334,-2781.0317 171.0705,-2784.3146 171.0705,-2784.3146"/>
</g>
<!-- uniform_resource&#45;&gt;ur_ingest_session -->
<g id="edge6" class="edge">
<title>uniform_resource:ingest_session_id&#45;&gt;ur_ingest_session:ur_ingest_session_id</title>
<path fill="none" stroke="#000000" d="M441.2414,-2751.337C492.2496,-2702.3456 466.7879,-2236.5543 432,-2188 403.0225,-2147.5555 354.9775,-2192.4445 326,-2152 267.6289,-2070.5303 302.0055,-1798.3075 326,-1701 341.5637,-1637.8827 328.9921,-1571.5 394,-1571.5"/>
<polygon fill="#000000" stroke="#000000" points="441.1176,-2751.3927 430.1517,-2751.3971 436.5588,-2753.4464 432,-2755.5 432,-2755.5 432,-2755.5 436.5588,-2753.4464 433.8483,-2759.6029 441.1176,-2751.3927 441.1176,-2751.3927"/>
</g>
<!-- uniform_resource&#45;&gt;ur_ingest_session_fs_path -->
<g id="edge5" class="edge">
<title>uniform_resource:ingest_fs_path_id&#45;&gt;ur_ingest_session_fs_path:ur_ingest_session_fs_path_id</title>
<path fill="none" stroke="#000000" d="M442.2637,-2725.2913C667.1691,-2715.9625 542.171,-2396.0158 432,-2188 418.6723,-2162.8358 392.3277,-2177.1642 379,-2152 359.5505,-2115.277 337.4444,-2058.5 379,-2058.5"/>
<polygon fill="#000000" stroke="#000000" points="441.9979,-2725.2966 431.9085,-2721.0009 436.999,-2725.3983 432,-2725.5 432,-2725.5 432,-2725.5 436.999,-2725.3983 432.0915,-2729.9991 441.9979,-2725.2966 441.9979,-2725.2966"/>
</g>
<!-- uniform_resource_transform -->
<g id="node6" class="node">
<title>uniform_resource_transform</title>
<polygon fill="#efefef" stroke="transparent" points="43,-3527.5 43,-3562.5 361,-3562.5 361,-3527.5 43,-3527.5"/>
<polygon fill="none" stroke="#000000" points="43,-3527.5 43,-3562.5 361,-3562.5 361,-3527.5 43,-3527.5"/>
<text text-anchor="start" x="52.8242" y="-3540.3" font-family="Arial Bold" font-size="18.00" fill="#000000">uniform_resource_transform</text>
<text text-anchor="start" x="278.8448" y="-3540.3" font-family="Arial" font-size="14.00" fill="#000000">    </text>
<text text-anchor="start" x="313.0496" y="-3540.3" font-family="Arial" font-size="14.00" fill="#666666">[table]</text>
<polygon fill="none" stroke="#000000" points="43,-3497.5 43,-3527.5 361,-3527.5 361,-3497.5 43,-3497.5"/>
<text text-anchor="start" x="49.5561" y="-3508.9" font-family="Arial" font-size="14.00" fill="#000000">uniform_resource_transform_id    </text>
<text text-anchor="start" x="278.2265" y="-3508.9" font-family="Arial" font-size="14.00" fill="#666666">[VARCHAR]</text>
<polygon fill="none" stroke="#000000" points="43,-3467.5 43,-3497.5 361,-3497.5 361,-3467.5 43,-3467.5"/>
<text text-anchor="start" x="50" y="-3478.9" font-family="Arial" font-size="14.00" fill="#000000">uniform_resource_id    </text>
<text text-anchor="start" x="211.777" y="-3478.9" font-family="Arial" font-size="14.00" fill="#666666">[VARCHAR]</text>
<polygon fill="none" stroke="#000000" points="43,-3437.5 43,-3467.5 361,-3467.5 361,-3437.5 43,-3437.5"/>
<text text-anchor="start" x="50" y="-3448.9" font-family="Arial" font-size="14.00" fill="#000000">uri    </text>
<text text-anchor="start" x="99.7546" y="-3448.9" font-family="Arial" font-size="14.00" fill="#666666">[TEXT]</text>
<polygon fill="none" stroke="#000000" points="43,-3407.5 43,-3437.5 361,-3437.5 361,-3407.5 43,-3407.5"/>
<text text-anchor="start" x="50" y="-3418.9" font-family="Arial" font-size="14.00" fill="#000000">content_digest    </text>
<text text-anchor="start" x="175.244" y="-3418.9" font-family="Arial" font-size="14.00" fill="#666666">[TEXT]</text>
<polygon fill="none" stroke="#000000" points="43,-3377.5 43,-3407.5 361,-3407.5 361,-3377.5 43,-3377.5"/>
<text text-anchor="start" x="50" y="-3388.9" font-family="Arial" font-size="14.00" fill="#000000">content    </text>
<text text-anchor="start" x="130.1164" y="-3388.9" font-family="Arial" font-size="14.00" fill="#666666">[BLOB]</text>
<polygon fill="none" stroke="#000000" points="43,-3347.5 43,-3377.5 361,-3377.5 361,-3347.5 43,-3347.5"/>
<text text-anchor="start" x="50" y="-3358.9" font-family="Arial" font-size="14.00" fill="#000000">nature    </text>
<text text-anchor="start" x="123.8864" y="-3358.9" font-family="Arial" font-size="14.00" fill="#666666">[TEXT]</text>
<polygon fill="none" stroke="#000000" points="43,-3317.5 43,-3347.5 361,-3347.5 361,-3317.5 43,-3317.5"/>
<text text-anchor="start" x="50" y="-3328.9" font-family="Arial" font-size="14.00" fill="#000000">size_bytes    </text>
<text text-anchor="start" x="150.3324" y="-3328.9" font-family="Arial" font-size="14.00" fill="#666666">[INTEGER]</text>
<polygon fill="none" stroke="#000000" points="43,-3287.5 43,-3317.5 361,-3317.5 361,-3287.5 43,-3287.5"/>
<text text-anchor="start" x="50" y="-3298.9" font-family="Arial" font-size="14.00" fill="#000000">elaboration    </text>
<text text-anchor="start" x="153.4474" y="-3298.9" font-family="Arial" font-size="14.00" fill="#666666">[TEXT]</text>
<polygon fill="none" stroke="#000000" points="43,-3257.5 43,-3287.5 361,-3287.5 361,-3257.5 43,-3257.5"/>
<text text-anchor="start" x="50" y="-3268.9" font-family="Arial" font-size="14.00" fill="#000000">created_at    </text>
<text text-anchor="start" x="150.3422" y="-3268.9" font-family="Arial" font-size="14.00" fill="#666666">[TIMESTAMP]</text>
<polygon fill="none" stroke="#000000" points="43,-3227.5 43,-3257.5 361,-3257.5 361,-3227.5 43,-3227.5"/>
<text text-anchor="start" x="50" y="-3238.9" font-family="Arial" font-size="14.00" fill="#000000">created_by    </text>
<text text-anchor="start" x="153.4516" y="-3238.9" font-family="Arial" font-size="14.00" fill="#666666">[TEXT]</text>
<polygon fill="none" stroke="#000000" points="43,-3197.5 43,-3227.5 361,-3227.5 361,-3197.5 43,-3197.5"/>
<text text-anchor="start" x="50" y="-3208.9" font-family="Arial" font-size="14.00" fill="#000000">updated_at    </text>
<text text-anchor="start" x="154.2468" y="-3208.9" font-family="Arial" font-size="14.00" fill="#666666">[TIMESTAMP]</text>
<polygon fill="none" stroke="#000000" points="43,-3167.5 43,-3197.5 361,-3197.5 361,-3167.5 43,-3167.5"/>
<text text-anchor="start" x="50" y="-3178.9" font-family="Arial" font-size="14.00" fill="#000000">updated_by    </text>
<text text-anchor="start" x="157.3562" y="-3178.9" font-family="Arial" font-size="14.00" fill="#666666">[TEXT]</text>
<polygon fill="none" stroke="#000000" points="43,-3137.5 43,-3167.5 361,-3167.5 361,-3137.5 43,-3137.5"/>
<text text-anchor="start" x="50" y="-3148.9" font-family="Arial" font-size="14.00" fill="#000000">deleted_at    </text>
<text text-anchor="start" x="149.5708" y="-3148.9" font-family="Arial" font-size="14.00" fill="#666666">[TIMESTAMP]</text>
<polygon fill="none" stroke="#000000" points="43,-3107.5 43,-3137.5 361,-3137.5 361,-3107.5 43,-3107.5"/>
<text text-anchor="start" x="50" y="-3118.9" font-family="Arial" font-size="14.00" fill="#000000">deleted_by    </text>
<text text-anchor="start" x="152.6802" y="-3118.9" font-family="Arial" font-size="14.00" fill="#666666">[TEXT]</text>
<polygon fill="none" stroke="#000000" points="43,-3077.5 43,-3107.5 361,-3107.5 361,-3077.5 43,-3077.5"/>
<text text-anchor="start" x="50" y="-3088.9" font-family="Arial" font-size="14.00" fill="#000000">activity_log    </text>
<text text-anchor="start" x="153.4362" y="-3088.9" font-family="Arial" font-size="14.00" fill="#666666">[TEXT]</text>
</g>
<!-- uniform_resource_transform&#45;&gt;uniform_resource -->
<g id="edge8" class="edge">
<title>uniform_resource_transform:uniform_resource_id&#45;&gt;uniform_resource:uniform_resource_id</title>
<path fill="none" stroke="#000000" d="M369.9173,-3477.3867C407.1849,-3430.5082 382.4374,-3076.1739 361,-3035 315.9031,-2948.3844 226.0969,-2995.6156 181,-2909 161.8092,-2872.1411 139.4444,-2815.5 181,-2815.5"/>
<polygon fill="#000000" stroke="#000000" points="369.675,-3477.5255 358.7615,-3478.5963 365.3375,-3480.0128 361,-3482.5 361,-3482.5 361,-3482.5 365.3375,-3480.0128 363.2385,-3486.4037 369.675,-3477.5255 369.675,-3477.5255"/>
</g>
<!-- ur_ingest_session_fs_path_entry -->
<g id="node7" class="node">
<title>ur_ingest_session_fs_path_entry</title>
<polygon fill="#efefef" stroke="transparent" points="465,-3617.5 465,-3652.5 815,-3652.5 815,-3617.5 465,-3617.5"/>
<polygon fill="none" stroke="#000000" points="465,-3617.5 465,-3652.5 815,-3652.5 815,-3617.5 465,-3617.5"/>
<text text-anchor="start" x="471.791" y="-3630.3" font-family="Arial Bold" font-size="18.00" fill="#000000">ur_ingest_session_fs_path_entry</text>
<text text-anchor="start" x="735.878" y="-3630.3" font-family="Arial" font-size="14.00" fill="#000000">    </text>
<text text-anchor="start" x="770.0828" y="-3630.3" font-family="Arial" font-size="14.00" fill="#666666">[table]</text>
<polygon fill="none" stroke="#000000" points="465,-3587.5 465,-3617.5 815,-3617.5 815,-3587.5 465,-3587.5"/>
<text text-anchor="start" x="472" y="-3598.9" font-family="Arial" font-size="14.00" fill="#000000">ur_ingest_session_fs_path_entry_id    </text>
<text text-anchor="start" x="730.2776" y="-3598.9" font-family="Arial" font-size="14.00" fill="#666666">[VARCHAR]</text>
<polygon fill="none" stroke="#000000" points="465,-3557.5 465,-3587.5 815,-3587.5 815,-3557.5 465,-3557.5"/>
<text text-anchor="start" x="472" y="-3568.9" font-family="Arial" font-size="14.00" fill="#000000">ingest_session_id    </text>
<text text-anchor="start" x="617.4586" y="-3568.9" font-family="Arial" font-size="14.00" fill="#666666">[VARCHAR]</text>
<polygon fill="none" stroke="#000000" points="465,-3527.5 465,-3557.5 815,-3557.5 815,-3527.5 465,-3527.5"/>
<text text-anchor="start" x="472" y="-3538.9" font-family="Arial" font-size="14.00" fill="#000000">ingest_fs_path_id    </text>
<text text-anchor="start" x="615.9158" y="-3538.9" font-family="Arial" font-size="14.00" fill="#666666">[VARCHAR]</text>
<polygon fill="none" stroke="#000000" points="465,-3497.5 465,-3527.5 815,-3527.5 815,-3497.5 465,-3497.5"/>
<text text-anchor="start" x="472" y="-3508.9" font-family="Arial" font-size="14.00" fill="#000000">uniform_resource_id    </text>
<text text-anchor="start" x="633.777" y="-3508.9" font-family="Arial" font-size="14.00" fill="#666666">[VARCHAR]</text>
<polygon fill="none" stroke="#000000" points="465,-3467.5 465,-3497.5 815,-3497.5 815,-3467.5 465,-3467.5"/>
<text text-anchor="start" x="472" y="-3478.9" font-family="Arial" font-size="14.00" fill="#000000">file_path_abs    </text>
<text text-anchor="start" x="589.46" y="-3478.9" font-family="Arial" font-size="14.00" fill="#666666">[TEXT]</text>
<polygon fill="none" stroke="#000000" points="465,-3437.5 465,-3467.5 815,-3467.5 815,-3437.5 465,-3437.5"/>
<text text-anchor="start" x="472" y="-3448.9" font-family="Arial" font-size="14.00" fill="#000000">file_path_rel_parent    </text>
<text text-anchor="start" x="629.9088" y="-3448.9" font-family="Arial" font-size="14.00" fill="#666666">[TEXT]</text>
<polygon fill="none" stroke="#000000" points="465,-3407.5 465,-3437.5 815,-3437.5 815,-3407.5 465,-3407.5"/>
<text text-anchor="start" x="472" y="-3418.9" font-family="Arial" font-size="14.00" fill="#000000">file_path_rel    </text>
<text text-anchor="start" x="582.4446" y="-3418.9" font-family="Arial" font-size="14.00" fill="#666666">[TEXT]</text>
<polygon fill="none" stroke="#000000" points="465,-3377.5 465,-3407.5 815,-3407.5 815,-3377.5 465,-3377.5"/>
<text text-anchor="start" x="472" y="-3388.9" font-family="Arial" font-size="14.00" fill="#000000">file_basename    </text>
<text text-anchor="start" x="597.23" y="-3388.9" font-family="Arial" font-size="14.00" fill="#666666">[TEXT]</text>
<polygon fill="none" stroke="#000000" points="465,-3347.5 465,-3377.5 815,-3377.5 815,-3347.5 465,-3347.5"/>
<text text-anchor="start" x="472" y="-3358.9" font-family="Arial" font-size="14.00" fill="#000000">file_extn    </text>
<text text-anchor="start" x="558.3296" y="-3358.9" font-family="Arial" font-size="14.00" fill="#666666">[TEXT]</text>
<polygon fill="none" stroke="#000000" points="465,-3317.5 465,-3347.5 815,-3347.5 815,-3317.5 465,-3317.5"/>
<text text-anchor="start" x="472" y="-3328.9" font-family="Arial" font-size="14.00" fill="#000000">captured_executable    </text>
<text text-anchor="start" x="636.1444" y="-3328.9" font-family="Arial" font-size="14.00" fill="#666666">[TEXT]</text>
<polygon fill="none" stroke="#000000" points="465,-3287.5 465,-3317.5 815,-3317.5 815,-3287.5 465,-3287.5"/>
<text text-anchor="start" x="472" y="-3298.9" font-family="Arial" font-size="14.00" fill="#000000">ur_status    </text>
<text text-anchor="start" x="563.777" y="-3298.9" font-family="Arial" font-size="14.00" fill="#666666">[TEXT]</text>
<polygon fill="none" stroke="#000000" points="465,-3257.5 465,-3287.5 815,-3287.5 815,-3257.5 465,-3257.5"/>
<text text-anchor="start" x="472" y="-3268.9" font-family="Arial" font-size="14.00" fill="#000000">ur_diagnostics    </text>
<text text-anchor="start" x="596.4474" y="-3268.9" font-family="Arial" font-size="14.00" fill="#666666">[TEXT]</text>
<polygon fill="none" stroke="#000000" points="465,-3227.5 465,-3257.5 815,-3257.5 815,-3227.5 465,-3227.5"/>
<text text-anchor="start" x="472" y="-3238.9" font-family="Arial" font-size="14.00" fill="#000000">ur_transformations    </text>
<text text-anchor="start" x="622.8864" y="-3238.9" font-family="Arial" font-size="14.00" fill="#666666">[TEXT]</text>
<polygon fill="none" stroke="#000000" points="465,-3197.5 465,-3227.5 815,-3227.5 815,-3197.5 465,-3197.5"/>
<text text-anchor="start" x="472" y="-3208.9" font-family="Arial" font-size="14.00" fill="#000000">elaboration    </text>
<text text-anchor="start" x="575.4474" y="-3208.9" font-family="Arial" font-size="14.00" fill="#666666">[TEXT]</text>
<polygon fill="none" stroke="#000000" points="465,-3167.5 465,-3197.5 815,-3197.5 815,-3167.5 465,-3167.5"/>
<text text-anchor="start" x="472" y="-3178.9" font-family="Arial" font-size="14.00" fill="#000000">created_at    </text>
<text text-anchor="start" x="572.3422" y="-3178.9" font-family="Arial" font-size="14.00" fill="#666666">[TIMESTAMP]</text>
<polygon fill="none" stroke="#000000" points="465,-3137.5 465,-3167.5 815,-3167.5 815,-3137.5 465,-3137.5"/>
<text text-anchor="start" x="472" y="-3148.9" font-family="Arial" font-size="14.00" fill="#000000">created_by    </text>
<text text-anchor="start" x="575.4516" y="-3148.9" font-family="Arial" font-size="14.00" fill="#666666">[TEXT]</text>
<polygon fill="none" stroke="#000000" points="465,-3107.5 465,-3137.5 815,-3137.5 815,-3107.5 465,-3107.5"/>
<text text-anchor="start" x="472" y="-3118.9" font-family="Arial" font-size="14.00" fill="#000000">updated_at    </text>
<text text-anchor="start" x="576.2468" y="-3118.9" font-family="Arial" font-size="14.00" fill="#666666">[TIMESTAMP]</text>
<polygon fill="none" stroke="#000000" points="465,-3077.5 465,-3107.5 815,-3107.5 815,-3077.5 465,-3077.5"/>
<text text-anchor="start" x="472" y="-3088.9" font-family="Arial" font-size="14.00" fill="#000000">updated_by    </text>
<text text-anchor="start" x="579.3562" y="-3088.9" font-family="Arial" font-size="14.00" fill="#666666">[TEXT]</text>
<polygon fill="none" stroke="#000000" points="465,-3047.5 465,-3077.5 815,-3077.5 815,-3047.5 465,-3047.5"/>
<text text-anchor="start" x="472" y="-3058.9" font-family="Arial" font-size="14.00" fill="#000000">deleted_at    </text>
<text text-anchor="start" x="571.5708" y="-3058.9" font-family="Arial" font-size="14.00" fill="#666666">[TIMESTAMP]</text>
<polygon fill="none" stroke="#000000" points="465,-3017.5 465,-3047.5 815,-3047.5 815,-3017.5 465,-3017.5"/>
<text text-anchor="start" x="472" y="-3028.9" font-family="Arial" font-size="14.00" fill="#000000">deleted_by    </text>
<text text-anchor="start" x="574.6802" y="-3028.9" font-family="Arial" font-size="14.00" fill="#666666">[TEXT]</text>
<polygon fill="none" stroke="#000000" points="465,-2987.5 465,-3017.5 815,-3017.5 815,-2987.5 465,-2987.5"/>
<text text-anchor="start" x="472" y="-2998.9" font-family="Arial" font-size="14.00" fill="#000000">activity_log    </text>
<text text-anchor="start" x="575.4362" y="-2998.9" font-family="Arial" font-size="14.00" fill="#666666">[TEXT]</text>
</g>
<!-- ur_ingest_session_fs_path_entry&#45;&gt;ur_ingest_session -->
<g id="edge11" class="edge">
<title>ur_ingest_session_fs_path_entry:ingest_session_id&#45;&gt;ur_ingest_session:ur_ingest_session_id</title>
<path fill="none" stroke="#000000" d="M825.174,-3571.0497C1032.8956,-3510.4573 868.6112,-1571.5 649,-1571.5"/>
<polygon fill="#000000" stroke="#000000" points="824.8999,-3571.0887 814.3649,-3568.045 819.95,-3571.7943 815,-3572.5 815,-3572.5 815,-3572.5 819.95,-3571.7943 815.6351,-3576.955 824.8999,-3571.0887 824.8999,-3571.0887"/>
</g>
<!-- ur_ingest_session_fs_path_entry&#45;&gt;ur_ingest_session_fs_path -->
<g id="edge10" class="edge">
<title>ur_ingest_session_fs_path_entry:ingest_fs_path_id&#45;&gt;ur_ingest_session_fs_path:ur_ingest_session_fs_path_id</title>
<path fill="none" stroke="#000000" d="M455.7752,-3538.5086C403.7121,-3489.5862 450.5215,-3006.3318 465,-2945 469.1099,-2927.59 476.6305,-2925.7161 483,-2909 607.1116,-2583.2817 642.0432,-2497.52 688,-2152 693.4789,-2110.8072 729.5556,-2058.5 688,-2058.5"/>
<polygon fill="#000000" stroke="#000000" points="455.8223,-3538.5289 463.213,-3546.63 460.4111,-3540.5144 465,-3542.5 465,-3542.5 465,-3542.5 460.4111,-3540.5144 466.787,-3538.37 455.8223,-3538.5289 455.8223,-3538.5289"/>
</g>
<!-- ur_ingest_session_fs_path_entry&#45;&gt;uniform_resource -->
<g id="edge9" class="edge">
<title>ur_ingest_session_fs_path_entry:uniform_resource_id&#45;&gt;uniform_resource:uniform_resource_id</title>
<path fill="none" stroke="#000000" d="M455.7236,-3508.4068C398.0326,-3451.2854 506.0483,-2815.5 432,-2815.5"/>
<polygon fill="#000000" stroke="#000000" points="455.8511,-3508.463 463.1833,-3516.617 460.4255,-3510.4815 465,-3512.5 465,-3512.5 465,-3512.5 460.4255,-3510.4815 466.8167,-3508.383 455.8511,-3508.463 455.8511,-3508.463"/>
</g>
</g>
</svg>
