<?xml version="1.0" encoding="UTF-8" standalone="no"?>
<!DOCTYPE svg PUBLIC "-//W3C//DTD SVG 1.1//EN"
 "http://www.w3.org/Graphics/SVG/1.1/DTD/svg11.dtd">
<!-- Generated by graphviz version 2.40.1 (20161225.0304)
 -->
<!-- Title: Resource Surveillance State Schema Pages: 1 -->
<svg width="636pt" height="3127pt"
 viewBox="0.00 0.00 636.19 3127.00" xmlns="http://www.w3.org/2000/svg" xmlns:xlink="http://www.w3.org/1999/xlink">
<g id="graph0" class="graph" transform="scale(1 1) rotate(0) translate(4 3123)">
<title>Resource Surveillance State Schema</title>
<polygon fill="#ffffff" stroke="transparent" points="-4,4 -4,-3123 632.1946,-3123 632.1946,4 -4,4"/>
<!-- device -->
<g id="node1" class="node">
<title>device</title>
<polygon fill="#efefef" stroke="transparent" points="256.7575,-462.5 256.7575,-497.5 463.7575,-497.5 463.7575,-462.5 256.7575,-462.5"/>
<polygon fill="none" stroke="#000000" points="256.7575,-462.5 256.7575,-497.5 463.7575,-497.5 463.7575,-462.5 256.7575,-462.5"/>
<text text-anchor="start" x="298.0856" y="-475.3" font-family="Arial Bold" font-size="18.00" fill="#000000">device</text>
<text text-anchor="start" x="350.0984" y="-475.3" font-family="Arial" font-size="14.00" fill="#000000">    </text>
<text text-anchor="start" x="384.3032" y="-475.3" font-family="Arial" font-size="14.00" fill="#666666">[table]</text>
<polygon fill="none" stroke="#000000" points="256.7575,-432.5 256.7575,-462.5 463.7575,-462.5 463.7575,-432.5 256.7575,-432.5"/>
<text text-anchor="start" x="263.7575" y="-443.9" font-family="Arial" font-size="14.00" fill="#000000">device_id    </text>
<text text-anchor="start" x="357.0885" y="-443.9" font-family="Arial" font-size="14.00" fill="#666666">[ULID]</text>
<polygon fill="none" stroke="#000000" points="256.7575,-402.5 256.7575,-432.5 463.7575,-432.5 463.7575,-402.5 256.7575,-402.5"/>
<text text-anchor="start" x="263.7575" y="-413.9" font-family="Arial" font-size="14.00" fill="#000000">name    </text>
<text text-anchor="start" x="332.9707" y="-413.9" font-family="Arial" font-size="14.00" fill="#666666">[TEXT]</text>
<polygon fill="none" stroke="#000000" points="256.7575,-372.5 256.7575,-402.5 463.7575,-402.5 463.7575,-372.5 256.7575,-372.5"/>
<text text-anchor="start" x="263.7575" y="-383.9" font-family="Arial" font-size="14.00" fill="#000000">state    </text>
<text text-anchor="start" x="328.3087" y="-383.9" font-family="Arial" font-size="14.00" fill="#666666">[TEXT]</text>
<polygon fill="none" stroke="#000000" points="256.7575,-342.5 256.7575,-372.5 463.7575,-372.5 463.7575,-342.5 256.7575,-342.5"/>
<text text-anchor="start" x="263.7575" y="-353.9" font-family="Arial" font-size="14.00" fill="#000000">boundary    </text>
<text text-anchor="start" x="356.3185" y="-353.9" font-family="Arial" font-size="14.00" fill="#666666">[TEXT]</text>
<polygon fill="none" stroke="#000000" points="256.7575,-312.5 256.7575,-342.5 463.7575,-342.5 463.7575,-312.5 256.7575,-312.5"/>
<text text-anchor="start" x="263.7575" y="-323.9" font-family="Arial" font-size="14.00" fill="#000000">segmentation    </text>
<text text-anchor="start" x="381.9889" y="-323.9" font-family="Arial" font-size="14.00" fill="#666666">[TEXT]</text>
<polygon fill="none" stroke="#000000" points="256.7575,-282.5 256.7575,-312.5 463.7575,-312.5 463.7575,-282.5 256.7575,-282.5"/>
<text text-anchor="start" x="263.7575" y="-293.9" font-family="Arial" font-size="14.00" fill="#000000">state_sysinfo    </text>
<text text-anchor="start" x="379.6537" y="-293.9" font-family="Arial" font-size="14.00" fill="#666666">[TEXT]</text>
<polygon fill="none" stroke="#000000" points="256.7575,-252.5 256.7575,-282.5 463.7575,-282.5 463.7575,-252.5 256.7575,-252.5"/>
<text text-anchor="start" x="263.7575" y="-263.9" font-family="Arial" font-size="14.00" fill="#000000">elaboration    </text>
<text text-anchor="start" x="367.2049" y="-263.9" font-family="Arial" font-size="14.00" fill="#666666">[TEXT]</text>
<polygon fill="none" stroke="#000000" points="256.7575,-222.5 256.7575,-252.5 463.7575,-252.5 463.7575,-222.5 256.7575,-222.5"/>
<text text-anchor="start" x="263.7575" y="-233.9" font-family="Arial" font-size="14.00" fill="#000000">created_at    </text>
<text text-anchor="start" x="364.0997" y="-233.9" font-family="Arial" font-size="14.00" fill="#666666">[TIMESTAMP]</text>
<polygon fill="none" stroke="#000000" points="256.7575,-192.5 256.7575,-222.5 463.7575,-222.5 463.7575,-192.5 256.7575,-192.5"/>
<text text-anchor="start" x="263.7575" y="-203.9" font-family="Arial" font-size="14.00" fill="#000000">created_by    </text>
<text text-anchor="start" x="367.2091" y="-203.9" font-family="Arial" font-size="14.00" fill="#666666">[TEXT]</text>
<polygon fill="none" stroke="#000000" points="256.7575,-162.5 256.7575,-192.5 463.7575,-192.5 463.7575,-162.5 256.7575,-162.5"/>
<text text-anchor="start" x="263.4118" y="-173.9" font-family="Arial" font-size="14.00" fill="#000000">updated_at    </text>
<text text-anchor="start" x="367.6586" y="-173.9" font-family="Arial" font-size="14.00" fill="#666666">[TIMESTAMP]</text>
<polygon fill="none" stroke="#000000" points="256.7575,-132.5 256.7575,-162.5 463.7575,-162.5 463.7575,-132.5 256.7575,-132.5"/>
<text text-anchor="start" x="263.7575" y="-143.9" font-family="Arial" font-size="14.00" fill="#000000">updated_by    </text>
<text text-anchor="start" x="371.1137" y="-143.9" font-family="Arial" font-size="14.00" fill="#666666">[TEXT]</text>
<polygon fill="none" stroke="#000000" points="256.7575,-102.5 256.7575,-132.5 463.7575,-132.5 463.7575,-102.5 256.7575,-102.5"/>
<text text-anchor="start" x="263.7575" y="-113.9" font-family="Arial" font-size="14.00" fill="#000000">deleted_at    </text>
<text text-anchor="start" x="363.3283" y="-113.9" font-family="Arial" font-size="14.00" fill="#666666">[TIMESTAMP]</text>
<polygon fill="none" stroke="#000000" points="256.7575,-72.5 256.7575,-102.5 463.7575,-102.5 463.7575,-72.5 256.7575,-72.5"/>
<text text-anchor="start" x="263.7575" y="-83.9" font-family="Arial" font-size="14.00" fill="#000000">deleted_by    </text>
<text text-anchor="start" x="366.4377" y="-83.9" font-family="Arial" font-size="14.00" fill="#666666">[TEXT]</text>
<polygon fill="none" stroke="#000000" points="256.7575,-42.5 256.7575,-72.5 463.7575,-72.5 463.7575,-42.5 256.7575,-42.5"/>
<text text-anchor="start" x="263.7575" y="-53.9" font-family="Arial" font-size="14.00" fill="#000000">activity_log    </text>
<text text-anchor="start" x="367.1937" y="-53.9" font-family="Arial" font-size="14.00" fill="#666666">[TEXT]</text>
</g>
<!-- ur_walk_session -->
<g id="node2" class="node">
<title>ur_walk_session</title>
<polygon fill="#efefef" stroke="transparent" points="144.7575,-1069.5 144.7575,-1104.5 385.7575,-1104.5 385.7575,-1069.5 144.7575,-1069.5"/>
<polygon fill="none" stroke="#000000" points="144.7575,-1069.5 144.7575,-1104.5 385.7575,-1104.5 385.7575,-1069.5 144.7575,-1069.5"/>
<text text-anchor="start" x="162.5829" y="-1082.3" font-family="Arial Bold" font-size="18.00" fill="#000000">ur_walk_session</text>
<text text-anchor="start" x="295.6011" y="-1082.3" font-family="Arial" font-size="14.00" fill="#000000">    </text>
<text text-anchor="start" x="329.8059" y="-1082.3" font-family="Arial" font-size="14.00" fill="#666666">[table]</text>
<polygon fill="none" stroke="#000000" points="144.7575,-1039.5 144.7575,-1069.5 385.7575,-1069.5 385.7575,-1039.5 144.7575,-1039.5"/>
<text text-anchor="start" x="151.7575" y="-1050.9" font-family="Arial" font-size="14.00" fill="#000000">ur_walk_session_id    </text>
<text text-anchor="start" x="308.0927" y="-1050.9" font-family="Arial" font-size="14.00" fill="#666666">[ULID]</text>
<polygon fill="none" stroke="#000000" points="144.7575,-1009.5 144.7575,-1039.5 385.7575,-1039.5 385.7575,-1009.5 144.7575,-1009.5"/>
<text text-anchor="start" x="151.7575" y="-1020.9" font-family="Arial" font-size="14.00" fill="#000000">device_id    </text>
<text text-anchor="start" x="245.0885" y="-1020.9" font-family="Arial" font-size="14.00" fill="#666666">[ULID]</text>
<polygon fill="none" stroke="#000000" points="144.7575,-979.5 144.7575,-1009.5 385.7575,-1009.5 385.7575,-979.5 144.7575,-979.5"/>
<text text-anchor="start" x="151.7575" y="-990.9" font-family="Arial" font-size="14.00" fill="#000000">walk_started_at    </text>
<text text-anchor="start" x="283.9861" y="-990.9" font-family="Arial" font-size="14.00" fill="#666666">[TIMESTAMP]</text>
<polygon fill="none" stroke="#000000" points="144.7575,-949.5 144.7575,-979.5 385.7575,-979.5 385.7575,-949.5 144.7575,-949.5"/>
<text text-anchor="start" x="151.6986" y="-960.9" font-family="Arial" font-size="14.00" fill="#000000">walk_finished_at    </text>
<text text-anchor="start" x="289.3718" y="-960.9" font-family="Arial" font-size="14.00" fill="#666666">[TIMESTAMP]</text>
<polygon fill="none" stroke="#000000" points="144.7575,-919.5 144.7575,-949.5 385.7575,-949.5 385.7575,-919.5 144.7575,-919.5"/>
<text text-anchor="start" x="151.7575" y="-930.9" font-family="Arial" font-size="14.00" fill="#000000">ignore_paths_regex    </text>
<text text-anchor="start" x="309.6719" y="-930.9" font-family="Arial" font-size="14.00" fill="#666666">[TEXT]</text>
<polygon fill="none" stroke="#000000" points="144.7575,-889.5 144.7575,-919.5 385.7575,-919.5 385.7575,-889.5 144.7575,-889.5"/>
<text text-anchor="start" x="151.7575" y="-900.9" font-family="Arial" font-size="14.00" fill="#000000">blobs_regex    </text>
<text text-anchor="start" x="262.2077" y="-900.9" font-family="Arial" font-size="14.00" fill="#666666">[TEXT]</text>
<polygon fill="none" stroke="#000000" points="144.7575,-859.5 144.7575,-889.5 385.7575,-889.5 385.7575,-859.5 144.7575,-859.5"/>
<text text-anchor="start" x="151.7575" y="-870.9" font-family="Arial" font-size="14.00" fill="#000000">digests_regex    </text>
<text text-anchor="start" x="273.0983" y="-870.9" font-family="Arial" font-size="14.00" fill="#666666">[TEXT]</text>
<polygon fill="none" stroke="#000000" points="144.7575,-829.5 144.7575,-859.5 385.7575,-859.5 385.7575,-829.5 144.7575,-829.5"/>
<text text-anchor="start" x="151.7575" y="-840.9" font-family="Arial" font-size="14.00" fill="#000000">elaboration    </text>
<text text-anchor="start" x="255.2049" y="-840.9" font-family="Arial" font-size="14.00" fill="#666666">[TEXT]</text>
<polygon fill="none" stroke="#000000" points="144.7575,-799.5 144.7575,-829.5 385.7575,-829.5 385.7575,-799.5 144.7575,-799.5"/>
<text text-anchor="start" x="151.7575" y="-810.9" font-family="Arial" font-size="14.00" fill="#000000">created_at    </text>
<text text-anchor="start" x="252.0997" y="-810.9" font-family="Arial" font-size="14.00" fill="#666666">[TIMESTAMP]</text>
<polygon fill="none" stroke="#000000" points="144.7575,-769.5 144.7575,-799.5 385.7575,-799.5 385.7575,-769.5 144.7575,-769.5"/>
<text text-anchor="start" x="151.7575" y="-780.9" font-family="Arial" font-size="14.00" fill="#000000">created_by    </text>
<text text-anchor="start" x="255.2091" y="-780.9" font-family="Arial" font-size="14.00" fill="#666666">[TEXT]</text>
<polygon fill="none" stroke="#000000" points="144.7575,-739.5 144.7575,-769.5 385.7575,-769.5 385.7575,-739.5 144.7575,-739.5"/>
<text text-anchor="start" x="151.7575" y="-750.9" font-family="Arial" font-size="14.00" fill="#000000">updated_at    </text>
<text text-anchor="start" x="256.0043" y="-750.9" font-family="Arial" font-size="14.00" fill="#666666">[TIMESTAMP]</text>
<polygon fill="none" stroke="#000000" points="144.7575,-709.5 144.7575,-739.5 385.7575,-739.5 385.7575,-709.5 144.7575,-709.5"/>
<text text-anchor="start" x="151.7575" y="-720.9" font-family="Arial" font-size="14.00" fill="#000000">updated_by    </text>
<text text-anchor="start" x="259.1137" y="-720.9" font-family="Arial" font-size="14.00" fill="#666666">[TEXT]</text>
<polygon fill="none" stroke="#000000" points="144.7575,-679.5 144.7575,-709.5 385.7575,-709.5 385.7575,-679.5 144.7575,-679.5"/>
<text text-anchor="start" x="151.7575" y="-690.9" font-family="Arial" font-size="14.00" fill="#000000">deleted_at    </text>
<text text-anchor="start" x="251.3283" y="-690.9" font-family="Arial" font-size="14.00" fill="#666666">[TIMESTAMP]</text>
<polygon fill="none" stroke="#000000" points="144.7575,-649.5 144.7575,-679.5 385.7575,-679.5 385.7575,-649.5 144.7575,-649.5"/>
<text text-anchor="start" x="151.7575" y="-660.9" font-family="Arial" font-size="14.00" fill="#000000">deleted_by    </text>
<text text-anchor="start" x="254.4377" y="-660.9" font-family="Arial" font-size="14.00" fill="#666666">[TEXT]</text>
<polygon fill="none" stroke="#000000" points="144.7575,-619.5 144.7575,-649.5 385.7575,-649.5 385.7575,-619.5 144.7575,-619.5"/>
<text text-anchor="start" x="151.7575" y="-630.9" font-family="Arial" font-size="14.00" fill="#000000">activity_log    </text>
<text text-anchor="start" x="255.1937" y="-630.9" font-family="Arial" font-size="14.00" fill="#666666">[TEXT]</text>
</g>
<!-- ur_walk_session&#45;&gt;device -->
<g id="edge1" class="edge">
<title>ur_walk_session:device_id&#45;&gt;device:device_id</title>
<path fill="none" stroke="#000000" d="M395.7364,-1023.163C482.4119,-998.9617 443.7726,-653.4221 385.7575,-577 349.7664,-529.5896 292.7487,-588.4104 256.7575,-541 231.631,-507.9013 215.202,-447.5 256.7575,-447.5"/>
<polygon fill="#000000" stroke="#000000" points="395.669,-1023.1719 385.1599,-1020.0399 390.7133,-1023.836 385.7575,-1024.5 385.7575,-1024.5 385.7575,-1024.5 390.7133,-1023.836 386.3552,-1028.9601 395.669,-1023.1719 395.669,-1023.1719"/>
</g>
<!-- ur_walk_session_path -->
<g id="node3" class="node">
<title>ur_walk_session_path</title>
<polygon fill="#efefef" stroke="transparent" points="108.7575,-1556.5 108.7575,-1591.5 372.7575,-1591.5 372.7575,-1556.5 108.7575,-1556.5"/>
<polygon fill="none" stroke="#000000" points="108.7575,-1556.5 108.7575,-1591.5 372.7575,-1591.5 372.7575,-1556.5 108.7575,-1556.5"/>
<text text-anchor="start" x="115.5694" y="-1569.3" font-family="Arial Bold" font-size="18.00" fill="#000000">ur_walk_session_path</text>
<text text-anchor="start" x="293.6146" y="-1569.3" font-family="Arial" font-size="14.00" fill="#000000">    </text>
<text text-anchor="start" x="327.8194" y="-1569.3" font-family="Arial" font-size="14.00" fill="#666666">[table]</text>
<polygon fill="none" stroke="#000000" points="108.7575,-1526.5 108.7575,-1556.5 372.7575,-1556.5 372.7575,-1526.5 108.7575,-1526.5"/>
<text text-anchor="start" x="115.7575" y="-1537.9" font-family="Arial" font-size="14.00" fill="#000000">ur_walk_session_path_id    </text>
<text text-anchor="start" x="307.1137" y="-1537.9" font-family="Arial" font-size="14.00" fill="#666666">[ULID]</text>
<polygon fill="none" stroke="#000000" points="108.7575,-1496.5 108.7575,-1526.5 372.7575,-1526.5 372.7575,-1496.5 108.7575,-1496.5"/>
<text text-anchor="start" x="115.7575" y="-1507.9" font-family="Arial" font-size="14.00" fill="#000000">walk_session_id    </text>
<text text-anchor="start" x="251.8669" y="-1507.9" font-family="Arial" font-size="14.00" fill="#666666">[ULID]</text>
<polygon fill="none" stroke="#000000" points="108.7575,-1466.5 108.7575,-1496.5 372.7575,-1496.5 372.7575,-1466.5 108.7575,-1466.5"/>
<text text-anchor="start" x="115.7575" y="-1477.9" font-family="Arial" font-size="14.00" fill="#000000">root_path    </text>
<text text-anchor="start" x="209.0997" y="-1477.9" font-family="Arial" font-size="14.00" fill="#666666">[TEXT]</text>
<polygon fill="none" stroke="#000000" points="108.7575,-1436.5 108.7575,-1466.5 372.7575,-1466.5 372.7575,-1436.5 108.7575,-1436.5"/>
<text text-anchor="start" x="115.7575" y="-1447.9" font-family="Arial" font-size="14.00" fill="#000000">elaboration    </text>
<text text-anchor="start" x="219.2049" y="-1447.9" font-family="Arial" font-size="14.00" fill="#666666">[TEXT]</text>
<polygon fill="none" stroke="#000000" points="108.7575,-1406.5 108.7575,-1436.5 372.7575,-1436.5 372.7575,-1406.5 108.7575,-1406.5"/>
<text text-anchor="start" x="115.7575" y="-1417.9" font-family="Arial" font-size="14.00" fill="#000000">created_at    </text>
<text text-anchor="start" x="216.0997" y="-1417.9" font-family="Arial" font-size="14.00" fill="#666666">[TIMESTAMP]</text>
<polygon fill="none" stroke="#000000" points="108.7575,-1376.5 108.7575,-1406.5 372.7575,-1406.5 372.7575,-1376.5 108.7575,-1376.5"/>
<text text-anchor="start" x="115.7575" y="-1387.9" font-family="Arial" font-size="14.00" fill="#000000">created_by    </text>
<text text-anchor="start" x="219.2091" y="-1387.9" font-family="Arial" font-size="14.00" fill="#666666">[TEXT]</text>
<polygon fill="none" stroke="#000000" points="108.7575,-1346.5 108.7575,-1376.5 372.7575,-1376.5 372.7575,-1346.5 108.7575,-1346.5"/>
<text text-anchor="start" x="115.7575" y="-1357.9" font-family="Arial" font-size="14.00" fill="#000000">updated_at    </text>
<text text-anchor="start" x="220.0043" y="-1357.9" font-family="Arial" font-size="14.00" fill="#666666">[TIMESTAMP]</text>
<polygon fill="none" stroke="#000000" points="108.7575,-1316.5 108.7575,-1346.5 372.7575,-1346.5 372.7575,-1316.5 108.7575,-1316.5"/>
<text text-anchor="start" x="115.7575" y="-1327.9" font-family="Arial" font-size="14.00" fill="#000000">updated_by    </text>
<text text-anchor="start" x="223.1137" y="-1327.9" font-family="Arial" font-size="14.00" fill="#666666">[TEXT]</text>
<polygon fill="none" stroke="#000000" points="108.7575,-1286.5 108.7575,-1316.5 372.7575,-1316.5 372.7575,-1286.5 108.7575,-1286.5"/>
<text text-anchor="start" x="115.7575" y="-1297.9" font-family="Arial" font-size="14.00" fill="#000000">deleted_at    </text>
<text text-anchor="start" x="215.3283" y="-1297.9" font-family="Arial" font-size="14.00" fill="#666666">[TIMESTAMP]</text>
<polygon fill="none" stroke="#000000" points="108.7575,-1256.5 108.7575,-1286.5 372.7575,-1286.5 372.7575,-1256.5 108.7575,-1256.5"/>
<text text-anchor="start" x="115.7575" y="-1267.9" font-family="Arial" font-size="14.00" fill="#000000">deleted_by    </text>
<text text-anchor="start" x="218.4377" y="-1267.9" font-family="Arial" font-size="14.00" fill="#666666">[TEXT]</text>
<polygon fill="none" stroke="#000000" points="108.7575,-1226.5 108.7575,-1256.5 372.7575,-1256.5 372.7575,-1226.5 108.7575,-1226.5"/>
<text text-anchor="start" x="115.7575" y="-1237.9" font-family="Arial" font-size="14.00" fill="#000000">activity_log    </text>
<text text-anchor="start" x="219.1937" y="-1237.9" font-family="Arial" font-size="14.00" fill="#666666">[TEXT]</text>
</g>
<!-- ur_walk_session_path&#45;&gt;ur_walk_session -->
<g id="edge2" class="edge">
<title>ur_walk_session_path:walk_session_id&#45;&gt;ur_walk_session:ur_walk_session_id</title>
<path fill="none" stroke="#000000" d="M382.7243,-1509.6102C442.9932,-1485.4378 417.7276,-1236.6277 372.7575,-1184 306.1129,-1106.0068 211.4022,-1225.9932 144.7575,-1148 117.7618,-1116.4074 103.202,-1054.5 144.7575,-1054.5"/>
<polygon fill="#000000" stroke="#000000" points="382.5825,-1509.637 371.9192,-1507.0788 377.67,-1510.5685 372.7575,-1511.5 372.7575,-1511.5 372.7575,-1511.5 377.67,-1510.5685 373.5959,-1515.9212 382.5825,-1509.637 382.5825,-1509.637"/>
</g>
<!-- uniform_resource -->
<g id="node4" class="node">
<title>uniform_resource</title>
<polygon fill="#efefef" stroke="transparent" points="318.7575,-2313.5 318.7575,-2348.5 552.7575,-2348.5 552.7575,-2313.5 318.7575,-2313.5"/>
<polygon fill="none" stroke="#000000" points="318.7575,-2313.5 318.7575,-2348.5 552.7575,-2348.5 552.7575,-2313.5 318.7575,-2313.5"/>
<text text-anchor="start" x="329.5846" y="-2326.3" font-family="Arial Bold" font-size="18.00" fill="#000000">uniform_resource</text>
<text text-anchor="start" x="469.5994" y="-2326.3" font-family="Arial" font-size="14.00" fill="#000000">    </text>
<text text-anchor="start" x="503.8042" y="-2326.3" font-family="Arial" font-size="14.00" fill="#666666">[table]</text>
<polygon fill="none" stroke="#000000" points="318.7575,-2283.5 318.7575,-2313.5 552.7575,-2313.5 552.7575,-2283.5 318.7575,-2283.5"/>
<text text-anchor="start" x="325.7575" y="-2294.9" font-family="Arial" font-size="14.00" fill="#000000">uniform_resource_id    </text>
<text text-anchor="start" x="487.5345" y="-2294.9" font-family="Arial" font-size="14.00" fill="#666666">[ULID]</text>
<polygon fill="none" stroke="#000000" points="318.7575,-2253.5 318.7575,-2283.5 552.7575,-2283.5 552.7575,-2253.5 318.7575,-2253.5"/>
<text text-anchor="start" x="325.7575" y="-2264.9" font-family="Arial" font-size="14.00" fill="#000000">device_id    </text>
<text text-anchor="start" x="419.0885" y="-2264.9" font-family="Arial" font-size="14.00" fill="#666666">[ULID]</text>
<polygon fill="none" stroke="#000000" points="318.7575,-2223.5 318.7575,-2253.5 552.7575,-2253.5 552.7575,-2223.5 318.7575,-2223.5"/>
<text text-anchor="start" x="325.7575" y="-2234.9" font-family="Arial" font-size="14.00" fill="#000000">walk_session_id    </text>
<text text-anchor="start" x="461.8669" y="-2234.9" font-family="Arial" font-size="14.00" fill="#666666">[ULID]</text>
<polygon fill="none" stroke="#000000" points="318.7575,-2193.5 318.7575,-2223.5 552.7575,-2223.5 552.7575,-2193.5 318.7575,-2193.5"/>
<text text-anchor="start" x="325.7575" y="-2204.9" font-family="Arial" font-size="14.00" fill="#000000">walk_path_id    </text>
<text text-anchor="start" x="441.6509" y="-2204.9" font-family="Arial" font-size="14.00" fill="#666666">[ULID]</text>
<polygon fill="none" stroke="#000000" points="318.7575,-2163.5 318.7575,-2193.5 552.7575,-2193.5 552.7575,-2163.5 318.7575,-2163.5"/>
<text text-anchor="start" x="325.7575" y="-2174.9" font-family="Arial" font-size="14.00" fill="#000000">uri    </text>
<text text-anchor="start" x="375.5121" y="-2174.9" font-family="Arial" font-size="14.00" fill="#666666">[TEXT]</text>
<polygon fill="none" stroke="#000000" points="318.7575,-2133.5 318.7575,-2163.5 552.7575,-2163.5 552.7575,-2133.5 318.7575,-2133.5"/>
<text text-anchor="start" x="325.7575" y="-2144.9" font-family="Arial" font-size="14.00" fill="#000000">content_digest    </text>
<text text-anchor="start" x="451.0015" y="-2144.9" font-family="Arial" font-size="14.00" fill="#666666">[TEXT]</text>
<polygon fill="none" stroke="#000000" points="318.7575,-2103.5 318.7575,-2133.5 552.7575,-2133.5 552.7575,-2103.5 318.7575,-2103.5"/>
<text text-anchor="start" x="325.7575" y="-2114.9" font-family="Arial" font-size="14.00" fill="#000000">content    </text>
<text text-anchor="start" x="405.8739" y="-2114.9" font-family="Arial" font-size="14.00" fill="#666666">[BLOB]</text>
<polygon fill="none" stroke="#000000" points="318.7575,-2073.5 318.7575,-2103.5 552.7575,-2103.5 552.7575,-2073.5 318.7575,-2073.5"/>
<text text-anchor="start" x="325.7575" y="-2084.9" font-family="Arial" font-size="14.00" fill="#000000">nature    </text>
<text text-anchor="start" x="399.6439" y="-2084.9" font-family="Arial" font-size="14.00" fill="#666666">[TEXT]</text>
<polygon fill="none" stroke="#000000" points="318.7575,-2043.5 318.7575,-2073.5 552.7575,-2073.5 552.7575,-2043.5 318.7575,-2043.5"/>
<text text-anchor="start" x="325.7575" y="-2054.9" font-family="Arial" font-size="14.00" fill="#000000">size_bytes    </text>
<text text-anchor="start" x="426.0899" y="-2054.9" font-family="Arial" font-size="14.00" fill="#666666">[INTEGER]</text>
<polygon fill="none" stroke="#000000" points="318.7575,-2013.5 318.7575,-2043.5 552.7575,-2043.5 552.7575,-2013.5 318.7575,-2013.5"/>
<text text-anchor="start" x="325.7575" y="-2024.9" font-family="Arial" font-size="14.00" fill="#000000">last_modified_at    </text>
<text text-anchor="start" x="461.8753" y="-2024.9" font-family="Arial" font-size="14.00" fill="#666666">[INTEGER]</text>
<polygon fill="none" stroke="#000000" points="318.7575,-1983.5 318.7575,-2013.5 552.7575,-2013.5 552.7575,-1983.5 318.7575,-1983.5"/>
<text text-anchor="start" x="325.6839" y="-1994.9" font-family="Arial" font-size="14.00" fill="#000000">content_fm_body_attrs    </text>
<text text-anchor="start" x="502.2715" y="-1994.9" font-family="Arial" font-size="14.00" fill="#666666">[TEXT]</text>
<polygon fill="none" stroke="#000000" points="318.7575,-1953.5 318.7575,-1983.5 552.7575,-1983.5 552.7575,-1953.5 318.7575,-1953.5"/>
<text text-anchor="start" x="325.7575" y="-1964.9" font-family="Arial" font-size="14.00" fill="#000000">frontmatter    </text>
<text text-anchor="start" x="427.6369" y="-1964.9" font-family="Arial" font-size="14.00" fill="#666666">[TEXT]</text>
<polygon fill="none" stroke="#000000" points="318.7575,-1923.5 318.7575,-1953.5 552.7575,-1953.5 552.7575,-1923.5 318.7575,-1923.5"/>
<text text-anchor="start" x="325.7575" y="-1934.9" font-family="Arial" font-size="14.00" fill="#000000">elaboration    </text>
<text text-anchor="start" x="429.2049" y="-1934.9" font-family="Arial" font-size="14.00" fill="#666666">[TEXT]</text>
<polygon fill="none" stroke="#000000" points="318.7575,-1893.5 318.7575,-1923.5 552.7575,-1923.5 552.7575,-1893.5 318.7575,-1893.5"/>
<text text-anchor="start" x="325.7575" y="-1904.9" font-family="Arial" font-size="14.00" fill="#000000">created_at    </text>
<text text-anchor="start" x="426.0997" y="-1904.9" font-family="Arial" font-size="14.00" fill="#666666">[TIMESTAMP]</text>
<polygon fill="none" stroke="#000000" points="318.7575,-1863.5 318.7575,-1893.5 552.7575,-1893.5 552.7575,-1863.5 318.7575,-1863.5"/>
<text text-anchor="start" x="325.7575" y="-1874.9" font-family="Arial" font-size="14.00" fill="#000000">created_by    </text>
<text text-anchor="start" x="429.2091" y="-1874.9" font-family="Arial" font-size="14.00" fill="#666666">[TEXT]</text>
<polygon fill="none" stroke="#000000" points="318.7575,-1833.5 318.7575,-1863.5 552.7575,-1863.5 552.7575,-1833.5 318.7575,-1833.5"/>
<text text-anchor="start" x="325.7575" y="-1844.9" font-family="Arial" font-size="14.00" fill="#000000">updated_at    </text>
<text text-anchor="start" x="430.0043" y="-1844.9" font-family="Arial" font-size="14.00" fill="#666666">[TIMESTAMP]</text>
<polygon fill="none" stroke="#000000" points="318.7575,-1803.5 318.7575,-1833.5 552.7575,-1833.5 552.7575,-1803.5 318.7575,-1803.5"/>
<text text-anchor="start" x="325.7575" y="-1814.9" font-family="Arial" font-size="14.00" fill="#000000">updated_by    </text>
<text text-anchor="start" x="433.1137" y="-1814.9" font-family="Arial" font-size="14.00" fill="#666666">[TEXT]</text>
<polygon fill="none" stroke="#000000" points="318.7575,-1773.5 318.7575,-1803.5 552.7575,-1803.5 552.7575,-1773.5 318.7575,-1773.5"/>
<text text-anchor="start" x="325.7575" y="-1784.9" font-family="Arial" font-size="14.00" fill="#000000">deleted_at    </text>
<text text-anchor="start" x="425.3283" y="-1784.9" font-family="Arial" font-size="14.00" fill="#666666">[TIMESTAMP]</text>
<polygon fill="none" stroke="#000000" points="318.7575,-1743.5 318.7575,-1773.5 552.7575,-1773.5 552.7575,-1743.5 318.7575,-1743.5"/>
<text text-anchor="start" x="325.7575" y="-1754.9" font-family="Arial" font-size="14.00" fill="#000000">deleted_by    </text>
<text text-anchor="start" x="428.4377" y="-1754.9" font-family="Arial" font-size="14.00" fill="#666666">[TEXT]</text>
<polygon fill="none" stroke="#000000" points="318.7575,-1713.5 318.7575,-1743.5 552.7575,-1743.5 552.7575,-1713.5 318.7575,-1713.5"/>
<text text-anchor="start" x="325.7575" y="-1724.9" font-family="Arial" font-size="14.00" fill="#000000">activity_log    </text>
<text text-anchor="start" x="429.1937" y="-1724.9" font-family="Arial" font-size="14.00" fill="#666666">[TEXT]</text>
</g>
<!-- uniform_resource&#45;&gt;device -->
<g id="edge5" class="edge">
<title>uniform_resource:device_id&#45;&gt;device:device_id</title>
<path fill="none" stroke="#000000" d="M561.7012,-2263.2762C648.4705,-2156.4658 561.8797,-447.5 463.7575,-447.5"/>
<polygon fill="#000000" stroke="#000000" points="561.3925,-2263.4564 550.4879,-2264.6143 557.075,-2265.9782 552.7575,-2268.5 552.7575,-2268.5 552.7575,-2268.5 557.075,-2265.9782 555.0272,-2272.3857 561.3925,-2263.4564 561.3925,-2263.4564"/>
</g>
<!-- uniform_resource&#45;&gt;ur_walk_session -->
<g id="edge4" class="edge">
<title>uniform_resource:walk_session_id&#45;&gt;ur_walk_session:ur_walk_session_id</title>
<path fill="none" stroke="#000000" d="M563.0366,-2237.4061C675.66,-2212.5978 620.4326,-1773.1569 552.7575,-1671 530.0999,-1636.7978 492.0146,-1668.0871 467.7575,-1635 390.7285,-1529.9307 516.0382,-1054.5 385.7575,-1054.5"/>
<polygon fill="#000000" stroke="#000000" points="562.7014,-2237.4417 552.2813,-2234.0253 557.7295,-2237.9708 552.7575,-2238.5 552.7575,-2238.5 552.7575,-2238.5 557.7295,-2237.9708 553.2338,-2242.9747 562.7014,-2237.4417 562.7014,-2237.4417"/>
</g>
<!-- uniform_resource&#45;&gt;ur_walk_session_path -->
<g id="edge3" class="edge">
<title>uniform_resource:walk_path_id&#45;&gt;ur_walk_session_path:ur_walk_session_path_id</title>
<path fill="none" stroke="#000000" d="M309.4706,-2204.0003C262.5976,-2154.9627 292.1733,-1720.6731 318.7575,-1671 332.368,-1645.5686 359.1471,-1660.4314 372.7575,-1635 392.3659,-1598.3615 414.3131,-1541.5 372.7575,-1541.5"/>
<polygon fill="#000000" stroke="#000000" points="309.7583,-2204.1396 316.7954,-2212.5497 314.2579,-2206.3198 318.7575,-2208.5 318.7575,-2208.5 318.7575,-2208.5 314.2579,-2206.3198 320.7197,-2204.4503 309.7583,-2204.1396 309.7583,-2204.1396"/>
</g>
<!-- ur_walk_session_path_fs_entry -->
<g id="node5" class="node">
<title>ur_walk_session_path_fs_entry</title>
<polygon fill="#efefef" stroke="transparent" points="71.7575,-3040.5 71.7575,-3075.5 409.7575,-3075.5 409.7575,-3040.5 71.7575,-3040.5"/>
<polygon fill="none" stroke="#000000" points="71.7575,-3040.5 71.7575,-3075.5 409.7575,-3075.5 409.7575,-3040.5 71.7575,-3040.5"/>
<text text-anchor="start" x="78.5587" y="-3053.3" font-family="Arial Bold" font-size="18.00" fill="#000000">ur_walk_session_path_fs_entry</text>
<text text-anchor="start" x="330.6253" y="-3053.3" font-family="Arial" font-size="14.00" fill="#000000">    </text>
<text text-anchor="start" x="364.8301" y="-3053.3" font-family="Arial" font-size="14.00" fill="#666666">[table]</text>
<polygon fill="none" stroke="#000000" points="71.7575,-3010.5 71.7575,-3040.5 409.7575,-3040.5 409.7575,-3010.5 71.7575,-3010.5"/>
<text text-anchor="start" x="78.7575" y="-3021.9" font-family="Arial" font-size="14.00" fill="#000000">ur_walk_session_path_fs_entry_id    </text>
<text text-anchor="start" x="327.6859" y="-3021.9" font-family="Arial" font-size="14.00" fill="#666666">[ULID]</text>
<polygon fill="none" stroke="#000000" points="71.7575,-2980.5 71.7575,-3010.5 409.7575,-3010.5 409.7575,-2980.5 71.7575,-2980.5"/>
<text text-anchor="start" x="78.7575" y="-2991.9" font-family="Arial" font-size="14.00" fill="#000000">walk_session_id    </text>
<text text-anchor="start" x="214.8669" y="-2991.9" font-family="Arial" font-size="14.00" fill="#666666">[ULID]</text>
<polygon fill="none" stroke="#000000" points="71.7575,-2950.5 71.7575,-2980.5 409.7575,-2980.5 409.7575,-2950.5 71.7575,-2950.5"/>
<text text-anchor="start" x="78.7575" y="-2961.9" font-family="Arial" font-size="14.00" fill="#000000">walk_path_id    </text>
<text text-anchor="start" x="194.6509" y="-2961.9" font-family="Arial" font-size="14.00" fill="#666666">[ULID]</text>
<polygon fill="none" stroke="#000000" points="71.7575,-2920.5 71.7575,-2950.5 409.7575,-2950.5 409.7575,-2920.5 71.7575,-2920.5"/>
<text text-anchor="start" x="78.7575" y="-2931.9" font-family="Arial" font-size="14.00" fill="#000000">uniform_resource_id    </text>
<text text-anchor="start" x="240.5345" y="-2931.9" font-family="Arial" font-size="14.00" fill="#666666">[ULID]</text>
<polygon fill="none" stroke="#000000" points="71.7575,-2890.5 71.7575,-2920.5 409.7575,-2920.5 409.7575,-2890.5 71.7575,-2890.5"/>
<text text-anchor="start" x="78.7575" y="-2901.9" font-family="Arial" font-size="14.00" fill="#000000">file_path_abs    </text>
<text text-anchor="start" x="196.2175" y="-2901.9" font-family="Arial" font-size="14.00" fill="#666666">[TEXT]</text>
<polygon fill="none" stroke="#000000" points="71.7575,-2860.5 71.7575,-2890.5 409.7575,-2890.5 409.7575,-2860.5 71.7575,-2860.5"/>
<text text-anchor="start" x="78.7575" y="-2871.9" font-family="Arial" font-size="14.00" fill="#000000">file_path_rel_parent    </text>
<text text-anchor="start" x="236.6663" y="-2871.9" font-family="Arial" font-size="14.00" fill="#666666">[TEXT]</text>
<polygon fill="none" stroke="#000000" points="71.7575,-2830.5 71.7575,-2860.5 409.7575,-2860.5 409.7575,-2830.5 71.7575,-2830.5"/>
<text text-anchor="start" x="78.7575" y="-2841.9" font-family="Arial" font-size="14.00" fill="#000000">file_path_rel    </text>
<text text-anchor="start" x="189.2021" y="-2841.9" font-family="Arial" font-size="14.00" fill="#666666">[TEXT]</text>
<polygon fill="none" stroke="#000000" points="71.7575,-2800.5 71.7575,-2830.5 409.7575,-2830.5 409.7575,-2800.5 71.7575,-2800.5"/>
<text text-anchor="start" x="78.7575" y="-2811.9" font-family="Arial" font-size="14.00" fill="#000000">file_basename    </text>
<text text-anchor="start" x="203.9875" y="-2811.9" font-family="Arial" font-size="14.00" fill="#666666">[TEXT]</text>
<polygon fill="none" stroke="#000000" points="71.7575,-2770.5 71.7575,-2800.5 409.7575,-2800.5 409.7575,-2770.5 71.7575,-2770.5"/>
<text text-anchor="start" x="78.7575" y="-2781.9" font-family="Arial" font-size="14.00" fill="#000000">file_extn    </text>
<text text-anchor="start" x="165.0871" y="-2781.9" font-family="Arial" font-size="14.00" fill="#666666">[TEXT]</text>
<polygon fill="none" stroke="#000000" points="71.7575,-2740.5 71.7575,-2770.5 409.7575,-2770.5 409.7575,-2740.5 71.7575,-2740.5"/>
<text text-anchor="start" x="78.7575" y="-2751.9" font-family="Arial" font-size="14.00" fill="#000000">ur_status    </text>
<text text-anchor="start" x="170.5345" y="-2751.9" font-family="Arial" font-size="14.00" fill="#666666">[TEXT]</text>
<polygon fill="none" stroke="#000000" points="71.7575,-2710.5 71.7575,-2740.5 409.7575,-2740.5 409.7575,-2710.5 71.7575,-2710.5"/>
<text text-anchor="start" x="78.7575" y="-2721.9" font-family="Arial" font-size="14.00" fill="#000000">ur_status_explanation    </text>
<text text-anchor="start" x="249.8991" y="-2721.9" font-family="Arial" font-size="14.00" fill="#666666">[TEXT]</text>
<polygon fill="none" stroke="#000000" points="71.7575,-2680.5 71.7575,-2710.5 409.7575,-2710.5 409.7575,-2680.5 71.7575,-2680.5"/>
<text text-anchor="start" x="78.7575" y="-2691.9" font-family="Arial" font-size="14.00" fill="#000000">elaboration    </text>
<text text-anchor="start" x="182.2049" y="-2691.9" font-family="Arial" font-size="14.00" fill="#666666">[TEXT]</text>
<polygon fill="none" stroke="#000000" points="71.7575,-2650.5 71.7575,-2680.5 409.7575,-2680.5 409.7575,-2650.5 71.7575,-2650.5"/>
<text text-anchor="start" x="78.7575" y="-2661.9" font-family="Arial" font-size="14.00" fill="#000000">created_at    </text>
<text text-anchor="start" x="179.0997" y="-2661.9" font-family="Arial" font-size="14.00" fill="#666666">[TIMESTAMP]</text>
<polygon fill="none" stroke="#000000" points="71.7575,-2620.5 71.7575,-2650.5 409.7575,-2650.5 409.7575,-2620.5 71.7575,-2620.5"/>
<text text-anchor="start" x="78.7575" y="-2631.9" font-family="Arial" font-size="14.00" fill="#000000">created_by    </text>
<text text-anchor="start" x="182.2091" y="-2631.9" font-family="Arial" font-size="14.00" fill="#666666">[TEXT]</text>
<polygon fill="none" stroke="#000000" points="71.7575,-2590.5 71.7575,-2620.5 409.7575,-2620.5 409.7575,-2590.5 71.7575,-2590.5"/>
<text text-anchor="start" x="78.7575" y="-2601.9" font-family="Arial" font-size="14.00" fill="#000000">updated_at    </text>
<text text-anchor="start" x="183.0043" y="-2601.9" font-family="Arial" font-size="14.00" fill="#666666">[TIMESTAMP]</text>
<polygon fill="none" stroke="#000000" points="71.7575,-2560.5 71.7575,-2590.5 409.7575,-2590.5 409.7575,-2560.5 71.7575,-2560.5"/>
<text text-anchor="start" x="78.7575" y="-2571.9" font-family="Arial" font-size="14.00" fill="#000000">updated_by    </text>
<text text-anchor="start" x="186.1137" y="-2571.9" font-family="Arial" font-size="14.00" fill="#666666">[TEXT]</text>
<polygon fill="none" stroke="#000000" points="71.7575,-2530.5 71.7575,-2560.5 409.7575,-2560.5 409.7575,-2530.5 71.7575,-2530.5"/>
<text text-anchor="start" x="78.7575" y="-2541.9" font-family="Arial" font-size="14.00" fill="#000000">deleted_at    </text>
<text text-anchor="start" x="178.3283" y="-2541.9" font-family="Arial" font-size="14.00" fill="#666666">[TIMESTAMP]</text>
<polygon fill="none" stroke="#000000" points="71.7575,-2500.5 71.7575,-2530.5 409.7575,-2530.5 409.7575,-2500.5 71.7575,-2500.5"/>
<text text-anchor="start" x="78.7575" y="-2511.9" font-family="Arial" font-size="14.00" fill="#000000">deleted_by    </text>
<text text-anchor="start" x="181.4377" y="-2511.9" font-family="Arial" font-size="14.00" fill="#666666">[TEXT]</text>
<polygon fill="none" stroke="#000000" points="71.7575,-2470.5 71.7575,-2500.5 409.7575,-2500.5 409.7575,-2470.5 71.7575,-2470.5"/>
<text text-anchor="start" x="78.7575" y="-2481.9" font-family="Arial" font-size="14.00" fill="#000000">activity_log    </text>
<text text-anchor="start" x="182.1937" y="-2481.9" font-family="Arial" font-size="14.00" fill="#666666">[TEXT]</text>
</g>
<!-- ur_walk_session_path_fs_entry&#45;&gt;ur_walk_session -->
<g id="edge8" class="edge">
<title>ur_walk_session_path_fs_entry:walk_session_id&#45;&gt;ur_walk_session:ur_walk_session_id</title>
<path fill="none" stroke="#000000" d="M61.5974,-2993.5363C-73.0717,-2939.3941 57.5714,-1782.6304 56.7575,-1635 55.3191,-1374.0563 -116.1901,-1054.5 144.7575,-1054.5"/>
<polygon fill="#000000" stroke="#000000" points="61.9393,-2993.6023 70.9036,-2999.9182 66.8484,-2994.5511 71.7575,-2995.5 71.7575,-2995.5 71.7575,-2995.5 66.8484,-2994.5511 72.6115,-2991.0818 61.9393,-2993.6023 61.9393,-2993.6023"/>
</g>
<!-- ur_walk_session_path_fs_entry&#45;&gt;ur_walk_session_path -->
<g id="edge7" class="edge">
<title>ur_walk_session_path_fs_entry:walk_path_id&#45;&gt;ur_walk_session_path:ur_walk_session_path_id</title>
<path fill="none" stroke="#000000" d="M420.0434,-2965.2769C645.9385,-2955.3074 554.4665,-2613.6544 409.7575,-2428 369.4668,-2376.309 307.0483,-2443.691 266.7575,-2392 69.7599,-2139.2619 80.1255,-1931.4863 266.7575,-1671 295.7351,-1630.5555 343.78,-1675.4445 372.7575,-1635 396.9602,-1601.2199 414.3131,-1541.5 372.7575,-1541.5"/>
<polygon fill="#000000" stroke="#000000" points="419.7552,-2965.283 409.6599,-2961.0011 414.7564,-2965.3915 409.7575,-2965.5 409.7575,-2965.5 409.7575,-2965.5 414.7564,-2965.3915 409.8552,-2969.9989 419.7552,-2965.283 419.7552,-2965.283"/>
</g>
<!-- ur_walk_session_path_fs_entry&#45;&gt;uniform_resource -->
<g id="edge6" class="edge">
<title>ur_walk_session_path_fs_entry:uniform_resource_id&#45;&gt;uniform_resource:uniform_resource_id</title>
<path fill="none" stroke="#000000" d="M419.7782,-2935.281C632.3172,-2925.8141 534.6452,-2611.7114 409.7575,-2428 385.3051,-2392.0301 343.21,-2427.9699 318.7575,-2392 295.3951,-2357.6335 277.202,-2298.5 318.7575,-2298.5"/>
<polygon fill="#000000" stroke="#000000" points="419.7552,-2935.2814 409.6592,-2931.0011 414.7564,-2935.3907 409.7575,-2935.5 409.7575,-2935.5 409.7575,-2935.5 414.7564,-2935.3907 409.8559,-2939.9989 419.7552,-2935.2814 419.7552,-2935.2814"/>
</g>
</g>
</svg>
