<?xml version="1.0" encoding="UTF-8" standalone="no"?>
<!DOCTYPE svg PUBLIC "-//W3C//DTD SVG 1.1//EN"
 "http://www.w3.org/Graphics/SVG/1.1/DTD/svg11.dtd">
<!-- Generated by graphviz version 2.40.1 (20161225.0304)
 -->
<!-- Title: Resource Surveillance State Schema Pages: 1 -->
<svg width="921pt" height="3704pt"
 viewBox="0.00 0.00 920.84 3704.00" xmlns="http://www.w3.org/2000/svg" xmlns:xlink="http://www.w3.org/1999/xlink">
<g id="graph0" class="graph" transform="scale(1 1) rotate(0) translate(4 3700)">
<title>Resource Surveillance State Schema</title>
<polygon fill="#ffffff" stroke="transparent" points="-4,4 -4,-3700 916.8435,-3700 916.8435,4 -4,4"/>
<!-- device -->
<g id="node1" class="node">
<title>device</title>
<polygon fill="#efefef" stroke="transparent" points="218,-462.5 218,-497.5 425,-497.5 425,-462.5 218,-462.5"/>
<polygon fill="none" stroke="#000000" points="218,-462.5 218,-497.5 425,-497.5 425,-462.5 218,-462.5"/>
<text text-anchor="start" x="259.3281" y="-475.3" font-family="Arial Bold" font-size="18.00" fill="#000000">device</text>
<text text-anchor="start" x="311.3409" y="-475.3" font-family="Arial" font-size="14.00" fill="#000000">    </text>
<text text-anchor="start" x="345.5457" y="-475.3" font-family="Arial" font-size="14.00" fill="#666666">[table]</text>
<polygon fill="none" stroke="#000000" points="218,-432.5 218,-462.5 425,-462.5 425,-432.5 218,-432.5"/>
<text text-anchor="start" x="225" y="-443.9" font-family="Arial" font-size="14.00" fill="#000000">device_id    </text>
<text text-anchor="start" x="318.331" y="-443.9" font-family="Arial" font-size="14.00" fill="#666666">[ULID]</text>
<polygon fill="none" stroke="#000000" points="218,-402.5 218,-432.5 425,-432.5 425,-402.5 218,-402.5"/>
<text text-anchor="start" x="225" y="-413.9" font-family="Arial" font-size="14.00" fill="#000000">name    </text>
<text text-anchor="start" x="294.2132" y="-413.9" font-family="Arial" font-size="14.00" fill="#666666">[TEXT]</text>
<polygon fill="none" stroke="#000000" points="218,-372.5 218,-402.5 425,-402.5 425,-372.5 218,-372.5"/>
<text text-anchor="start" x="225" y="-383.9" font-family="Arial" font-size="14.00" fill="#000000">state    </text>
<text text-anchor="start" x="289.5512" y="-383.9" font-family="Arial" font-size="14.00" fill="#666666">[TEXT]</text>
<polygon fill="none" stroke="#000000" points="218,-342.5 218,-372.5 425,-372.5 425,-342.5 218,-342.5"/>
<text text-anchor="start" x="225" y="-353.9" font-family="Arial" font-size="14.00" fill="#000000">boundary    </text>
<text text-anchor="start" x="317.561" y="-353.9" font-family="Arial" font-size="14.00" fill="#666666">[TEXT]</text>
<polygon fill="none" stroke="#000000" points="218,-312.5 218,-342.5 425,-342.5 425,-312.5 218,-312.5"/>
<text text-anchor="start" x="225" y="-323.9" font-family="Arial" font-size="14.00" fill="#000000">segmentation    </text>
<text text-anchor="start" x="343.2314" y="-323.9" font-family="Arial" font-size="14.00" fill="#666666">[TEXT]</text>
<polygon fill="none" stroke="#000000" points="218,-282.5 218,-312.5 425,-312.5 425,-282.5 218,-282.5"/>
<text text-anchor="start" x="225" y="-293.9" font-family="Arial" font-size="14.00" fill="#000000">state_sysinfo    </text>
<text text-anchor="start" x="340.8962" y="-293.9" font-family="Arial" font-size="14.00" fill="#666666">[TEXT]</text>
<polygon fill="none" stroke="#000000" points="218,-252.5 218,-282.5 425,-282.5 425,-252.5 218,-252.5"/>
<text text-anchor="start" x="225" y="-263.9" font-family="Arial" font-size="14.00" fill="#000000">elaboration    </text>
<text text-anchor="start" x="328.4474" y="-263.9" font-family="Arial" font-size="14.00" fill="#666666">[TEXT]</text>
<polygon fill="none" stroke="#000000" points="218,-222.5 218,-252.5 425,-252.5 425,-222.5 218,-222.5"/>
<text text-anchor="start" x="225" y="-233.9" font-family="Arial" font-size="14.00" fill="#000000">created_at    </text>
<text text-anchor="start" x="325.3422" y="-233.9" font-family="Arial" font-size="14.00" fill="#666666">[TIMESTAMP]</text>
<polygon fill="none" stroke="#000000" points="218,-192.5 218,-222.5 425,-222.5 425,-192.5 218,-192.5"/>
<text text-anchor="start" x="225" y="-203.9" font-family="Arial" font-size="14.00" fill="#000000">created_by    </text>
<text text-anchor="start" x="328.4516" y="-203.9" font-family="Arial" font-size="14.00" fill="#666666">[TEXT]</text>
<polygon fill="none" stroke="#000000" points="218,-162.5 218,-192.5 425,-192.5 425,-162.5 218,-162.5"/>
<text text-anchor="start" x="224.6543" y="-173.9" font-family="Arial" font-size="14.00" fill="#000000">updated_at    </text>
<text text-anchor="start" x="328.9011" y="-173.9" font-family="Arial" font-size="14.00" fill="#666666">[TIMESTAMP]</text>
<polygon fill="none" stroke="#000000" points="218,-132.5 218,-162.5 425,-162.5 425,-132.5 218,-132.5"/>
<text text-anchor="start" x="225" y="-143.9" font-family="Arial" font-size="14.00" fill="#000000">updated_by    </text>
<text text-anchor="start" x="332.3562" y="-143.9" font-family="Arial" font-size="14.00" fill="#666666">[TEXT]</text>
<polygon fill="none" stroke="#000000" points="218,-102.5 218,-132.5 425,-132.5 425,-102.5 218,-102.5"/>
<text text-anchor="start" x="225" y="-113.9" font-family="Arial" font-size="14.00" fill="#000000">deleted_at    </text>
<text text-anchor="start" x="324.5708" y="-113.9" font-family="Arial" font-size="14.00" fill="#666666">[TIMESTAMP]</text>
<polygon fill="none" stroke="#000000" points="218,-72.5 218,-102.5 425,-102.5 425,-72.5 218,-72.5"/>
<text text-anchor="start" x="225" y="-83.9" font-family="Arial" font-size="14.00" fill="#000000">deleted_by    </text>
<text text-anchor="start" x="327.6802" y="-83.9" font-family="Arial" font-size="14.00" fill="#666666">[TEXT]</text>
<polygon fill="none" stroke="#000000" points="218,-42.5 218,-72.5 425,-72.5 425,-42.5 218,-42.5"/>
<text text-anchor="start" x="225" y="-53.9" font-family="Arial" font-size="14.00" fill="#000000">activity_log    </text>
<text text-anchor="start" x="328.4362" y="-53.9" font-family="Arial" font-size="14.00" fill="#666666">[TEXT]</text>
</g>
<!-- behavior -->
<g id="node2" class="node">
<title>behavior</title>
<polygon fill="#efefef" stroke="transparent" points="394,-1009.5 394,-1044.5 625,-1044.5 625,-1009.5 394,-1009.5"/>
<polygon fill="none" stroke="#000000" points="394,-1009.5 394,-1044.5 625,-1044.5 625,-1009.5 394,-1009.5"/>
<text text-anchor="start" x="438.8258" y="-1022.3" font-family="Arial Bold" font-size="18.00" fill="#000000">behavior</text>
<text text-anchor="start" x="507.8432" y="-1022.3" font-family="Arial" font-size="14.00" fill="#000000">    </text>
<text text-anchor="start" x="542.048" y="-1022.3" font-family="Arial" font-size="14.00" fill="#666666">[table]</text>
<polygon fill="none" stroke="#000000" points="394,-979.5 394,-1009.5 625,-1009.5 625,-979.5 394,-979.5"/>
<text text-anchor="start" x="401" y="-990.9" font-family="Arial" font-size="14.00" fill="#000000">behavior_id    </text>
<text text-anchor="start" x="507.5568" y="-990.9" font-family="Arial" font-size="14.00" fill="#666666">[ULID]</text>
<polygon fill="none" stroke="#000000" points="394,-949.5 394,-979.5 625,-979.5 625,-949.5 394,-949.5"/>
<text text-anchor="start" x="401" y="-960.9" font-family="Arial" font-size="14.00" fill="#000000">device_id    </text>
<text text-anchor="start" x="494.331" y="-960.9" font-family="Arial" font-size="14.00" fill="#666666">[ULID]</text>
<polygon fill="none" stroke="#000000" points="394,-919.5 394,-949.5 625,-949.5 625,-919.5 394,-919.5"/>
<text text-anchor="start" x="401" y="-930.9" font-family="Arial" font-size="14.00" fill="#000000">behavior_name    </text>
<text text-anchor="start" x="531.676" y="-930.9" font-family="Arial" font-size="14.00" fill="#666666">[TEXT]</text>
<polygon fill="none" stroke="#000000" points="394,-889.5 394,-919.5 625,-919.5 625,-889.5 394,-889.5"/>
<text text-anchor="start" x="401" y="-900.9" font-family="Arial" font-size="14.00" fill="#000000">behavior_conf_json    </text>
<text text-anchor="start" x="556.5778" y="-900.9" font-family="Arial" font-size="14.00" fill="#666666">[TEXT]</text>
<polygon fill="none" stroke="#000000" points="394,-859.5 394,-889.5 625,-889.5 625,-859.5 394,-859.5"/>
<text text-anchor="start" x="400.5996" y="-870.9" font-family="Arial" font-size="14.00" fill="#000000">assurance_schema_id    </text>
<text text-anchor="start" x="574.8408" y="-870.9" font-family="Arial" font-size="14.00" fill="#666666">[TEXT]</text>
<polygon fill="none" stroke="#000000" points="394,-829.5 394,-859.5 625,-859.5 625,-829.5 394,-829.5"/>
<text text-anchor="start" x="401" y="-840.9" font-family="Arial" font-size="14.00" fill="#000000">governance    </text>
<text text-anchor="start" x="508.3436" y="-840.9" font-family="Arial" font-size="14.00" fill="#666666">[TEXT]</text>
<polygon fill="none" stroke="#000000" points="394,-799.5 394,-829.5 625,-829.5 625,-799.5 394,-799.5"/>
<text text-anchor="start" x="401" y="-810.9" font-family="Arial" font-size="14.00" fill="#000000">created_at    </text>
<text text-anchor="start" x="501.3422" y="-810.9" font-family="Arial" font-size="14.00" fill="#666666">[TIMESTAMP]</text>
<polygon fill="none" stroke="#000000" points="394,-769.5 394,-799.5 625,-799.5 625,-769.5 394,-769.5"/>
<text text-anchor="start" x="401" y="-780.9" font-family="Arial" font-size="14.00" fill="#000000">created_by    </text>
<text text-anchor="start" x="504.4516" y="-780.9" font-family="Arial" font-size="14.00" fill="#666666">[TEXT]</text>
<polygon fill="none" stroke="#000000" points="394,-739.5 394,-769.5 625,-769.5 625,-739.5 394,-739.5"/>
<text text-anchor="start" x="401" y="-750.9" font-family="Arial" font-size="14.00" fill="#000000">updated_at    </text>
<text text-anchor="start" x="505.2468" y="-750.9" font-family="Arial" font-size="14.00" fill="#666666">[TIMESTAMP]</text>
<polygon fill="none" stroke="#000000" points="394,-709.5 394,-739.5 625,-739.5 625,-709.5 394,-709.5"/>
<text text-anchor="start" x="401" y="-720.9" font-family="Arial" font-size="14.00" fill="#000000">updated_by    </text>
<text text-anchor="start" x="508.3562" y="-720.9" font-family="Arial" font-size="14.00" fill="#666666">[TEXT]</text>
<polygon fill="none" stroke="#000000" points="394,-679.5 394,-709.5 625,-709.5 625,-679.5 394,-679.5"/>
<text text-anchor="start" x="401" y="-690.9" font-family="Arial" font-size="14.00" fill="#000000">deleted_at    </text>
<text text-anchor="start" x="500.5708" y="-690.9" font-family="Arial" font-size="14.00" fill="#666666">[TIMESTAMP]</text>
<polygon fill="none" stroke="#000000" points="394,-649.5 394,-679.5 625,-679.5 625,-649.5 394,-649.5"/>
<text text-anchor="start" x="401" y="-660.9" font-family="Arial" font-size="14.00" fill="#000000">deleted_by    </text>
<text text-anchor="start" x="503.6802" y="-660.9" font-family="Arial" font-size="14.00" fill="#666666">[TEXT]</text>
<polygon fill="none" stroke="#000000" points="394,-619.5 394,-649.5 625,-649.5 625,-619.5 394,-619.5"/>
<text text-anchor="start" x="401" y="-630.9" font-family="Arial" font-size="14.00" fill="#000000">activity_log    </text>
<text text-anchor="start" x="504.4362" y="-630.9" font-family="Arial" font-size="14.00" fill="#666666">[TEXT]</text>
</g>
<!-- behavior&#45;&gt;device -->
<g id="edge1" class="edge">
<title>behavior:device_id&#45;&gt;device:device_id</title>
<path fill="none" stroke="#000000" d="M384.1106,-962.9885C312.4503,-939.7154 365.2611,-654.417 394,-577 401.3482,-557.2053 417.6518,-560.7947 425,-541 439.462,-502.0422 466.5556,-447.5 425,-447.5"/>
<polygon fill="#000000" stroke="#000000" points="384.1148,-962.9891 393.3201,-968.9483 389.0574,-963.7445 394,-964.5 394,-964.5 394,-964.5 389.0574,-963.7445 394.6799,-960.0517 384.1148,-962.9891 384.1148,-962.9891"/>
</g>
<!-- ur_ingest_session -->
<g id="node3" class="node">
<title>ur_ingest_session</title>
<polygon fill="#efefef" stroke="transparent" points="385,-1586.5 385,-1621.5 635,-1621.5 635,-1586.5 385,-1586.5"/>
<polygon fill="none" stroke="#000000" points="385,-1586.5 385,-1621.5 635,-1621.5 635,-1586.5 385,-1586.5"/>
<text text-anchor="start" x="401.3152" y="-1599.3" font-family="Arial Bold" font-size="18.00" fill="#000000">ur_ingest_session</text>
<text text-anchor="start" x="546.3538" y="-1599.3" font-family="Arial" font-size="14.00" fill="#000000">    </text>
<text text-anchor="start" x="580.5586" y="-1599.3" font-family="Arial" font-size="14.00" fill="#666666">[table]</text>
<polygon fill="none" stroke="#000000" points="385,-1556.5 385,-1586.5 635,-1586.5 635,-1556.5 385,-1556.5"/>
<text text-anchor="start" x="392" y="-1567.9" font-family="Arial" font-size="14.00" fill="#000000">ur_ingest_session_id    </text>
<text text-anchor="start" x="557.6844" y="-1567.9" font-family="Arial" font-size="14.00" fill="#666666">[ULID]</text>
<polygon fill="none" stroke="#000000" points="385,-1526.5 385,-1556.5 635,-1556.5 635,-1526.5 385,-1526.5"/>
<text text-anchor="start" x="392" y="-1537.9" font-family="Arial" font-size="14.00" fill="#000000">device_id    </text>
<text text-anchor="start" x="485.331" y="-1537.9" font-family="Arial" font-size="14.00" fill="#666666">[ULID]</text>
<polygon fill="none" stroke="#000000" points="385,-1496.5 385,-1526.5 635,-1526.5 635,-1496.5 385,-1496.5"/>
<text text-anchor="start" x="392" y="-1507.9" font-family="Arial" font-size="14.00" fill="#000000">behavior_id    </text>
<text text-anchor="start" x="498.5568" y="-1507.9" font-family="Arial" font-size="14.00" fill="#666666">[ULID]</text>
<polygon fill="none" stroke="#000000" points="385,-1466.5 385,-1496.5 635,-1496.5 635,-1466.5 385,-1466.5"/>
<text text-anchor="start" x="392" y="-1477.9" font-family="Arial" font-size="14.00" fill="#000000">behavior_json    </text>
<text text-anchor="start" x="513.3394" y="-1477.9" font-family="Arial" font-size="14.00" fill="#666666">[TEXT]</text>
<polygon fill="none" stroke="#000000" points="385,-1436.5 385,-1466.5 635,-1466.5 635,-1436.5 385,-1436.5"/>
<text text-anchor="start" x="392" y="-1447.9" font-family="Arial" font-size="14.00" fill="#000000">ingest_started_at    </text>
<text text-anchor="start" x="533.5778" y="-1447.9" font-family="Arial" font-size="14.00" fill="#666666">[TIMESTAMP]</text>
<polygon fill="none" stroke="#000000" points="385,-1406.5 385,-1436.5 635,-1436.5 635,-1406.5 385,-1406.5"/>
<text text-anchor="start" x="391.7665" y="-1417.9" font-family="Arial" font-size="14.00" fill="#000000">ingest_finished_at    </text>
<text text-anchor="start" x="538.7889" y="-1417.9" font-family="Arial" font-size="14.00" fill="#666666">[TIMESTAMP]</text>
<polygon fill="none" stroke="#000000" points="385,-1376.5 385,-1406.5 635,-1406.5 635,-1376.5 385,-1376.5"/>
<text text-anchor="start" x="392" y="-1387.9" font-family="Arial" font-size="14.00" fill="#000000">elaboration    </text>
<text text-anchor="start" x="495.4474" y="-1387.9" font-family="Arial" font-size="14.00" fill="#666666">[TEXT]</text>
<polygon fill="none" stroke="#000000" points="385,-1346.5 385,-1376.5 635,-1376.5 635,-1346.5 385,-1346.5"/>
<text text-anchor="start" x="392" y="-1357.9" font-family="Arial" font-size="14.00" fill="#000000">created_at    </text>
<text text-anchor="start" x="492.3422" y="-1357.9" font-family="Arial" font-size="14.00" fill="#666666">[TIMESTAMP]</text>
<polygon fill="none" stroke="#000000" points="385,-1316.5 385,-1346.5 635,-1346.5 635,-1316.5 385,-1316.5"/>
<text text-anchor="start" x="392" y="-1327.9" font-family="Arial" font-size="14.00" fill="#000000">created_by    </text>
<text text-anchor="start" x="495.4516" y="-1327.9" font-family="Arial" font-size="14.00" fill="#666666">[TEXT]</text>
<polygon fill="none" stroke="#000000" points="385,-1286.5 385,-1316.5 635,-1316.5 635,-1286.5 385,-1286.5"/>
<text text-anchor="start" x="392" y="-1297.9" font-family="Arial" font-size="14.00" fill="#000000">updated_at    </text>
<text text-anchor="start" x="496.2468" y="-1297.9" font-family="Arial" font-size="14.00" fill="#666666">[TIMESTAMP]</text>
<polygon fill="none" stroke="#000000" points="385,-1256.5 385,-1286.5 635,-1286.5 635,-1256.5 385,-1256.5"/>
<text text-anchor="start" x="392" y="-1267.9" font-family="Arial" font-size="14.00" fill="#000000">updated_by    </text>
<text text-anchor="start" x="499.3562" y="-1267.9" font-family="Arial" font-size="14.00" fill="#666666">[TEXT]</text>
<polygon fill="none" stroke="#000000" points="385,-1226.5 385,-1256.5 635,-1256.5 635,-1226.5 385,-1226.5"/>
<text text-anchor="start" x="392" y="-1237.9" font-family="Arial" font-size="14.00" fill="#000000">deleted_at    </text>
<text text-anchor="start" x="491.5708" y="-1237.9" font-family="Arial" font-size="14.00" fill="#666666">[TIMESTAMP]</text>
<polygon fill="none" stroke="#000000" points="385,-1196.5 385,-1226.5 635,-1226.5 635,-1196.5 385,-1196.5"/>
<text text-anchor="start" x="392" y="-1207.9" font-family="Arial" font-size="14.00" fill="#000000">deleted_by    </text>
<text text-anchor="start" x="494.6802" y="-1207.9" font-family="Arial" font-size="14.00" fill="#666666">[TEXT]</text>
<polygon fill="none" stroke="#000000" points="385,-1166.5 385,-1196.5 635,-1196.5 635,-1166.5 385,-1166.5"/>
<text text-anchor="start" x="392" y="-1177.9" font-family="Arial" font-size="14.00" fill="#000000">activity_log    </text>
<text text-anchor="start" x="495.4362" y="-1177.9" font-family="Arial" font-size="14.00" fill="#666666">[TEXT]</text>
</g>
<!-- ur_ingest_session&#45;&gt;device -->
<g id="edge3" class="edge">
<title>ur_ingest_session:device_id&#45;&gt;device:device_id</title>
<path fill="none" stroke="#000000" d="M375.2186,-1538.8689C278.3497,-1485.0568 310.4441,-623.3392 341,-577 363.3595,-543.0909 402.6405,-574.9091 425,-541 447.876,-506.3077 466.5556,-447.5 425,-447.5"/>
<polygon fill="#000000" stroke="#000000" points="375.3432,-1538.9024 383.8311,-1545.8455 380.1716,-1540.2012 385,-1541.5 385,-1541.5 385,-1541.5 380.1716,-1540.2012 386.1689,-1537.1545 375.3432,-1538.9024 375.3432,-1538.9024"/>
</g>
<!-- ur_ingest_session&#45;&gt;behavior -->
<g id="edge2" class="edge">
<title>ur_ingest_session:behavior_id&#45;&gt;behavior:behavior_id</title>
<path fill="none" stroke="#000000" d="M374.9837,-1509.9136C301.3874,-1485.4978 331.1124,-1186.5736 385,-1124 455.3847,-1042.2701 554.6153,-1169.7299 625,-1088 652.1173,-1056.5117 666.5556,-994.5 625,-994.5"/>
<polygon fill="#000000" stroke="#000000" points="375.1231,-1509.9356 384.296,-1515.9446 380.0616,-1510.7178 385,-1511.5 385,-1511.5 385,-1511.5 380.0616,-1510.7178 385.704,-1507.0554 375.1231,-1509.9356 375.1231,-1509.9356"/>
</g>
<!-- ur_ingest_session_fs_path -->
<g id="node4" class="node">
<title>ur_ingest_session_fs_path</title>
<polygon fill="#efefef" stroke="transparent" points="377,-2073.5 377,-2108.5 677,-2108.5 677,-2073.5 377,-2073.5"/>
<polygon fill="none" stroke="#000000" points="377,-2073.5 377,-2108.5 677,-2108.5 677,-2073.5 377,-2073.5"/>
<text text-anchor="start" x="383.7975" y="-2086.3" font-family="Arial Bold" font-size="18.00" fill="#000000">ur_ingest_session_fs_path</text>
<text text-anchor="start" x="597.8715" y="-2086.3" font-family="Arial" font-size="14.00" fill="#000000">    </text>
<text text-anchor="start" x="632.0763" y="-2086.3" font-family="Arial" font-size="14.00" fill="#666666">[table]</text>
<polygon fill="none" stroke="#000000" points="377,-2043.5 377,-2073.5 677,-2073.5 677,-2043.5 377,-2043.5"/>
<text text-anchor="start" x="384" y="-2054.9" font-family="Arial" font-size="14.00" fill="#000000">ur_ingest_session_fs_path_id    </text>
<text text-anchor="start" x="603.3786" y="-2054.9" font-family="Arial" font-size="14.00" fill="#666666">[ULID]</text>
<polygon fill="none" stroke="#000000" points="377,-2013.5 377,-2043.5 677,-2043.5 677,-2013.5 377,-2013.5"/>
<text text-anchor="start" x="384" y="-2024.9" font-family="Arial" font-size="14.00" fill="#000000">ingest_session_id    </text>
<text text-anchor="start" x="529.4586" y="-2024.9" font-family="Arial" font-size="14.00" fill="#666666">[ULID]</text>
<polygon fill="none" stroke="#000000" points="377,-1983.5 377,-2013.5 677,-2013.5 677,-1983.5 377,-1983.5"/>
<text text-anchor="start" x="384" y="-1994.9" font-family="Arial" font-size="14.00" fill="#000000">root_path    </text>
<text text-anchor="start" x="477.3422" y="-1994.9" font-family="Arial" font-size="14.00" fill="#666666">[TEXT]</text>
<polygon fill="none" stroke="#000000" points="377,-1953.5 377,-1983.5 677,-1983.5 677,-1953.5 377,-1953.5"/>
<text text-anchor="start" x="384" y="-1964.9" font-family="Arial" font-size="14.00" fill="#000000">elaboration    </text>
<text text-anchor="start" x="487.4474" y="-1964.9" font-family="Arial" font-size="14.00" fill="#666666">[TEXT]</text>
<polygon fill="none" stroke="#000000" points="377,-1923.5 377,-1953.5 677,-1953.5 677,-1923.5 377,-1923.5"/>
<text text-anchor="start" x="384" y="-1934.9" font-family="Arial" font-size="14.00" fill="#000000">created_at    </text>
<text text-anchor="start" x="484.3422" y="-1934.9" font-family="Arial" font-size="14.00" fill="#666666">[TIMESTAMP]</text>
<polygon fill="none" stroke="#000000" points="377,-1893.5 377,-1923.5 677,-1923.5 677,-1893.5 377,-1893.5"/>
<text text-anchor="start" x="384" y="-1904.9" font-family="Arial" font-size="14.00" fill="#000000">created_by    </text>
<text text-anchor="start" x="487.4516" y="-1904.9" font-family="Arial" font-size="14.00" fill="#666666">[TEXT]</text>
<polygon fill="none" stroke="#000000" points="377,-1863.5 377,-1893.5 677,-1893.5 677,-1863.5 377,-1863.5"/>
<text text-anchor="start" x="384" y="-1874.9" font-family="Arial" font-size="14.00" fill="#000000">updated_at    </text>
<text text-anchor="start" x="488.2468" y="-1874.9" font-family="Arial" font-size="14.00" fill="#666666">[TIMESTAMP]</text>
<polygon fill="none" stroke="#000000" points="377,-1833.5 377,-1863.5 677,-1863.5 677,-1833.5 377,-1833.5"/>
<text text-anchor="start" x="384" y="-1844.9" font-family="Arial" font-size="14.00" fill="#000000">updated_by    </text>
<text text-anchor="start" x="491.3562" y="-1844.9" font-family="Arial" font-size="14.00" fill="#666666">[TEXT]</text>
<polygon fill="none" stroke="#000000" points="377,-1803.5 377,-1833.5 677,-1833.5 677,-1803.5 377,-1803.5"/>
<text text-anchor="start" x="384" y="-1814.9" font-family="Arial" font-size="14.00" fill="#000000">deleted_at    </text>
<text text-anchor="start" x="483.5708" y="-1814.9" font-family="Arial" font-size="14.00" fill="#666666">[TIMESTAMP]</text>
<polygon fill="none" stroke="#000000" points="377,-1773.5 377,-1803.5 677,-1803.5 677,-1773.5 377,-1773.5"/>
<text text-anchor="start" x="384" y="-1784.9" font-family="Arial" font-size="14.00" fill="#000000">deleted_by    </text>
<text text-anchor="start" x="486.6802" y="-1784.9" font-family="Arial" font-size="14.00" fill="#666666">[TEXT]</text>
<polygon fill="none" stroke="#000000" points="377,-1743.5 377,-1773.5 677,-1773.5 677,-1743.5 377,-1743.5"/>
<text text-anchor="start" x="384" y="-1754.9" font-family="Arial" font-size="14.00" fill="#000000">activity_log    </text>
<text text-anchor="start" x="487.4362" y="-1754.9" font-family="Arial" font-size="14.00" fill="#666666">[TEXT]</text>
</g>
<!-- ur_ingest_session_fs_path&#45;&gt;ur_ingest_session -->
<g id="edge4" class="edge">
<title>ur_ingest_session_fs_path:ingest_session_id&#45;&gt;ur_ingest_session:ur_ingest_session_id</title>
<path fill="none" stroke="#000000" d="M367.0299,-2026.6073C306.7183,-2002.3982 331.5591,-1753.2217 377,-1701 453,-1613.659 559,-1752.341 635,-1665 662.2784,-1633.6511 676.5556,-1571.5 635,-1571.5"/>
<polygon fill="#000000" stroke="#000000" points="367.1755,-2026.6349 376.1607,-2032.921 372.0877,-2027.5674 377,-2028.5 377,-2028.5 377,-2028.5 372.0877,-2027.5674 377.8393,-2024.079 367.1755,-2026.6349 367.1755,-2026.6349"/>
</g>
<!-- uniform_resource -->
<g id="node5" class="node">
<title>uniform_resource</title>
<polygon fill="#efefef" stroke="transparent" points="189,-2830.5 189,-2865.5 423,-2865.5 423,-2830.5 189,-2830.5"/>
<polygon fill="none" stroke="#000000" points="189,-2830.5 189,-2865.5 423,-2865.5 423,-2830.5 189,-2830.5"/>
<text text-anchor="start" x="199.8271" y="-2843.3" font-family="Arial Bold" font-size="18.00" fill="#000000">uniform_resource</text>
<text text-anchor="start" x="339.8419" y="-2843.3" font-family="Arial" font-size="14.00" fill="#000000">    </text>
<text text-anchor="start" x="374.0467" y="-2843.3" font-family="Arial" font-size="14.00" fill="#666666">[table]</text>
<polygon fill="none" stroke="#000000" points="189,-2800.5 189,-2830.5 423,-2830.5 423,-2800.5 189,-2800.5"/>
<text text-anchor="start" x="196" y="-2811.9" font-family="Arial" font-size="14.00" fill="#000000">uniform_resource_id    </text>
<text text-anchor="start" x="357.777" y="-2811.9" font-family="Arial" font-size="14.00" fill="#666666">[ULID]</text>
<polygon fill="none" stroke="#000000" points="189,-2770.5 189,-2800.5 423,-2800.5 423,-2770.5 189,-2770.5"/>
<text text-anchor="start" x="196" y="-2781.9" font-family="Arial" font-size="14.00" fill="#000000">device_id    </text>
<text text-anchor="start" x="289.331" y="-2781.9" font-family="Arial" font-size="14.00" fill="#666666">[ULID]</text>
<polygon fill="none" stroke="#000000" points="189,-2740.5 189,-2770.5 423,-2770.5 423,-2740.5 189,-2740.5"/>
<text text-anchor="start" x="196" y="-2751.9" font-family="Arial" font-size="14.00" fill="#000000">ingest_session_id    </text>
<text text-anchor="start" x="341.4586" y="-2751.9" font-family="Arial" font-size="14.00" fill="#666666">[ULID]</text>
<polygon fill="none" stroke="#000000" points="189,-2710.5 189,-2740.5 423,-2740.5 423,-2710.5 189,-2710.5"/>
<text text-anchor="start" x="196" y="-2721.9" font-family="Arial" font-size="14.00" fill="#000000">ingest_fs_path_id    </text>
<text text-anchor="start" x="339.9158" y="-2721.9" font-family="Arial" font-size="14.00" fill="#666666">[ULID]</text>
<polygon fill="none" stroke="#000000" points="189,-2680.5 189,-2710.5 423,-2710.5 423,-2680.5 189,-2680.5"/>
<text text-anchor="start" x="196" y="-2691.9" font-family="Arial" font-size="14.00" fill="#000000">uri    </text>
<text text-anchor="start" x="245.7546" y="-2691.9" font-family="Arial" font-size="14.00" fill="#666666">[TEXT]</text>
<polygon fill="none" stroke="#000000" points="189,-2650.5 189,-2680.5 423,-2680.5 423,-2650.5 189,-2650.5"/>
<text text-anchor="start" x="196" y="-2661.9" font-family="Arial" font-size="14.00" fill="#000000">content_digest    </text>
<text text-anchor="start" x="321.244" y="-2661.9" font-family="Arial" font-size="14.00" fill="#666666">[TEXT]</text>
<polygon fill="none" stroke="#000000" points="189,-2620.5 189,-2650.5 423,-2650.5 423,-2620.5 189,-2620.5"/>
<text text-anchor="start" x="196" y="-2631.9" font-family="Arial" font-size="14.00" fill="#000000">content    </text>
<text text-anchor="start" x="276.1164" y="-2631.9" font-family="Arial" font-size="14.00" fill="#666666">[BLOB]</text>
<polygon fill="none" stroke="#000000" points="189,-2590.5 189,-2620.5 423,-2620.5 423,-2590.5 189,-2590.5"/>
<text text-anchor="start" x="196" y="-2601.9" font-family="Arial" font-size="14.00" fill="#000000">nature    </text>
<text text-anchor="start" x="269.8864" y="-2601.9" font-family="Arial" font-size="14.00" fill="#666666">[TEXT]</text>
<polygon fill="none" stroke="#000000" points="189,-2560.5 189,-2590.5 423,-2590.5 423,-2560.5 189,-2560.5"/>
<text text-anchor="start" x="196" y="-2571.9" font-family="Arial" font-size="14.00" fill="#000000">size_bytes    </text>
<text text-anchor="start" x="296.3324" y="-2571.9" font-family="Arial" font-size="14.00" fill="#666666">[INTEGER]</text>
<polygon fill="none" stroke="#000000" points="189,-2530.5 189,-2560.5 423,-2560.5 423,-2530.5 189,-2530.5"/>
<text text-anchor="start" x="196" y="-2541.9" font-family="Arial" font-size="14.00" fill="#000000">last_modified_at    </text>
<text text-anchor="start" x="332.1178" y="-2541.9" font-family="Arial" font-size="14.00" fill="#666666">[INTEGER]</text>
<polygon fill="none" stroke="#000000" points="189,-2500.5 189,-2530.5 423,-2530.5 423,-2500.5 189,-2500.5"/>
<text text-anchor="start" x="195.9264" y="-2511.9" font-family="Arial" font-size="14.00" fill="#000000">content_fm_body_attrs    </text>
<text text-anchor="start" x="372.514" y="-2511.9" font-family="Arial" font-size="14.00" fill="#666666">[TEXT]</text>
<polygon fill="none" stroke="#000000" points="189,-2470.5 189,-2500.5 423,-2500.5 423,-2470.5 189,-2470.5"/>
<text text-anchor="start" x="196" y="-2481.9" font-family="Arial" font-size="14.00" fill="#000000">frontmatter    </text>
<text text-anchor="start" x="297.8794" y="-2481.9" font-family="Arial" font-size="14.00" fill="#666666">[TEXT]</text>
<polygon fill="none" stroke="#000000" points="189,-2440.5 189,-2470.5 423,-2470.5 423,-2440.5 189,-2440.5"/>
<text text-anchor="start" x="196" y="-2451.9" font-family="Arial" font-size="14.00" fill="#000000">elaboration    </text>
<text text-anchor="start" x="299.4474" y="-2451.9" font-family="Arial" font-size="14.00" fill="#666666">[TEXT]</text>
<polygon fill="none" stroke="#000000" points="189,-2410.5 189,-2440.5 423,-2440.5 423,-2410.5 189,-2410.5"/>
<text text-anchor="start" x="196" y="-2421.9" font-family="Arial" font-size="14.00" fill="#000000">created_at    </text>
<text text-anchor="start" x="296.3422" y="-2421.9" font-family="Arial" font-size="14.00" fill="#666666">[TIMESTAMP]</text>
<polygon fill="none" stroke="#000000" points="189,-2380.5 189,-2410.5 423,-2410.5 423,-2380.5 189,-2380.5"/>
<text text-anchor="start" x="196" y="-2391.9" font-family="Arial" font-size="14.00" fill="#000000">created_by    </text>
<text text-anchor="start" x="299.4516" y="-2391.9" font-family="Arial" font-size="14.00" fill="#666666">[TEXT]</text>
<polygon fill="none" stroke="#000000" points="189,-2350.5 189,-2380.5 423,-2380.5 423,-2350.5 189,-2350.5"/>
<text text-anchor="start" x="196" y="-2361.9" font-family="Arial" font-size="14.00" fill="#000000">updated_at    </text>
<text text-anchor="start" x="300.2468" y="-2361.9" font-family="Arial" font-size="14.00" fill="#666666">[TIMESTAMP]</text>
<polygon fill="none" stroke="#000000" points="189,-2320.5 189,-2350.5 423,-2350.5 423,-2320.5 189,-2320.5"/>
<text text-anchor="start" x="196" y="-2331.9" font-family="Arial" font-size="14.00" fill="#000000">updated_by    </text>
<text text-anchor="start" x="303.3562" y="-2331.9" font-family="Arial" font-size="14.00" fill="#666666">[TEXT]</text>
<polygon fill="none" stroke="#000000" points="189,-2290.5 189,-2320.5 423,-2320.5 423,-2290.5 189,-2290.5"/>
<text text-anchor="start" x="196" y="-2301.9" font-family="Arial" font-size="14.00" fill="#000000">deleted_at    </text>
<text text-anchor="start" x="295.5708" y="-2301.9" font-family="Arial" font-size="14.00" fill="#666666">[TIMESTAMP]</text>
<polygon fill="none" stroke="#000000" points="189,-2260.5 189,-2290.5 423,-2290.5 423,-2260.5 189,-2260.5"/>
<text text-anchor="start" x="196" y="-2271.9" font-family="Arial" font-size="14.00" fill="#000000">deleted_by    </text>
<text text-anchor="start" x="298.6802" y="-2271.9" font-family="Arial" font-size="14.00" fill="#666666">[TEXT]</text>
<polygon fill="none" stroke="#000000" points="189,-2230.5 189,-2260.5 423,-2260.5 423,-2230.5 189,-2230.5"/>
<text text-anchor="start" x="196" y="-2241.9" font-family="Arial" font-size="14.00" fill="#000000">activity_log    </text>
<text text-anchor="start" x="299.4362" y="-2241.9" font-family="Arial" font-size="14.00" fill="#666666">[TEXT]</text>
</g>
<!-- uniform_resource&#45;&gt;device -->
<g id="edge7" class="edge">
<title>uniform_resource:device_id&#45;&gt;device:device_id</title>
<path fill="none" stroke="#000000" d="M178.8752,-2784.2916C-69.993,-2724.2599 -38.3727,-447.5 218,-447.5"/>
<polygon fill="#000000" stroke="#000000" points="179.0705,-2784.3148 188.4667,-2789.9683 184.0352,-2784.9074 189,-2785.5 189,-2785.5 189,-2785.5 184.0352,-2784.9074 189.5333,-2781.0317 179.0705,-2784.3148 179.0705,-2784.3148"/>
</g>
<!-- uniform_resource&#45;&gt;ur_ingest_session -->
<g id="edge6" class="edge">
<title>uniform_resource:ingest_session_id&#45;&gt;ur_ingest_session:ur_ingest_session_id</title>
<path fill="none" stroke="#000000" d="M432.2364,-2751.3406C483.1862,-2702.3904 457.187,-2236.9792 423,-2188 396.4419,-2149.9506 351.5581,-2190.0494 325,-2152 267.6372,-2069.8172 303.4281,-1798.8731 325,-1701 338.6534,-1639.0537 321.5669,-1571.5 385,-1571.5"/>
<polygon fill="#000000" stroke="#000000" points="432.1181,-2751.3938 421.1522,-2751.3969 427.559,-2753.4469 423,-2755.5 423,-2755.5 423,-2755.5 427.559,-2753.4469 424.8478,-2759.6031 432.1181,-2751.3938 432.1181,-2751.3938"/>
</g>
<!-- uniform_resource&#45;&gt;ur_ingest_session_fs_path -->
<g id="edge5" class="edge">
<title>uniform_resource:ingest_fs_path_id&#45;&gt;ur_ingest_session_fs_path:ur_ingest_session_fs_path_id</title>
<path fill="none" stroke="#000000" d="M433.2591,-2725.2936C657.962,-2716.0677 526.1011,-2399.6091 423,-2188 411.629,-2164.6617 388.371,-2175.3383 377,-2152 358.7986,-2114.6426 335.4444,-2058.5 377,-2058.5"/>
<polygon fill="#000000" stroke="#000000" points="432.998,-2725.2988 422.9094,-2721.0009 427.999,-2725.3994 423,-2725.5 423,-2725.5 423,-2725.5 427.999,-2725.3994 423.0906,-2729.9991 432.998,-2725.2988 432.998,-2725.2988"/>
</g>
<!-- uniform_resource_transform -->
<g id="node6" class="node">
<title>uniform_resource_transform</title>
<polygon fill="#efefef" stroke="transparent" points="43,-3527.5 43,-3562.5 355,-3562.5 355,-3527.5 43,-3527.5"/>
<polygon fill="none" stroke="#000000" points="43,-3527.5 43,-3562.5 355,-3562.5 355,-3527.5 43,-3527.5"/>
<text text-anchor="start" x="49.8242" y="-3540.3" font-family="Arial Bold" font-size="18.00" fill="#000000">uniform_resource_transform</text>
<text text-anchor="start" x="275.8448" y="-3540.3" font-family="Arial" font-size="14.00" fill="#000000">    </text>
<text text-anchor="start" x="310.0496" y="-3540.3" font-family="Arial" font-size="14.00" fill="#666666">[table]</text>
<polygon fill="none" stroke="#000000" points="43,-3497.5 43,-3527.5 355,-3527.5 355,-3497.5 43,-3497.5"/>
<text text-anchor="start" x="50" y="-3508.9" font-family="Arial" font-size="14.00" fill="#000000">uniform_resource_transform_id    </text>
<text text-anchor="start" x="278.6704" y="-3508.9" font-family="Arial" font-size="14.00" fill="#666666">[ULID]</text>
<polygon fill="none" stroke="#000000" points="43,-3467.5 43,-3497.5 355,-3497.5 355,-3467.5 43,-3467.5"/>
<text text-anchor="start" x="50" y="-3478.9" font-family="Arial" font-size="14.00" fill="#000000">uniform_resource_id    </text>
<text text-anchor="start" x="211.777" y="-3478.9" font-family="Arial" font-size="14.00" fill="#666666">[ULID]</text>
<polygon fill="none" stroke="#000000" points="43,-3437.5 43,-3467.5 355,-3467.5 355,-3437.5 43,-3437.5"/>
<text text-anchor="start" x="50" y="-3448.9" font-family="Arial" font-size="14.00" fill="#000000">uri    </text>
<text text-anchor="start" x="99.7546" y="-3448.9" font-family="Arial" font-size="14.00" fill="#666666">[TEXT]</text>
<polygon fill="none" stroke="#000000" points="43,-3407.5 43,-3437.5 355,-3437.5 355,-3407.5 43,-3407.5"/>
<text text-anchor="start" x="50" y="-3418.9" font-family="Arial" font-size="14.00" fill="#000000">content_digest    </text>
<text text-anchor="start" x="175.244" y="-3418.9" font-family="Arial" font-size="14.00" fill="#666666">[TEXT]</text>
<polygon fill="none" stroke="#000000" points="43,-3377.5 43,-3407.5 355,-3407.5 355,-3377.5 43,-3377.5"/>
<text text-anchor="start" x="50" y="-3388.9" font-family="Arial" font-size="14.00" fill="#000000">content    </text>
<text text-anchor="start" x="130.1164" y="-3388.9" font-family="Arial" font-size="14.00" fill="#666666">[BLOB]</text>
<polygon fill="none" stroke="#000000" points="43,-3347.5 43,-3377.5 355,-3377.5 355,-3347.5 43,-3347.5"/>
<text text-anchor="start" x="50" y="-3358.9" font-family="Arial" font-size="14.00" fill="#000000">nature    </text>
<text text-anchor="start" x="123.8864" y="-3358.9" font-family="Arial" font-size="14.00" fill="#666666">[TEXT]</text>
<polygon fill="none" stroke="#000000" points="43,-3317.5 43,-3347.5 355,-3347.5 355,-3317.5 43,-3317.5"/>
<text text-anchor="start" x="50" y="-3328.9" font-family="Arial" font-size="14.00" fill="#000000">size_bytes    </text>
<text text-anchor="start" x="150.3324" y="-3328.9" font-family="Arial" font-size="14.00" fill="#666666">[INTEGER]</text>
<polygon fill="none" stroke="#000000" points="43,-3287.5 43,-3317.5 355,-3317.5 355,-3287.5 43,-3287.5"/>
<text text-anchor="start" x="50" y="-3298.9" font-family="Arial" font-size="14.00" fill="#000000">elaboration    </text>
<text text-anchor="start" x="153.4474" y="-3298.9" font-family="Arial" font-size="14.00" fill="#666666">[TEXT]</text>
<polygon fill="none" stroke="#000000" points="43,-3257.5 43,-3287.5 355,-3287.5 355,-3257.5 43,-3257.5"/>
<text text-anchor="start" x="50" y="-3268.9" font-family="Arial" font-size="14.00" fill="#000000">created_at    </text>
<text text-anchor="start" x="150.3422" y="-3268.9" font-family="Arial" font-size="14.00" fill="#666666">[TIMESTAMP]</text>
<polygon fill="none" stroke="#000000" points="43,-3227.5 43,-3257.5 355,-3257.5 355,-3227.5 43,-3227.5"/>
<text text-anchor="start" x="50" y="-3238.9" font-family="Arial" font-size="14.00" fill="#000000">created_by    </text>
<text text-anchor="start" x="153.4516" y="-3238.9" font-family="Arial" font-size="14.00" fill="#666666">[TEXT]</text>
<polygon fill="none" stroke="#000000" points="43,-3197.5 43,-3227.5 355,-3227.5 355,-3197.5 43,-3197.5"/>
<text text-anchor="start" x="50" y="-3208.9" font-family="Arial" font-size="14.00" fill="#000000">updated_at    </text>
<text text-anchor="start" x="154.2468" y="-3208.9" font-family="Arial" font-size="14.00" fill="#666666">[TIMESTAMP]</text>
<polygon fill="none" stroke="#000000" points="43,-3167.5 43,-3197.5 355,-3197.5 355,-3167.5 43,-3167.5"/>
<text text-anchor="start" x="50" y="-3178.9" font-family="Arial" font-size="14.00" fill="#000000">updated_by    </text>
<text text-anchor="start" x="157.3562" y="-3178.9" font-family="Arial" font-size="14.00" fill="#666666">[TEXT]</text>
<polygon fill="none" stroke="#000000" points="43,-3137.5 43,-3167.5 355,-3167.5 355,-3137.5 43,-3137.5"/>
<text text-anchor="start" x="50" y="-3148.9" font-family="Arial" font-size="14.00" fill="#000000">deleted_at    </text>
<text text-anchor="start" x="149.5708" y="-3148.9" font-family="Arial" font-size="14.00" fill="#666666">[TIMESTAMP]</text>
<polygon fill="none" stroke="#000000" points="43,-3107.5 43,-3137.5 355,-3137.5 355,-3107.5 43,-3107.5"/>
<text text-anchor="start" x="50" y="-3118.9" font-family="Arial" font-size="14.00" fill="#000000">deleted_by    </text>
<text text-anchor="start" x="152.6802" y="-3118.9" font-family="Arial" font-size="14.00" fill="#666666">[TEXT]</text>
<polygon fill="none" stroke="#000000" points="43,-3077.5 43,-3107.5 355,-3107.5 355,-3077.5 43,-3077.5"/>
<text text-anchor="start" x="50" y="-3088.9" font-family="Arial" font-size="14.00" fill="#000000">activity_log    </text>
<text text-anchor="start" x="153.4362" y="-3088.9" font-family="Arial" font-size="14.00" fill="#666666">[TEXT]</text>
</g>
<!-- uniform_resource_transform&#45;&gt;uniform_resource -->
<g id="edge8" class="edge">
<title>uniform_resource_transform:uniform_resource_id&#45;&gt;uniform_resource:uniform_resource_id</title>
<path fill="none" stroke="#000000" d="M363.9067,-3477.392C401.079,-3430.562 375.6402,-3076.5792 355,-3035 313.8161,-2952.0359 230.1839,-2991.9641 189,-2909 170.5229,-2871.7782 147.4444,-2815.5 189,-2815.5"/>
<polygon fill="#000000" stroke="#000000" points="363.6747,-3477.525 352.7613,-3478.5964 359.3374,-3480.0125 355,-3482.5 355,-3482.5 355,-3482.5 359.3374,-3480.0125 357.2387,-3486.4036 363.6747,-3477.525 363.6747,-3477.525"/>
</g>
<!-- ur_ingest_session_fs_path_entry -->
<g id="node7" class="node">
<title>ur_ingest_session_fs_path_entry</title>
<polygon fill="#efefef" stroke="transparent" points="459,-3617.5 459,-3652.5 809,-3652.5 809,-3617.5 459,-3617.5"/>
<polygon fill="none" stroke="#000000" points="459,-3617.5 459,-3652.5 809,-3652.5 809,-3617.5 459,-3617.5"/>
<text text-anchor="start" x="465.791" y="-3630.3" font-family="Arial Bold" font-size="18.00" fill="#000000">ur_ingest_session_fs_path_entry</text>
<text text-anchor="start" x="729.878" y="-3630.3" font-family="Arial" font-size="14.00" fill="#000000">    </text>
<text text-anchor="start" x="764.0828" y="-3630.3" font-family="Arial" font-size="14.00" fill="#666666">[table]</text>
<polygon fill="none" stroke="#000000" points="459,-3587.5 459,-3617.5 809,-3617.5 809,-3587.5 459,-3587.5"/>
<text text-anchor="start" x="466" y="-3598.9" font-family="Arial" font-size="14.00" fill="#000000">ur_ingest_session_fs_path_entry_id    </text>
<text text-anchor="start" x="724.2776" y="-3598.9" font-family="Arial" font-size="14.00" fill="#666666">[ULID]</text>
<polygon fill="none" stroke="#000000" points="459,-3557.5 459,-3587.5 809,-3587.5 809,-3557.5 459,-3557.5"/>
<text text-anchor="start" x="466" y="-3568.9" font-family="Arial" font-size="14.00" fill="#000000">ingest_session_id    </text>
<text text-anchor="start" x="611.4586" y="-3568.9" font-family="Arial" font-size="14.00" fill="#666666">[ULID]</text>
<polygon fill="none" stroke="#000000" points="459,-3527.5 459,-3557.5 809,-3557.5 809,-3527.5 459,-3527.5"/>
<text text-anchor="start" x="466" y="-3538.9" font-family="Arial" font-size="14.00" fill="#000000">ingest_fs_path_id    </text>
<text text-anchor="start" x="609.9158" y="-3538.9" font-family="Arial" font-size="14.00" fill="#666666">[ULID]</text>
<polygon fill="none" stroke="#000000" points="459,-3497.5 459,-3527.5 809,-3527.5 809,-3497.5 459,-3497.5"/>
<text text-anchor="start" x="466" y="-3508.9" font-family="Arial" font-size="14.00" fill="#000000">uniform_resource_id    </text>
<text text-anchor="start" x="627.777" y="-3508.9" font-family="Arial" font-size="14.00" fill="#666666">[ULID]</text>
<polygon fill="none" stroke="#000000" points="459,-3467.5 459,-3497.5 809,-3497.5 809,-3467.5 459,-3467.5"/>
<text text-anchor="start" x="466" y="-3478.9" font-family="Arial" font-size="14.00" fill="#000000">file_path_abs    </text>
<text text-anchor="start" x="583.46" y="-3478.9" font-family="Arial" font-size="14.00" fill="#666666">[TEXT]</text>
<polygon fill="none" stroke="#000000" points="459,-3437.5 459,-3467.5 809,-3467.5 809,-3437.5 459,-3437.5"/>
<text text-anchor="start" x="466" y="-3448.9" font-family="Arial" font-size="14.00" fill="#000000">file_path_rel_parent    </text>
<text text-anchor="start" x="623.9088" y="-3448.9" font-family="Arial" font-size="14.00" fill="#666666">[TEXT]</text>
<polygon fill="none" stroke="#000000" points="459,-3407.5 459,-3437.5 809,-3437.5 809,-3407.5 459,-3407.5"/>
<text text-anchor="start" x="466" y="-3418.9" font-family="Arial" font-size="14.00" fill="#000000">file_path_rel    </text>
<text text-anchor="start" x="576.4446" y="-3418.9" font-family="Arial" font-size="14.00" fill="#666666">[TEXT]</text>
<polygon fill="none" stroke="#000000" points="459,-3377.5 459,-3407.5 809,-3407.5 809,-3377.5 459,-3377.5"/>
<text text-anchor="start" x="466" y="-3388.9" font-family="Arial" font-size="14.00" fill="#000000">file_basename    </text>
<text text-anchor="start" x="591.23" y="-3388.9" font-family="Arial" font-size="14.00" fill="#666666">[TEXT]</text>
<polygon fill="none" stroke="#000000" points="459,-3347.5 459,-3377.5 809,-3377.5 809,-3347.5 459,-3347.5"/>
<text text-anchor="start" x="466" y="-3358.9" font-family="Arial" font-size="14.00" fill="#000000">file_extn    </text>
<text text-anchor="start" x="552.3296" y="-3358.9" font-family="Arial" font-size="14.00" fill="#666666">[TEXT]</text>
<polygon fill="none" stroke="#000000" points="459,-3317.5 459,-3347.5 809,-3347.5 809,-3317.5 459,-3317.5"/>
<text text-anchor="start" x="466" y="-3328.9" font-family="Arial" font-size="14.00" fill="#000000">captured_executable    </text>
<text text-anchor="start" x="630.1444" y="-3328.9" font-family="Arial" font-size="14.00" fill="#666666">[TEXT]</text>
<polygon fill="none" stroke="#000000" points="459,-3287.5 459,-3317.5 809,-3317.5 809,-3287.5 459,-3287.5"/>
<text text-anchor="start" x="466" y="-3298.9" font-family="Arial" font-size="14.00" fill="#000000">ur_status    </text>
<text text-anchor="start" x="557.777" y="-3298.9" font-family="Arial" font-size="14.00" fill="#666666">[TEXT]</text>
<polygon fill="none" stroke="#000000" points="459,-3257.5 459,-3287.5 809,-3287.5 809,-3257.5 459,-3257.5"/>
<text text-anchor="start" x="466" y="-3268.9" font-family="Arial" font-size="14.00" fill="#000000">ur_diagnostics    </text>
<text text-anchor="start" x="590.4474" y="-3268.9" font-family="Arial" font-size="14.00" fill="#666666">[TEXT]</text>
<polygon fill="none" stroke="#000000" points="459,-3227.5 459,-3257.5 809,-3257.5 809,-3227.5 459,-3227.5"/>
<text text-anchor="start" x="466" y="-3238.9" font-family="Arial" font-size="14.00" fill="#000000">ur_transformations    </text>
<text text-anchor="start" x="616.8864" y="-3238.9" font-family="Arial" font-size="14.00" fill="#666666">[TEXT]</text>
<polygon fill="none" stroke="#000000" points="459,-3197.5 459,-3227.5 809,-3227.5 809,-3197.5 459,-3197.5"/>
<text text-anchor="start" x="466" y="-3208.9" font-family="Arial" font-size="14.00" fill="#000000">elaboration    </text>
<text text-anchor="start" x="569.4474" y="-3208.9" font-family="Arial" font-size="14.00" fill="#666666">[TEXT]</text>
<polygon fill="none" stroke="#000000" points="459,-3167.5 459,-3197.5 809,-3197.5 809,-3167.5 459,-3167.5"/>
<text text-anchor="start" x="466" y="-3178.9" font-family="Arial" font-size="14.00" fill="#000000">created_at    </text>
<text text-anchor="start" x="566.3422" y="-3178.9" font-family="Arial" font-size="14.00" fill="#666666">[TIMESTAMP]</text>
<polygon fill="none" stroke="#000000" points="459,-3137.5 459,-3167.5 809,-3167.5 809,-3137.5 459,-3137.5"/>
<text text-anchor="start" x="466" y="-3148.9" font-family="Arial" font-size="14.00" fill="#000000">created_by    </text>
<text text-anchor="start" x="569.4516" y="-3148.9" font-family="Arial" font-size="14.00" fill="#666666">[TEXT]</text>
<polygon fill="none" stroke="#000000" points="459,-3107.5 459,-3137.5 809,-3137.5 809,-3107.5 459,-3107.5"/>
<text text-anchor="start" x="466" y="-3118.9" font-family="Arial" font-size="14.00" fill="#000000">updated_at    </text>
<text text-anchor="start" x="570.2468" y="-3118.9" font-family="Arial" font-size="14.00" fill="#666666">[TIMESTAMP]</text>
<polygon fill="none" stroke="#000000" points="459,-3077.5 459,-3107.5 809,-3107.5 809,-3077.5 459,-3077.5"/>
<text text-anchor="start" x="466" y="-3088.9" font-family="Arial" font-size="14.00" fill="#000000">updated_by    </text>
<text text-anchor="start" x="573.3562" y="-3088.9" font-family="Arial" font-size="14.00" fill="#666666">[TEXT]</text>
<polygon fill="none" stroke="#000000" points="459,-3047.5 459,-3077.5 809,-3077.5 809,-3047.5 459,-3047.5"/>
<text text-anchor="start" x="466" y="-3058.9" font-family="Arial" font-size="14.00" fill="#000000">deleted_at    </text>
<text text-anchor="start" x="565.5708" y="-3058.9" font-family="Arial" font-size="14.00" fill="#666666">[TIMESTAMP]</text>
<polygon fill="none" stroke="#000000" points="459,-3017.5 459,-3047.5 809,-3047.5 809,-3017.5 459,-3017.5"/>
<text text-anchor="start" x="466" y="-3028.9" font-family="Arial" font-size="14.00" fill="#000000">deleted_by    </text>
<text text-anchor="start" x="568.6802" y="-3028.9" font-family="Arial" font-size="14.00" fill="#666666">[TEXT]</text>
<polygon fill="none" stroke="#000000" points="459,-2987.5 459,-3017.5 809,-3017.5 809,-2987.5 459,-2987.5"/>
<text text-anchor="start" x="466" y="-2998.9" font-family="Arial" font-size="14.00" fill="#000000">activity_log    </text>
<text text-anchor="start" x="569.4362" y="-2998.9" font-family="Arial" font-size="14.00" fill="#666666">[TEXT]</text>
</g>
<!-- ur_ingest_session_fs_path_entry&#45;&gt;ur_ingest_session -->
<g id="edge11" class="edge">
<title>ur_ingest_session_fs_path_entry:ingest_session_id&#45;&gt;ur_ingest_session:ur_ingest_session_id</title>
<path fill="none" stroke="#000000" d="M819.1716,-3571.0497C1026.7228,-3510.4573 854.6853,-1571.5 635,-1571.5"/>
<polygon fill="#000000" stroke="#000000" points="818.8999,-3571.0884 808.3648,-3568.0451 813.9499,-3571.7942 809,-3572.5 809,-3572.5 809,-3572.5 813.9499,-3571.7942 809.6352,-3576.9549 818.8999,-3571.0884 818.8999,-3571.0884"/>
</g>
<!-- ur_ingest_session_fs_path_entry&#45;&gt;ur_ingest_session_fs_path -->
<g id="edge10" class="edge">
<title>ur_ingest_session_fs_path_entry:ingest_fs_path_id&#45;&gt;ur_ingest_session_fs_path:ur_ingest_session_fs_path_id</title>
<path fill="none" stroke="#000000" d="M449.786,-3538.511C397.8539,-3489.618 445.9181,-3006.6448 459,-2945 462.6347,-2927.8723 469.1693,-2925.5097 475,-2909 590.9602,-2580.6585 631.7268,-2497.2611 677,-2152 682.4028,-2110.7972 718.5556,-2058.5 677,-2058.5"/>
<polygon fill="#000000" stroke="#000000" points="449.8231,-3538.527 457.2122,-3546.6296 454.4115,-3540.5135 459,-3542.5 459,-3542.5 459,-3542.5 454.4115,-3540.5135 460.7878,-3538.3704 449.8231,-3538.527 449.8231,-3538.527"/>
</g>
<!-- ur_ingest_session_fs_path_entry&#45;&gt;uniform_resource -->
<g id="edge9" class="edge">
<title>ur_ingest_session_fs_path_entry:uniform_resource_id&#45;&gt;uniform_resource:uniform_resource_id</title>
<path fill="none" stroke="#000000" d="M449.704,-3508.4068C391.7555,-3451.2854 497.0641,-2815.5 423,-2815.5"/>
<polygon fill="#000000" stroke="#000000" points="449.8479,-3508.4701 457.1865,-3516.6184 454.424,-3510.485 459,-3512.5 459,-3512.5 459,-3512.5 454.424,-3510.485 460.8135,-3508.3816 449.8479,-3508.4701 449.8479,-3508.4701"/>
</g>
</g>
</svg>
