<?xml version="1.0" encoding="UTF-8" standalone="no"?>
<!DOCTYPE svg PUBLIC "-//W3C//DTD SVG 1.1//EN"
 "http://www.w3.org/Graphics/SVG/1.1/DTD/svg11.dtd">
<!-- Generated by graphviz version 2.40.1 (20161225.0304)
 -->
<!-- Title: Resource Surveillance State Schema Pages: 1 -->
<svg width="747pt" height="3644pt"
 viewBox="0.00 0.00 747.39 3644.00" xmlns="http://www.w3.org/2000/svg" xmlns:xlink="http://www.w3.org/1999/xlink">
<g id="graph0" class="graph" transform="scale(1 1) rotate(0) translate(4 3640)">
<title>Resource Surveillance State Schema</title>
<polygon fill="#ffffff" stroke="transparent" points="-4,4 -4,-3640 743.3878,-3640 743.3878,4 -4,4"/>
<!-- device -->
<g id="node1" class="node">
<title>device</title>
<polygon fill="#efefef" stroke="transparent" points="258.371,-462.5 258.371,-497.5 465.371,-497.5 465.371,-462.5 258.371,-462.5"/>
<polygon fill="none" stroke="#000000" points="258.371,-462.5 258.371,-497.5 465.371,-497.5 465.371,-462.5 258.371,-462.5"/>
<text text-anchor="start" x="299.6991" y="-475.3" font-family="Arial Bold" font-size="18.00" fill="#000000">device</text>
<text text-anchor="start" x="351.7119" y="-475.3" font-family="Arial" font-size="14.00" fill="#000000">    </text>
<text text-anchor="start" x="385.9167" y="-475.3" font-family="Arial" font-size="14.00" fill="#666666">[table]</text>
<polygon fill="none" stroke="#000000" points="258.371,-432.5 258.371,-462.5 465.371,-462.5 465.371,-432.5 258.371,-432.5"/>
<text text-anchor="start" x="265.371" y="-443.9" font-family="Arial" font-size="14.00" fill="#000000">device_id    </text>
<text text-anchor="start" x="358.702" y="-443.9" font-family="Arial" font-size="14.00" fill="#666666">[ULID]</text>
<polygon fill="none" stroke="#000000" points="258.371,-402.5 258.371,-432.5 465.371,-432.5 465.371,-402.5 258.371,-402.5"/>
<text text-anchor="start" x="265.371" y="-413.9" font-family="Arial" font-size="14.00" fill="#000000">name    </text>
<text text-anchor="start" x="334.5842" y="-413.9" font-family="Arial" font-size="14.00" fill="#666666">[TEXT]</text>
<polygon fill="none" stroke="#000000" points="258.371,-372.5 258.371,-402.5 465.371,-402.5 465.371,-372.5 258.371,-372.5"/>
<text text-anchor="start" x="265.371" y="-383.9" font-family="Arial" font-size="14.00" fill="#000000">state    </text>
<text text-anchor="start" x="329.9222" y="-383.9" font-family="Arial" font-size="14.00" fill="#666666">[TEXT]</text>
<polygon fill="none" stroke="#000000" points="258.371,-342.5 258.371,-372.5 465.371,-372.5 465.371,-342.5 258.371,-342.5"/>
<text text-anchor="start" x="265.371" y="-353.9" font-family="Arial" font-size="14.00" fill="#000000">boundary    </text>
<text text-anchor="start" x="357.932" y="-353.9" font-family="Arial" font-size="14.00" fill="#666666">[TEXT]</text>
<polygon fill="none" stroke="#000000" points="258.371,-312.5 258.371,-342.5 465.371,-342.5 465.371,-312.5 258.371,-312.5"/>
<text text-anchor="start" x="265.371" y="-323.9" font-family="Arial" font-size="14.00" fill="#000000">segmentation    </text>
<text text-anchor="start" x="383.6024" y="-323.9" font-family="Arial" font-size="14.00" fill="#666666">[TEXT]</text>
<polygon fill="none" stroke="#000000" points="258.371,-282.5 258.371,-312.5 465.371,-312.5 465.371,-282.5 258.371,-282.5"/>
<text text-anchor="start" x="265.371" y="-293.9" font-family="Arial" font-size="14.00" fill="#000000">state_sysinfo    </text>
<text text-anchor="start" x="381.2672" y="-293.9" font-family="Arial" font-size="14.00" fill="#666666">[TEXT]</text>
<polygon fill="none" stroke="#000000" points="258.371,-252.5 258.371,-282.5 465.371,-282.5 465.371,-252.5 258.371,-252.5"/>
<text text-anchor="start" x="265.371" y="-263.9" font-family="Arial" font-size="14.00" fill="#000000">elaboration    </text>
<text text-anchor="start" x="368.8184" y="-263.9" font-family="Arial" font-size="14.00" fill="#666666">[TEXT]</text>
<polygon fill="none" stroke="#000000" points="258.371,-222.5 258.371,-252.5 465.371,-252.5 465.371,-222.5 258.371,-222.5"/>
<text text-anchor="start" x="265.371" y="-233.9" font-family="Arial" font-size="14.00" fill="#000000">created_at    </text>
<text text-anchor="start" x="365.7132" y="-233.9" font-family="Arial" font-size="14.00" fill="#666666">[TIMESTAMP]</text>
<polygon fill="none" stroke="#000000" points="258.371,-192.5 258.371,-222.5 465.371,-222.5 465.371,-192.5 258.371,-192.5"/>
<text text-anchor="start" x="265.371" y="-203.9" font-family="Arial" font-size="14.00" fill="#000000">created_by    </text>
<text text-anchor="start" x="368.8226" y="-203.9" font-family="Arial" font-size="14.00" fill="#666666">[TEXT]</text>
<polygon fill="none" stroke="#000000" points="258.371,-162.5 258.371,-192.5 465.371,-192.5 465.371,-162.5 258.371,-162.5"/>
<text text-anchor="start" x="265.0253" y="-173.9" font-family="Arial" font-size="14.00" fill="#000000">updated_at    </text>
<text text-anchor="start" x="369.2721" y="-173.9" font-family="Arial" font-size="14.00" fill="#666666">[TIMESTAMP]</text>
<polygon fill="none" stroke="#000000" points="258.371,-132.5 258.371,-162.5 465.371,-162.5 465.371,-132.5 258.371,-132.5"/>
<text text-anchor="start" x="265.371" y="-143.9" font-family="Arial" font-size="14.00" fill="#000000">updated_by    </text>
<text text-anchor="start" x="372.7272" y="-143.9" font-family="Arial" font-size="14.00" fill="#666666">[TEXT]</text>
<polygon fill="none" stroke="#000000" points="258.371,-102.5 258.371,-132.5 465.371,-132.5 465.371,-102.5 258.371,-102.5"/>
<text text-anchor="start" x="265.371" y="-113.9" font-family="Arial" font-size="14.00" fill="#000000">deleted_at    </text>
<text text-anchor="start" x="364.9418" y="-113.9" font-family="Arial" font-size="14.00" fill="#666666">[TIMESTAMP]</text>
<polygon fill="none" stroke="#000000" points="258.371,-72.5 258.371,-102.5 465.371,-102.5 465.371,-72.5 258.371,-72.5"/>
<text text-anchor="start" x="265.371" y="-83.9" font-family="Arial" font-size="14.00" fill="#000000">deleted_by    </text>
<text text-anchor="start" x="368.0512" y="-83.9" font-family="Arial" font-size="14.00" fill="#666666">[TEXT]</text>
<polygon fill="none" stroke="#000000" points="258.371,-42.5 258.371,-72.5 465.371,-72.5 465.371,-42.5 258.371,-42.5"/>
<text text-anchor="start" x="265.371" y="-53.9" font-family="Arial" font-size="14.00" fill="#000000">activity_log    </text>
<text text-anchor="start" x="368.8072" y="-53.9" font-family="Arial" font-size="14.00" fill="#666666">[TEXT]</text>
</g>
<!-- behavior -->
<g id="node2" class="node">
<title>behavior</title>
<polygon fill="#efefef" stroke="transparent" points="246.371,-1009.5 246.371,-1044.5 477.371,-1044.5 477.371,-1009.5 246.371,-1009.5"/>
<polygon fill="none" stroke="#000000" points="246.371,-1009.5 246.371,-1044.5 477.371,-1044.5 477.371,-1009.5 246.371,-1009.5"/>
<text text-anchor="start" x="291.1968" y="-1022.3" font-family="Arial Bold" font-size="18.00" fill="#000000">behavior</text>
<text text-anchor="start" x="360.2142" y="-1022.3" font-family="Arial" font-size="14.00" fill="#000000">    </text>
<text text-anchor="start" x="394.419" y="-1022.3" font-family="Arial" font-size="14.00" fill="#666666">[table]</text>
<polygon fill="none" stroke="#000000" points="246.371,-979.5 246.371,-1009.5 477.371,-1009.5 477.371,-979.5 246.371,-979.5"/>
<text text-anchor="start" x="253.371" y="-990.9" font-family="Arial" font-size="14.00" fill="#000000">behavior_id    </text>
<text text-anchor="start" x="359.9278" y="-990.9" font-family="Arial" font-size="14.00" fill="#666666">[ULID]</text>
<polygon fill="none" stroke="#000000" points="246.371,-949.5 246.371,-979.5 477.371,-979.5 477.371,-949.5 246.371,-949.5"/>
<text text-anchor="start" x="253.371" y="-960.9" font-family="Arial" font-size="14.00" fill="#000000">device_id    </text>
<text text-anchor="start" x="346.702" y="-960.9" font-family="Arial" font-size="14.00" fill="#666666">[ULID]</text>
<polygon fill="none" stroke="#000000" points="246.371,-919.5 246.371,-949.5 477.371,-949.5 477.371,-919.5 246.371,-919.5"/>
<text text-anchor="start" x="253.371" y="-930.9" font-family="Arial" font-size="14.00" fill="#000000">behavior_name    </text>
<text text-anchor="start" x="384.047" y="-930.9" font-family="Arial" font-size="14.00" fill="#666666">[TEXT]</text>
<polygon fill="none" stroke="#000000" points="246.371,-889.5 246.371,-919.5 477.371,-919.5 477.371,-889.5 246.371,-889.5"/>
<text text-anchor="start" x="253.371" y="-900.9" font-family="Arial" font-size="14.00" fill="#000000">behavior_conf_json    </text>
<text text-anchor="start" x="408.9488" y="-900.9" font-family="Arial" font-size="14.00" fill="#666666">[TEXT]</text>
<polygon fill="none" stroke="#000000" points="246.371,-859.5 246.371,-889.5 477.371,-889.5 477.371,-859.5 246.371,-859.5"/>
<text text-anchor="start" x="252.9706" y="-870.9" font-family="Arial" font-size="14.00" fill="#000000">assurance_schema_id    </text>
<text text-anchor="start" x="427.2118" y="-870.9" font-family="Arial" font-size="14.00" fill="#666666">[TEXT]</text>
<polygon fill="none" stroke="#000000" points="246.371,-829.5 246.371,-859.5 477.371,-859.5 477.371,-829.5 246.371,-829.5"/>
<text text-anchor="start" x="253.371" y="-840.9" font-family="Arial" font-size="14.00" fill="#000000">governance    </text>
<text text-anchor="start" x="360.7146" y="-840.9" font-family="Arial" font-size="14.00" fill="#666666">[TEXT]</text>
<polygon fill="none" stroke="#000000" points="246.371,-799.5 246.371,-829.5 477.371,-829.5 477.371,-799.5 246.371,-799.5"/>
<text text-anchor="start" x="253.371" y="-810.9" font-family="Arial" font-size="14.00" fill="#000000">created_at    </text>
<text text-anchor="start" x="353.7132" y="-810.9" font-family="Arial" font-size="14.00" fill="#666666">[TIMESTAMP]</text>
<polygon fill="none" stroke="#000000" points="246.371,-769.5 246.371,-799.5 477.371,-799.5 477.371,-769.5 246.371,-769.5"/>
<text text-anchor="start" x="253.371" y="-780.9" font-family="Arial" font-size="14.00" fill="#000000">created_by    </text>
<text text-anchor="start" x="356.8226" y="-780.9" font-family="Arial" font-size="14.00" fill="#666666">[TEXT]</text>
<polygon fill="none" stroke="#000000" points="246.371,-739.5 246.371,-769.5 477.371,-769.5 477.371,-739.5 246.371,-739.5"/>
<text text-anchor="start" x="253.371" y="-750.9" font-family="Arial" font-size="14.00" fill="#000000">updated_at    </text>
<text text-anchor="start" x="357.6178" y="-750.9" font-family="Arial" font-size="14.00" fill="#666666">[TIMESTAMP]</text>
<polygon fill="none" stroke="#000000" points="246.371,-709.5 246.371,-739.5 477.371,-739.5 477.371,-709.5 246.371,-709.5"/>
<text text-anchor="start" x="253.371" y="-720.9" font-family="Arial" font-size="14.00" fill="#000000">updated_by    </text>
<text text-anchor="start" x="360.7272" y="-720.9" font-family="Arial" font-size="14.00" fill="#666666">[TEXT]</text>
<polygon fill="none" stroke="#000000" points="246.371,-679.5 246.371,-709.5 477.371,-709.5 477.371,-679.5 246.371,-679.5"/>
<text text-anchor="start" x="253.371" y="-690.9" font-family="Arial" font-size="14.00" fill="#000000">deleted_at    </text>
<text text-anchor="start" x="352.9418" y="-690.9" font-family="Arial" font-size="14.00" fill="#666666">[TIMESTAMP]</text>
<polygon fill="none" stroke="#000000" points="246.371,-649.5 246.371,-679.5 477.371,-679.5 477.371,-649.5 246.371,-649.5"/>
<text text-anchor="start" x="253.371" y="-660.9" font-family="Arial" font-size="14.00" fill="#000000">deleted_by    </text>
<text text-anchor="start" x="356.0512" y="-660.9" font-family="Arial" font-size="14.00" fill="#666666">[TEXT]</text>
<polygon fill="none" stroke="#000000" points="246.371,-619.5 246.371,-649.5 477.371,-649.5 477.371,-619.5 246.371,-619.5"/>
<text text-anchor="start" x="253.371" y="-630.9" font-family="Arial" font-size="14.00" fill="#000000">activity_log    </text>
<text text-anchor="start" x="356.8072" y="-630.9" font-family="Arial" font-size="14.00" fill="#666666">[TEXT]</text>
</g>
<!-- behavior&#45;&gt;device -->
<g id="edge1" class="edge">
<title>behavior:device_id&#45;&gt;device:device_id</title>
<path fill="none" stroke="#000000" d="M237.2715,-959.712C190.4163,-907.5922 204.1657,-447.5 258.371,-447.5"/>
<polygon fill="#000000" stroke="#000000" points="237.5213,-959.8434 244.2756,-968.4824 241.9462,-962.1717 246.371,-964.5 246.371,-964.5 246.371,-964.5 241.9462,-962.1717 248.4665,-960.5176 237.5213,-959.8434 237.5213,-959.8434"/>
</g>
<!-- ur_walk_session -->
<g id="node3" class="node">
<title>ur_walk_session</title>
<polygon fill="#efefef" stroke="transparent" points="186.371,-1586.5 186.371,-1621.5 427.371,-1621.5 427.371,-1586.5 186.371,-1586.5"/>
<polygon fill="none" stroke="#000000" points="186.371,-1586.5 186.371,-1621.5 427.371,-1621.5 427.371,-1586.5 186.371,-1586.5"/>
<text text-anchor="start" x="204.1964" y="-1599.3" font-family="Arial Bold" font-size="18.00" fill="#000000">ur_walk_session</text>
<text text-anchor="start" x="337.2146" y="-1599.3" font-family="Arial" font-size="14.00" fill="#000000">    </text>
<text text-anchor="start" x="371.4194" y="-1599.3" font-family="Arial" font-size="14.00" fill="#666666">[table]</text>
<polygon fill="none" stroke="#000000" points="186.371,-1556.5 186.371,-1586.5 427.371,-1586.5 427.371,-1556.5 186.371,-1556.5"/>
<text text-anchor="start" x="193.371" y="-1567.9" font-family="Arial" font-size="14.00" fill="#000000">ur_walk_session_id    </text>
<text text-anchor="start" x="349.7062" y="-1567.9" font-family="Arial" font-size="14.00" fill="#666666">[ULID]</text>
<polygon fill="none" stroke="#000000" points="186.371,-1526.5 186.371,-1556.5 427.371,-1556.5 427.371,-1526.5 186.371,-1526.5"/>
<text text-anchor="start" x="193.371" y="-1537.9" font-family="Arial" font-size="14.00" fill="#000000">device_id    </text>
<text text-anchor="start" x="286.702" y="-1537.9" font-family="Arial" font-size="14.00" fill="#666666">[ULID]</text>
<polygon fill="none" stroke="#000000" points="186.371,-1496.5 186.371,-1526.5 427.371,-1526.5 427.371,-1496.5 186.371,-1496.5"/>
<text text-anchor="start" x="193.371" y="-1507.9" font-family="Arial" font-size="14.00" fill="#000000">behavior_id    </text>
<text text-anchor="start" x="299.9278" y="-1507.9" font-family="Arial" font-size="14.00" fill="#666666">[ULID]</text>
<polygon fill="none" stroke="#000000" points="186.371,-1466.5 186.371,-1496.5 427.371,-1496.5 427.371,-1466.5 186.371,-1466.5"/>
<text text-anchor="start" x="193.371" y="-1477.9" font-family="Arial" font-size="14.00" fill="#000000">behavior_json    </text>
<text text-anchor="start" x="314.7104" y="-1477.9" font-family="Arial" font-size="14.00" fill="#666666">[TEXT]</text>
<polygon fill="none" stroke="#000000" points="186.371,-1436.5 186.371,-1466.5 427.371,-1466.5 427.371,-1436.5 186.371,-1436.5"/>
<text text-anchor="start" x="193.371" y="-1447.9" font-family="Arial" font-size="14.00" fill="#000000">walk_started_at    </text>
<text text-anchor="start" x="325.5996" y="-1447.9" font-family="Arial" font-size="14.00" fill="#666666">[TIMESTAMP]</text>
<polygon fill="none" stroke="#000000" points="186.371,-1406.5 186.371,-1436.5 427.371,-1436.5 427.371,-1406.5 186.371,-1406.5"/>
<text text-anchor="start" x="193.3121" y="-1417.9" font-family="Arial" font-size="14.00" fill="#000000">walk_finished_at    </text>
<text text-anchor="start" x="330.9853" y="-1417.9" font-family="Arial" font-size="14.00" fill="#666666">[TIMESTAMP]</text>
<polygon fill="none" stroke="#000000" points="186.371,-1376.5 186.371,-1406.5 427.371,-1406.5 427.371,-1376.5 186.371,-1376.5"/>
<text text-anchor="start" x="193.371" y="-1387.9" font-family="Arial" font-size="14.00" fill="#000000">elaboration    </text>
<text text-anchor="start" x="296.8184" y="-1387.9" font-family="Arial" font-size="14.00" fill="#666666">[TEXT]</text>
<polygon fill="none" stroke="#000000" points="186.371,-1346.5 186.371,-1376.5 427.371,-1376.5 427.371,-1346.5 186.371,-1346.5"/>
<text text-anchor="start" x="193.371" y="-1357.9" font-family="Arial" font-size="14.00" fill="#000000">created_at    </text>
<text text-anchor="start" x="293.7132" y="-1357.9" font-family="Arial" font-size="14.00" fill="#666666">[TIMESTAMP]</text>
<polygon fill="none" stroke="#000000" points="186.371,-1316.5 186.371,-1346.5 427.371,-1346.5 427.371,-1316.5 186.371,-1316.5"/>
<text text-anchor="start" x="193.371" y="-1327.9" font-family="Arial" font-size="14.00" fill="#000000">created_by    </text>
<text text-anchor="start" x="296.8226" y="-1327.9" font-family="Arial" font-size="14.00" fill="#666666">[TEXT]</text>
<polygon fill="none" stroke="#000000" points="186.371,-1286.5 186.371,-1316.5 427.371,-1316.5 427.371,-1286.5 186.371,-1286.5"/>
<text text-anchor="start" x="193.371" y="-1297.9" font-family="Arial" font-size="14.00" fill="#000000">updated_at    </text>
<text text-anchor="start" x="297.6178" y="-1297.9" font-family="Arial" font-size="14.00" fill="#666666">[TIMESTAMP]</text>
<polygon fill="none" stroke="#000000" points="186.371,-1256.5 186.371,-1286.5 427.371,-1286.5 427.371,-1256.5 186.371,-1256.5"/>
<text text-anchor="start" x="193.371" y="-1267.9" font-family="Arial" font-size="14.00" fill="#000000">updated_by    </text>
<text text-anchor="start" x="300.7272" y="-1267.9" font-family="Arial" font-size="14.00" fill="#666666">[TEXT]</text>
<polygon fill="none" stroke="#000000" points="186.371,-1226.5 186.371,-1256.5 427.371,-1256.5 427.371,-1226.5 186.371,-1226.5"/>
<text text-anchor="start" x="193.371" y="-1237.9" font-family="Arial" font-size="14.00" fill="#000000">deleted_at    </text>
<text text-anchor="start" x="292.9418" y="-1237.9" font-family="Arial" font-size="14.00" fill="#666666">[TIMESTAMP]</text>
<polygon fill="none" stroke="#000000" points="186.371,-1196.5 186.371,-1226.5 427.371,-1226.5 427.371,-1196.5 186.371,-1196.5"/>
<text text-anchor="start" x="193.371" y="-1207.9" font-family="Arial" font-size="14.00" fill="#000000">deleted_by    </text>
<text text-anchor="start" x="296.0512" y="-1207.9" font-family="Arial" font-size="14.00" fill="#666666">[TEXT]</text>
<polygon fill="none" stroke="#000000" points="186.371,-1166.5 186.371,-1196.5 427.371,-1196.5 427.371,-1166.5 186.371,-1166.5"/>
<text text-anchor="start" x="193.371" y="-1177.9" font-family="Arial" font-size="14.00" fill="#000000">activity_log    </text>
<text text-anchor="start" x="296.8072" y="-1177.9" font-family="Arial" font-size="14.00" fill="#666666">[TEXT]</text>
</g>
<!-- ur_walk_session&#45;&gt;device -->
<g id="edge3" class="edge">
<title>ur_walk_session:device_id&#45;&gt;device:device_id</title>
<path fill="none" stroke="#000000" d="M176.2107,-1540.8481C-55.1925,-1510.7369 18.1839,-447.5 258.371,-447.5"/>
<polygon fill="#000000" stroke="#000000" points="176.3916,-1540.8597 186.0829,-1545.9908 181.3813,-1541.1798 186.371,-1541.5 186.371,-1541.5 186.371,-1541.5 181.3813,-1541.1798 186.6592,-1537.0092 176.3916,-1540.8597 176.3916,-1540.8597"/>
</g>
<!-- ur_walk_session&#45;&gt;behavior -->
<g id="edge2" class="edge">
<title>ur_walk_session:behavior_id&#45;&gt;behavior:behavior_id</title>
<path fill="none" stroke="#000000" d="M437.6716,-1511.1823C596.9913,-1501.1178 534.3881,-1254.3985 427.371,-1124 375.3375,-1060.598 298.4046,-1151.402 246.371,-1088 220.0082,-1055.8773 204.8155,-994.5 246.371,-994.5"/>
<polygon fill="#000000" stroke="#000000" points="437.3663,-1511.1916 427.2323,-1507.0021 432.3687,-1511.3458 427.371,-1511.5 427.371,-1511.5 427.371,-1511.5 432.3687,-1511.3458 427.5098,-1515.9979 437.3663,-1511.1916 437.3663,-1511.1916"/>
</g>
<!-- ur_walk_session_path -->
<g id="node4" class="node">
<title>ur_walk_session_path</title>
<polygon fill="#efefef" stroke="transparent" points="175.371,-2073.5 175.371,-2108.5 439.371,-2108.5 439.371,-2073.5 175.371,-2073.5"/>
<polygon fill="none" stroke="#000000" points="175.371,-2073.5 175.371,-2108.5 439.371,-2108.5 439.371,-2073.5 175.371,-2073.5"/>
<text text-anchor="start" x="182.1829" y="-2086.3" font-family="Arial Bold" font-size="18.00" fill="#000000">ur_walk_session_path</text>
<text text-anchor="start" x="360.2281" y="-2086.3" font-family="Arial" font-size="14.00" fill="#000000">    </text>
<text text-anchor="start" x="394.4329" y="-2086.3" font-family="Arial" font-size="14.00" fill="#666666">[table]</text>
<polygon fill="none" stroke="#000000" points="175.371,-2043.5 175.371,-2073.5 439.371,-2073.5 439.371,-2043.5 175.371,-2043.5"/>
<text text-anchor="start" x="182.371" y="-2054.9" font-family="Arial" font-size="14.00" fill="#000000">ur_walk_session_path_id    </text>
<text text-anchor="start" x="373.7272" y="-2054.9" font-family="Arial" font-size="14.00" fill="#666666">[ULID]</text>
<polygon fill="none" stroke="#000000" points="175.371,-2013.5 175.371,-2043.5 439.371,-2043.5 439.371,-2013.5 175.371,-2013.5"/>
<text text-anchor="start" x="182.371" y="-2024.9" font-family="Arial" font-size="14.00" fill="#000000">walk_session_id    </text>
<text text-anchor="start" x="318.4804" y="-2024.9" font-family="Arial" font-size="14.00" fill="#666666">[ULID]</text>
<polygon fill="none" stroke="#000000" points="175.371,-1983.5 175.371,-2013.5 439.371,-2013.5 439.371,-1983.5 175.371,-1983.5"/>
<text text-anchor="start" x="182.371" y="-1994.9" font-family="Arial" font-size="14.00" fill="#000000">root_path    </text>
<text text-anchor="start" x="275.7132" y="-1994.9" font-family="Arial" font-size="14.00" fill="#666666">[TEXT]</text>
<polygon fill="none" stroke="#000000" points="175.371,-1953.5 175.371,-1983.5 439.371,-1983.5 439.371,-1953.5 175.371,-1953.5"/>
<text text-anchor="start" x="182.371" y="-1964.9" font-family="Arial" font-size="14.00" fill="#000000">elaboration    </text>
<text text-anchor="start" x="285.8184" y="-1964.9" font-family="Arial" font-size="14.00" fill="#666666">[TEXT]</text>
<polygon fill="none" stroke="#000000" points="175.371,-1923.5 175.371,-1953.5 439.371,-1953.5 439.371,-1923.5 175.371,-1923.5"/>
<text text-anchor="start" x="182.371" y="-1934.9" font-family="Arial" font-size="14.00" fill="#000000">created_at    </text>
<text text-anchor="start" x="282.7132" y="-1934.9" font-family="Arial" font-size="14.00" fill="#666666">[TIMESTAMP]</text>
<polygon fill="none" stroke="#000000" points="175.371,-1893.5 175.371,-1923.5 439.371,-1923.5 439.371,-1893.5 175.371,-1893.5"/>
<text text-anchor="start" x="182.371" y="-1904.9" font-family="Arial" font-size="14.00" fill="#000000">created_by    </text>
<text text-anchor="start" x="285.8226" y="-1904.9" font-family="Arial" font-size="14.00" fill="#666666">[TEXT]</text>
<polygon fill="none" stroke="#000000" points="175.371,-1863.5 175.371,-1893.5 439.371,-1893.5 439.371,-1863.5 175.371,-1863.5"/>
<text text-anchor="start" x="182.371" y="-1874.9" font-family="Arial" font-size="14.00" fill="#000000">updated_at    </text>
<text text-anchor="start" x="286.6178" y="-1874.9" font-family="Arial" font-size="14.00" fill="#666666">[TIMESTAMP]</text>
<polygon fill="none" stroke="#000000" points="175.371,-1833.5 175.371,-1863.5 439.371,-1863.5 439.371,-1833.5 175.371,-1833.5"/>
<text text-anchor="start" x="182.371" y="-1844.9" font-family="Arial" font-size="14.00" fill="#000000">updated_by    </text>
<text text-anchor="start" x="289.7272" y="-1844.9" font-family="Arial" font-size="14.00" fill="#666666">[TEXT]</text>
<polygon fill="none" stroke="#000000" points="175.371,-1803.5 175.371,-1833.5 439.371,-1833.5 439.371,-1803.5 175.371,-1803.5"/>
<text text-anchor="start" x="182.371" y="-1814.9" font-family="Arial" font-size="14.00" fill="#000000">deleted_at    </text>
<text text-anchor="start" x="281.9418" y="-1814.9" font-family="Arial" font-size="14.00" fill="#666666">[TIMESTAMP]</text>
<polygon fill="none" stroke="#000000" points="175.371,-1773.5 175.371,-1803.5 439.371,-1803.5 439.371,-1773.5 175.371,-1773.5"/>
<text text-anchor="start" x="182.371" y="-1784.9" font-family="Arial" font-size="14.00" fill="#000000">deleted_by    </text>
<text text-anchor="start" x="285.0512" y="-1784.9" font-family="Arial" font-size="14.00" fill="#666666">[TEXT]</text>
<polygon fill="none" stroke="#000000" points="175.371,-1743.5 175.371,-1773.5 439.371,-1773.5 439.371,-1743.5 175.371,-1743.5"/>
<text text-anchor="start" x="182.371" y="-1754.9" font-family="Arial" font-size="14.00" fill="#000000">activity_log    </text>
<text text-anchor="start" x="285.8072" y="-1754.9" font-family="Arial" font-size="14.00" fill="#666666">[TEXT]</text>
</g>
<!-- ur_walk_session_path&#45;&gt;ur_walk_session -->
<g id="edge4" class="edge">
<title>ur_walk_session_path:walk_session_id&#45;&gt;ur_walk_session:ur_walk_session_id</title>
<path fill="none" stroke="#000000" d="M165.4015,-2026.6078C105.0977,-2002.4054 130.0152,-1753.2957 175.371,-1701 249.4987,-1615.5301 353.2434,-1750.4699 427.371,-1665 454.5983,-1633.6067 468.9266,-1571.5 427.371,-1571.5"/>
<polygon fill="#000000" stroke="#000000" points="165.5464,-2026.6353 174.5319,-2032.9211 170.4587,-2027.5676 175.371,-2028.5 175.371,-2028.5 175.371,-2028.5 170.4587,-2027.5676 176.2102,-2024.0789 165.5464,-2026.6353 165.5464,-2026.6353"/>
</g>
<!-- uniform_resource -->
<g id="node5" class="node">
<title>uniform_resource</title>
<polygon fill="#efefef" stroke="transparent" points="385.371,-2830.5 385.371,-2865.5 619.371,-2865.5 619.371,-2830.5 385.371,-2830.5"/>
<polygon fill="none" stroke="#000000" points="385.371,-2830.5 385.371,-2865.5 619.371,-2865.5 619.371,-2830.5 385.371,-2830.5"/>
<text text-anchor="start" x="396.1981" y="-2843.3" font-family="Arial Bold" font-size="18.00" fill="#000000">uniform_resource</text>
<text text-anchor="start" x="536.2129" y="-2843.3" font-family="Arial" font-size="14.00" fill="#000000">    </text>
<text text-anchor="start" x="570.4177" y="-2843.3" font-family="Arial" font-size="14.00" fill="#666666">[table]</text>
<polygon fill="none" stroke="#000000" points="385.371,-2800.5 385.371,-2830.5 619.371,-2830.5 619.371,-2800.5 385.371,-2800.5"/>
<text text-anchor="start" x="392.371" y="-2811.9" font-family="Arial" font-size="14.00" fill="#000000">uniform_resource_id    </text>
<text text-anchor="start" x="554.148" y="-2811.9" font-family="Arial" font-size="14.00" fill="#666666">[ULID]</text>
<polygon fill="none" stroke="#000000" points="385.371,-2770.5 385.371,-2800.5 619.371,-2800.5 619.371,-2770.5 385.371,-2770.5"/>
<text text-anchor="start" x="392.371" y="-2781.9" font-family="Arial" font-size="14.00" fill="#000000">device_id    </text>
<text text-anchor="start" x="485.702" y="-2781.9" font-family="Arial" font-size="14.00" fill="#666666">[ULID]</text>
<polygon fill="none" stroke="#000000" points="385.371,-2740.5 385.371,-2770.5 619.371,-2770.5 619.371,-2740.5 385.371,-2740.5"/>
<text text-anchor="start" x="392.371" y="-2751.9" font-family="Arial" font-size="14.00" fill="#000000">walk_session_id    </text>
<text text-anchor="start" x="528.4804" y="-2751.9" font-family="Arial" font-size="14.00" fill="#666666">[ULID]</text>
<polygon fill="none" stroke="#000000" points="385.371,-2710.5 385.371,-2740.5 619.371,-2740.5 619.371,-2710.5 385.371,-2710.5"/>
<text text-anchor="start" x="392.371" y="-2721.9" font-family="Arial" font-size="14.00" fill="#000000">walk_path_id    </text>
<text text-anchor="start" x="508.2644" y="-2721.9" font-family="Arial" font-size="14.00" fill="#666666">[ULID]</text>
<polygon fill="none" stroke="#000000" points="385.371,-2680.5 385.371,-2710.5 619.371,-2710.5 619.371,-2680.5 385.371,-2680.5"/>
<text text-anchor="start" x="392.371" y="-2691.9" font-family="Arial" font-size="14.00" fill="#000000">uri    </text>
<text text-anchor="start" x="442.1256" y="-2691.9" font-family="Arial" font-size="14.00" fill="#666666">[TEXT]</text>
<polygon fill="none" stroke="#000000" points="385.371,-2650.5 385.371,-2680.5 619.371,-2680.5 619.371,-2650.5 385.371,-2650.5"/>
<text text-anchor="start" x="392.371" y="-2661.9" font-family="Arial" font-size="14.00" fill="#000000">content_digest    </text>
<text text-anchor="start" x="517.615" y="-2661.9" font-family="Arial" font-size="14.00" fill="#666666">[TEXT]</text>
<polygon fill="none" stroke="#000000" points="385.371,-2620.5 385.371,-2650.5 619.371,-2650.5 619.371,-2620.5 385.371,-2620.5"/>
<text text-anchor="start" x="392.371" y="-2631.9" font-family="Arial" font-size="14.00" fill="#000000">content    </text>
<text text-anchor="start" x="472.4874" y="-2631.9" font-family="Arial" font-size="14.00" fill="#666666">[BLOB]</text>
<polygon fill="none" stroke="#000000" points="385.371,-2590.5 385.371,-2620.5 619.371,-2620.5 619.371,-2590.5 385.371,-2590.5"/>
<text text-anchor="start" x="392.371" y="-2601.9" font-family="Arial" font-size="14.00" fill="#000000">nature    </text>
<text text-anchor="start" x="466.2574" y="-2601.9" font-family="Arial" font-size="14.00" fill="#666666">[TEXT]</text>
<polygon fill="none" stroke="#000000" points="385.371,-2560.5 385.371,-2590.5 619.371,-2590.5 619.371,-2560.5 385.371,-2560.5"/>
<text text-anchor="start" x="392.371" y="-2571.9" font-family="Arial" font-size="14.00" fill="#000000">size_bytes    </text>
<text text-anchor="start" x="492.7034" y="-2571.9" font-family="Arial" font-size="14.00" fill="#666666">[INTEGER]</text>
<polygon fill="none" stroke="#000000" points="385.371,-2530.5 385.371,-2560.5 619.371,-2560.5 619.371,-2530.5 385.371,-2530.5"/>
<text text-anchor="start" x="392.371" y="-2541.9" font-family="Arial" font-size="14.00" fill="#000000">last_modified_at    </text>
<text text-anchor="start" x="528.4888" y="-2541.9" font-family="Arial" font-size="14.00" fill="#666666">[INTEGER]</text>
<polygon fill="none" stroke="#000000" points="385.371,-2500.5 385.371,-2530.5 619.371,-2530.5 619.371,-2500.5 385.371,-2500.5"/>
<text text-anchor="start" x="392.2974" y="-2511.9" font-family="Arial" font-size="14.00" fill="#000000">content_fm_body_attrs    </text>
<text text-anchor="start" x="568.885" y="-2511.9" font-family="Arial" font-size="14.00" fill="#666666">[TEXT]</text>
<polygon fill="none" stroke="#000000" points="385.371,-2470.5 385.371,-2500.5 619.371,-2500.5 619.371,-2470.5 385.371,-2470.5"/>
<text text-anchor="start" x="392.371" y="-2481.9" font-family="Arial" font-size="14.00" fill="#000000">frontmatter    </text>
<text text-anchor="start" x="494.2504" y="-2481.9" font-family="Arial" font-size="14.00" fill="#666666">[TEXT]</text>
<polygon fill="none" stroke="#000000" points="385.371,-2440.5 385.371,-2470.5 619.371,-2470.5 619.371,-2440.5 385.371,-2440.5"/>
<text text-anchor="start" x="392.371" y="-2451.9" font-family="Arial" font-size="14.00" fill="#000000">elaboration    </text>
<text text-anchor="start" x="495.8184" y="-2451.9" font-family="Arial" font-size="14.00" fill="#666666">[TEXT]</text>
<polygon fill="none" stroke="#000000" points="385.371,-2410.5 385.371,-2440.5 619.371,-2440.5 619.371,-2410.5 385.371,-2410.5"/>
<text text-anchor="start" x="392.371" y="-2421.9" font-family="Arial" font-size="14.00" fill="#000000">created_at    </text>
<text text-anchor="start" x="492.7132" y="-2421.9" font-family="Arial" font-size="14.00" fill="#666666">[TIMESTAMP]</text>
<polygon fill="none" stroke="#000000" points="385.371,-2380.5 385.371,-2410.5 619.371,-2410.5 619.371,-2380.5 385.371,-2380.5"/>
<text text-anchor="start" x="392.371" y="-2391.9" font-family="Arial" font-size="14.00" fill="#000000">created_by    </text>
<text text-anchor="start" x="495.8226" y="-2391.9" font-family="Arial" font-size="14.00" fill="#666666">[TEXT]</text>
<polygon fill="none" stroke="#000000" points="385.371,-2350.5 385.371,-2380.5 619.371,-2380.5 619.371,-2350.5 385.371,-2350.5"/>
<text text-anchor="start" x="392.371" y="-2361.9" font-family="Arial" font-size="14.00" fill="#000000">updated_at    </text>
<text text-anchor="start" x="496.6178" y="-2361.9" font-family="Arial" font-size="14.00" fill="#666666">[TIMESTAMP]</text>
<polygon fill="none" stroke="#000000" points="385.371,-2320.5 385.371,-2350.5 619.371,-2350.5 619.371,-2320.5 385.371,-2320.5"/>
<text text-anchor="start" x="392.371" y="-2331.9" font-family="Arial" font-size="14.00" fill="#000000">updated_by    </text>
<text text-anchor="start" x="499.7272" y="-2331.9" font-family="Arial" font-size="14.00" fill="#666666">[TEXT]</text>
<polygon fill="none" stroke="#000000" points="385.371,-2290.5 385.371,-2320.5 619.371,-2320.5 619.371,-2290.5 385.371,-2290.5"/>
<text text-anchor="start" x="392.371" y="-2301.9" font-family="Arial" font-size="14.00" fill="#000000">deleted_at    </text>
<text text-anchor="start" x="491.9418" y="-2301.9" font-family="Arial" font-size="14.00" fill="#666666">[TIMESTAMP]</text>
<polygon fill="none" stroke="#000000" points="385.371,-2260.5 385.371,-2290.5 619.371,-2290.5 619.371,-2260.5 385.371,-2260.5"/>
<text text-anchor="start" x="392.371" y="-2271.9" font-family="Arial" font-size="14.00" fill="#000000">deleted_by    </text>
<text text-anchor="start" x="495.0512" y="-2271.9" font-family="Arial" font-size="14.00" fill="#666666">[TEXT]</text>
<polygon fill="none" stroke="#000000" points="385.371,-2230.5 385.371,-2260.5 619.371,-2260.5 619.371,-2230.5 385.371,-2230.5"/>
<text text-anchor="start" x="392.371" y="-2241.9" font-family="Arial" font-size="14.00" fill="#000000">activity_log    </text>
<text text-anchor="start" x="495.8072" y="-2241.9" font-family="Arial" font-size="14.00" fill="#666666">[TEXT]</text>
</g>
<!-- uniform_resource&#45;&gt;device -->
<g id="edge7" class="edge">
<title>uniform_resource:device_id&#45;&gt;device:device_id</title>
<path fill="none" stroke="#000000" d="M629.6027,-2785.3278C878.1636,-2776.7564 626.6825,-2449.9526 619.371,-2188 608.5377,-1799.8623 853.6599,-447.5 465.371,-447.5"/>
<polygon fill="#000000" stroke="#000000" points="629.3696,-2785.3316 619.2953,-2781.0006 624.3703,-2785.4158 619.371,-2785.5 619.371,-2785.5 619.371,-2785.5 624.3703,-2785.4158 619.4468,-2789.9994 629.3696,-2785.3316 629.3696,-2785.3316"/>
</g>
<!-- uniform_resource&#45;&gt;ur_walk_session -->
<g id="edge6" class="edge">
<title>uniform_resource:walk_session_id&#45;&gt;ur_walk_session:ur_walk_session_id</title>
<path fill="none" stroke="#000000" d="M629.6501,-2754.4061C742.2734,-2729.5978 687.0461,-2290.1569 619.371,-2188 596.7134,-2153.7978 558.6281,-2185.0871 534.371,-2152 456.8143,-2046.2109 558.5441,-1571.5 427.371,-1571.5"/>
<polygon fill="#000000" stroke="#000000" points="629.3149,-2754.4417 618.8948,-2751.0253 624.343,-2754.9708 619.371,-2755.5 619.371,-2755.5 619.371,-2755.5 624.343,-2754.9708 619.8473,-2759.9747 629.3149,-2754.4417 629.3149,-2754.4417"/>
</g>
<!-- uniform_resource&#45;&gt;ur_walk_session_path -->
<g id="edge5" class="edge">
<title>uniform_resource:walk_path_id&#45;&gt;ur_walk_session_path:ur_walk_session_path_id</title>
<path fill="none" stroke="#000000" d="M376.0841,-2721.0003C329.2111,-2671.9627 358.7868,-2237.6731 385.371,-2188 398.9815,-2162.5686 425.7606,-2177.4314 439.371,-2152 458.9794,-2115.3615 480.9266,-2058.5 439.371,-2058.5"/>
<polygon fill="#000000" stroke="#000000" points="376.3717,-2721.1396 383.4089,-2729.5497 380.8714,-2723.3198 385.371,-2725.5 385.371,-2725.5 385.371,-2725.5 380.8714,-2723.3198 387.3332,-2721.4503 376.3717,-2721.1396 376.3717,-2721.1396"/>
</g>
<!-- ur_walk_session_path_fs_entry -->
<g id="node6" class="node">
<title>ur_walk_session_path_fs_entry</title>
<polygon fill="#efefef" stroke="transparent" points="138.371,-3557.5 138.371,-3592.5 476.371,-3592.5 476.371,-3557.5 138.371,-3557.5"/>
<polygon fill="none" stroke="#000000" points="138.371,-3557.5 138.371,-3592.5 476.371,-3592.5 476.371,-3557.5 138.371,-3557.5"/>
<text text-anchor="start" x="145.1722" y="-3570.3" font-family="Arial Bold" font-size="18.00" fill="#000000">ur_walk_session_path_fs_entry</text>
<text text-anchor="start" x="397.2388" y="-3570.3" font-family="Arial" font-size="14.00" fill="#000000">    </text>
<text text-anchor="start" x="431.4436" y="-3570.3" font-family="Arial" font-size="14.00" fill="#666666">[table]</text>
<polygon fill="none" stroke="#000000" points="138.371,-3527.5 138.371,-3557.5 476.371,-3557.5 476.371,-3527.5 138.371,-3527.5"/>
<text text-anchor="start" x="145.371" y="-3538.9" font-family="Arial" font-size="14.00" fill="#000000">ur_walk_session_path_fs_entry_id    </text>
<text text-anchor="start" x="394.2994" y="-3538.9" font-family="Arial" font-size="14.00" fill="#666666">[ULID]</text>
<polygon fill="none" stroke="#000000" points="138.371,-3497.5 138.371,-3527.5 476.371,-3527.5 476.371,-3497.5 138.371,-3497.5"/>
<text text-anchor="start" x="145.371" y="-3508.9" font-family="Arial" font-size="14.00" fill="#000000">walk_session_id    </text>
<text text-anchor="start" x="281.4804" y="-3508.9" font-family="Arial" font-size="14.00" fill="#666666">[ULID]</text>
<polygon fill="none" stroke="#000000" points="138.371,-3467.5 138.371,-3497.5 476.371,-3497.5 476.371,-3467.5 138.371,-3467.5"/>
<text text-anchor="start" x="145.371" y="-3478.9" font-family="Arial" font-size="14.00" fill="#000000">walk_path_id    </text>
<text text-anchor="start" x="261.2644" y="-3478.9" font-family="Arial" font-size="14.00" fill="#666666">[ULID]</text>
<polygon fill="none" stroke="#000000" points="138.371,-3437.5 138.371,-3467.5 476.371,-3467.5 476.371,-3437.5 138.371,-3437.5"/>
<text text-anchor="start" x="145.371" y="-3448.9" font-family="Arial" font-size="14.00" fill="#000000">uniform_resource_id    </text>
<text text-anchor="start" x="307.148" y="-3448.9" font-family="Arial" font-size="14.00" fill="#666666">[ULID]</text>
<polygon fill="none" stroke="#000000" points="138.371,-3407.5 138.371,-3437.5 476.371,-3437.5 476.371,-3407.5 138.371,-3407.5"/>
<text text-anchor="start" x="145.371" y="-3418.9" font-family="Arial" font-size="14.00" fill="#000000">file_path_abs    </text>
<text text-anchor="start" x="262.831" y="-3418.9" font-family="Arial" font-size="14.00" fill="#666666">[TEXT]</text>
<polygon fill="none" stroke="#000000" points="138.371,-3377.5 138.371,-3407.5 476.371,-3407.5 476.371,-3377.5 138.371,-3377.5"/>
<text text-anchor="start" x="145.371" y="-3388.9" font-family="Arial" font-size="14.00" fill="#000000">file_path_rel_parent    </text>
<text text-anchor="start" x="303.2798" y="-3388.9" font-family="Arial" font-size="14.00" fill="#666666">[TEXT]</text>
<polygon fill="none" stroke="#000000" points="138.371,-3347.5 138.371,-3377.5 476.371,-3377.5 476.371,-3347.5 138.371,-3347.5"/>
<text text-anchor="start" x="145.371" y="-3358.9" font-family="Arial" font-size="14.00" fill="#000000">file_path_rel    </text>
<text text-anchor="start" x="255.8156" y="-3358.9" font-family="Arial" font-size="14.00" fill="#666666">[TEXT]</text>
<polygon fill="none" stroke="#000000" points="138.371,-3317.5 138.371,-3347.5 476.371,-3347.5 476.371,-3317.5 138.371,-3317.5"/>
<text text-anchor="start" x="145.371" y="-3328.9" font-family="Arial" font-size="14.00" fill="#000000">file_basename    </text>
<text text-anchor="start" x="270.601" y="-3328.9" font-family="Arial" font-size="14.00" fill="#666666">[TEXT]</text>
<polygon fill="none" stroke="#000000" points="138.371,-3287.5 138.371,-3317.5 476.371,-3317.5 476.371,-3287.5 138.371,-3287.5"/>
<text text-anchor="start" x="145.371" y="-3298.9" font-family="Arial" font-size="14.00" fill="#000000">file_extn    </text>
<text text-anchor="start" x="231.7006" y="-3298.9" font-family="Arial" font-size="14.00" fill="#666666">[TEXT]</text>
<polygon fill="none" stroke="#000000" points="138.371,-3257.5 138.371,-3287.5 476.371,-3287.5 476.371,-3257.5 138.371,-3257.5"/>
<text text-anchor="start" x="145.371" y="-3268.9" font-family="Arial" font-size="14.00" fill="#000000">ur_status    </text>
<text text-anchor="start" x="237.148" y="-3268.9" font-family="Arial" font-size="14.00" fill="#666666">[TEXT]</text>
<polygon fill="none" stroke="#000000" points="138.371,-3227.5 138.371,-3257.5 476.371,-3257.5 476.371,-3227.5 138.371,-3227.5"/>
<text text-anchor="start" x="145.371" y="-3238.9" font-family="Arial" font-size="14.00" fill="#000000">ur_status_explanation    </text>
<text text-anchor="start" x="316.5126" y="-3238.9" font-family="Arial" font-size="14.00" fill="#666666">[TEXT]</text>
<polygon fill="none" stroke="#000000" points="138.371,-3197.5 138.371,-3227.5 476.371,-3227.5 476.371,-3197.5 138.371,-3197.5"/>
<text text-anchor="start" x="145.371" y="-3208.9" font-family="Arial" font-size="14.00" fill="#000000">elaboration    </text>
<text text-anchor="start" x="248.8184" y="-3208.9" font-family="Arial" font-size="14.00" fill="#666666">[TEXT]</text>
<polygon fill="none" stroke="#000000" points="138.371,-3167.5 138.371,-3197.5 476.371,-3197.5 476.371,-3167.5 138.371,-3167.5"/>
<text text-anchor="start" x="145.371" y="-3178.9" font-family="Arial" font-size="14.00" fill="#000000">created_at    </text>
<text text-anchor="start" x="245.7132" y="-3178.9" font-family="Arial" font-size="14.00" fill="#666666">[TIMESTAMP]</text>
<polygon fill="none" stroke="#000000" points="138.371,-3137.5 138.371,-3167.5 476.371,-3167.5 476.371,-3137.5 138.371,-3137.5"/>
<text text-anchor="start" x="145.371" y="-3148.9" font-family="Arial" font-size="14.00" fill="#000000">created_by    </text>
<text text-anchor="start" x="248.8226" y="-3148.9" font-family="Arial" font-size="14.00" fill="#666666">[TEXT]</text>
<polygon fill="none" stroke="#000000" points="138.371,-3107.5 138.371,-3137.5 476.371,-3137.5 476.371,-3107.5 138.371,-3107.5"/>
<text text-anchor="start" x="145.371" y="-3118.9" font-family="Arial" font-size="14.00" fill="#000000">updated_at    </text>
<text text-anchor="start" x="249.6178" y="-3118.9" font-family="Arial" font-size="14.00" fill="#666666">[TIMESTAMP]</text>
<polygon fill="none" stroke="#000000" points="138.371,-3077.5 138.371,-3107.5 476.371,-3107.5 476.371,-3077.5 138.371,-3077.5"/>
<text text-anchor="start" x="145.371" y="-3088.9" font-family="Arial" font-size="14.00" fill="#000000">updated_by    </text>
<text text-anchor="start" x="252.7272" y="-3088.9" font-family="Arial" font-size="14.00" fill="#666666">[TEXT]</text>
<polygon fill="none" stroke="#000000" points="138.371,-3047.5 138.371,-3077.5 476.371,-3077.5 476.371,-3047.5 138.371,-3047.5"/>
<text text-anchor="start" x="145.371" y="-3058.9" font-family="Arial" font-size="14.00" fill="#000000">deleted_at    </text>
<text text-anchor="start" x="244.9418" y="-3058.9" font-family="Arial" font-size="14.00" fill="#666666">[TIMESTAMP]</text>
<polygon fill="none" stroke="#000000" points="138.371,-3017.5 138.371,-3047.5 476.371,-3047.5 476.371,-3017.5 138.371,-3017.5"/>
<text text-anchor="start" x="145.371" y="-3028.9" font-family="Arial" font-size="14.00" fill="#000000">deleted_by    </text>
<text text-anchor="start" x="248.0512" y="-3028.9" font-family="Arial" font-size="14.00" fill="#666666">[TEXT]</text>
<polygon fill="none" stroke="#000000" points="138.371,-2987.5 138.371,-3017.5 476.371,-3017.5 476.371,-2987.5 138.371,-2987.5"/>
<text text-anchor="start" x="145.371" y="-2998.9" font-family="Arial" font-size="14.00" fill="#000000">activity_log    </text>
<text text-anchor="start" x="248.8072" y="-2998.9" font-family="Arial" font-size="14.00" fill="#666666">[TEXT]</text>
</g>
<!-- ur_walk_session_path_fs_entry&#45;&gt;ur_walk_session -->
<g id="edge10" class="edge">
<title>ur_walk_session_path_fs_entry:walk_session_id&#45;&gt;ur_walk_session:ur_walk_session_id</title>
<path fill="none" stroke="#000000" d="M127.9837,-3512.067C-157.2467,-3487.8033 125.0182,-2450.804 123.371,-2152 121.9405,-1892.489 -73.1439,-1571.5 186.371,-1571.5"/>
<polygon fill="#000000" stroke="#000000" points="128.3797,-3512.0834 138.1836,-3516.9961 133.3754,-3512.2917 138.371,-3512.5 138.371,-3512.5 138.371,-3512.5 133.3754,-3512.2917 138.5585,-3508.0039 128.3797,-3512.0834 128.3797,-3512.0834"/>
</g>
<!-- ur_walk_session_path_fs_entry&#45;&gt;ur_walk_session_path -->
<g id="edge9" class="edge">
<title>ur_walk_session_path_fs_entry:walk_path_id&#45;&gt;ur_walk_session_path:ur_walk_session_path_id</title>
<path fill="none" stroke="#000000" d="M486.6569,-3482.2769C712.552,-3472.3074 621.08,-3130.6544 476.371,-2945 436.0803,-2893.309 373.6618,-2960.691 333.371,-2909 136.3734,-2656.2619 146.739,-2448.4863 333.371,-2188 362.3486,-2147.5555 410.3935,-2192.4445 439.371,-2152 463.5737,-2118.2199 480.9266,-2058.5 439.371,-2058.5"/>
<polygon fill="#000000" stroke="#000000" points="486.3687,-3482.283 476.2734,-3478.0011 481.3699,-3482.3915 476.371,-3482.5 476.371,-3482.5 476.371,-3482.5 481.3699,-3482.3915 476.4687,-3486.9989 486.3687,-3482.283 486.3687,-3482.283"/>
</g>
<!-- ur_walk_session_path_fs_entry&#45;&gt;uniform_resource -->
<g id="edge8" class="edge">
<title>ur_walk_session_path_fs_entry:uniform_resource_id&#45;&gt;uniform_resource:uniform_resource_id</title>
<path fill="none" stroke="#000000" d="M486.3917,-3452.281C698.9307,-3442.8141 601.2587,-3128.7114 476.371,-2945 451.9186,-2909.0301 409.8235,-2944.9699 385.371,-2909 362.0085,-2874.6335 343.8155,-2815.5 385.371,-2815.5"/>
<polygon fill="#000000" stroke="#000000" points="486.3687,-3452.2814 476.2727,-3448.0011 481.3698,-3452.3907 476.371,-3452.5 476.371,-3452.5 476.371,-3452.5 481.3698,-3452.3907 476.4694,-3456.9989 486.3687,-3452.2814 486.3687,-3452.2814"/>
</g>
</g>
</svg>
