<?xml version="1.0" encoding="UTF-8" standalone="no"?>
<!DOCTYPE svg PUBLIC "-//W3C//DTD SVG 1.1//EN"
 "http://www.w3.org/Graphics/SVG/1.1/DTD/svg11.dtd">
<!-- Generated by graphviz version 2.40.1 (20161225.0304)
 -->
<!-- Title: Resource Surveillance State Schema Pages: 1 -->
<svg width="636pt" height="3067pt"
 viewBox="0.00 0.00 636.21 3067.00" xmlns="http://www.w3.org/2000/svg" xmlns:xlink="http://www.w3.org/1999/xlink">
<g id="graph0" class="graph" transform="scale(1 1) rotate(0) translate(4 3063)">
<title>Resource Surveillance State Schema</title>
<polygon fill="#ffffff" stroke="transparent" points="-4,4 -4,-3063 632.2147,-3063 632.2147,4 -4,4"/>
<!-- device -->
<g id="node1" class="node">
<title>device</title>
<polygon fill="#efefef" stroke="transparent" points="256.7777,-462.5 256.7777,-497.5 463.7777,-497.5 463.7777,-462.5 256.7777,-462.5"/>
<polygon fill="none" stroke="#000000" points="256.7777,-462.5 256.7777,-497.5 463.7777,-497.5 463.7777,-462.5 256.7777,-462.5"/>
<text text-anchor="start" x="298.1058" y="-475.3" font-family="Arial Bold" font-size="18.00" fill="#000000">device</text>
<text text-anchor="start" x="350.1186" y="-475.3" font-family="Arial" font-size="14.00" fill="#000000">    </text>
<text text-anchor="start" x="384.3234" y="-475.3" font-family="Arial" font-size="14.00" fill="#666666">[table]</text>
<polygon fill="none" stroke="#000000" points="256.7777,-432.5 256.7777,-462.5 463.7777,-462.5 463.7777,-432.5 256.7777,-432.5"/>
<text text-anchor="start" x="263.7777" y="-443.9" font-family="Arial" font-size="14.00" fill="#000000">device_id    </text>
<text text-anchor="start" x="357.1087" y="-443.9" font-family="Arial" font-size="14.00" fill="#666666">[ULID]</text>
<polygon fill="none" stroke="#000000" points="256.7777,-402.5 256.7777,-432.5 463.7777,-432.5 463.7777,-402.5 256.7777,-402.5"/>
<text text-anchor="start" x="263.7777" y="-413.9" font-family="Arial" font-size="14.00" fill="#000000">name    </text>
<text text-anchor="start" x="332.9909" y="-413.9" font-family="Arial" font-size="14.00" fill="#666666">[TEXT]</text>
<polygon fill="none" stroke="#000000" points="256.7777,-372.5 256.7777,-402.5 463.7777,-402.5 463.7777,-372.5 256.7777,-372.5"/>
<text text-anchor="start" x="263.7777" y="-383.9" font-family="Arial" font-size="14.00" fill="#000000">state    </text>
<text text-anchor="start" x="328.3289" y="-383.9" font-family="Arial" font-size="14.00" fill="#666666">[TEXT]</text>
<polygon fill="none" stroke="#000000" points="256.7777,-342.5 256.7777,-372.5 463.7777,-372.5 463.7777,-342.5 256.7777,-342.5"/>
<text text-anchor="start" x="263.7777" y="-353.9" font-family="Arial" font-size="14.00" fill="#000000">boundary    </text>
<text text-anchor="start" x="356.3387" y="-353.9" font-family="Arial" font-size="14.00" fill="#666666">[TEXT]</text>
<polygon fill="none" stroke="#000000" points="256.7777,-312.5 256.7777,-342.5 463.7777,-342.5 463.7777,-312.5 256.7777,-312.5"/>
<text text-anchor="start" x="263.7777" y="-323.9" font-family="Arial" font-size="14.00" fill="#000000">segmentation    </text>
<text text-anchor="start" x="382.0091" y="-323.9" font-family="Arial" font-size="14.00" fill="#666666">[TEXT]</text>
<polygon fill="none" stroke="#000000" points="256.7777,-282.5 256.7777,-312.5 463.7777,-312.5 463.7777,-282.5 256.7777,-282.5"/>
<text text-anchor="start" x="263.7777" y="-293.9" font-family="Arial" font-size="14.00" fill="#000000">state_sysinfo    </text>
<text text-anchor="start" x="379.6739" y="-293.9" font-family="Arial" font-size="14.00" fill="#666666">[TEXT]</text>
<polygon fill="none" stroke="#000000" points="256.7777,-252.5 256.7777,-282.5 463.7777,-282.5 463.7777,-252.5 256.7777,-252.5"/>
<text text-anchor="start" x="263.7777" y="-263.9" font-family="Arial" font-size="14.00" fill="#000000">elaboration    </text>
<text text-anchor="start" x="367.2251" y="-263.9" font-family="Arial" font-size="14.00" fill="#666666">[TEXT]</text>
<polygon fill="none" stroke="#000000" points="256.7777,-222.5 256.7777,-252.5 463.7777,-252.5 463.7777,-222.5 256.7777,-222.5"/>
<text text-anchor="start" x="263.7777" y="-233.9" font-family="Arial" font-size="14.00" fill="#000000">created_at    </text>
<text text-anchor="start" x="364.1199" y="-233.9" font-family="Arial" font-size="14.00" fill="#666666">[TIMESTAMP]</text>
<polygon fill="none" stroke="#000000" points="256.7777,-192.5 256.7777,-222.5 463.7777,-222.5 463.7777,-192.5 256.7777,-192.5"/>
<text text-anchor="start" x="263.7777" y="-203.9" font-family="Arial" font-size="14.00" fill="#000000">created_by    </text>
<text text-anchor="start" x="367.2293" y="-203.9" font-family="Arial" font-size="14.00" fill="#666666">[TEXT]</text>
<polygon fill="none" stroke="#000000" points="256.7777,-162.5 256.7777,-192.5 463.7777,-192.5 463.7777,-162.5 256.7777,-162.5"/>
<text text-anchor="start" x="263.432" y="-173.9" font-family="Arial" font-size="14.00" fill="#000000">updated_at    </text>
<text text-anchor="start" x="367.6788" y="-173.9" font-family="Arial" font-size="14.00" fill="#666666">[TIMESTAMP]</text>
<polygon fill="none" stroke="#000000" points="256.7777,-132.5 256.7777,-162.5 463.7777,-162.5 463.7777,-132.5 256.7777,-132.5"/>
<text text-anchor="start" x="263.7777" y="-143.9" font-family="Arial" font-size="14.00" fill="#000000">updated_by    </text>
<text text-anchor="start" x="371.1339" y="-143.9" font-family="Arial" font-size="14.00" fill="#666666">[TEXT]</text>
<polygon fill="none" stroke="#000000" points="256.7777,-102.5 256.7777,-132.5 463.7777,-132.5 463.7777,-102.5 256.7777,-102.5"/>
<text text-anchor="start" x="263.7777" y="-113.9" font-family="Arial" font-size="14.00" fill="#000000">deleted_at    </text>
<text text-anchor="start" x="363.3485" y="-113.9" font-family="Arial" font-size="14.00" fill="#666666">[TIMESTAMP]</text>
<polygon fill="none" stroke="#000000" points="256.7777,-72.5 256.7777,-102.5 463.7777,-102.5 463.7777,-72.5 256.7777,-72.5"/>
<text text-anchor="start" x="263.7777" y="-83.9" font-family="Arial" font-size="14.00" fill="#000000">deleted_by    </text>
<text text-anchor="start" x="366.4579" y="-83.9" font-family="Arial" font-size="14.00" fill="#666666">[TEXT]</text>
<polygon fill="none" stroke="#000000" points="256.7777,-42.5 256.7777,-72.5 463.7777,-72.5 463.7777,-42.5 256.7777,-42.5"/>
<text text-anchor="start" x="263.7777" y="-53.9" font-family="Arial" font-size="14.00" fill="#000000">activity_log    </text>
<text text-anchor="start" x="367.2139" y="-53.9" font-family="Arial" font-size="14.00" fill="#666666">[TEXT]</text>
</g>
<!-- ur_walk_session -->
<g id="node2" class="node">
<title>ur_walk_session</title>
<polygon fill="#efefef" stroke="transparent" points="144.7777,-1069.5 144.7777,-1104.5 385.7777,-1104.5 385.7777,-1069.5 144.7777,-1069.5"/>
<polygon fill="none" stroke="#000000" points="144.7777,-1069.5 144.7777,-1104.5 385.7777,-1104.5 385.7777,-1069.5 144.7777,-1069.5"/>
<text text-anchor="start" x="162.6031" y="-1082.3" font-family="Arial Bold" font-size="18.00" fill="#000000">ur_walk_session</text>
<text text-anchor="start" x="295.6213" y="-1082.3" font-family="Arial" font-size="14.00" fill="#000000">    </text>
<text text-anchor="start" x="329.8261" y="-1082.3" font-family="Arial" font-size="14.00" fill="#666666">[table]</text>
<polygon fill="none" stroke="#000000" points="144.7777,-1039.5 144.7777,-1069.5 385.7777,-1069.5 385.7777,-1039.5 144.7777,-1039.5"/>
<text text-anchor="start" x="151.7777" y="-1050.9" font-family="Arial" font-size="14.00" fill="#000000">ur_walk_session_id    </text>
<text text-anchor="start" x="308.1129" y="-1050.9" font-family="Arial" font-size="14.00" fill="#666666">[ULID]</text>
<polygon fill="none" stroke="#000000" points="144.7777,-1009.5 144.7777,-1039.5 385.7777,-1039.5 385.7777,-1009.5 144.7777,-1009.5"/>
<text text-anchor="start" x="151.7777" y="-1020.9" font-family="Arial" font-size="14.00" fill="#000000">device_id    </text>
<text text-anchor="start" x="245.1087" y="-1020.9" font-family="Arial" font-size="14.00" fill="#666666">[ULID]</text>
<polygon fill="none" stroke="#000000" points="144.7777,-979.5 144.7777,-1009.5 385.7777,-1009.5 385.7777,-979.5 144.7777,-979.5"/>
<text text-anchor="start" x="151.7777" y="-990.9" font-family="Arial" font-size="14.00" fill="#000000">walk_started_at    </text>
<text text-anchor="start" x="284.0063" y="-990.9" font-family="Arial" font-size="14.00" fill="#666666">[TIMESTAMP]</text>
<polygon fill="none" stroke="#000000" points="144.7777,-949.5 144.7777,-979.5 385.7777,-979.5 385.7777,-949.5 144.7777,-949.5"/>
<text text-anchor="start" x="151.7188" y="-960.9" font-family="Arial" font-size="14.00" fill="#000000">walk_finished_at    </text>
<text text-anchor="start" x="289.392" y="-960.9" font-family="Arial" font-size="14.00" fill="#666666">[TIMESTAMP]</text>
<polygon fill="none" stroke="#000000" points="144.7777,-919.5 144.7777,-949.5 385.7777,-949.5 385.7777,-919.5 144.7777,-919.5"/>
<text text-anchor="start" x="151.7777" y="-930.9" font-family="Arial" font-size="14.00" fill="#000000">ignore_paths_regex    </text>
<text text-anchor="start" x="309.6921" y="-930.9" font-family="Arial" font-size="14.00" fill="#666666">[TEXT]</text>
<polygon fill="none" stroke="#000000" points="144.7777,-889.5 144.7777,-919.5 385.7777,-919.5 385.7777,-889.5 144.7777,-889.5"/>
<text text-anchor="start" x="151.7777" y="-900.9" font-family="Arial" font-size="14.00" fill="#000000">blobs_regex    </text>
<text text-anchor="start" x="262.2279" y="-900.9" font-family="Arial" font-size="14.00" fill="#666666">[TEXT]</text>
<polygon fill="none" stroke="#000000" points="144.7777,-859.5 144.7777,-889.5 385.7777,-889.5 385.7777,-859.5 144.7777,-859.5"/>
<text text-anchor="start" x="151.7777" y="-870.9" font-family="Arial" font-size="14.00" fill="#000000">digests_regex    </text>
<text text-anchor="start" x="273.1185" y="-870.9" font-family="Arial" font-size="14.00" fill="#666666">[TEXT]</text>
<polygon fill="none" stroke="#000000" points="144.7777,-829.5 144.7777,-859.5 385.7777,-859.5 385.7777,-829.5 144.7777,-829.5"/>
<text text-anchor="start" x="151.7777" y="-840.9" font-family="Arial" font-size="14.00" fill="#000000">elaboration    </text>
<text text-anchor="start" x="255.2251" y="-840.9" font-family="Arial" font-size="14.00" fill="#666666">[TEXT]</text>
<polygon fill="none" stroke="#000000" points="144.7777,-799.5 144.7777,-829.5 385.7777,-829.5 385.7777,-799.5 144.7777,-799.5"/>
<text text-anchor="start" x="151.7777" y="-810.9" font-family="Arial" font-size="14.00" fill="#000000">created_at    </text>
<text text-anchor="start" x="252.1199" y="-810.9" font-family="Arial" font-size="14.00" fill="#666666">[TIMESTAMP]</text>
<polygon fill="none" stroke="#000000" points="144.7777,-769.5 144.7777,-799.5 385.7777,-799.5 385.7777,-769.5 144.7777,-769.5"/>
<text text-anchor="start" x="151.7777" y="-780.9" font-family="Arial" font-size="14.00" fill="#000000">created_by    </text>
<text text-anchor="start" x="255.2293" y="-780.9" font-family="Arial" font-size="14.00" fill="#666666">[TEXT]</text>
<polygon fill="none" stroke="#000000" points="144.7777,-739.5 144.7777,-769.5 385.7777,-769.5 385.7777,-739.5 144.7777,-739.5"/>
<text text-anchor="start" x="151.7777" y="-750.9" font-family="Arial" font-size="14.00" fill="#000000">updated_at    </text>
<text text-anchor="start" x="256.0245" y="-750.9" font-family="Arial" font-size="14.00" fill="#666666">[TIMESTAMP]</text>
<polygon fill="none" stroke="#000000" points="144.7777,-709.5 144.7777,-739.5 385.7777,-739.5 385.7777,-709.5 144.7777,-709.5"/>
<text text-anchor="start" x="151.7777" y="-720.9" font-family="Arial" font-size="14.00" fill="#000000">updated_by    </text>
<text text-anchor="start" x="259.1339" y="-720.9" font-family="Arial" font-size="14.00" fill="#666666">[TEXT]</text>
<polygon fill="none" stroke="#000000" points="144.7777,-679.5 144.7777,-709.5 385.7777,-709.5 385.7777,-679.5 144.7777,-679.5"/>
<text text-anchor="start" x="151.7777" y="-690.9" font-family="Arial" font-size="14.00" fill="#000000">deleted_at    </text>
<text text-anchor="start" x="251.3485" y="-690.9" font-family="Arial" font-size="14.00" fill="#666666">[TIMESTAMP]</text>
<polygon fill="none" stroke="#000000" points="144.7777,-649.5 144.7777,-679.5 385.7777,-679.5 385.7777,-649.5 144.7777,-649.5"/>
<text text-anchor="start" x="151.7777" y="-660.9" font-family="Arial" font-size="14.00" fill="#000000">deleted_by    </text>
<text text-anchor="start" x="254.4579" y="-660.9" font-family="Arial" font-size="14.00" fill="#666666">[TEXT]</text>
<polygon fill="none" stroke="#000000" points="144.7777,-619.5 144.7777,-649.5 385.7777,-649.5 385.7777,-619.5 144.7777,-619.5"/>
<text text-anchor="start" x="151.7777" y="-630.9" font-family="Arial" font-size="14.00" fill="#000000">activity_log    </text>
<text text-anchor="start" x="255.2139" y="-630.9" font-family="Arial" font-size="14.00" fill="#666666">[TEXT]</text>
</g>
<!-- ur_walk_session&#45;&gt;device -->
<g id="edge1" class="edge">
<title>ur_walk_session:device_id&#45;&gt;device:device_id</title>
<path fill="none" stroke="#000000" d="M395.7566,-1023.163C482.4321,-998.9617 443.7928,-653.4221 385.7777,-577 349.7866,-529.5896 292.7689,-588.4104 256.7777,-541 231.6512,-507.9013 215.2222,-447.5 256.7777,-447.5"/>
<polygon fill="#000000" stroke="#000000" points="395.6892,-1023.1719 385.1801,-1020.0399 390.7335,-1023.836 385.7777,-1024.5 385.7777,-1024.5 385.7777,-1024.5 390.7335,-1023.836 386.3754,-1028.9601 395.6892,-1023.1719 395.6892,-1023.1719"/>
</g>
<!-- ur_walk_session_path -->
<g id="node3" class="node">
<title>ur_walk_session_path</title>
<polygon fill="#efefef" stroke="transparent" points="108.7777,-1556.5 108.7777,-1591.5 372.7777,-1591.5 372.7777,-1556.5 108.7777,-1556.5"/>
<polygon fill="none" stroke="#000000" points="108.7777,-1556.5 108.7777,-1591.5 372.7777,-1591.5 372.7777,-1556.5 108.7777,-1556.5"/>
<text text-anchor="start" x="115.5896" y="-1569.3" font-family="Arial Bold" font-size="18.00" fill="#000000">ur_walk_session_path</text>
<text text-anchor="start" x="293.6348" y="-1569.3" font-family="Arial" font-size="14.00" fill="#000000">    </text>
<text text-anchor="start" x="327.8396" y="-1569.3" font-family="Arial" font-size="14.00" fill="#666666">[table]</text>
<polygon fill="none" stroke="#000000" points="108.7777,-1526.5 108.7777,-1556.5 372.7777,-1556.5 372.7777,-1526.5 108.7777,-1526.5"/>
<text text-anchor="start" x="115.7777" y="-1537.9" font-family="Arial" font-size="14.00" fill="#000000">ur_walk_session_path_id    </text>
<text text-anchor="start" x="307.1339" y="-1537.9" font-family="Arial" font-size="14.00" fill="#666666">[ULID]</text>
<polygon fill="none" stroke="#000000" points="108.7777,-1496.5 108.7777,-1526.5 372.7777,-1526.5 372.7777,-1496.5 108.7777,-1496.5"/>
<text text-anchor="start" x="115.7777" y="-1507.9" font-family="Arial" font-size="14.00" fill="#000000">walk_session_id    </text>
<text text-anchor="start" x="251.8871" y="-1507.9" font-family="Arial" font-size="14.00" fill="#666666">[ULID]</text>
<polygon fill="none" stroke="#000000" points="108.7777,-1466.5 108.7777,-1496.5 372.7777,-1496.5 372.7777,-1466.5 108.7777,-1466.5"/>
<text text-anchor="start" x="115.7777" y="-1477.9" font-family="Arial" font-size="14.00" fill="#000000">root_path    </text>
<text text-anchor="start" x="209.1199" y="-1477.9" font-family="Arial" font-size="14.00" fill="#666666">[TEXT]</text>
<polygon fill="none" stroke="#000000" points="108.7777,-1436.5 108.7777,-1466.5 372.7777,-1466.5 372.7777,-1436.5 108.7777,-1436.5"/>
<text text-anchor="start" x="115.7777" y="-1447.9" font-family="Arial" font-size="14.00" fill="#000000">elaboration    </text>
<text text-anchor="start" x="219.2251" y="-1447.9" font-family="Arial" font-size="14.00" fill="#666666">[TEXT]</text>
<polygon fill="none" stroke="#000000" points="108.7777,-1406.5 108.7777,-1436.5 372.7777,-1436.5 372.7777,-1406.5 108.7777,-1406.5"/>
<text text-anchor="start" x="115.7777" y="-1417.9" font-family="Arial" font-size="14.00" fill="#000000">created_at    </text>
<text text-anchor="start" x="216.1199" y="-1417.9" font-family="Arial" font-size="14.00" fill="#666666">[TIMESTAMP]</text>
<polygon fill="none" stroke="#000000" points="108.7777,-1376.5 108.7777,-1406.5 372.7777,-1406.5 372.7777,-1376.5 108.7777,-1376.5"/>
<text text-anchor="start" x="115.7777" y="-1387.9" font-family="Arial" font-size="14.00" fill="#000000">created_by    </text>
<text text-anchor="start" x="219.2293" y="-1387.9" font-family="Arial" font-size="14.00" fill="#666666">[TEXT]</text>
<polygon fill="none" stroke="#000000" points="108.7777,-1346.5 108.7777,-1376.5 372.7777,-1376.5 372.7777,-1346.5 108.7777,-1346.5"/>
<text text-anchor="start" x="115.7777" y="-1357.9" font-family="Arial" font-size="14.00" fill="#000000">updated_at    </text>
<text text-anchor="start" x="220.0245" y="-1357.9" font-family="Arial" font-size="14.00" fill="#666666">[TIMESTAMP]</text>
<polygon fill="none" stroke="#000000" points="108.7777,-1316.5 108.7777,-1346.5 372.7777,-1346.5 372.7777,-1316.5 108.7777,-1316.5"/>
<text text-anchor="start" x="115.7777" y="-1327.9" font-family="Arial" font-size="14.00" fill="#000000">updated_by    </text>
<text text-anchor="start" x="223.1339" y="-1327.9" font-family="Arial" font-size="14.00" fill="#666666">[TEXT]</text>
<polygon fill="none" stroke="#000000" points="108.7777,-1286.5 108.7777,-1316.5 372.7777,-1316.5 372.7777,-1286.5 108.7777,-1286.5"/>
<text text-anchor="start" x="115.7777" y="-1297.9" font-family="Arial" font-size="14.00" fill="#000000">deleted_at    </text>
<text text-anchor="start" x="215.3485" y="-1297.9" font-family="Arial" font-size="14.00" fill="#666666">[TIMESTAMP]</text>
<polygon fill="none" stroke="#000000" points="108.7777,-1256.5 108.7777,-1286.5 372.7777,-1286.5 372.7777,-1256.5 108.7777,-1256.5"/>
<text text-anchor="start" x="115.7777" y="-1267.9" font-family="Arial" font-size="14.00" fill="#000000">deleted_by    </text>
<text text-anchor="start" x="218.4579" y="-1267.9" font-family="Arial" font-size="14.00" fill="#666666">[TEXT]</text>
<polygon fill="none" stroke="#000000" points="108.7777,-1226.5 108.7777,-1256.5 372.7777,-1256.5 372.7777,-1226.5 108.7777,-1226.5"/>
<text text-anchor="start" x="115.7777" y="-1237.9" font-family="Arial" font-size="14.00" fill="#000000">activity_log    </text>
<text text-anchor="start" x="219.2139" y="-1237.9" font-family="Arial" font-size="14.00" fill="#666666">[TEXT]</text>
</g>
<!-- ur_walk_session_path&#45;&gt;ur_walk_session -->
<g id="edge2" class="edge">
<title>ur_walk_session_path:walk_session_id&#45;&gt;ur_walk_session:ur_walk_session_id</title>
<path fill="none" stroke="#000000" d="M382.7445,-1509.6102C443.0134,-1485.4378 417.7478,-1236.6277 372.7777,-1184 306.1331,-1106.0068 211.4224,-1225.9932 144.7777,-1148 117.782,-1116.4074 103.2222,-1054.5 144.7777,-1054.5"/>
<polygon fill="#000000" stroke="#000000" points="382.6027,-1509.637 371.9394,-1507.0788 377.6902,-1510.5685 372.7777,-1511.5 372.7777,-1511.5 372.7777,-1511.5 377.6902,-1510.5685 373.6161,-1515.9212 382.6027,-1509.637 382.6027,-1509.637"/>
</g>
<!-- uniform_resource -->
<g id="node4" class="node">
<title>uniform_resource</title>
<polygon fill="#efefef" stroke="transparent" points="318.7777,-2313.5 318.7777,-2348.5 552.7777,-2348.5 552.7777,-2313.5 318.7777,-2313.5"/>
<polygon fill="none" stroke="#000000" points="318.7777,-2313.5 318.7777,-2348.5 552.7777,-2348.5 552.7777,-2313.5 318.7777,-2313.5"/>
<text text-anchor="start" x="329.6048" y="-2326.3" font-family="Arial Bold" font-size="18.00" fill="#000000">uniform_resource</text>
<text text-anchor="start" x="469.6196" y="-2326.3" font-family="Arial" font-size="14.00" fill="#000000">    </text>
<text text-anchor="start" x="503.8244" y="-2326.3" font-family="Arial" font-size="14.00" fill="#666666">[table]</text>
<polygon fill="none" stroke="#000000" points="318.7777,-2283.5 318.7777,-2313.5 552.7777,-2313.5 552.7777,-2283.5 318.7777,-2283.5"/>
<text text-anchor="start" x="325.7777" y="-2294.9" font-family="Arial" font-size="14.00" fill="#000000">uniform_resource_id    </text>
<text text-anchor="start" x="487.5547" y="-2294.9" font-family="Arial" font-size="14.00" fill="#666666">[ULID]</text>
<polygon fill="none" stroke="#000000" points="318.7777,-2253.5 318.7777,-2283.5 552.7777,-2283.5 552.7777,-2253.5 318.7777,-2253.5"/>
<text text-anchor="start" x="325.7777" y="-2264.9" font-family="Arial" font-size="14.00" fill="#000000">device_id    </text>
<text text-anchor="start" x="419.1087" y="-2264.9" font-family="Arial" font-size="14.00" fill="#666666">[ULID]</text>
<polygon fill="none" stroke="#000000" points="318.7777,-2223.5 318.7777,-2253.5 552.7777,-2253.5 552.7777,-2223.5 318.7777,-2223.5"/>
<text text-anchor="start" x="325.7777" y="-2234.9" font-family="Arial" font-size="14.00" fill="#000000">walk_session_id    </text>
<text text-anchor="start" x="461.8871" y="-2234.9" font-family="Arial" font-size="14.00" fill="#666666">[ULID]</text>
<polygon fill="none" stroke="#000000" points="318.7777,-2193.5 318.7777,-2223.5 552.7777,-2223.5 552.7777,-2193.5 318.7777,-2193.5"/>
<text text-anchor="start" x="325.7777" y="-2204.9" font-family="Arial" font-size="14.00" fill="#000000">walk_path_id    </text>
<text text-anchor="start" x="441.6711" y="-2204.9" font-family="Arial" font-size="14.00" fill="#666666">[ULID]</text>
<polygon fill="none" stroke="#000000" points="318.7777,-2163.5 318.7777,-2193.5 552.7777,-2193.5 552.7777,-2163.5 318.7777,-2163.5"/>
<text text-anchor="start" x="325.7777" y="-2174.9" font-family="Arial" font-size="14.00" fill="#000000">uri    </text>
<text text-anchor="start" x="375.5323" y="-2174.9" font-family="Arial" font-size="14.00" fill="#666666">[TEXT]</text>
<polygon fill="none" stroke="#000000" points="318.7777,-2133.5 318.7777,-2163.5 552.7777,-2163.5 552.7777,-2133.5 318.7777,-2133.5"/>
<text text-anchor="start" x="325.7777" y="-2144.9" font-family="Arial" font-size="14.00" fill="#000000">content_digest    </text>
<text text-anchor="start" x="451.0217" y="-2144.9" font-family="Arial" font-size="14.00" fill="#666666">[TEXT]</text>
<polygon fill="none" stroke="#000000" points="318.7777,-2103.5 318.7777,-2133.5 552.7777,-2133.5 552.7777,-2103.5 318.7777,-2103.5"/>
<text text-anchor="start" x="325.7777" y="-2114.9" font-family="Arial" font-size="14.00" fill="#000000">content    </text>
<text text-anchor="start" x="405.8941" y="-2114.9" font-family="Arial" font-size="14.00" fill="#666666">[BLOB]</text>
<polygon fill="none" stroke="#000000" points="318.7777,-2073.5 318.7777,-2103.5 552.7777,-2103.5 552.7777,-2073.5 318.7777,-2073.5"/>
<text text-anchor="start" x="325.7777" y="-2084.9" font-family="Arial" font-size="14.00" fill="#000000">nature    </text>
<text text-anchor="start" x="399.6641" y="-2084.9" font-family="Arial" font-size="14.00" fill="#666666">[TEXT]</text>
<polygon fill="none" stroke="#000000" points="318.7777,-2043.5 318.7777,-2073.5 552.7777,-2073.5 552.7777,-2043.5 318.7777,-2043.5"/>
<text text-anchor="start" x="325.7777" y="-2054.9" font-family="Arial" font-size="14.00" fill="#000000">size_bytes    </text>
<text text-anchor="start" x="426.1101" y="-2054.9" font-family="Arial" font-size="14.00" fill="#666666">[INTEGER]</text>
<polygon fill="none" stroke="#000000" points="318.7777,-2013.5 318.7777,-2043.5 552.7777,-2043.5 552.7777,-2013.5 318.7777,-2013.5"/>
<text text-anchor="start" x="325.7777" y="-2024.9" font-family="Arial" font-size="14.00" fill="#000000">last_modified_at    </text>
<text text-anchor="start" x="461.8955" y="-2024.9" font-family="Arial" font-size="14.00" fill="#666666">[INTEGER]</text>
<polygon fill="none" stroke="#000000" points="318.7777,-1983.5 318.7777,-2013.5 552.7777,-2013.5 552.7777,-1983.5 318.7777,-1983.5"/>
<text text-anchor="start" x="325.7041" y="-1994.9" font-family="Arial" font-size="14.00" fill="#000000">content_fm_body_attrs    </text>
<text text-anchor="start" x="502.2917" y="-1994.9" font-family="Arial" font-size="14.00" fill="#666666">[TEXT]</text>
<polygon fill="none" stroke="#000000" points="318.7777,-1953.5 318.7777,-1983.5 552.7777,-1983.5 552.7777,-1953.5 318.7777,-1953.5"/>
<text text-anchor="start" x="325.7777" y="-1964.9" font-family="Arial" font-size="14.00" fill="#000000">frontmatter    </text>
<text text-anchor="start" x="427.6571" y="-1964.9" font-family="Arial" font-size="14.00" fill="#666666">[TEXT]</text>
<polygon fill="none" stroke="#000000" points="318.7777,-1923.5 318.7777,-1953.5 552.7777,-1953.5 552.7777,-1923.5 318.7777,-1923.5"/>
<text text-anchor="start" x="325.7777" y="-1934.9" font-family="Arial" font-size="14.00" fill="#000000">elaboration    </text>
<text text-anchor="start" x="429.2251" y="-1934.9" font-family="Arial" font-size="14.00" fill="#666666">[TEXT]</text>
<polygon fill="none" stroke="#000000" points="318.7777,-1893.5 318.7777,-1923.5 552.7777,-1923.5 552.7777,-1893.5 318.7777,-1893.5"/>
<text text-anchor="start" x="325.7777" y="-1904.9" font-family="Arial" font-size="14.00" fill="#000000">created_at    </text>
<text text-anchor="start" x="426.1199" y="-1904.9" font-family="Arial" font-size="14.00" fill="#666666">[TIMESTAMP]</text>
<polygon fill="none" stroke="#000000" points="318.7777,-1863.5 318.7777,-1893.5 552.7777,-1893.5 552.7777,-1863.5 318.7777,-1863.5"/>
<text text-anchor="start" x="325.7777" y="-1874.9" font-family="Arial" font-size="14.00" fill="#000000">created_by    </text>
<text text-anchor="start" x="429.2293" y="-1874.9" font-family="Arial" font-size="14.00" fill="#666666">[TEXT]</text>
<polygon fill="none" stroke="#000000" points="318.7777,-1833.5 318.7777,-1863.5 552.7777,-1863.5 552.7777,-1833.5 318.7777,-1833.5"/>
<text text-anchor="start" x="325.7777" y="-1844.9" font-family="Arial" font-size="14.00" fill="#000000">updated_at    </text>
<text text-anchor="start" x="430.0245" y="-1844.9" font-family="Arial" font-size="14.00" fill="#666666">[TIMESTAMP]</text>
<polygon fill="none" stroke="#000000" points="318.7777,-1803.5 318.7777,-1833.5 552.7777,-1833.5 552.7777,-1803.5 318.7777,-1803.5"/>
<text text-anchor="start" x="325.7777" y="-1814.9" font-family="Arial" font-size="14.00" fill="#000000">updated_by    </text>
<text text-anchor="start" x="433.1339" y="-1814.9" font-family="Arial" font-size="14.00" fill="#666666">[TEXT]</text>
<polygon fill="none" stroke="#000000" points="318.7777,-1773.5 318.7777,-1803.5 552.7777,-1803.5 552.7777,-1773.5 318.7777,-1773.5"/>
<text text-anchor="start" x="325.7777" y="-1784.9" font-family="Arial" font-size="14.00" fill="#000000">deleted_at    </text>
<text text-anchor="start" x="425.3485" y="-1784.9" font-family="Arial" font-size="14.00" fill="#666666">[TIMESTAMP]</text>
<polygon fill="none" stroke="#000000" points="318.7777,-1743.5 318.7777,-1773.5 552.7777,-1773.5 552.7777,-1743.5 318.7777,-1743.5"/>
<text text-anchor="start" x="325.7777" y="-1754.9" font-family="Arial" font-size="14.00" fill="#000000">deleted_by    </text>
<text text-anchor="start" x="428.4579" y="-1754.9" font-family="Arial" font-size="14.00" fill="#666666">[TEXT]</text>
<polygon fill="none" stroke="#000000" points="318.7777,-1713.5 318.7777,-1743.5 552.7777,-1743.5 552.7777,-1713.5 318.7777,-1713.5"/>
<text text-anchor="start" x="325.7777" y="-1724.9" font-family="Arial" font-size="14.00" fill="#000000">activity_log    </text>
<text text-anchor="start" x="429.2139" y="-1724.9" font-family="Arial" font-size="14.00" fill="#666666">[TEXT]</text>
</g>
<!-- uniform_resource&#45;&gt;device -->
<g id="edge5" class="edge">
<title>uniform_resource:device_id&#45;&gt;device:device_id</title>
<path fill="none" stroke="#000000" d="M561.7214,-2263.2762C648.4907,-2156.4658 561.8999,-447.5 463.7777,-447.5"/>
<polygon fill="#000000" stroke="#000000" points="561.4127,-2263.4564 550.5081,-2264.6143 557.0952,-2265.9782 552.7777,-2268.5 552.7777,-2268.5 552.7777,-2268.5 557.0952,-2265.9782 555.0473,-2272.3857 561.4127,-2263.4564 561.4127,-2263.4564"/>
</g>
<!-- uniform_resource&#45;&gt;ur_walk_session -->
<g id="edge4" class="edge">
<title>uniform_resource:walk_session_id&#45;&gt;ur_walk_session:ur_walk_session_id</title>
<path fill="none" stroke="#000000" d="M563.0568,-2237.4061C675.6801,-2212.5978 620.4528,-1773.1569 552.7777,-1671 530.1201,-1636.7978 492.0348,-1668.0871 467.7777,-1635 390.7486,-1529.9307 516.0584,-1054.5 385.7777,-1054.5"/>
<polygon fill="#000000" stroke="#000000" points="562.7216,-2237.4417 552.3015,-2234.0253 557.7497,-2237.9708 552.7777,-2238.5 552.7777,-2238.5 552.7777,-2238.5 557.7497,-2237.9708 553.254,-2242.9747 562.7216,-2237.4417 562.7216,-2237.4417"/>
</g>
<!-- uniform_resource&#45;&gt;ur_walk_session_path -->
<g id="edge3" class="edge">
<title>uniform_resource:walk_path_id&#45;&gt;ur_walk_session_path:ur_walk_session_path_id</title>
<path fill="none" stroke="#000000" d="M309.4908,-2204.0003C262.6178,-2154.9627 292.1935,-1720.6731 318.7777,-1671 332.3882,-1645.5686 359.1673,-1660.4314 372.7777,-1635 392.3861,-1598.3615 414.3333,-1541.5 372.7777,-1541.5"/>
<polygon fill="#000000" stroke="#000000" points="309.7784,-2204.1396 316.8155,-2212.5497 314.2781,-2206.3198 318.7777,-2208.5 318.7777,-2208.5 318.7777,-2208.5 314.2781,-2206.3198 320.7399,-2204.4503 309.7784,-2204.1396 309.7784,-2204.1396"/>
</g>
<!-- ur_walk_session_path_fs_entry -->
<g id="node5" class="node">
<title>ur_walk_session_path_fs_entry</title>
<polygon fill="#efefef" stroke="transparent" points="71.7777,-2980.5 71.7777,-3015.5 409.7777,-3015.5 409.7777,-2980.5 71.7777,-2980.5"/>
<polygon fill="none" stroke="#000000" points="71.7777,-2980.5 71.7777,-3015.5 409.7777,-3015.5 409.7777,-2980.5 71.7777,-2980.5"/>
<text text-anchor="start" x="78.5789" y="-2993.3" font-family="Arial Bold" font-size="18.00" fill="#000000">ur_walk_session_path_fs_entry</text>
<text text-anchor="start" x="330.6455" y="-2993.3" font-family="Arial" font-size="14.00" fill="#000000">    </text>
<text text-anchor="start" x="364.8503" y="-2993.3" font-family="Arial" font-size="14.00" fill="#666666">[table]</text>
<polygon fill="none" stroke="#000000" points="71.7777,-2950.5 71.7777,-2980.5 409.7777,-2980.5 409.7777,-2950.5 71.7777,-2950.5"/>
<text text-anchor="start" x="78.7777" y="-2961.9" font-family="Arial" font-size="14.00" fill="#000000">ur_walk_session_path_fs_entry_id    </text>
<text text-anchor="start" x="327.7061" y="-2961.9" font-family="Arial" font-size="14.00" fill="#666666">[ULID]</text>
<polygon fill="none" stroke="#000000" points="71.7777,-2920.5 71.7777,-2950.5 409.7777,-2950.5 409.7777,-2920.5 71.7777,-2920.5"/>
<text text-anchor="start" x="78.7777" y="-2931.9" font-family="Arial" font-size="14.00" fill="#000000">walk_session_id    </text>
<text text-anchor="start" x="214.8871" y="-2931.9" font-family="Arial" font-size="14.00" fill="#666666">[ULID]</text>
<polygon fill="none" stroke="#000000" points="71.7777,-2890.5 71.7777,-2920.5 409.7777,-2920.5 409.7777,-2890.5 71.7777,-2890.5"/>
<text text-anchor="start" x="78.7777" y="-2901.9" font-family="Arial" font-size="14.00" fill="#000000">walk_path_id    </text>
<text text-anchor="start" x="194.6711" y="-2901.9" font-family="Arial" font-size="14.00" fill="#666666">[ULID]</text>
<polygon fill="none" stroke="#000000" points="71.7777,-2860.5 71.7777,-2890.5 409.7777,-2890.5 409.7777,-2860.5 71.7777,-2860.5"/>
<text text-anchor="start" x="78.7777" y="-2871.9" font-family="Arial" font-size="14.00" fill="#000000">uniform_resource_id    </text>
<text text-anchor="start" x="240.5547" y="-2871.9" font-family="Arial" font-size="14.00" fill="#666666">[ULID]</text>
<polygon fill="none" stroke="#000000" points="71.7777,-2830.5 71.7777,-2860.5 409.7777,-2860.5 409.7777,-2830.5 71.7777,-2830.5"/>
<text text-anchor="start" x="78.7777" y="-2841.9" font-family="Arial" font-size="14.00" fill="#000000">file_path_abs    </text>
<text text-anchor="start" x="196.2377" y="-2841.9" font-family="Arial" font-size="14.00" fill="#666666">[TEXT]</text>
<polygon fill="none" stroke="#000000" points="71.7777,-2800.5 71.7777,-2830.5 409.7777,-2830.5 409.7777,-2800.5 71.7777,-2800.5"/>
<text text-anchor="start" x="78.7777" y="-2811.9" font-family="Arial" font-size="14.00" fill="#000000">file_path_rel_parent    </text>
<text text-anchor="start" x="236.6865" y="-2811.9" font-family="Arial" font-size="14.00" fill="#666666">[TEXT]</text>
<polygon fill="none" stroke="#000000" points="71.7777,-2770.5 71.7777,-2800.5 409.7777,-2800.5 409.7777,-2770.5 71.7777,-2770.5"/>
<text text-anchor="start" x="78.7777" y="-2781.9" font-family="Arial" font-size="14.00" fill="#000000">file_path_rel    </text>
<text text-anchor="start" x="189.2223" y="-2781.9" font-family="Arial" font-size="14.00" fill="#666666">[TEXT]</text>
<polygon fill="none" stroke="#000000" points="71.7777,-2740.5 71.7777,-2770.5 409.7777,-2770.5 409.7777,-2740.5 71.7777,-2740.5"/>
<text text-anchor="start" x="78.7777" y="-2751.9" font-family="Arial" font-size="14.00" fill="#000000">file_basename    </text>
<text text-anchor="start" x="204.0077" y="-2751.9" font-family="Arial" font-size="14.00" fill="#666666">[TEXT]</text>
<polygon fill="none" stroke="#000000" points="71.7777,-2710.5 71.7777,-2740.5 409.7777,-2740.5 409.7777,-2710.5 71.7777,-2710.5"/>
<text text-anchor="start" x="78.7777" y="-2721.9" font-family="Arial" font-size="14.00" fill="#000000">file_extn    </text>
<text text-anchor="start" x="165.1073" y="-2721.9" font-family="Arial" font-size="14.00" fill="#666666">[TEXT]</text>
<polygon fill="none" stroke="#000000" points="71.7777,-2680.5 71.7777,-2710.5 409.7777,-2710.5 409.7777,-2680.5 71.7777,-2680.5"/>
<text text-anchor="start" x="78.7777" y="-2691.9" font-family="Arial" font-size="14.00" fill="#000000">elaboration    </text>
<text text-anchor="start" x="182.2251" y="-2691.9" font-family="Arial" font-size="14.00" fill="#666666">[TEXT]</text>
<polygon fill="none" stroke="#000000" points="71.7777,-2650.5 71.7777,-2680.5 409.7777,-2680.5 409.7777,-2650.5 71.7777,-2650.5"/>
<text text-anchor="start" x="78.7777" y="-2661.9" font-family="Arial" font-size="14.00" fill="#000000">created_at    </text>
<text text-anchor="start" x="179.1199" y="-2661.9" font-family="Arial" font-size="14.00" fill="#666666">[TIMESTAMP]</text>
<polygon fill="none" stroke="#000000" points="71.7777,-2620.5 71.7777,-2650.5 409.7777,-2650.5 409.7777,-2620.5 71.7777,-2620.5"/>
<text text-anchor="start" x="78.7777" y="-2631.9" font-family="Arial" font-size="14.00" fill="#000000">created_by    </text>
<text text-anchor="start" x="182.2293" y="-2631.9" font-family="Arial" font-size="14.00" fill="#666666">[TEXT]</text>
<polygon fill="none" stroke="#000000" points="71.7777,-2590.5 71.7777,-2620.5 409.7777,-2620.5 409.7777,-2590.5 71.7777,-2590.5"/>
<text text-anchor="start" x="78.7777" y="-2601.9" font-family="Arial" font-size="14.00" fill="#000000">updated_at    </text>
<text text-anchor="start" x="183.0245" y="-2601.9" font-family="Arial" font-size="14.00" fill="#666666">[TIMESTAMP]</text>
<polygon fill="none" stroke="#000000" points="71.7777,-2560.5 71.7777,-2590.5 409.7777,-2590.5 409.7777,-2560.5 71.7777,-2560.5"/>
<text text-anchor="start" x="78.7777" y="-2571.9" font-family="Arial" font-size="14.00" fill="#000000">updated_by    </text>
<text text-anchor="start" x="186.1339" y="-2571.9" font-family="Arial" font-size="14.00" fill="#666666">[TEXT]</text>
<polygon fill="none" stroke="#000000" points="71.7777,-2530.5 71.7777,-2560.5 409.7777,-2560.5 409.7777,-2530.5 71.7777,-2530.5"/>
<text text-anchor="start" x="78.7777" y="-2541.9" font-family="Arial" font-size="14.00" fill="#000000">deleted_at    </text>
<text text-anchor="start" x="178.3485" y="-2541.9" font-family="Arial" font-size="14.00" fill="#666666">[TIMESTAMP]</text>
<polygon fill="none" stroke="#000000" points="71.7777,-2500.5 71.7777,-2530.5 409.7777,-2530.5 409.7777,-2500.5 71.7777,-2500.5"/>
<text text-anchor="start" x="78.7777" y="-2511.9" font-family="Arial" font-size="14.00" fill="#000000">deleted_by    </text>
<text text-anchor="start" x="181.4579" y="-2511.9" font-family="Arial" font-size="14.00" fill="#666666">[TEXT]</text>
<polygon fill="none" stroke="#000000" points="71.7777,-2470.5 71.7777,-2500.5 409.7777,-2500.5 409.7777,-2470.5 71.7777,-2470.5"/>
<text text-anchor="start" x="78.7777" y="-2481.9" font-family="Arial" font-size="14.00" fill="#000000">activity_log    </text>
<text text-anchor="start" x="182.2139" y="-2481.9" font-family="Arial" font-size="14.00" fill="#666666">[TEXT]</text>
</g>
<!-- ur_walk_session_path_fs_entry&#45;&gt;ur_walk_session -->
<g id="edge8" class="edge">
<title>ur_walk_session_path_fs_entry:walk_session_id&#45;&gt;ur_walk_session:ur_walk_session_id</title>
<path fill="none" stroke="#000000" d="M61.6791,-2933.4645C-66.4457,-2879.6579 57.5907,-1775.9792 56.7777,-1635 55.2729,-1374.0567 -116.1699,-1054.5 144.7777,-1054.5"/>
<polygon fill="#000000" stroke="#000000" points="61.9749,-2933.524 70.8885,-2939.9113 66.8763,-2934.512 71.7777,-2935.5 71.7777,-2935.5 71.7777,-2935.5 66.8763,-2934.512 72.6669,-2931.0887 61.9749,-2933.524 61.9749,-2933.524"/>
</g>
<!-- ur_walk_session_path_fs_entry&#45;&gt;ur_walk_session_path -->
<g id="edge7" class="edge">
<title>ur_walk_session_path_fs_entry:walk_path_id&#45;&gt;ur_walk_session_path:ur_walk_session_path_id</title>
<path fill="none" stroke="#000000" d="M419.8086,-2905.2603C619.3526,-2895.543 538.142,-2592.685 409.7777,-2428 369.487,-2376.309 307.0685,-2443.691 266.7777,-2392 69.7801,-2139.2619 80.1457,-1931.4863 266.7777,-1671 295.7553,-1630.5555 343.8002,-1675.4445 372.7777,-1635 396.9804,-1601.2199 414.3333,-1541.5 372.7777,-1541.5"/>
<polygon fill="#000000" stroke="#000000" points="419.7749,-2905.261 409.6702,-2901.0013 414.7763,-2905.3805 409.7777,-2905.5 409.7777,-2905.5 409.7777,-2905.5 414.7763,-2905.3805 409.8853,-2909.9987 419.7749,-2905.261 419.7749,-2905.261"/>
</g>
<!-- ur_walk_session_path_fs_entry&#45;&gt;uniform_resource -->
<g id="edge6" class="edge">
<title>ur_walk_session_path_fs_entry:uniform_resource_id&#45;&gt;uniform_resource:uniform_resource_id</title>
<path fill="none" stroke="#000000" d="M420.0024,-2875.2398C605.5978,-2865.5868 519.6274,-2589.5902 409.7777,-2428 385.3253,-2392.0301 343.2302,-2427.9699 318.7777,-2392 295.4152,-2357.6335 277.2222,-2298.5 318.7777,-2298.5"/>
<polygon fill="#000000" stroke="#000000" points="419.7745,-2875.2455 409.6632,-2871.0015 414.7761,-2875.3728 409.7777,-2875.5 409.7777,-2875.5 409.7777,-2875.5 414.7761,-2875.3728 409.8922,-2879.9985 419.7745,-2875.2455 419.7745,-2875.2455"/>
</g>
</g>
</svg>
