<?xml version="1.0" encoding="UTF-8" standalone="no"?>
<!DOCTYPE svg PUBLIC "-//W3C//DTD SVG 1.1//EN"
 "http://www.w3.org/Graphics/SVG/1.1/DTD/svg11.dtd">
<!-- Generated by graphviz version 2.40.1 (20161225.0304)
 -->
<!-- Title: Resource Surveillance State Schema Pages: 1 -->
<svg width="1682pt" height="3067pt"
 viewBox="0.00 0.00 1682.00 3067.00" xmlns="http://www.w3.org/2000/svg" xmlns:xlink="http://www.w3.org/1999/xlink">
<g id="graph0" class="graph" transform="scale(1 1) rotate(0) translate(4 3063)">
<title>Resource Surveillance State Schema</title>
<polygon fill="#ffffff" stroke="transparent" points="-4,4 -4,-3063 1678,-3063 1678,4 -4,4"/>
<!-- sqlpage_files -->
<g id="node1" class="node">
<title>sqlpage_files</title>
<polygon fill="#efefef" stroke="transparent" points="43,-2770.5 43,-2805.5 263,-2805.5 263,-2770.5 43,-2770.5"/>
<polygon fill="none" stroke="#000000" points="43,-2770.5 43,-2805.5 263,-2805.5 263,-2770.5 43,-2770.5"/>
<text text-anchor="start" x="64.3204" y="-2783.3" font-family="Arial Bold" font-size="18.00" fill="#000000">sqlpage_files</text>
<text text-anchor="start" x="169.3486" y="-2783.3" font-family="Arial" font-size="14.00" fill="#000000">    </text>
<text text-anchor="start" x="203.5534" y="-2783.3" font-family="Arial" font-size="14.00" fill="#666666">[table]</text>
<polygon fill="none" stroke="#000000" points="43,-2740.5 43,-2770.5 263,-2770.5 263,-2740.5 43,-2740.5"/>
<text text-anchor="start" x="50" y="-2751.9" font-family="Arial" font-size="14.00" fill="#000000">path    </text>
<text text-anchor="start" x="111.4432" y="-2751.9" font-family="Arial" font-size="14.00" fill="#666666">[TEXT]</text>
<polygon fill="none" stroke="#000000" points="43,-2710.5 43,-2740.5 263,-2740.5 263,-2710.5 43,-2710.5"/>
<text text-anchor="start" x="50" y="-2721.9" font-family="Arial" font-size="14.00" fill="#000000">contents    </text>
<text text-anchor="start" x="137.1164" y="-2721.9" font-family="Arial" font-size="14.00" fill="#666666">[TEXT]</text>
<polygon fill="none" stroke="#000000" points="43,-2680.5 43,-2710.5 263,-2710.5 263,-2680.5 43,-2680.5"/>
<text text-anchor="start" x="49.9467" y="-2691.9" font-family="Arial" font-size="14.00" fill="#000000">last_modified    </text>
<text text-anchor="start" x="166.6087" y="-2691.9" font-family="Arial" font-size="14.00" fill="#666666">[TIMESTAMP]</text>
</g>
<!-- device -->
<g id="node2" class="node">
<title>device</title>
<polygon fill="#efefef" stroke="transparent" points="552,-462.5 552,-497.5 759,-497.5 759,-462.5 552,-462.5"/>
<polygon fill="none" stroke="#000000" points="552,-462.5 552,-497.5 759,-497.5 759,-462.5 552,-462.5"/>
<text text-anchor="start" x="593.3281" y="-475.3" font-family="Arial Bold" font-size="18.00" fill="#000000">device</text>
<text text-anchor="start" x="645.3409" y="-475.3" font-family="Arial" font-size="14.00" fill="#000000">    </text>
<text text-anchor="start" x="679.5457" y="-475.3" font-family="Arial" font-size="14.00" fill="#666666">[table]</text>
<polygon fill="none" stroke="#000000" points="552,-432.5 552,-462.5 759,-462.5 759,-432.5 552,-432.5"/>
<text text-anchor="start" x="559" y="-443.9" font-family="Arial" font-size="14.00" fill="#000000">device_id    </text>
<text text-anchor="start" x="652.331" y="-443.9" font-family="Arial" font-size="14.00" fill="#666666">[ULID]</text>
<polygon fill="none" stroke="#000000" points="552,-402.5 552,-432.5 759,-432.5 759,-402.5 552,-402.5"/>
<text text-anchor="start" x="559" y="-413.9" font-family="Arial" font-size="14.00" fill="#000000">name    </text>
<text text-anchor="start" x="628.2132" y="-413.9" font-family="Arial" font-size="14.00" fill="#666666">[TEXT]</text>
<polygon fill="none" stroke="#000000" points="552,-372.5 552,-402.5 759,-402.5 759,-372.5 552,-372.5"/>
<text text-anchor="start" x="559" y="-383.9" font-family="Arial" font-size="14.00" fill="#000000">state    </text>
<text text-anchor="start" x="623.5512" y="-383.9" font-family="Arial" font-size="14.00" fill="#666666">[TEXT]</text>
<polygon fill="none" stroke="#000000" points="552,-342.5 552,-372.5 759,-372.5 759,-342.5 552,-342.5"/>
<text text-anchor="start" x="559" y="-353.9" font-family="Arial" font-size="14.00" fill="#000000">boundary    </text>
<text text-anchor="start" x="651.561" y="-353.9" font-family="Arial" font-size="14.00" fill="#666666">[TEXT]</text>
<polygon fill="none" stroke="#000000" points="552,-312.5 552,-342.5 759,-342.5 759,-312.5 552,-312.5"/>
<text text-anchor="start" x="559" y="-323.9" font-family="Arial" font-size="14.00" fill="#000000">segmentation    </text>
<text text-anchor="start" x="677.2314" y="-323.9" font-family="Arial" font-size="14.00" fill="#666666">[TEXT]</text>
<polygon fill="none" stroke="#000000" points="552,-282.5 552,-312.5 759,-312.5 759,-282.5 552,-282.5"/>
<text text-anchor="start" x="559" y="-293.9" font-family="Arial" font-size="14.00" fill="#000000">state_sysinfo    </text>
<text text-anchor="start" x="674.8962" y="-293.9" font-family="Arial" font-size="14.00" fill="#666666">[TEXT]</text>
<polygon fill="none" stroke="#000000" points="552,-252.5 552,-282.5 759,-282.5 759,-252.5 552,-252.5"/>
<text text-anchor="start" x="559" y="-263.9" font-family="Arial" font-size="14.00" fill="#000000">elaboration    </text>
<text text-anchor="start" x="662.4474" y="-263.9" font-family="Arial" font-size="14.00" fill="#666666">[TEXT]</text>
<polygon fill="none" stroke="#000000" points="552,-222.5 552,-252.5 759,-252.5 759,-222.5 552,-222.5"/>
<text text-anchor="start" x="559" y="-233.9" font-family="Arial" font-size="14.00" fill="#000000">created_at    </text>
<text text-anchor="start" x="659.3422" y="-233.9" font-family="Arial" font-size="14.00" fill="#666666">[TIMESTAMP]</text>
<polygon fill="none" stroke="#000000" points="552,-192.5 552,-222.5 759,-222.5 759,-192.5 552,-192.5"/>
<text text-anchor="start" x="559" y="-203.9" font-family="Arial" font-size="14.00" fill="#000000">created_by    </text>
<text text-anchor="start" x="662.4516" y="-203.9" font-family="Arial" font-size="14.00" fill="#666666">[TEXT]</text>
<polygon fill="none" stroke="#000000" points="552,-162.5 552,-192.5 759,-192.5 759,-162.5 552,-162.5"/>
<text text-anchor="start" x="558.6543" y="-173.9" font-family="Arial" font-size="14.00" fill="#000000">updated_at    </text>
<text text-anchor="start" x="662.9011" y="-173.9" font-family="Arial" font-size="14.00" fill="#666666">[TIMESTAMP]</text>
<polygon fill="none" stroke="#000000" points="552,-132.5 552,-162.5 759,-162.5 759,-132.5 552,-132.5"/>
<text text-anchor="start" x="559" y="-143.9" font-family="Arial" font-size="14.00" fill="#000000">updated_by    </text>
<text text-anchor="start" x="666.3562" y="-143.9" font-family="Arial" font-size="14.00" fill="#666666">[TEXT]</text>
<polygon fill="none" stroke="#000000" points="552,-102.5 552,-132.5 759,-132.5 759,-102.5 552,-102.5"/>
<text text-anchor="start" x="559" y="-113.9" font-family="Arial" font-size="14.00" fill="#000000">deleted_at    </text>
<text text-anchor="start" x="658.5708" y="-113.9" font-family="Arial" font-size="14.00" fill="#666666">[TIMESTAMP]</text>
<polygon fill="none" stroke="#000000" points="552,-72.5 552,-102.5 759,-102.5 759,-72.5 552,-72.5"/>
<text text-anchor="start" x="559" y="-83.9" font-family="Arial" font-size="14.00" fill="#000000">deleted_by    </text>
<text text-anchor="start" x="661.6802" y="-83.9" font-family="Arial" font-size="14.00" fill="#666666">[TEXT]</text>
<polygon fill="none" stroke="#000000" points="552,-42.5 552,-72.5 759,-72.5 759,-42.5 552,-42.5"/>
<text text-anchor="start" x="559" y="-53.9" font-family="Arial" font-size="14.00" fill="#000000">activity_log    </text>
<text text-anchor="start" x="662.4362" y="-53.9" font-family="Arial" font-size="14.00" fill="#666666">[TEXT]</text>
</g>
<!-- ur_walk_session -->
<g id="node3" class="node">
<title>ur_walk_session</title>
<polygon fill="#efefef" stroke="transparent" points="440,-1069.5 440,-1104.5 681,-1104.5 681,-1069.5 440,-1069.5"/>
<polygon fill="none" stroke="#000000" points="440,-1069.5 440,-1104.5 681,-1104.5 681,-1069.5 440,-1069.5"/>
<text text-anchor="start" x="457.8254" y="-1082.3" font-family="Arial Bold" font-size="18.00" fill="#000000">ur_walk_session</text>
<text text-anchor="start" x="590.8436" y="-1082.3" font-family="Arial" font-size="14.00" fill="#000000">    </text>
<text text-anchor="start" x="625.0484" y="-1082.3" font-family="Arial" font-size="14.00" fill="#666666">[table]</text>
<polygon fill="none" stroke="#000000" points="440,-1039.5 440,-1069.5 681,-1069.5 681,-1039.5 440,-1039.5"/>
<text text-anchor="start" x="447" y="-1050.9" font-family="Arial" font-size="14.00" fill="#000000">ur_walk_session_id    </text>
<text text-anchor="start" x="603.3352" y="-1050.9" font-family="Arial" font-size="14.00" fill="#666666">[ULID]</text>
<polygon fill="none" stroke="#000000" points="440,-1009.5 440,-1039.5 681,-1039.5 681,-1009.5 440,-1009.5"/>
<text text-anchor="start" x="447" y="-1020.9" font-family="Arial" font-size="14.00" fill="#000000">device_id    </text>
<text text-anchor="start" x="540.331" y="-1020.9" font-family="Arial" font-size="14.00" fill="#666666">[ULID]</text>
<polygon fill="none" stroke="#000000" points="440,-979.5 440,-1009.5 681,-1009.5 681,-979.5 440,-979.5"/>
<text text-anchor="start" x="447" y="-990.9" font-family="Arial" font-size="14.00" fill="#000000">walk_started_at    </text>
<text text-anchor="start" x="579.2286" y="-990.9" font-family="Arial" font-size="14.00" fill="#666666">[TIMESTAMP]</text>
<polygon fill="none" stroke="#000000" points="440,-949.5 440,-979.5 681,-979.5 681,-949.5 440,-949.5"/>
<text text-anchor="start" x="446.9411" y="-960.9" font-family="Arial" font-size="14.00" fill="#000000">walk_finished_at    </text>
<text text-anchor="start" x="584.6143" y="-960.9" font-family="Arial" font-size="14.00" fill="#666666">[TIMESTAMP]</text>
<polygon fill="none" stroke="#000000" points="440,-919.5 440,-949.5 681,-949.5 681,-919.5 440,-919.5"/>
<text text-anchor="start" x="447" y="-930.9" font-family="Arial" font-size="14.00" fill="#000000">ignore_paths_regex    </text>
<text text-anchor="start" x="604.9144" y="-930.9" font-family="Arial" font-size="14.00" fill="#666666">[TEXT]</text>
<polygon fill="none" stroke="#000000" points="440,-889.5 440,-919.5 681,-919.5 681,-889.5 440,-889.5"/>
<text text-anchor="start" x="447" y="-900.9" font-family="Arial" font-size="14.00" fill="#000000">blobs_regex    </text>
<text text-anchor="start" x="557.4502" y="-900.9" font-family="Arial" font-size="14.00" fill="#666666">[TEXT]</text>
<polygon fill="none" stroke="#000000" points="440,-859.5 440,-889.5 681,-889.5 681,-859.5 440,-859.5"/>
<text text-anchor="start" x="447" y="-870.9" font-family="Arial" font-size="14.00" fill="#000000">digests_regex    </text>
<text text-anchor="start" x="568.3408" y="-870.9" font-family="Arial" font-size="14.00" fill="#666666">[TEXT]</text>
<polygon fill="none" stroke="#000000" points="440,-829.5 440,-859.5 681,-859.5 681,-829.5 440,-829.5"/>
<text text-anchor="start" x="447" y="-840.9" font-family="Arial" font-size="14.00" fill="#000000">elaboration    </text>
<text text-anchor="start" x="550.4474" y="-840.9" font-family="Arial" font-size="14.00" fill="#666666">[TEXT]</text>
<polygon fill="none" stroke="#000000" points="440,-799.5 440,-829.5 681,-829.5 681,-799.5 440,-799.5"/>
<text text-anchor="start" x="447" y="-810.9" font-family="Arial" font-size="14.00" fill="#000000">created_at    </text>
<text text-anchor="start" x="547.3422" y="-810.9" font-family="Arial" font-size="14.00" fill="#666666">[TIMESTAMP]</text>
<polygon fill="none" stroke="#000000" points="440,-769.5 440,-799.5 681,-799.5 681,-769.5 440,-769.5"/>
<text text-anchor="start" x="447" y="-780.9" font-family="Arial" font-size="14.00" fill="#000000">created_by    </text>
<text text-anchor="start" x="550.4516" y="-780.9" font-family="Arial" font-size="14.00" fill="#666666">[TEXT]</text>
<polygon fill="none" stroke="#000000" points="440,-739.5 440,-769.5 681,-769.5 681,-739.5 440,-739.5"/>
<text text-anchor="start" x="447" y="-750.9" font-family="Arial" font-size="14.00" fill="#000000">updated_at    </text>
<text text-anchor="start" x="551.2468" y="-750.9" font-family="Arial" font-size="14.00" fill="#666666">[TIMESTAMP]</text>
<polygon fill="none" stroke="#000000" points="440,-709.5 440,-739.5 681,-739.5 681,-709.5 440,-709.5"/>
<text text-anchor="start" x="447" y="-720.9" font-family="Arial" font-size="14.00" fill="#000000">updated_by    </text>
<text text-anchor="start" x="554.3562" y="-720.9" font-family="Arial" font-size="14.00" fill="#666666">[TEXT]</text>
<polygon fill="none" stroke="#000000" points="440,-679.5 440,-709.5 681,-709.5 681,-679.5 440,-679.5"/>
<text text-anchor="start" x="447" y="-690.9" font-family="Arial" font-size="14.00" fill="#000000">deleted_at    </text>
<text text-anchor="start" x="546.5708" y="-690.9" font-family="Arial" font-size="14.00" fill="#666666">[TIMESTAMP]</text>
<polygon fill="none" stroke="#000000" points="440,-649.5 440,-679.5 681,-679.5 681,-649.5 440,-649.5"/>
<text text-anchor="start" x="447" y="-660.9" font-family="Arial" font-size="14.00" fill="#000000">deleted_by    </text>
<text text-anchor="start" x="549.6802" y="-660.9" font-family="Arial" font-size="14.00" fill="#666666">[TEXT]</text>
<polygon fill="none" stroke="#000000" points="440,-619.5 440,-649.5 681,-649.5 681,-619.5 440,-619.5"/>
<text text-anchor="start" x="447" y="-630.9" font-family="Arial" font-size="14.00" fill="#000000">activity_log    </text>
<text text-anchor="start" x="550.4362" y="-630.9" font-family="Arial" font-size="14.00" fill="#666666">[TEXT]</text>
</g>
<!-- ur_walk_session&#45;&gt;device -->
<g id="edge1" class="edge">
<title>ur_walk_session:device_id&#45;&gt;device:device_id</title>
<path fill="none" stroke="#000000" d="M690.9789,-1023.163C777.6544,-998.9617 739.0151,-653.4221 681,-577 645.0088,-529.5896 587.9912,-588.4104 552,-541 526.8735,-507.9013 510.4444,-447.5 552,-447.5"/>
<polygon fill="#000000" stroke="#000000" points="690.9114,-1023.1719 680.4024,-1020.0399 685.9557,-1023.836 681,-1024.5 681,-1024.5 681,-1024.5 685.9557,-1023.836 681.5976,-1028.9601 690.9114,-1023.1719 690.9114,-1023.1719"/>
</g>
<!-- ur_walk_session_path -->
<g id="node4" class="node">
<title>ur_walk_session_path</title>
<polygon fill="#efefef" stroke="transparent" points="404,-1556.5 404,-1591.5 668,-1591.5 668,-1556.5 404,-1556.5"/>
<polygon fill="none" stroke="#000000" points="404,-1556.5 404,-1591.5 668,-1591.5 668,-1556.5 404,-1556.5"/>
<text text-anchor="start" x="410.8119" y="-1569.3" font-family="Arial Bold" font-size="18.00" fill="#000000">ur_walk_session_path</text>
<text text-anchor="start" x="588.8571" y="-1569.3" font-family="Arial" font-size="14.00" fill="#000000">    </text>
<text text-anchor="start" x="623.0619" y="-1569.3" font-family="Arial" font-size="14.00" fill="#666666">[table]</text>
<polygon fill="none" stroke="#000000" points="404,-1526.5 404,-1556.5 668,-1556.5 668,-1526.5 404,-1526.5"/>
<text text-anchor="start" x="411" y="-1537.9" font-family="Arial" font-size="14.00" fill="#000000">ur_walk_session_path_id    </text>
<text text-anchor="start" x="602.3562" y="-1537.9" font-family="Arial" font-size="14.00" fill="#666666">[ULID]</text>
<polygon fill="none" stroke="#000000" points="404,-1496.5 404,-1526.5 668,-1526.5 668,-1496.5 404,-1496.5"/>
<text text-anchor="start" x="411" y="-1507.9" font-family="Arial" font-size="14.00" fill="#000000">walk_session_id    </text>
<text text-anchor="start" x="547.1094" y="-1507.9" font-family="Arial" font-size="14.00" fill="#666666">[ULID]</text>
<polygon fill="none" stroke="#000000" points="404,-1466.5 404,-1496.5 668,-1496.5 668,-1466.5 404,-1466.5"/>
<text text-anchor="start" x="411" y="-1477.9" font-family="Arial" font-size="14.00" fill="#000000">root_path    </text>
<text text-anchor="start" x="504.3422" y="-1477.9" font-family="Arial" font-size="14.00" fill="#666666">[TEXT]</text>
<polygon fill="none" stroke="#000000" points="404,-1436.5 404,-1466.5 668,-1466.5 668,-1436.5 404,-1436.5"/>
<text text-anchor="start" x="411" y="-1447.9" font-family="Arial" font-size="14.00" fill="#000000">elaboration    </text>
<text text-anchor="start" x="514.4474" y="-1447.9" font-family="Arial" font-size="14.00" fill="#666666">[TEXT]</text>
<polygon fill="none" stroke="#000000" points="404,-1406.5 404,-1436.5 668,-1436.5 668,-1406.5 404,-1406.5"/>
<text text-anchor="start" x="411" y="-1417.9" font-family="Arial" font-size="14.00" fill="#000000">created_at    </text>
<text text-anchor="start" x="511.3422" y="-1417.9" font-family="Arial" font-size="14.00" fill="#666666">[TIMESTAMP]</text>
<polygon fill="none" stroke="#000000" points="404,-1376.5 404,-1406.5 668,-1406.5 668,-1376.5 404,-1376.5"/>
<text text-anchor="start" x="411" y="-1387.9" font-family="Arial" font-size="14.00" fill="#000000">created_by    </text>
<text text-anchor="start" x="514.4516" y="-1387.9" font-family="Arial" font-size="14.00" fill="#666666">[TEXT]</text>
<polygon fill="none" stroke="#000000" points="404,-1346.5 404,-1376.5 668,-1376.5 668,-1346.5 404,-1346.5"/>
<text text-anchor="start" x="411" y="-1357.9" font-family="Arial" font-size="14.00" fill="#000000">updated_at    </text>
<text text-anchor="start" x="515.2468" y="-1357.9" font-family="Arial" font-size="14.00" fill="#666666">[TIMESTAMP]</text>
<polygon fill="none" stroke="#000000" points="404,-1316.5 404,-1346.5 668,-1346.5 668,-1316.5 404,-1316.5"/>
<text text-anchor="start" x="411" y="-1327.9" font-family="Arial" font-size="14.00" fill="#000000">updated_by    </text>
<text text-anchor="start" x="518.3562" y="-1327.9" font-family="Arial" font-size="14.00" fill="#666666">[TEXT]</text>
<polygon fill="none" stroke="#000000" points="404,-1286.5 404,-1316.5 668,-1316.5 668,-1286.5 404,-1286.5"/>
<text text-anchor="start" x="411" y="-1297.9" font-family="Arial" font-size="14.00" fill="#000000">deleted_at    </text>
<text text-anchor="start" x="510.5708" y="-1297.9" font-family="Arial" font-size="14.00" fill="#666666">[TIMESTAMP]</text>
<polygon fill="none" stroke="#000000" points="404,-1256.5 404,-1286.5 668,-1286.5 668,-1256.5 404,-1256.5"/>
<text text-anchor="start" x="411" y="-1267.9" font-family="Arial" font-size="14.00" fill="#000000">deleted_by    </text>
<text text-anchor="start" x="513.6802" y="-1267.9" font-family="Arial" font-size="14.00" fill="#666666">[TEXT]</text>
<polygon fill="none" stroke="#000000" points="404,-1226.5 404,-1256.5 668,-1256.5 668,-1226.5 404,-1226.5"/>
<text text-anchor="start" x="411" y="-1237.9" font-family="Arial" font-size="14.00" fill="#000000">activity_log    </text>
<text text-anchor="start" x="514.4362" y="-1237.9" font-family="Arial" font-size="14.00" fill="#666666">[TEXT]</text>
</g>
<!-- ur_walk_session_path&#45;&gt;ur_walk_session -->
<g id="edge2" class="edge">
<title>ur_walk_session_path:walk_session_id&#45;&gt;ur_walk_session:ur_walk_session_id</title>
<path fill="none" stroke="#000000" d="M677.9668,-1509.6102C738.2357,-1485.4378 712.9701,-1236.6277 668,-1184 601.3553,-1106.0068 506.6447,-1225.9932 440,-1148 413.0043,-1116.4074 398.4444,-1054.5 440,-1054.5"/>
<polygon fill="#000000" stroke="#000000" points="677.825,-1509.637 667.1617,-1507.0788 672.9125,-1510.5685 668,-1511.5 668,-1511.5 668,-1511.5 672.9125,-1510.5685 668.8383,-1515.9212 677.825,-1509.637 677.825,-1509.637"/>
</g>
<!-- uniform_resource -->
<g id="node5" class="node">
<title>uniform_resource</title>
<polygon fill="#efefef" stroke="transparent" points="614,-2313.5 614,-2348.5 848,-2348.5 848,-2313.5 614,-2313.5"/>
<polygon fill="none" stroke="#000000" points="614,-2313.5 614,-2348.5 848,-2348.5 848,-2313.5 614,-2313.5"/>
<text text-anchor="start" x="624.8271" y="-2326.3" font-family="Arial Bold" font-size="18.00" fill="#000000">uniform_resource</text>
<text text-anchor="start" x="764.8419" y="-2326.3" font-family="Arial" font-size="14.00" fill="#000000">    </text>
<text text-anchor="start" x="799.0467" y="-2326.3" font-family="Arial" font-size="14.00" fill="#666666">[table]</text>
<polygon fill="none" stroke="#000000" points="614,-2283.5 614,-2313.5 848,-2313.5 848,-2283.5 614,-2283.5"/>
<text text-anchor="start" x="621" y="-2294.9" font-family="Arial" font-size="14.00" fill="#000000">uniform_resource_id    </text>
<text text-anchor="start" x="782.777" y="-2294.9" font-family="Arial" font-size="14.00" fill="#666666">[ULID]</text>
<polygon fill="none" stroke="#000000" points="614,-2253.5 614,-2283.5 848,-2283.5 848,-2253.5 614,-2253.5"/>
<text text-anchor="start" x="621" y="-2264.9" font-family="Arial" font-size="14.00" fill="#000000">device_id    </text>
<text text-anchor="start" x="714.331" y="-2264.9" font-family="Arial" font-size="14.00" fill="#666666">[ULID]</text>
<polygon fill="none" stroke="#000000" points="614,-2223.5 614,-2253.5 848,-2253.5 848,-2223.5 614,-2223.5"/>
<text text-anchor="start" x="621" y="-2234.9" font-family="Arial" font-size="14.00" fill="#000000">walk_session_id    </text>
<text text-anchor="start" x="757.1094" y="-2234.9" font-family="Arial" font-size="14.00" fill="#666666">[ULID]</text>
<polygon fill="none" stroke="#000000" points="614,-2193.5 614,-2223.5 848,-2223.5 848,-2193.5 614,-2193.5"/>
<text text-anchor="start" x="621" y="-2204.9" font-family="Arial" font-size="14.00" fill="#000000">walk_path_id    </text>
<text text-anchor="start" x="736.8934" y="-2204.9" font-family="Arial" font-size="14.00" fill="#666666">[ULID]</text>
<polygon fill="none" stroke="#000000" points="614,-2163.5 614,-2193.5 848,-2193.5 848,-2163.5 614,-2163.5"/>
<text text-anchor="start" x="621" y="-2174.9" font-family="Arial" font-size="14.00" fill="#000000">uri    </text>
<text text-anchor="start" x="670.7546" y="-2174.9" font-family="Arial" font-size="14.00" fill="#666666">[TEXT]</text>
<polygon fill="none" stroke="#000000" points="614,-2133.5 614,-2163.5 848,-2163.5 848,-2133.5 614,-2133.5"/>
<text text-anchor="start" x="621" y="-2144.9" font-family="Arial" font-size="14.00" fill="#000000">content_digest    </text>
<text text-anchor="start" x="746.244" y="-2144.9" font-family="Arial" font-size="14.00" fill="#666666">[TEXT]</text>
<polygon fill="none" stroke="#000000" points="614,-2103.5 614,-2133.5 848,-2133.5 848,-2103.5 614,-2103.5"/>
<text text-anchor="start" x="621" y="-2114.9" font-family="Arial" font-size="14.00" fill="#000000">content    </text>
<text text-anchor="start" x="701.1164" y="-2114.9" font-family="Arial" font-size="14.00" fill="#666666">[BLOB]</text>
<polygon fill="none" stroke="#000000" points="614,-2073.5 614,-2103.5 848,-2103.5 848,-2073.5 614,-2073.5"/>
<text text-anchor="start" x="621" y="-2084.9" font-family="Arial" font-size="14.00" fill="#000000">nature    </text>
<text text-anchor="start" x="694.8864" y="-2084.9" font-family="Arial" font-size="14.00" fill="#666666">[TEXT]</text>
<polygon fill="none" stroke="#000000" points="614,-2043.5 614,-2073.5 848,-2073.5 848,-2043.5 614,-2043.5"/>
<text text-anchor="start" x="621" y="-2054.9" font-family="Arial" font-size="14.00" fill="#000000">size_bytes    </text>
<text text-anchor="start" x="721.3324" y="-2054.9" font-family="Arial" font-size="14.00" fill="#666666">[INTEGER]</text>
<polygon fill="none" stroke="#000000" points="614,-2013.5 614,-2043.5 848,-2043.5 848,-2013.5 614,-2013.5"/>
<text text-anchor="start" x="621" y="-2024.9" font-family="Arial" font-size="14.00" fill="#000000">last_modified_at    </text>
<text text-anchor="start" x="757.1178" y="-2024.9" font-family="Arial" font-size="14.00" fill="#666666">[INTEGER]</text>
<polygon fill="none" stroke="#000000" points="614,-1983.5 614,-2013.5 848,-2013.5 848,-1983.5 614,-1983.5"/>
<text text-anchor="start" x="620.9264" y="-1994.9" font-family="Arial" font-size="14.00" fill="#000000">content_fm_body_attrs    </text>
<text text-anchor="start" x="797.514" y="-1994.9" font-family="Arial" font-size="14.00" fill="#666666">[TEXT]</text>
<polygon fill="none" stroke="#000000" points="614,-1953.5 614,-1983.5 848,-1983.5 848,-1953.5 614,-1953.5"/>
<text text-anchor="start" x="621" y="-1964.9" font-family="Arial" font-size="14.00" fill="#000000">frontmatter    </text>
<text text-anchor="start" x="722.8794" y="-1964.9" font-family="Arial" font-size="14.00" fill="#666666">[TEXT]</text>
<polygon fill="none" stroke="#000000" points="614,-1923.5 614,-1953.5 848,-1953.5 848,-1923.5 614,-1923.5"/>
<text text-anchor="start" x="621" y="-1934.9" font-family="Arial" font-size="14.00" fill="#000000">elaboration    </text>
<text text-anchor="start" x="724.4474" y="-1934.9" font-family="Arial" font-size="14.00" fill="#666666">[TEXT]</text>
<polygon fill="none" stroke="#000000" points="614,-1893.5 614,-1923.5 848,-1923.5 848,-1893.5 614,-1893.5"/>
<text text-anchor="start" x="621" y="-1904.9" font-family="Arial" font-size="14.00" fill="#000000">created_at    </text>
<text text-anchor="start" x="721.3422" y="-1904.9" font-family="Arial" font-size="14.00" fill="#666666">[TIMESTAMP]</text>
<polygon fill="none" stroke="#000000" points="614,-1863.5 614,-1893.5 848,-1893.5 848,-1863.5 614,-1863.5"/>
<text text-anchor="start" x="621" y="-1874.9" font-family="Arial" font-size="14.00" fill="#000000">created_by    </text>
<text text-anchor="start" x="724.4516" y="-1874.9" font-family="Arial" font-size="14.00" fill="#666666">[TEXT]</text>
<polygon fill="none" stroke="#000000" points="614,-1833.5 614,-1863.5 848,-1863.5 848,-1833.5 614,-1833.5"/>
<text text-anchor="start" x="621" y="-1844.9" font-family="Arial" font-size="14.00" fill="#000000">updated_at    </text>
<text text-anchor="start" x="725.2468" y="-1844.9" font-family="Arial" font-size="14.00" fill="#666666">[TIMESTAMP]</text>
<polygon fill="none" stroke="#000000" points="614,-1803.5 614,-1833.5 848,-1833.5 848,-1803.5 614,-1803.5"/>
<text text-anchor="start" x="621" y="-1814.9" font-family="Arial" font-size="14.00" fill="#000000">updated_by    </text>
<text text-anchor="start" x="728.3562" y="-1814.9" font-family="Arial" font-size="14.00" fill="#666666">[TEXT]</text>
<polygon fill="none" stroke="#000000" points="614,-1773.5 614,-1803.5 848,-1803.5 848,-1773.5 614,-1773.5"/>
<text text-anchor="start" x="621" y="-1784.9" font-family="Arial" font-size="14.00" fill="#000000">deleted_at    </text>
<text text-anchor="start" x="720.5708" y="-1784.9" font-family="Arial" font-size="14.00" fill="#666666">[TIMESTAMP]</text>
<polygon fill="none" stroke="#000000" points="614,-1743.5 614,-1773.5 848,-1773.5 848,-1743.5 614,-1743.5"/>
<text text-anchor="start" x="621" y="-1754.9" font-family="Arial" font-size="14.00" fill="#000000">deleted_by    </text>
<text text-anchor="start" x="723.6802" y="-1754.9" font-family="Arial" font-size="14.00" fill="#666666">[TEXT]</text>
<polygon fill="none" stroke="#000000" points="614,-1713.5 614,-1743.5 848,-1743.5 848,-1713.5 614,-1713.5"/>
<text text-anchor="start" x="621" y="-1724.9" font-family="Arial" font-size="14.00" fill="#000000">activity_log    </text>
<text text-anchor="start" x="724.4362" y="-1724.9" font-family="Arial" font-size="14.00" fill="#666666">[TEXT]</text>
</g>
<!-- uniform_resource&#45;&gt;device -->
<g id="edge5" class="edge">
<title>uniform_resource:device_id&#45;&gt;device:device_id</title>
<path fill="none" stroke="#000000" d="M858.0427,-2268.4062C1657.5482,-2253.4156 1565.9363,-447.5 759,-447.5"/>
<polygon fill="#000000" stroke="#000000" points="857.9996,-2268.4065 847.9579,-2264.0002 852.9998,-2268.4532 848,-2268.5 848,-2268.5 848,-2268.5 852.9998,-2268.4532 848.0421,-2272.9998 857.9996,-2268.4065 857.9996,-2268.4065"/>
</g>
<!-- uniform_resource&#45;&gt;ur_walk_session -->
<g id="edge4" class="edge">
<title>uniform_resource:walk_session_id&#45;&gt;ur_walk_session:ur_walk_session_id</title>
<path fill="none" stroke="#000000" d="M858.1412,-2238.301C1097.1294,-2228.7594 985.3906,-1878.394 848,-1671 825.3423,-1636.7978 787.257,-1668.0871 763,-1635 685.9709,-1529.9307 811.2807,-1054.5 681,-1054.5"/>
<polygon fill="#000000" stroke="#000000" points="857.9981,-2238.3037 847.9117,-2234.0009 852.999,-2238.4018 848,-2238.5 848,-2238.5 848,-2238.5 852.999,-2238.4018 848.0883,-2242.9991 857.9981,-2238.3037 857.9981,-2238.3037"/>
</g>
<!-- uniform_resource&#45;&gt;ur_walk_session_path -->
<g id="edge3" class="edge">
<title>uniform_resource:walk_path_id&#45;&gt;ur_walk_session_path:ur_walk_session_path_id</title>
<path fill="none" stroke="#000000" d="M604.7131,-2204.0003C557.8401,-2154.9627 587.4158,-1720.6731 614,-1671 627.6105,-1645.5686 654.3895,-1660.4314 668,-1635 687.6083,-1598.3615 709.5556,-1541.5 668,-1541.5"/>
<polygon fill="#000000" stroke="#000000" points="605.0007,-2204.1396 612.0378,-2212.5497 609.5004,-2206.3198 614,-2208.5 614,-2208.5 614,-2208.5 609.5004,-2206.3198 615.9622,-2204.4503 605.0007,-2204.1396 605.0007,-2204.1396"/>
</g>
<!-- ur_walk_session_path_fs_entry -->
<g id="node6" class="node">
<title>ur_walk_session_path_fs_entry</title>
<polygon fill="#efefef" stroke="transparent" points="367,-2980.5 367,-3015.5 705,-3015.5 705,-2980.5 367,-2980.5"/>
<polygon fill="none" stroke="#000000" points="367,-2980.5 367,-3015.5 705,-3015.5 705,-2980.5 367,-2980.5"/>
<text text-anchor="start" x="373.8012" y="-2993.3" font-family="Arial Bold" font-size="18.00" fill="#000000">ur_walk_session_path_fs_entry</text>
<text text-anchor="start" x="625.8678" y="-2993.3" font-family="Arial" font-size="14.00" fill="#000000">    </text>
<text text-anchor="start" x="660.0726" y="-2993.3" font-family="Arial" font-size="14.00" fill="#666666">[table]</text>
<polygon fill="none" stroke="#000000" points="367,-2950.5 367,-2980.5 705,-2980.5 705,-2950.5 367,-2950.5"/>
<text text-anchor="start" x="374" y="-2961.9" font-family="Arial" font-size="14.00" fill="#000000">ur_walk_session_path_fs_entry_id    </text>
<text text-anchor="start" x="622.9284" y="-2961.9" font-family="Arial" font-size="14.00" fill="#666666">[ULID]</text>
<polygon fill="none" stroke="#000000" points="367,-2920.5 367,-2950.5 705,-2950.5 705,-2920.5 367,-2920.5"/>
<text text-anchor="start" x="374" y="-2931.9" font-family="Arial" font-size="14.00" fill="#000000">walk_session_id    </text>
<text text-anchor="start" x="510.1094" y="-2931.9" font-family="Arial" font-size="14.00" fill="#666666">[ULID]</text>
<polygon fill="none" stroke="#000000" points="367,-2890.5 367,-2920.5 705,-2920.5 705,-2890.5 367,-2890.5"/>
<text text-anchor="start" x="374" y="-2901.9" font-family="Arial" font-size="14.00" fill="#000000">walk_path_id    </text>
<text text-anchor="start" x="489.8934" y="-2901.9" font-family="Arial" font-size="14.00" fill="#666666">[ULID]</text>
<polygon fill="none" stroke="#000000" points="367,-2860.5 367,-2890.5 705,-2890.5 705,-2860.5 367,-2860.5"/>
<text text-anchor="start" x="374" y="-2871.9" font-family="Arial" font-size="14.00" fill="#000000">uniform_resource_id    </text>
<text text-anchor="start" x="535.777" y="-2871.9" font-family="Arial" font-size="14.00" fill="#666666">[ULID]</text>
<polygon fill="none" stroke="#000000" points="367,-2830.5 367,-2860.5 705,-2860.5 705,-2830.5 367,-2830.5"/>
<text text-anchor="start" x="374" y="-2841.9" font-family="Arial" font-size="14.00" fill="#000000">file_path_abs    </text>
<text text-anchor="start" x="491.46" y="-2841.9" font-family="Arial" font-size="14.00" fill="#666666">[TEXT]</text>
<polygon fill="none" stroke="#000000" points="367,-2800.5 367,-2830.5 705,-2830.5 705,-2800.5 367,-2800.5"/>
<text text-anchor="start" x="374" y="-2811.9" font-family="Arial" font-size="14.00" fill="#000000">file_path_rel_parent    </text>
<text text-anchor="start" x="531.9088" y="-2811.9" font-family="Arial" font-size="14.00" fill="#666666">[TEXT]</text>
<polygon fill="none" stroke="#000000" points="367,-2770.5 367,-2800.5 705,-2800.5 705,-2770.5 367,-2770.5"/>
<text text-anchor="start" x="374" y="-2781.9" font-family="Arial" font-size="14.00" fill="#000000">file_path_rel    </text>
<text text-anchor="start" x="484.4446" y="-2781.9" font-family="Arial" font-size="14.00" fill="#666666">[TEXT]</text>
<polygon fill="none" stroke="#000000" points="367,-2740.5 367,-2770.5 705,-2770.5 705,-2740.5 367,-2740.5"/>
<text text-anchor="start" x="374" y="-2751.9" font-family="Arial" font-size="14.00" fill="#000000">file_basename    </text>
<text text-anchor="start" x="499.23" y="-2751.9" font-family="Arial" font-size="14.00" fill="#666666">[TEXT]</text>
<polygon fill="none" stroke="#000000" points="367,-2710.5 367,-2740.5 705,-2740.5 705,-2710.5 367,-2710.5"/>
<text text-anchor="start" x="374" y="-2721.9" font-family="Arial" font-size="14.00" fill="#000000">file_extn    </text>
<text text-anchor="start" x="460.3296" y="-2721.9" font-family="Arial" font-size="14.00" fill="#666666">[TEXT]</text>
<polygon fill="none" stroke="#000000" points="367,-2680.5 367,-2710.5 705,-2710.5 705,-2680.5 367,-2680.5"/>
<text text-anchor="start" x="374" y="-2691.9" font-family="Arial" font-size="14.00" fill="#000000">elaboration    </text>
<text text-anchor="start" x="477.4474" y="-2691.9" font-family="Arial" font-size="14.00" fill="#666666">[TEXT]</text>
<polygon fill="none" stroke="#000000" points="367,-2650.5 367,-2680.5 705,-2680.5 705,-2650.5 367,-2650.5"/>
<text text-anchor="start" x="374" y="-2661.9" font-family="Arial" font-size="14.00" fill="#000000">created_at    </text>
<text text-anchor="start" x="474.3422" y="-2661.9" font-family="Arial" font-size="14.00" fill="#666666">[TIMESTAMP]</text>
<polygon fill="none" stroke="#000000" points="367,-2620.5 367,-2650.5 705,-2650.5 705,-2620.5 367,-2620.5"/>
<text text-anchor="start" x="374" y="-2631.9" font-family="Arial" font-size="14.00" fill="#000000">created_by    </text>
<text text-anchor="start" x="477.4516" y="-2631.9" font-family="Arial" font-size="14.00" fill="#666666">[TEXT]</text>
<polygon fill="none" stroke="#000000" points="367,-2590.5 367,-2620.5 705,-2620.5 705,-2590.5 367,-2590.5"/>
<text text-anchor="start" x="374" y="-2601.9" font-family="Arial" font-size="14.00" fill="#000000">updated_at    </text>
<text text-anchor="start" x="478.2468" y="-2601.9" font-family="Arial" font-size="14.00" fill="#666666">[TIMESTAMP]</text>
<polygon fill="none" stroke="#000000" points="367,-2560.5 367,-2590.5 705,-2590.5 705,-2560.5 367,-2560.5"/>
<text text-anchor="start" x="374" y="-2571.9" font-family="Arial" font-size="14.00" fill="#000000">updated_by    </text>
<text text-anchor="start" x="481.3562" y="-2571.9" font-family="Arial" font-size="14.00" fill="#666666">[TEXT]</text>
<polygon fill="none" stroke="#000000" points="367,-2530.5 367,-2560.5 705,-2560.5 705,-2530.5 367,-2530.5"/>
<text text-anchor="start" x="374" y="-2541.9" font-family="Arial" font-size="14.00" fill="#000000">deleted_at    </text>
<text text-anchor="start" x="473.5708" y="-2541.9" font-family="Arial" font-size="14.00" fill="#666666">[TIMESTAMP]</text>
<polygon fill="none" stroke="#000000" points="367,-2500.5 367,-2530.5 705,-2530.5 705,-2500.5 367,-2500.5"/>
<text text-anchor="start" x="374" y="-2511.9" font-family="Arial" font-size="14.00" fill="#000000">deleted_by    </text>
<text text-anchor="start" x="476.6802" y="-2511.9" font-family="Arial" font-size="14.00" fill="#666666">[TEXT]</text>
<polygon fill="none" stroke="#000000" points="367,-2470.5 367,-2500.5 705,-2500.5 705,-2470.5 367,-2470.5"/>
<text text-anchor="start" x="374" y="-2481.9" font-family="Arial" font-size="14.00" fill="#000000">activity_log    </text>
<text text-anchor="start" x="477.4362" y="-2481.9" font-family="Arial" font-size="14.00" fill="#666666">[TEXT]</text>
</g>
<!-- ur_walk_session_path_fs_entry&#45;&gt;ur_walk_session -->
<g id="edge8" class="edge">
<title>ur_walk_session_path_fs_entry:walk_session_id&#45;&gt;ur_walk_session:ur_walk_session_id</title>
<path fill="none" stroke="#000000" d="M358.752,-2929.4657C299.3783,-2836.6901 352.3996,-1704.2901 352,-1635 350.4952,-1374.0567 179.0523,-1054.5 440,-1054.5"/>
<polygon fill="#000000" stroke="#000000" points="358.9293,-2929.5954 364.3429,-2939.1318 362.9646,-2932.5477 367,-2935.5 367,-2935.5 367,-2935.5 362.9646,-2932.5477 369.6571,-2931.8682 358.9293,-2929.5954 358.9293,-2929.5954"/>
</g>
<!-- ur_walk_session_path_fs_entry&#45;&gt;ur_walk_session_path -->
<g id="edge7" class="edge">
<title>ur_walk_session_path_fs_entry:walk_path_id&#45;&gt;ur_walk_session_path:ur_walk_session_path_id</title>
<path fill="none" stroke="#000000" d="M714.1016,-2900.5972C755.4531,-2852.5815 735.5781,-2467.2302 705,-2428 664.7092,-2376.309 602.2908,-2443.691 562,-2392 365.0024,-2139.2619 375.3679,-1931.4863 562,-1671 590.9775,-1630.5555 639.0225,-1675.4445 668,-1635 692.2026,-1601.2199 709.5556,-1541.5 668,-1541.5"/>
<polygon fill="#000000" stroke="#000000" points="713.8039,-2900.7575 702.8659,-2901.5382 709.402,-2903.1287 705,-2905.5 705,-2905.5 705,-2905.5 709.402,-2903.1287 707.1341,-2909.4618 713.8039,-2900.7575 713.8039,-2900.7575"/>
</g>
<!-- ur_walk_session_path_fs_entry&#45;&gt;uniform_resource -->
<g id="edge6" class="edge">
<title>ur_walk_session_path_fs_entry:uniform_resource_id&#45;&gt;uniform_resource:uniform_resource_id</title>
<path fill="none" stroke="#000000" d="M713.7408,-2870.6421C751.8904,-2824.6325 731.1521,-2466.47 705,-2428 680.5476,-2392.0301 638.4524,-2427.9699 614,-2392 590.6375,-2357.6335 572.4444,-2298.5 614,-2298.5"/>
<polygon fill="#000000" stroke="#000000" points="713.7408,-2870.642 702.8139,-2871.5667 709.3704,-2873.071 705,-2875.5 705,-2875.5 705,-2875.5 709.3704,-2873.071 707.1861,-2879.4333 713.7408,-2870.642 713.7408,-2870.642"/>
</g>
<!-- fs_content_walk_session_stats_latest -->
<g id="node7" class="node">
<title>fs_content_walk_session_stats_latest</title>
<polygon fill="#efefef" stroke="transparent" points="810,-2950.5 810,-2985.5 1195,-2985.5 1195,-2950.5 810,-2950.5"/>
<polygon fill="none" stroke="#000000" points="810,-2950.5 810,-2985.5 1195,-2985.5 1195,-2950.5 810,-2950.5"/>
<text text-anchor="start" x="816.9634" y="-2963.3" font-family="Arial Bold" font-size="18.00" fill="#000000">fs_content_walk_session_stats_latest</text>
<text text-anchor="start" x="1118.0548" y="-2963.3" font-family="Arial" font-size="14.00" fill="#000000">    </text>
<text text-anchor="start" x="1152.2596" y="-2963.3" font-family="Arial" font-size="14.00" fill="#666666">[view]</text>
<polygon fill="none" stroke="#000000" points="810,-2920.5 810,-2950.5 1195,-2950.5 1195,-2920.5 810,-2920.5"/>
<text text-anchor="start" x="817" y="-2931.9" font-family="Arial" font-size="14.00" fill="#000000">device_id    </text>
<text text-anchor="start" x="910.331" y="-2931.9" font-family="Arial" font-size="14.00" fill="#666666">[ULID]</text>
<polygon fill="none" stroke="#000000" points="810,-2890.5 810,-2920.5 1195,-2920.5 1195,-2890.5 810,-2890.5"/>
<text text-anchor="start" x="817" y="-2901.9" font-family="Arial" font-size="14.00" fill="#000000">walk_session_id    </text>
<text text-anchor="start" x="953.1094" y="-2901.9" font-family="Arial" font-size="14.00" fill="#666666">[ULID]</text>
<polygon fill="none" stroke="#000000" points="810,-2860.5 810,-2890.5 1195,-2890.5 1195,-2860.5 810,-2860.5"/>
<text text-anchor="start" x="817" y="-2871.9" font-family="Arial" font-size="14.00" fill="#000000">walk_session_started_at    </text>
<text text-anchor="start" x="1004.4656" y="-2871.9" font-family="Arial" font-size="14.00" fill="#666666">[TIMESTAMP]</text>
<polygon fill="none" stroke="#000000" points="810,-2830.5 810,-2860.5 1195,-2860.5 1195,-2830.5 810,-2830.5"/>
<text text-anchor="start" x="817" y="-2841.9" font-family="Arial" font-size="14.00" fill="#000000">walk_session_finished_at    </text>
<text text-anchor="start" x="1009.9102" y="-2841.9" font-family="Arial" font-size="14.00" fill="#666666">[TIMESTAMP]</text>
<polygon fill="none" stroke="#000000" points="810,-2800.5 810,-2830.5 1195,-2830.5 1195,-2800.5 810,-2800.5"/>
<text text-anchor="start" x="817" y="-2811.9" font-family="Arial" font-size="14.00" fill="#000000">file_extension    </text>
<text text-anchor="start" x="936.784" y="-2811.9" font-family="Arial" font-size="14.00" fill="#666666">[]</text>
<polygon fill="none" stroke="#000000" points="810,-2770.5 810,-2800.5 1195,-2800.5 1195,-2770.5 810,-2770.5"/>
<text text-anchor="start" x="817" y="-2781.9" font-family="Arial" font-size="14.00" fill="#000000">walk_session_path_id    </text>
<text text-anchor="start" x="988.1304" y="-2781.9" font-family="Arial" font-size="14.00" fill="#666666">[ULID]</text>
<polygon fill="none" stroke="#000000" points="810,-2740.5 810,-2770.5 1195,-2770.5 1195,-2740.5 810,-2740.5"/>
<text text-anchor="start" x="817" y="-2751.9" font-family="Arial" font-size="14.00" fill="#000000">walk_session_root_path    </text>
<text text-anchor="start" x="1001.3576" y="-2751.9" font-family="Arial" font-size="14.00" fill="#666666">[TEXT]</text>
<polygon fill="none" stroke="#000000" points="810,-2710.5 810,-2740.5 1195,-2740.5 1195,-2710.5 810,-2710.5"/>
<text text-anchor="start" x="817" y="-2721.9" font-family="Arial" font-size="14.00" fill="#000000">total_file_count    </text>
<text text-anchor="start" x="945.3478" y="-2721.9" font-family="Arial" font-size="14.00" fill="#666666">[]</text>
<polygon fill="none" stroke="#000000" points="810,-2680.5 810,-2710.5 1195,-2710.5 1195,-2680.5 810,-2680.5"/>
<text text-anchor="start" x="817" y="-2691.9" font-family="Arial" font-size="14.00" fill="#000000">file_count_with_content    </text>
<text text-anchor="start" x="997.4754" y="-2691.9" font-family="Arial" font-size="14.00" fill="#666666">[]</text>
<polygon fill="none" stroke="#000000" points="810,-2650.5 810,-2680.5 1195,-2680.5 1195,-2650.5 810,-2650.5"/>
<text text-anchor="start" x="817" y="-2661.9" font-family="Arial" font-size="14.00" fill="#000000">file_count_with_frontmatter    </text>
<text text-anchor="start" x="1019.2384" y="-2661.9" font-family="Arial" font-size="14.00" fill="#666666">[]</text>
<polygon fill="none" stroke="#000000" points="810,-2620.5 810,-2650.5 1195,-2650.5 1195,-2620.5 810,-2620.5"/>
<text text-anchor="start" x="817" y="-2631.9" font-family="Arial" font-size="14.00" fill="#000000">min_file_size_bytes    </text>
<text text-anchor="start" x="973.3338" y="-2631.9" font-family="Arial" font-size="14.00" fill="#666666">[]</text>
<polygon fill="none" stroke="#000000" points="810,-2590.5 810,-2620.5 1195,-2620.5 1195,-2590.5 810,-2590.5"/>
<text text-anchor="start" x="817" y="-2601.9" font-family="Arial" font-size="14.00" fill="#000000">average_file_size_bytes    </text>
<text text-anchor="start" x="1001.3576" y="-2601.9" font-family="Arial" font-size="14.00" fill="#666666">[INT]</text>
<polygon fill="none" stroke="#000000" points="810,-2560.5 810,-2590.5 1195,-2590.5 1195,-2560.5 810,-2560.5"/>
<text text-anchor="start" x="817" y="-2571.9" font-family="Arial" font-size="14.00" fill="#000000">max_file_size_bytes    </text>
<text text-anchor="start" x="977.2272" y="-2571.9" font-family="Arial" font-size="14.00" fill="#666666">[]</text>
<polygon fill="none" stroke="#000000" points="810,-2530.5 810,-2560.5 1195,-2560.5 1195,-2530.5 810,-2530.5"/>
<text text-anchor="start" x="817" y="-2541.9" font-family="Arial" font-size="14.00" fill="#000000">oldest_file_last_modified_datetime    </text>
<text text-anchor="start" x="1065.92" y="-2541.9" font-family="Arial" font-size="14.00" fill="#666666">[]</text>
<polygon fill="none" stroke="#000000" points="810,-2500.5 810,-2530.5 1195,-2530.5 1195,-2500.5 810,-2500.5"/>
<text text-anchor="start" x="817" y="-2511.9" font-family="Arial" font-size="14.00" fill="#000000">youngest_file_last_modified_datetime    </text>
<text text-anchor="start" x="1085.3786" y="-2511.9" font-family="Arial" font-size="14.00" fill="#666666">[]</text>
</g>
<!-- fs_content_walk_session_stats -->
<g id="node8" class="node">
<title>fs_content_walk_session_stats</title>
<polygon fill="#efefef" stroke="transparent" points="1299,-2950.5 1299,-2985.5 1631,-2985.5 1631,-2950.5 1299,-2950.5"/>
<polygon fill="none" stroke="#000000" points="1299,-2950.5 1299,-2985.5 1631,-2985.5 1631,-2950.5 1299,-2950.5"/>
<text text-anchor="start" x="1305.972" y="-2963.3" font-family="Arial Bold" font-size="18.00" fill="#000000">fs_content_walk_session_stats</text>
<text text-anchor="start" x="1554.0462" y="-2963.3" font-family="Arial" font-size="14.00" fill="#000000">    </text>
<text text-anchor="start" x="1588.251" y="-2963.3" font-family="Arial" font-size="14.00" fill="#666666">[view]</text>
<polygon fill="none" stroke="#000000" points="1299,-2920.5 1299,-2950.5 1631,-2950.5 1631,-2920.5 1299,-2920.5"/>
<text text-anchor="start" x="1306" y="-2931.9" font-family="Arial" font-size="14.00" fill="#000000">device_id    </text>
<text text-anchor="start" x="1399.331" y="-2931.9" font-family="Arial" font-size="14.00" fill="#666666">[ULID]</text>
<polygon fill="none" stroke="#000000" points="1299,-2890.5 1299,-2920.5 1631,-2920.5 1631,-2890.5 1299,-2890.5"/>
<text text-anchor="start" x="1306" y="-2901.9" font-family="Arial" font-size="14.00" fill="#000000">walk_session_id    </text>
<text text-anchor="start" x="1442.1094" y="-2901.9" font-family="Arial" font-size="14.00" fill="#666666">[ULID]</text>
<polygon fill="none" stroke="#000000" points="1299,-2860.5 1299,-2890.5 1631,-2890.5 1631,-2860.5 1299,-2860.5"/>
<text text-anchor="start" x="1306" y="-2871.9" font-family="Arial" font-size="14.00" fill="#000000">walk_session_started_at    </text>
<text text-anchor="start" x="1493.4656" y="-2871.9" font-family="Arial" font-size="14.00" fill="#666666">[TIMESTAMP]</text>
<polygon fill="none" stroke="#000000" points="1299,-2830.5 1299,-2860.5 1631,-2860.5 1631,-2830.5 1299,-2830.5"/>
<text text-anchor="start" x="1306" y="-2841.9" font-family="Arial" font-size="14.00" fill="#000000">walk_session_finished_at    </text>
<text text-anchor="start" x="1498.9102" y="-2841.9" font-family="Arial" font-size="14.00" fill="#666666">[TIMESTAMP]</text>
<polygon fill="none" stroke="#000000" points="1299,-2800.5 1299,-2830.5 1631,-2830.5 1631,-2800.5 1299,-2800.5"/>
<text text-anchor="start" x="1306" y="-2811.9" font-family="Arial" font-size="14.00" fill="#000000">file_extension    </text>
<text text-anchor="start" x="1425.784" y="-2811.9" font-family="Arial" font-size="14.00" fill="#666666">[]</text>
<polygon fill="none" stroke="#000000" points="1299,-2770.5 1299,-2800.5 1631,-2800.5 1631,-2770.5 1299,-2770.5"/>
<text text-anchor="start" x="1306" y="-2781.9" font-family="Arial" font-size="14.00" fill="#000000">walk_session_path_id    </text>
<text text-anchor="start" x="1477.1304" y="-2781.9" font-family="Arial" font-size="14.00" fill="#666666">[ULID]</text>
<polygon fill="none" stroke="#000000" points="1299,-2740.5 1299,-2770.5 1631,-2770.5 1631,-2740.5 1299,-2740.5"/>
<text text-anchor="start" x="1306" y="-2751.9" font-family="Arial" font-size="14.00" fill="#000000">walk_session_root_path    </text>
<text text-anchor="start" x="1490.3576" y="-2751.9" font-family="Arial" font-size="14.00" fill="#666666">[TEXT]</text>
<polygon fill="none" stroke="#000000" points="1299,-2710.5 1299,-2740.5 1631,-2740.5 1631,-2710.5 1299,-2710.5"/>
<text text-anchor="start" x="1306" y="-2721.9" font-family="Arial" font-size="14.00" fill="#000000">total_file_count    </text>
<text text-anchor="start" x="1434.3478" y="-2721.9" font-family="Arial" font-size="14.00" fill="#666666">[]</text>
<polygon fill="none" stroke="#000000" points="1299,-2680.5 1299,-2710.5 1631,-2710.5 1631,-2680.5 1299,-2680.5"/>
<text text-anchor="start" x="1306" y="-2691.9" font-family="Arial" font-size="14.00" fill="#000000">file_count_with_content    </text>
<text text-anchor="start" x="1486.4754" y="-2691.9" font-family="Arial" font-size="14.00" fill="#666666">[]</text>
<polygon fill="none" stroke="#000000" points="1299,-2650.5 1299,-2680.5 1631,-2680.5 1631,-2650.5 1299,-2650.5"/>
<text text-anchor="start" x="1306" y="-2661.9" font-family="Arial" font-size="14.00" fill="#000000">file_count_with_frontmatter    </text>
<text text-anchor="start" x="1508.2384" y="-2661.9" font-family="Arial" font-size="14.00" fill="#666666">[]</text>
<polygon fill="none" stroke="#000000" points="1299,-2620.5 1299,-2650.5 1631,-2650.5 1631,-2620.5 1299,-2620.5"/>
<text text-anchor="start" x="1306" y="-2631.9" font-family="Arial" font-size="14.00" fill="#000000">min_file_size_bytes    </text>
<text text-anchor="start" x="1462.3338" y="-2631.9" font-family="Arial" font-size="14.00" fill="#666666">[]</text>
<polygon fill="none" stroke="#000000" points="1299,-2590.5 1299,-2620.5 1631,-2620.5 1631,-2590.5 1299,-2590.5"/>
<text text-anchor="start" x="1306" y="-2601.9" font-family="Arial" font-size="14.00" fill="#000000">average_file_size_bytes    </text>
<text text-anchor="start" x="1490.3576" y="-2601.9" font-family="Arial" font-size="14.00" fill="#666666">[INT]</text>
<polygon fill="none" stroke="#000000" points="1299,-2560.5 1299,-2590.5 1631,-2590.5 1631,-2560.5 1299,-2560.5"/>
<text text-anchor="start" x="1306" y="-2571.9" font-family="Arial" font-size="14.00" fill="#000000">max_file_size_bytes    </text>
<text text-anchor="start" x="1466.2272" y="-2571.9" font-family="Arial" font-size="14.00" fill="#666666">[]</text>
<polygon fill="none" stroke="#000000" points="1299,-2530.5 1299,-2560.5 1631,-2560.5 1631,-2530.5 1299,-2530.5"/>
<text text-anchor="start" x="1306" y="-2541.9" font-family="Arial" font-size="14.00" fill="#000000">oldest_file_last_modified_datetime    </text>
<text text-anchor="start" x="1554.92" y="-2541.9" font-family="Arial" font-size="14.00" fill="#666666">[]</text>
<polygon fill="none" stroke="#000000" points="1299,-2500.5 1299,-2530.5 1631,-2530.5 1631,-2500.5 1299,-2500.5"/>
<text text-anchor="start" x="1306" y="-2511.9" font-family="Arial" font-size="14.00" fill="#000000">youngest_file_last_modified_datetime    </text>
<text text-anchor="start" x="1574.3786" y="-2511.9" font-family="Arial" font-size="14.00" fill="#666666">[]</text>
</g>
</g>
</svg>
