<?xml version="1.0" encoding="UTF-8" standalone="no"?>
<!DOCTYPE svg PUBLIC "-//W3C//DTD SVG 1.1//EN"
 "http://www.w3.org/Graphics/SVG/1.1/DTD/svg11.dtd">
<!-- Generated by graphviz version 2.40.1 (20161225.0304)
 -->
<!-- Title: sqlpage_files Pages: 1 -->
<svg width="291pt" height="225pt"
 viewBox="0.00 0.00 291.00 225.00" xmlns="http://www.w3.org/2000/svg" xmlns:xlink="http://www.w3.org/1999/xlink">
<g id="graph0" class="graph" transform="scale(1 1) rotate(0) translate(4 221)">
<title>sqlpage_files</title>
<polygon fill="#ffffff" stroke="transparent" points="-4,4 -4,-221 287,-221 287,4 -4,4"/>
<!-- sqlpage_files -->
<g id="node1" class="node">
<title>sqlpage_files</title>
<polygon fill="#efefef" stroke="transparent" points="46.5,-135.5 46.5,-170.5 237.5,-170.5 237.5,-135.5 46.5,-135.5"/>
<polygon fill="none" stroke="#000000" points="46.5,-135.5 46.5,-170.5 237.5,-170.5 237.5,-135.5 46.5,-135.5"/>
<text text-anchor="start" x="53.3204" y="-148.3" font-family="Arial Bold" font-size="18.00" fill="#000000">sqlpage_files</text>
<text text-anchor="start" x="158.3486" y="-148.3" font-family="Arial" font-size="14.00" fill="#000000">    </text>
<text text-anchor="start" x="192.5534" y="-148.3" font-family="Arial" font-size="14.00" fill="#666666">[table]</text>
<polygon fill="none" stroke="#000000" points="46.5,-105.5 46.5,-135.5 237.5,-135.5 237.5,-105.5 46.5,-105.5"/>
<text text-anchor="start" x="53.5" y="-116.9" font-family="Arial" font-size="14.00" fill="#000000">path </text>
<text text-anchor="start" x="84.629" y="-116.9" font-family="Arial" font-size="14.00" fill="#666666">[TEXT]</text>
<polygon fill="none" stroke="#000000" points="46.5,-75.5 46.5,-105.5 237.5,-105.5 237.5,-75.5 46.5,-75.5"/>
<text text-anchor="start" x="53.5" y="-86.9" font-family="Arial" font-size="14.00" fill="#000000">contents </text>
<text text-anchor="start" x="110.3022" y="-86.9" font-family="Arial" font-size="14.00" fill="#666666">[TEXT]</text>
<polygon fill="none" stroke="#000000" points="46.5,-45.5 46.5,-75.5 237.5,-75.5 237.5,-45.5 46.5,-45.5"/>
<text text-anchor="start" x="53.5" y="-56.9" font-family="Arial" font-size="14.00" fill="#000000">last_modified </text>
<text text-anchor="start" x="139.8478" y="-56.9" font-family="Arial" font-size="14.00" fill="#666666">[TIMESTAMP]</text>
<polygon fill="none" stroke="#000000" stroke-width="3" points="44.5,-44.5 44.5,-172.5 238.5,-172.5 238.5,-44.5 44.5,-44.5"/>
</g>
</g>
</svg>
