<?xml version="1.0" encoding="UTF-8" standalone="no"?>
<!DOCTYPE svg PUBLIC "-//W3C//DTD SVG 1.1//EN"
 "http://www.w3.org/Graphics/SVG/1.1/DTD/svg11.dtd">
<!-- Generated by graphviz version 2.40.1 (20161225.0304)
 -->
<!-- Title: uniform_resource_transform Pages: 1 -->
<svg width="1073pt" height="2093pt"
 viewBox="0.00 0.00 1073.00 2093.00" xmlns="http://www.w3.org/2000/svg" xmlns:xlink="http://www.w3.org/1999/xlink">
<g id="graph0" class="graph" transform="scale(1 1) rotate(0) translate(4 2089)">
<title>uniform_resource_transform</title>
<polygon fill="#ffffff" stroke="transparent" points="-4,4 -4,-2089 1069,-2089 1069,4 -4,4"/>
<!-- uniform_resource_transform -->
<g id="node1" class="node">
<title>uniform_resource_transform</title>
<polygon fill="#efefef" stroke="transparent" points="107.5,-1916.5 107.5,-1951.5 419.5,-1951.5 419.5,-1916.5 107.5,-1916.5"/>
<polygon fill="none" stroke="#000000" points="107.5,-1916.5 107.5,-1951.5 419.5,-1951.5 419.5,-1916.5 107.5,-1916.5"/>
<text text-anchor="start" x="114.3242" y="-1929.3" font-family="Arial Bold" font-size="18.00" fill="#000000">uniform_resource_transform</text>
<text text-anchor="start" x="340.3448" y="-1929.3" font-family="Arial" font-size="14.00" fill="#000000">    </text>
<text text-anchor="start" x="374.5496" y="-1929.3" font-family="Arial" font-size="14.00" fill="#666666">[table]</text>
<polygon fill="none" stroke="#000000" points="107.5,-1886.5 107.5,-1916.5 419.5,-1916.5 419.5,-1886.5 107.5,-1886.5"/>
<text text-anchor="start" x="114.5" y="-1897.9" font-family="Arial" font-size="14.00" fill="#000000">uniform_resource_transform_id </text>
<text text-anchor="start" x="312.8562" y="-1897.9" font-family="Arial" font-size="14.00" fill="#666666">[VARCHAR]</text>
<polygon fill="none" stroke="#000000" points="107.5,-1856.5 107.5,-1886.5 419.5,-1886.5 419.5,-1856.5 107.5,-1856.5"/>
<text text-anchor="start" x="114.5" y="-1867.9" font-family="Arial" font-size="14.00" fill="#000000">uniform_resource_id </text>
<text text-anchor="start" x="245.9628" y="-1867.9" font-family="Arial" font-size="14.00" fill="#666666">[VARCHAR]</text>
<polygon fill="none" stroke="#000000" points="107.5,-1826.5 107.5,-1856.5 419.5,-1856.5 419.5,-1826.5 107.5,-1826.5"/>
<text text-anchor="start" x="114.5" y="-1837.9" font-family="Arial" font-size="14.00" fill="#000000">uri </text>
<text text-anchor="start" x="133.9404" y="-1837.9" font-family="Arial" font-size="14.00" fill="#666666">[TEXT]</text>
<polygon fill="none" stroke="#000000" points="107.5,-1796.5 107.5,-1826.5 419.5,-1826.5 419.5,-1796.5 107.5,-1796.5"/>
<text text-anchor="start" x="114.5" y="-1807.9" font-family="Arial" font-size="14.00" fill="#000000">content_digest </text>
<text text-anchor="start" x="209.4298" y="-1807.9" font-family="Arial" font-size="14.00" fill="#666666">[TEXT]</text>
<polygon fill="none" stroke="#000000" points="107.5,-1766.5 107.5,-1796.5 419.5,-1796.5 419.5,-1766.5 107.5,-1766.5"/>
<text text-anchor="start" x="114.5" y="-1777.9" font-family="Arial" font-size="14.00" fill="#000000">content </text>
<text text-anchor="start" x="164.3022" y="-1777.9" font-family="Arial" font-size="14.00" fill="#666666">[BLOB]</text>
<polygon fill="none" stroke="#000000" points="107.5,-1736.5 107.5,-1766.5 419.5,-1766.5 419.5,-1736.5 107.5,-1736.5"/>
<text text-anchor="start" x="114.5" y="-1747.9" font-family="Arial" font-size="14.00" fill="#000000">nature </text>
<text text-anchor="start" x="158.0722" y="-1747.9" font-family="Arial" font-size="14.00" fill="#666666">[TEXT]</text>
<polygon fill="none" stroke="#000000" points="107.5,-1706.5 107.5,-1736.5 419.5,-1736.5 419.5,-1706.5 107.5,-1706.5"/>
<text text-anchor="start" x="114.5" y="-1717.9" font-family="Arial" font-size="14.00" fill="#000000">size_bytes </text>
<text text-anchor="start" x="184.5182" y="-1717.9" font-family="Arial" font-size="14.00" fill="#666666">[INTEGER]</text>
<polygon fill="none" stroke="#000000" points="107.5,-1676.5 107.5,-1706.5 419.5,-1706.5 419.5,-1676.5 107.5,-1676.5"/>
<text text-anchor="start" x="114.5" y="-1687.9" font-family="Arial" font-size="14.00" fill="#000000">elaboration </text>
<text text-anchor="start" x="187.6332" y="-1687.9" font-family="Arial" font-size="14.00" fill="#666666">[TEXT]</text>
<polygon fill="none" stroke="#000000" points="107.5,-1646.5 107.5,-1676.5 419.5,-1676.5 419.5,-1646.5 107.5,-1646.5"/>
<text text-anchor="start" x="114.5" y="-1657.9" font-family="Arial" font-size="14.00" fill="#000000">created_at </text>
<text text-anchor="start" x="184.528" y="-1657.9" font-family="Arial" font-size="14.00" fill="#666666">[TIMESTAMP]</text>
<polygon fill="none" stroke="#000000" points="107.5,-1616.5 107.5,-1646.5 419.5,-1646.5 419.5,-1616.5 107.5,-1616.5"/>
<text text-anchor="start" x="114.5" y="-1627.9" font-family="Arial" font-size="14.00" fill="#000000">created_by </text>
<text text-anchor="start" x="187.6374" y="-1627.9" font-family="Arial" font-size="14.00" fill="#666666">[TEXT]</text>
<polygon fill="none" stroke="#000000" points="107.5,-1586.5 107.5,-1616.5 419.5,-1616.5 419.5,-1586.5 107.5,-1586.5"/>
<text text-anchor="start" x="114.5" y="-1597.9" font-family="Arial" font-size="14.00" fill="#000000">updated_at </text>
<text text-anchor="start" x="188.4326" y="-1597.9" font-family="Arial" font-size="14.00" fill="#666666">[TIMESTAMP]</text>
<polygon fill="none" stroke="#000000" points="107.5,-1556.5 107.5,-1586.5 419.5,-1586.5 419.5,-1556.5 107.5,-1556.5"/>
<text text-anchor="start" x="114.5" y="-1567.9" font-family="Arial" font-size="14.00" fill="#000000">updated_by </text>
<text text-anchor="start" x="191.542" y="-1567.9" font-family="Arial" font-size="14.00" fill="#666666">[TEXT]</text>
<polygon fill="none" stroke="#000000" points="107.5,-1526.5 107.5,-1556.5 419.5,-1556.5 419.5,-1526.5 107.5,-1526.5"/>
<text text-anchor="start" x="114.5" y="-1537.9" font-family="Arial" font-size="14.00" fill="#000000">deleted_at </text>
<text text-anchor="start" x="183.7566" y="-1537.9" font-family="Arial" font-size="14.00" fill="#666666">[TIMESTAMP]</text>
<polygon fill="none" stroke="#000000" points="107.5,-1496.5 107.5,-1526.5 419.5,-1526.5 419.5,-1496.5 107.5,-1496.5"/>
<text text-anchor="start" x="114.5" y="-1507.9" font-family="Arial" font-size="14.00" fill="#000000">deleted_by </text>
<text text-anchor="start" x="186.866" y="-1507.9" font-family="Arial" font-size="14.00" fill="#666666">[TEXT]</text>
<polygon fill="none" stroke="#000000" points="107.5,-1466.5 107.5,-1496.5 419.5,-1496.5 419.5,-1466.5 107.5,-1466.5"/>
<text text-anchor="start" x="114.5" y="-1477.9" font-family="Arial" font-size="14.00" fill="#000000">activity_log </text>
<text text-anchor="start" x="187.622" y="-1477.9" font-family="Arial" font-size="14.00" fill="#666666">[TEXT]</text>
<polygon fill="none" stroke="#000000" stroke-width="3" points="106,-1465.5 106,-1953.5 421,-1953.5 421,-1465.5 106,-1465.5"/>
</g>
<!-- uniform_resource -->
<g id="node2" class="node">
<title>uniform_resource</title>
<polygon fill="#efefef" stroke="transparent" points="356.5,-1219.5 356.5,-1254.5 607.5,-1254.5 607.5,-1219.5 356.5,-1219.5"/>
<polygon fill="none" stroke="#000000" points="356.5,-1219.5 356.5,-1254.5 607.5,-1254.5 607.5,-1219.5 356.5,-1219.5"/>
<text text-anchor="start" x="375.8271" y="-1232.3" font-family="Arial Bold" font-size="18.00" fill="#000000">uniform_resource</text>
<text text-anchor="start" x="515.8419" y="-1232.3" font-family="Arial" font-size="14.00" fill="#000000">    </text>
<text text-anchor="start" x="550.0467" y="-1232.3" font-family="Arial" font-size="14.00" fill="#666666">[table]</text>
<polygon fill="none" stroke="#000000" points="356.5,-1189.5 356.5,-1219.5 607.5,-1219.5 607.5,-1189.5 356.5,-1189.5"/>
<text text-anchor="start" x="363.0028" y="-1200.9" font-family="Arial" font-size="14.00" fill="#000000">uniform_resource_id    </text>
<text text-anchor="start" x="524.7798" y="-1200.9" font-family="Arial" font-size="14.00" fill="#666666">[VARCHAR]</text>
<polygon fill="none" stroke="#000000" points="356.5,-1159.5 356.5,-1189.5 607.5,-1189.5 607.5,-1159.5 356.5,-1159.5"/>
<text text-anchor="start" x="363.5" y="-1170.9" font-family="Arial" font-size="14.00" fill="#000000">device_id    </text>
<text text-anchor="start" x="456.831" y="-1170.9" font-family="Arial" font-size="14.00" fill="#666666">[VARCHAR]</text>
<polygon fill="none" stroke="#000000" points="356.5,-1129.5 356.5,-1159.5 607.5,-1159.5 607.5,-1129.5 356.5,-1129.5"/>
<text text-anchor="start" x="363.5" y="-1140.9" font-family="Arial" font-size="14.00" fill="#000000">ingest_session_id    </text>
<text text-anchor="start" x="508.9586" y="-1140.9" font-family="Arial" font-size="14.00" fill="#666666">[VARCHAR]</text>
<polygon fill="none" stroke="#000000" points="356.5,-1099.5 356.5,-1129.5 607.5,-1129.5 607.5,-1099.5 356.5,-1099.5"/>
<text text-anchor="start" x="363.5" y="-1110.9" font-family="Arial" font-size="14.00" fill="#000000">ingest_fs_path_id    </text>
<text text-anchor="start" x="507.4158" y="-1110.9" font-family="Arial" font-size="14.00" fill="#666666">[VARCHAR]</text>
<polygon fill="none" stroke="#000000" points="356.5,-1069.5 356.5,-1099.5 607.5,-1099.5 607.5,-1069.5 356.5,-1069.5"/>
<text text-anchor="start" x="363.5" y="-1080.9" font-family="Arial" font-size="14.00" fill="#000000">uri    </text>
<text text-anchor="start" x="413.2546" y="-1080.9" font-family="Arial" font-size="14.00" fill="#666666">[TEXT]</text>
<polygon fill="none" stroke="#000000" points="356.5,-1039.5 356.5,-1069.5 607.5,-1069.5 607.5,-1039.5 356.5,-1039.5"/>
<text text-anchor="start" x="363.5" y="-1050.9" font-family="Arial" font-size="14.00" fill="#000000">content_digest    </text>
<text text-anchor="start" x="488.744" y="-1050.9" font-family="Arial" font-size="14.00" fill="#666666">[TEXT]</text>
<polygon fill="none" stroke="#000000" points="356.5,-1009.5 356.5,-1039.5 607.5,-1039.5 607.5,-1009.5 356.5,-1009.5"/>
<text text-anchor="start" x="363.5" y="-1020.9" font-family="Arial" font-size="14.00" fill="#000000">content    </text>
<text text-anchor="start" x="443.6164" y="-1020.9" font-family="Arial" font-size="14.00" fill="#666666">[BLOB]</text>
<polygon fill="none" stroke="#000000" points="356.5,-979.5 356.5,-1009.5 607.5,-1009.5 607.5,-979.5 356.5,-979.5"/>
<text text-anchor="start" x="363.5" y="-990.9" font-family="Arial" font-size="14.00" fill="#000000">nature    </text>
<text text-anchor="start" x="437.3864" y="-990.9" font-family="Arial" font-size="14.00" fill="#666666">[TEXT]</text>
<polygon fill="none" stroke="#000000" points="356.5,-949.5 356.5,-979.5 607.5,-979.5 607.5,-949.5 356.5,-949.5"/>
<text text-anchor="start" x="363.5" y="-960.9" font-family="Arial" font-size="14.00" fill="#000000">size_bytes    </text>
<text text-anchor="start" x="463.8324" y="-960.9" font-family="Arial" font-size="14.00" fill="#666666">[INTEGER]</text>
<polygon fill="none" stroke="#000000" points="356.5,-919.5 356.5,-949.5 607.5,-949.5 607.5,-919.5 356.5,-919.5"/>
<text text-anchor="start" x="363.5" y="-930.9" font-family="Arial" font-size="14.00" fill="#000000">last_modified_at    </text>
<text text-anchor="start" x="499.6178" y="-930.9" font-family="Arial" font-size="14.00" fill="#666666">[TIMESTAMP]</text>
<polygon fill="none" stroke="#000000" points="356.5,-889.5 356.5,-919.5 607.5,-919.5 607.5,-889.5 356.5,-889.5"/>
<text text-anchor="start" x="363.5" y="-900.9" font-family="Arial" font-size="14.00" fill="#000000">content_fm_body_attrs    </text>
<text text-anchor="start" x="540.0876" y="-900.9" font-family="Arial" font-size="14.00" fill="#666666">[TEXT]</text>
<polygon fill="none" stroke="#000000" points="356.5,-859.5 356.5,-889.5 607.5,-889.5 607.5,-859.5 356.5,-859.5"/>
<text text-anchor="start" x="363.5" y="-870.9" font-family="Arial" font-size="14.00" fill="#000000">frontmatter    </text>
<text text-anchor="start" x="465.3794" y="-870.9" font-family="Arial" font-size="14.00" fill="#666666">[TEXT]</text>
<polygon fill="none" stroke="#000000" points="356.5,-829.5 356.5,-859.5 607.5,-859.5 607.5,-829.5 356.5,-829.5"/>
<text text-anchor="start" x="363.5" y="-840.9" font-family="Arial" font-size="14.00" fill="#000000">elaboration    </text>
<text text-anchor="start" x="466.9474" y="-840.9" font-family="Arial" font-size="14.00" fill="#666666">[TEXT]</text>
<polygon fill="none" stroke="#000000" points="356.5,-799.5 356.5,-829.5 607.5,-829.5 607.5,-799.5 356.5,-799.5"/>
<text text-anchor="start" x="363.5" y="-810.9" font-family="Arial" font-size="14.00" fill="#000000">created_at    </text>
<text text-anchor="start" x="463.8422" y="-810.9" font-family="Arial" font-size="14.00" fill="#666666">[TIMESTAMP]</text>
<polygon fill="none" stroke="#000000" points="356.5,-769.5 356.5,-799.5 607.5,-799.5 607.5,-769.5 356.5,-769.5"/>
<text text-anchor="start" x="363.5" y="-780.9" font-family="Arial" font-size="14.00" fill="#000000">created_by    </text>
<text text-anchor="start" x="466.9516" y="-780.9" font-family="Arial" font-size="14.00" fill="#666666">[TEXT]</text>
<polygon fill="none" stroke="#000000" points="356.5,-739.5 356.5,-769.5 607.5,-769.5 607.5,-739.5 356.5,-739.5"/>
<text text-anchor="start" x="363.5" y="-750.9" font-family="Arial" font-size="14.00" fill="#000000">updated_at    </text>
<text text-anchor="start" x="467.7468" y="-750.9" font-family="Arial" font-size="14.00" fill="#666666">[TIMESTAMP]</text>
<polygon fill="none" stroke="#000000" points="356.5,-709.5 356.5,-739.5 607.5,-739.5 607.5,-709.5 356.5,-709.5"/>
<text text-anchor="start" x="363.5" y="-720.9" font-family="Arial" font-size="14.00" fill="#000000">updated_by    </text>
<text text-anchor="start" x="470.8562" y="-720.9" font-family="Arial" font-size="14.00" fill="#666666">[TEXT]</text>
<polygon fill="none" stroke="#000000" points="356.5,-679.5 356.5,-709.5 607.5,-709.5 607.5,-679.5 356.5,-679.5"/>
<text text-anchor="start" x="363.5" y="-690.9" font-family="Arial" font-size="14.00" fill="#000000">deleted_at    </text>
<text text-anchor="start" x="463.0708" y="-690.9" font-family="Arial" font-size="14.00" fill="#666666">[TIMESTAMP]</text>
<polygon fill="none" stroke="#000000" points="356.5,-649.5 356.5,-679.5 607.5,-679.5 607.5,-649.5 356.5,-649.5"/>
<text text-anchor="start" x="363.5" y="-660.9" font-family="Arial" font-size="14.00" fill="#000000">deleted_by    </text>
<text text-anchor="start" x="466.1802" y="-660.9" font-family="Arial" font-size="14.00" fill="#666666">[TEXT]</text>
<polygon fill="none" stroke="#000000" points="356.5,-619.5 356.5,-649.5 607.5,-649.5 607.5,-619.5 356.5,-619.5"/>
<text text-anchor="start" x="363.5" y="-630.9" font-family="Arial" font-size="14.00" fill="#000000">activity_log    </text>
<text text-anchor="start" x="466.9362" y="-630.9" font-family="Arial" font-size="14.00" fill="#666666">[TEXT]</text>
</g>
<!-- uniform_resource_transform&#45;&gt;uniform_resource -->
<g id="edge1" class="edge">
<title>uniform_resource_transform:uniform_resource_id&#45;&gt;uniform_resource:uniform_resource_id</title>
<path fill="none" stroke="#000000" d="M429.6705,-1870.1454C514.1423,-1846.3113 442.1253,-1514.8038 419.5,-1421 396.0025,-1323.5804 256.2866,-1204.5 356.5,-1204.5"/>
<polygon fill="#000000" stroke="#000000" points="429.4125,-1870.1797 418.9059,-1867.0394 424.4562,-1870.8398 419.5,-1871.5 419.5,-1871.5 419.5,-1871.5 424.4562,-1870.8398 420.0941,-1875.9606 429.4125,-1870.1797 429.4125,-1870.1797"/>
</g>
<!-- device -->
<g id="node4" class="node">
<title>device</title>
<polygon fill="#efefef" stroke="transparent" points="43.5,-462.5 43.5,-497.5 250.5,-497.5 250.5,-462.5 43.5,-462.5"/>
<polygon fill="none" stroke="#000000" points="43.5,-462.5 43.5,-497.5 250.5,-497.5 250.5,-462.5 43.5,-462.5"/>
<text text-anchor="start" x="84.8281" y="-475.3" font-family="Arial Bold" font-size="18.00" fill="#000000">device</text>
<text text-anchor="start" x="136.8409" y="-475.3" font-family="Arial" font-size="14.00" fill="#000000">    </text>
<text text-anchor="start" x="171.0457" y="-475.3" font-family="Arial" font-size="14.00" fill="#666666">[table]</text>
<polygon fill="none" stroke="#000000" points="43.5,-432.5 43.5,-462.5 250.5,-462.5 250.5,-432.5 43.5,-432.5"/>
<text text-anchor="start" x="50.5" y="-443.9" font-family="Arial" font-size="14.00" fill="#000000">device_id    </text>
<text text-anchor="start" x="143.831" y="-443.9" font-family="Arial" font-size="14.00" fill="#666666">[VARCHAR]</text>
<polygon fill="none" stroke="#000000" points="43.5,-402.5 43.5,-432.5 250.5,-432.5 250.5,-402.5 43.5,-402.5"/>
<text text-anchor="start" x="50.5" y="-413.9" font-family="Arial" font-size="14.00" fill="#000000">name    </text>
<text text-anchor="start" x="119.7132" y="-413.9" font-family="Arial" font-size="14.00" fill="#666666">[TEXT]</text>
<polygon fill="none" stroke="#000000" points="43.5,-372.5 43.5,-402.5 250.5,-402.5 250.5,-372.5 43.5,-372.5"/>
<text text-anchor="start" x="50.5" y="-383.9" font-family="Arial" font-size="14.00" fill="#000000">state    </text>
<text text-anchor="start" x="115.0512" y="-383.9" font-family="Arial" font-size="14.00" fill="#666666">[TEXT]</text>
<polygon fill="none" stroke="#000000" points="43.5,-342.5 43.5,-372.5 250.5,-372.5 250.5,-342.5 43.5,-342.5"/>
<text text-anchor="start" x="50.5" y="-353.9" font-family="Arial" font-size="14.00" fill="#000000">boundary    </text>
<text text-anchor="start" x="143.061" y="-353.9" font-family="Arial" font-size="14.00" fill="#666666">[TEXT]</text>
<polygon fill="none" stroke="#000000" points="43.5,-312.5 43.5,-342.5 250.5,-342.5 250.5,-312.5 43.5,-312.5"/>
<text text-anchor="start" x="50.5" y="-323.9" font-family="Arial" font-size="14.00" fill="#000000">segmentation    </text>
<text text-anchor="start" x="168.7314" y="-323.9" font-family="Arial" font-size="14.00" fill="#666666">[TEXT]</text>
<polygon fill="none" stroke="#000000" points="43.5,-282.5 43.5,-312.5 250.5,-312.5 250.5,-282.5 43.5,-282.5"/>
<text text-anchor="start" x="50.5" y="-293.9" font-family="Arial" font-size="14.00" fill="#000000">state_sysinfo    </text>
<text text-anchor="start" x="166.3962" y="-293.9" font-family="Arial" font-size="14.00" fill="#666666">[TEXT]</text>
<polygon fill="none" stroke="#000000" points="43.5,-252.5 43.5,-282.5 250.5,-282.5 250.5,-252.5 43.5,-252.5"/>
<text text-anchor="start" x="50.5" y="-263.9" font-family="Arial" font-size="14.00" fill="#000000">elaboration    </text>
<text text-anchor="start" x="153.9474" y="-263.9" font-family="Arial" font-size="14.00" fill="#666666">[TEXT]</text>
<polygon fill="none" stroke="#000000" points="43.5,-222.5 43.5,-252.5 250.5,-252.5 250.5,-222.5 43.5,-222.5"/>
<text text-anchor="start" x="50.5" y="-233.9" font-family="Arial" font-size="14.00" fill="#000000">created_at    </text>
<text text-anchor="start" x="150.8422" y="-233.9" font-family="Arial" font-size="14.00" fill="#666666">[TIMESTAMP]</text>
<polygon fill="none" stroke="#000000" points="43.5,-192.5 43.5,-222.5 250.5,-222.5 250.5,-192.5 43.5,-192.5"/>
<text text-anchor="start" x="50.5" y="-203.9" font-family="Arial" font-size="14.00" fill="#000000">created_by    </text>
<text text-anchor="start" x="153.9516" y="-203.9" font-family="Arial" font-size="14.00" fill="#666666">[TEXT]</text>
<polygon fill="none" stroke="#000000" points="43.5,-162.5 43.5,-192.5 250.5,-192.5 250.5,-162.5 43.5,-162.5"/>
<text text-anchor="start" x="50.1543" y="-173.9" font-family="Arial" font-size="14.00" fill="#000000">updated_at    </text>
<text text-anchor="start" x="154.4011" y="-173.9" font-family="Arial" font-size="14.00" fill="#666666">[TIMESTAMP]</text>
<polygon fill="none" stroke="#000000" points="43.5,-132.5 43.5,-162.5 250.5,-162.5 250.5,-132.5 43.5,-132.5"/>
<text text-anchor="start" x="50.5" y="-143.9" font-family="Arial" font-size="14.00" fill="#000000">updated_by    </text>
<text text-anchor="start" x="157.8562" y="-143.9" font-family="Arial" font-size="14.00" fill="#666666">[TEXT]</text>
<polygon fill="none" stroke="#000000" points="43.5,-102.5 43.5,-132.5 250.5,-132.5 250.5,-102.5 43.5,-102.5"/>
<text text-anchor="start" x="50.5" y="-113.9" font-family="Arial" font-size="14.00" fill="#000000">deleted_at    </text>
<text text-anchor="start" x="150.0708" y="-113.9" font-family="Arial" font-size="14.00" fill="#666666">[TIMESTAMP]</text>
<polygon fill="none" stroke="#000000" points="43.5,-72.5 43.5,-102.5 250.5,-102.5 250.5,-72.5 43.5,-72.5"/>
<text text-anchor="start" x="50.5" y="-83.9" font-family="Arial" font-size="14.00" fill="#000000">deleted_by    </text>
<text text-anchor="start" x="153.1802" y="-83.9" font-family="Arial" font-size="14.00" fill="#666666">[TEXT]</text>
<polygon fill="none" stroke="#000000" points="43.5,-42.5 43.5,-72.5 250.5,-72.5 250.5,-42.5 43.5,-42.5"/>
<text text-anchor="start" x="50.5" y="-53.9" font-family="Arial" font-size="14.00" fill="#000000">activity_log    </text>
<text text-anchor="start" x="153.9362" y="-53.9" font-family="Arial" font-size="14.00" fill="#666666">[TEXT]</text>
</g>
<!-- uniform_resource&#45;&gt;device -->
<g id="edge3" class="edge">
<title>uniform_resource:device_id&#45;&gt;device:device_id</title>
<path fill="none" stroke="#000000" d="M347.1373,-1170.9313C279.3319,-1116.0863 328.7837,-447.5 250.5,-447.5"/>
<polygon fill="#000000" stroke="#000000" points="347.1558,-1170.9383 354.8972,-1178.7049 351.8279,-1172.7191 356.5,-1174.5 356.5,-1174.5 356.5,-1174.5 351.8279,-1172.7191 358.1028,-1170.2951 347.1558,-1170.9383 347.1558,-1170.9383"/>
</g>
<!-- ur_ingest_session -->
<g id="node5" class="node">
<title>ur_ingest_session</title>
<polygon fill="#efefef" stroke="transparent" points="354.5,-462.5 354.5,-497.5 609.5,-497.5 609.5,-462.5 354.5,-462.5"/>
<polygon fill="none" stroke="#000000" points="354.5,-462.5 354.5,-497.5 609.5,-497.5 609.5,-462.5 354.5,-462.5"/>
<text text-anchor="start" x="373.3152" y="-475.3" font-family="Arial Bold" font-size="18.00" fill="#000000">ur_ingest_session</text>
<text text-anchor="start" x="518.3538" y="-475.3" font-family="Arial" font-size="14.00" fill="#000000">    </text>
<text text-anchor="start" x="552.5586" y="-475.3" font-family="Arial" font-size="14.00" fill="#666666">[table]</text>
<polygon fill="none" stroke="#000000" points="354.5,-432.5 354.5,-462.5 609.5,-462.5 609.5,-432.5 354.5,-432.5"/>
<text text-anchor="start" x="361.0491" y="-443.9" font-family="Arial" font-size="14.00" fill="#000000">ur_ingest_session_id    </text>
<text text-anchor="start" x="526.7335" y="-443.9" font-family="Arial" font-size="14.00" fill="#666666">[VARCHAR]</text>
<polygon fill="none" stroke="#000000" points="354.5,-402.5 354.5,-432.5 609.5,-432.5 609.5,-402.5 354.5,-402.5"/>
<text text-anchor="start" x="361.5" y="-413.9" font-family="Arial" font-size="14.00" fill="#000000">device_id    </text>
<text text-anchor="start" x="454.831" y="-413.9" font-family="Arial" font-size="14.00" fill="#666666">[VARCHAR]</text>
<polygon fill="none" stroke="#000000" points="354.5,-372.5 354.5,-402.5 609.5,-402.5 609.5,-372.5 354.5,-372.5"/>
<text text-anchor="start" x="361.5" y="-383.9" font-family="Arial" font-size="14.00" fill="#000000">behavior_id    </text>
<text text-anchor="start" x="468.0568" y="-383.9" font-family="Arial" font-size="14.00" fill="#666666">[VARCHAR]</text>
<polygon fill="none" stroke="#000000" points="354.5,-342.5 354.5,-372.5 609.5,-372.5 609.5,-342.5 354.5,-342.5"/>
<text text-anchor="start" x="361.5" y="-353.9" font-family="Arial" font-size="14.00" fill="#000000">behavior_json    </text>
<text text-anchor="start" x="482.8394" y="-353.9" font-family="Arial" font-size="14.00" fill="#666666">[TEXT]</text>
<polygon fill="none" stroke="#000000" points="354.5,-312.5 354.5,-342.5 609.5,-342.5 609.5,-312.5 354.5,-312.5"/>
<text text-anchor="start" x="361.5" y="-323.9" font-family="Arial" font-size="14.00" fill="#000000">ingest_started_at    </text>
<text text-anchor="start" x="503.0778" y="-323.9" font-family="Arial" font-size="14.00" fill="#666666">[TIMESTAMP]</text>
<polygon fill="none" stroke="#000000" points="354.5,-282.5 354.5,-312.5 609.5,-312.5 609.5,-282.5 354.5,-282.5"/>
<text text-anchor="start" x="361.5" y="-293.9" font-family="Arial" font-size="14.00" fill="#000000">ingest_finished_at    </text>
<text text-anchor="start" x="508.5224" y="-293.9" font-family="Arial" font-size="14.00" fill="#666666">[TIMESTAMP]</text>
<polygon fill="none" stroke="#000000" points="354.5,-252.5 354.5,-282.5 609.5,-282.5 609.5,-252.5 354.5,-252.5"/>
<text text-anchor="start" x="361.5" y="-263.9" font-family="Arial" font-size="14.00" fill="#000000">elaboration    </text>
<text text-anchor="start" x="464.9474" y="-263.9" font-family="Arial" font-size="14.00" fill="#666666">[TEXT]</text>
<polygon fill="none" stroke="#000000" points="354.5,-222.5 354.5,-252.5 609.5,-252.5 609.5,-222.5 354.5,-222.5"/>
<text text-anchor="start" x="361.5" y="-233.9" font-family="Arial" font-size="14.00" fill="#000000">created_at    </text>
<text text-anchor="start" x="461.8422" y="-233.9" font-family="Arial" font-size="14.00" fill="#666666">[TIMESTAMP]</text>
<polygon fill="none" stroke="#000000" points="354.5,-192.5 354.5,-222.5 609.5,-222.5 609.5,-192.5 354.5,-192.5"/>
<text text-anchor="start" x="361.5" y="-203.9" font-family="Arial" font-size="14.00" fill="#000000">created_by    </text>
<text text-anchor="start" x="464.9516" y="-203.9" font-family="Arial" font-size="14.00" fill="#666666">[TEXT]</text>
<polygon fill="none" stroke="#000000" points="354.5,-162.5 354.5,-192.5 609.5,-192.5 609.5,-162.5 354.5,-162.5"/>
<text text-anchor="start" x="361.5" y="-173.9" font-family="Arial" font-size="14.00" fill="#000000">updated_at    </text>
<text text-anchor="start" x="465.7468" y="-173.9" font-family="Arial" font-size="14.00" fill="#666666">[TIMESTAMP]</text>
<polygon fill="none" stroke="#000000" points="354.5,-132.5 354.5,-162.5 609.5,-162.5 609.5,-132.5 354.5,-132.5"/>
<text text-anchor="start" x="361.5" y="-143.9" font-family="Arial" font-size="14.00" fill="#000000">updated_by    </text>
<text text-anchor="start" x="468.8562" y="-143.9" font-family="Arial" font-size="14.00" fill="#666666">[TEXT]</text>
<polygon fill="none" stroke="#000000" points="354.5,-102.5 354.5,-132.5 609.5,-132.5 609.5,-102.5 354.5,-102.5"/>
<text text-anchor="start" x="361.5" y="-113.9" font-family="Arial" font-size="14.00" fill="#000000">deleted_at    </text>
<text text-anchor="start" x="461.0708" y="-113.9" font-family="Arial" font-size="14.00" fill="#666666">[TIMESTAMP]</text>
<polygon fill="none" stroke="#000000" points="354.5,-72.5 354.5,-102.5 609.5,-102.5 609.5,-72.5 354.5,-72.5"/>
<text text-anchor="start" x="361.5" y="-83.9" font-family="Arial" font-size="14.00" fill="#000000">deleted_by    </text>
<text text-anchor="start" x="464.1802" y="-83.9" font-family="Arial" font-size="14.00" fill="#666666">[TEXT]</text>
<polygon fill="none" stroke="#000000" points="354.5,-42.5 354.5,-72.5 609.5,-72.5 609.5,-42.5 354.5,-42.5"/>
<text text-anchor="start" x="361.5" y="-53.9" font-family="Arial" font-size="14.00" fill="#000000">activity_log    </text>
<text text-anchor="start" x="464.9362" y="-53.9" font-family="Arial" font-size="14.00" fill="#666666">[TEXT]</text>
</g>
<!-- uniform_resource&#45;&gt;ur_ingest_session -->
<g id="edge4" class="edge">
<title>uniform_resource:ingest_session_id&#45;&gt;ur_ingest_session:ur_ingest_session_id</title>
<path fill="none" stroke="#000000" d="M346.9351,-1140.7499C279.03,-1085.8884 280.3829,-447.5 354.5,-447.5"/>
<polygon fill="#000000" stroke="#000000" points="347.19,-1140.8498 354.8574,-1148.6895 351.845,-1142.6749 356.5,-1144.5 356.5,-1144.5 356.5,-1144.5 351.845,-1142.6749 358.1426,-1140.3105 347.19,-1140.8498 347.19,-1140.8498"/>
</g>
<!-- ur_ingest_session_fs_path -->
<g id="node6" class="node">
<title>ur_ingest_session_fs_path</title>
<polygon fill="#efefef" stroke="transparent" points="713.5,-417.5 713.5,-452.5 1022.5,-452.5 1022.5,-417.5 713.5,-417.5"/>
<polygon fill="none" stroke="#000000" points="713.5,-417.5 713.5,-452.5 1022.5,-452.5 1022.5,-417.5 713.5,-417.5"/>
<text text-anchor="start" x="724.7975" y="-430.3" font-family="Arial Bold" font-size="18.00" fill="#000000">ur_ingest_session_fs_path</text>
<text text-anchor="start" x="938.8715" y="-430.3" font-family="Arial" font-size="14.00" fill="#000000">    </text>
<text text-anchor="start" x="973.0763" y="-430.3" font-family="Arial" font-size="14.00" fill="#666666">[table]</text>
<polygon fill="none" stroke="#000000" points="713.5,-387.5 713.5,-417.5 1022.5,-417.5 1022.5,-387.5 713.5,-387.5"/>
<text text-anchor="start" x="720.202" y="-398.9" font-family="Arial" font-size="14.00" fill="#000000">ur_ingest_session_fs_path_id    </text>
<text text-anchor="start" x="939.5806" y="-398.9" font-family="Arial" font-size="14.00" fill="#666666">[VARCHAR]</text>
<polygon fill="none" stroke="#000000" points="713.5,-357.5 713.5,-387.5 1022.5,-387.5 1022.5,-357.5 713.5,-357.5"/>
<text text-anchor="start" x="720.5" y="-368.9" font-family="Arial" font-size="14.00" fill="#000000">ingest_session_id    </text>
<text text-anchor="start" x="865.9586" y="-368.9" font-family="Arial" font-size="14.00" fill="#666666">[VARCHAR]</text>
<polygon fill="none" stroke="#000000" points="713.5,-327.5 713.5,-357.5 1022.5,-357.5 1022.5,-327.5 713.5,-327.5"/>
<text text-anchor="start" x="720.5" y="-338.9" font-family="Arial" font-size="14.00" fill="#000000">root_path    </text>
<text text-anchor="start" x="813.8422" y="-338.9" font-family="Arial" font-size="14.00" fill="#666666">[TEXT]</text>
<polygon fill="none" stroke="#000000" points="713.5,-297.5 713.5,-327.5 1022.5,-327.5 1022.5,-297.5 713.5,-297.5"/>
<text text-anchor="start" x="720.5" y="-308.9" font-family="Arial" font-size="14.00" fill="#000000">elaboration    </text>
<text text-anchor="start" x="823.9474" y="-308.9" font-family="Arial" font-size="14.00" fill="#666666">[TEXT]</text>
<polygon fill="none" stroke="#000000" points="713.5,-267.5 713.5,-297.5 1022.5,-297.5 1022.5,-267.5 713.5,-267.5"/>
<text text-anchor="start" x="720.5" y="-278.9" font-family="Arial" font-size="14.00" fill="#000000">created_at    </text>
<text text-anchor="start" x="820.8422" y="-278.9" font-family="Arial" font-size="14.00" fill="#666666">[TIMESTAMP]</text>
<polygon fill="none" stroke="#000000" points="713.5,-237.5 713.5,-267.5 1022.5,-267.5 1022.5,-237.5 713.5,-237.5"/>
<text text-anchor="start" x="720.5" y="-248.9" font-family="Arial" font-size="14.00" fill="#000000">created_by    </text>
<text text-anchor="start" x="823.9516" y="-248.9" font-family="Arial" font-size="14.00" fill="#666666">[TEXT]</text>
<polygon fill="none" stroke="#000000" points="713.5,-207.5 713.5,-237.5 1022.5,-237.5 1022.5,-207.5 713.5,-207.5"/>
<text text-anchor="start" x="720.5" y="-218.9" font-family="Arial" font-size="14.00" fill="#000000">updated_at    </text>
<text text-anchor="start" x="824.7468" y="-218.9" font-family="Arial" font-size="14.00" fill="#666666">[TIMESTAMP]</text>
<polygon fill="none" stroke="#000000" points="713.5,-177.5 713.5,-207.5 1022.5,-207.5 1022.5,-177.5 713.5,-177.5"/>
<text text-anchor="start" x="720.5" y="-188.9" font-family="Arial" font-size="14.00" fill="#000000">updated_by    </text>
<text text-anchor="start" x="827.8562" y="-188.9" font-family="Arial" font-size="14.00" fill="#666666">[TEXT]</text>
<polygon fill="none" stroke="#000000" points="713.5,-147.5 713.5,-177.5 1022.5,-177.5 1022.5,-147.5 713.5,-147.5"/>
<text text-anchor="start" x="720.5" y="-158.9" font-family="Arial" font-size="14.00" fill="#000000">deleted_at    </text>
<text text-anchor="start" x="820.0708" y="-158.9" font-family="Arial" font-size="14.00" fill="#666666">[TIMESTAMP]</text>
<polygon fill="none" stroke="#000000" points="713.5,-117.5 713.5,-147.5 1022.5,-147.5 1022.5,-117.5 713.5,-117.5"/>
<text text-anchor="start" x="720.5" y="-128.9" font-family="Arial" font-size="14.00" fill="#000000">deleted_by    </text>
<text text-anchor="start" x="823.1802" y="-128.9" font-family="Arial" font-size="14.00" fill="#666666">[TEXT]</text>
<polygon fill="none" stroke="#000000" points="713.5,-87.5 713.5,-117.5 1022.5,-117.5 1022.5,-87.5 713.5,-87.5"/>
<text text-anchor="start" x="720.5" y="-98.9" font-family="Arial" font-size="14.00" fill="#000000">activity_log    </text>
<text text-anchor="start" x="823.9362" y="-98.9" font-family="Arial" font-size="14.00" fill="#666666">[TEXT]</text>
</g>
<!-- uniform_resource&#45;&gt;ur_ingest_session_fs_path -->
<g id="edge5" class="edge">
<title>uniform_resource:ingest_fs_path_id&#45;&gt;ur_ingest_session_fs_path:ur_ingest_session_fs_path_id</title>
<path fill="none" stroke="#000000" d="M617.0896,-1110.6692C683.0926,-1054.6271 636.9537,-402.5 713.5,-402.5"/>
<polygon fill="#000000" stroke="#000000" points="616.7865,-1110.7903 605.8306,-1110.3211 612.1432,-1112.6451 607.5,-1114.5 607.5,-1114.5 607.5,-1114.5 612.1432,-1112.6451 609.1694,-1118.6789 616.7865,-1110.7903 616.7865,-1110.7903"/>
</g>
<!-- ur_ingest_session_fs_path_entry -->
<g id="node3" class="node">
<title>ur_ingest_session_fs_path_entry</title>
<polygon fill="#efefef" stroke="transparent" points="526.5,-2006.5 526.5,-2041.5 876.5,-2041.5 876.5,-2006.5 526.5,-2006.5"/>
<polygon fill="none" stroke="#000000" points="526.5,-2006.5 526.5,-2041.5 876.5,-2041.5 876.5,-2006.5 526.5,-2006.5"/>
<text text-anchor="start" x="533.291" y="-2019.3" font-family="Arial Bold" font-size="18.00" fill="#000000">ur_ingest_session_fs_path_entry</text>
<text text-anchor="start" x="797.378" y="-2019.3" font-family="Arial" font-size="14.00" fill="#000000">    </text>
<text text-anchor="start" x="831.5828" y="-2019.3" font-family="Arial" font-size="14.00" fill="#666666">[table]</text>
<polygon fill="none" stroke="#000000" points="526.5,-1976.5 526.5,-2006.5 876.5,-2006.5 876.5,-1976.5 526.5,-1976.5"/>
<text text-anchor="start" x="533.5" y="-1987.9" font-family="Arial" font-size="14.00" fill="#000000">ur_ingest_session_fs_path_entry_id    </text>
<text text-anchor="start" x="791.7776" y="-1987.9" font-family="Arial" font-size="14.00" fill="#666666">[VARCHAR]</text>
<polygon fill="none" stroke="#000000" points="526.5,-1946.5 526.5,-1976.5 876.5,-1976.5 876.5,-1946.5 526.5,-1946.5"/>
<text text-anchor="start" x="533.5" y="-1957.9" font-family="Arial" font-size="14.00" fill="#000000">ingest_session_id    </text>
<text text-anchor="start" x="678.9586" y="-1957.9" font-family="Arial" font-size="14.00" fill="#666666">[VARCHAR]</text>
<polygon fill="none" stroke="#000000" points="526.5,-1916.5 526.5,-1946.5 876.5,-1946.5 876.5,-1916.5 526.5,-1916.5"/>
<text text-anchor="start" x="533.5" y="-1927.9" font-family="Arial" font-size="14.00" fill="#000000">ingest_fs_path_id    </text>
<text text-anchor="start" x="677.4158" y="-1927.9" font-family="Arial" font-size="14.00" fill="#666666">[VARCHAR]</text>
<polygon fill="none" stroke="#000000" points="526.5,-1886.5 526.5,-1916.5 876.5,-1916.5 876.5,-1886.5 526.5,-1886.5"/>
<text text-anchor="start" x="533.5" y="-1897.9" font-family="Arial" font-size="14.00" fill="#000000">uniform_resource_id    </text>
<text text-anchor="start" x="695.277" y="-1897.9" font-family="Arial" font-size="14.00" fill="#666666">[VARCHAR]</text>
<polygon fill="none" stroke="#000000" points="526.5,-1856.5 526.5,-1886.5 876.5,-1886.5 876.5,-1856.5 526.5,-1856.5"/>
<text text-anchor="start" x="533.5" y="-1867.9" font-family="Arial" font-size="14.00" fill="#000000">file_path_abs    </text>
<text text-anchor="start" x="650.96" y="-1867.9" font-family="Arial" font-size="14.00" fill="#666666">[TEXT]</text>
<polygon fill="none" stroke="#000000" points="526.5,-1826.5 526.5,-1856.5 876.5,-1856.5 876.5,-1826.5 526.5,-1826.5"/>
<text text-anchor="start" x="533.5" y="-1837.9" font-family="Arial" font-size="14.00" fill="#000000">file_path_rel_parent    </text>
<text text-anchor="start" x="691.4088" y="-1837.9" font-family="Arial" font-size="14.00" fill="#666666">[TEXT]</text>
<polygon fill="none" stroke="#000000" points="526.5,-1796.5 526.5,-1826.5 876.5,-1826.5 876.5,-1796.5 526.5,-1796.5"/>
<text text-anchor="start" x="533.5" y="-1807.9" font-family="Arial" font-size="14.00" fill="#000000">file_path_rel    </text>
<text text-anchor="start" x="643.9446" y="-1807.9" font-family="Arial" font-size="14.00" fill="#666666">[TEXT]</text>
<polygon fill="none" stroke="#000000" points="526.5,-1766.5 526.5,-1796.5 876.5,-1796.5 876.5,-1766.5 526.5,-1766.5"/>
<text text-anchor="start" x="533.5" y="-1777.9" font-family="Arial" font-size="14.00" fill="#000000">file_basename    </text>
<text text-anchor="start" x="658.73" y="-1777.9" font-family="Arial" font-size="14.00" fill="#666666">[TEXT]</text>
<polygon fill="none" stroke="#000000" points="526.5,-1736.5 526.5,-1766.5 876.5,-1766.5 876.5,-1736.5 526.5,-1736.5"/>
<text text-anchor="start" x="533.5" y="-1747.9" font-family="Arial" font-size="14.00" fill="#000000">file_extn    </text>
<text text-anchor="start" x="619.8296" y="-1747.9" font-family="Arial" font-size="14.00" fill="#666666">[TEXT]</text>
<polygon fill="none" stroke="#000000" points="526.5,-1706.5 526.5,-1736.5 876.5,-1736.5 876.5,-1706.5 526.5,-1706.5"/>
<text text-anchor="start" x="533.5" y="-1717.9" font-family="Arial" font-size="14.00" fill="#000000">captured_executable    </text>
<text text-anchor="start" x="697.6444" y="-1717.9" font-family="Arial" font-size="14.00" fill="#666666">[TEXT]</text>
<polygon fill="none" stroke="#000000" points="526.5,-1676.5 526.5,-1706.5 876.5,-1706.5 876.5,-1676.5 526.5,-1676.5"/>
<text text-anchor="start" x="533.5" y="-1687.9" font-family="Arial" font-size="14.00" fill="#000000">ur_status    </text>
<text text-anchor="start" x="625.277" y="-1687.9" font-family="Arial" font-size="14.00" fill="#666666">[TEXT]</text>
<polygon fill="none" stroke="#000000" points="526.5,-1646.5 526.5,-1676.5 876.5,-1676.5 876.5,-1646.5 526.5,-1646.5"/>
<text text-anchor="start" x="533.5" y="-1657.9" font-family="Arial" font-size="14.00" fill="#000000">ur_diagnostics    </text>
<text text-anchor="start" x="657.9474" y="-1657.9" font-family="Arial" font-size="14.00" fill="#666666">[TEXT]</text>
<polygon fill="none" stroke="#000000" points="526.5,-1616.5 526.5,-1646.5 876.5,-1646.5 876.5,-1616.5 526.5,-1616.5"/>
<text text-anchor="start" x="533.5" y="-1627.9" font-family="Arial" font-size="14.00" fill="#000000">ur_transformations    </text>
<text text-anchor="start" x="684.3864" y="-1627.9" font-family="Arial" font-size="14.00" fill="#666666">[TEXT]</text>
<polygon fill="none" stroke="#000000" points="526.5,-1586.5 526.5,-1616.5 876.5,-1616.5 876.5,-1586.5 526.5,-1586.5"/>
<text text-anchor="start" x="533.5" y="-1597.9" font-family="Arial" font-size="14.00" fill="#000000">elaboration    </text>
<text text-anchor="start" x="636.9474" y="-1597.9" font-family="Arial" font-size="14.00" fill="#666666">[TEXT]</text>
<polygon fill="none" stroke="#000000" points="526.5,-1556.5 526.5,-1586.5 876.5,-1586.5 876.5,-1556.5 526.5,-1556.5"/>
<text text-anchor="start" x="533.5" y="-1567.9" font-family="Arial" font-size="14.00" fill="#000000">created_at    </text>
<text text-anchor="start" x="633.8422" y="-1567.9" font-family="Arial" font-size="14.00" fill="#666666">[TIMESTAMP]</text>
<polygon fill="none" stroke="#000000" points="526.5,-1526.5 526.5,-1556.5 876.5,-1556.5 876.5,-1526.5 526.5,-1526.5"/>
<text text-anchor="start" x="533.5" y="-1537.9" font-family="Arial" font-size="14.00" fill="#000000">created_by    </text>
<text text-anchor="start" x="636.9516" y="-1537.9" font-family="Arial" font-size="14.00" fill="#666666">[TEXT]</text>
<polygon fill="none" stroke="#000000" points="526.5,-1496.5 526.5,-1526.5 876.5,-1526.5 876.5,-1496.5 526.5,-1496.5"/>
<text text-anchor="start" x="533.5" y="-1507.9" font-family="Arial" font-size="14.00" fill="#000000">updated_at    </text>
<text text-anchor="start" x="637.7468" y="-1507.9" font-family="Arial" font-size="14.00" fill="#666666">[TIMESTAMP]</text>
<polygon fill="none" stroke="#000000" points="526.5,-1466.5 526.5,-1496.5 876.5,-1496.5 876.5,-1466.5 526.5,-1466.5"/>
<text text-anchor="start" x="533.5" y="-1477.9" font-family="Arial" font-size="14.00" fill="#000000">updated_by    </text>
<text text-anchor="start" x="640.8562" y="-1477.9" font-family="Arial" font-size="14.00" fill="#666666">[TEXT]</text>
<polygon fill="none" stroke="#000000" points="526.5,-1436.5 526.5,-1466.5 876.5,-1466.5 876.5,-1436.5 526.5,-1436.5"/>
<text text-anchor="start" x="533.5" y="-1447.9" font-family="Arial" font-size="14.00" fill="#000000">deleted_at    </text>
<text text-anchor="start" x="633.0708" y="-1447.9" font-family="Arial" font-size="14.00" fill="#666666">[TIMESTAMP]</text>
<polygon fill="none" stroke="#000000" points="526.5,-1406.5 526.5,-1436.5 876.5,-1436.5 876.5,-1406.5 526.5,-1406.5"/>
<text text-anchor="start" x="533.5" y="-1417.9" font-family="Arial" font-size="14.00" fill="#000000">deleted_by    </text>
<text text-anchor="start" x="636.1802" y="-1417.9" font-family="Arial" font-size="14.00" fill="#666666">[TEXT]</text>
<polygon fill="none" stroke="#000000" points="526.5,-1376.5 526.5,-1406.5 876.5,-1406.5 876.5,-1376.5 526.5,-1376.5"/>
<text text-anchor="start" x="533.5" y="-1387.9" font-family="Arial" font-size="14.00" fill="#000000">activity_log    </text>
<text text-anchor="start" x="636.9362" y="-1387.9" font-family="Arial" font-size="14.00" fill="#666666">[TEXT]</text>
</g>
<!-- ur_ingest_session_fs_path_entry&#45;&gt;uniform_resource -->
<g id="edge2" class="edge">
<title>ur_ingest_session_fs_path_entry:uniform_resource_id&#45;&gt;uniform_resource:uniform_resource_id</title>
<path fill="none" stroke="#000000" d="M517.2772,-1897.3498C466.4867,-1848.5069 493.9521,-1384.0834 526.5,-1334 547.9671,-1300.9672 586.0329,-1331.0328 607.5,-1298 630.1442,-1263.156 649.0556,-1204.5 607.5,-1204.5"/>
<polygon fill="#000000" stroke="#000000" points="517.3808,-1897.3963 524.6533,-1905.6037 521.9404,-1899.4482 526.5,-1901.5 526.5,-1901.5 526.5,-1901.5 521.9404,-1899.4482 528.3467,-1897.3963 517.3808,-1897.3963 517.3808,-1897.3963"/>
</g>
</g>
</svg>
