<?xml version="1.0" encoding="UTF-8" standalone="no"?>
<!DOCTYPE svg PUBLIC "-//W3C//DTD SVG 1.1//EN"
 "http://www.w3.org/Graphics/SVG/1.1/DTD/svg11.dtd">
<!-- Generated by graphviz version 2.40.1 (20161225.0304)
 -->
<!-- Title: uniform_resource Pages: 1 -->
<svg width="728pt" height="3650pt"
 viewBox="0.00 0.00 728.10 3650.00" xmlns="http://www.w3.org/2000/svg" xmlns:xlink="http://www.w3.org/1999/xlink">
<g id="graph0" class="graph" transform="scale(1 1) rotate(0) translate(4 3646)">
<title>uniform_resource</title>
<polygon fill="#ffffff" stroke="transparent" points="-4,4 -4,-3646 724.098,-3646 724.098,4 -4,4"/>
<!-- uniform_resource -->
<g id="node1" class="node">
<title>uniform_resource</title>
<polygon fill="#efefef" stroke="transparent" points="120.5431,-2833.5 120.5431,-2868.5 346.5431,-2868.5 346.5431,-2833.5 120.5431,-2833.5"/>
<polygon fill="none" stroke="#000000" points="120.5431,-2833.5 120.5431,-2868.5 346.5431,-2868.5 346.5431,-2833.5 120.5431,-2833.5"/>
<text text-anchor="start" x="127.3702" y="-2846.3" font-family="Arial Bold" font-size="18.00" fill="#000000">uniform_resource</text>
<text text-anchor="start" x="267.385" y="-2846.3" font-family="Arial" font-size="14.00" fill="#000000">    </text>
<text text-anchor="start" x="301.5898" y="-2846.3" font-family="Arial" font-size="14.00" fill="#666666">[table]</text>
<polygon fill="none" stroke="#000000" points="120.5431,-2803.5 120.5431,-2833.5 346.5431,-2833.5 346.5431,-2803.5 120.5431,-2803.5"/>
<text text-anchor="start" x="127.5431" y="-2814.9" font-family="Arial" font-size="14.00" fill="#000000">uniform_resource_id </text>
<text text-anchor="start" x="259.0059" y="-2814.9" font-family="Arial" font-size="14.00" fill="#666666">[ULID]</text>
<polygon fill="none" stroke="#000000" points="120.5431,-2773.5 120.5431,-2803.5 346.5431,-2803.5 346.5431,-2773.5 120.5431,-2773.5"/>
<text text-anchor="start" x="127.5431" y="-2784.9" font-family="Arial" font-size="14.00" fill="#000000">device_id </text>
<text text-anchor="start" x="190.5599" y="-2784.9" font-family="Arial" font-size="14.00" fill="#666666">[ULID]</text>
<polygon fill="none" stroke="#000000" points="120.5431,-2743.5 120.5431,-2773.5 346.5431,-2773.5 346.5431,-2743.5 120.5431,-2743.5"/>
<text text-anchor="start" x="127.5431" y="-2754.9" font-family="Arial" font-size="14.00" fill="#000000">walk_session_id </text>
<text text-anchor="start" x="233.3383" y="-2754.9" font-family="Arial" font-size="14.00" fill="#666666">[ULID]</text>
<polygon fill="none" stroke="#000000" points="120.5431,-2713.5 120.5431,-2743.5 346.5431,-2743.5 346.5431,-2713.5 120.5431,-2713.5"/>
<text text-anchor="start" x="127.5431" y="-2724.9" font-family="Arial" font-size="14.00" fill="#000000">walk_path_id </text>
<text text-anchor="start" x="213.1223" y="-2724.9" font-family="Arial" font-size="14.00" fill="#666666">[ULID]</text>
<polygon fill="none" stroke="#000000" points="120.5431,-2683.5 120.5431,-2713.5 346.5431,-2713.5 346.5431,-2683.5 120.5431,-2683.5"/>
<text text-anchor="start" x="127.5431" y="-2694.9" font-family="Arial" font-size="14.00" fill="#000000">uri </text>
<text text-anchor="start" x="146.9835" y="-2694.9" font-family="Arial" font-size="14.00" fill="#666666">[TEXT]</text>
<polygon fill="none" stroke="#000000" points="120.5431,-2653.5 120.5431,-2683.5 346.5431,-2683.5 346.5431,-2653.5 120.5431,-2653.5"/>
<text text-anchor="start" x="127.5431" y="-2664.9" font-family="Arial" font-size="14.00" fill="#000000">content_digest </text>
<text text-anchor="start" x="222.4729" y="-2664.9" font-family="Arial" font-size="14.00" fill="#666666">[TEXT]</text>
<polygon fill="none" stroke="#000000" points="120.5431,-2623.5 120.5431,-2653.5 346.5431,-2653.5 346.5431,-2623.5 120.5431,-2623.5"/>
<text text-anchor="start" x="127.5431" y="-2634.9" font-family="Arial" font-size="14.00" fill="#000000">content </text>
<text text-anchor="start" x="177.3453" y="-2634.9" font-family="Arial" font-size="14.00" fill="#666666">[BLOB]</text>
<polygon fill="none" stroke="#000000" points="120.5431,-2593.5 120.5431,-2623.5 346.5431,-2623.5 346.5431,-2593.5 120.5431,-2593.5"/>
<text text-anchor="start" x="127.5431" y="-2604.9" font-family="Arial" font-size="14.00" fill="#000000">nature </text>
<text text-anchor="start" x="171.1153" y="-2604.9" font-family="Arial" font-size="14.00" fill="#666666">[TEXT]</text>
<polygon fill="none" stroke="#000000" points="120.5431,-2563.5 120.5431,-2593.5 346.5431,-2593.5 346.5431,-2563.5 120.5431,-2563.5"/>
<text text-anchor="start" x="127.5431" y="-2574.9" font-family="Arial" font-size="14.00" fill="#000000">size_bytes </text>
<text text-anchor="start" x="197.5613" y="-2574.9" font-family="Arial" font-size="14.00" fill="#666666">[INTEGER]</text>
<polygon fill="none" stroke="#000000" points="120.5431,-2533.5 120.5431,-2563.5 346.5431,-2563.5 346.5431,-2533.5 120.5431,-2533.5"/>
<text text-anchor="start" x="127.5431" y="-2544.9" font-family="Arial" font-size="14.00" fill="#000000">last_modified_at </text>
<text text-anchor="start" x="233.3467" y="-2544.9" font-family="Arial" font-size="14.00" fill="#666666">[INTEGER]</text>
<polygon fill="none" stroke="#000000" points="120.5431,-2503.5 120.5431,-2533.5 346.5431,-2533.5 346.5431,-2503.5 120.5431,-2503.5"/>
<text text-anchor="start" x="127.5431" y="-2514.9" font-family="Arial" font-size="14.00" fill="#000000">content_fm_body_attrs </text>
<text text-anchor="start" x="273.8165" y="-2514.9" font-family="Arial" font-size="14.00" fill="#666666">[TEXT]</text>
<polygon fill="none" stroke="#000000" points="120.5431,-2473.5 120.5431,-2503.5 346.5431,-2503.5 346.5431,-2473.5 120.5431,-2473.5"/>
<text text-anchor="start" x="127.5431" y="-2484.9" font-family="Arial" font-size="14.00" fill="#000000">frontmatter </text>
<text text-anchor="start" x="199.1083" y="-2484.9" font-family="Arial" font-size="14.00" fill="#666666">[TEXT]</text>
<polygon fill="none" stroke="#000000" points="120.5431,-2443.5 120.5431,-2473.5 346.5431,-2473.5 346.5431,-2443.5 120.5431,-2443.5"/>
<text text-anchor="start" x="127.5431" y="-2454.9" font-family="Arial" font-size="14.00" fill="#000000">elaboration </text>
<text text-anchor="start" x="200.6763" y="-2454.9" font-family="Arial" font-size="14.00" fill="#666666">[TEXT]</text>
<polygon fill="none" stroke="#000000" points="120.5431,-2413.5 120.5431,-2443.5 346.5431,-2443.5 346.5431,-2413.5 120.5431,-2413.5"/>
<text text-anchor="start" x="127.5431" y="-2424.9" font-family="Arial" font-size="14.00" fill="#000000">created_at </text>
<text text-anchor="start" x="197.5711" y="-2424.9" font-family="Arial" font-size="14.00" fill="#666666">[TIMESTAMP]</text>
<polygon fill="none" stroke="#000000" points="120.5431,-2383.5 120.5431,-2413.5 346.5431,-2413.5 346.5431,-2383.5 120.5431,-2383.5"/>
<text text-anchor="start" x="127.5431" y="-2394.9" font-family="Arial" font-size="14.00" fill="#000000">created_by </text>
<text text-anchor="start" x="200.6805" y="-2394.9" font-family="Arial" font-size="14.00" fill="#666666">[TEXT]</text>
<polygon fill="none" stroke="#000000" points="120.5431,-2353.5 120.5431,-2383.5 346.5431,-2383.5 346.5431,-2353.5 120.5431,-2353.5"/>
<text text-anchor="start" x="127.5431" y="-2364.9" font-family="Arial" font-size="14.00" fill="#000000">updated_at </text>
<text text-anchor="start" x="201.4757" y="-2364.9" font-family="Arial" font-size="14.00" fill="#666666">[TIMESTAMP]</text>
<polygon fill="none" stroke="#000000" points="120.5431,-2323.5 120.5431,-2353.5 346.5431,-2353.5 346.5431,-2323.5 120.5431,-2323.5"/>
<text text-anchor="start" x="127.5431" y="-2334.9" font-family="Arial" font-size="14.00" fill="#000000">updated_by </text>
<text text-anchor="start" x="204.5851" y="-2334.9" font-family="Arial" font-size="14.00" fill="#666666">[TEXT]</text>
<polygon fill="none" stroke="#000000" points="120.5431,-2293.5 120.5431,-2323.5 346.5431,-2323.5 346.5431,-2293.5 120.5431,-2293.5"/>
<text text-anchor="start" x="127.5431" y="-2304.9" font-family="Arial" font-size="14.00" fill="#000000">deleted_at </text>
<text text-anchor="start" x="196.7997" y="-2304.9" font-family="Arial" font-size="14.00" fill="#666666">[TIMESTAMP]</text>
<polygon fill="none" stroke="#000000" points="120.5431,-2263.5 120.5431,-2293.5 346.5431,-2293.5 346.5431,-2263.5 120.5431,-2263.5"/>
<text text-anchor="start" x="127.5431" y="-2274.9" font-family="Arial" font-size="14.00" fill="#000000">deleted_by </text>
<text text-anchor="start" x="199.9091" y="-2274.9" font-family="Arial" font-size="14.00" fill="#666666">[TEXT]</text>
<polygon fill="none" stroke="#000000" points="120.5431,-2233.5 120.5431,-2263.5 346.5431,-2263.5 346.5431,-2233.5 120.5431,-2233.5"/>
<text text-anchor="start" x="127.5431" y="-2244.9" font-family="Arial" font-size="14.00" fill="#000000">activity_log </text>
<text text-anchor="start" x="200.6651" y="-2244.9" font-family="Arial" font-size="14.00" fill="#666666">[TEXT]</text>
<polygon fill="none" stroke="#000000" stroke-width="3" points="119.0431,-2232.5 119.0431,-2870.5 348.0431,-2870.5 348.0431,-2232.5 119.0431,-2232.5"/>
</g>
<!-- ur_walk_session -->
<g id="node3" class="node">
<title>ur_walk_session</title>
<polygon fill="#efefef" stroke="transparent" points="307.5431,-1586.5 307.5431,-1621.5 548.5431,-1621.5 548.5431,-1586.5 307.5431,-1586.5"/>
<polygon fill="none" stroke="#000000" points="307.5431,-1586.5 307.5431,-1621.5 548.5431,-1621.5 548.5431,-1586.5 307.5431,-1586.5"/>
<text text-anchor="start" x="325.3685" y="-1599.3" font-family="Arial Bold" font-size="18.00" fill="#000000">ur_walk_session</text>
<text text-anchor="start" x="458.3867" y="-1599.3" font-family="Arial" font-size="14.00" fill="#000000">    </text>
<text text-anchor="start" x="492.5915" y="-1599.3" font-family="Arial" font-size="14.00" fill="#666666">[table]</text>
<polygon fill="none" stroke="#000000" points="307.5431,-1556.5 307.5431,-1586.5 548.5431,-1586.5 548.5431,-1556.5 307.5431,-1556.5"/>
<text text-anchor="start" x="314.5431" y="-1567.9" font-family="Arial" font-size="14.00" fill="#000000">ur_walk_session_id    </text>
<text text-anchor="start" x="470.8783" y="-1567.9" font-family="Arial" font-size="14.00" fill="#666666">[ULID]</text>
<polygon fill="none" stroke="#000000" points="307.5431,-1526.5 307.5431,-1556.5 548.5431,-1556.5 548.5431,-1526.5 307.5431,-1526.5"/>
<text text-anchor="start" x="314.5431" y="-1537.9" font-family="Arial" font-size="14.00" fill="#000000">device_id    </text>
<text text-anchor="start" x="407.8741" y="-1537.9" font-family="Arial" font-size="14.00" fill="#666666">[ULID]</text>
<polygon fill="none" stroke="#000000" points="307.5431,-1496.5 307.5431,-1526.5 548.5431,-1526.5 548.5431,-1496.5 307.5431,-1496.5"/>
<text text-anchor="start" x="314.5431" y="-1507.9" font-family="Arial" font-size="14.00" fill="#000000">behavior_id    </text>
<text text-anchor="start" x="421.0999" y="-1507.9" font-family="Arial" font-size="14.00" fill="#666666">[ULID]</text>
<polygon fill="none" stroke="#000000" points="307.5431,-1466.5 307.5431,-1496.5 548.5431,-1496.5 548.5431,-1466.5 307.5431,-1466.5"/>
<text text-anchor="start" x="314.5431" y="-1477.9" font-family="Arial" font-size="14.00" fill="#000000">behavior_json    </text>
<text text-anchor="start" x="435.8825" y="-1477.9" font-family="Arial" font-size="14.00" fill="#666666">[TEXT]</text>
<polygon fill="none" stroke="#000000" points="307.5431,-1436.5 307.5431,-1466.5 548.5431,-1466.5 548.5431,-1436.5 307.5431,-1436.5"/>
<text text-anchor="start" x="314.5431" y="-1447.9" font-family="Arial" font-size="14.00" fill="#000000">walk_started_at    </text>
<text text-anchor="start" x="446.7717" y="-1447.9" font-family="Arial" font-size="14.00" fill="#666666">[TIMESTAMP]</text>
<polygon fill="none" stroke="#000000" points="307.5431,-1406.5 307.5431,-1436.5 548.5431,-1436.5 548.5431,-1406.5 307.5431,-1406.5"/>
<text text-anchor="start" x="314.4842" y="-1417.9" font-family="Arial" font-size="14.00" fill="#000000">walk_finished_at    </text>
<text text-anchor="start" x="452.1574" y="-1417.9" font-family="Arial" font-size="14.00" fill="#666666">[TIMESTAMP]</text>
<polygon fill="none" stroke="#000000" points="307.5431,-1376.5 307.5431,-1406.5 548.5431,-1406.5 548.5431,-1376.5 307.5431,-1376.5"/>
<text text-anchor="start" x="314.5431" y="-1387.9" font-family="Arial" font-size="14.00" fill="#000000">elaboration    </text>
<text text-anchor="start" x="417.9905" y="-1387.9" font-family="Arial" font-size="14.00" fill="#666666">[TEXT]</text>
<polygon fill="none" stroke="#000000" points="307.5431,-1346.5 307.5431,-1376.5 548.5431,-1376.5 548.5431,-1346.5 307.5431,-1346.5"/>
<text text-anchor="start" x="314.5431" y="-1357.9" font-family="Arial" font-size="14.00" fill="#000000">created_at    </text>
<text text-anchor="start" x="414.8853" y="-1357.9" font-family="Arial" font-size="14.00" fill="#666666">[TIMESTAMP]</text>
<polygon fill="none" stroke="#000000" points="307.5431,-1316.5 307.5431,-1346.5 548.5431,-1346.5 548.5431,-1316.5 307.5431,-1316.5"/>
<text text-anchor="start" x="314.5431" y="-1327.9" font-family="Arial" font-size="14.00" fill="#000000">created_by    </text>
<text text-anchor="start" x="417.9947" y="-1327.9" font-family="Arial" font-size="14.00" fill="#666666">[TEXT]</text>
<polygon fill="none" stroke="#000000" points="307.5431,-1286.5 307.5431,-1316.5 548.5431,-1316.5 548.5431,-1286.5 307.5431,-1286.5"/>
<text text-anchor="start" x="314.5431" y="-1297.9" font-family="Arial" font-size="14.00" fill="#000000">updated_at    </text>
<text text-anchor="start" x="418.7899" y="-1297.9" font-family="Arial" font-size="14.00" fill="#666666">[TIMESTAMP]</text>
<polygon fill="none" stroke="#000000" points="307.5431,-1256.5 307.5431,-1286.5 548.5431,-1286.5 548.5431,-1256.5 307.5431,-1256.5"/>
<text text-anchor="start" x="314.5431" y="-1267.9" font-family="Arial" font-size="14.00" fill="#000000">updated_by    </text>
<text text-anchor="start" x="421.8993" y="-1267.9" font-family="Arial" font-size="14.00" fill="#666666">[TEXT]</text>
<polygon fill="none" stroke="#000000" points="307.5431,-1226.5 307.5431,-1256.5 548.5431,-1256.5 548.5431,-1226.5 307.5431,-1226.5"/>
<text text-anchor="start" x="314.5431" y="-1237.9" font-family="Arial" font-size="14.00" fill="#000000">deleted_at    </text>
<text text-anchor="start" x="414.1139" y="-1237.9" font-family="Arial" font-size="14.00" fill="#666666">[TIMESTAMP]</text>
<polygon fill="none" stroke="#000000" points="307.5431,-1196.5 307.5431,-1226.5 548.5431,-1226.5 548.5431,-1196.5 307.5431,-1196.5"/>
<text text-anchor="start" x="314.5431" y="-1207.9" font-family="Arial" font-size="14.00" fill="#000000">deleted_by    </text>
<text text-anchor="start" x="417.2233" y="-1207.9" font-family="Arial" font-size="14.00" fill="#666666">[TEXT]</text>
<polygon fill="none" stroke="#000000" points="307.5431,-1166.5 307.5431,-1196.5 548.5431,-1196.5 548.5431,-1166.5 307.5431,-1166.5"/>
<text text-anchor="start" x="314.5431" y="-1177.9" font-family="Arial" font-size="14.00" fill="#000000">activity_log    </text>
<text text-anchor="start" x="417.9793" y="-1177.9" font-family="Arial" font-size="14.00" fill="#666666">[TEXT]</text>
</g>
<!-- uniform_resource&#45;&gt;ur_walk_session -->
<g id="edge7" class="edge">
<title>uniform_resource:walk_session_id&#45;&gt;ur_walk_session:ur_walk_session_id</title>
<path fill="none" stroke="#000000" d="M110.5536,-2757.4756C-3.071,-2733.3818 53.3492,-2291.3955 120.5431,-2188 142.0102,-2154.9672 178.5309,-2183.9756 201.5431,-2152 260.3519,-2070.2851 217.3096,-1797.9234 244.5431,-1701 261.8568,-1639.3812 243.5381,-1571.5 307.5431,-1571.5"/>
<polygon fill="#000000" stroke="#000000" points="110.5953,-2757.4798 120.084,-2762.9765 115.5692,-2757.9899 120.5431,-2758.5 120.5431,-2758.5 120.5431,-2758.5 115.5692,-2757.9899 121.0022,-2754.0235 110.5953,-2757.4798 110.5953,-2757.4798"/>
</g>
<!-- ur_walk_session_path -->
<g id="node4" class="node">
<title>ur_walk_session_path</title>
<polygon fill="#efefef" stroke="transparent" points="296.5431,-2073.5 296.5431,-2108.5 560.5431,-2108.5 560.5431,-2073.5 296.5431,-2073.5"/>
<polygon fill="none" stroke="#000000" points="296.5431,-2073.5 296.5431,-2108.5 560.5431,-2108.5 560.5431,-2073.5 296.5431,-2073.5"/>
<text text-anchor="start" x="303.355" y="-2086.3" font-family="Arial Bold" font-size="18.00" fill="#000000">ur_walk_session_path</text>
<text text-anchor="start" x="481.4002" y="-2086.3" font-family="Arial" font-size="14.00" fill="#000000">    </text>
<text text-anchor="start" x="515.605" y="-2086.3" font-family="Arial" font-size="14.00" fill="#666666">[table]</text>
<polygon fill="none" stroke="#000000" points="296.5431,-2043.5 296.5431,-2073.5 560.5431,-2073.5 560.5431,-2043.5 296.5431,-2043.5"/>
<text text-anchor="start" x="303.5431" y="-2054.9" font-family="Arial" font-size="14.00" fill="#000000">ur_walk_session_path_id    </text>
<text text-anchor="start" x="494.8993" y="-2054.9" font-family="Arial" font-size="14.00" fill="#666666">[ULID]</text>
<polygon fill="none" stroke="#000000" points="296.5431,-2013.5 296.5431,-2043.5 560.5431,-2043.5 560.5431,-2013.5 296.5431,-2013.5"/>
<text text-anchor="start" x="303.5431" y="-2024.9" font-family="Arial" font-size="14.00" fill="#000000">walk_session_id    </text>
<text text-anchor="start" x="439.6525" y="-2024.9" font-family="Arial" font-size="14.00" fill="#666666">[ULID]</text>
<polygon fill="none" stroke="#000000" points="296.5431,-1983.5 296.5431,-2013.5 560.5431,-2013.5 560.5431,-1983.5 296.5431,-1983.5"/>
<text text-anchor="start" x="303.5431" y="-1994.9" font-family="Arial" font-size="14.00" fill="#000000">root_path    </text>
<text text-anchor="start" x="396.8853" y="-1994.9" font-family="Arial" font-size="14.00" fill="#666666">[TEXT]</text>
<polygon fill="none" stroke="#000000" points="296.5431,-1953.5 296.5431,-1983.5 560.5431,-1983.5 560.5431,-1953.5 296.5431,-1953.5"/>
<text text-anchor="start" x="303.5431" y="-1964.9" font-family="Arial" font-size="14.00" fill="#000000">elaboration    </text>
<text text-anchor="start" x="406.9905" y="-1964.9" font-family="Arial" font-size="14.00" fill="#666666">[TEXT]</text>
<polygon fill="none" stroke="#000000" points="296.5431,-1923.5 296.5431,-1953.5 560.5431,-1953.5 560.5431,-1923.5 296.5431,-1923.5"/>
<text text-anchor="start" x="303.5431" y="-1934.9" font-family="Arial" font-size="14.00" fill="#000000">created_at    </text>
<text text-anchor="start" x="403.8853" y="-1934.9" font-family="Arial" font-size="14.00" fill="#666666">[TIMESTAMP]</text>
<polygon fill="none" stroke="#000000" points="296.5431,-1893.5 296.5431,-1923.5 560.5431,-1923.5 560.5431,-1893.5 296.5431,-1893.5"/>
<text text-anchor="start" x="303.5431" y="-1904.9" font-family="Arial" font-size="14.00" fill="#000000">created_by    </text>
<text text-anchor="start" x="406.9947" y="-1904.9" font-family="Arial" font-size="14.00" fill="#666666">[TEXT]</text>
<polygon fill="none" stroke="#000000" points="296.5431,-1863.5 296.5431,-1893.5 560.5431,-1893.5 560.5431,-1863.5 296.5431,-1863.5"/>
<text text-anchor="start" x="303.5431" y="-1874.9" font-family="Arial" font-size="14.00" fill="#000000">updated_at    </text>
<text text-anchor="start" x="407.7899" y="-1874.9" font-family="Arial" font-size="14.00" fill="#666666">[TIMESTAMP]</text>
<polygon fill="none" stroke="#000000" points="296.5431,-1833.5 296.5431,-1863.5 560.5431,-1863.5 560.5431,-1833.5 296.5431,-1833.5"/>
<text text-anchor="start" x="303.5431" y="-1844.9" font-family="Arial" font-size="14.00" fill="#000000">updated_by    </text>
<text text-anchor="start" x="410.8993" y="-1844.9" font-family="Arial" font-size="14.00" fill="#666666">[TEXT]</text>
<polygon fill="none" stroke="#000000" points="296.5431,-1803.5 296.5431,-1833.5 560.5431,-1833.5 560.5431,-1803.5 296.5431,-1803.5"/>
<text text-anchor="start" x="303.5431" y="-1814.9" font-family="Arial" font-size="14.00" fill="#000000">deleted_at    </text>
<text text-anchor="start" x="403.1139" y="-1814.9" font-family="Arial" font-size="14.00" fill="#666666">[TIMESTAMP]</text>
<polygon fill="none" stroke="#000000" points="296.5431,-1773.5 296.5431,-1803.5 560.5431,-1803.5 560.5431,-1773.5 296.5431,-1773.5"/>
<text text-anchor="start" x="303.5431" y="-1784.9" font-family="Arial" font-size="14.00" fill="#000000">deleted_by    </text>
<text text-anchor="start" x="406.2233" y="-1784.9" font-family="Arial" font-size="14.00" fill="#666666">[TEXT]</text>
<polygon fill="none" stroke="#000000" points="296.5431,-1743.5 296.5431,-1773.5 560.5431,-1773.5 560.5431,-1743.5 296.5431,-1743.5"/>
<text text-anchor="start" x="303.5431" y="-1754.9" font-family="Arial" font-size="14.00" fill="#000000">activity_log    </text>
<text text-anchor="start" x="406.9793" y="-1754.9" font-family="Arial" font-size="14.00" fill="#666666">[TEXT]</text>
</g>
<!-- uniform_resource&#45;&gt;ur_walk_session_path -->
<g id="edge10" class="edge">
<title>uniform_resource:walk_path_id&#45;&gt;ur_walk_session_path:ur_walk_session_path_id</title>
<path fill="none" stroke="#000000" d="M356.6271,-2727.4026C462.8341,-2703.3743 399.6979,-2291.7705 346.5431,-2188 334.0591,-2163.6283 309.0271,-2176.3717 296.5431,-2152 277.5978,-2115.0143 254.9876,-2058.5 296.5431,-2058.5"/>
<polygon fill="#000000" stroke="#000000" points="356.4844,-2727.4181 346.0563,-2724.0264 351.5138,-2727.959 346.5431,-2728.5 346.5431,-2728.5 346.5431,-2728.5 351.5138,-2727.959 347.03,-2732.9736 356.4844,-2727.4181 356.4844,-2727.4181"/>
</g>
<!-- device -->
<g id="node5" class="node">
<title>device</title>
<polygon fill="#efefef" stroke="transparent" points="271.5431,-462.5 271.5431,-497.5 478.5431,-497.5 478.5431,-462.5 271.5431,-462.5"/>
<polygon fill="none" stroke="#000000" points="271.5431,-462.5 271.5431,-497.5 478.5431,-497.5 478.5431,-462.5 271.5431,-462.5"/>
<text text-anchor="start" x="312.8712" y="-475.3" font-family="Arial Bold" font-size="18.00" fill="#000000">device</text>
<text text-anchor="start" x="364.884" y="-475.3" font-family="Arial" font-size="14.00" fill="#000000">    </text>
<text text-anchor="start" x="399.0888" y="-475.3" font-family="Arial" font-size="14.00" fill="#666666">[table]</text>
<polygon fill="none" stroke="#000000" points="271.5431,-432.5 271.5431,-462.5 478.5431,-462.5 478.5431,-432.5 271.5431,-432.5"/>
<text text-anchor="start" x="278.5431" y="-443.9" font-family="Arial" font-size="14.00" fill="#000000">device_id    </text>
<text text-anchor="start" x="371.8741" y="-443.9" font-family="Arial" font-size="14.00" fill="#666666">[ULID]</text>
<polygon fill="none" stroke="#000000" points="271.5431,-402.5 271.5431,-432.5 478.5431,-432.5 478.5431,-402.5 271.5431,-402.5"/>
<text text-anchor="start" x="278.5431" y="-413.9" font-family="Arial" font-size="14.00" fill="#000000">name    </text>
<text text-anchor="start" x="347.7563" y="-413.9" font-family="Arial" font-size="14.00" fill="#666666">[TEXT]</text>
<polygon fill="none" stroke="#000000" points="271.5431,-372.5 271.5431,-402.5 478.5431,-402.5 478.5431,-372.5 271.5431,-372.5"/>
<text text-anchor="start" x="278.5431" y="-383.9" font-family="Arial" font-size="14.00" fill="#000000">state    </text>
<text text-anchor="start" x="343.0943" y="-383.9" font-family="Arial" font-size="14.00" fill="#666666">[TEXT]</text>
<polygon fill="none" stroke="#000000" points="271.5431,-342.5 271.5431,-372.5 478.5431,-372.5 478.5431,-342.5 271.5431,-342.5"/>
<text text-anchor="start" x="278.5431" y="-353.9" font-family="Arial" font-size="14.00" fill="#000000">boundary    </text>
<text text-anchor="start" x="371.1041" y="-353.9" font-family="Arial" font-size="14.00" fill="#666666">[TEXT]</text>
<polygon fill="none" stroke="#000000" points="271.5431,-312.5 271.5431,-342.5 478.5431,-342.5 478.5431,-312.5 271.5431,-312.5"/>
<text text-anchor="start" x="278.5431" y="-323.9" font-family="Arial" font-size="14.00" fill="#000000">segmentation    </text>
<text text-anchor="start" x="396.7745" y="-323.9" font-family="Arial" font-size="14.00" fill="#666666">[TEXT]</text>
<polygon fill="none" stroke="#000000" points="271.5431,-282.5 271.5431,-312.5 478.5431,-312.5 478.5431,-282.5 271.5431,-282.5"/>
<text text-anchor="start" x="278.5431" y="-293.9" font-family="Arial" font-size="14.00" fill="#000000">state_sysinfo    </text>
<text text-anchor="start" x="394.4393" y="-293.9" font-family="Arial" font-size="14.00" fill="#666666">[TEXT]</text>
<polygon fill="none" stroke="#000000" points="271.5431,-252.5 271.5431,-282.5 478.5431,-282.5 478.5431,-252.5 271.5431,-252.5"/>
<text text-anchor="start" x="278.5431" y="-263.9" font-family="Arial" font-size="14.00" fill="#000000">elaboration    </text>
<text text-anchor="start" x="381.9905" y="-263.9" font-family="Arial" font-size="14.00" fill="#666666">[TEXT]</text>
<polygon fill="none" stroke="#000000" points="271.5431,-222.5 271.5431,-252.5 478.5431,-252.5 478.5431,-222.5 271.5431,-222.5"/>
<text text-anchor="start" x="278.5431" y="-233.9" font-family="Arial" font-size="14.00" fill="#000000">created_at    </text>
<text text-anchor="start" x="378.8853" y="-233.9" font-family="Arial" font-size="14.00" fill="#666666">[TIMESTAMP]</text>
<polygon fill="none" stroke="#000000" points="271.5431,-192.5 271.5431,-222.5 478.5431,-222.5 478.5431,-192.5 271.5431,-192.5"/>
<text text-anchor="start" x="278.5431" y="-203.9" font-family="Arial" font-size="14.00" fill="#000000">created_by    </text>
<text text-anchor="start" x="381.9947" y="-203.9" font-family="Arial" font-size="14.00" fill="#666666">[TEXT]</text>
<polygon fill="none" stroke="#000000" points="271.5431,-162.5 271.5431,-192.5 478.5431,-192.5 478.5431,-162.5 271.5431,-162.5"/>
<text text-anchor="start" x="278.1974" y="-173.9" font-family="Arial" font-size="14.00" fill="#000000">updated_at    </text>
<text text-anchor="start" x="382.4442" y="-173.9" font-family="Arial" font-size="14.00" fill="#666666">[TIMESTAMP]</text>
<polygon fill="none" stroke="#000000" points="271.5431,-132.5 271.5431,-162.5 478.5431,-162.5 478.5431,-132.5 271.5431,-132.5"/>
<text text-anchor="start" x="278.5431" y="-143.9" font-family="Arial" font-size="14.00" fill="#000000">updated_by    </text>
<text text-anchor="start" x="385.8993" y="-143.9" font-family="Arial" font-size="14.00" fill="#666666">[TEXT]</text>
<polygon fill="none" stroke="#000000" points="271.5431,-102.5 271.5431,-132.5 478.5431,-132.5 478.5431,-102.5 271.5431,-102.5"/>
<text text-anchor="start" x="278.5431" y="-113.9" font-family="Arial" font-size="14.00" fill="#000000">deleted_at    </text>
<text text-anchor="start" x="378.1139" y="-113.9" font-family="Arial" font-size="14.00" fill="#666666">[TIMESTAMP]</text>
<polygon fill="none" stroke="#000000" points="271.5431,-72.5 271.5431,-102.5 478.5431,-102.5 478.5431,-72.5 271.5431,-72.5"/>
<text text-anchor="start" x="278.5431" y="-83.9" font-family="Arial" font-size="14.00" fill="#000000">deleted_by    </text>
<text text-anchor="start" x="381.2233" y="-83.9" font-family="Arial" font-size="14.00" fill="#666666">[TEXT]</text>
<polygon fill="none" stroke="#000000" points="271.5431,-42.5 271.5431,-72.5 478.5431,-72.5 478.5431,-42.5 271.5431,-42.5"/>
<text text-anchor="start" x="278.5431" y="-53.9" font-family="Arial" font-size="14.00" fill="#000000">activity_log    </text>
<text text-anchor="start" x="381.9793" y="-53.9" font-family="Arial" font-size="14.00" fill="#666666">[TEXT]</text>
</g>
<!-- uniform_resource&#45;&gt;device -->
<g id="edge4" class="edge">
<title>uniform_resource:device_id&#45;&gt;device:device_id</title>
<path fill="none" stroke="#000000" d="M110.2603,-2788.3269C-139.5402,-2779.7127 113.5209,-2451.2767 120.5431,-2188 130.8945,-1799.9074 -116.6875,-447.5 271.5431,-447.5"/>
<polygon fill="#000000" stroke="#000000" points="110.5445,-2788.3316 120.4673,-2792.9994 115.5438,-2788.4158 120.5431,-2788.5 120.5431,-2788.5 120.5431,-2788.5 115.5438,-2788.4158 120.6189,-2784.0006 110.5445,-2788.3316 110.5445,-2788.3316"/>
</g>
<!-- ur_walk_session_path_fs_entry -->
<g id="node2" class="node">
<title>ur_walk_session_path_fs_entry</title>
<polygon fill="#efefef" stroke="transparent" points="259.5431,-3563.5 259.5431,-3598.5 597.5431,-3598.5 597.5431,-3563.5 259.5431,-3563.5"/>
<polygon fill="none" stroke="#000000" points="259.5431,-3563.5 259.5431,-3598.5 597.5431,-3598.5 597.5431,-3563.5 259.5431,-3563.5"/>
<text text-anchor="start" x="266.3443" y="-3576.3" font-family="Arial Bold" font-size="18.00" fill="#000000">ur_walk_session_path_fs_entry</text>
<text text-anchor="start" x="518.4109" y="-3576.3" font-family="Arial" font-size="14.00" fill="#000000">    </text>
<text text-anchor="start" x="552.6157" y="-3576.3" font-family="Arial" font-size="14.00" fill="#666666">[table]</text>
<polygon fill="none" stroke="#000000" points="259.5431,-3533.5 259.5431,-3563.5 597.5431,-3563.5 597.5431,-3533.5 259.5431,-3533.5"/>
<text text-anchor="start" x="266.5431" y="-3544.9" font-family="Arial" font-size="14.00" fill="#000000">ur_walk_session_path_fs_entry_id    </text>
<text text-anchor="start" x="515.4715" y="-3544.9" font-family="Arial" font-size="14.00" fill="#666666">[ULID]</text>
<polygon fill="none" stroke="#000000" points="259.5431,-3503.5 259.5431,-3533.5 597.5431,-3533.5 597.5431,-3503.5 259.5431,-3503.5"/>
<text text-anchor="start" x="266.5431" y="-3514.9" font-family="Arial" font-size="14.00" fill="#000000">walk_session_id    </text>
<text text-anchor="start" x="402.6525" y="-3514.9" font-family="Arial" font-size="14.00" fill="#666666">[ULID]</text>
<polygon fill="none" stroke="#000000" points="259.5431,-3473.5 259.5431,-3503.5 597.5431,-3503.5 597.5431,-3473.5 259.5431,-3473.5"/>
<text text-anchor="start" x="266.5431" y="-3484.9" font-family="Arial" font-size="14.00" fill="#000000">walk_path_id    </text>
<text text-anchor="start" x="382.4365" y="-3484.9" font-family="Arial" font-size="14.00" fill="#666666">[ULID]</text>
<polygon fill="none" stroke="#000000" points="259.5431,-3443.5 259.5431,-3473.5 597.5431,-3473.5 597.5431,-3443.5 259.5431,-3443.5"/>
<text text-anchor="start" x="266.5431" y="-3454.9" font-family="Arial" font-size="14.00" fill="#000000">uniform_resource_id    </text>
<text text-anchor="start" x="428.3201" y="-3454.9" font-family="Arial" font-size="14.00" fill="#666666">[ULID]</text>
<polygon fill="none" stroke="#000000" points="259.5431,-3413.5 259.5431,-3443.5 597.5431,-3443.5 597.5431,-3413.5 259.5431,-3413.5"/>
<text text-anchor="start" x="266.5431" y="-3424.9" font-family="Arial" font-size="14.00" fill="#000000">file_path_abs    </text>
<text text-anchor="start" x="384.0031" y="-3424.9" font-family="Arial" font-size="14.00" fill="#666666">[TEXT]</text>
<polygon fill="none" stroke="#000000" points="259.5431,-3383.5 259.5431,-3413.5 597.5431,-3413.5 597.5431,-3383.5 259.5431,-3383.5"/>
<text text-anchor="start" x="266.5431" y="-3394.9" font-family="Arial" font-size="14.00" fill="#000000">file_path_rel_parent    </text>
<text text-anchor="start" x="424.4519" y="-3394.9" font-family="Arial" font-size="14.00" fill="#666666">[TEXT]</text>
<polygon fill="none" stroke="#000000" points="259.5431,-3353.5 259.5431,-3383.5 597.5431,-3383.5 597.5431,-3353.5 259.5431,-3353.5"/>
<text text-anchor="start" x="266.5431" y="-3364.9" font-family="Arial" font-size="14.00" fill="#000000">file_path_rel    </text>
<text text-anchor="start" x="376.9877" y="-3364.9" font-family="Arial" font-size="14.00" fill="#666666">[TEXT]</text>
<polygon fill="none" stroke="#000000" points="259.5431,-3323.5 259.5431,-3353.5 597.5431,-3353.5 597.5431,-3323.5 259.5431,-3323.5"/>
<text text-anchor="start" x="266.5431" y="-3334.9" font-family="Arial" font-size="14.00" fill="#000000">file_basename    </text>
<text text-anchor="start" x="391.7731" y="-3334.9" font-family="Arial" font-size="14.00" fill="#666666">[TEXT]</text>
<polygon fill="none" stroke="#000000" points="259.5431,-3293.5 259.5431,-3323.5 597.5431,-3323.5 597.5431,-3293.5 259.5431,-3293.5"/>
<text text-anchor="start" x="266.5431" y="-3304.9" font-family="Arial" font-size="14.00" fill="#000000">file_extn    </text>
<text text-anchor="start" x="352.8727" y="-3304.9" font-family="Arial" font-size="14.00" fill="#666666">[TEXT]</text>
<polygon fill="none" stroke="#000000" points="259.5431,-3263.5 259.5431,-3293.5 597.5431,-3293.5 597.5431,-3263.5 259.5431,-3263.5"/>
<text text-anchor="start" x="266.5431" y="-3274.9" font-family="Arial" font-size="14.00" fill="#000000">ur_status    </text>
<text text-anchor="start" x="358.3201" y="-3274.9" font-family="Arial" font-size="14.00" fill="#666666">[TEXT]</text>
<polygon fill="none" stroke="#000000" points="259.5431,-3233.5 259.5431,-3263.5 597.5431,-3263.5 597.5431,-3233.5 259.5431,-3233.5"/>
<text text-anchor="start" x="266.5431" y="-3244.9" font-family="Arial" font-size="14.00" fill="#000000">ur_diagnostics    </text>
<text text-anchor="start" x="390.9905" y="-3244.9" font-family="Arial" font-size="14.00" fill="#666666">[TEXT]</text>
<polygon fill="none" stroke="#000000" points="259.5431,-3203.5 259.5431,-3233.5 597.5431,-3233.5 597.5431,-3203.5 259.5431,-3203.5"/>
<text text-anchor="start" x="266.5431" y="-3214.9" font-family="Arial" font-size="14.00" fill="#000000">elaboration    </text>
<text text-anchor="start" x="369.9905" y="-3214.9" font-family="Arial" font-size="14.00" fill="#666666">[TEXT]</text>
<polygon fill="none" stroke="#000000" points="259.5431,-3173.5 259.5431,-3203.5 597.5431,-3203.5 597.5431,-3173.5 259.5431,-3173.5"/>
<text text-anchor="start" x="266.5431" y="-3184.9" font-family="Arial" font-size="14.00" fill="#000000">created_at    </text>
<text text-anchor="start" x="366.8853" y="-3184.9" font-family="Arial" font-size="14.00" fill="#666666">[TIMESTAMP]</text>
<polygon fill="none" stroke="#000000" points="259.5431,-3143.5 259.5431,-3173.5 597.5431,-3173.5 597.5431,-3143.5 259.5431,-3143.5"/>
<text text-anchor="start" x="266.5431" y="-3154.9" font-family="Arial" font-size="14.00" fill="#000000">created_by    </text>
<text text-anchor="start" x="369.9947" y="-3154.9" font-family="Arial" font-size="14.00" fill="#666666">[TEXT]</text>
<polygon fill="none" stroke="#000000" points="259.5431,-3113.5 259.5431,-3143.5 597.5431,-3143.5 597.5431,-3113.5 259.5431,-3113.5"/>
<text text-anchor="start" x="266.5431" y="-3124.9" font-family="Arial" font-size="14.00" fill="#000000">updated_at    </text>
<text text-anchor="start" x="370.7899" y="-3124.9" font-family="Arial" font-size="14.00" fill="#666666">[TIMESTAMP]</text>
<polygon fill="none" stroke="#000000" points="259.5431,-3083.5 259.5431,-3113.5 597.5431,-3113.5 597.5431,-3083.5 259.5431,-3083.5"/>
<text text-anchor="start" x="266.5431" y="-3094.9" font-family="Arial" font-size="14.00" fill="#000000">updated_by    </text>
<text text-anchor="start" x="373.8993" y="-3094.9" font-family="Arial" font-size="14.00" fill="#666666">[TEXT]</text>
<polygon fill="none" stroke="#000000" points="259.5431,-3053.5 259.5431,-3083.5 597.5431,-3083.5 597.5431,-3053.5 259.5431,-3053.5"/>
<text text-anchor="start" x="266.5431" y="-3064.9" font-family="Arial" font-size="14.00" fill="#000000">deleted_at    </text>
<text text-anchor="start" x="366.1139" y="-3064.9" font-family="Arial" font-size="14.00" fill="#666666">[TIMESTAMP]</text>
<polygon fill="none" stroke="#000000" points="259.5431,-3023.5 259.5431,-3053.5 597.5431,-3053.5 597.5431,-3023.5 259.5431,-3023.5"/>
<text text-anchor="start" x="266.5431" y="-3034.9" font-family="Arial" font-size="14.00" fill="#000000">deleted_by    </text>
<text text-anchor="start" x="369.2233" y="-3034.9" font-family="Arial" font-size="14.00" fill="#666666">[TEXT]</text>
<polygon fill="none" stroke="#000000" points="259.5431,-2993.5 259.5431,-3023.5 597.5431,-3023.5 597.5431,-2993.5 259.5431,-2993.5"/>
<text text-anchor="start" x="266.5431" y="-3004.9" font-family="Arial" font-size="14.00" fill="#000000">activity_log    </text>
<text text-anchor="start" x="369.9793" y="-3004.9" font-family="Arial" font-size="14.00" fill="#666666">[TEXT]</text>
</g>
<!-- ur_walk_session_path_fs_entry&#45;&gt;uniform_resource -->
<g id="edge1" class="edge">
<title>ur_walk_session_path_fs_entry:uniform_resource_id&#45;&gt;uniform_resource:uniform_resource_id</title>
<path fill="none" stroke="#000000" d="M249.5235,-3458.2816C37.027,-3448.8435 136.0948,-3135.6817 259.5431,-2951 282.7979,-2916.2103 323.2883,-2949.7897 346.5431,-2915 370.3773,-2879.3435 389.432,-2818.5 346.5431,-2818.5"/>
<polygon fill="#000000" stroke="#000000" points="249.5455,-3458.282 259.445,-3462.9989 254.5443,-3458.391 259.5431,-3458.5 259.5431,-3458.5 259.5431,-3458.5 254.5443,-3458.391 259.6412,-3454.0011 249.5455,-3458.282 249.5455,-3458.282"/>
</g>
<!-- ur_walk_session_path_fs_entry&#45;&gt;ur_walk_session -->
<g id="edge2" class="edge">
<title>ur_walk_session_path_fs_entry:walk_session_id&#45;&gt;ur_walk_session:ur_walk_session_id</title>
<path fill="none" stroke="#000000" d="M607.882,-3518.3261C859.0911,-3509.6727 608.2993,-3179.7374 611.5431,-2915 615.205,-2616.1388 847.4267,-1571.5 548.5431,-1571.5"/>
<polygon fill="#000000" stroke="#000000" points="607.5417,-3518.3318 597.4674,-3514.0006 602.5424,-3518.4159 597.5431,-3518.5 597.5431,-3518.5 597.5431,-3518.5 602.5424,-3518.4159 597.6188,-3522.9994 607.5417,-3518.3318 607.5417,-3518.3318"/>
</g>
<!-- ur_walk_session_path_fs_entry&#45;&gt;ur_walk_session_path -->
<g id="edge3" class="edge">
<title>ur_walk_session_path_fs_entry:walk_path_id&#45;&gt;ur_walk_session_path:ur_walk_session_path_id</title>
<path fill="none" stroke="#000000" d="M602.5367,-3479.7389C633.8764,-3360.243 598.4548,-2058.5 560.5431,-2058.5"/>
<polygon fill="#000000" stroke="#000000" points="602.495,-3479.8121 593.6336,-3486.2716 600.0191,-3484.1561 597.5431,-3488.5 597.5431,-3488.5 597.5431,-3488.5 600.0191,-3484.1561 601.4527,-3490.7284 602.495,-3479.8121 602.495,-3479.8121"/>
</g>
<!-- ur_walk_session&#45;&gt;device -->
<g id="edge6" class="edge">
<title>ur_walk_session:device_id&#45;&gt;device:device_id</title>
<path fill="none" stroke="#000000" d="M558.7035,-1540.8481C790.1342,-1510.7369 718.7019,-447.5 478.5431,-447.5"/>
<polygon fill="#000000" stroke="#000000" points="558.5226,-1540.8597 548.255,-1537.0092 553.5329,-1541.1798 548.5431,-1541.5 548.5431,-1541.5 548.5431,-1541.5 553.5329,-1541.1798 548.8313,-1545.9908 558.5226,-1540.8597 558.5226,-1540.8597"/>
</g>
<!-- behavior -->
<g id="node6" class="node">
<title>behavior</title>
<polygon fill="#efefef" stroke="transparent" points="259.5431,-1009.5 259.5431,-1044.5 490.5431,-1044.5 490.5431,-1009.5 259.5431,-1009.5"/>
<polygon fill="none" stroke="#000000" points="259.5431,-1009.5 259.5431,-1044.5 490.5431,-1044.5 490.5431,-1009.5 259.5431,-1009.5"/>
<text text-anchor="start" x="304.3689" y="-1022.3" font-family="Arial Bold" font-size="18.00" fill="#000000">behavior</text>
<text text-anchor="start" x="373.3863" y="-1022.3" font-family="Arial" font-size="14.00" fill="#000000">    </text>
<text text-anchor="start" x="407.5911" y="-1022.3" font-family="Arial" font-size="14.00" fill="#666666">[table]</text>
<polygon fill="none" stroke="#000000" points="259.5431,-979.5 259.5431,-1009.5 490.5431,-1009.5 490.5431,-979.5 259.5431,-979.5"/>
<text text-anchor="start" x="266.5431" y="-990.9" font-family="Arial" font-size="14.00" fill="#000000">behavior_id    </text>
<text text-anchor="start" x="373.0999" y="-990.9" font-family="Arial" font-size="14.00" fill="#666666">[ULID]</text>
<polygon fill="none" stroke="#000000" points="259.5431,-949.5 259.5431,-979.5 490.5431,-979.5 490.5431,-949.5 259.5431,-949.5"/>
<text text-anchor="start" x="266.5431" y="-960.9" font-family="Arial" font-size="14.00" fill="#000000">device_id    </text>
<text text-anchor="start" x="359.8741" y="-960.9" font-family="Arial" font-size="14.00" fill="#666666">[ULID]</text>
<polygon fill="none" stroke="#000000" points="259.5431,-919.5 259.5431,-949.5 490.5431,-949.5 490.5431,-919.5 259.5431,-919.5"/>
<text text-anchor="start" x="266.5431" y="-930.9" font-family="Arial" font-size="14.00" fill="#000000">behavior_name    </text>
<text text-anchor="start" x="397.2191" y="-930.9" font-family="Arial" font-size="14.00" fill="#666666">[TEXT]</text>
<polygon fill="none" stroke="#000000" points="259.5431,-889.5 259.5431,-919.5 490.5431,-919.5 490.5431,-889.5 259.5431,-889.5"/>
<text text-anchor="start" x="266.5431" y="-900.9" font-family="Arial" font-size="14.00" fill="#000000">behavior_conf_json    </text>
<text text-anchor="start" x="422.1209" y="-900.9" font-family="Arial" font-size="14.00" fill="#666666">[TEXT]</text>
<polygon fill="none" stroke="#000000" points="259.5431,-859.5 259.5431,-889.5 490.5431,-889.5 490.5431,-859.5 259.5431,-859.5"/>
<text text-anchor="start" x="266.1427" y="-870.9" font-family="Arial" font-size="14.00" fill="#000000">assurance_schema_id    </text>
<text text-anchor="start" x="440.3839" y="-870.9" font-family="Arial" font-size="14.00" fill="#666666">[TEXT]</text>
<polygon fill="none" stroke="#000000" points="259.5431,-829.5 259.5431,-859.5 490.5431,-859.5 490.5431,-829.5 259.5431,-829.5"/>
<text text-anchor="start" x="266.5431" y="-840.9" font-family="Arial" font-size="14.00" fill="#000000">governance    </text>
<text text-anchor="start" x="373.8867" y="-840.9" font-family="Arial" font-size="14.00" fill="#666666">[TEXT]</text>
<polygon fill="none" stroke="#000000" points="259.5431,-799.5 259.5431,-829.5 490.5431,-829.5 490.5431,-799.5 259.5431,-799.5"/>
<text text-anchor="start" x="266.5431" y="-810.9" font-family="Arial" font-size="14.00" fill="#000000">created_at    </text>
<text text-anchor="start" x="366.8853" y="-810.9" font-family="Arial" font-size="14.00" fill="#666666">[TIMESTAMP]</text>
<polygon fill="none" stroke="#000000" points="259.5431,-769.5 259.5431,-799.5 490.5431,-799.5 490.5431,-769.5 259.5431,-769.5"/>
<text text-anchor="start" x="266.5431" y="-780.9" font-family="Arial" font-size="14.00" fill="#000000">created_by    </text>
<text text-anchor="start" x="369.9947" y="-780.9" font-family="Arial" font-size="14.00" fill="#666666">[TEXT]</text>
<polygon fill="none" stroke="#000000" points="259.5431,-739.5 259.5431,-769.5 490.5431,-769.5 490.5431,-739.5 259.5431,-739.5"/>
<text text-anchor="start" x="266.5431" y="-750.9" font-family="Arial" font-size="14.00" fill="#000000">updated_at    </text>
<text text-anchor="start" x="370.7899" y="-750.9" font-family="Arial" font-size="14.00" fill="#666666">[TIMESTAMP]</text>
<polygon fill="none" stroke="#000000" points="259.5431,-709.5 259.5431,-739.5 490.5431,-739.5 490.5431,-709.5 259.5431,-709.5"/>
<text text-anchor="start" x="266.5431" y="-720.9" font-family="Arial" font-size="14.00" fill="#000000">updated_by    </text>
<text text-anchor="start" x="373.8993" y="-720.9" font-family="Arial" font-size="14.00" fill="#666666">[TEXT]</text>
<polygon fill="none" stroke="#000000" points="259.5431,-679.5 259.5431,-709.5 490.5431,-709.5 490.5431,-679.5 259.5431,-679.5"/>
<text text-anchor="start" x="266.5431" y="-690.9" font-family="Arial" font-size="14.00" fill="#000000">deleted_at    </text>
<text text-anchor="start" x="366.1139" y="-690.9" font-family="Arial" font-size="14.00" fill="#666666">[TIMESTAMP]</text>
<polygon fill="none" stroke="#000000" points="259.5431,-649.5 259.5431,-679.5 490.5431,-679.5 490.5431,-649.5 259.5431,-649.5"/>
<text text-anchor="start" x="266.5431" y="-660.9" font-family="Arial" font-size="14.00" fill="#000000">deleted_by    </text>
<text text-anchor="start" x="369.2233" y="-660.9" font-family="Arial" font-size="14.00" fill="#666666">[TEXT]</text>
<polygon fill="none" stroke="#000000" points="259.5431,-619.5 259.5431,-649.5 490.5431,-649.5 490.5431,-619.5 259.5431,-619.5"/>
<text text-anchor="start" x="266.5431" y="-630.9" font-family="Arial" font-size="14.00" fill="#000000">activity_log    </text>
<text text-anchor="start" x="369.9793" y="-630.9" font-family="Arial" font-size="14.00" fill="#666666">[TEXT]</text>
</g>
<!-- ur_walk_session&#45;&gt;behavior -->
<g id="edge9" class="edge">
<title>ur_walk_session:behavior_id&#45;&gt;behavior:behavior_id</title>
<path fill="none" stroke="#000000" d="M297.534,-1509.9197C224.048,-1485.5967 255.0882,-1187.7793 307.5431,-1124 360.1969,-1059.979 437.8894,-1152.021 490.5431,-1088 516.9395,-1055.9049 532.0987,-994.5 490.5431,-994.5"/>
<polygon fill="#000000" stroke="#000000" points="297.6655,-1509.9404 306.8413,-1515.9449 302.6043,-1510.7202 307.5431,-1511.5 307.5431,-1511.5 307.5431,-1511.5 302.6043,-1510.7202 308.245,-1507.0551 297.6655,-1509.9404 297.6655,-1509.9404"/>
</g>
<!-- ur_walk_session_path&#45;&gt;ur_walk_session -->
<g id="edge8" class="edge">
<title>ur_walk_session_path:walk_session_id&#45;&gt;ur_walk_session:ur_walk_session_id</title>
<path fill="none" stroke="#000000" d="M286.5736,-2026.6078C226.2698,-2002.4054 251.1873,-1753.2957 296.5431,-1701 370.6707,-1615.5301 474.4155,-1750.4699 548.5431,-1665 575.7704,-1633.6067 590.0987,-1571.5 548.5431,-1571.5"/>
<polygon fill="#000000" stroke="#000000" points="286.7185,-2026.6353 295.704,-2032.9211 291.6308,-2027.5676 296.5431,-2028.5 296.5431,-2028.5 296.5431,-2028.5 291.6308,-2027.5676 297.3823,-2024.0789 286.7185,-2026.6353 286.7185,-2026.6353"/>
</g>
<!-- behavior&#45;&gt;device -->
<g id="edge5" class="edge">
<title>behavior:device_id&#45;&gt;device:device_id</title>
<path fill="none" stroke="#000000" d="M250.4436,-959.712C203.5884,-907.5922 217.3378,-447.5 271.5431,-447.5"/>
<polygon fill="#000000" stroke="#000000" points="250.6934,-959.8434 257.4477,-968.4824 255.1183,-962.1717 259.5431,-964.5 259.5431,-964.5 259.5431,-964.5 255.1183,-962.1717 261.6386,-960.5176 250.6934,-959.8434 250.6934,-959.8434"/>
</g>
</g>
</svg>
