<?xml version="1.0" encoding="UTF-8" standalone="no"?>
<!DOCTYPE svg PUBLIC "-//W3C//DTD SVG 1.1//EN"
 "http://www.w3.org/Graphics/SVG/1.1/DTD/svg11.dtd">
<!-- Generated by graphviz version 2.40.1 (20161225.0304)
 -->
<!-- Title: uniform_resource Pages: 1 -->
<svg width="915pt" height="3710pt"
 viewBox="0.00 0.00 915.43 3710.00" xmlns="http://www.w3.org/2000/svg" xmlns:xlink="http://www.w3.org/1999/xlink">
<g id="graph0" class="graph" transform="scale(1 1) rotate(0) translate(4 3706)">
<title>uniform_resource</title>
<polygon fill="#ffffff" stroke="transparent" points="-4,4 -4,-3706 911.429,-3706 911.429,4 -4,4"/>
<!-- uniform_resource -->
<g id="node1" class="node">
<title>uniform_resource</title>
<polygon fill="#efefef" stroke="transparent" points="210,-2833.5 210,-2868.5 436,-2868.5 436,-2833.5 210,-2833.5"/>
<polygon fill="none" stroke="#000000" points="210,-2833.5 210,-2868.5 436,-2868.5 436,-2833.5 210,-2833.5"/>
<text text-anchor="start" x="216.8271" y="-2846.3" font-family="Arial Bold" font-size="18.00" fill="#000000">uniform_resource</text>
<text text-anchor="start" x="356.8419" y="-2846.3" font-family="Arial" font-size="14.00" fill="#000000">    </text>
<text text-anchor="start" x="391.0467" y="-2846.3" font-family="Arial" font-size="14.00" fill="#666666">[table]</text>
<polygon fill="none" stroke="#000000" points="210,-2803.5 210,-2833.5 436,-2833.5 436,-2803.5 210,-2803.5"/>
<text text-anchor="start" x="217" y="-2814.9" font-family="Arial" font-size="14.00" fill="#000000">uniform_resource_id </text>
<text text-anchor="start" x="348.4628" y="-2814.9" font-family="Arial" font-size="14.00" fill="#666666">[ULID]</text>
<polygon fill="none" stroke="#000000" points="210,-2773.5 210,-2803.5 436,-2803.5 436,-2773.5 210,-2773.5"/>
<text text-anchor="start" x="217" y="-2784.9" font-family="Arial" font-size="14.00" fill="#000000">device_id </text>
<text text-anchor="start" x="280.0168" y="-2784.9" font-family="Arial" font-size="14.00" fill="#666666">[ULID]</text>
<polygon fill="none" stroke="#000000" points="210,-2743.5 210,-2773.5 436,-2773.5 436,-2743.5 210,-2743.5"/>
<text text-anchor="start" x="217" y="-2754.9" font-family="Arial" font-size="14.00" fill="#000000">walk_session_id </text>
<text text-anchor="start" x="322.7952" y="-2754.9" font-family="Arial" font-size="14.00" fill="#666666">[ULID]</text>
<polygon fill="none" stroke="#000000" points="210,-2713.5 210,-2743.5 436,-2743.5 436,-2713.5 210,-2713.5"/>
<text text-anchor="start" x="217" y="-2724.9" font-family="Arial" font-size="14.00" fill="#000000">walk_path_id </text>
<text text-anchor="start" x="302.5792" y="-2724.9" font-family="Arial" font-size="14.00" fill="#666666">[ULID]</text>
<polygon fill="none" stroke="#000000" points="210,-2683.5 210,-2713.5 436,-2713.5 436,-2683.5 210,-2683.5"/>
<text text-anchor="start" x="217" y="-2694.9" font-family="Arial" font-size="14.00" fill="#000000">uri </text>
<text text-anchor="start" x="236.4404" y="-2694.9" font-family="Arial" font-size="14.00" fill="#666666">[TEXT]</text>
<polygon fill="none" stroke="#000000" points="210,-2653.5 210,-2683.5 436,-2683.5 436,-2653.5 210,-2653.5"/>
<text text-anchor="start" x="217" y="-2664.9" font-family="Arial" font-size="14.00" fill="#000000">content_digest </text>
<text text-anchor="start" x="311.9298" y="-2664.9" font-family="Arial" font-size="14.00" fill="#666666">[TEXT]</text>
<polygon fill="none" stroke="#000000" points="210,-2623.5 210,-2653.5 436,-2653.5 436,-2623.5 210,-2623.5"/>
<text text-anchor="start" x="217" y="-2634.9" font-family="Arial" font-size="14.00" fill="#000000">content </text>
<text text-anchor="start" x="266.8022" y="-2634.9" font-family="Arial" font-size="14.00" fill="#666666">[BLOB]</text>
<polygon fill="none" stroke="#000000" points="210,-2593.5 210,-2623.5 436,-2623.5 436,-2593.5 210,-2593.5"/>
<text text-anchor="start" x="217" y="-2604.9" font-family="Arial" font-size="14.00" fill="#000000">nature </text>
<text text-anchor="start" x="260.5722" y="-2604.9" font-family="Arial" font-size="14.00" fill="#666666">[TEXT]</text>
<polygon fill="none" stroke="#000000" points="210,-2563.5 210,-2593.5 436,-2593.5 436,-2563.5 210,-2563.5"/>
<text text-anchor="start" x="217" y="-2574.9" font-family="Arial" font-size="14.00" fill="#000000">size_bytes </text>
<text text-anchor="start" x="287.0182" y="-2574.9" font-family="Arial" font-size="14.00" fill="#666666">[INTEGER]</text>
<polygon fill="none" stroke="#000000" points="210,-2533.5 210,-2563.5 436,-2563.5 436,-2533.5 210,-2533.5"/>
<text text-anchor="start" x="217" y="-2544.9" font-family="Arial" font-size="14.00" fill="#000000">last_modified_at </text>
<text text-anchor="start" x="322.8036" y="-2544.9" font-family="Arial" font-size="14.00" fill="#666666">[INTEGER]</text>
<polygon fill="none" stroke="#000000" points="210,-2503.5 210,-2533.5 436,-2533.5 436,-2503.5 210,-2503.5"/>
<text text-anchor="start" x="217" y="-2514.9" font-family="Arial" font-size="14.00" fill="#000000">content_fm_body_attrs </text>
<text text-anchor="start" x="363.2734" y="-2514.9" font-family="Arial" font-size="14.00" fill="#666666">[TEXT]</text>
<polygon fill="none" stroke="#000000" points="210,-2473.5 210,-2503.5 436,-2503.5 436,-2473.5 210,-2473.5"/>
<text text-anchor="start" x="217" y="-2484.9" font-family="Arial" font-size="14.00" fill="#000000">frontmatter </text>
<text text-anchor="start" x="288.5652" y="-2484.9" font-family="Arial" font-size="14.00" fill="#666666">[TEXT]</text>
<polygon fill="none" stroke="#000000" points="210,-2443.5 210,-2473.5 436,-2473.5 436,-2443.5 210,-2443.5"/>
<text text-anchor="start" x="217" y="-2454.9" font-family="Arial" font-size="14.00" fill="#000000">elaboration </text>
<text text-anchor="start" x="290.1332" y="-2454.9" font-family="Arial" font-size="14.00" fill="#666666">[TEXT]</text>
<polygon fill="none" stroke="#000000" points="210,-2413.5 210,-2443.5 436,-2443.5 436,-2413.5 210,-2413.5"/>
<text text-anchor="start" x="217" y="-2424.9" font-family="Arial" font-size="14.00" fill="#000000">created_at </text>
<text text-anchor="start" x="287.028" y="-2424.9" font-family="Arial" font-size="14.00" fill="#666666">[TIMESTAMP]</text>
<polygon fill="none" stroke="#000000" points="210,-2383.5 210,-2413.5 436,-2413.5 436,-2383.5 210,-2383.5"/>
<text text-anchor="start" x="217" y="-2394.9" font-family="Arial" font-size="14.00" fill="#000000">created_by </text>
<text text-anchor="start" x="290.1374" y="-2394.9" font-family="Arial" font-size="14.00" fill="#666666">[TEXT]</text>
<polygon fill="none" stroke="#000000" points="210,-2353.5 210,-2383.5 436,-2383.5 436,-2353.5 210,-2353.5"/>
<text text-anchor="start" x="217" y="-2364.9" font-family="Arial" font-size="14.00" fill="#000000">updated_at </text>
<text text-anchor="start" x="290.9326" y="-2364.9" font-family="Arial" font-size="14.00" fill="#666666">[TIMESTAMP]</text>
<polygon fill="none" stroke="#000000" points="210,-2323.5 210,-2353.5 436,-2353.5 436,-2323.5 210,-2323.5"/>
<text text-anchor="start" x="217" y="-2334.9" font-family="Arial" font-size="14.00" fill="#000000">updated_by </text>
<text text-anchor="start" x="294.042" y="-2334.9" font-family="Arial" font-size="14.00" fill="#666666">[TEXT]</text>
<polygon fill="none" stroke="#000000" points="210,-2293.5 210,-2323.5 436,-2323.5 436,-2293.5 210,-2293.5"/>
<text text-anchor="start" x="217" y="-2304.9" font-family="Arial" font-size="14.00" fill="#000000">deleted_at </text>
<text text-anchor="start" x="286.2566" y="-2304.9" font-family="Arial" font-size="14.00" fill="#666666">[TIMESTAMP]</text>
<polygon fill="none" stroke="#000000" points="210,-2263.5 210,-2293.5 436,-2293.5 436,-2263.5 210,-2263.5"/>
<text text-anchor="start" x="217" y="-2274.9" font-family="Arial" font-size="14.00" fill="#000000">deleted_by </text>
<text text-anchor="start" x="289.366" y="-2274.9" font-family="Arial" font-size="14.00" fill="#666666">[TEXT]</text>
<polygon fill="none" stroke="#000000" points="210,-2233.5 210,-2263.5 436,-2263.5 436,-2233.5 210,-2233.5"/>
<text text-anchor="start" x="217" y="-2244.9" font-family="Arial" font-size="14.00" fill="#000000">activity_log </text>
<text text-anchor="start" x="290.122" y="-2244.9" font-family="Arial" font-size="14.00" fill="#666666">[TEXT]</text>
<polygon fill="none" stroke="#000000" stroke-width="3" points="208.5,-2232.5 208.5,-2870.5 437.5,-2870.5 437.5,-2232.5 208.5,-2232.5"/>
</g>
<!-- ur_walk_session -->
<g id="node4" class="node">
<title>ur_walk_session</title>
<polygon fill="#efefef" stroke="transparent" points="405,-1586.5 405,-1621.5 646,-1621.5 646,-1586.5 405,-1586.5"/>
<polygon fill="none" stroke="#000000" points="405,-1586.5 405,-1621.5 646,-1621.5 646,-1586.5 405,-1586.5"/>
<text text-anchor="start" x="422.8254" y="-1599.3" font-family="Arial Bold" font-size="18.00" fill="#000000">ur_walk_session</text>
<text text-anchor="start" x="555.8436" y="-1599.3" font-family="Arial" font-size="14.00" fill="#000000">    </text>
<text text-anchor="start" x="590.0484" y="-1599.3" font-family="Arial" font-size="14.00" fill="#666666">[table]</text>
<polygon fill="none" stroke="#000000" points="405,-1556.5 405,-1586.5 646,-1586.5 646,-1556.5 405,-1556.5"/>
<text text-anchor="start" x="412" y="-1567.9" font-family="Arial" font-size="14.00" fill="#000000">ur_walk_session_id    </text>
<text text-anchor="start" x="568.3352" y="-1567.9" font-family="Arial" font-size="14.00" fill="#666666">[ULID]</text>
<polygon fill="none" stroke="#000000" points="405,-1526.5 405,-1556.5 646,-1556.5 646,-1526.5 405,-1526.5"/>
<text text-anchor="start" x="412" y="-1537.9" font-family="Arial" font-size="14.00" fill="#000000">device_id    </text>
<text text-anchor="start" x="505.331" y="-1537.9" font-family="Arial" font-size="14.00" fill="#666666">[ULID]</text>
<polygon fill="none" stroke="#000000" points="405,-1496.5 405,-1526.5 646,-1526.5 646,-1496.5 405,-1496.5"/>
<text text-anchor="start" x="412" y="-1507.9" font-family="Arial" font-size="14.00" fill="#000000">behavior_id    </text>
<text text-anchor="start" x="518.5568" y="-1507.9" font-family="Arial" font-size="14.00" fill="#666666">[ULID]</text>
<polygon fill="none" stroke="#000000" points="405,-1466.5 405,-1496.5 646,-1496.5 646,-1466.5 405,-1466.5"/>
<text text-anchor="start" x="412" y="-1477.9" font-family="Arial" font-size="14.00" fill="#000000">behavior_json    </text>
<text text-anchor="start" x="533.3394" y="-1477.9" font-family="Arial" font-size="14.00" fill="#666666">[TEXT]</text>
<polygon fill="none" stroke="#000000" points="405,-1436.5 405,-1466.5 646,-1466.5 646,-1436.5 405,-1436.5"/>
<text text-anchor="start" x="412" y="-1447.9" font-family="Arial" font-size="14.00" fill="#000000">walk_started_at    </text>
<text text-anchor="start" x="544.2286" y="-1447.9" font-family="Arial" font-size="14.00" fill="#666666">[TIMESTAMP]</text>
<polygon fill="none" stroke="#000000" points="405,-1406.5 405,-1436.5 646,-1436.5 646,-1406.5 405,-1406.5"/>
<text text-anchor="start" x="411.9411" y="-1417.9" font-family="Arial" font-size="14.00" fill="#000000">walk_finished_at    </text>
<text text-anchor="start" x="549.6143" y="-1417.9" font-family="Arial" font-size="14.00" fill="#666666">[TIMESTAMP]</text>
<polygon fill="none" stroke="#000000" points="405,-1376.5 405,-1406.5 646,-1406.5 646,-1376.5 405,-1376.5"/>
<text text-anchor="start" x="412" y="-1387.9" font-family="Arial" font-size="14.00" fill="#000000">elaboration    </text>
<text text-anchor="start" x="515.4474" y="-1387.9" font-family="Arial" font-size="14.00" fill="#666666">[TEXT]</text>
<polygon fill="none" stroke="#000000" points="405,-1346.5 405,-1376.5 646,-1376.5 646,-1346.5 405,-1346.5"/>
<text text-anchor="start" x="412" y="-1357.9" font-family="Arial" font-size="14.00" fill="#000000">created_at    </text>
<text text-anchor="start" x="512.3422" y="-1357.9" font-family="Arial" font-size="14.00" fill="#666666">[TIMESTAMP]</text>
<polygon fill="none" stroke="#000000" points="405,-1316.5 405,-1346.5 646,-1346.5 646,-1316.5 405,-1316.5"/>
<text text-anchor="start" x="412" y="-1327.9" font-family="Arial" font-size="14.00" fill="#000000">created_by    </text>
<text text-anchor="start" x="515.4516" y="-1327.9" font-family="Arial" font-size="14.00" fill="#666666">[TEXT]</text>
<polygon fill="none" stroke="#000000" points="405,-1286.5 405,-1316.5 646,-1316.5 646,-1286.5 405,-1286.5"/>
<text text-anchor="start" x="412" y="-1297.9" font-family="Arial" font-size="14.00" fill="#000000">updated_at    </text>
<text text-anchor="start" x="516.2468" y="-1297.9" font-family="Arial" font-size="14.00" fill="#666666">[TIMESTAMP]</text>
<polygon fill="none" stroke="#000000" points="405,-1256.5 405,-1286.5 646,-1286.5 646,-1256.5 405,-1256.5"/>
<text text-anchor="start" x="412" y="-1267.9" font-family="Arial" font-size="14.00" fill="#000000">updated_by    </text>
<text text-anchor="start" x="519.3562" y="-1267.9" font-family="Arial" font-size="14.00" fill="#666666">[TEXT]</text>
<polygon fill="none" stroke="#000000" points="405,-1226.5 405,-1256.5 646,-1256.5 646,-1226.5 405,-1226.5"/>
<text text-anchor="start" x="412" y="-1237.9" font-family="Arial" font-size="14.00" fill="#000000">deleted_at    </text>
<text text-anchor="start" x="511.5708" y="-1237.9" font-family="Arial" font-size="14.00" fill="#666666">[TIMESTAMP]</text>
<polygon fill="none" stroke="#000000" points="405,-1196.5 405,-1226.5 646,-1226.5 646,-1196.5 405,-1196.5"/>
<text text-anchor="start" x="412" y="-1207.9" font-family="Arial" font-size="14.00" fill="#000000">deleted_by    </text>
<text text-anchor="start" x="514.6802" y="-1207.9" font-family="Arial" font-size="14.00" fill="#666666">[TEXT]</text>
<polygon fill="none" stroke="#000000" points="405,-1166.5 405,-1196.5 646,-1196.5 646,-1166.5 405,-1166.5"/>
<text text-anchor="start" x="412" y="-1177.9" font-family="Arial" font-size="14.00" fill="#000000">activity_log    </text>
<text text-anchor="start" x="515.4362" y="-1177.9" font-family="Arial" font-size="14.00" fill="#666666">[TEXT]</text>
</g>
<!-- uniform_resource&#45;&gt;ur_walk_session -->
<g id="edge8" class="edge">
<title>uniform_resource:walk_session_id&#45;&gt;ur_walk_session:ur_walk_session_id</title>
<path fill="none" stroke="#000000" d="M445.2824,-2754.3205C496.4687,-2705.1344 470.0296,-2237.4724 436,-2188 410.6466,-2151.141 367.3534,-2188.859 342,-2152 285.2016,-2069.4262 319.5041,-1798.6649 342,-1701 356.3666,-1638.6282 340.995,-1571.5 405,-1571.5"/>
<polygon fill="#000000" stroke="#000000" points="445.1183,-2754.3944 434.1525,-2754.3967 440.5592,-2756.4472 436,-2758.5 436,-2758.5 436,-2758.5 440.5592,-2756.4472 437.8475,-2762.6033 445.1183,-2754.3944 445.1183,-2754.3944"/>
</g>
<!-- ur_walk_session_path -->
<g id="node5" class="node">
<title>ur_walk_session_path</title>
<polygon fill="#efefef" stroke="transparent" points="394,-2073.5 394,-2108.5 658,-2108.5 658,-2073.5 394,-2073.5"/>
<polygon fill="none" stroke="#000000" points="394,-2073.5 394,-2108.5 658,-2108.5 658,-2073.5 394,-2073.5"/>
<text text-anchor="start" x="400.8119" y="-2086.3" font-family="Arial Bold" font-size="18.00" fill="#000000">ur_walk_session_path</text>
<text text-anchor="start" x="578.8571" y="-2086.3" font-family="Arial" font-size="14.00" fill="#000000">    </text>
<text text-anchor="start" x="613.0619" y="-2086.3" font-family="Arial" font-size="14.00" fill="#666666">[table]</text>
<polygon fill="none" stroke="#000000" points="394,-2043.5 394,-2073.5 658,-2073.5 658,-2043.5 394,-2043.5"/>
<text text-anchor="start" x="401" y="-2054.9" font-family="Arial" font-size="14.00" fill="#000000">ur_walk_session_path_id    </text>
<text text-anchor="start" x="592.3562" y="-2054.9" font-family="Arial" font-size="14.00" fill="#666666">[ULID]</text>
<polygon fill="none" stroke="#000000" points="394,-2013.5 394,-2043.5 658,-2043.5 658,-2013.5 394,-2013.5"/>
<text text-anchor="start" x="401" y="-2024.9" font-family="Arial" font-size="14.00" fill="#000000">walk_session_id    </text>
<text text-anchor="start" x="537.1094" y="-2024.9" font-family="Arial" font-size="14.00" fill="#666666">[ULID]</text>
<polygon fill="none" stroke="#000000" points="394,-1983.5 394,-2013.5 658,-2013.5 658,-1983.5 394,-1983.5"/>
<text text-anchor="start" x="401" y="-1994.9" font-family="Arial" font-size="14.00" fill="#000000">root_path    </text>
<text text-anchor="start" x="494.3422" y="-1994.9" font-family="Arial" font-size="14.00" fill="#666666">[TEXT]</text>
<polygon fill="none" stroke="#000000" points="394,-1953.5 394,-1983.5 658,-1983.5 658,-1953.5 394,-1953.5"/>
<text text-anchor="start" x="401" y="-1964.9" font-family="Arial" font-size="14.00" fill="#000000">elaboration    </text>
<text text-anchor="start" x="504.4474" y="-1964.9" font-family="Arial" font-size="14.00" fill="#666666">[TEXT]</text>
<polygon fill="none" stroke="#000000" points="394,-1923.5 394,-1953.5 658,-1953.5 658,-1923.5 394,-1923.5"/>
<text text-anchor="start" x="401" y="-1934.9" font-family="Arial" font-size="14.00" fill="#000000">created_at    </text>
<text text-anchor="start" x="501.3422" y="-1934.9" font-family="Arial" font-size="14.00" fill="#666666">[TIMESTAMP]</text>
<polygon fill="none" stroke="#000000" points="394,-1893.5 394,-1923.5 658,-1923.5 658,-1893.5 394,-1893.5"/>
<text text-anchor="start" x="401" y="-1904.9" font-family="Arial" font-size="14.00" fill="#000000">created_by    </text>
<text text-anchor="start" x="504.4516" y="-1904.9" font-family="Arial" font-size="14.00" fill="#666666">[TEXT]</text>
<polygon fill="none" stroke="#000000" points="394,-1863.5 394,-1893.5 658,-1893.5 658,-1863.5 394,-1863.5"/>
<text text-anchor="start" x="401" y="-1874.9" font-family="Arial" font-size="14.00" fill="#000000">updated_at    </text>
<text text-anchor="start" x="505.2468" y="-1874.9" font-family="Arial" font-size="14.00" fill="#666666">[TIMESTAMP]</text>
<polygon fill="none" stroke="#000000" points="394,-1833.5 394,-1863.5 658,-1863.5 658,-1833.5 394,-1833.5"/>
<text text-anchor="start" x="401" y="-1844.9" font-family="Arial" font-size="14.00" fill="#000000">updated_by    </text>
<text text-anchor="start" x="508.3562" y="-1844.9" font-family="Arial" font-size="14.00" fill="#666666">[TEXT]</text>
<polygon fill="none" stroke="#000000" points="394,-1803.5 394,-1833.5 658,-1833.5 658,-1803.5 394,-1803.5"/>
<text text-anchor="start" x="401" y="-1814.9" font-family="Arial" font-size="14.00" fill="#000000">deleted_at    </text>
<text text-anchor="start" x="500.5708" y="-1814.9" font-family="Arial" font-size="14.00" fill="#666666">[TIMESTAMP]</text>
<polygon fill="none" stroke="#000000" points="394,-1773.5 394,-1803.5 658,-1803.5 658,-1773.5 394,-1773.5"/>
<text text-anchor="start" x="401" y="-1784.9" font-family="Arial" font-size="14.00" fill="#000000">deleted_by    </text>
<text text-anchor="start" x="503.6802" y="-1784.9" font-family="Arial" font-size="14.00" fill="#666666">[TEXT]</text>
<polygon fill="none" stroke="#000000" points="394,-1743.5 394,-1773.5 658,-1773.5 658,-1743.5 394,-1743.5"/>
<text text-anchor="start" x="401" y="-1754.9" font-family="Arial" font-size="14.00" fill="#000000">activity_log    </text>
<text text-anchor="start" x="504.4362" y="-1754.9" font-family="Arial" font-size="14.00" fill="#666666">[TEXT]</text>
</g>
<!-- uniform_resource&#45;&gt;ur_walk_session_path -->
<g id="edge11" class="edge">
<title>uniform_resource:walk_path_id&#45;&gt;ur_walk_session_path:ur_walk_session_path_id</title>
<path fill="none" stroke="#000000" d="M446.0726,-2727.4082C552.0311,-2703.5006 484.7189,-2293.9255 436,-2188 425.7268,-2165.6638 404.2732,-2174.3362 394,-2152 376.6357,-2114.2462 352.4444,-2058.5 394,-2058.5"/>
<polygon fill="#000000" stroke="#000000" points="445.9418,-2727.4223 435.515,-2724.0262 440.9709,-2727.9611 436,-2728.5 436,-2728.5 436,-2728.5 440.9709,-2727.9611 436.485,-2732.9738 445.9418,-2727.4223 445.9418,-2727.4223"/>
</g>
<!-- device -->
<g id="node6" class="node">
<title>device</title>
<polygon fill="#efefef" stroke="transparent" points="369,-462.5 369,-497.5 576,-497.5 576,-462.5 369,-462.5"/>
<polygon fill="none" stroke="#000000" points="369,-462.5 369,-497.5 576,-497.5 576,-462.5 369,-462.5"/>
<text text-anchor="start" x="410.3281" y="-475.3" font-family="Arial Bold" font-size="18.00" fill="#000000">device</text>
<text text-anchor="start" x="462.3409" y="-475.3" font-family="Arial" font-size="14.00" fill="#000000">    </text>
<text text-anchor="start" x="496.5457" y="-475.3" font-family="Arial" font-size="14.00" fill="#666666">[table]</text>
<polygon fill="none" stroke="#000000" points="369,-432.5 369,-462.5 576,-462.5 576,-432.5 369,-432.5"/>
<text text-anchor="start" x="376" y="-443.9" font-family="Arial" font-size="14.00" fill="#000000">device_id    </text>
<text text-anchor="start" x="469.331" y="-443.9" font-family="Arial" font-size="14.00" fill="#666666">[ULID]</text>
<polygon fill="none" stroke="#000000" points="369,-402.5 369,-432.5 576,-432.5 576,-402.5 369,-402.5"/>
<text text-anchor="start" x="376" y="-413.9" font-family="Arial" font-size="14.00" fill="#000000">name    </text>
<text text-anchor="start" x="445.2132" y="-413.9" font-family="Arial" font-size="14.00" fill="#666666">[TEXT]</text>
<polygon fill="none" stroke="#000000" points="369,-372.5 369,-402.5 576,-402.5 576,-372.5 369,-372.5"/>
<text text-anchor="start" x="376" y="-383.9" font-family="Arial" font-size="14.00" fill="#000000">state    </text>
<text text-anchor="start" x="440.5512" y="-383.9" font-family="Arial" font-size="14.00" fill="#666666">[TEXT]</text>
<polygon fill="none" stroke="#000000" points="369,-342.5 369,-372.5 576,-372.5 576,-342.5 369,-342.5"/>
<text text-anchor="start" x="376" y="-353.9" font-family="Arial" font-size="14.00" fill="#000000">boundary    </text>
<text text-anchor="start" x="468.561" y="-353.9" font-family="Arial" font-size="14.00" fill="#666666">[TEXT]</text>
<polygon fill="none" stroke="#000000" points="369,-312.5 369,-342.5 576,-342.5 576,-312.5 369,-312.5"/>
<text text-anchor="start" x="376" y="-323.9" font-family="Arial" font-size="14.00" fill="#000000">segmentation    </text>
<text text-anchor="start" x="494.2314" y="-323.9" font-family="Arial" font-size="14.00" fill="#666666">[TEXT]</text>
<polygon fill="none" stroke="#000000" points="369,-282.5 369,-312.5 576,-312.5 576,-282.5 369,-282.5"/>
<text text-anchor="start" x="376" y="-293.9" font-family="Arial" font-size="14.00" fill="#000000">state_sysinfo    </text>
<text text-anchor="start" x="491.8962" y="-293.9" font-family="Arial" font-size="14.00" fill="#666666">[TEXT]</text>
<polygon fill="none" stroke="#000000" points="369,-252.5 369,-282.5 576,-282.5 576,-252.5 369,-252.5"/>
<text text-anchor="start" x="376" y="-263.9" font-family="Arial" font-size="14.00" fill="#000000">elaboration    </text>
<text text-anchor="start" x="479.4474" y="-263.9" font-family="Arial" font-size="14.00" fill="#666666">[TEXT]</text>
<polygon fill="none" stroke="#000000" points="369,-222.5 369,-252.5 576,-252.5 576,-222.5 369,-222.5"/>
<text text-anchor="start" x="376" y="-233.9" font-family="Arial" font-size="14.00" fill="#000000">created_at    </text>
<text text-anchor="start" x="476.3422" y="-233.9" font-family="Arial" font-size="14.00" fill="#666666">[TIMESTAMP]</text>
<polygon fill="none" stroke="#000000" points="369,-192.5 369,-222.5 576,-222.5 576,-192.5 369,-192.5"/>
<text text-anchor="start" x="376" y="-203.9" font-family="Arial" font-size="14.00" fill="#000000">created_by    </text>
<text text-anchor="start" x="479.4516" y="-203.9" font-family="Arial" font-size="14.00" fill="#666666">[TEXT]</text>
<polygon fill="none" stroke="#000000" points="369,-162.5 369,-192.5 576,-192.5 576,-162.5 369,-162.5"/>
<text text-anchor="start" x="375.6543" y="-173.9" font-family="Arial" font-size="14.00" fill="#000000">updated_at    </text>
<text text-anchor="start" x="479.9011" y="-173.9" font-family="Arial" font-size="14.00" fill="#666666">[TIMESTAMP]</text>
<polygon fill="none" stroke="#000000" points="369,-132.5 369,-162.5 576,-162.5 576,-132.5 369,-132.5"/>
<text text-anchor="start" x="376" y="-143.9" font-family="Arial" font-size="14.00" fill="#000000">updated_by    </text>
<text text-anchor="start" x="483.3562" y="-143.9" font-family="Arial" font-size="14.00" fill="#666666">[TEXT]</text>
<polygon fill="none" stroke="#000000" points="369,-102.5 369,-132.5 576,-132.5 576,-102.5 369,-102.5"/>
<text text-anchor="start" x="376" y="-113.9" font-family="Arial" font-size="14.00" fill="#000000">deleted_at    </text>
<text text-anchor="start" x="475.5708" y="-113.9" font-family="Arial" font-size="14.00" fill="#666666">[TIMESTAMP]</text>
<polygon fill="none" stroke="#000000" points="369,-72.5 369,-102.5 576,-102.5 576,-72.5 369,-72.5"/>
<text text-anchor="start" x="376" y="-83.9" font-family="Arial" font-size="14.00" fill="#000000">deleted_by    </text>
<text text-anchor="start" x="478.6802" y="-83.9" font-family="Arial" font-size="14.00" fill="#666666">[TEXT]</text>
<polygon fill="none" stroke="#000000" points="369,-42.5 369,-72.5 576,-72.5 576,-42.5 369,-42.5"/>
<text text-anchor="start" x="376" y="-53.9" font-family="Arial" font-size="14.00" fill="#000000">activity_log    </text>
<text text-anchor="start" x="479.4362" y="-53.9" font-family="Arial" font-size="14.00" fill="#666666">[TEXT]</text>
</g>
<!-- uniform_resource&#45;&gt;device -->
<g id="edge5" class="edge">
<title>uniform_resource:device_id&#45;&gt;device:device_id</title>
<path fill="none" stroke="#000000" d="M199.9068,-2787.2901C-46.5003,-2727.1813 111.7267,-447.5 369,-447.5"/>
<polygon fill="#000000" stroke="#000000" points="200.0711,-2787.3097 209.4644,-2792.968 205.0355,-2787.9048 210,-2788.5 210,-2788.5 210,-2788.5 205.0355,-2787.9048 210.5356,-2784.032 200.0711,-2787.3097 200.0711,-2787.3097"/>
</g>
<!-- uniform_resource_transform -->
<g id="node2" class="node">
<title>uniform_resource_transform</title>
<polygon fill="#efefef" stroke="transparent" points="43,-3533.5 43,-3568.5 355,-3568.5 355,-3533.5 43,-3533.5"/>
<polygon fill="none" stroke="#000000" points="43,-3533.5 43,-3568.5 355,-3568.5 355,-3533.5 43,-3533.5"/>
<text text-anchor="start" x="49.8242" y="-3546.3" font-family="Arial Bold" font-size="18.00" fill="#000000">uniform_resource_transform</text>
<text text-anchor="start" x="275.8448" y="-3546.3" font-family="Arial" font-size="14.00" fill="#000000">    </text>
<text text-anchor="start" x="310.0496" y="-3546.3" font-family="Arial" font-size="14.00" fill="#666666">[table]</text>
<polygon fill="none" stroke="#000000" points="43,-3503.5 43,-3533.5 355,-3533.5 355,-3503.5 43,-3503.5"/>
<text text-anchor="start" x="50" y="-3514.9" font-family="Arial" font-size="14.00" fill="#000000">uniform_resource_transform_id    </text>
<text text-anchor="start" x="278.6704" y="-3514.9" font-family="Arial" font-size="14.00" fill="#666666">[ULID]</text>
<polygon fill="none" stroke="#000000" points="43,-3473.5 43,-3503.5 355,-3503.5 355,-3473.5 43,-3473.5"/>
<text text-anchor="start" x="50" y="-3484.9" font-family="Arial" font-size="14.00" fill="#000000">uniform_resource_id    </text>
<text text-anchor="start" x="211.777" y="-3484.9" font-family="Arial" font-size="14.00" fill="#666666">[ULID]</text>
<polygon fill="none" stroke="#000000" points="43,-3443.5 43,-3473.5 355,-3473.5 355,-3443.5 43,-3443.5"/>
<text text-anchor="start" x="50" y="-3454.9" font-family="Arial" font-size="14.00" fill="#000000">uri    </text>
<text text-anchor="start" x="99.7546" y="-3454.9" font-family="Arial" font-size="14.00" fill="#666666">[TEXT]</text>
<polygon fill="none" stroke="#000000" points="43,-3413.5 43,-3443.5 355,-3443.5 355,-3413.5 43,-3413.5"/>
<text text-anchor="start" x="50" y="-3424.9" font-family="Arial" font-size="14.00" fill="#000000">content_digest    </text>
<text text-anchor="start" x="175.244" y="-3424.9" font-family="Arial" font-size="14.00" fill="#666666">[TEXT]</text>
<polygon fill="none" stroke="#000000" points="43,-3383.5 43,-3413.5 355,-3413.5 355,-3383.5 43,-3383.5"/>
<text text-anchor="start" x="50" y="-3394.9" font-family="Arial" font-size="14.00" fill="#000000">content    </text>
<text text-anchor="start" x="130.1164" y="-3394.9" font-family="Arial" font-size="14.00" fill="#666666">[BLOB]</text>
<polygon fill="none" stroke="#000000" points="43,-3353.5 43,-3383.5 355,-3383.5 355,-3353.5 43,-3353.5"/>
<text text-anchor="start" x="50" y="-3364.9" font-family="Arial" font-size="14.00" fill="#000000">nature    </text>
<text text-anchor="start" x="123.8864" y="-3364.9" font-family="Arial" font-size="14.00" fill="#666666">[TEXT]</text>
<polygon fill="none" stroke="#000000" points="43,-3323.5 43,-3353.5 355,-3353.5 355,-3323.5 43,-3323.5"/>
<text text-anchor="start" x="50" y="-3334.9" font-family="Arial" font-size="14.00" fill="#000000">size_bytes    </text>
<text text-anchor="start" x="150.3324" y="-3334.9" font-family="Arial" font-size="14.00" fill="#666666">[INTEGER]</text>
<polygon fill="none" stroke="#000000" points="43,-3293.5 43,-3323.5 355,-3323.5 355,-3293.5 43,-3293.5"/>
<text text-anchor="start" x="50" y="-3304.9" font-family="Arial" font-size="14.00" fill="#000000">elaboration    </text>
<text text-anchor="start" x="153.4474" y="-3304.9" font-family="Arial" font-size="14.00" fill="#666666">[TEXT]</text>
<polygon fill="none" stroke="#000000" points="43,-3263.5 43,-3293.5 355,-3293.5 355,-3263.5 43,-3263.5"/>
<text text-anchor="start" x="50" y="-3274.9" font-family="Arial" font-size="14.00" fill="#000000">created_at    </text>
<text text-anchor="start" x="150.3422" y="-3274.9" font-family="Arial" font-size="14.00" fill="#666666">[TIMESTAMP]</text>
<polygon fill="none" stroke="#000000" points="43,-3233.5 43,-3263.5 355,-3263.5 355,-3233.5 43,-3233.5"/>
<text text-anchor="start" x="50" y="-3244.9" font-family="Arial" font-size="14.00" fill="#000000">created_by    </text>
<text text-anchor="start" x="153.4516" y="-3244.9" font-family="Arial" font-size="14.00" fill="#666666">[TEXT]</text>
<polygon fill="none" stroke="#000000" points="43,-3203.5 43,-3233.5 355,-3233.5 355,-3203.5 43,-3203.5"/>
<text text-anchor="start" x="50" y="-3214.9" font-family="Arial" font-size="14.00" fill="#000000">updated_at    </text>
<text text-anchor="start" x="154.2468" y="-3214.9" font-family="Arial" font-size="14.00" fill="#666666">[TIMESTAMP]</text>
<polygon fill="none" stroke="#000000" points="43,-3173.5 43,-3203.5 355,-3203.5 355,-3173.5 43,-3173.5"/>
<text text-anchor="start" x="50" y="-3184.9" font-family="Arial" font-size="14.00" fill="#000000">updated_by    </text>
<text text-anchor="start" x="157.3562" y="-3184.9" font-family="Arial" font-size="14.00" fill="#666666">[TEXT]</text>
<polygon fill="none" stroke="#000000" points="43,-3143.5 43,-3173.5 355,-3173.5 355,-3143.5 43,-3143.5"/>
<text text-anchor="start" x="50" y="-3154.9" font-family="Arial" font-size="14.00" fill="#000000">deleted_at    </text>
<text text-anchor="start" x="149.5708" y="-3154.9" font-family="Arial" font-size="14.00" fill="#666666">[TIMESTAMP]</text>
<polygon fill="none" stroke="#000000" points="43,-3113.5 43,-3143.5 355,-3143.5 355,-3113.5 43,-3113.5"/>
<text text-anchor="start" x="50" y="-3124.9" font-family="Arial" font-size="14.00" fill="#000000">deleted_by    </text>
<text text-anchor="start" x="152.6802" y="-3124.9" font-family="Arial" font-size="14.00" fill="#666666">[TEXT]</text>
<polygon fill="none" stroke="#000000" points="43,-3083.5 43,-3113.5 355,-3113.5 355,-3083.5 43,-3083.5"/>
<text text-anchor="start" x="50" y="-3094.9" font-family="Arial" font-size="14.00" fill="#000000">activity_log    </text>
<text text-anchor="start" x="153.4362" y="-3094.9" font-family="Arial" font-size="14.00" fill="#666666">[TEXT]</text>
</g>
<!-- uniform_resource_transform&#45;&gt;uniform_resource -->
<g id="edge1" class="edge">
<title>uniform_resource_transform:uniform_resource_id&#45;&gt;uniform_resource:uniform_resource_id</title>
<path fill="none" stroke="#000000" d="M363.8884,-3483.4007C400.8949,-3436.6496 374.2541,-3083.239 355,-3041 319.588,-2963.3143 245.412,-2992.6857 210,-2915 192.2107,-2875.9744 167.1111,-2818.5 210,-2818.5"/>
<polygon fill="#000000" stroke="#000000" points="363.674,-3483.5237 352.7607,-3484.5967 359.337,-3486.0119 355,-3488.5 355,-3488.5 355,-3488.5 359.337,-3486.0119 357.2393,-3492.4033 363.674,-3483.5237 363.674,-3483.5237"/>
</g>
<!-- ur_walk_session_path_fs_entry -->
<g id="node3" class="node">
<title>ur_walk_session_path_fs_entry</title>
<polygon fill="#efefef" stroke="transparent" points="459,-3623.5 459,-3658.5 797,-3658.5 797,-3623.5 459,-3623.5"/>
<polygon fill="none" stroke="#000000" points="459,-3623.5 459,-3658.5 797,-3658.5 797,-3623.5 459,-3623.5"/>
<text text-anchor="start" x="465.8012" y="-3636.3" font-family="Arial Bold" font-size="18.00" fill="#000000">ur_walk_session_path_fs_entry</text>
<text text-anchor="start" x="717.8678" y="-3636.3" font-family="Arial" font-size="14.00" fill="#000000">    </text>
<text text-anchor="start" x="752.0726" y="-3636.3" font-family="Arial" font-size="14.00" fill="#666666">[table]</text>
<polygon fill="none" stroke="#000000" points="459,-3593.5 459,-3623.5 797,-3623.5 797,-3593.5 459,-3593.5"/>
<text text-anchor="start" x="466" y="-3604.9" font-family="Arial" font-size="14.00" fill="#000000">ur_walk_session_path_fs_entry_id    </text>
<text text-anchor="start" x="714.9284" y="-3604.9" font-family="Arial" font-size="14.00" fill="#666666">[ULID]</text>
<polygon fill="none" stroke="#000000" points="459,-3563.5 459,-3593.5 797,-3593.5 797,-3563.5 459,-3563.5"/>
<text text-anchor="start" x="466" y="-3574.9" font-family="Arial" font-size="14.00" fill="#000000">walk_session_id    </text>
<text text-anchor="start" x="602.1094" y="-3574.9" font-family="Arial" font-size="14.00" fill="#666666">[ULID]</text>
<polygon fill="none" stroke="#000000" points="459,-3533.5 459,-3563.5 797,-3563.5 797,-3533.5 459,-3533.5"/>
<text text-anchor="start" x="466" y="-3544.9" font-family="Arial" font-size="14.00" fill="#000000">walk_path_id    </text>
<text text-anchor="start" x="581.8934" y="-3544.9" font-family="Arial" font-size="14.00" fill="#666666">[ULID]</text>
<polygon fill="none" stroke="#000000" points="459,-3503.5 459,-3533.5 797,-3533.5 797,-3503.5 459,-3503.5"/>
<text text-anchor="start" x="466" y="-3514.9" font-family="Arial" font-size="14.00" fill="#000000">uniform_resource_id    </text>
<text text-anchor="start" x="627.777" y="-3514.9" font-family="Arial" font-size="14.00" fill="#666666">[ULID]</text>
<polygon fill="none" stroke="#000000" points="459,-3473.5 459,-3503.5 797,-3503.5 797,-3473.5 459,-3473.5"/>
<text text-anchor="start" x="466" y="-3484.9" font-family="Arial" font-size="14.00" fill="#000000">file_path_abs    </text>
<text text-anchor="start" x="583.46" y="-3484.9" font-family="Arial" font-size="14.00" fill="#666666">[TEXT]</text>
<polygon fill="none" stroke="#000000" points="459,-3443.5 459,-3473.5 797,-3473.5 797,-3443.5 459,-3443.5"/>
<text text-anchor="start" x="466" y="-3454.9" font-family="Arial" font-size="14.00" fill="#000000">file_path_rel_parent    </text>
<text text-anchor="start" x="623.9088" y="-3454.9" font-family="Arial" font-size="14.00" fill="#666666">[TEXT]</text>
<polygon fill="none" stroke="#000000" points="459,-3413.5 459,-3443.5 797,-3443.5 797,-3413.5 459,-3413.5"/>
<text text-anchor="start" x="466" y="-3424.9" font-family="Arial" font-size="14.00" fill="#000000">file_path_rel    </text>
<text text-anchor="start" x="576.4446" y="-3424.9" font-family="Arial" font-size="14.00" fill="#666666">[TEXT]</text>
<polygon fill="none" stroke="#000000" points="459,-3383.5 459,-3413.5 797,-3413.5 797,-3383.5 459,-3383.5"/>
<text text-anchor="start" x="466" y="-3394.9" font-family="Arial" font-size="14.00" fill="#000000">file_basename    </text>
<text text-anchor="start" x="591.23" y="-3394.9" font-family="Arial" font-size="14.00" fill="#666666">[TEXT]</text>
<polygon fill="none" stroke="#000000" points="459,-3353.5 459,-3383.5 797,-3383.5 797,-3353.5 459,-3353.5"/>
<text text-anchor="start" x="466" y="-3364.9" font-family="Arial" font-size="14.00" fill="#000000">file_extn    </text>
<text text-anchor="start" x="552.3296" y="-3364.9" font-family="Arial" font-size="14.00" fill="#666666">[TEXT]</text>
<polygon fill="none" stroke="#000000" points="459,-3323.5 459,-3353.5 797,-3353.5 797,-3323.5 459,-3323.5"/>
<text text-anchor="start" x="466" y="-3334.9" font-family="Arial" font-size="14.00" fill="#000000">captured_executable    </text>
<text text-anchor="start" x="630.1444" y="-3334.9" font-family="Arial" font-size="14.00" fill="#666666">[TEXT]</text>
<polygon fill="none" stroke="#000000" points="459,-3293.5 459,-3323.5 797,-3323.5 797,-3293.5 459,-3293.5"/>
<text text-anchor="start" x="466" y="-3304.9" font-family="Arial" font-size="14.00" fill="#000000">ur_status    </text>
<text text-anchor="start" x="557.777" y="-3304.9" font-family="Arial" font-size="14.00" fill="#666666">[TEXT]</text>
<polygon fill="none" stroke="#000000" points="459,-3263.5 459,-3293.5 797,-3293.5 797,-3263.5 459,-3263.5"/>
<text text-anchor="start" x="466" y="-3274.9" font-family="Arial" font-size="14.00" fill="#000000">ur_diagnostics    </text>
<text text-anchor="start" x="590.4474" y="-3274.9" font-family="Arial" font-size="14.00" fill="#666666">[TEXT]</text>
<polygon fill="none" stroke="#000000" points="459,-3233.5 459,-3263.5 797,-3263.5 797,-3233.5 459,-3233.5"/>
<text text-anchor="start" x="466" y="-3244.9" font-family="Arial" font-size="14.00" fill="#000000">ur_transformations    </text>
<text text-anchor="start" x="616.8864" y="-3244.9" font-family="Arial" font-size="14.00" fill="#666666">[TEXT]</text>
<polygon fill="none" stroke="#000000" points="459,-3203.5 459,-3233.5 797,-3233.5 797,-3203.5 459,-3203.5"/>
<text text-anchor="start" x="466" y="-3214.9" font-family="Arial" font-size="14.00" fill="#000000">elaboration    </text>
<text text-anchor="start" x="569.4474" y="-3214.9" font-family="Arial" font-size="14.00" fill="#666666">[TEXT]</text>
<polygon fill="none" stroke="#000000" points="459,-3173.5 459,-3203.5 797,-3203.5 797,-3173.5 459,-3173.5"/>
<text text-anchor="start" x="466" y="-3184.9" font-family="Arial" font-size="14.00" fill="#000000">created_at    </text>
<text text-anchor="start" x="566.3422" y="-3184.9" font-family="Arial" font-size="14.00" fill="#666666">[TIMESTAMP]</text>
<polygon fill="none" stroke="#000000" points="459,-3143.5 459,-3173.5 797,-3173.5 797,-3143.5 459,-3143.5"/>
<text text-anchor="start" x="466" y="-3154.9" font-family="Arial" font-size="14.00" fill="#000000">created_by    </text>
<text text-anchor="start" x="569.4516" y="-3154.9" font-family="Arial" font-size="14.00" fill="#666666">[TEXT]</text>
<polygon fill="none" stroke="#000000" points="459,-3113.5 459,-3143.5 797,-3143.5 797,-3113.5 459,-3113.5"/>
<text text-anchor="start" x="466" y="-3124.9" font-family="Arial" font-size="14.00" fill="#000000">updated_at    </text>
<text text-anchor="start" x="570.2468" y="-3124.9" font-family="Arial" font-size="14.00" fill="#666666">[TIMESTAMP]</text>
<polygon fill="none" stroke="#000000" points="459,-3083.5 459,-3113.5 797,-3113.5 797,-3083.5 459,-3083.5"/>
<text text-anchor="start" x="466" y="-3094.9" font-family="Arial" font-size="14.00" fill="#000000">updated_by    </text>
<text text-anchor="start" x="573.3562" y="-3094.9" font-family="Arial" font-size="14.00" fill="#666666">[TEXT]</text>
<polygon fill="none" stroke="#000000" points="459,-3053.5 459,-3083.5 797,-3083.5 797,-3053.5 459,-3053.5"/>
<text text-anchor="start" x="466" y="-3064.9" font-family="Arial" font-size="14.00" fill="#000000">deleted_at    </text>
<text text-anchor="start" x="565.5708" y="-3064.9" font-family="Arial" font-size="14.00" fill="#666666">[TIMESTAMP]</text>
<polygon fill="none" stroke="#000000" points="459,-3023.5 459,-3053.5 797,-3053.5 797,-3023.5 459,-3023.5"/>
<text text-anchor="start" x="466" y="-3034.9" font-family="Arial" font-size="14.00" fill="#000000">deleted_by    </text>
<text text-anchor="start" x="568.6802" y="-3034.9" font-family="Arial" font-size="14.00" fill="#666666">[TEXT]</text>
<polygon fill="none" stroke="#000000" points="459,-2993.5 459,-3023.5 797,-3023.5 797,-2993.5 459,-2993.5"/>
<text text-anchor="start" x="466" y="-3004.9" font-family="Arial" font-size="14.00" fill="#000000">activity_log    </text>
<text text-anchor="start" x="569.4362" y="-3004.9" font-family="Arial" font-size="14.00" fill="#666666">[TEXT]</text>
</g>
<!-- ur_walk_session_path_fs_entry&#45;&gt;uniform_resource -->
<g id="edge2" class="edge">
<title>ur_walk_session_path_fs_entry:uniform_resource_id&#45;&gt;uniform_resource:uniform_resource_id</title>
<path fill="none" stroke="#000000" d="M452.757,-3510.6387C426.5765,-3433.7344 472.478,-2818.5 436,-2818.5"/>
<polygon fill="#000000" stroke="#000000" points="452.781,-3510.6689 455.476,-3521.2985 455.8905,-3514.5845 459,-3518.5 459,-3518.5 459,-3518.5 455.8905,-3514.5845 462.524,-3515.7015 452.781,-3510.6689 452.781,-3510.6689"/>
</g>
<!-- ur_walk_session_path_fs_entry&#45;&gt;ur_walk_session -->
<g id="edge3" class="edge">
<title>ur_walk_session_path_fs_entry:walk_session_id&#45;&gt;ur_walk_session:ur_walk_session_id</title>
<path fill="none" stroke="#000000" d="M807.2094,-3577.0453C1015.8938,-3516.2712 866.136,-1571.5 646,-1571.5"/>
<polygon fill="#000000" stroke="#000000" points="806.9,-3577.0893 796.3652,-3574.045 801.95,-3577.7947 797,-3578.5 797,-3578.5 797,-3578.5 801.95,-3577.7947 797.6348,-3582.955 806.9,-3577.0893 806.9,-3577.0893"/>
</g>
<!-- ur_walk_session_path_fs_entry&#45;&gt;ur_walk_session_path -->
<g id="edge4" class="edge">
<title>ur_walk_session_path_fs_entry:walk_path_id&#45;&gt;ur_walk_session_path:ur_walk_session_path_id</title>
<path fill="none" stroke="#000000" d="M449.7139,-3544.4898C396.908,-3495.3396 436.6048,-3009.9039 459,-2951 466.6077,-2930.9902 481.2847,-2934.0758 491,-2915 648.5419,-2605.6687 620.6725,-2497.126 658,-2152 662.4684,-2110.6854 699.5556,-2058.5 658,-2058.5"/>
<polygon fill="#000000" stroke="#000000" points="449.8195,-3544.5353 457.2159,-3552.6312 454.4097,-3546.5177 459,-3548.5 459,-3548.5 459,-3548.5 454.4097,-3546.5177 460.7841,-3544.3688 449.8195,-3544.5353 449.8195,-3544.5353"/>
</g>
<!-- ur_walk_session&#45;&gt;device -->
<g id="edge7" class="edge">
<title>ur_walk_session:device_id&#45;&gt;device:device_id</title>
<path fill="none" stroke="#000000" d="M656.1603,-1540.8481C887.591,-1510.7369 816.1587,-447.5 576,-447.5"/>
<polygon fill="#000000" stroke="#000000" points="655.9795,-1540.8597 645.7118,-1537.0092 650.9897,-1541.1798 646,-1541.5 646,-1541.5 646,-1541.5 650.9897,-1541.1798 646.2882,-1545.9908 655.9795,-1540.8597 655.9795,-1540.8597"/>
</g>
<!-- behavior -->
<g id="node7" class="node">
<title>behavior</title>
<polygon fill="#efefef" stroke="transparent" points="357,-1009.5 357,-1044.5 588,-1044.5 588,-1009.5 357,-1009.5"/>
<polygon fill="none" stroke="#000000" points="357,-1009.5 357,-1044.5 588,-1044.5 588,-1009.5 357,-1009.5"/>
<text text-anchor="start" x="401.8258" y="-1022.3" font-family="Arial Bold" font-size="18.00" fill="#000000">behavior</text>
<text text-anchor="start" x="470.8432" y="-1022.3" font-family="Arial" font-size="14.00" fill="#000000">    </text>
<text text-anchor="start" x="505.048" y="-1022.3" font-family="Arial" font-size="14.00" fill="#666666">[table]</text>
<polygon fill="none" stroke="#000000" points="357,-979.5 357,-1009.5 588,-1009.5 588,-979.5 357,-979.5"/>
<text text-anchor="start" x="364" y="-990.9" font-family="Arial" font-size="14.00" fill="#000000">behavior_id    </text>
<text text-anchor="start" x="470.5568" y="-990.9" font-family="Arial" font-size="14.00" fill="#666666">[ULID]</text>
<polygon fill="none" stroke="#000000" points="357,-949.5 357,-979.5 588,-979.5 588,-949.5 357,-949.5"/>
<text text-anchor="start" x="364" y="-960.9" font-family="Arial" font-size="14.00" fill="#000000">device_id    </text>
<text text-anchor="start" x="457.331" y="-960.9" font-family="Arial" font-size="14.00" fill="#666666">[ULID]</text>
<polygon fill="none" stroke="#000000" points="357,-919.5 357,-949.5 588,-949.5 588,-919.5 357,-919.5"/>
<text text-anchor="start" x="364" y="-930.9" font-family="Arial" font-size="14.00" fill="#000000">behavior_name    </text>
<text text-anchor="start" x="494.676" y="-930.9" font-family="Arial" font-size="14.00" fill="#666666">[TEXT]</text>
<polygon fill="none" stroke="#000000" points="357,-889.5 357,-919.5 588,-919.5 588,-889.5 357,-889.5"/>
<text text-anchor="start" x="364" y="-900.9" font-family="Arial" font-size="14.00" fill="#000000">behavior_conf_json    </text>
<text text-anchor="start" x="519.5778" y="-900.9" font-family="Arial" font-size="14.00" fill="#666666">[TEXT]</text>
<polygon fill="none" stroke="#000000" points="357,-859.5 357,-889.5 588,-889.5 588,-859.5 357,-859.5"/>
<text text-anchor="start" x="363.5996" y="-870.9" font-family="Arial" font-size="14.00" fill="#000000">assurance_schema_id    </text>
<text text-anchor="start" x="537.8408" y="-870.9" font-family="Arial" font-size="14.00" fill="#666666">[TEXT]</text>
<polygon fill="none" stroke="#000000" points="357,-829.5 357,-859.5 588,-859.5 588,-829.5 357,-829.5"/>
<text text-anchor="start" x="364" y="-840.9" font-family="Arial" font-size="14.00" fill="#000000">governance    </text>
<text text-anchor="start" x="471.3436" y="-840.9" font-family="Arial" font-size="14.00" fill="#666666">[TEXT]</text>
<polygon fill="none" stroke="#000000" points="357,-799.5 357,-829.5 588,-829.5 588,-799.5 357,-799.5"/>
<text text-anchor="start" x="364" y="-810.9" font-family="Arial" font-size="14.00" fill="#000000">created_at    </text>
<text text-anchor="start" x="464.3422" y="-810.9" font-family="Arial" font-size="14.00" fill="#666666">[TIMESTAMP]</text>
<polygon fill="none" stroke="#000000" points="357,-769.5 357,-799.5 588,-799.5 588,-769.5 357,-769.5"/>
<text text-anchor="start" x="364" y="-780.9" font-family="Arial" font-size="14.00" fill="#000000">created_by    </text>
<text text-anchor="start" x="467.4516" y="-780.9" font-family="Arial" font-size="14.00" fill="#666666">[TEXT]</text>
<polygon fill="none" stroke="#000000" points="357,-739.5 357,-769.5 588,-769.5 588,-739.5 357,-739.5"/>
<text text-anchor="start" x="364" y="-750.9" font-family="Arial" font-size="14.00" fill="#000000">updated_at    </text>
<text text-anchor="start" x="468.2468" y="-750.9" font-family="Arial" font-size="14.00" fill="#666666">[TIMESTAMP]</text>
<polygon fill="none" stroke="#000000" points="357,-709.5 357,-739.5 588,-739.5 588,-709.5 357,-709.5"/>
<text text-anchor="start" x="364" y="-720.9" font-family="Arial" font-size="14.00" fill="#000000">updated_by    </text>
<text text-anchor="start" x="471.3562" y="-720.9" font-family="Arial" font-size="14.00" fill="#666666">[TEXT]</text>
<polygon fill="none" stroke="#000000" points="357,-679.5 357,-709.5 588,-709.5 588,-679.5 357,-679.5"/>
<text text-anchor="start" x="364" y="-690.9" font-family="Arial" font-size="14.00" fill="#000000">deleted_at    </text>
<text text-anchor="start" x="463.5708" y="-690.9" font-family="Arial" font-size="14.00" fill="#666666">[TIMESTAMP]</text>
<polygon fill="none" stroke="#000000" points="357,-649.5 357,-679.5 588,-679.5 588,-649.5 357,-649.5"/>
<text text-anchor="start" x="364" y="-660.9" font-family="Arial" font-size="14.00" fill="#000000">deleted_by    </text>
<text text-anchor="start" x="466.6802" y="-660.9" font-family="Arial" font-size="14.00" fill="#666666">[TEXT]</text>
<polygon fill="none" stroke="#000000" points="357,-619.5 357,-649.5 588,-649.5 588,-619.5 357,-619.5"/>
<text text-anchor="start" x="364" y="-630.9" font-family="Arial" font-size="14.00" fill="#000000">activity_log    </text>
<text text-anchor="start" x="467.4362" y="-630.9" font-family="Arial" font-size="14.00" fill="#666666">[TEXT]</text>
</g>
<!-- ur_walk_session&#45;&gt;behavior -->
<g id="edge10" class="edge">
<title>ur_walk_session:behavior_id&#45;&gt;behavior:behavior_id</title>
<path fill="none" stroke="#000000" d="M394.9909,-1509.9197C321.5049,-1485.5967 352.545,-1187.7793 405,-1124 457.6538,-1059.979 535.3462,-1152.021 588,-1088 614.3964,-1055.9049 629.5556,-994.5 588,-994.5"/>
<polygon fill="#000000" stroke="#000000" points="395.1224,-1509.9404 404.2982,-1515.9449 400.0612,-1510.7202 405,-1511.5 405,-1511.5 405,-1511.5 400.0612,-1510.7202 405.7018,-1507.0551 395.1224,-1509.9404 395.1224,-1509.9404"/>
</g>
<!-- ur_walk_session_path&#45;&gt;ur_walk_session -->
<g id="edge9" class="edge">
<title>ur_walk_session_path:walk_session_id&#45;&gt;ur_walk_session:ur_walk_session_id</title>
<path fill="none" stroke="#000000" d="M384.0305,-2026.6078C323.7266,-2002.4054 348.6442,-1753.2957 394,-1701 468.1276,-1615.5301 571.8724,-1750.4699 646,-1665 673.2273,-1633.6067 687.5556,-1571.5 646,-1571.5"/>
<polygon fill="#000000" stroke="#000000" points="384.1754,-2026.6353 393.1609,-2032.9211 389.0877,-2027.5676 394,-2028.5 394,-2028.5 394,-2028.5 389.0877,-2027.5676 394.8391,-2024.0789 384.1754,-2026.6353 384.1754,-2026.6353"/>
</g>
<!-- behavior&#45;&gt;device -->
<g id="edge6" class="edge">
<title>behavior:device_id&#45;&gt;device:device_id</title>
<path fill="none" stroke="#000000" d="M347.9005,-959.712C301.0453,-907.5922 314.7946,-447.5 369,-447.5"/>
<polygon fill="#000000" stroke="#000000" points="348.1503,-959.8434 354.9046,-968.4824 352.5751,-962.1717 357,-964.5 357,-964.5 357,-964.5 352.5751,-962.1717 359.0954,-960.5176 348.1503,-959.8434 348.1503,-959.8434"/>
</g>
</g>
</svg>
