<?xml version="1.0" encoding="UTF-8" standalone="no"?>
<!DOCTYPE svg PUBLIC "-//W3C//DTD SVG 1.1//EN"
 "http://www.w3.org/Graphics/SVG/1.1/DTD/svg11.dtd">
<!-- Generated by graphviz version 2.40.1 (20161225.0304)
 -->
<!-- Title: uniform_resource_transform Pages: 1 -->
<svg width="1015pt" height="2063pt"
 viewBox="0.00 0.00 1014.50 2063.00" xmlns="http://www.w3.org/2000/svg" xmlns:xlink="http://www.w3.org/1999/xlink">
<g id="graph0" class="graph" transform="scale(1 1) rotate(0) translate(4 2059)">
<title>uniform_resource_transform</title>
<polygon fill="#ffffff" stroke="transparent" points="-4,4 -4,-2059 1010.5,-2059 1010.5,4 -4,4"/>
<!-- uniform_resource_transform -->
<g id="node1" class="node">
<title>uniform_resource_transform</title>
<polygon fill="#efefef" stroke="transparent" points="103.5,-1901.5 103.5,-1936.5 415.5,-1936.5 415.5,-1901.5 103.5,-1901.5"/>
<polygon fill="none" stroke="#000000" points="103.5,-1901.5 103.5,-1936.5 415.5,-1936.5 415.5,-1901.5 103.5,-1901.5"/>
<text text-anchor="start" x="110.3242" y="-1914.3" font-family="Arial Bold" font-size="18.00" fill="#000000">uniform_resource_transform</text>
<text text-anchor="start" x="336.3448" y="-1914.3" font-family="Arial" font-size="14.00" fill="#000000">    </text>
<text text-anchor="start" x="370.5496" y="-1914.3" font-family="Arial" font-size="14.00" fill="#666666">[table]</text>
<polygon fill="none" stroke="#000000" points="103.5,-1871.5 103.5,-1901.5 415.5,-1901.5 415.5,-1871.5 103.5,-1871.5"/>
<text text-anchor="start" x="110.5" y="-1882.9" font-family="Arial" font-size="14.00" fill="#000000">uniform_resource_transform_id </text>
<text text-anchor="start" x="308.8562" y="-1882.9" font-family="Arial" font-size="14.00" fill="#666666">[ULID]</text>
<polygon fill="none" stroke="#000000" points="103.5,-1841.5 103.5,-1871.5 415.5,-1871.5 415.5,-1841.5 103.5,-1841.5"/>
<text text-anchor="start" x="110.5" y="-1852.9" font-family="Arial" font-size="14.00" fill="#000000">uniform_resource_id </text>
<text text-anchor="start" x="241.9628" y="-1852.9" font-family="Arial" font-size="14.00" fill="#666666">[ULID]</text>
<polygon fill="none" stroke="#000000" points="103.5,-1811.5 103.5,-1841.5 415.5,-1841.5 415.5,-1811.5 103.5,-1811.5"/>
<text text-anchor="start" x="110.5" y="-1822.9" font-family="Arial" font-size="14.00" fill="#000000">uri </text>
<text text-anchor="start" x="129.9404" y="-1822.9" font-family="Arial" font-size="14.00" fill="#666666">[TEXT]</text>
<polygon fill="none" stroke="#000000" points="103.5,-1781.5 103.5,-1811.5 415.5,-1811.5 415.5,-1781.5 103.5,-1781.5"/>
<text text-anchor="start" x="110.5" y="-1792.9" font-family="Arial" font-size="14.00" fill="#000000">content_digest </text>
<text text-anchor="start" x="205.4298" y="-1792.9" font-family="Arial" font-size="14.00" fill="#666666">[TEXT]</text>
<polygon fill="none" stroke="#000000" points="103.5,-1751.5 103.5,-1781.5 415.5,-1781.5 415.5,-1751.5 103.5,-1751.5"/>
<text text-anchor="start" x="110.5" y="-1762.9" font-family="Arial" font-size="14.00" fill="#000000">content </text>
<text text-anchor="start" x="160.3022" y="-1762.9" font-family="Arial" font-size="14.00" fill="#666666">[BLOB]</text>
<polygon fill="none" stroke="#000000" points="103.5,-1721.5 103.5,-1751.5 415.5,-1751.5 415.5,-1721.5 103.5,-1721.5"/>
<text text-anchor="start" x="110.5" y="-1732.9" font-family="Arial" font-size="14.00" fill="#000000">nature </text>
<text text-anchor="start" x="154.0722" y="-1732.9" font-family="Arial" font-size="14.00" fill="#666666">[TEXT]</text>
<polygon fill="none" stroke="#000000" points="103.5,-1691.5 103.5,-1721.5 415.5,-1721.5 415.5,-1691.5 103.5,-1691.5"/>
<text text-anchor="start" x="110.5" y="-1702.9" font-family="Arial" font-size="14.00" fill="#000000">size_bytes </text>
<text text-anchor="start" x="180.5182" y="-1702.9" font-family="Arial" font-size="14.00" fill="#666666">[INTEGER]</text>
<polygon fill="none" stroke="#000000" points="103.5,-1661.5 103.5,-1691.5 415.5,-1691.5 415.5,-1661.5 103.5,-1661.5"/>
<text text-anchor="start" x="110.5" y="-1672.9" font-family="Arial" font-size="14.00" fill="#000000">elaboration </text>
<text text-anchor="start" x="183.6332" y="-1672.9" font-family="Arial" font-size="14.00" fill="#666666">[TEXT]</text>
<polygon fill="none" stroke="#000000" points="103.5,-1631.5 103.5,-1661.5 415.5,-1661.5 415.5,-1631.5 103.5,-1631.5"/>
<text text-anchor="start" x="110.5" y="-1642.9" font-family="Arial" font-size="14.00" fill="#000000">created_at </text>
<text text-anchor="start" x="180.528" y="-1642.9" font-family="Arial" font-size="14.00" fill="#666666">[TIMESTAMP]</text>
<polygon fill="none" stroke="#000000" points="103.5,-1601.5 103.5,-1631.5 415.5,-1631.5 415.5,-1601.5 103.5,-1601.5"/>
<text text-anchor="start" x="110.5" y="-1612.9" font-family="Arial" font-size="14.00" fill="#000000">created_by </text>
<text text-anchor="start" x="183.6374" y="-1612.9" font-family="Arial" font-size="14.00" fill="#666666">[TEXT]</text>
<polygon fill="none" stroke="#000000" points="103.5,-1571.5 103.5,-1601.5 415.5,-1601.5 415.5,-1571.5 103.5,-1571.5"/>
<text text-anchor="start" x="110.5" y="-1582.9" font-family="Arial" font-size="14.00" fill="#000000">updated_at </text>
<text text-anchor="start" x="184.4326" y="-1582.9" font-family="Arial" font-size="14.00" fill="#666666">[TIMESTAMP]</text>
<polygon fill="none" stroke="#000000" points="103.5,-1541.5 103.5,-1571.5 415.5,-1571.5 415.5,-1541.5 103.5,-1541.5"/>
<text text-anchor="start" x="110.5" y="-1552.9" font-family="Arial" font-size="14.00" fill="#000000">updated_by </text>
<text text-anchor="start" x="187.542" y="-1552.9" font-family="Arial" font-size="14.00" fill="#666666">[TEXT]</text>
<polygon fill="none" stroke="#000000" points="103.5,-1511.5 103.5,-1541.5 415.5,-1541.5 415.5,-1511.5 103.5,-1511.5"/>
<text text-anchor="start" x="110.5" y="-1522.9" font-family="Arial" font-size="14.00" fill="#000000">deleted_at </text>
<text text-anchor="start" x="179.7566" y="-1522.9" font-family="Arial" font-size="14.00" fill="#666666">[TIMESTAMP]</text>
<polygon fill="none" stroke="#000000" points="103.5,-1481.5 103.5,-1511.5 415.5,-1511.5 415.5,-1481.5 103.5,-1481.5"/>
<text text-anchor="start" x="110.5" y="-1492.9" font-family="Arial" font-size="14.00" fill="#000000">deleted_by </text>
<text text-anchor="start" x="182.866" y="-1492.9" font-family="Arial" font-size="14.00" fill="#666666">[TEXT]</text>
<polygon fill="none" stroke="#000000" points="103.5,-1451.5 103.5,-1481.5 415.5,-1481.5 415.5,-1451.5 103.5,-1451.5"/>
<text text-anchor="start" x="110.5" y="-1462.9" font-family="Arial" font-size="14.00" fill="#000000">activity_log </text>
<text text-anchor="start" x="183.622" y="-1462.9" font-family="Arial" font-size="14.00" fill="#666666">[TEXT]</text>
<polygon fill="none" stroke="#000000" stroke-width="3" points="102,-1450.5 102,-1938.5 417,-1938.5 417,-1450.5 102,-1450.5"/>
</g>
<!-- uniform_resource -->
<g id="node2" class="node">
<title>uniform_resource</title>
<polygon fill="#efefef" stroke="transparent" points="358.5,-1219.5 358.5,-1254.5 592.5,-1254.5 592.5,-1219.5 358.5,-1219.5"/>
<polygon fill="none" stroke="#000000" points="358.5,-1219.5 358.5,-1254.5 592.5,-1254.5 592.5,-1219.5 358.5,-1219.5"/>
<text text-anchor="start" x="369.3271" y="-1232.3" font-family="Arial Bold" font-size="18.00" fill="#000000">uniform_resource</text>
<text text-anchor="start" x="509.3419" y="-1232.3" font-family="Arial" font-size="14.00" fill="#000000">    </text>
<text text-anchor="start" x="543.5467" y="-1232.3" font-family="Arial" font-size="14.00" fill="#666666">[table]</text>
<polygon fill="none" stroke="#000000" points="358.5,-1189.5 358.5,-1219.5 592.5,-1219.5 592.5,-1189.5 358.5,-1189.5"/>
<text text-anchor="start" x="365.5" y="-1200.9" font-family="Arial" font-size="14.00" fill="#000000">uniform_resource_id    </text>
<text text-anchor="start" x="527.277" y="-1200.9" font-family="Arial" font-size="14.00" fill="#666666">[ULID]</text>
<polygon fill="none" stroke="#000000" points="358.5,-1159.5 358.5,-1189.5 592.5,-1189.5 592.5,-1159.5 358.5,-1159.5"/>
<text text-anchor="start" x="365.5" y="-1170.9" font-family="Arial" font-size="14.00" fill="#000000">device_id    </text>
<text text-anchor="start" x="458.831" y="-1170.9" font-family="Arial" font-size="14.00" fill="#666666">[ULID]</text>
<polygon fill="none" stroke="#000000" points="358.5,-1129.5 358.5,-1159.5 592.5,-1159.5 592.5,-1129.5 358.5,-1129.5"/>
<text text-anchor="start" x="365.5" y="-1140.9" font-family="Arial" font-size="14.00" fill="#000000">walk_session_id    </text>
<text text-anchor="start" x="501.6094" y="-1140.9" font-family="Arial" font-size="14.00" fill="#666666">[ULID]</text>
<polygon fill="none" stroke="#000000" points="358.5,-1099.5 358.5,-1129.5 592.5,-1129.5 592.5,-1099.5 358.5,-1099.5"/>
<text text-anchor="start" x="365.5" y="-1110.9" font-family="Arial" font-size="14.00" fill="#000000">walk_path_id    </text>
<text text-anchor="start" x="481.3934" y="-1110.9" font-family="Arial" font-size="14.00" fill="#666666">[ULID]</text>
<polygon fill="none" stroke="#000000" points="358.5,-1069.5 358.5,-1099.5 592.5,-1099.5 592.5,-1069.5 358.5,-1069.5"/>
<text text-anchor="start" x="365.5" y="-1080.9" font-family="Arial" font-size="14.00" fill="#000000">uri    </text>
<text text-anchor="start" x="415.2546" y="-1080.9" font-family="Arial" font-size="14.00" fill="#666666">[TEXT]</text>
<polygon fill="none" stroke="#000000" points="358.5,-1039.5 358.5,-1069.5 592.5,-1069.5 592.5,-1039.5 358.5,-1039.5"/>
<text text-anchor="start" x="365.5" y="-1050.9" font-family="Arial" font-size="14.00" fill="#000000">content_digest    </text>
<text text-anchor="start" x="490.744" y="-1050.9" font-family="Arial" font-size="14.00" fill="#666666">[TEXT]</text>
<polygon fill="none" stroke="#000000" points="358.5,-1009.5 358.5,-1039.5 592.5,-1039.5 592.5,-1009.5 358.5,-1009.5"/>
<text text-anchor="start" x="365.5" y="-1020.9" font-family="Arial" font-size="14.00" fill="#000000">content    </text>
<text text-anchor="start" x="445.6164" y="-1020.9" font-family="Arial" font-size="14.00" fill="#666666">[BLOB]</text>
<polygon fill="none" stroke="#000000" points="358.5,-979.5 358.5,-1009.5 592.5,-1009.5 592.5,-979.5 358.5,-979.5"/>
<text text-anchor="start" x="365.5" y="-990.9" font-family="Arial" font-size="14.00" fill="#000000">nature    </text>
<text text-anchor="start" x="439.3864" y="-990.9" font-family="Arial" font-size="14.00" fill="#666666">[TEXT]</text>
<polygon fill="none" stroke="#000000" points="358.5,-949.5 358.5,-979.5 592.5,-979.5 592.5,-949.5 358.5,-949.5"/>
<text text-anchor="start" x="365.5" y="-960.9" font-family="Arial" font-size="14.00" fill="#000000">size_bytes    </text>
<text text-anchor="start" x="465.8324" y="-960.9" font-family="Arial" font-size="14.00" fill="#666666">[INTEGER]</text>
<polygon fill="none" stroke="#000000" points="358.5,-919.5 358.5,-949.5 592.5,-949.5 592.5,-919.5 358.5,-919.5"/>
<text text-anchor="start" x="365.5" y="-930.9" font-family="Arial" font-size="14.00" fill="#000000">last_modified_at    </text>
<text text-anchor="start" x="501.6178" y="-930.9" font-family="Arial" font-size="14.00" fill="#666666">[INTEGER]</text>
<polygon fill="none" stroke="#000000" points="358.5,-889.5 358.5,-919.5 592.5,-919.5 592.5,-889.5 358.5,-889.5"/>
<text text-anchor="start" x="365.4264" y="-900.9" font-family="Arial" font-size="14.00" fill="#000000">content_fm_body_attrs    </text>
<text text-anchor="start" x="542.014" y="-900.9" font-family="Arial" font-size="14.00" fill="#666666">[TEXT]</text>
<polygon fill="none" stroke="#000000" points="358.5,-859.5 358.5,-889.5 592.5,-889.5 592.5,-859.5 358.5,-859.5"/>
<text text-anchor="start" x="365.5" y="-870.9" font-family="Arial" font-size="14.00" fill="#000000">frontmatter    </text>
<text text-anchor="start" x="467.3794" y="-870.9" font-family="Arial" font-size="14.00" fill="#666666">[TEXT]</text>
<polygon fill="none" stroke="#000000" points="358.5,-829.5 358.5,-859.5 592.5,-859.5 592.5,-829.5 358.5,-829.5"/>
<text text-anchor="start" x="365.5" y="-840.9" font-family="Arial" font-size="14.00" fill="#000000">elaboration    </text>
<text text-anchor="start" x="468.9474" y="-840.9" font-family="Arial" font-size="14.00" fill="#666666">[TEXT]</text>
<polygon fill="none" stroke="#000000" points="358.5,-799.5 358.5,-829.5 592.5,-829.5 592.5,-799.5 358.5,-799.5"/>
<text text-anchor="start" x="365.5" y="-810.9" font-family="Arial" font-size="14.00" fill="#000000">created_at    </text>
<text text-anchor="start" x="465.8422" y="-810.9" font-family="Arial" font-size="14.00" fill="#666666">[TIMESTAMP]</text>
<polygon fill="none" stroke="#000000" points="358.5,-769.5 358.5,-799.5 592.5,-799.5 592.5,-769.5 358.5,-769.5"/>
<text text-anchor="start" x="365.5" y="-780.9" font-family="Arial" font-size="14.00" fill="#000000">created_by    </text>
<text text-anchor="start" x="468.9516" y="-780.9" font-family="Arial" font-size="14.00" fill="#666666">[TEXT]</text>
<polygon fill="none" stroke="#000000" points="358.5,-739.5 358.5,-769.5 592.5,-769.5 592.5,-739.5 358.5,-739.5"/>
<text text-anchor="start" x="365.5" y="-750.9" font-family="Arial" font-size="14.00" fill="#000000">updated_at    </text>
<text text-anchor="start" x="469.7468" y="-750.9" font-family="Arial" font-size="14.00" fill="#666666">[TIMESTAMP]</text>
<polygon fill="none" stroke="#000000" points="358.5,-709.5 358.5,-739.5 592.5,-739.5 592.5,-709.5 358.5,-709.5"/>
<text text-anchor="start" x="365.5" y="-720.9" font-family="Arial" font-size="14.00" fill="#000000">updated_by    </text>
<text text-anchor="start" x="472.8562" y="-720.9" font-family="Arial" font-size="14.00" fill="#666666">[TEXT]</text>
<polygon fill="none" stroke="#000000" points="358.5,-679.5 358.5,-709.5 592.5,-709.5 592.5,-679.5 358.5,-679.5"/>
<text text-anchor="start" x="365.5" y="-690.9" font-family="Arial" font-size="14.00" fill="#000000">deleted_at    </text>
<text text-anchor="start" x="465.0708" y="-690.9" font-family="Arial" font-size="14.00" fill="#666666">[TIMESTAMP]</text>
<polygon fill="none" stroke="#000000" points="358.5,-649.5 358.5,-679.5 592.5,-679.5 592.5,-649.5 358.5,-649.5"/>
<text text-anchor="start" x="365.5" y="-660.9" font-family="Arial" font-size="14.00" fill="#000000">deleted_by    </text>
<text text-anchor="start" x="468.1802" y="-660.9" font-family="Arial" font-size="14.00" fill="#666666">[TEXT]</text>
<polygon fill="none" stroke="#000000" points="358.5,-619.5 358.5,-649.5 592.5,-649.5 592.5,-619.5 358.5,-619.5"/>
<text text-anchor="start" x="365.5" y="-630.9" font-family="Arial" font-size="14.00" fill="#000000">activity_log    </text>
<text text-anchor="start" x="468.9362" y="-630.9" font-family="Arial" font-size="14.00" fill="#666666">[TEXT]</text>
</g>
<!-- uniform_resource_transform&#45;&gt;uniform_resource -->
<g id="edge1" class="edge">
<title>uniform_resource_transform:uniform_resource_id&#45;&gt;uniform_resource:uniform_resource_id</title>
<path fill="none" stroke="#000000" d="M425.6727,-1855.1449C510.1838,-1831.3011 438.7002,-1499.6633 415.5,-1406 402.4505,-1353.3171 371.5495,-1350.6829 358.5,-1298 348.5087,-1257.6634 316.9444,-1204.5 358.5,-1204.5"/>
<polygon fill="#000000" stroke="#000000" points="425.4124,-1855.1795 414.9058,-1852.0394 420.4562,-1855.8397 415.5,-1856.5 415.5,-1856.5 415.5,-1856.5 420.4562,-1855.8397 416.0942,-1860.9606 425.4124,-1855.1795 425.4124,-1855.1795"/>
</g>
<!-- device -->
<g id="node4" class="node">
<title>device</title>
<polygon fill="#efefef" stroke="transparent" points="43.5,-462.5 43.5,-497.5 250.5,-497.5 250.5,-462.5 43.5,-462.5"/>
<polygon fill="none" stroke="#000000" points="43.5,-462.5 43.5,-497.5 250.5,-497.5 250.5,-462.5 43.5,-462.5"/>
<text text-anchor="start" x="84.8281" y="-475.3" font-family="Arial Bold" font-size="18.00" fill="#000000">device</text>
<text text-anchor="start" x="136.8409" y="-475.3" font-family="Arial" font-size="14.00" fill="#000000">    </text>
<text text-anchor="start" x="171.0457" y="-475.3" font-family="Arial" font-size="14.00" fill="#666666">[table]</text>
<polygon fill="none" stroke="#000000" points="43.5,-432.5 43.5,-462.5 250.5,-462.5 250.5,-432.5 43.5,-432.5"/>
<text text-anchor="start" x="50.5" y="-443.9" font-family="Arial" font-size="14.00" fill="#000000">device_id    </text>
<text text-anchor="start" x="143.831" y="-443.9" font-family="Arial" font-size="14.00" fill="#666666">[ULID]</text>
<polygon fill="none" stroke="#000000" points="43.5,-402.5 43.5,-432.5 250.5,-432.5 250.5,-402.5 43.5,-402.5"/>
<text text-anchor="start" x="50.5" y="-413.9" font-family="Arial" font-size="14.00" fill="#000000">name    </text>
<text text-anchor="start" x="119.7132" y="-413.9" font-family="Arial" font-size="14.00" fill="#666666">[TEXT]</text>
<polygon fill="none" stroke="#000000" points="43.5,-372.5 43.5,-402.5 250.5,-402.5 250.5,-372.5 43.5,-372.5"/>
<text text-anchor="start" x="50.5" y="-383.9" font-family="Arial" font-size="14.00" fill="#000000">state    </text>
<text text-anchor="start" x="115.0512" y="-383.9" font-family="Arial" font-size="14.00" fill="#666666">[TEXT]</text>
<polygon fill="none" stroke="#000000" points="43.5,-342.5 43.5,-372.5 250.5,-372.5 250.5,-342.5 43.5,-342.5"/>
<text text-anchor="start" x="50.5" y="-353.9" font-family="Arial" font-size="14.00" fill="#000000">boundary    </text>
<text text-anchor="start" x="143.061" y="-353.9" font-family="Arial" font-size="14.00" fill="#666666">[TEXT]</text>
<polygon fill="none" stroke="#000000" points="43.5,-312.5 43.5,-342.5 250.5,-342.5 250.5,-312.5 43.5,-312.5"/>
<text text-anchor="start" x="50.5" y="-323.9" font-family="Arial" font-size="14.00" fill="#000000">segmentation    </text>
<text text-anchor="start" x="168.7314" y="-323.9" font-family="Arial" font-size="14.00" fill="#666666">[TEXT]</text>
<polygon fill="none" stroke="#000000" points="43.5,-282.5 43.5,-312.5 250.5,-312.5 250.5,-282.5 43.5,-282.5"/>
<text text-anchor="start" x="50.5" y="-293.9" font-family="Arial" font-size="14.00" fill="#000000">state_sysinfo    </text>
<text text-anchor="start" x="166.3962" y="-293.9" font-family="Arial" font-size="14.00" fill="#666666">[TEXT]</text>
<polygon fill="none" stroke="#000000" points="43.5,-252.5 43.5,-282.5 250.5,-282.5 250.5,-252.5 43.5,-252.5"/>
<text text-anchor="start" x="50.5" y="-263.9" font-family="Arial" font-size="14.00" fill="#000000">elaboration    </text>
<text text-anchor="start" x="153.9474" y="-263.9" font-family="Arial" font-size="14.00" fill="#666666">[TEXT]</text>
<polygon fill="none" stroke="#000000" points="43.5,-222.5 43.5,-252.5 250.5,-252.5 250.5,-222.5 43.5,-222.5"/>
<text text-anchor="start" x="50.5" y="-233.9" font-family="Arial" font-size="14.00" fill="#000000">created_at    </text>
<text text-anchor="start" x="150.8422" y="-233.9" font-family="Arial" font-size="14.00" fill="#666666">[TIMESTAMP]</text>
<polygon fill="none" stroke="#000000" points="43.5,-192.5 43.5,-222.5 250.5,-222.5 250.5,-192.5 43.5,-192.5"/>
<text text-anchor="start" x="50.5" y="-203.9" font-family="Arial" font-size="14.00" fill="#000000">created_by    </text>
<text text-anchor="start" x="153.9516" y="-203.9" font-family="Arial" font-size="14.00" fill="#666666">[TEXT]</text>
<polygon fill="none" stroke="#000000" points="43.5,-162.5 43.5,-192.5 250.5,-192.5 250.5,-162.5 43.5,-162.5"/>
<text text-anchor="start" x="50.1543" y="-173.9" font-family="Arial" font-size="14.00" fill="#000000">updated_at    </text>
<text text-anchor="start" x="154.4011" y="-173.9" font-family="Arial" font-size="14.00" fill="#666666">[TIMESTAMP]</text>
<polygon fill="none" stroke="#000000" points="43.5,-132.5 43.5,-162.5 250.5,-162.5 250.5,-132.5 43.5,-132.5"/>
<text text-anchor="start" x="50.5" y="-143.9" font-family="Arial" font-size="14.00" fill="#000000">updated_by    </text>
<text text-anchor="start" x="157.8562" y="-143.9" font-family="Arial" font-size="14.00" fill="#666666">[TEXT]</text>
<polygon fill="none" stroke="#000000" points="43.5,-102.5 43.5,-132.5 250.5,-132.5 250.5,-102.5 43.5,-102.5"/>
<text text-anchor="start" x="50.5" y="-113.9" font-family="Arial" font-size="14.00" fill="#000000">deleted_at    </text>
<text text-anchor="start" x="150.0708" y="-113.9" font-family="Arial" font-size="14.00" fill="#666666">[TIMESTAMP]</text>
<polygon fill="none" stroke="#000000" points="43.5,-72.5 43.5,-102.5 250.5,-102.5 250.5,-72.5 43.5,-72.5"/>
<text text-anchor="start" x="50.5" y="-83.9" font-family="Arial" font-size="14.00" fill="#000000">deleted_by    </text>
<text text-anchor="start" x="153.1802" y="-83.9" font-family="Arial" font-size="14.00" fill="#666666">[TEXT]</text>
<polygon fill="none" stroke="#000000" points="43.5,-42.5 43.5,-72.5 250.5,-72.5 250.5,-42.5 43.5,-42.5"/>
<text text-anchor="start" x="50.5" y="-53.9" font-family="Arial" font-size="14.00" fill="#000000">activity_log    </text>
<text text-anchor="start" x="153.9362" y="-53.9" font-family="Arial" font-size="14.00" fill="#666666">[TEXT]</text>
</g>
<!-- uniform_resource&#45;&gt;device -->
<g id="edge3" class="edge">
<title>uniform_resource:device_id&#45;&gt;device:device_id</title>
<path fill="none" stroke="#000000" d="M349.1239,-1170.9313C281.144,-1116.0863 328.8147,-447.5 250.5,-447.5"/>
<polygon fill="#000000" stroke="#000000" points="349.1541,-1170.9427 356.8992,-1178.7057 353.827,-1172.7213 358.5,-1174.5 358.5,-1174.5 358.5,-1174.5 353.827,-1172.7213 360.1008,-1170.2943 349.1541,-1170.9427 349.1541,-1170.9427"/>
</g>
<!-- ur_walk_session -->
<g id="node5" class="node">
<title>ur_walk_session</title>
<polygon fill="#efefef" stroke="transparent" points="354.5,-462.5 354.5,-497.5 595.5,-497.5 595.5,-462.5 354.5,-462.5"/>
<polygon fill="none" stroke="#000000" points="354.5,-462.5 354.5,-497.5 595.5,-497.5 595.5,-462.5 354.5,-462.5"/>
<text text-anchor="start" x="372.3254" y="-475.3" font-family="Arial Bold" font-size="18.00" fill="#000000">ur_walk_session</text>
<text text-anchor="start" x="505.3436" y="-475.3" font-family="Arial" font-size="14.00" fill="#000000">    </text>
<text text-anchor="start" x="539.5484" y="-475.3" font-family="Arial" font-size="14.00" fill="#666666">[table]</text>
<polygon fill="none" stroke="#000000" points="354.5,-432.5 354.5,-462.5 595.5,-462.5 595.5,-432.5 354.5,-432.5"/>
<text text-anchor="start" x="361.5" y="-443.9" font-family="Arial" font-size="14.00" fill="#000000">ur_walk_session_id    </text>
<text text-anchor="start" x="517.8352" y="-443.9" font-family="Arial" font-size="14.00" fill="#666666">[ULID]</text>
<polygon fill="none" stroke="#000000" points="354.5,-402.5 354.5,-432.5 595.5,-432.5 595.5,-402.5 354.5,-402.5"/>
<text text-anchor="start" x="361.5" y="-413.9" font-family="Arial" font-size="14.00" fill="#000000">device_id    </text>
<text text-anchor="start" x="454.831" y="-413.9" font-family="Arial" font-size="14.00" fill="#666666">[ULID]</text>
<polygon fill="none" stroke="#000000" points="354.5,-372.5 354.5,-402.5 595.5,-402.5 595.5,-372.5 354.5,-372.5"/>
<text text-anchor="start" x="361.5" y="-383.9" font-family="Arial" font-size="14.00" fill="#000000">behavior_id    </text>
<text text-anchor="start" x="468.0568" y="-383.9" font-family="Arial" font-size="14.00" fill="#666666">[ULID]</text>
<polygon fill="none" stroke="#000000" points="354.5,-342.5 354.5,-372.5 595.5,-372.5 595.5,-342.5 354.5,-342.5"/>
<text text-anchor="start" x="361.5" y="-353.9" font-family="Arial" font-size="14.00" fill="#000000">behavior_json    </text>
<text text-anchor="start" x="482.8394" y="-353.9" font-family="Arial" font-size="14.00" fill="#666666">[TEXT]</text>
<polygon fill="none" stroke="#000000" points="354.5,-312.5 354.5,-342.5 595.5,-342.5 595.5,-312.5 354.5,-312.5"/>
<text text-anchor="start" x="361.5" y="-323.9" font-family="Arial" font-size="14.00" fill="#000000">walk_started_at    </text>
<text text-anchor="start" x="493.7286" y="-323.9" font-family="Arial" font-size="14.00" fill="#666666">[TIMESTAMP]</text>
<polygon fill="none" stroke="#000000" points="354.5,-282.5 354.5,-312.5 595.5,-312.5 595.5,-282.5 354.5,-282.5"/>
<text text-anchor="start" x="361.4411" y="-293.9" font-family="Arial" font-size="14.00" fill="#000000">walk_finished_at    </text>
<text text-anchor="start" x="499.1143" y="-293.9" font-family="Arial" font-size="14.00" fill="#666666">[TIMESTAMP]</text>
<polygon fill="none" stroke="#000000" points="354.5,-252.5 354.5,-282.5 595.5,-282.5 595.5,-252.5 354.5,-252.5"/>
<text text-anchor="start" x="361.5" y="-263.9" font-family="Arial" font-size="14.00" fill="#000000">elaboration    </text>
<text text-anchor="start" x="464.9474" y="-263.9" font-family="Arial" font-size="14.00" fill="#666666">[TEXT]</text>
<polygon fill="none" stroke="#000000" points="354.5,-222.5 354.5,-252.5 595.5,-252.5 595.5,-222.5 354.5,-222.5"/>
<text text-anchor="start" x="361.5" y="-233.9" font-family="Arial" font-size="14.00" fill="#000000">created_at    </text>
<text text-anchor="start" x="461.8422" y="-233.9" font-family="Arial" font-size="14.00" fill="#666666">[TIMESTAMP]</text>
<polygon fill="none" stroke="#000000" points="354.5,-192.5 354.5,-222.5 595.5,-222.5 595.5,-192.5 354.5,-192.5"/>
<text text-anchor="start" x="361.5" y="-203.9" font-family="Arial" font-size="14.00" fill="#000000">created_by    </text>
<text text-anchor="start" x="464.9516" y="-203.9" font-family="Arial" font-size="14.00" fill="#666666">[TEXT]</text>
<polygon fill="none" stroke="#000000" points="354.5,-162.5 354.5,-192.5 595.5,-192.5 595.5,-162.5 354.5,-162.5"/>
<text text-anchor="start" x="361.5" y="-173.9" font-family="Arial" font-size="14.00" fill="#000000">updated_at    </text>
<text text-anchor="start" x="465.7468" y="-173.9" font-family="Arial" font-size="14.00" fill="#666666">[TIMESTAMP]</text>
<polygon fill="none" stroke="#000000" points="354.5,-132.5 354.5,-162.5 595.5,-162.5 595.5,-132.5 354.5,-132.5"/>
<text text-anchor="start" x="361.5" y="-143.9" font-family="Arial" font-size="14.00" fill="#000000">updated_by    </text>
<text text-anchor="start" x="468.8562" y="-143.9" font-family="Arial" font-size="14.00" fill="#666666">[TEXT]</text>
<polygon fill="none" stroke="#000000" points="354.5,-102.5 354.5,-132.5 595.5,-132.5 595.5,-102.5 354.5,-102.5"/>
<text text-anchor="start" x="361.5" y="-113.9" font-family="Arial" font-size="14.00" fill="#000000">deleted_at    </text>
<text text-anchor="start" x="461.0708" y="-113.9" font-family="Arial" font-size="14.00" fill="#666666">[TIMESTAMP]</text>
<polygon fill="none" stroke="#000000" points="354.5,-72.5 354.5,-102.5 595.5,-102.5 595.5,-72.5 354.5,-72.5"/>
<text text-anchor="start" x="361.5" y="-83.9" font-family="Arial" font-size="14.00" fill="#000000">deleted_by    </text>
<text text-anchor="start" x="464.1802" y="-83.9" font-family="Arial" font-size="14.00" fill="#666666">[TEXT]</text>
<polygon fill="none" stroke="#000000" points="354.5,-42.5 354.5,-72.5 595.5,-72.5 595.5,-42.5 354.5,-42.5"/>
<text text-anchor="start" x="361.5" y="-53.9" font-family="Arial" font-size="14.00" fill="#000000">activity_log    </text>
<text text-anchor="start" x="464.9362" y="-53.9" font-family="Arial" font-size="14.00" fill="#666666">[TEXT]</text>
</g>
<!-- uniform_resource&#45;&gt;ur_walk_session -->
<g id="edge4" class="edge">
<title>uniform_resource:walk_session_id&#45;&gt;ur_walk_session:ur_walk_session_id</title>
<path fill="none" stroke="#000000" d="M348.345,-1144.2905C108.6932,-1134.2471 196.3361,-765.6566 358.5,-577 427.9494,-496.2047 526.0506,-621.7953 595.5,-541 622.5881,-509.4865 637.0556,-447.5 595.5,-447.5"/>
<polygon fill="#000000" stroke="#000000" points="348.5021,-1144.2936 358.4071,-1148.999 353.5011,-1144.3968 358.5,-1144.5 358.5,-1144.5 358.5,-1144.5 353.5011,-1144.3968 358.5929,-1140.001 348.5021,-1144.2936 348.5021,-1144.2936"/>
</g>
<!-- ur_walk_session_path -->
<g id="node6" class="node">
<title>ur_walk_session_path</title>
<polygon fill="#efefef" stroke="transparent" points="699.5,-417.5 699.5,-452.5 963.5,-452.5 963.5,-417.5 699.5,-417.5"/>
<polygon fill="none" stroke="#000000" points="699.5,-417.5 699.5,-452.5 963.5,-452.5 963.5,-417.5 699.5,-417.5"/>
<text text-anchor="start" x="706.3119" y="-430.3" font-family="Arial Bold" font-size="18.00" fill="#000000">ur_walk_session_path</text>
<text text-anchor="start" x="884.3571" y="-430.3" font-family="Arial" font-size="14.00" fill="#000000">    </text>
<text text-anchor="start" x="918.5619" y="-430.3" font-family="Arial" font-size="14.00" fill="#666666">[table]</text>
<polygon fill="none" stroke="#000000" points="699.5,-387.5 699.5,-417.5 963.5,-417.5 963.5,-387.5 699.5,-387.5"/>
<text text-anchor="start" x="706.5" y="-398.9" font-family="Arial" font-size="14.00" fill="#000000">ur_walk_session_path_id    </text>
<text text-anchor="start" x="897.8562" y="-398.9" font-family="Arial" font-size="14.00" fill="#666666">[ULID]</text>
<polygon fill="none" stroke="#000000" points="699.5,-357.5 699.5,-387.5 963.5,-387.5 963.5,-357.5 699.5,-357.5"/>
<text text-anchor="start" x="706.5" y="-368.9" font-family="Arial" font-size="14.00" fill="#000000">walk_session_id    </text>
<text text-anchor="start" x="842.6094" y="-368.9" font-family="Arial" font-size="14.00" fill="#666666">[ULID]</text>
<polygon fill="none" stroke="#000000" points="699.5,-327.5 699.5,-357.5 963.5,-357.5 963.5,-327.5 699.5,-327.5"/>
<text text-anchor="start" x="706.5" y="-338.9" font-family="Arial" font-size="14.00" fill="#000000">root_path    </text>
<text text-anchor="start" x="799.8422" y="-338.9" font-family="Arial" font-size="14.00" fill="#666666">[TEXT]</text>
<polygon fill="none" stroke="#000000" points="699.5,-297.5 699.5,-327.5 963.5,-327.5 963.5,-297.5 699.5,-297.5"/>
<text text-anchor="start" x="706.5" y="-308.9" font-family="Arial" font-size="14.00" fill="#000000">elaboration    </text>
<text text-anchor="start" x="809.9474" y="-308.9" font-family="Arial" font-size="14.00" fill="#666666">[TEXT]</text>
<polygon fill="none" stroke="#000000" points="699.5,-267.5 699.5,-297.5 963.5,-297.5 963.5,-267.5 699.5,-267.5"/>
<text text-anchor="start" x="706.5" y="-278.9" font-family="Arial" font-size="14.00" fill="#000000">created_at    </text>
<text text-anchor="start" x="806.8422" y="-278.9" font-family="Arial" font-size="14.00" fill="#666666">[TIMESTAMP]</text>
<polygon fill="none" stroke="#000000" points="699.5,-237.5 699.5,-267.5 963.5,-267.5 963.5,-237.5 699.5,-237.5"/>
<text text-anchor="start" x="706.5" y="-248.9" font-family="Arial" font-size="14.00" fill="#000000">created_by    </text>
<text text-anchor="start" x="809.9516" y="-248.9" font-family="Arial" font-size="14.00" fill="#666666">[TEXT]</text>
<polygon fill="none" stroke="#000000" points="699.5,-207.5 699.5,-237.5 963.5,-237.5 963.5,-207.5 699.5,-207.5"/>
<text text-anchor="start" x="706.5" y="-218.9" font-family="Arial" font-size="14.00" fill="#000000">updated_at    </text>
<text text-anchor="start" x="810.7468" y="-218.9" font-family="Arial" font-size="14.00" fill="#666666">[TIMESTAMP]</text>
<polygon fill="none" stroke="#000000" points="699.5,-177.5 699.5,-207.5 963.5,-207.5 963.5,-177.5 699.5,-177.5"/>
<text text-anchor="start" x="706.5" y="-188.9" font-family="Arial" font-size="14.00" fill="#000000">updated_by    </text>
<text text-anchor="start" x="813.8562" y="-188.9" font-family="Arial" font-size="14.00" fill="#666666">[TEXT]</text>
<polygon fill="none" stroke="#000000" points="699.5,-147.5 699.5,-177.5 963.5,-177.5 963.5,-147.5 699.5,-147.5"/>
<text text-anchor="start" x="706.5" y="-158.9" font-family="Arial" font-size="14.00" fill="#000000">deleted_at    </text>
<text text-anchor="start" x="806.0708" y="-158.9" font-family="Arial" font-size="14.00" fill="#666666">[TIMESTAMP]</text>
<polygon fill="none" stroke="#000000" points="699.5,-117.5 699.5,-147.5 963.5,-147.5 963.5,-117.5 699.5,-117.5"/>
<text text-anchor="start" x="706.5" y="-128.9" font-family="Arial" font-size="14.00" fill="#000000">deleted_by    </text>
<text text-anchor="start" x="809.1802" y="-128.9" font-family="Arial" font-size="14.00" fill="#666666">[TEXT]</text>
<polygon fill="none" stroke="#000000" points="699.5,-87.5 699.5,-117.5 963.5,-117.5 963.5,-87.5 699.5,-87.5"/>
<text text-anchor="start" x="706.5" y="-98.9" font-family="Arial" font-size="14.00" fill="#000000">activity_log    </text>
<text text-anchor="start" x="809.9362" y="-98.9" font-family="Arial" font-size="14.00" fill="#666666">[TEXT]</text>
</g>
<!-- uniform_resource&#45;&gt;ur_walk_session_path -->
<g id="edge5" class="edge">
<title>uniform_resource:walk_path_id&#45;&gt;ur_walk_session_path:ur_walk_session_path_id</title>
<path fill="none" stroke="#000000" d="M602.0969,-1110.6692C668.1904,-1054.6271 622.938,-402.5 699.5,-402.5"/>
<polygon fill="#000000" stroke="#000000" points="601.7874,-1110.7927 590.8317,-1110.3207 597.1437,-1112.6463 592.5,-1114.5 592.5,-1114.5 592.5,-1114.5 597.1437,-1112.6463 594.1683,-1118.6793 601.7874,-1110.7927 601.7874,-1110.7927"/>
</g>
<!-- ur_walk_session_path_fs_entry -->
<g id="node3" class="node">
<title>ur_walk_session_path_fs_entry</title>
<polygon fill="#efefef" stroke="transparent" points="522.5,-1976.5 522.5,-2011.5 860.5,-2011.5 860.5,-1976.5 522.5,-1976.5"/>
<polygon fill="none" stroke="#000000" points="522.5,-1976.5 522.5,-2011.5 860.5,-2011.5 860.5,-1976.5 522.5,-1976.5"/>
<text text-anchor="start" x="529.3012" y="-1989.3" font-family="Arial Bold" font-size="18.00" fill="#000000">ur_walk_session_path_fs_entry</text>
<text text-anchor="start" x="781.3678" y="-1989.3" font-family="Arial" font-size="14.00" fill="#000000">    </text>
<text text-anchor="start" x="815.5726" y="-1989.3" font-family="Arial" font-size="14.00" fill="#666666">[table]</text>
<polygon fill="none" stroke="#000000" points="522.5,-1946.5 522.5,-1976.5 860.5,-1976.5 860.5,-1946.5 522.5,-1946.5"/>
<text text-anchor="start" x="529.5" y="-1957.9" font-family="Arial" font-size="14.00" fill="#000000">ur_walk_session_path_fs_entry_id    </text>
<text text-anchor="start" x="778.4284" y="-1957.9" font-family="Arial" font-size="14.00" fill="#666666">[ULID]</text>
<polygon fill="none" stroke="#000000" points="522.5,-1916.5 522.5,-1946.5 860.5,-1946.5 860.5,-1916.5 522.5,-1916.5"/>
<text text-anchor="start" x="529.5" y="-1927.9" font-family="Arial" font-size="14.00" fill="#000000">walk_session_id    </text>
<text text-anchor="start" x="665.6094" y="-1927.9" font-family="Arial" font-size="14.00" fill="#666666">[ULID]</text>
<polygon fill="none" stroke="#000000" points="522.5,-1886.5 522.5,-1916.5 860.5,-1916.5 860.5,-1886.5 522.5,-1886.5"/>
<text text-anchor="start" x="529.5" y="-1897.9" font-family="Arial" font-size="14.00" fill="#000000">walk_path_id    </text>
<text text-anchor="start" x="645.3934" y="-1897.9" font-family="Arial" font-size="14.00" fill="#666666">[ULID]</text>
<polygon fill="none" stroke="#000000" points="522.5,-1856.5 522.5,-1886.5 860.5,-1886.5 860.5,-1856.5 522.5,-1856.5"/>
<text text-anchor="start" x="529.5" y="-1867.9" font-family="Arial" font-size="14.00" fill="#000000">uniform_resource_id    </text>
<text text-anchor="start" x="691.277" y="-1867.9" font-family="Arial" font-size="14.00" fill="#666666">[ULID]</text>
<polygon fill="none" stroke="#000000" points="522.5,-1826.5 522.5,-1856.5 860.5,-1856.5 860.5,-1826.5 522.5,-1826.5"/>
<text text-anchor="start" x="529.5" y="-1837.9" font-family="Arial" font-size="14.00" fill="#000000">file_path_abs    </text>
<text text-anchor="start" x="646.96" y="-1837.9" font-family="Arial" font-size="14.00" fill="#666666">[TEXT]</text>
<polygon fill="none" stroke="#000000" points="522.5,-1796.5 522.5,-1826.5 860.5,-1826.5 860.5,-1796.5 522.5,-1796.5"/>
<text text-anchor="start" x="529.5" y="-1807.9" font-family="Arial" font-size="14.00" fill="#000000">file_path_rel_parent    </text>
<text text-anchor="start" x="687.4088" y="-1807.9" font-family="Arial" font-size="14.00" fill="#666666">[TEXT]</text>
<polygon fill="none" stroke="#000000" points="522.5,-1766.5 522.5,-1796.5 860.5,-1796.5 860.5,-1766.5 522.5,-1766.5"/>
<text text-anchor="start" x="529.5" y="-1777.9" font-family="Arial" font-size="14.00" fill="#000000">file_path_rel    </text>
<text text-anchor="start" x="639.9446" y="-1777.9" font-family="Arial" font-size="14.00" fill="#666666">[TEXT]</text>
<polygon fill="none" stroke="#000000" points="522.5,-1736.5 522.5,-1766.5 860.5,-1766.5 860.5,-1736.5 522.5,-1736.5"/>
<text text-anchor="start" x="529.5" y="-1747.9" font-family="Arial" font-size="14.00" fill="#000000">file_basename    </text>
<text text-anchor="start" x="654.73" y="-1747.9" font-family="Arial" font-size="14.00" fill="#666666">[TEXT]</text>
<polygon fill="none" stroke="#000000" points="522.5,-1706.5 522.5,-1736.5 860.5,-1736.5 860.5,-1706.5 522.5,-1706.5"/>
<text text-anchor="start" x="529.5" y="-1717.9" font-family="Arial" font-size="14.00" fill="#000000">file_extn    </text>
<text text-anchor="start" x="615.8296" y="-1717.9" font-family="Arial" font-size="14.00" fill="#666666">[TEXT]</text>
<polygon fill="none" stroke="#000000" points="522.5,-1676.5 522.5,-1706.5 860.5,-1706.5 860.5,-1676.5 522.5,-1676.5"/>
<text text-anchor="start" x="529.5" y="-1687.9" font-family="Arial" font-size="14.00" fill="#000000">ur_status    </text>
<text text-anchor="start" x="621.277" y="-1687.9" font-family="Arial" font-size="14.00" fill="#666666">[TEXT]</text>
<polygon fill="none" stroke="#000000" points="522.5,-1646.5 522.5,-1676.5 860.5,-1676.5 860.5,-1646.5 522.5,-1646.5"/>
<text text-anchor="start" x="529.5" y="-1657.9" font-family="Arial" font-size="14.00" fill="#000000">ur_diagnostics    </text>
<text text-anchor="start" x="653.9474" y="-1657.9" font-family="Arial" font-size="14.00" fill="#666666">[TEXT]</text>
<polygon fill="none" stroke="#000000" points="522.5,-1616.5 522.5,-1646.5 860.5,-1646.5 860.5,-1616.5 522.5,-1616.5"/>
<text text-anchor="start" x="529.5" y="-1627.9" font-family="Arial" font-size="14.00" fill="#000000">ur_transformations    </text>
<text text-anchor="start" x="680.3864" y="-1627.9" font-family="Arial" font-size="14.00" fill="#666666">[TEXT]</text>
<polygon fill="none" stroke="#000000" points="522.5,-1586.5 522.5,-1616.5 860.5,-1616.5 860.5,-1586.5 522.5,-1586.5"/>
<text text-anchor="start" x="529.5" y="-1597.9" font-family="Arial" font-size="14.00" fill="#000000">elaboration    </text>
<text text-anchor="start" x="632.9474" y="-1597.9" font-family="Arial" font-size="14.00" fill="#666666">[TEXT]</text>
<polygon fill="none" stroke="#000000" points="522.5,-1556.5 522.5,-1586.5 860.5,-1586.5 860.5,-1556.5 522.5,-1556.5"/>
<text text-anchor="start" x="529.5" y="-1567.9" font-family="Arial" font-size="14.00" fill="#000000">created_at    </text>
<text text-anchor="start" x="629.8422" y="-1567.9" font-family="Arial" font-size="14.00" fill="#666666">[TIMESTAMP]</text>
<polygon fill="none" stroke="#000000" points="522.5,-1526.5 522.5,-1556.5 860.5,-1556.5 860.5,-1526.5 522.5,-1526.5"/>
<text text-anchor="start" x="529.5" y="-1537.9" font-family="Arial" font-size="14.00" fill="#000000">created_by    </text>
<text text-anchor="start" x="632.9516" y="-1537.9" font-family="Arial" font-size="14.00" fill="#666666">[TEXT]</text>
<polygon fill="none" stroke="#000000" points="522.5,-1496.5 522.5,-1526.5 860.5,-1526.5 860.5,-1496.5 522.5,-1496.5"/>
<text text-anchor="start" x="529.5" y="-1507.9" font-family="Arial" font-size="14.00" fill="#000000">updated_at    </text>
<text text-anchor="start" x="633.7468" y="-1507.9" font-family="Arial" font-size="14.00" fill="#666666">[TIMESTAMP]</text>
<polygon fill="none" stroke="#000000" points="522.5,-1466.5 522.5,-1496.5 860.5,-1496.5 860.5,-1466.5 522.5,-1466.5"/>
<text text-anchor="start" x="529.5" y="-1477.9" font-family="Arial" font-size="14.00" fill="#000000">updated_by    </text>
<text text-anchor="start" x="636.8562" y="-1477.9" font-family="Arial" font-size="14.00" fill="#666666">[TEXT]</text>
<polygon fill="none" stroke="#000000" points="522.5,-1436.5 522.5,-1466.5 860.5,-1466.5 860.5,-1436.5 522.5,-1436.5"/>
<text text-anchor="start" x="529.5" y="-1447.9" font-family="Arial" font-size="14.00" fill="#000000">deleted_at    </text>
<text text-anchor="start" x="629.0708" y="-1447.9" font-family="Arial" font-size="14.00" fill="#666666">[TIMESTAMP]</text>
<polygon fill="none" stroke="#000000" points="522.5,-1406.5 522.5,-1436.5 860.5,-1436.5 860.5,-1406.5 522.5,-1406.5"/>
<text text-anchor="start" x="529.5" y="-1417.9" font-family="Arial" font-size="14.00" fill="#000000">deleted_by    </text>
<text text-anchor="start" x="632.1802" y="-1417.9" font-family="Arial" font-size="14.00" fill="#666666">[TEXT]</text>
<polygon fill="none" stroke="#000000" points="522.5,-1376.5 522.5,-1406.5 860.5,-1406.5 860.5,-1376.5 522.5,-1376.5"/>
<text text-anchor="start" x="529.5" y="-1387.9" font-family="Arial" font-size="14.00" fill="#000000">activity_log    </text>
<text text-anchor="start" x="632.9362" y="-1387.9" font-family="Arial" font-size="14.00" fill="#666666">[TEXT]</text>
</g>
<!-- ur_walk_session_path_fs_entry&#45;&gt;uniform_resource -->
<g id="edge2" class="edge">
<title>ur_walk_session_path_fs_entry:uniform_resource_id&#45;&gt;uniform_resource:uniform_resource_id</title>
<path fill="none" stroke="#000000" d="M513.1865,-1866.985C466.0272,-1817.7837 493.1533,-1382.0928 522.5,-1334 540.723,-1304.1366 574.277,-1327.8634 592.5,-1298 614.1459,-1262.5272 634.0556,-1204.5 592.5,-1204.5"/>
<polygon fill="#000000" stroke="#000000" points="513.5016,-1867.1378 520.537,-1875.5493 518.0008,-1869.3189 522.5,-1871.5 522.5,-1871.5 522.5,-1871.5 518.0008,-1869.3189 524.463,-1867.4507 513.5016,-1867.1378 513.5016,-1867.1378"/>
</g>
</g>
</svg>
