<?xml version="1.0" encoding="UTF-8" standalone="no"?>
<!DOCTYPE svg PUBLIC "-//W3C//DTD SVG 1.1//EN"
 "http://www.w3.org/Graphics/SVG/1.1/DTD/svg11.dtd">
<!-- Generated by graphviz version 2.40.1 (20161225.0304)
 -->
<!-- Title: uniform_resource_transform Pages: 1 -->
<svg width="1260pt" height="2093pt"
 viewBox="0.00 0.00 1259.50 2093.00" xmlns="http://www.w3.org/2000/svg" xmlns:xlink="http://www.w3.org/1999/xlink">
<g id="graph0" class="graph" transform="scale(1 1) rotate(0) translate(4 2089)">
<title>uniform_resource_transform</title>
<polygon fill="#ffffff" stroke="transparent" points="-4,4 -4,-2089 1255.5,-2089 1255.5,4 -4,4"/>
<!-- uniform_resource_transform -->
<g id="node1" class="node">
<title>uniform_resource_transform</title>
<polygon fill="#efefef" stroke="transparent" points="46,-1916.5 46,-1951.5 358,-1951.5 358,-1916.5 46,-1916.5"/>
<polygon fill="none" stroke="#000000" points="46,-1916.5 46,-1951.5 358,-1951.5 358,-1916.5 46,-1916.5"/>
<text text-anchor="start" x="52.8242" y="-1929.3" font-family="Arial Bold" font-size="18.00" fill="#000000">uniform_resource_transform</text>
<text text-anchor="start" x="278.8448" y="-1929.3" font-family="Arial" font-size="14.00" fill="#000000">    </text>
<text text-anchor="start" x="313.0496" y="-1929.3" font-family="Arial" font-size="14.00" fill="#666666">[table]</text>
<polygon fill="none" stroke="#000000" points="46,-1886.5 46,-1916.5 358,-1916.5 358,-1886.5 46,-1886.5"/>
<text text-anchor="start" x="53" y="-1897.9" font-family="Arial" font-size="14.00" fill="#000000">uniform_resource_transform_id </text>
<text text-anchor="start" x="251.3562" y="-1897.9" font-family="Arial" font-size="14.00" fill="#666666">[VARCHAR]</text>
<polygon fill="none" stroke="#000000" points="46,-1856.5 46,-1886.5 358,-1886.5 358,-1856.5 46,-1856.5"/>
<text text-anchor="start" x="53" y="-1867.9" font-family="Arial" font-size="14.00" fill="#000000">uniform_resource_id </text>
<text text-anchor="start" x="184.4628" y="-1867.9" font-family="Arial" font-size="14.00" fill="#666666">[VARCHAR]</text>
<polygon fill="none" stroke="#000000" points="46,-1826.5 46,-1856.5 358,-1856.5 358,-1826.5 46,-1826.5"/>
<text text-anchor="start" x="53" y="-1837.9" font-family="Arial" font-size="14.00" fill="#000000">uri </text>
<text text-anchor="start" x="72.4404" y="-1837.9" font-family="Arial" font-size="14.00" fill="#666666">[TEXT]</text>
<polygon fill="none" stroke="#000000" points="46,-1796.5 46,-1826.5 358,-1826.5 358,-1796.5 46,-1796.5"/>
<text text-anchor="start" x="53" y="-1807.9" font-family="Arial" font-size="14.00" fill="#000000">content_digest </text>
<text text-anchor="start" x="147.9298" y="-1807.9" font-family="Arial" font-size="14.00" fill="#666666">[TEXT]</text>
<polygon fill="none" stroke="#000000" points="46,-1766.5 46,-1796.5 358,-1796.5 358,-1766.5 46,-1766.5"/>
<text text-anchor="start" x="53" y="-1777.9" font-family="Arial" font-size="14.00" fill="#000000">content </text>
<text text-anchor="start" x="102.8022" y="-1777.9" font-family="Arial" font-size="14.00" fill="#666666">[BLOB]</text>
<polygon fill="none" stroke="#000000" points="46,-1736.5 46,-1766.5 358,-1766.5 358,-1736.5 46,-1736.5"/>
<text text-anchor="start" x="53" y="-1747.9" font-family="Arial" font-size="14.00" fill="#000000">nature </text>
<text text-anchor="start" x="96.5722" y="-1747.9" font-family="Arial" font-size="14.00" fill="#666666">[TEXT]</text>
<polygon fill="none" stroke="#000000" points="46,-1706.5 46,-1736.5 358,-1736.5 358,-1706.5 46,-1706.5"/>
<text text-anchor="start" x="53" y="-1717.9" font-family="Arial" font-size="14.00" fill="#000000">size_bytes </text>
<text text-anchor="start" x="123.0182" y="-1717.9" font-family="Arial" font-size="14.00" fill="#666666">[INTEGER]</text>
<polygon fill="none" stroke="#000000" points="46,-1676.5 46,-1706.5 358,-1706.5 358,-1676.5 46,-1676.5"/>
<text text-anchor="start" x="53" y="-1687.9" font-family="Arial" font-size="14.00" fill="#000000">elaboration </text>
<text text-anchor="start" x="126.1332" y="-1687.9" font-family="Arial" font-size="14.00" fill="#666666">[TEXT]</text>
<polygon fill="none" stroke="#000000" points="46,-1646.5 46,-1676.5 358,-1676.5 358,-1646.5 46,-1646.5"/>
<text text-anchor="start" x="53" y="-1657.9" font-family="Arial" font-size="14.00" fill="#000000">created_at </text>
<text text-anchor="start" x="123.028" y="-1657.9" font-family="Arial" font-size="14.00" fill="#666666">[TIMESTAMP]</text>
<polygon fill="none" stroke="#000000" points="46,-1616.5 46,-1646.5 358,-1646.5 358,-1616.5 46,-1616.5"/>
<text text-anchor="start" x="53" y="-1627.9" font-family="Arial" font-size="14.00" fill="#000000">created_by </text>
<text text-anchor="start" x="126.1374" y="-1627.9" font-family="Arial" font-size="14.00" fill="#666666">[TEXT]</text>
<polygon fill="none" stroke="#000000" points="46,-1586.5 46,-1616.5 358,-1616.5 358,-1586.5 46,-1586.5"/>
<text text-anchor="start" x="53" y="-1597.9" font-family="Arial" font-size="14.00" fill="#000000">updated_at </text>
<text text-anchor="start" x="126.9326" y="-1597.9" font-family="Arial" font-size="14.00" fill="#666666">[TIMESTAMP]</text>
<polygon fill="none" stroke="#000000" points="46,-1556.5 46,-1586.5 358,-1586.5 358,-1556.5 46,-1556.5"/>
<text text-anchor="start" x="53" y="-1567.9" font-family="Arial" font-size="14.00" fill="#000000">updated_by </text>
<text text-anchor="start" x="130.042" y="-1567.9" font-family="Arial" font-size="14.00" fill="#666666">[TEXT]</text>
<polygon fill="none" stroke="#000000" points="46,-1526.5 46,-1556.5 358,-1556.5 358,-1526.5 46,-1526.5"/>
<text text-anchor="start" x="53" y="-1537.9" font-family="Arial" font-size="14.00" fill="#000000">deleted_at </text>
<text text-anchor="start" x="122.2566" y="-1537.9" font-family="Arial" font-size="14.00" fill="#666666">[TIMESTAMP]</text>
<polygon fill="none" stroke="#000000" points="46,-1496.5 46,-1526.5 358,-1526.5 358,-1496.5 46,-1496.5"/>
<text text-anchor="start" x="53" y="-1507.9" font-family="Arial" font-size="14.00" fill="#000000">deleted_by </text>
<text text-anchor="start" x="125.366" y="-1507.9" font-family="Arial" font-size="14.00" fill="#666666">[TEXT]</text>
<polygon fill="none" stroke="#000000" points="46,-1466.5 46,-1496.5 358,-1496.5 358,-1466.5 46,-1466.5"/>
<text text-anchor="start" x="53" y="-1477.9" font-family="Arial" font-size="14.00" fill="#000000">activity_log </text>
<text text-anchor="start" x="126.122" y="-1477.9" font-family="Arial" font-size="14.00" fill="#666666">[TEXT]</text>
<polygon fill="none" stroke="#000000" stroke-width="3" points="44.5,-1465.5 44.5,-1953.5 359.5,-1953.5 359.5,-1465.5 44.5,-1465.5"/>
</g>
<!-- uniform_resource -->
<g id="node2" class="node">
<title>uniform_resource</title>
<polygon fill="#efefef" stroke="transparent" points="514,-1219.5 514,-1254.5 765,-1254.5 765,-1219.5 514,-1219.5"/>
<polygon fill="none" stroke="#000000" points="514,-1219.5 514,-1254.5 765,-1254.5 765,-1219.5 514,-1219.5"/>
<text text-anchor="start" x="533.3271" y="-1232.3" font-family="Arial Bold" font-size="18.00" fill="#000000">uniform_resource</text>
<text text-anchor="start" x="673.3419" y="-1232.3" font-family="Arial" font-size="14.00" fill="#000000">    </text>
<text text-anchor="start" x="707.5467" y="-1232.3" font-family="Arial" font-size="14.00" fill="#666666">[table]</text>
<polygon fill="none" stroke="#000000" points="514,-1189.5 514,-1219.5 765,-1219.5 765,-1189.5 514,-1189.5"/>
<text text-anchor="start" x="520.5028" y="-1200.9" font-family="Arial" font-size="14.00" fill="#000000">uniform_resource_id    </text>
<text text-anchor="start" x="682.2798" y="-1200.9" font-family="Arial" font-size="14.00" fill="#666666">[VARCHAR]</text>
<polygon fill="none" stroke="#000000" points="514,-1159.5 514,-1189.5 765,-1189.5 765,-1159.5 514,-1159.5"/>
<text text-anchor="start" x="521" y="-1170.9" font-family="Arial" font-size="14.00" fill="#000000">device_id    </text>
<text text-anchor="start" x="614.331" y="-1170.9" font-family="Arial" font-size="14.00" fill="#666666">[VARCHAR]</text>
<polygon fill="none" stroke="#000000" points="514,-1129.5 514,-1159.5 765,-1159.5 765,-1129.5 514,-1129.5"/>
<text text-anchor="start" x="521" y="-1140.9" font-family="Arial" font-size="14.00" fill="#000000">ingest_session_id    </text>
<text text-anchor="start" x="666.4586" y="-1140.9" font-family="Arial" font-size="14.00" fill="#666666">[VARCHAR]</text>
<polygon fill="none" stroke="#000000" points="514,-1099.5 514,-1129.5 765,-1129.5 765,-1099.5 514,-1099.5"/>
<text text-anchor="start" x="521" y="-1110.9" font-family="Arial" font-size="14.00" fill="#000000">ingest_fs_path_id    </text>
<text text-anchor="start" x="664.9158" y="-1110.9" font-family="Arial" font-size="14.00" fill="#666666">[VARCHAR]</text>
<polygon fill="none" stroke="#000000" points="514,-1069.5 514,-1099.5 765,-1099.5 765,-1069.5 514,-1069.5"/>
<text text-anchor="start" x="521" y="-1080.9" font-family="Arial" font-size="14.00" fill="#000000">uri    </text>
<text text-anchor="start" x="570.7546" y="-1080.9" font-family="Arial" font-size="14.00" fill="#666666">[TEXT]</text>
<polygon fill="none" stroke="#000000" points="514,-1039.5 514,-1069.5 765,-1069.5 765,-1039.5 514,-1039.5"/>
<text text-anchor="start" x="521" y="-1050.9" font-family="Arial" font-size="14.00" fill="#000000">content_digest    </text>
<text text-anchor="start" x="646.244" y="-1050.9" font-family="Arial" font-size="14.00" fill="#666666">[TEXT]</text>
<polygon fill="none" stroke="#000000" points="514,-1009.5 514,-1039.5 765,-1039.5 765,-1009.5 514,-1009.5"/>
<text text-anchor="start" x="521" y="-1020.9" font-family="Arial" font-size="14.00" fill="#000000">content    </text>
<text text-anchor="start" x="601.1164" y="-1020.9" font-family="Arial" font-size="14.00" fill="#666666">[BLOB]</text>
<polygon fill="none" stroke="#000000" points="514,-979.5 514,-1009.5 765,-1009.5 765,-979.5 514,-979.5"/>
<text text-anchor="start" x="521" y="-990.9" font-family="Arial" font-size="14.00" fill="#000000">nature    </text>
<text text-anchor="start" x="594.8864" y="-990.9" font-family="Arial" font-size="14.00" fill="#666666">[TEXT]</text>
<polygon fill="none" stroke="#000000" points="514,-949.5 514,-979.5 765,-979.5 765,-949.5 514,-949.5"/>
<text text-anchor="start" x="521" y="-960.9" font-family="Arial" font-size="14.00" fill="#000000">size_bytes    </text>
<text text-anchor="start" x="621.3324" y="-960.9" font-family="Arial" font-size="14.00" fill="#666666">[INTEGER]</text>
<polygon fill="none" stroke="#000000" points="514,-919.5 514,-949.5 765,-949.5 765,-919.5 514,-919.5"/>
<text text-anchor="start" x="521" y="-930.9" font-family="Arial" font-size="14.00" fill="#000000">last_modified_at    </text>
<text text-anchor="start" x="657.1178" y="-930.9" font-family="Arial" font-size="14.00" fill="#666666">[TIMESTAMP]</text>
<polygon fill="none" stroke="#000000" points="514,-889.5 514,-919.5 765,-919.5 765,-889.5 514,-889.5"/>
<text text-anchor="start" x="521" y="-900.9" font-family="Arial" font-size="14.00" fill="#000000">content_fm_body_attrs    </text>
<text text-anchor="start" x="697.5876" y="-900.9" font-family="Arial" font-size="14.00" fill="#666666">[TEXT]</text>
<polygon fill="none" stroke="#000000" points="514,-859.5 514,-889.5 765,-889.5 765,-859.5 514,-859.5"/>
<text text-anchor="start" x="521" y="-870.9" font-family="Arial" font-size="14.00" fill="#000000">frontmatter    </text>
<text text-anchor="start" x="622.8794" y="-870.9" font-family="Arial" font-size="14.00" fill="#666666">[TEXT]</text>
<polygon fill="none" stroke="#000000" points="514,-829.5 514,-859.5 765,-859.5 765,-829.5 514,-829.5"/>
<text text-anchor="start" x="521" y="-840.9" font-family="Arial" font-size="14.00" fill="#000000">elaboration    </text>
<text text-anchor="start" x="624.4474" y="-840.9" font-family="Arial" font-size="14.00" fill="#666666">[TEXT]</text>
<polygon fill="none" stroke="#000000" points="514,-799.5 514,-829.5 765,-829.5 765,-799.5 514,-799.5"/>
<text text-anchor="start" x="521" y="-810.9" font-family="Arial" font-size="14.00" fill="#000000">created_at    </text>
<text text-anchor="start" x="621.3422" y="-810.9" font-family="Arial" font-size="14.00" fill="#666666">[TIMESTAMP]</text>
<polygon fill="none" stroke="#000000" points="514,-769.5 514,-799.5 765,-799.5 765,-769.5 514,-769.5"/>
<text text-anchor="start" x="521" y="-780.9" font-family="Arial" font-size="14.00" fill="#000000">created_by    </text>
<text text-anchor="start" x="624.4516" y="-780.9" font-family="Arial" font-size="14.00" fill="#666666">[TEXT]</text>
<polygon fill="none" stroke="#000000" points="514,-739.5 514,-769.5 765,-769.5 765,-739.5 514,-739.5"/>
<text text-anchor="start" x="521" y="-750.9" font-family="Arial" font-size="14.00" fill="#000000">updated_at    </text>
<text text-anchor="start" x="625.2468" y="-750.9" font-family="Arial" font-size="14.00" fill="#666666">[TIMESTAMP]</text>
<polygon fill="none" stroke="#000000" points="514,-709.5 514,-739.5 765,-739.5 765,-709.5 514,-709.5"/>
<text text-anchor="start" x="521" y="-720.9" font-family="Arial" font-size="14.00" fill="#000000">updated_by    </text>
<text text-anchor="start" x="628.3562" y="-720.9" font-family="Arial" font-size="14.00" fill="#666666">[TEXT]</text>
<polygon fill="none" stroke="#000000" points="514,-679.5 514,-709.5 765,-709.5 765,-679.5 514,-679.5"/>
<text text-anchor="start" x="521" y="-690.9" font-family="Arial" font-size="14.00" fill="#000000">deleted_at    </text>
<text text-anchor="start" x="620.5708" y="-690.9" font-family="Arial" font-size="14.00" fill="#666666">[TIMESTAMP]</text>
<polygon fill="none" stroke="#000000" points="514,-649.5 514,-679.5 765,-679.5 765,-649.5 514,-649.5"/>
<text text-anchor="start" x="521" y="-660.9" font-family="Arial" font-size="14.00" fill="#000000">deleted_by    </text>
<text text-anchor="start" x="623.6802" y="-660.9" font-family="Arial" font-size="14.00" fill="#666666">[TEXT]</text>
<polygon fill="none" stroke="#000000" points="514,-619.5 514,-649.5 765,-649.5 765,-619.5 514,-619.5"/>
<text text-anchor="start" x="521" y="-630.9" font-family="Arial" font-size="14.00" fill="#000000">activity_log    </text>
<text text-anchor="start" x="624.4362" y="-630.9" font-family="Arial" font-size="14.00" fill="#666666">[TEXT]</text>
</g>
<!-- uniform_resource_transform&#45;&gt;uniform_resource -->
<g id="edge1" class="edge">
<title>uniform_resource_transform:uniform_resource_id&#45;&gt;uniform_resource:uniform_resource_id</title>
<path fill="none" stroke="#000000" d="M367.0871,-1867.3257C415.1836,-1820.0778 391.8354,-1386.6567 413,-1334 440.2211,-1266.2751 441.0092,-1204.5 514,-1204.5"/>
<polygon fill="#000000" stroke="#000000" points="367.0871,-1867.3257 356.1216,-1867.4108 362.5436,-1869.4128 358,-1871.5 358,-1871.5 358,-1871.5 362.5436,-1869.4128 359.8784,-1875.5892 367.0871,-1867.3257 367.0871,-1867.3257"/>
</g>
<!-- device -->
<g id="node5" class="node">
<title>device</title>
<polygon fill="#efefef" stroke="transparent" points="201,-462.5 201,-497.5 408,-497.5 408,-462.5 201,-462.5"/>
<polygon fill="none" stroke="#000000" points="201,-462.5 201,-497.5 408,-497.5 408,-462.5 201,-462.5"/>
<text text-anchor="start" x="242.3281" y="-475.3" font-family="Arial Bold" font-size="18.00" fill="#000000">device</text>
<text text-anchor="start" x="294.3409" y="-475.3" font-family="Arial" font-size="14.00" fill="#000000">    </text>
<text text-anchor="start" x="328.5457" y="-475.3" font-family="Arial" font-size="14.00" fill="#666666">[table]</text>
<polygon fill="none" stroke="#000000" points="201,-432.5 201,-462.5 408,-462.5 408,-432.5 201,-432.5"/>
<text text-anchor="start" x="208" y="-443.9" font-family="Arial" font-size="14.00" fill="#000000">device_id    </text>
<text text-anchor="start" x="301.331" y="-443.9" font-family="Arial" font-size="14.00" fill="#666666">[VARCHAR]</text>
<polygon fill="none" stroke="#000000" points="201,-402.5 201,-432.5 408,-432.5 408,-402.5 201,-402.5"/>
<text text-anchor="start" x="208" y="-413.9" font-family="Arial" font-size="14.00" fill="#000000">name    </text>
<text text-anchor="start" x="277.2132" y="-413.9" font-family="Arial" font-size="14.00" fill="#666666">[TEXT]</text>
<polygon fill="none" stroke="#000000" points="201,-372.5 201,-402.5 408,-402.5 408,-372.5 201,-372.5"/>
<text text-anchor="start" x="208" y="-383.9" font-family="Arial" font-size="14.00" fill="#000000">state    </text>
<text text-anchor="start" x="272.5512" y="-383.9" font-family="Arial" font-size="14.00" fill="#666666">[TEXT]</text>
<polygon fill="none" stroke="#000000" points="201,-342.5 201,-372.5 408,-372.5 408,-342.5 201,-342.5"/>
<text text-anchor="start" x="208" y="-353.9" font-family="Arial" font-size="14.00" fill="#000000">boundary    </text>
<text text-anchor="start" x="300.561" y="-353.9" font-family="Arial" font-size="14.00" fill="#666666">[TEXT]</text>
<polygon fill="none" stroke="#000000" points="201,-312.5 201,-342.5 408,-342.5 408,-312.5 201,-312.5"/>
<text text-anchor="start" x="208" y="-323.9" font-family="Arial" font-size="14.00" fill="#000000">segmentation    </text>
<text text-anchor="start" x="326.2314" y="-323.9" font-family="Arial" font-size="14.00" fill="#666666">[TEXT]</text>
<polygon fill="none" stroke="#000000" points="201,-282.5 201,-312.5 408,-312.5 408,-282.5 201,-282.5"/>
<text text-anchor="start" x="208" y="-293.9" font-family="Arial" font-size="14.00" fill="#000000">state_sysinfo    </text>
<text text-anchor="start" x="323.8962" y="-293.9" font-family="Arial" font-size="14.00" fill="#666666">[TEXT]</text>
<polygon fill="none" stroke="#000000" points="201,-252.5 201,-282.5 408,-282.5 408,-252.5 201,-252.5"/>
<text text-anchor="start" x="208" y="-263.9" font-family="Arial" font-size="14.00" fill="#000000">elaboration    </text>
<text text-anchor="start" x="311.4474" y="-263.9" font-family="Arial" font-size="14.00" fill="#666666">[TEXT]</text>
<polygon fill="none" stroke="#000000" points="201,-222.5 201,-252.5 408,-252.5 408,-222.5 201,-222.5"/>
<text text-anchor="start" x="208" y="-233.9" font-family="Arial" font-size="14.00" fill="#000000">created_at    </text>
<text text-anchor="start" x="308.3422" y="-233.9" font-family="Arial" font-size="14.00" fill="#666666">[TIMESTAMP]</text>
<polygon fill="none" stroke="#000000" points="201,-192.5 201,-222.5 408,-222.5 408,-192.5 201,-192.5"/>
<text text-anchor="start" x="208" y="-203.9" font-family="Arial" font-size="14.00" fill="#000000">created_by    </text>
<text text-anchor="start" x="311.4516" y="-203.9" font-family="Arial" font-size="14.00" fill="#666666">[TEXT]</text>
<polygon fill="none" stroke="#000000" points="201,-162.5 201,-192.5 408,-192.5 408,-162.5 201,-162.5"/>
<text text-anchor="start" x="207.6543" y="-173.9" font-family="Arial" font-size="14.00" fill="#000000">updated_at    </text>
<text text-anchor="start" x="311.9011" y="-173.9" font-family="Arial" font-size="14.00" fill="#666666">[TIMESTAMP]</text>
<polygon fill="none" stroke="#000000" points="201,-132.5 201,-162.5 408,-162.5 408,-132.5 201,-132.5"/>
<text text-anchor="start" x="208" y="-143.9" font-family="Arial" font-size="14.00" fill="#000000">updated_by    </text>
<text text-anchor="start" x="315.3562" y="-143.9" font-family="Arial" font-size="14.00" fill="#666666">[TEXT]</text>
<polygon fill="none" stroke="#000000" points="201,-102.5 201,-132.5 408,-132.5 408,-102.5 201,-102.5"/>
<text text-anchor="start" x="208" y="-113.9" font-family="Arial" font-size="14.00" fill="#000000">deleted_at    </text>
<text text-anchor="start" x="307.5708" y="-113.9" font-family="Arial" font-size="14.00" fill="#666666">[TIMESTAMP]</text>
<polygon fill="none" stroke="#000000" points="201,-72.5 201,-102.5 408,-102.5 408,-72.5 201,-72.5"/>
<text text-anchor="start" x="208" y="-83.9" font-family="Arial" font-size="14.00" fill="#000000">deleted_by    </text>
<text text-anchor="start" x="310.6802" y="-83.9" font-family="Arial" font-size="14.00" fill="#666666">[TEXT]</text>
<polygon fill="none" stroke="#000000" points="201,-42.5 201,-72.5 408,-72.5 408,-42.5 201,-42.5"/>
<text text-anchor="start" x="208" y="-53.9" font-family="Arial" font-size="14.00" fill="#000000">activity_log    </text>
<text text-anchor="start" x="311.4362" y="-53.9" font-family="Arial" font-size="14.00" fill="#666666">[TEXT]</text>
</g>
<!-- uniform_resource&#45;&gt;device -->
<g id="edge4" class="edge">
<title>uniform_resource:device_id&#45;&gt;device:device_id</title>
<path fill="none" stroke="#000000" d="M504.6373,-1170.9313C436.8319,-1116.0863 486.2837,-447.5 408,-447.5"/>
<polygon fill="#000000" stroke="#000000" points="504.6558,-1170.9383 512.3972,-1178.7049 509.3279,-1172.7191 514,-1174.5 514,-1174.5 514,-1174.5 509.3279,-1172.7191 515.6028,-1170.2951 504.6558,-1170.9383 504.6558,-1170.9383"/>
</g>
<!-- ur_ingest_session -->
<g id="node6" class="node">
<title>ur_ingest_session</title>
<polygon fill="#efefef" stroke="transparent" points="512,-462.5 512,-497.5 767,-497.5 767,-462.5 512,-462.5"/>
<polygon fill="none" stroke="#000000" points="512,-462.5 512,-497.5 767,-497.5 767,-462.5 512,-462.5"/>
<text text-anchor="start" x="530.8152" y="-475.3" font-family="Arial Bold" font-size="18.00" fill="#000000">ur_ingest_session</text>
<text text-anchor="start" x="675.8538" y="-475.3" font-family="Arial" font-size="14.00" fill="#000000">    </text>
<text text-anchor="start" x="710.0586" y="-475.3" font-family="Arial" font-size="14.00" fill="#666666">[table]</text>
<polygon fill="none" stroke="#000000" points="512,-432.5 512,-462.5 767,-462.5 767,-432.5 512,-432.5"/>
<text text-anchor="start" x="518.5491" y="-443.9" font-family="Arial" font-size="14.00" fill="#000000">ur_ingest_session_id    </text>
<text text-anchor="start" x="684.2335" y="-443.9" font-family="Arial" font-size="14.00" fill="#666666">[VARCHAR]</text>
<polygon fill="none" stroke="#000000" points="512,-402.5 512,-432.5 767,-432.5 767,-402.5 512,-402.5"/>
<text text-anchor="start" x="519" y="-413.9" font-family="Arial" font-size="14.00" fill="#000000">device_id    </text>
<text text-anchor="start" x="612.331" y="-413.9" font-family="Arial" font-size="14.00" fill="#666666">[VARCHAR]</text>
<polygon fill="none" stroke="#000000" points="512,-372.5 512,-402.5 767,-402.5 767,-372.5 512,-372.5"/>
<text text-anchor="start" x="519" y="-383.9" font-family="Arial" font-size="14.00" fill="#000000">behavior_id    </text>
<text text-anchor="start" x="625.5568" y="-383.9" font-family="Arial" font-size="14.00" fill="#666666">[VARCHAR]</text>
<polygon fill="none" stroke="#000000" points="512,-342.5 512,-372.5 767,-372.5 767,-342.5 512,-342.5"/>
<text text-anchor="start" x="519" y="-353.9" font-family="Arial" font-size="14.00" fill="#000000">behavior_json    </text>
<text text-anchor="start" x="640.3394" y="-353.9" font-family="Arial" font-size="14.00" fill="#666666">[TEXT]</text>
<polygon fill="none" stroke="#000000" points="512,-312.5 512,-342.5 767,-342.5 767,-312.5 512,-312.5"/>
<text text-anchor="start" x="519" y="-323.9" font-family="Arial" font-size="14.00" fill="#000000">ingest_started_at    </text>
<text text-anchor="start" x="660.5778" y="-323.9" font-family="Arial" font-size="14.00" fill="#666666">[TIMESTAMP]</text>
<polygon fill="none" stroke="#000000" points="512,-282.5 512,-312.5 767,-312.5 767,-282.5 512,-282.5"/>
<text text-anchor="start" x="519" y="-293.9" font-family="Arial" font-size="14.00" fill="#000000">ingest_finished_at    </text>
<text text-anchor="start" x="666.0224" y="-293.9" font-family="Arial" font-size="14.00" fill="#666666">[TIMESTAMP]</text>
<polygon fill="none" stroke="#000000" points="512,-252.5 512,-282.5 767,-282.5 767,-252.5 512,-252.5"/>
<text text-anchor="start" x="519" y="-263.9" font-family="Arial" font-size="14.00" fill="#000000">elaboration    </text>
<text text-anchor="start" x="622.4474" y="-263.9" font-family="Arial" font-size="14.00" fill="#666666">[TEXT]</text>
<polygon fill="none" stroke="#000000" points="512,-222.5 512,-252.5 767,-252.5 767,-222.5 512,-222.5"/>
<text text-anchor="start" x="519" y="-233.9" font-family="Arial" font-size="14.00" fill="#000000">created_at    </text>
<text text-anchor="start" x="619.3422" y="-233.9" font-family="Arial" font-size="14.00" fill="#666666">[TIMESTAMP]</text>
<polygon fill="none" stroke="#000000" points="512,-192.5 512,-222.5 767,-222.5 767,-192.5 512,-192.5"/>
<text text-anchor="start" x="519" y="-203.9" font-family="Arial" font-size="14.00" fill="#000000">created_by    </text>
<text text-anchor="start" x="622.4516" y="-203.9" font-family="Arial" font-size="14.00" fill="#666666">[TEXT]</text>
<polygon fill="none" stroke="#000000" points="512,-162.5 512,-192.5 767,-192.5 767,-162.5 512,-162.5"/>
<text text-anchor="start" x="519" y="-173.9" font-family="Arial" font-size="14.00" fill="#000000">updated_at    </text>
<text text-anchor="start" x="623.2468" y="-173.9" font-family="Arial" font-size="14.00" fill="#666666">[TIMESTAMP]</text>
<polygon fill="none" stroke="#000000" points="512,-132.5 512,-162.5 767,-162.5 767,-132.5 512,-132.5"/>
<text text-anchor="start" x="519" y="-143.9" font-family="Arial" font-size="14.00" fill="#000000">updated_by    </text>
<text text-anchor="start" x="626.3562" y="-143.9" font-family="Arial" font-size="14.00" fill="#666666">[TEXT]</text>
<polygon fill="none" stroke="#000000" points="512,-102.5 512,-132.5 767,-132.5 767,-102.5 512,-102.5"/>
<text text-anchor="start" x="519" y="-113.9" font-family="Arial" font-size="14.00" fill="#000000">deleted_at    </text>
<text text-anchor="start" x="618.5708" y="-113.9" font-family="Arial" font-size="14.00" fill="#666666">[TIMESTAMP]</text>
<polygon fill="none" stroke="#000000" points="512,-72.5 512,-102.5 767,-102.5 767,-72.5 512,-72.5"/>
<text text-anchor="start" x="519" y="-83.9" font-family="Arial" font-size="14.00" fill="#000000">deleted_by    </text>
<text text-anchor="start" x="621.6802" y="-83.9" font-family="Arial" font-size="14.00" fill="#666666">[TEXT]</text>
<polygon fill="none" stroke="#000000" points="512,-42.5 512,-72.5 767,-72.5 767,-42.5 512,-42.5"/>
<text text-anchor="start" x="519" y="-53.9" font-family="Arial" font-size="14.00" fill="#000000">activity_log    </text>
<text text-anchor="start" x="622.4362" y="-53.9" font-family="Arial" font-size="14.00" fill="#666666">[TEXT]</text>
</g>
<!-- uniform_resource&#45;&gt;ur_ingest_session -->
<g id="edge5" class="edge">
<title>uniform_resource:ingest_session_id&#45;&gt;ur_ingest_session:ur_ingest_session_id</title>
<path fill="none" stroke="#000000" d="M504.4351,-1140.7499C436.53,-1085.8884 437.8829,-447.5 512,-447.5"/>
<polygon fill="#000000" stroke="#000000" points="504.69,-1140.8498 512.3574,-1148.6895 509.345,-1142.6749 514,-1144.5 514,-1144.5 514,-1144.5 509.345,-1142.6749 515.6426,-1140.3105 504.69,-1140.8498 504.69,-1140.8498"/>
</g>
<!-- ur_ingest_session_fs_path -->
<g id="node7" class="node">
<title>ur_ingest_session_fs_path</title>
<polygon fill="#efefef" stroke="transparent" points="871,-417.5 871,-452.5 1180,-452.5 1180,-417.5 871,-417.5"/>
<polygon fill="none" stroke="#000000" points="871,-417.5 871,-452.5 1180,-452.5 1180,-417.5 871,-417.5"/>
<text text-anchor="start" x="882.2975" y="-430.3" font-family="Arial Bold" font-size="18.00" fill="#000000">ur_ingest_session_fs_path</text>
<text text-anchor="start" x="1096.3715" y="-430.3" font-family="Arial" font-size="14.00" fill="#000000">    </text>
<text text-anchor="start" x="1130.5763" y="-430.3" font-family="Arial" font-size="14.00" fill="#666666">[table]</text>
<polygon fill="none" stroke="#000000" points="871,-387.5 871,-417.5 1180,-417.5 1180,-387.5 871,-387.5"/>
<text text-anchor="start" x="877.702" y="-398.9" font-family="Arial" font-size="14.00" fill="#000000">ur_ingest_session_fs_path_id    </text>
<text text-anchor="start" x="1097.0806" y="-398.9" font-family="Arial" font-size="14.00" fill="#666666">[VARCHAR]</text>
<polygon fill="none" stroke="#000000" points="871,-357.5 871,-387.5 1180,-387.5 1180,-357.5 871,-357.5"/>
<text text-anchor="start" x="878" y="-368.9" font-family="Arial" font-size="14.00" fill="#000000">ingest_session_id    </text>
<text text-anchor="start" x="1023.4586" y="-368.9" font-family="Arial" font-size="14.00" fill="#666666">[VARCHAR]</text>
<polygon fill="none" stroke="#000000" points="871,-327.5 871,-357.5 1180,-357.5 1180,-327.5 871,-327.5"/>
<text text-anchor="start" x="878" y="-338.9" font-family="Arial" font-size="14.00" fill="#000000">root_path    </text>
<text text-anchor="start" x="971.3422" y="-338.9" font-family="Arial" font-size="14.00" fill="#666666">[TEXT]</text>
<polygon fill="none" stroke="#000000" points="871,-297.5 871,-327.5 1180,-327.5 1180,-297.5 871,-297.5"/>
<text text-anchor="start" x="878" y="-308.9" font-family="Arial" font-size="14.00" fill="#000000">elaboration    </text>
<text text-anchor="start" x="981.4474" y="-308.9" font-family="Arial" font-size="14.00" fill="#666666">[TEXT]</text>
<polygon fill="none" stroke="#000000" points="871,-267.5 871,-297.5 1180,-297.5 1180,-267.5 871,-267.5"/>
<text text-anchor="start" x="878" y="-278.9" font-family="Arial" font-size="14.00" fill="#000000">created_at    </text>
<text text-anchor="start" x="978.3422" y="-278.9" font-family="Arial" font-size="14.00" fill="#666666">[TIMESTAMP]</text>
<polygon fill="none" stroke="#000000" points="871,-237.5 871,-267.5 1180,-267.5 1180,-237.5 871,-237.5"/>
<text text-anchor="start" x="878" y="-248.9" font-family="Arial" font-size="14.00" fill="#000000">created_by    </text>
<text text-anchor="start" x="981.4516" y="-248.9" font-family="Arial" font-size="14.00" fill="#666666">[TEXT]</text>
<polygon fill="none" stroke="#000000" points="871,-207.5 871,-237.5 1180,-237.5 1180,-207.5 871,-207.5"/>
<text text-anchor="start" x="878" y="-218.9" font-family="Arial" font-size="14.00" fill="#000000">updated_at    </text>
<text text-anchor="start" x="982.2468" y="-218.9" font-family="Arial" font-size="14.00" fill="#666666">[TIMESTAMP]</text>
<polygon fill="none" stroke="#000000" points="871,-177.5 871,-207.5 1180,-207.5 1180,-177.5 871,-177.5"/>
<text text-anchor="start" x="878" y="-188.9" font-family="Arial" font-size="14.00" fill="#000000">updated_by    </text>
<text text-anchor="start" x="985.3562" y="-188.9" font-family="Arial" font-size="14.00" fill="#666666">[TEXT]</text>
<polygon fill="none" stroke="#000000" points="871,-147.5 871,-177.5 1180,-177.5 1180,-147.5 871,-147.5"/>
<text text-anchor="start" x="878" y="-158.9" font-family="Arial" font-size="14.00" fill="#000000">deleted_at    </text>
<text text-anchor="start" x="977.5708" y="-158.9" font-family="Arial" font-size="14.00" fill="#666666">[TIMESTAMP]</text>
<polygon fill="none" stroke="#000000" points="871,-117.5 871,-147.5 1180,-147.5 1180,-117.5 871,-117.5"/>
<text text-anchor="start" x="878" y="-128.9" font-family="Arial" font-size="14.00" fill="#000000">deleted_by    </text>
<text text-anchor="start" x="980.6802" y="-128.9" font-family="Arial" font-size="14.00" fill="#666666">[TEXT]</text>
<polygon fill="none" stroke="#000000" points="871,-87.5 871,-117.5 1180,-117.5 1180,-87.5 871,-87.5"/>
<text text-anchor="start" x="878" y="-98.9" font-family="Arial" font-size="14.00" fill="#000000">activity_log    </text>
<text text-anchor="start" x="981.4362" y="-98.9" font-family="Arial" font-size="14.00" fill="#666666">[TEXT]</text>
</g>
<!-- uniform_resource&#45;&gt;ur_ingest_session_fs_path -->
<g id="edge6" class="edge">
<title>uniform_resource:ingest_fs_path_id&#45;&gt;ur_ingest_session_fs_path:ur_ingest_session_fs_path_id</title>
<path fill="none" stroke="#000000" d="M774.5896,-1110.6692C840.5926,-1054.6271 794.4537,-402.5 871,-402.5"/>
<polygon fill="#000000" stroke="#000000" points="774.2865,-1110.7903 763.3306,-1110.3211 769.6432,-1112.6451 765,-1114.5 765,-1114.5 765,-1114.5 769.6432,-1112.6451 766.6694,-1118.6789 774.2865,-1110.7903 774.2865,-1110.7903"/>
</g>
<!-- ur_ingest_session_fs_path_entry -->
<g id="node3" class="node">
<title>ur_ingest_session_fs_path_entry</title>
<polygon fill="#efefef" stroke="transparent" points="465,-2006.5 465,-2041.5 815,-2041.5 815,-2006.5 465,-2006.5"/>
<polygon fill="none" stroke="#000000" points="465,-2006.5 465,-2041.5 815,-2041.5 815,-2006.5 465,-2006.5"/>
<text text-anchor="start" x="471.791" y="-2019.3" font-family="Arial Bold" font-size="18.00" fill="#000000">ur_ingest_session_fs_path_entry</text>
<text text-anchor="start" x="735.878" y="-2019.3" font-family="Arial" font-size="14.00" fill="#000000">    </text>
<text text-anchor="start" x="770.0828" y="-2019.3" font-family="Arial" font-size="14.00" fill="#666666">[table]</text>
<polygon fill="none" stroke="#000000" points="465,-1976.5 465,-2006.5 815,-2006.5 815,-1976.5 465,-1976.5"/>
<text text-anchor="start" x="472" y="-1987.9" font-family="Arial" font-size="14.00" fill="#000000">ur_ingest_session_fs_path_entry_id    </text>
<text text-anchor="start" x="730.2776" y="-1987.9" font-family="Arial" font-size="14.00" fill="#666666">[VARCHAR]</text>
<polygon fill="none" stroke="#000000" points="465,-1946.5 465,-1976.5 815,-1976.5 815,-1946.5 465,-1946.5"/>
<text text-anchor="start" x="472" y="-1957.9" font-family="Arial" font-size="14.00" fill="#000000">ingest_session_id    </text>
<text text-anchor="start" x="617.4586" y="-1957.9" font-family="Arial" font-size="14.00" fill="#666666">[VARCHAR]</text>
<polygon fill="none" stroke="#000000" points="465,-1916.5 465,-1946.5 815,-1946.5 815,-1916.5 465,-1916.5"/>
<text text-anchor="start" x="472" y="-1927.9" font-family="Arial" font-size="14.00" fill="#000000">ingest_fs_path_id    </text>
<text text-anchor="start" x="615.9158" y="-1927.9" font-family="Arial" font-size="14.00" fill="#666666">[VARCHAR]</text>
<polygon fill="none" stroke="#000000" points="465,-1886.5 465,-1916.5 815,-1916.5 815,-1886.5 465,-1886.5"/>
<text text-anchor="start" x="472" y="-1897.9" font-family="Arial" font-size="14.00" fill="#000000">uniform_resource_id    </text>
<text text-anchor="start" x="633.777" y="-1897.9" font-family="Arial" font-size="14.00" fill="#666666">[VARCHAR]</text>
<polygon fill="none" stroke="#000000" points="465,-1856.5 465,-1886.5 815,-1886.5 815,-1856.5 465,-1856.5"/>
<text text-anchor="start" x="472" y="-1867.9" font-family="Arial" font-size="14.00" fill="#000000">file_path_abs    </text>
<text text-anchor="start" x="589.46" y="-1867.9" font-family="Arial" font-size="14.00" fill="#666666">[TEXT]</text>
<polygon fill="none" stroke="#000000" points="465,-1826.5 465,-1856.5 815,-1856.5 815,-1826.5 465,-1826.5"/>
<text text-anchor="start" x="472" y="-1837.9" font-family="Arial" font-size="14.00" fill="#000000">file_path_rel_parent    </text>
<text text-anchor="start" x="629.9088" y="-1837.9" font-family="Arial" font-size="14.00" fill="#666666">[TEXT]</text>
<polygon fill="none" stroke="#000000" points="465,-1796.5 465,-1826.5 815,-1826.5 815,-1796.5 465,-1796.5"/>
<text text-anchor="start" x="472" y="-1807.9" font-family="Arial" font-size="14.00" fill="#000000">file_path_rel    </text>
<text text-anchor="start" x="582.4446" y="-1807.9" font-family="Arial" font-size="14.00" fill="#666666">[TEXT]</text>
<polygon fill="none" stroke="#000000" points="465,-1766.5 465,-1796.5 815,-1796.5 815,-1766.5 465,-1766.5"/>
<text text-anchor="start" x="472" y="-1777.9" font-family="Arial" font-size="14.00" fill="#000000">file_basename    </text>
<text text-anchor="start" x="597.23" y="-1777.9" font-family="Arial" font-size="14.00" fill="#666666">[TEXT]</text>
<polygon fill="none" stroke="#000000" points="465,-1736.5 465,-1766.5 815,-1766.5 815,-1736.5 465,-1736.5"/>
<text text-anchor="start" x="472" y="-1747.9" font-family="Arial" font-size="14.00" fill="#000000">file_extn    </text>
<text text-anchor="start" x="558.3296" y="-1747.9" font-family="Arial" font-size="14.00" fill="#666666">[TEXT]</text>
<polygon fill="none" stroke="#000000" points="465,-1706.5 465,-1736.5 815,-1736.5 815,-1706.5 465,-1706.5"/>
<text text-anchor="start" x="472" y="-1717.9" font-family="Arial" font-size="14.00" fill="#000000">captured_executable    </text>
<text text-anchor="start" x="636.1444" y="-1717.9" font-family="Arial" font-size="14.00" fill="#666666">[TEXT]</text>
<polygon fill="none" stroke="#000000" points="465,-1676.5 465,-1706.5 815,-1706.5 815,-1676.5 465,-1676.5"/>
<text text-anchor="start" x="472" y="-1687.9" font-family="Arial" font-size="14.00" fill="#000000">ur_status    </text>
<text text-anchor="start" x="563.777" y="-1687.9" font-family="Arial" font-size="14.00" fill="#666666">[TEXT]</text>
<polygon fill="none" stroke="#000000" points="465,-1646.5 465,-1676.5 815,-1676.5 815,-1646.5 465,-1646.5"/>
<text text-anchor="start" x="472" y="-1657.9" font-family="Arial" font-size="14.00" fill="#000000">ur_diagnostics    </text>
<text text-anchor="start" x="596.4474" y="-1657.9" font-family="Arial" font-size="14.00" fill="#666666">[TEXT]</text>
<polygon fill="none" stroke="#000000" points="465,-1616.5 465,-1646.5 815,-1646.5 815,-1616.5 465,-1616.5"/>
<text text-anchor="start" x="472" y="-1627.9" font-family="Arial" font-size="14.00" fill="#000000">ur_transformations    </text>
<text text-anchor="start" x="622.8864" y="-1627.9" font-family="Arial" font-size="14.00" fill="#666666">[TEXT]</text>
<polygon fill="none" stroke="#000000" points="465,-1586.5 465,-1616.5 815,-1616.5 815,-1586.5 465,-1586.5"/>
<text text-anchor="start" x="472" y="-1597.9" font-family="Arial" font-size="14.00" fill="#000000">elaboration    </text>
<text text-anchor="start" x="575.4474" y="-1597.9" font-family="Arial" font-size="14.00" fill="#666666">[TEXT]</text>
<polygon fill="none" stroke="#000000" points="465,-1556.5 465,-1586.5 815,-1586.5 815,-1556.5 465,-1556.5"/>
<text text-anchor="start" x="472" y="-1567.9" font-family="Arial" font-size="14.00" fill="#000000">created_at    </text>
<text text-anchor="start" x="572.3422" y="-1567.9" font-family="Arial" font-size="14.00" fill="#666666">[TIMESTAMP]</text>
<polygon fill="none" stroke="#000000" points="465,-1526.5 465,-1556.5 815,-1556.5 815,-1526.5 465,-1526.5"/>
<text text-anchor="start" x="472" y="-1537.9" font-family="Arial" font-size="14.00" fill="#000000">created_by    </text>
<text text-anchor="start" x="575.4516" y="-1537.9" font-family="Arial" font-size="14.00" fill="#666666">[TEXT]</text>
<polygon fill="none" stroke="#000000" points="465,-1496.5 465,-1526.5 815,-1526.5 815,-1496.5 465,-1496.5"/>
<text text-anchor="start" x="472" y="-1507.9" font-family="Arial" font-size="14.00" fill="#000000">updated_at    </text>
<text text-anchor="start" x="576.2468" y="-1507.9" font-family="Arial" font-size="14.00" fill="#666666">[TIMESTAMP]</text>
<polygon fill="none" stroke="#000000" points="465,-1466.5 465,-1496.5 815,-1496.5 815,-1466.5 465,-1466.5"/>
<text text-anchor="start" x="472" y="-1477.9" font-family="Arial" font-size="14.00" fill="#000000">updated_by    </text>
<text text-anchor="start" x="579.3562" y="-1477.9" font-family="Arial" font-size="14.00" fill="#666666">[TEXT]</text>
<polygon fill="none" stroke="#000000" points="465,-1436.5 465,-1466.5 815,-1466.5 815,-1436.5 465,-1436.5"/>
<text text-anchor="start" x="472" y="-1447.9" font-family="Arial" font-size="14.00" fill="#000000">deleted_at    </text>
<text text-anchor="start" x="571.5708" y="-1447.9" font-family="Arial" font-size="14.00" fill="#666666">[TIMESTAMP]</text>
<polygon fill="none" stroke="#000000" points="465,-1406.5 465,-1436.5 815,-1436.5 815,-1406.5 465,-1406.5"/>
<text text-anchor="start" x="472" y="-1417.9" font-family="Arial" font-size="14.00" fill="#000000">deleted_by    </text>
<text text-anchor="start" x="574.6802" y="-1417.9" font-family="Arial" font-size="14.00" fill="#666666">[TEXT]</text>
<polygon fill="none" stroke="#000000" points="465,-1376.5 465,-1406.5 815,-1406.5 815,-1376.5 465,-1376.5"/>
<text text-anchor="start" x="472" y="-1387.9" font-family="Arial" font-size="14.00" fill="#000000">activity_log    </text>
<text text-anchor="start" x="575.4362" y="-1387.9" font-family="Arial" font-size="14.00" fill="#666666">[TEXT]</text>
</g>
<!-- ur_ingest_session_fs_path_entry&#45;&gt;uniform_resource -->
<g id="edge2" class="edge">
<title>ur_ingest_session_fs_path_entry:uniform_resource_id&#45;&gt;uniform_resource:uniform_resource_id</title>
<path fill="none" stroke="#000000" d="M455.7181,-1897.3047C404.2387,-1847.9371 425.3601,-1378.681 465,-1334 554.1211,-1233.545 675.8789,-1398.455 765,-1298 792.5782,-1266.9145 806.5556,-1204.5 765,-1204.5"/>
<polygon fill="#000000" stroke="#000000" points="455.8876,-1897.3813 463.1466,-1905.6006 460.4438,-1899.4406 465,-1901.5 465,-1901.5 465,-1901.5 460.4438,-1899.4406 466.8534,-1897.3994 455.8876,-1897.3813 455.8876,-1897.3813"/>
</g>
<!-- ur_ingest_session_task -->
<g id="node4" class="node">
<title>ur_ingest_session_task</title>
<polygon fill="#efefef" stroke="transparent" points="920,-1916.5 920,-1951.5 1209,-1951.5 1209,-1916.5 920,-1916.5"/>
<polygon fill="none" stroke="#000000" points="920,-1916.5 920,-1951.5 1209,-1951.5 1209,-1916.5 920,-1916.5"/>
<text text-anchor="start" x="934.3079" y="-1929.3" font-family="Arial Bold" font-size="18.00" fill="#000000">ur_ingest_session_task</text>
<text text-anchor="start" x="1122.3611" y="-1929.3" font-family="Arial" font-size="14.00" fill="#000000">    </text>
<text text-anchor="start" x="1156.5659" y="-1929.3" font-family="Arial" font-size="14.00" fill="#666666">[table]</text>
<polygon fill="none" stroke="#000000" points="920,-1886.5 920,-1916.5 1209,-1916.5 1209,-1886.5 920,-1886.5"/>
<text text-anchor="start" x="926.8212" y="-1897.9" font-family="Arial" font-size="14.00" fill="#000000">ur_ingest_session_task_id    </text>
<text text-anchor="start" x="1125.9614" y="-1897.9" font-family="Arial" font-size="14.00" fill="#666666">[VARCHAR]</text>
<polygon fill="none" stroke="#000000" points="920,-1856.5 920,-1886.5 1209,-1886.5 1209,-1856.5 920,-1856.5"/>
<text text-anchor="start" x="927" y="-1867.9" font-family="Arial" font-size="14.00" fill="#000000">ingest_session_id    </text>
<text text-anchor="start" x="1072.4586" y="-1867.9" font-family="Arial" font-size="14.00" fill="#666666">[VARCHAR]</text>
<polygon fill="none" stroke="#000000" points="920,-1826.5 920,-1856.5 1209,-1856.5 1209,-1826.5 920,-1826.5"/>
<text text-anchor="start" x="927" y="-1837.9" font-family="Arial" font-size="14.00" fill="#000000">uniform_resource_id    </text>
<text text-anchor="start" x="1088.777" y="-1837.9" font-family="Arial" font-size="14.00" fill="#666666">[VARCHAR]</text>
<polygon fill="none" stroke="#000000" points="920,-1796.5 920,-1826.5 1209,-1826.5 1209,-1796.5 920,-1796.5"/>
<text text-anchor="start" x="927" y="-1807.9" font-family="Arial" font-size="14.00" fill="#000000">captured_executable    </text>
<text text-anchor="start" x="1091.1444" y="-1807.9" font-family="Arial" font-size="14.00" fill="#666666">[TEXT]</text>
<polygon fill="none" stroke="#000000" points="920,-1766.5 920,-1796.5 1209,-1796.5 1209,-1766.5 920,-1766.5"/>
<text text-anchor="start" x="927" y="-1777.9" font-family="Arial" font-size="14.00" fill="#000000">ur_status    </text>
<text text-anchor="start" x="1018.777" y="-1777.9" font-family="Arial" font-size="14.00" fill="#666666">[TEXT]</text>
<polygon fill="none" stroke="#000000" points="920,-1736.5 920,-1766.5 1209,-1766.5 1209,-1736.5 920,-1736.5"/>
<text text-anchor="start" x="927" y="-1747.9" font-family="Arial" font-size="14.00" fill="#000000">ur_diagnostics    </text>
<text text-anchor="start" x="1051.4474" y="-1747.9" font-family="Arial" font-size="14.00" fill="#666666">[TEXT]</text>
<polygon fill="none" stroke="#000000" points="920,-1706.5 920,-1736.5 1209,-1736.5 1209,-1706.5 920,-1706.5"/>
<text text-anchor="start" x="927" y="-1717.9" font-family="Arial" font-size="14.00" fill="#000000">ur_transformations    </text>
<text text-anchor="start" x="1077.8864" y="-1717.9" font-family="Arial" font-size="14.00" fill="#666666">[TEXT]</text>
<polygon fill="none" stroke="#000000" points="920,-1676.5 920,-1706.5 1209,-1706.5 1209,-1676.5 920,-1676.5"/>
<text text-anchor="start" x="927" y="-1687.9" font-family="Arial" font-size="14.00" fill="#000000">elaboration    </text>
<text text-anchor="start" x="1030.4474" y="-1687.9" font-family="Arial" font-size="14.00" fill="#666666">[TEXT]</text>
<polygon fill="none" stroke="#000000" points="920,-1646.5 920,-1676.5 1209,-1676.5 1209,-1646.5 920,-1646.5"/>
<text text-anchor="start" x="927" y="-1657.9" font-family="Arial" font-size="14.00" fill="#000000">created_at    </text>
<text text-anchor="start" x="1027.3422" y="-1657.9" font-family="Arial" font-size="14.00" fill="#666666">[TIMESTAMP]</text>
<polygon fill="none" stroke="#000000" points="920,-1616.5 920,-1646.5 1209,-1646.5 1209,-1616.5 920,-1616.5"/>
<text text-anchor="start" x="927" y="-1627.9" font-family="Arial" font-size="14.00" fill="#000000">created_by    </text>
<text text-anchor="start" x="1030.4516" y="-1627.9" font-family="Arial" font-size="14.00" fill="#666666">[TEXT]</text>
<polygon fill="none" stroke="#000000" points="920,-1586.5 920,-1616.5 1209,-1616.5 1209,-1586.5 920,-1586.5"/>
<text text-anchor="start" x="927" y="-1597.9" font-family="Arial" font-size="14.00" fill="#000000">updated_at    </text>
<text text-anchor="start" x="1031.2468" y="-1597.9" font-family="Arial" font-size="14.00" fill="#666666">[TIMESTAMP]</text>
<polygon fill="none" stroke="#000000" points="920,-1556.5 920,-1586.5 1209,-1586.5 1209,-1556.5 920,-1556.5"/>
<text text-anchor="start" x="927" y="-1567.9" font-family="Arial" font-size="14.00" fill="#000000">updated_by    </text>
<text text-anchor="start" x="1034.3562" y="-1567.9" font-family="Arial" font-size="14.00" fill="#666666">[TEXT]</text>
<polygon fill="none" stroke="#000000" points="920,-1526.5 920,-1556.5 1209,-1556.5 1209,-1526.5 920,-1526.5"/>
<text text-anchor="start" x="927" y="-1537.9" font-family="Arial" font-size="14.00" fill="#000000">deleted_at    </text>
<text text-anchor="start" x="1026.5708" y="-1537.9" font-family="Arial" font-size="14.00" fill="#666666">[TIMESTAMP]</text>
<polygon fill="none" stroke="#000000" points="920,-1496.5 920,-1526.5 1209,-1526.5 1209,-1496.5 920,-1496.5"/>
<text text-anchor="start" x="927" y="-1507.9" font-family="Arial" font-size="14.00" fill="#000000">deleted_by    </text>
<text text-anchor="start" x="1029.6802" y="-1507.9" font-family="Arial" font-size="14.00" fill="#666666">[TEXT]</text>
<polygon fill="none" stroke="#000000" points="920,-1466.5 920,-1496.5 1209,-1496.5 1209,-1466.5 920,-1466.5"/>
<text text-anchor="start" x="927" y="-1477.9" font-family="Arial" font-size="14.00" fill="#000000">activity_log    </text>
<text text-anchor="start" x="1030.4362" y="-1477.9" font-family="Arial" font-size="14.00" fill="#666666">[TEXT]</text>
</g>
<!-- ur_ingest_session_task&#45;&gt;uniform_resource -->
<g id="edge3" class="edge">
<title>ur_ingest_session_task:uniform_resource_id&#45;&gt;uniform_resource:uniform_resource_id</title>
<path fill="none" stroke="#000000" d="M910.8499,-1836.9865C866.0774,-1789.5651 887.075,-1383.4543 867,-1334 839.4433,-1266.1149 838.265,-1204.5 765,-1204.5"/>
<polygon fill="#000000" stroke="#000000" points="911.0317,-1837.0761 918.0093,-1845.5357 915.5159,-1839.2881 920,-1841.5 920,-1841.5 920,-1841.5 915.5159,-1839.2881 921.9907,-1837.4643 911.0317,-1837.0761 911.0317,-1837.0761"/>
</g>
</g>
</svg>
