<?xml version="1.0" encoding="UTF-8" standalone="no"?>
<!DOCTYPE svg PUBLIC "-//W3C//DTD SVG 1.1//EN"
 "http://www.w3.org/Graphics/SVG/1.1/DTD/svg11.dtd">
<!-- Generated by graphviz version 2.40.1 (20161225.0304)
 -->
<!-- Title: uniform_resource Pages: 1 -->
<svg width="933pt" height="3710pt"
 viewBox="0.00 0.00 932.63 3710.00" xmlns="http://www.w3.org/2000/svg" xmlns:xlink="http://www.w3.org/1999/xlink">
<g id="graph0" class="graph" transform="scale(1 1) rotate(0) translate(4 3706)">
<title>uniform_resource</title>
<polygon fill="#ffffff" stroke="transparent" points="-4,4 -4,-3706 928.6277,-3706 928.6277,4 -4,4"/>
<!-- uniform_resource -->
<g id="node1" class="node">
<title>uniform_resource</title>
<polygon fill="#efefef" stroke="transparent" points="194,-2833.5 194,-2868.5 420,-2868.5 420,-2833.5 194,-2833.5"/>
<polygon fill="none" stroke="#000000" points="194,-2833.5 194,-2868.5 420,-2868.5 420,-2833.5 194,-2833.5"/>
<text text-anchor="start" x="200.8271" y="-2846.3" font-family="Arial Bold" font-size="18.00" fill="#000000">uniform_resource</text>
<text text-anchor="start" x="340.8419" y="-2846.3" font-family="Arial" font-size="14.00" fill="#000000">    </text>
<text text-anchor="start" x="375.0467" y="-2846.3" font-family="Arial" font-size="14.00" fill="#666666">[table]</text>
<polygon fill="none" stroke="#000000" points="194,-2803.5 194,-2833.5 420,-2833.5 420,-2803.5 194,-2803.5"/>
<text text-anchor="start" x="201" y="-2814.9" font-family="Arial" font-size="14.00" fill="#000000">uniform_resource_id </text>
<text text-anchor="start" x="332.4628" y="-2814.9" font-family="Arial" font-size="14.00" fill="#666666">[VARCHAR]</text>
<polygon fill="none" stroke="#000000" points="194,-2773.5 194,-2803.5 420,-2803.5 420,-2773.5 194,-2773.5"/>
<text text-anchor="start" x="201" y="-2784.9" font-family="Arial" font-size="14.00" fill="#000000">device_id </text>
<text text-anchor="start" x="264.0168" y="-2784.9" font-family="Arial" font-size="14.00" fill="#666666">[VARCHAR]</text>
<polygon fill="none" stroke="#000000" points="194,-2743.5 194,-2773.5 420,-2773.5 420,-2743.5 194,-2743.5"/>
<text text-anchor="start" x="201" y="-2754.9" font-family="Arial" font-size="14.00" fill="#000000">ingest_session_id </text>
<text text-anchor="start" x="316.1444" y="-2754.9" font-family="Arial" font-size="14.00" fill="#666666">[VARCHAR]</text>
<polygon fill="none" stroke="#000000" points="194,-2713.5 194,-2743.5 420,-2743.5 420,-2713.5 194,-2713.5"/>
<text text-anchor="start" x="201" y="-2724.9" font-family="Arial" font-size="14.00" fill="#000000">ingest_fs_path_id </text>
<text text-anchor="start" x="314.6016" y="-2724.9" font-family="Arial" font-size="14.00" fill="#666666">[VARCHAR]</text>
<polygon fill="none" stroke="#000000" points="194,-2683.5 194,-2713.5 420,-2713.5 420,-2683.5 194,-2683.5"/>
<text text-anchor="start" x="201" y="-2694.9" font-family="Arial" font-size="14.00" fill="#000000">uri </text>
<text text-anchor="start" x="220.4404" y="-2694.9" font-family="Arial" font-size="14.00" fill="#666666">[TEXT]</text>
<polygon fill="none" stroke="#000000" points="194,-2653.5 194,-2683.5 420,-2683.5 420,-2653.5 194,-2653.5"/>
<text text-anchor="start" x="201" y="-2664.9" font-family="Arial" font-size="14.00" fill="#000000">content_digest </text>
<text text-anchor="start" x="295.9298" y="-2664.9" font-family="Arial" font-size="14.00" fill="#666666">[TEXT]</text>
<polygon fill="none" stroke="#000000" points="194,-2623.5 194,-2653.5 420,-2653.5 420,-2623.5 194,-2623.5"/>
<text text-anchor="start" x="201" y="-2634.9" font-family="Arial" font-size="14.00" fill="#000000">content </text>
<text text-anchor="start" x="250.8022" y="-2634.9" font-family="Arial" font-size="14.00" fill="#666666">[BLOB]</text>
<polygon fill="none" stroke="#000000" points="194,-2593.5 194,-2623.5 420,-2623.5 420,-2593.5 194,-2593.5"/>
<text text-anchor="start" x="201" y="-2604.9" font-family="Arial" font-size="14.00" fill="#000000">nature </text>
<text text-anchor="start" x="244.5722" y="-2604.9" font-family="Arial" font-size="14.00" fill="#666666">[TEXT]</text>
<polygon fill="none" stroke="#000000" points="194,-2563.5 194,-2593.5 420,-2593.5 420,-2563.5 194,-2563.5"/>
<text text-anchor="start" x="201" y="-2574.9" font-family="Arial" font-size="14.00" fill="#000000">size_bytes </text>
<text text-anchor="start" x="271.0182" y="-2574.9" font-family="Arial" font-size="14.00" fill="#666666">[INTEGER]</text>
<polygon fill="none" stroke="#000000" points="194,-2533.5 194,-2563.5 420,-2563.5 420,-2533.5 194,-2533.5"/>
<text text-anchor="start" x="201" y="-2544.9" font-family="Arial" font-size="14.00" fill="#000000">last_modified_at </text>
<text text-anchor="start" x="306.8036" y="-2544.9" font-family="Arial" font-size="14.00" fill="#666666">[INTEGER]</text>
<polygon fill="none" stroke="#000000" points="194,-2503.5 194,-2533.5 420,-2533.5 420,-2503.5 194,-2503.5"/>
<text text-anchor="start" x="201" y="-2514.9" font-family="Arial" font-size="14.00" fill="#000000">content_fm_body_attrs </text>
<text text-anchor="start" x="347.2734" y="-2514.9" font-family="Arial" font-size="14.00" fill="#666666">[TEXT]</text>
<polygon fill="none" stroke="#000000" points="194,-2473.5 194,-2503.5 420,-2503.5 420,-2473.5 194,-2473.5"/>
<text text-anchor="start" x="201" y="-2484.9" font-family="Arial" font-size="14.00" fill="#000000">frontmatter </text>
<text text-anchor="start" x="272.5652" y="-2484.9" font-family="Arial" font-size="14.00" fill="#666666">[TEXT]</text>
<polygon fill="none" stroke="#000000" points="194,-2443.5 194,-2473.5 420,-2473.5 420,-2443.5 194,-2443.5"/>
<text text-anchor="start" x="201" y="-2454.9" font-family="Arial" font-size="14.00" fill="#000000">elaboration </text>
<text text-anchor="start" x="274.1332" y="-2454.9" font-family="Arial" font-size="14.00" fill="#666666">[TEXT]</text>
<polygon fill="none" stroke="#000000" points="194,-2413.5 194,-2443.5 420,-2443.5 420,-2413.5 194,-2413.5"/>
<text text-anchor="start" x="201" y="-2424.9" font-family="Arial" font-size="14.00" fill="#000000">created_at </text>
<text text-anchor="start" x="271.028" y="-2424.9" font-family="Arial" font-size="14.00" fill="#666666">[TIMESTAMP]</text>
<polygon fill="none" stroke="#000000" points="194,-2383.5 194,-2413.5 420,-2413.5 420,-2383.5 194,-2383.5"/>
<text text-anchor="start" x="201" y="-2394.9" font-family="Arial" font-size="14.00" fill="#000000">created_by </text>
<text text-anchor="start" x="274.1374" y="-2394.9" font-family="Arial" font-size="14.00" fill="#666666">[TEXT]</text>
<polygon fill="none" stroke="#000000" points="194,-2353.5 194,-2383.5 420,-2383.5 420,-2353.5 194,-2353.5"/>
<text text-anchor="start" x="201" y="-2364.9" font-family="Arial" font-size="14.00" fill="#000000">updated_at </text>
<text text-anchor="start" x="274.9326" y="-2364.9" font-family="Arial" font-size="14.00" fill="#666666">[TIMESTAMP]</text>
<polygon fill="none" stroke="#000000" points="194,-2323.5 194,-2353.5 420,-2353.5 420,-2323.5 194,-2323.5"/>
<text text-anchor="start" x="201" y="-2334.9" font-family="Arial" font-size="14.00" fill="#000000">updated_by </text>
<text text-anchor="start" x="278.042" y="-2334.9" font-family="Arial" font-size="14.00" fill="#666666">[TEXT]</text>
<polygon fill="none" stroke="#000000" points="194,-2293.5 194,-2323.5 420,-2323.5 420,-2293.5 194,-2293.5"/>
<text text-anchor="start" x="201" y="-2304.9" font-family="Arial" font-size="14.00" fill="#000000">deleted_at </text>
<text text-anchor="start" x="270.2566" y="-2304.9" font-family="Arial" font-size="14.00" fill="#666666">[TIMESTAMP]</text>
<polygon fill="none" stroke="#000000" points="194,-2263.5 194,-2293.5 420,-2293.5 420,-2263.5 194,-2263.5"/>
<text text-anchor="start" x="201" y="-2274.9" font-family="Arial" font-size="14.00" fill="#000000">deleted_by </text>
<text text-anchor="start" x="273.366" y="-2274.9" font-family="Arial" font-size="14.00" fill="#666666">[TEXT]</text>
<polygon fill="none" stroke="#000000" points="194,-2233.5 194,-2263.5 420,-2263.5 420,-2233.5 194,-2233.5"/>
<text text-anchor="start" x="201" y="-2244.9" font-family="Arial" font-size="14.00" fill="#000000">activity_log </text>
<text text-anchor="start" x="274.122" y="-2244.9" font-family="Arial" font-size="14.00" fill="#666666">[TEXT]</text>
<polygon fill="none" stroke="#000000" stroke-width="3" points="192.5,-2232.5 192.5,-2870.5 421.5,-2870.5 421.5,-2232.5 192.5,-2232.5"/>
</g>
<!-- ur_ingest_session -->
<g id="node4" class="node">
<title>ur_ingest_session</title>
<polygon fill="#efefef" stroke="transparent" points="406,-1586.5 406,-1621.5 661,-1621.5 661,-1586.5 406,-1586.5"/>
<polygon fill="none" stroke="#000000" points="406,-1586.5 406,-1621.5 661,-1621.5 661,-1586.5 406,-1586.5"/>
<text text-anchor="start" x="424.8152" y="-1599.3" font-family="Arial Bold" font-size="18.00" fill="#000000">ur_ingest_session</text>
<text text-anchor="start" x="569.8538" y="-1599.3" font-family="Arial" font-size="14.00" fill="#000000">    </text>
<text text-anchor="start" x="604.0586" y="-1599.3" font-family="Arial" font-size="14.00" fill="#666666">[table]</text>
<polygon fill="none" stroke="#000000" points="406,-1556.5 406,-1586.5 661,-1586.5 661,-1556.5 406,-1556.5"/>
<text text-anchor="start" x="412.5491" y="-1567.9" font-family="Arial" font-size="14.00" fill="#000000">ur_ingest_session_id    </text>
<text text-anchor="start" x="578.2335" y="-1567.9" font-family="Arial" font-size="14.00" fill="#666666">[VARCHAR]</text>
<polygon fill="none" stroke="#000000" points="406,-1526.5 406,-1556.5 661,-1556.5 661,-1526.5 406,-1526.5"/>
<text text-anchor="start" x="413" y="-1537.9" font-family="Arial" font-size="14.00" fill="#000000">device_id    </text>
<text text-anchor="start" x="506.331" y="-1537.9" font-family="Arial" font-size="14.00" fill="#666666">[VARCHAR]</text>
<polygon fill="none" stroke="#000000" points="406,-1496.5 406,-1526.5 661,-1526.5 661,-1496.5 406,-1496.5"/>
<text text-anchor="start" x="413" y="-1507.9" font-family="Arial" font-size="14.00" fill="#000000">behavior_id    </text>
<text text-anchor="start" x="519.5568" y="-1507.9" font-family="Arial" font-size="14.00" fill="#666666">[VARCHAR]</text>
<polygon fill="none" stroke="#000000" points="406,-1466.5 406,-1496.5 661,-1496.5 661,-1466.5 406,-1466.5"/>
<text text-anchor="start" x="413" y="-1477.9" font-family="Arial" font-size="14.00" fill="#000000">behavior_json    </text>
<text text-anchor="start" x="534.3394" y="-1477.9" font-family="Arial" font-size="14.00" fill="#666666">[TEXT]</text>
<polygon fill="none" stroke="#000000" points="406,-1436.5 406,-1466.5 661,-1466.5 661,-1436.5 406,-1436.5"/>
<text text-anchor="start" x="413" y="-1447.9" font-family="Arial" font-size="14.00" fill="#000000">ingest_started_at    </text>
<text text-anchor="start" x="554.5778" y="-1447.9" font-family="Arial" font-size="14.00" fill="#666666">[TIMESTAMP]</text>
<polygon fill="none" stroke="#000000" points="406,-1406.5 406,-1436.5 661,-1436.5 661,-1406.5 406,-1406.5"/>
<text text-anchor="start" x="413" y="-1417.9" font-family="Arial" font-size="14.00" fill="#000000">ingest_finished_at    </text>
<text text-anchor="start" x="560.0224" y="-1417.9" font-family="Arial" font-size="14.00" fill="#666666">[TIMESTAMP]</text>
<polygon fill="none" stroke="#000000" points="406,-1376.5 406,-1406.5 661,-1406.5 661,-1376.5 406,-1376.5"/>
<text text-anchor="start" x="413" y="-1387.9" font-family="Arial" font-size="14.00" fill="#000000">elaboration    </text>
<text text-anchor="start" x="516.4474" y="-1387.9" font-family="Arial" font-size="14.00" fill="#666666">[TEXT]</text>
<polygon fill="none" stroke="#000000" points="406,-1346.5 406,-1376.5 661,-1376.5 661,-1346.5 406,-1346.5"/>
<text text-anchor="start" x="413" y="-1357.9" font-family="Arial" font-size="14.00" fill="#000000">created_at    </text>
<text text-anchor="start" x="513.3422" y="-1357.9" font-family="Arial" font-size="14.00" fill="#666666">[TIMESTAMP]</text>
<polygon fill="none" stroke="#000000" points="406,-1316.5 406,-1346.5 661,-1346.5 661,-1316.5 406,-1316.5"/>
<text text-anchor="start" x="413" y="-1327.9" font-family="Arial" font-size="14.00" fill="#000000">created_by    </text>
<text text-anchor="start" x="516.4516" y="-1327.9" font-family="Arial" font-size="14.00" fill="#666666">[TEXT]</text>
<polygon fill="none" stroke="#000000" points="406,-1286.5 406,-1316.5 661,-1316.5 661,-1286.5 406,-1286.5"/>
<text text-anchor="start" x="413" y="-1297.9" font-family="Arial" font-size="14.00" fill="#000000">updated_at    </text>
<text text-anchor="start" x="517.2468" y="-1297.9" font-family="Arial" font-size="14.00" fill="#666666">[TIMESTAMP]</text>
<polygon fill="none" stroke="#000000" points="406,-1256.5 406,-1286.5 661,-1286.5 661,-1256.5 406,-1256.5"/>
<text text-anchor="start" x="413" y="-1267.9" font-family="Arial" font-size="14.00" fill="#000000">updated_by    </text>
<text text-anchor="start" x="520.3562" y="-1267.9" font-family="Arial" font-size="14.00" fill="#666666">[TEXT]</text>
<polygon fill="none" stroke="#000000" points="406,-1226.5 406,-1256.5 661,-1256.5 661,-1226.5 406,-1226.5"/>
<text text-anchor="start" x="413" y="-1237.9" font-family="Arial" font-size="14.00" fill="#000000">deleted_at    </text>
<text text-anchor="start" x="512.5708" y="-1237.9" font-family="Arial" font-size="14.00" fill="#666666">[TIMESTAMP]</text>
<polygon fill="none" stroke="#000000" points="406,-1196.5 406,-1226.5 661,-1226.5 661,-1196.5 406,-1196.5"/>
<text text-anchor="start" x="413" y="-1207.9" font-family="Arial" font-size="14.00" fill="#000000">deleted_by    </text>
<text text-anchor="start" x="515.6802" y="-1207.9" font-family="Arial" font-size="14.00" fill="#666666">[TEXT]</text>
<polygon fill="none" stroke="#000000" points="406,-1166.5 406,-1196.5 661,-1196.5 661,-1166.5 406,-1166.5"/>
<text text-anchor="start" x="413" y="-1177.9" font-family="Arial" font-size="14.00" fill="#000000">activity_log    </text>
<text text-anchor="start" x="516.4362" y="-1177.9" font-family="Arial" font-size="14.00" fill="#666666">[TEXT]</text>
</g>
<!-- uniform_resource&#45;&gt;ur_ingest_session -->
<g id="edge8" class="edge">
<title>uniform_resource:ingest_session_id&#45;&gt;ur_ingest_session:ur_ingest_session_id</title>
<path fill="none" stroke="#000000" d="M429.2824,-2754.3205C480.4687,-2705.1344 454.0296,-2237.4724 420,-2188 394.6466,-2151.141 351.3534,-2188.859 326,-2152 269.2016,-2069.4262 298.6222,-1797.4103 326,-1701 344.4807,-1635.9208 338.3477,-1571.5 406,-1571.5"/>
<polygon fill="#000000" stroke="#000000" points="429.1183,-2754.3944 418.1525,-2754.3967 424.5592,-2756.4472 420,-2758.5 420,-2758.5 420,-2758.5 424.5592,-2756.4472 421.8475,-2762.6033 429.1183,-2754.3944 429.1183,-2754.3944"/>
</g>
<!-- ur_ingest_session_fs_path -->
<g id="node5" class="node">
<title>ur_ingest_session_fs_path</title>
<polygon fill="#efefef" stroke="transparent" points="379,-2073.5 379,-2108.5 688,-2108.5 688,-2073.5 379,-2073.5"/>
<polygon fill="none" stroke="#000000" points="379,-2073.5 379,-2108.5 688,-2108.5 688,-2073.5 379,-2073.5"/>
<text text-anchor="start" x="390.2975" y="-2086.3" font-family="Arial Bold" font-size="18.00" fill="#000000">ur_ingest_session_fs_path</text>
<text text-anchor="start" x="604.3715" y="-2086.3" font-family="Arial" font-size="14.00" fill="#000000">    </text>
<text text-anchor="start" x="638.5763" y="-2086.3" font-family="Arial" font-size="14.00" fill="#666666">[table]</text>
<polygon fill="none" stroke="#000000" points="379,-2043.5 379,-2073.5 688,-2073.5 688,-2043.5 379,-2043.5"/>
<text text-anchor="start" x="385.702" y="-2054.9" font-family="Arial" font-size="14.00" fill="#000000">ur_ingest_session_fs_path_id    </text>
<text text-anchor="start" x="605.0806" y="-2054.9" font-family="Arial" font-size="14.00" fill="#666666">[VARCHAR]</text>
<polygon fill="none" stroke="#000000" points="379,-2013.5 379,-2043.5 688,-2043.5 688,-2013.5 379,-2013.5"/>
<text text-anchor="start" x="386" y="-2024.9" font-family="Arial" font-size="14.00" fill="#000000">ingest_session_id    </text>
<text text-anchor="start" x="531.4586" y="-2024.9" font-family="Arial" font-size="14.00" fill="#666666">[VARCHAR]</text>
<polygon fill="none" stroke="#000000" points="379,-1983.5 379,-2013.5 688,-2013.5 688,-1983.5 379,-1983.5"/>
<text text-anchor="start" x="386" y="-1994.9" font-family="Arial" font-size="14.00" fill="#000000">root_path    </text>
<text text-anchor="start" x="479.3422" y="-1994.9" font-family="Arial" font-size="14.00" fill="#666666">[TEXT]</text>
<polygon fill="none" stroke="#000000" points="379,-1953.5 379,-1983.5 688,-1983.5 688,-1953.5 379,-1953.5"/>
<text text-anchor="start" x="386" y="-1964.9" font-family="Arial" font-size="14.00" fill="#000000">elaboration    </text>
<text text-anchor="start" x="489.4474" y="-1964.9" font-family="Arial" font-size="14.00" fill="#666666">[TEXT]</text>
<polygon fill="none" stroke="#000000" points="379,-1923.5 379,-1953.5 688,-1953.5 688,-1923.5 379,-1923.5"/>
<text text-anchor="start" x="386" y="-1934.9" font-family="Arial" font-size="14.00" fill="#000000">created_at    </text>
<text text-anchor="start" x="486.3422" y="-1934.9" font-family="Arial" font-size="14.00" fill="#666666">[TIMESTAMP]</text>
<polygon fill="none" stroke="#000000" points="379,-1893.5 379,-1923.5 688,-1923.5 688,-1893.5 379,-1893.5"/>
<text text-anchor="start" x="386" y="-1904.9" font-family="Arial" font-size="14.00" fill="#000000">created_by    </text>
<text text-anchor="start" x="489.4516" y="-1904.9" font-family="Arial" font-size="14.00" fill="#666666">[TEXT]</text>
<polygon fill="none" stroke="#000000" points="379,-1863.5 379,-1893.5 688,-1893.5 688,-1863.5 379,-1863.5"/>
<text text-anchor="start" x="386" y="-1874.9" font-family="Arial" font-size="14.00" fill="#000000">updated_at    </text>
<text text-anchor="start" x="490.2468" y="-1874.9" font-family="Arial" font-size="14.00" fill="#666666">[TIMESTAMP]</text>
<polygon fill="none" stroke="#000000" points="379,-1833.5 379,-1863.5 688,-1863.5 688,-1833.5 379,-1833.5"/>
<text text-anchor="start" x="386" y="-1844.9" font-family="Arial" font-size="14.00" fill="#000000">updated_by    </text>
<text text-anchor="start" x="493.3562" y="-1844.9" font-family="Arial" font-size="14.00" fill="#666666">[TEXT]</text>
<polygon fill="none" stroke="#000000" points="379,-1803.5 379,-1833.5 688,-1833.5 688,-1803.5 379,-1803.5"/>
<text text-anchor="start" x="386" y="-1814.9" font-family="Arial" font-size="14.00" fill="#000000">deleted_at    </text>
<text text-anchor="start" x="485.5708" y="-1814.9" font-family="Arial" font-size="14.00" fill="#666666">[TIMESTAMP]</text>
<polygon fill="none" stroke="#000000" points="379,-1773.5 379,-1803.5 688,-1803.5 688,-1773.5 379,-1773.5"/>
<text text-anchor="start" x="386" y="-1784.9" font-family="Arial" font-size="14.00" fill="#000000">deleted_by    </text>
<text text-anchor="start" x="488.6802" y="-1784.9" font-family="Arial" font-size="14.00" fill="#666666">[TEXT]</text>
<polygon fill="none" stroke="#000000" points="379,-1743.5 379,-1773.5 688,-1773.5 688,-1743.5 379,-1743.5"/>
<text text-anchor="start" x="386" y="-1754.9" font-family="Arial" font-size="14.00" fill="#000000">activity_log    </text>
<text text-anchor="start" x="489.4362" y="-1754.9" font-family="Arial" font-size="14.00" fill="#666666">[TEXT]</text>
</g>
<!-- uniform_resource&#45;&gt;ur_ingest_session_fs_path -->
<g id="edge11" class="edge">
<title>uniform_resource:ingest_fs_path_id&#45;&gt;ur_ingest_session_fs_path:ur_ingest_session_fs_path_id</title>
<path fill="none" stroke="#000000" d="M430.3125,-2728.2943C656.0961,-2719.0984 517.6238,-2403.6341 420,-2188 409.9987,-2165.9088 389.0013,-2174.0912 379,-2152 361.8612,-2114.1434 337.4444,-2058.5 379,-2058.5"/>
<polygon fill="#000000" stroke="#000000" points="429.998,-2728.3005 419.9102,-2724.0009 424.999,-2728.4002 420,-2728.5 420,-2728.5 420,-2728.5 424.999,-2728.4002 420.0898,-2732.9991 429.998,-2728.3005 429.998,-2728.3005"/>
</g>
<!-- device -->
<g id="node6" class="node">
<title>device</title>
<polygon fill="#efefef" stroke="transparent" points="368,-462.5 368,-497.5 575,-497.5 575,-462.5 368,-462.5"/>
<polygon fill="none" stroke="#000000" points="368,-462.5 368,-497.5 575,-497.5 575,-462.5 368,-462.5"/>
<text text-anchor="start" x="409.3281" y="-475.3" font-family="Arial Bold" font-size="18.00" fill="#000000">device</text>
<text text-anchor="start" x="461.3409" y="-475.3" font-family="Arial" font-size="14.00" fill="#000000">    </text>
<text text-anchor="start" x="495.5457" y="-475.3" font-family="Arial" font-size="14.00" fill="#666666">[table]</text>
<polygon fill="none" stroke="#000000" points="368,-432.5 368,-462.5 575,-462.5 575,-432.5 368,-432.5"/>
<text text-anchor="start" x="375" y="-443.9" font-family="Arial" font-size="14.00" fill="#000000">device_id    </text>
<text text-anchor="start" x="468.331" y="-443.9" font-family="Arial" font-size="14.00" fill="#666666">[VARCHAR]</text>
<polygon fill="none" stroke="#000000" points="368,-402.5 368,-432.5 575,-432.5 575,-402.5 368,-402.5"/>
<text text-anchor="start" x="375" y="-413.9" font-family="Arial" font-size="14.00" fill="#000000">name    </text>
<text text-anchor="start" x="444.2132" y="-413.9" font-family="Arial" font-size="14.00" fill="#666666">[TEXT]</text>
<polygon fill="none" stroke="#000000" points="368,-372.5 368,-402.5 575,-402.5 575,-372.5 368,-372.5"/>
<text text-anchor="start" x="375" y="-383.9" font-family="Arial" font-size="14.00" fill="#000000">state    </text>
<text text-anchor="start" x="439.5512" y="-383.9" font-family="Arial" font-size="14.00" fill="#666666">[TEXT]</text>
<polygon fill="none" stroke="#000000" points="368,-342.5 368,-372.5 575,-372.5 575,-342.5 368,-342.5"/>
<text text-anchor="start" x="375" y="-353.9" font-family="Arial" font-size="14.00" fill="#000000">boundary    </text>
<text text-anchor="start" x="467.561" y="-353.9" font-family="Arial" font-size="14.00" fill="#666666">[TEXT]</text>
<polygon fill="none" stroke="#000000" points="368,-312.5 368,-342.5 575,-342.5 575,-312.5 368,-312.5"/>
<text text-anchor="start" x="375" y="-323.9" font-family="Arial" font-size="14.00" fill="#000000">segmentation    </text>
<text text-anchor="start" x="493.2314" y="-323.9" font-family="Arial" font-size="14.00" fill="#666666">[TEXT]</text>
<polygon fill="none" stroke="#000000" points="368,-282.5 368,-312.5 575,-312.5 575,-282.5 368,-282.5"/>
<text text-anchor="start" x="375" y="-293.9" font-family="Arial" font-size="14.00" fill="#000000">state_sysinfo    </text>
<text text-anchor="start" x="490.8962" y="-293.9" font-family="Arial" font-size="14.00" fill="#666666">[TEXT]</text>
<polygon fill="none" stroke="#000000" points="368,-252.5 368,-282.5 575,-282.5 575,-252.5 368,-252.5"/>
<text text-anchor="start" x="375" y="-263.9" font-family="Arial" font-size="14.00" fill="#000000">elaboration    </text>
<text text-anchor="start" x="478.4474" y="-263.9" font-family="Arial" font-size="14.00" fill="#666666">[TEXT]</text>
<polygon fill="none" stroke="#000000" points="368,-222.5 368,-252.5 575,-252.5 575,-222.5 368,-222.5"/>
<text text-anchor="start" x="375" y="-233.9" font-family="Arial" font-size="14.00" fill="#000000">created_at    </text>
<text text-anchor="start" x="475.3422" y="-233.9" font-family="Arial" font-size="14.00" fill="#666666">[TIMESTAMP]</text>
<polygon fill="none" stroke="#000000" points="368,-192.5 368,-222.5 575,-222.5 575,-192.5 368,-192.5"/>
<text text-anchor="start" x="375" y="-203.9" font-family="Arial" font-size="14.00" fill="#000000">created_by    </text>
<text text-anchor="start" x="478.4516" y="-203.9" font-family="Arial" font-size="14.00" fill="#666666">[TEXT]</text>
<polygon fill="none" stroke="#000000" points="368,-162.5 368,-192.5 575,-192.5 575,-162.5 368,-162.5"/>
<text text-anchor="start" x="374.6543" y="-173.9" font-family="Arial" font-size="14.00" fill="#000000">updated_at    </text>
<text text-anchor="start" x="478.9011" y="-173.9" font-family="Arial" font-size="14.00" fill="#666666">[TIMESTAMP]</text>
<polygon fill="none" stroke="#000000" points="368,-132.5 368,-162.5 575,-162.5 575,-132.5 368,-132.5"/>
<text text-anchor="start" x="375" y="-143.9" font-family="Arial" font-size="14.00" fill="#000000">updated_by    </text>
<text text-anchor="start" x="482.3562" y="-143.9" font-family="Arial" font-size="14.00" fill="#666666">[TEXT]</text>
<polygon fill="none" stroke="#000000" points="368,-102.5 368,-132.5 575,-132.5 575,-102.5 368,-102.5"/>
<text text-anchor="start" x="375" y="-113.9" font-family="Arial" font-size="14.00" fill="#000000">deleted_at    </text>
<text text-anchor="start" x="474.5708" y="-113.9" font-family="Arial" font-size="14.00" fill="#666666">[TIMESTAMP]</text>
<polygon fill="none" stroke="#000000" points="368,-72.5 368,-102.5 575,-102.5 575,-72.5 368,-72.5"/>
<text text-anchor="start" x="375" y="-83.9" font-family="Arial" font-size="14.00" fill="#000000">deleted_by    </text>
<text text-anchor="start" x="477.6802" y="-83.9" font-family="Arial" font-size="14.00" fill="#666666">[TEXT]</text>
<polygon fill="none" stroke="#000000" points="368,-42.5 368,-72.5 575,-72.5 575,-42.5 368,-42.5"/>
<text text-anchor="start" x="375" y="-53.9" font-family="Arial" font-size="14.00" fill="#000000">activity_log    </text>
<text text-anchor="start" x="478.4362" y="-53.9" font-family="Arial" font-size="14.00" fill="#666666">[TEXT]</text>
</g>
<!-- uniform_resource&#45;&gt;device -->
<g id="edge5" class="edge">
<title>uniform_resource:device_id&#45;&gt;device:device_id</title>
<path fill="none" stroke="#000000" d="M183.91,-2787.2901C-62.2256,-2727.1813 110.61,-447.5 368,-447.5"/>
<polygon fill="#000000" stroke="#000000" points="184.0711,-2787.3093 193.4642,-2792.968 189.0356,-2787.9047 194,-2788.5 194,-2788.5 194,-2788.5 189.0356,-2787.9047 194.5358,-2784.032 184.0711,-2787.3093 184.0711,-2787.3093"/>
</g>
<!-- uniform_resource_transform -->
<g id="node2" class="node">
<title>uniform_resource_transform</title>
<polygon fill="#efefef" stroke="transparent" points="43,-3533.5 43,-3568.5 361,-3568.5 361,-3533.5 43,-3533.5"/>
<polygon fill="none" stroke="#000000" points="43,-3533.5 43,-3568.5 361,-3568.5 361,-3533.5 43,-3533.5"/>
<text text-anchor="start" x="52.8242" y="-3546.3" font-family="Arial Bold" font-size="18.00" fill="#000000">uniform_resource_transform</text>
<text text-anchor="start" x="278.8448" y="-3546.3" font-family="Arial" font-size="14.00" fill="#000000">    </text>
<text text-anchor="start" x="313.0496" y="-3546.3" font-family="Arial" font-size="14.00" fill="#666666">[table]</text>
<polygon fill="none" stroke="#000000" points="43,-3503.5 43,-3533.5 361,-3533.5 361,-3503.5 43,-3503.5"/>
<text text-anchor="start" x="49.5561" y="-3514.9" font-family="Arial" font-size="14.00" fill="#000000">uniform_resource_transform_id    </text>
<text text-anchor="start" x="278.2265" y="-3514.9" font-family="Arial" font-size="14.00" fill="#666666">[VARCHAR]</text>
<polygon fill="none" stroke="#000000" points="43,-3473.5 43,-3503.5 361,-3503.5 361,-3473.5 43,-3473.5"/>
<text text-anchor="start" x="50" y="-3484.9" font-family="Arial" font-size="14.00" fill="#000000">uniform_resource_id    </text>
<text text-anchor="start" x="211.777" y="-3484.9" font-family="Arial" font-size="14.00" fill="#666666">[VARCHAR]</text>
<polygon fill="none" stroke="#000000" points="43,-3443.5 43,-3473.5 361,-3473.5 361,-3443.5 43,-3443.5"/>
<text text-anchor="start" x="50" y="-3454.9" font-family="Arial" font-size="14.00" fill="#000000">uri    </text>
<text text-anchor="start" x="99.7546" y="-3454.9" font-family="Arial" font-size="14.00" fill="#666666">[TEXT]</text>
<polygon fill="none" stroke="#000000" points="43,-3413.5 43,-3443.5 361,-3443.5 361,-3413.5 43,-3413.5"/>
<text text-anchor="start" x="50" y="-3424.9" font-family="Arial" font-size="14.00" fill="#000000">content_digest    </text>
<text text-anchor="start" x="175.244" y="-3424.9" font-family="Arial" font-size="14.00" fill="#666666">[TEXT]</text>
<polygon fill="none" stroke="#000000" points="43,-3383.5 43,-3413.5 361,-3413.5 361,-3383.5 43,-3383.5"/>
<text text-anchor="start" x="50" y="-3394.9" font-family="Arial" font-size="14.00" fill="#000000">content    </text>
<text text-anchor="start" x="130.1164" y="-3394.9" font-family="Arial" font-size="14.00" fill="#666666">[BLOB]</text>
<polygon fill="none" stroke="#000000" points="43,-3353.5 43,-3383.5 361,-3383.5 361,-3353.5 43,-3353.5"/>
<text text-anchor="start" x="50" y="-3364.9" font-family="Arial" font-size="14.00" fill="#000000">nature    </text>
<text text-anchor="start" x="123.8864" y="-3364.9" font-family="Arial" font-size="14.00" fill="#666666">[TEXT]</text>
<polygon fill="none" stroke="#000000" points="43,-3323.5 43,-3353.5 361,-3353.5 361,-3323.5 43,-3323.5"/>
<text text-anchor="start" x="50" y="-3334.9" font-family="Arial" font-size="14.00" fill="#000000">size_bytes    </text>
<text text-anchor="start" x="150.3324" y="-3334.9" font-family="Arial" font-size="14.00" fill="#666666">[INTEGER]</text>
<polygon fill="none" stroke="#000000" points="43,-3293.5 43,-3323.5 361,-3323.5 361,-3293.5 43,-3293.5"/>
<text text-anchor="start" x="50" y="-3304.9" font-family="Arial" font-size="14.00" fill="#000000">elaboration    </text>
<text text-anchor="start" x="153.4474" y="-3304.9" font-family="Arial" font-size="14.00" fill="#666666">[TEXT]</text>
<polygon fill="none" stroke="#000000" points="43,-3263.5 43,-3293.5 361,-3293.5 361,-3263.5 43,-3263.5"/>
<text text-anchor="start" x="50" y="-3274.9" font-family="Arial" font-size="14.00" fill="#000000">created_at    </text>
<text text-anchor="start" x="150.3422" y="-3274.9" font-family="Arial" font-size="14.00" fill="#666666">[TIMESTAMP]</text>
<polygon fill="none" stroke="#000000" points="43,-3233.5 43,-3263.5 361,-3263.5 361,-3233.5 43,-3233.5"/>
<text text-anchor="start" x="50" y="-3244.9" font-family="Arial" font-size="14.00" fill="#000000">created_by    </text>
<text text-anchor="start" x="153.4516" y="-3244.9" font-family="Arial" font-size="14.00" fill="#666666">[TEXT]</text>
<polygon fill="none" stroke="#000000" points="43,-3203.5 43,-3233.5 361,-3233.5 361,-3203.5 43,-3203.5"/>
<text text-anchor="start" x="50" y="-3214.9" font-family="Arial" font-size="14.00" fill="#000000">updated_at    </text>
<text text-anchor="start" x="154.2468" y="-3214.9" font-family="Arial" font-size="14.00" fill="#666666">[TIMESTAMP]</text>
<polygon fill="none" stroke="#000000" points="43,-3173.5 43,-3203.5 361,-3203.5 361,-3173.5 43,-3173.5"/>
<text text-anchor="start" x="50" y="-3184.9" font-family="Arial" font-size="14.00" fill="#000000">updated_by    </text>
<text text-anchor="start" x="157.3562" y="-3184.9" font-family="Arial" font-size="14.00" fill="#666666">[TEXT]</text>
<polygon fill="none" stroke="#000000" points="43,-3143.5 43,-3173.5 361,-3173.5 361,-3143.5 43,-3143.5"/>
<text text-anchor="start" x="50" y="-3154.9" font-family="Arial" font-size="14.00" fill="#000000">deleted_at    </text>
<text text-anchor="start" x="149.5708" y="-3154.9" font-family="Arial" font-size="14.00" fill="#666666">[TIMESTAMP]</text>
<polygon fill="none" stroke="#000000" points="43,-3113.5 43,-3143.5 361,-3143.5 361,-3113.5 43,-3113.5"/>
<text text-anchor="start" x="50" y="-3124.9" font-family="Arial" font-size="14.00" fill="#000000">deleted_by    </text>
<text text-anchor="start" x="152.6802" y="-3124.9" font-family="Arial" font-size="14.00" fill="#666666">[TEXT]</text>
<polygon fill="none" stroke="#000000" points="43,-3083.5 43,-3113.5 361,-3113.5 361,-3083.5 43,-3083.5"/>
<text text-anchor="start" x="50" y="-3094.9" font-family="Arial" font-size="14.00" fill="#000000">activity_log    </text>
<text text-anchor="start" x="153.4362" y="-3094.9" font-family="Arial" font-size="14.00" fill="#666666">[TEXT]</text>
</g>
<!-- uniform_resource_transform&#45;&gt;uniform_resource -->
<g id="edge1" class="edge">
<title>uniform_resource_transform:uniform_resource_id&#45;&gt;uniform_resource:uniform_resource_id</title>
<path fill="none" stroke="#000000" d="M369.9075,-3483.3916C407.087,-3436.5581 381.7003,-3082.5494 361,-3041 319.5382,-2957.7783 235.4618,-2998.2217 194,-2915 174.8745,-2876.6115 151.1111,-2818.5 194,-2818.5"/>
<polygon fill="#000000" stroke="#000000" points="369.6747,-3483.5251 358.7613,-3484.5964 365.3374,-3486.0125 361,-3488.5 361,-3488.5 361,-3488.5 365.3374,-3486.0125 363.2387,-3492.4036 369.6747,-3483.5251 369.6747,-3483.5251"/>
</g>
<!-- ur_ingest_session_fs_path_entry -->
<g id="node3" class="node">
<title>ur_ingest_session_fs_path_entry</title>
<polygon fill="#efefef" stroke="transparent" points="465,-3623.5 465,-3658.5 815,-3658.5 815,-3623.5 465,-3623.5"/>
<polygon fill="none" stroke="#000000" points="465,-3623.5 465,-3658.5 815,-3658.5 815,-3623.5 465,-3623.5"/>
<text text-anchor="start" x="471.791" y="-3636.3" font-family="Arial Bold" font-size="18.00" fill="#000000">ur_ingest_session_fs_path_entry</text>
<text text-anchor="start" x="735.878" y="-3636.3" font-family="Arial" font-size="14.00" fill="#000000">    </text>
<text text-anchor="start" x="770.0828" y="-3636.3" font-family="Arial" font-size="14.00" fill="#666666">[table]</text>
<polygon fill="none" stroke="#000000" points="465,-3593.5 465,-3623.5 815,-3623.5 815,-3593.5 465,-3593.5"/>
<text text-anchor="start" x="472" y="-3604.9" font-family="Arial" font-size="14.00" fill="#000000">ur_ingest_session_fs_path_entry_id    </text>
<text text-anchor="start" x="730.2776" y="-3604.9" font-family="Arial" font-size="14.00" fill="#666666">[VARCHAR]</text>
<polygon fill="none" stroke="#000000" points="465,-3563.5 465,-3593.5 815,-3593.5 815,-3563.5 465,-3563.5"/>
<text text-anchor="start" x="472" y="-3574.9" font-family="Arial" font-size="14.00" fill="#000000">ingest_session_id    </text>
<text text-anchor="start" x="617.4586" y="-3574.9" font-family="Arial" font-size="14.00" fill="#666666">[VARCHAR]</text>
<polygon fill="none" stroke="#000000" points="465,-3533.5 465,-3563.5 815,-3563.5 815,-3533.5 465,-3533.5"/>
<text text-anchor="start" x="472" y="-3544.9" font-family="Arial" font-size="14.00" fill="#000000">ingest_fs_path_id    </text>
<text text-anchor="start" x="615.9158" y="-3544.9" font-family="Arial" font-size="14.00" fill="#666666">[VARCHAR]</text>
<polygon fill="none" stroke="#000000" points="465,-3503.5 465,-3533.5 815,-3533.5 815,-3503.5 465,-3503.5"/>
<text text-anchor="start" x="472" y="-3514.9" font-family="Arial" font-size="14.00" fill="#000000">uniform_resource_id    </text>
<text text-anchor="start" x="633.777" y="-3514.9" font-family="Arial" font-size="14.00" fill="#666666">[VARCHAR]</text>
<polygon fill="none" stroke="#000000" points="465,-3473.5 465,-3503.5 815,-3503.5 815,-3473.5 465,-3473.5"/>
<text text-anchor="start" x="472" y="-3484.9" font-family="Arial" font-size="14.00" fill="#000000">file_path_abs    </text>
<text text-anchor="start" x="589.46" y="-3484.9" font-family="Arial" font-size="14.00" fill="#666666">[TEXT]</text>
<polygon fill="none" stroke="#000000" points="465,-3443.5 465,-3473.5 815,-3473.5 815,-3443.5 465,-3443.5"/>
<text text-anchor="start" x="472" y="-3454.9" font-family="Arial" font-size="14.00" fill="#000000">file_path_rel_parent    </text>
<text text-anchor="start" x="629.9088" y="-3454.9" font-family="Arial" font-size="14.00" fill="#666666">[TEXT]</text>
<polygon fill="none" stroke="#000000" points="465,-3413.5 465,-3443.5 815,-3443.5 815,-3413.5 465,-3413.5"/>
<text text-anchor="start" x="472" y="-3424.9" font-family="Arial" font-size="14.00" fill="#000000">file_path_rel    </text>
<text text-anchor="start" x="582.4446" y="-3424.9" font-family="Arial" font-size="14.00" fill="#666666">[TEXT]</text>
<polygon fill="none" stroke="#000000" points="465,-3383.5 465,-3413.5 815,-3413.5 815,-3383.5 465,-3383.5"/>
<text text-anchor="start" x="472" y="-3394.9" font-family="Arial" font-size="14.00" fill="#000000">file_basename    </text>
<text text-anchor="start" x="597.23" y="-3394.9" font-family="Arial" font-size="14.00" fill="#666666">[TEXT]</text>
<polygon fill="none" stroke="#000000" points="465,-3353.5 465,-3383.5 815,-3383.5 815,-3353.5 465,-3353.5"/>
<text text-anchor="start" x="472" y="-3364.9" font-family="Arial" font-size="14.00" fill="#000000">file_extn    </text>
<text text-anchor="start" x="558.3296" y="-3364.9" font-family="Arial" font-size="14.00" fill="#666666">[TEXT]</text>
<polygon fill="none" stroke="#000000" points="465,-3323.5 465,-3353.5 815,-3353.5 815,-3323.5 465,-3323.5"/>
<text text-anchor="start" x="472" y="-3334.9" font-family="Arial" font-size="14.00" fill="#000000">captured_executable    </text>
<text text-anchor="start" x="636.1444" y="-3334.9" font-family="Arial" font-size="14.00" fill="#666666">[TEXT]</text>
<polygon fill="none" stroke="#000000" points="465,-3293.5 465,-3323.5 815,-3323.5 815,-3293.5 465,-3293.5"/>
<text text-anchor="start" x="472" y="-3304.9" font-family="Arial" font-size="14.00" fill="#000000">ur_status    </text>
<text text-anchor="start" x="563.777" y="-3304.9" font-family="Arial" font-size="14.00" fill="#666666">[TEXT]</text>
<polygon fill="none" stroke="#000000" points="465,-3263.5 465,-3293.5 815,-3293.5 815,-3263.5 465,-3263.5"/>
<text text-anchor="start" x="472" y="-3274.9" font-family="Arial" font-size="14.00" fill="#000000">ur_diagnostics    </text>
<text text-anchor="start" x="596.4474" y="-3274.9" font-family="Arial" font-size="14.00" fill="#666666">[TEXT]</text>
<polygon fill="none" stroke="#000000" points="465,-3233.5 465,-3263.5 815,-3263.5 815,-3233.5 465,-3233.5"/>
<text text-anchor="start" x="472" y="-3244.9" font-family="Arial" font-size="14.00" fill="#000000">ur_transformations    </text>
<text text-anchor="start" x="622.8864" y="-3244.9" font-family="Arial" font-size="14.00" fill="#666666">[TEXT]</text>
<polygon fill="none" stroke="#000000" points="465,-3203.5 465,-3233.5 815,-3233.5 815,-3203.5 465,-3203.5"/>
<text text-anchor="start" x="472" y="-3214.9" font-family="Arial" font-size="14.00" fill="#000000">elaboration    </text>
<text text-anchor="start" x="575.4474" y="-3214.9" font-family="Arial" font-size="14.00" fill="#666666">[TEXT]</text>
<polygon fill="none" stroke="#000000" points="465,-3173.5 465,-3203.5 815,-3203.5 815,-3173.5 465,-3173.5"/>
<text text-anchor="start" x="472" y="-3184.9" font-family="Arial" font-size="14.00" fill="#000000">created_at    </text>
<text text-anchor="start" x="572.3422" y="-3184.9" font-family="Arial" font-size="14.00" fill="#666666">[TIMESTAMP]</text>
<polygon fill="none" stroke="#000000" points="465,-3143.5 465,-3173.5 815,-3173.5 815,-3143.5 465,-3143.5"/>
<text text-anchor="start" x="472" y="-3154.9" font-family="Arial" font-size="14.00" fill="#000000">created_by    </text>
<text text-anchor="start" x="575.4516" y="-3154.9" font-family="Arial" font-size="14.00" fill="#666666">[TEXT]</text>
<polygon fill="none" stroke="#000000" points="465,-3113.5 465,-3143.5 815,-3143.5 815,-3113.5 465,-3113.5"/>
<text text-anchor="start" x="472" y="-3124.9" font-family="Arial" font-size="14.00" fill="#000000">updated_at    </text>
<text text-anchor="start" x="576.2468" y="-3124.9" font-family="Arial" font-size="14.00" fill="#666666">[TIMESTAMP]</text>
<polygon fill="none" stroke="#000000" points="465,-3083.5 465,-3113.5 815,-3113.5 815,-3083.5 465,-3083.5"/>
<text text-anchor="start" x="472" y="-3094.9" font-family="Arial" font-size="14.00" fill="#000000">updated_by    </text>
<text text-anchor="start" x="579.3562" y="-3094.9" font-family="Arial" font-size="14.00" fill="#666666">[TEXT]</text>
<polygon fill="none" stroke="#000000" points="465,-3053.5 465,-3083.5 815,-3083.5 815,-3053.5 465,-3053.5"/>
<text text-anchor="start" x="472" y="-3064.9" font-family="Arial" font-size="14.00" fill="#000000">deleted_at    </text>
<text text-anchor="start" x="571.5708" y="-3064.9" font-family="Arial" font-size="14.00" fill="#666666">[TIMESTAMP]</text>
<polygon fill="none" stroke="#000000" points="465,-3023.5 465,-3053.5 815,-3053.5 815,-3023.5 465,-3023.5"/>
<text text-anchor="start" x="472" y="-3034.9" font-family="Arial" font-size="14.00" fill="#000000">deleted_by    </text>
<text text-anchor="start" x="574.6802" y="-3034.9" font-family="Arial" font-size="14.00" fill="#666666">[TEXT]</text>
<polygon fill="none" stroke="#000000" points="465,-2993.5 465,-3023.5 815,-3023.5 815,-2993.5 465,-2993.5"/>
<text text-anchor="start" x="472" y="-3004.9" font-family="Arial" font-size="14.00" fill="#000000">activity_log    </text>
<text text-anchor="start" x="575.4362" y="-3004.9" font-family="Arial" font-size="14.00" fill="#666666">[TEXT]</text>
</g>
<!-- ur_ingest_session_fs_path_entry&#45;&gt;uniform_resource -->
<g id="edge2" class="edge">
<title>ur_ingest_session_fs_path_entry:uniform_resource_id&#45;&gt;uniform_resource:uniform_resource_id</title>
<path fill="none" stroke="#000000" d="M455.6054,-3514.3892C396.6422,-3457.022 494.4372,-2818.5 420,-2818.5"/>
<polygon fill="#000000" stroke="#000000" points="455.8387,-3514.4912 463.196,-3522.6226 460.4193,-3516.4956 465,-3518.5 465,-3518.5 465,-3518.5 460.4193,-3516.4956 466.804,-3514.3774 455.8387,-3514.4912 455.8387,-3514.4912"/>
</g>
<!-- ur_ingest_session_fs_path_entry&#45;&gt;ur_ingest_session -->
<g id="edge3" class="edge">
<title>ur_ingest_session_fs_path_entry:ingest_session_id&#45;&gt;ur_ingest_session:ur_ingest_session_id</title>
<path fill="none" stroke="#000000" d="M825.2084,-3577.0453C1033.826,-3516.2712 881.1609,-1571.5 661,-1571.5"/>
<polygon fill="#000000" stroke="#000000" points="824.9,-3577.0892 814.3651,-3574.045 819.95,-3577.7946 815,-3578.5 815,-3578.5 815,-3578.5 819.95,-3577.7946 815.6349,-3582.955 824.9,-3577.0892 824.9,-3577.0892"/>
</g>
<!-- ur_ingest_session_fs_path_entry&#45;&gt;ur_ingest_session_fs_path -->
<g id="edge4" class="edge">
<title>ur_ingest_session_fs_path_entry:ingest_fs_path_id&#45;&gt;ur_ingest_session_fs_path:ur_ingest_session_fs_path_id</title>
<path fill="none" stroke="#000000" d="M455.821,-3544.5171C404.3142,-3495.6983 456.4506,-3013.435 465,-2951 465.1954,-2949.5731 687.8046,-2153.4269 688,-2152 693.6377,-2110.8286 729.5556,-2058.5 688,-2058.5"/>
<polygon fill="#000000" stroke="#000000" points="455.8264,-3544.5194 463.2087,-3552.6281 460.4132,-3546.5097 465,-3548.5 465,-3548.5 465,-3548.5 460.4132,-3546.5097 466.7913,-3544.3719 455.8264,-3544.5194 455.8264,-3544.5194"/>
</g>
<!-- ur_ingest_session&#45;&gt;device -->
<g id="edge7" class="edge">
<title>ur_ingest_session:device_id&#45;&gt;device:device_id</title>
<path fill="none" stroke="#000000" d="M671.1614,-1540.8481C902.3939,-1510.7369 815.408,-447.5 575,-447.5"/>
<polygon fill="#000000" stroke="#000000" points="670.9795,-1540.8597 660.7119,-1537.0092 665.9897,-1541.1799 661,-1541.5 661,-1541.5 661,-1541.5 665.9897,-1541.1799 661.2881,-1545.9908 670.9795,-1540.8597 670.9795,-1540.8597"/>
</g>
<!-- behavior -->
<g id="node7" class="node">
<title>behavior</title>
<polygon fill="#efefef" stroke="transparent" points="340,-1009.5 340,-1044.5 604,-1044.5 604,-1009.5 340,-1009.5"/>
<polygon fill="none" stroke="#000000" points="340,-1009.5 340,-1044.5 604,-1044.5 604,-1009.5 340,-1009.5"/>
<text text-anchor="start" x="401.3258" y="-1022.3" font-family="Arial Bold" font-size="18.00" fill="#000000">behavior</text>
<text text-anchor="start" x="470.3432" y="-1022.3" font-family="Arial" font-size="14.00" fill="#000000">    </text>
<text text-anchor="start" x="504.548" y="-1022.3" font-family="Arial" font-size="14.00" fill="#666666">[table]</text>
<polygon fill="none" stroke="#000000" points="340,-979.5 340,-1009.5 604,-1009.5 604,-979.5 340,-979.5"/>
<text text-anchor="start" x="347" y="-990.9" font-family="Arial" font-size="14.00" fill="#000000">behavior_id    </text>
<text text-anchor="start" x="453.5568" y="-990.9" font-family="Arial" font-size="14.00" fill="#666666">[VARCHAR]</text>
<polygon fill="none" stroke="#000000" points="340,-949.5 340,-979.5 604,-979.5 604,-949.5 340,-949.5"/>
<text text-anchor="start" x="347" y="-960.9" font-family="Arial" font-size="14.00" fill="#000000">device_id    </text>
<text text-anchor="start" x="440.331" y="-960.9" font-family="Arial" font-size="14.00" fill="#666666">[VARCHAR]</text>
<polygon fill="none" stroke="#000000" points="340,-919.5 340,-949.5 604,-949.5 604,-919.5 340,-919.5"/>
<text text-anchor="start" x="347" y="-930.9" font-family="Arial" font-size="14.00" fill="#000000">behavior_name    </text>
<text text-anchor="start" x="477.676" y="-930.9" font-family="Arial" font-size="14.00" fill="#666666">[TEXT]</text>
<polygon fill="none" stroke="#000000" points="340,-889.5 340,-919.5 604,-919.5 604,-889.5 340,-889.5"/>
<text text-anchor="start" x="347" y="-900.9" font-family="Arial" font-size="14.00" fill="#000000">behavior_conf_json    </text>
<text text-anchor="start" x="502.5778" y="-900.9" font-family="Arial" font-size="14.00" fill="#666666">[TEXT]</text>
<polygon fill="none" stroke="#000000" points="340,-859.5 340,-889.5 604,-889.5 604,-859.5 340,-859.5"/>
<text text-anchor="start" x="346.7707" y="-870.9" font-family="Arial" font-size="14.00" fill="#000000">assurance_schema_id    </text>
<text text-anchor="start" x="521.0119" y="-870.9" font-family="Arial" font-size="14.00" fill="#666666">[VARCHAR]</text>
<polygon fill="none" stroke="#000000" points="340,-829.5 340,-859.5 604,-859.5 604,-829.5 340,-829.5"/>
<text text-anchor="start" x="347" y="-840.9" font-family="Arial" font-size="14.00" fill="#000000">governance    </text>
<text text-anchor="start" x="454.3436" y="-840.9" font-family="Arial" font-size="14.00" fill="#666666">[TEXT]</text>
<polygon fill="none" stroke="#000000" points="340,-799.5 340,-829.5 604,-829.5 604,-799.5 340,-799.5"/>
<text text-anchor="start" x="347" y="-810.9" font-family="Arial" font-size="14.00" fill="#000000">created_at    </text>
<text text-anchor="start" x="447.3422" y="-810.9" font-family="Arial" font-size="14.00" fill="#666666">[TIMESTAMP]</text>
<polygon fill="none" stroke="#000000" points="340,-769.5 340,-799.5 604,-799.5 604,-769.5 340,-769.5"/>
<text text-anchor="start" x="347" y="-780.9" font-family="Arial" font-size="14.00" fill="#000000">created_by    </text>
<text text-anchor="start" x="450.4516" y="-780.9" font-family="Arial" font-size="14.00" fill="#666666">[TEXT]</text>
<polygon fill="none" stroke="#000000" points="340,-739.5 340,-769.5 604,-769.5 604,-739.5 340,-739.5"/>
<text text-anchor="start" x="347" y="-750.9" font-family="Arial" font-size="14.00" fill="#000000">updated_at    </text>
<text text-anchor="start" x="451.2468" y="-750.9" font-family="Arial" font-size="14.00" fill="#666666">[TIMESTAMP]</text>
<polygon fill="none" stroke="#000000" points="340,-709.5 340,-739.5 604,-739.5 604,-709.5 340,-709.5"/>
<text text-anchor="start" x="347" y="-720.9" font-family="Arial" font-size="14.00" fill="#000000">updated_by    </text>
<text text-anchor="start" x="454.3562" y="-720.9" font-family="Arial" font-size="14.00" fill="#666666">[TEXT]</text>
<polygon fill="none" stroke="#000000" points="340,-679.5 340,-709.5 604,-709.5 604,-679.5 340,-679.5"/>
<text text-anchor="start" x="347" y="-690.9" font-family="Arial" font-size="14.00" fill="#000000">deleted_at    </text>
<text text-anchor="start" x="446.5708" y="-690.9" font-family="Arial" font-size="14.00" fill="#666666">[TIMESTAMP]</text>
<polygon fill="none" stroke="#000000" points="340,-649.5 340,-679.5 604,-679.5 604,-649.5 340,-649.5"/>
<text text-anchor="start" x="347" y="-660.9" font-family="Arial" font-size="14.00" fill="#000000">deleted_by    </text>
<text text-anchor="start" x="449.6802" y="-660.9" font-family="Arial" font-size="14.00" fill="#666666">[TEXT]</text>
<polygon fill="none" stroke="#000000" points="340,-619.5 340,-649.5 604,-649.5 604,-619.5 340,-619.5"/>
<text text-anchor="start" x="347" y="-630.9" font-family="Arial" font-size="14.00" fill="#000000">activity_log    </text>
<text text-anchor="start" x="450.4362" y="-630.9" font-family="Arial" font-size="14.00" fill="#666666">[TEXT]</text>
</g>
<!-- ur_ingest_session&#45;&gt;behavior -->
<g id="edge10" class="edge">
<title>ur_ingest_session:behavior_id&#45;&gt;behavior:behavior_id</title>
<path fill="none" stroke="#000000" d="M395.6981,-1511.1812C236.3359,-1501.0814 297.9121,-1253.5123 406,-1124 463.3102,-1055.3302 546.6898,-1156.6698 604,-1088 630.6266,-1056.0957 645.5556,-994.5 604,-994.5"/>
<polygon fill="#000000" stroke="#000000" points="396.0048,-1511.1906 405.8608,-1515.9978 401.0024,-1511.3453 406,-1511.5 406,-1511.5 406,-1511.5 401.0024,-1511.3453 406.1392,-1507.0022 396.0048,-1511.1906 396.0048,-1511.1906"/>
</g>
<!-- ur_ingest_session_fs_path&#45;&gt;ur_ingest_session -->
<g id="edge9" class="edge">
<title>ur_ingest_session_fs_path:ingest_session_id&#45;&gt;ur_ingest_session:ur_ingest_session_id</title>
<path fill="none" stroke="#000000" d="M370.3619,-2023.3677C331.6019,-1973.1602 358.3128,-1571.5 406,-1571.5"/>
<polygon fill="#000000" stroke="#000000" points="370.4029,-2023.392 376.7014,-2032.3687 374.7015,-2025.946 379,-2028.5 379,-2028.5 379,-2028.5 374.7015,-2025.946 381.2986,-2024.6313 370.4029,-2023.392 370.4029,-2023.392"/>
</g>
<!-- behavior&#45;&gt;device -->
<g id="edge6" class="edge">
<title>behavior:device_id&#45;&gt;device:device_id</title>
<path fill="none" stroke="#000000" d="M329.9842,-962.914C256.3954,-938.5047 286.2101,-639.6576 340,-577 408.826,-496.8275 506.174,-621.1725 575,-541 602.0682,-509.4694 616.5556,-447.5 575,-447.5"/>
<polygon fill="#000000" stroke="#000000" points="330.1231,-962.936 339.2962,-968.9446 335.0615,-963.718 340,-964.5 340,-964.5 340,-964.5 335.0615,-963.718 340.7038,-960.0554 330.1231,-962.936 330.1231,-962.936"/>
</g>
</g>
</svg>
