<?xml version="1.0" encoding="UTF-8" standalone="no"?>
<!DOCTYPE svg PUBLIC "-//W3C//DTD SVG 1.1//EN"
 "http://www.w3.org/Graphics/SVG/1.1/DTD/svg11.dtd">
<!-- Generated by graphviz version 2.40.1 (20161225.0304)
 -->
<!-- Title: uniform_resource Pages: 1 -->
<svg width="926pt" height="3710pt"
 viewBox="0.00 0.00 925.83 3710.00" xmlns="http://www.w3.org/2000/svg" xmlns:xlink="http://www.w3.org/1999/xlink">
<g id="graph0" class="graph" transform="scale(1 1) rotate(0) translate(4 3706)">
<title>uniform_resource</title>
<polygon fill="#ffffff" stroke="transparent" points="-4,4 -4,-3706 921.8266,-3706 921.8266,4 -4,4"/>
<!-- uniform_resource -->
<g id="node1" class="node">
<title>uniform_resource</title>
<polygon fill="#efefef" stroke="transparent" points="193,-2833.5 193,-2868.5 419,-2868.5 419,-2833.5 193,-2833.5"/>
<polygon fill="none" stroke="#000000" points="193,-2833.5 193,-2868.5 419,-2868.5 419,-2833.5 193,-2833.5"/>
<text text-anchor="start" x="199.8271" y="-2846.3" font-family="Arial Bold" font-size="18.00" fill="#000000">uniform_resource</text>
<text text-anchor="start" x="339.8419" y="-2846.3" font-family="Arial" font-size="14.00" fill="#000000">    </text>
<text text-anchor="start" x="374.0467" y="-2846.3" font-family="Arial" font-size="14.00" fill="#666666">[table]</text>
<polygon fill="none" stroke="#000000" points="193,-2803.5 193,-2833.5 419,-2833.5 419,-2803.5 193,-2803.5"/>
<text text-anchor="start" x="200" y="-2814.9" font-family="Arial" font-size="14.00" fill="#000000">uniform_resource_id </text>
<text text-anchor="start" x="331.4628" y="-2814.9" font-family="Arial" font-size="14.00" fill="#666666">[ULID]</text>
<polygon fill="none" stroke="#000000" points="193,-2773.5 193,-2803.5 419,-2803.5 419,-2773.5 193,-2773.5"/>
<text text-anchor="start" x="200" y="-2784.9" font-family="Arial" font-size="14.00" fill="#000000">device_id </text>
<text text-anchor="start" x="263.0168" y="-2784.9" font-family="Arial" font-size="14.00" fill="#666666">[ULID]</text>
<polygon fill="none" stroke="#000000" points="193,-2743.5 193,-2773.5 419,-2773.5 419,-2743.5 193,-2743.5"/>
<text text-anchor="start" x="200" y="-2754.9" font-family="Arial" font-size="14.00" fill="#000000">ingest_session_id </text>
<text text-anchor="start" x="315.1444" y="-2754.9" font-family="Arial" font-size="14.00" fill="#666666">[ULID]</text>
<polygon fill="none" stroke="#000000" points="193,-2713.5 193,-2743.5 419,-2743.5 419,-2713.5 193,-2713.5"/>
<text text-anchor="start" x="200" y="-2724.9" font-family="Arial" font-size="14.00" fill="#000000">ingest_fs_path_id </text>
<text text-anchor="start" x="313.6016" y="-2724.9" font-family="Arial" font-size="14.00" fill="#666666">[ULID]</text>
<polygon fill="none" stroke="#000000" points="193,-2683.5 193,-2713.5 419,-2713.5 419,-2683.5 193,-2683.5"/>
<text text-anchor="start" x="200" y="-2694.9" font-family="Arial" font-size="14.00" fill="#000000">uri </text>
<text text-anchor="start" x="219.4404" y="-2694.9" font-family="Arial" font-size="14.00" fill="#666666">[TEXT]</text>
<polygon fill="none" stroke="#000000" points="193,-2653.5 193,-2683.5 419,-2683.5 419,-2653.5 193,-2653.5"/>
<text text-anchor="start" x="200" y="-2664.9" font-family="Arial" font-size="14.00" fill="#000000">content_digest </text>
<text text-anchor="start" x="294.9298" y="-2664.9" font-family="Arial" font-size="14.00" fill="#666666">[TEXT]</text>
<polygon fill="none" stroke="#000000" points="193,-2623.5 193,-2653.5 419,-2653.5 419,-2623.5 193,-2623.5"/>
<text text-anchor="start" x="200" y="-2634.9" font-family="Arial" font-size="14.00" fill="#000000">content </text>
<text text-anchor="start" x="249.8022" y="-2634.9" font-family="Arial" font-size="14.00" fill="#666666">[BLOB]</text>
<polygon fill="none" stroke="#000000" points="193,-2593.5 193,-2623.5 419,-2623.5 419,-2593.5 193,-2593.5"/>
<text text-anchor="start" x="200" y="-2604.9" font-family="Arial" font-size="14.00" fill="#000000">nature </text>
<text text-anchor="start" x="243.5722" y="-2604.9" font-family="Arial" font-size="14.00" fill="#666666">[TEXT]</text>
<polygon fill="none" stroke="#000000" points="193,-2563.5 193,-2593.5 419,-2593.5 419,-2563.5 193,-2563.5"/>
<text text-anchor="start" x="200" y="-2574.9" font-family="Arial" font-size="14.00" fill="#000000">size_bytes </text>
<text text-anchor="start" x="270.0182" y="-2574.9" font-family="Arial" font-size="14.00" fill="#666666">[INTEGER]</text>
<polygon fill="none" stroke="#000000" points="193,-2533.5 193,-2563.5 419,-2563.5 419,-2533.5 193,-2533.5"/>
<text text-anchor="start" x="200" y="-2544.9" font-family="Arial" font-size="14.00" fill="#000000">last_modified_at </text>
<text text-anchor="start" x="305.8036" y="-2544.9" font-family="Arial" font-size="14.00" fill="#666666">[INTEGER]</text>
<polygon fill="none" stroke="#000000" points="193,-2503.5 193,-2533.5 419,-2533.5 419,-2503.5 193,-2503.5"/>
<text text-anchor="start" x="200" y="-2514.9" font-family="Arial" font-size="14.00" fill="#000000">content_fm_body_attrs </text>
<text text-anchor="start" x="346.2734" y="-2514.9" font-family="Arial" font-size="14.00" fill="#666666">[TEXT]</text>
<polygon fill="none" stroke="#000000" points="193,-2473.5 193,-2503.5 419,-2503.5 419,-2473.5 193,-2473.5"/>
<text text-anchor="start" x="200" y="-2484.9" font-family="Arial" font-size="14.00" fill="#000000">frontmatter </text>
<text text-anchor="start" x="271.5652" y="-2484.9" font-family="Arial" font-size="14.00" fill="#666666">[TEXT]</text>
<polygon fill="none" stroke="#000000" points="193,-2443.5 193,-2473.5 419,-2473.5 419,-2443.5 193,-2443.5"/>
<text text-anchor="start" x="200" y="-2454.9" font-family="Arial" font-size="14.00" fill="#000000">elaboration </text>
<text text-anchor="start" x="273.1332" y="-2454.9" font-family="Arial" font-size="14.00" fill="#666666">[TEXT]</text>
<polygon fill="none" stroke="#000000" points="193,-2413.5 193,-2443.5 419,-2443.5 419,-2413.5 193,-2413.5"/>
<text text-anchor="start" x="200" y="-2424.9" font-family="Arial" font-size="14.00" fill="#000000">created_at </text>
<text text-anchor="start" x="270.028" y="-2424.9" font-family="Arial" font-size="14.00" fill="#666666">[TIMESTAMP]</text>
<polygon fill="none" stroke="#000000" points="193,-2383.5 193,-2413.5 419,-2413.5 419,-2383.5 193,-2383.5"/>
<text text-anchor="start" x="200" y="-2394.9" font-family="Arial" font-size="14.00" fill="#000000">created_by </text>
<text text-anchor="start" x="273.1374" y="-2394.9" font-family="Arial" font-size="14.00" fill="#666666">[TEXT]</text>
<polygon fill="none" stroke="#000000" points="193,-2353.5 193,-2383.5 419,-2383.5 419,-2353.5 193,-2353.5"/>
<text text-anchor="start" x="200" y="-2364.9" font-family="Arial" font-size="14.00" fill="#000000">updated_at </text>
<text text-anchor="start" x="273.9326" y="-2364.9" font-family="Arial" font-size="14.00" fill="#666666">[TIMESTAMP]</text>
<polygon fill="none" stroke="#000000" points="193,-2323.5 193,-2353.5 419,-2353.5 419,-2323.5 193,-2323.5"/>
<text text-anchor="start" x="200" y="-2334.9" font-family="Arial" font-size="14.00" fill="#000000">updated_by </text>
<text text-anchor="start" x="277.042" y="-2334.9" font-family="Arial" font-size="14.00" fill="#666666">[TEXT]</text>
<polygon fill="none" stroke="#000000" points="193,-2293.5 193,-2323.5 419,-2323.5 419,-2293.5 193,-2293.5"/>
<text text-anchor="start" x="200" y="-2304.9" font-family="Arial" font-size="14.00" fill="#000000">deleted_at </text>
<text text-anchor="start" x="269.2566" y="-2304.9" font-family="Arial" font-size="14.00" fill="#666666">[TIMESTAMP]</text>
<polygon fill="none" stroke="#000000" points="193,-2263.5 193,-2293.5 419,-2293.5 419,-2263.5 193,-2263.5"/>
<text text-anchor="start" x="200" y="-2274.9" font-family="Arial" font-size="14.00" fill="#000000">deleted_by </text>
<text text-anchor="start" x="272.366" y="-2274.9" font-family="Arial" font-size="14.00" fill="#666666">[TEXT]</text>
<polygon fill="none" stroke="#000000" points="193,-2233.5 193,-2263.5 419,-2263.5 419,-2233.5 193,-2233.5"/>
<text text-anchor="start" x="200" y="-2244.9" font-family="Arial" font-size="14.00" fill="#000000">activity_log </text>
<text text-anchor="start" x="273.122" y="-2244.9" font-family="Arial" font-size="14.00" fill="#666666">[TEXT]</text>
<polygon fill="none" stroke="#000000" stroke-width="3" points="191.5,-2232.5 191.5,-2870.5 420.5,-2870.5 420.5,-2232.5 191.5,-2232.5"/>
</g>
<!-- ur_ingest_session -->
<g id="node4" class="node">
<title>ur_ingest_session</title>
<polygon fill="#efefef" stroke="transparent" points="402,-1586.5 402,-1621.5 652,-1621.5 652,-1586.5 402,-1586.5"/>
<polygon fill="none" stroke="#000000" points="402,-1586.5 402,-1621.5 652,-1621.5 652,-1586.5 402,-1586.5"/>
<text text-anchor="start" x="418.3152" y="-1599.3" font-family="Arial Bold" font-size="18.00" fill="#000000">ur_ingest_session</text>
<text text-anchor="start" x="563.3538" y="-1599.3" font-family="Arial" font-size="14.00" fill="#000000">    </text>
<text text-anchor="start" x="597.5586" y="-1599.3" font-family="Arial" font-size="14.00" fill="#666666">[table]</text>
<polygon fill="none" stroke="#000000" points="402,-1556.5 402,-1586.5 652,-1586.5 652,-1556.5 402,-1556.5"/>
<text text-anchor="start" x="409" y="-1567.9" font-family="Arial" font-size="14.00" fill="#000000">ur_ingest_session_id    </text>
<text text-anchor="start" x="574.6844" y="-1567.9" font-family="Arial" font-size="14.00" fill="#666666">[ULID]</text>
<polygon fill="none" stroke="#000000" points="402,-1526.5 402,-1556.5 652,-1556.5 652,-1526.5 402,-1526.5"/>
<text text-anchor="start" x="409" y="-1537.9" font-family="Arial" font-size="14.00" fill="#000000">device_id    </text>
<text text-anchor="start" x="502.331" y="-1537.9" font-family="Arial" font-size="14.00" fill="#666666">[ULID]</text>
<polygon fill="none" stroke="#000000" points="402,-1496.5 402,-1526.5 652,-1526.5 652,-1496.5 402,-1496.5"/>
<text text-anchor="start" x="409" y="-1507.9" font-family="Arial" font-size="14.00" fill="#000000">behavior_id    </text>
<text text-anchor="start" x="515.5568" y="-1507.9" font-family="Arial" font-size="14.00" fill="#666666">[ULID]</text>
<polygon fill="none" stroke="#000000" points="402,-1466.5 402,-1496.5 652,-1496.5 652,-1466.5 402,-1466.5"/>
<text text-anchor="start" x="409" y="-1477.9" font-family="Arial" font-size="14.00" fill="#000000">behavior_json    </text>
<text text-anchor="start" x="530.3394" y="-1477.9" font-family="Arial" font-size="14.00" fill="#666666">[TEXT]</text>
<polygon fill="none" stroke="#000000" points="402,-1436.5 402,-1466.5 652,-1466.5 652,-1436.5 402,-1436.5"/>
<text text-anchor="start" x="409" y="-1447.9" font-family="Arial" font-size="14.00" fill="#000000">ingest_started_at    </text>
<text text-anchor="start" x="550.5778" y="-1447.9" font-family="Arial" font-size="14.00" fill="#666666">[TIMESTAMP]</text>
<polygon fill="none" stroke="#000000" points="402,-1406.5 402,-1436.5 652,-1436.5 652,-1406.5 402,-1406.5"/>
<text text-anchor="start" x="408.7665" y="-1417.9" font-family="Arial" font-size="14.00" fill="#000000">ingest_finished_at    </text>
<text text-anchor="start" x="555.7889" y="-1417.9" font-family="Arial" font-size="14.00" fill="#666666">[TIMESTAMP]</text>
<polygon fill="none" stroke="#000000" points="402,-1376.5 402,-1406.5 652,-1406.5 652,-1376.5 402,-1376.5"/>
<text text-anchor="start" x="409" y="-1387.9" font-family="Arial" font-size="14.00" fill="#000000">elaboration    </text>
<text text-anchor="start" x="512.4474" y="-1387.9" font-family="Arial" font-size="14.00" fill="#666666">[TEXT]</text>
<polygon fill="none" stroke="#000000" points="402,-1346.5 402,-1376.5 652,-1376.5 652,-1346.5 402,-1346.5"/>
<text text-anchor="start" x="409" y="-1357.9" font-family="Arial" font-size="14.00" fill="#000000">created_at    </text>
<text text-anchor="start" x="509.3422" y="-1357.9" font-family="Arial" font-size="14.00" fill="#666666">[TIMESTAMP]</text>
<polygon fill="none" stroke="#000000" points="402,-1316.5 402,-1346.5 652,-1346.5 652,-1316.5 402,-1316.5"/>
<text text-anchor="start" x="409" y="-1327.9" font-family="Arial" font-size="14.00" fill="#000000">created_by    </text>
<text text-anchor="start" x="512.4516" y="-1327.9" font-family="Arial" font-size="14.00" fill="#666666">[TEXT]</text>
<polygon fill="none" stroke="#000000" points="402,-1286.5 402,-1316.5 652,-1316.5 652,-1286.5 402,-1286.5"/>
<text text-anchor="start" x="409" y="-1297.9" font-family="Arial" font-size="14.00" fill="#000000">updated_at    </text>
<text text-anchor="start" x="513.2468" y="-1297.9" font-family="Arial" font-size="14.00" fill="#666666">[TIMESTAMP]</text>
<polygon fill="none" stroke="#000000" points="402,-1256.5 402,-1286.5 652,-1286.5 652,-1256.5 402,-1256.5"/>
<text text-anchor="start" x="409" y="-1267.9" font-family="Arial" font-size="14.00" fill="#000000">updated_by    </text>
<text text-anchor="start" x="516.3562" y="-1267.9" font-family="Arial" font-size="14.00" fill="#666666">[TEXT]</text>
<polygon fill="none" stroke="#000000" points="402,-1226.5 402,-1256.5 652,-1256.5 652,-1226.5 402,-1226.5"/>
<text text-anchor="start" x="409" y="-1237.9" font-family="Arial" font-size="14.00" fill="#000000">deleted_at    </text>
<text text-anchor="start" x="508.5708" y="-1237.9" font-family="Arial" font-size="14.00" fill="#666666">[TIMESTAMP]</text>
<polygon fill="none" stroke="#000000" points="402,-1196.5 402,-1226.5 652,-1226.5 652,-1196.5 402,-1196.5"/>
<text text-anchor="start" x="409" y="-1207.9" font-family="Arial" font-size="14.00" fill="#000000">deleted_by    </text>
<text text-anchor="start" x="511.6802" y="-1207.9" font-family="Arial" font-size="14.00" fill="#666666">[TEXT]</text>
<polygon fill="none" stroke="#000000" points="402,-1166.5 402,-1196.5 652,-1196.5 652,-1166.5 402,-1166.5"/>
<text text-anchor="start" x="409" y="-1177.9" font-family="Arial" font-size="14.00" fill="#000000">activity_log    </text>
<text text-anchor="start" x="512.4362" y="-1177.9" font-family="Arial" font-size="14.00" fill="#666666">[TEXT]</text>
</g>
<!-- uniform_resource&#45;&gt;ur_ingest_session -->
<g id="edge8" class="edge">
<title>uniform_resource:ingest_session_id&#45;&gt;ur_ingest_session:ur_ingest_session_id</title>
<path fill="none" stroke="#000000" d="M428.2824,-2754.3205C479.4687,-2705.1344 453.0296,-2237.4724 419,-2188 393.6466,-2151.141 350.3534,-2188.859 325,-2152 268.2016,-2069.4262 298.4398,-1797.6388 325,-1701 342.7456,-1636.433 335.0388,-1571.5 402,-1571.5"/>
<polygon fill="#000000" stroke="#000000" points="428.1183,-2754.3944 417.1525,-2754.3967 423.5592,-2756.4472 419,-2758.5 419,-2758.5 419,-2758.5 423.5592,-2756.4472 420.8475,-2762.6033 428.1183,-2754.3944 428.1183,-2754.3944"/>
</g>
<!-- ur_ingest_session_fs_path -->
<g id="node5" class="node">
<title>ur_ingest_session_fs_path</title>
<polygon fill="#efefef" stroke="transparent" points="377,-2073.5 377,-2108.5 677,-2108.5 677,-2073.5 377,-2073.5"/>
<polygon fill="none" stroke="#000000" points="377,-2073.5 377,-2108.5 677,-2108.5 677,-2073.5 377,-2073.5"/>
<text text-anchor="start" x="383.7975" y="-2086.3" font-family="Arial Bold" font-size="18.00" fill="#000000">ur_ingest_session_fs_path</text>
<text text-anchor="start" x="597.8715" y="-2086.3" font-family="Arial" font-size="14.00" fill="#000000">    </text>
<text text-anchor="start" x="632.0763" y="-2086.3" font-family="Arial" font-size="14.00" fill="#666666">[table]</text>
<polygon fill="none" stroke="#000000" points="377,-2043.5 377,-2073.5 677,-2073.5 677,-2043.5 377,-2043.5"/>
<text text-anchor="start" x="384" y="-2054.9" font-family="Arial" font-size="14.00" fill="#000000">ur_ingest_session_fs_path_id    </text>
<text text-anchor="start" x="603.3786" y="-2054.9" font-family="Arial" font-size="14.00" fill="#666666">[ULID]</text>
<polygon fill="none" stroke="#000000" points="377,-2013.5 377,-2043.5 677,-2043.5 677,-2013.5 377,-2013.5"/>
<text text-anchor="start" x="384" y="-2024.9" font-family="Arial" font-size="14.00" fill="#000000">ingest_session_id    </text>
<text text-anchor="start" x="529.4586" y="-2024.9" font-family="Arial" font-size="14.00" fill="#666666">[ULID]</text>
<polygon fill="none" stroke="#000000" points="377,-1983.5 377,-2013.5 677,-2013.5 677,-1983.5 377,-1983.5"/>
<text text-anchor="start" x="384" y="-1994.9" font-family="Arial" font-size="14.00" fill="#000000">root_path    </text>
<text text-anchor="start" x="477.3422" y="-1994.9" font-family="Arial" font-size="14.00" fill="#666666">[TEXT]</text>
<polygon fill="none" stroke="#000000" points="377,-1953.5 377,-1983.5 677,-1983.5 677,-1953.5 377,-1953.5"/>
<text text-anchor="start" x="384" y="-1964.9" font-family="Arial" font-size="14.00" fill="#000000">elaboration    </text>
<text text-anchor="start" x="487.4474" y="-1964.9" font-family="Arial" font-size="14.00" fill="#666666">[TEXT]</text>
<polygon fill="none" stroke="#000000" points="377,-1923.5 377,-1953.5 677,-1953.5 677,-1923.5 377,-1923.5"/>
<text text-anchor="start" x="384" y="-1934.9" font-family="Arial" font-size="14.00" fill="#000000">created_at    </text>
<text text-anchor="start" x="484.3422" y="-1934.9" font-family="Arial" font-size="14.00" fill="#666666">[TIMESTAMP]</text>
<polygon fill="none" stroke="#000000" points="377,-1893.5 377,-1923.5 677,-1923.5 677,-1893.5 377,-1893.5"/>
<text text-anchor="start" x="384" y="-1904.9" font-family="Arial" font-size="14.00" fill="#000000">created_by    </text>
<text text-anchor="start" x="487.4516" y="-1904.9" font-family="Arial" font-size="14.00" fill="#666666">[TEXT]</text>
<polygon fill="none" stroke="#000000" points="377,-1863.5 377,-1893.5 677,-1893.5 677,-1863.5 377,-1863.5"/>
<text text-anchor="start" x="384" y="-1874.9" font-family="Arial" font-size="14.00" fill="#000000">updated_at    </text>
<text text-anchor="start" x="488.2468" y="-1874.9" font-family="Arial" font-size="14.00" fill="#666666">[TIMESTAMP]</text>
<polygon fill="none" stroke="#000000" points="377,-1833.5 377,-1863.5 677,-1863.5 677,-1833.5 377,-1833.5"/>
<text text-anchor="start" x="384" y="-1844.9" font-family="Arial" font-size="14.00" fill="#000000">updated_by    </text>
<text text-anchor="start" x="491.3562" y="-1844.9" font-family="Arial" font-size="14.00" fill="#666666">[TEXT]</text>
<polygon fill="none" stroke="#000000" points="377,-1803.5 377,-1833.5 677,-1833.5 677,-1803.5 377,-1803.5"/>
<text text-anchor="start" x="384" y="-1814.9" font-family="Arial" font-size="14.00" fill="#000000">deleted_at    </text>
<text text-anchor="start" x="483.5708" y="-1814.9" font-family="Arial" font-size="14.00" fill="#666666">[TIMESTAMP]</text>
<polygon fill="none" stroke="#000000" points="377,-1773.5 377,-1803.5 677,-1803.5 677,-1773.5 377,-1773.5"/>
<text text-anchor="start" x="384" y="-1784.9" font-family="Arial" font-size="14.00" fill="#000000">deleted_by    </text>
<text text-anchor="start" x="486.6802" y="-1784.9" font-family="Arial" font-size="14.00" fill="#666666">[TEXT]</text>
<polygon fill="none" stroke="#000000" points="377,-1743.5 377,-1773.5 677,-1773.5 677,-1743.5 377,-1743.5"/>
<text text-anchor="start" x="384" y="-1754.9" font-family="Arial" font-size="14.00" fill="#000000">activity_log    </text>
<text text-anchor="start" x="487.4362" y="-1754.9" font-family="Arial" font-size="14.00" fill="#666666">[TEXT]</text>
</g>
<!-- uniform_resource&#45;&gt;ur_ingest_session_fs_path -->
<g id="edge11" class="edge">
<title>uniform_resource:ingest_fs_path_id&#45;&gt;ur_ingest_session_fs_path:ur_ingest_session_fs_path_id</title>
<path fill="none" stroke="#000000" d="M429.3133,-2728.2939C655.1337,-2719.0813 517.9081,-2403.048 419,-2188 408.7268,-2165.6638 387.2732,-2174.3362 377,-2152 359.6357,-2114.2462 335.4444,-2058.5 377,-2058.5"/>
<polygon fill="#000000" stroke="#000000" points="428.998,-2728.3001 418.91,-2724.0009 423.999,-2728.4001 419,-2728.5 419,-2728.5 419,-2728.5 423.999,-2728.4001 419.09,-2732.9991 428.998,-2728.3001 428.998,-2728.3001"/>
</g>
<!-- device -->
<g id="node6" class="node">
<title>device</title>
<polygon fill="#efefef" stroke="transparent" points="352,-462.5 352,-497.5 559,-497.5 559,-462.5 352,-462.5"/>
<polygon fill="none" stroke="#000000" points="352,-462.5 352,-497.5 559,-497.5 559,-462.5 352,-462.5"/>
<text text-anchor="start" x="393.3281" y="-475.3" font-family="Arial Bold" font-size="18.00" fill="#000000">device</text>
<text text-anchor="start" x="445.3409" y="-475.3" font-family="Arial" font-size="14.00" fill="#000000">    </text>
<text text-anchor="start" x="479.5457" y="-475.3" font-family="Arial" font-size="14.00" fill="#666666">[table]</text>
<polygon fill="none" stroke="#000000" points="352,-432.5 352,-462.5 559,-462.5 559,-432.5 352,-432.5"/>
<text text-anchor="start" x="359" y="-443.9" font-family="Arial" font-size="14.00" fill="#000000">device_id    </text>
<text text-anchor="start" x="452.331" y="-443.9" font-family="Arial" font-size="14.00" fill="#666666">[ULID]</text>
<polygon fill="none" stroke="#000000" points="352,-402.5 352,-432.5 559,-432.5 559,-402.5 352,-402.5"/>
<text text-anchor="start" x="359" y="-413.9" font-family="Arial" font-size="14.00" fill="#000000">name    </text>
<text text-anchor="start" x="428.2132" y="-413.9" font-family="Arial" font-size="14.00" fill="#666666">[TEXT]</text>
<polygon fill="none" stroke="#000000" points="352,-372.5 352,-402.5 559,-402.5 559,-372.5 352,-372.5"/>
<text text-anchor="start" x="359" y="-383.9" font-family="Arial" font-size="14.00" fill="#000000">state    </text>
<text text-anchor="start" x="423.5512" y="-383.9" font-family="Arial" font-size="14.00" fill="#666666">[TEXT]</text>
<polygon fill="none" stroke="#000000" points="352,-342.5 352,-372.5 559,-372.5 559,-342.5 352,-342.5"/>
<text text-anchor="start" x="359" y="-353.9" font-family="Arial" font-size="14.00" fill="#000000">boundary    </text>
<text text-anchor="start" x="451.561" y="-353.9" font-family="Arial" font-size="14.00" fill="#666666">[TEXT]</text>
<polygon fill="none" stroke="#000000" points="352,-312.5 352,-342.5 559,-342.5 559,-312.5 352,-312.5"/>
<text text-anchor="start" x="359" y="-323.9" font-family="Arial" font-size="14.00" fill="#000000">segmentation    </text>
<text text-anchor="start" x="477.2314" y="-323.9" font-family="Arial" font-size="14.00" fill="#666666">[TEXT]</text>
<polygon fill="none" stroke="#000000" points="352,-282.5 352,-312.5 559,-312.5 559,-282.5 352,-282.5"/>
<text text-anchor="start" x="359" y="-293.9" font-family="Arial" font-size="14.00" fill="#000000">state_sysinfo    </text>
<text text-anchor="start" x="474.8962" y="-293.9" font-family="Arial" font-size="14.00" fill="#666666">[TEXT]</text>
<polygon fill="none" stroke="#000000" points="352,-252.5 352,-282.5 559,-282.5 559,-252.5 352,-252.5"/>
<text text-anchor="start" x="359" y="-263.9" font-family="Arial" font-size="14.00" fill="#000000">elaboration    </text>
<text text-anchor="start" x="462.4474" y="-263.9" font-family="Arial" font-size="14.00" fill="#666666">[TEXT]</text>
<polygon fill="none" stroke="#000000" points="352,-222.5 352,-252.5 559,-252.5 559,-222.5 352,-222.5"/>
<text text-anchor="start" x="359" y="-233.9" font-family="Arial" font-size="14.00" fill="#000000">created_at    </text>
<text text-anchor="start" x="459.3422" y="-233.9" font-family="Arial" font-size="14.00" fill="#666666">[TIMESTAMP]</text>
<polygon fill="none" stroke="#000000" points="352,-192.5 352,-222.5 559,-222.5 559,-192.5 352,-192.5"/>
<text text-anchor="start" x="359" y="-203.9" font-family="Arial" font-size="14.00" fill="#000000">created_by    </text>
<text text-anchor="start" x="462.4516" y="-203.9" font-family="Arial" font-size="14.00" fill="#666666">[TEXT]</text>
<polygon fill="none" stroke="#000000" points="352,-162.5 352,-192.5 559,-192.5 559,-162.5 352,-162.5"/>
<text text-anchor="start" x="358.6543" y="-173.9" font-family="Arial" font-size="14.00" fill="#000000">updated_at    </text>
<text text-anchor="start" x="462.9011" y="-173.9" font-family="Arial" font-size="14.00" fill="#666666">[TIMESTAMP]</text>
<polygon fill="none" stroke="#000000" points="352,-132.5 352,-162.5 559,-162.5 559,-132.5 352,-132.5"/>
<text text-anchor="start" x="359" y="-143.9" font-family="Arial" font-size="14.00" fill="#000000">updated_by    </text>
<text text-anchor="start" x="466.3562" y="-143.9" font-family="Arial" font-size="14.00" fill="#666666">[TEXT]</text>
<polygon fill="none" stroke="#000000" points="352,-102.5 352,-132.5 559,-132.5 559,-102.5 352,-102.5"/>
<text text-anchor="start" x="359" y="-113.9" font-family="Arial" font-size="14.00" fill="#000000">deleted_at    </text>
<text text-anchor="start" x="458.5708" y="-113.9" font-family="Arial" font-size="14.00" fill="#666666">[TIMESTAMP]</text>
<polygon fill="none" stroke="#000000" points="352,-72.5 352,-102.5 559,-102.5 559,-72.5 352,-72.5"/>
<text text-anchor="start" x="359" y="-83.9" font-family="Arial" font-size="14.00" fill="#000000">deleted_by    </text>
<text text-anchor="start" x="461.6802" y="-83.9" font-family="Arial" font-size="14.00" fill="#666666">[TEXT]</text>
<polygon fill="none" stroke="#000000" points="352,-42.5 352,-72.5 559,-72.5 559,-42.5 352,-42.5"/>
<text text-anchor="start" x="359" y="-53.9" font-family="Arial" font-size="14.00" fill="#000000">activity_log    </text>
<text text-anchor="start" x="462.4362" y="-53.9" font-family="Arial" font-size="14.00" fill="#666666">[TEXT]</text>
</g>
<!-- uniform_resource&#45;&gt;device -->
<g id="edge5" class="edge">
<title>uniform_resource:device_id&#45;&gt;device:device_id</title>
<path fill="none" stroke="#000000" d="M182.9068,-2787.2901C-63.5003,-2727.1813 94.7267,-447.5 352,-447.5"/>
<polygon fill="#000000" stroke="#000000" points="183.0711,-2787.3097 192.4644,-2792.968 188.0355,-2787.9048 193,-2788.5 193,-2788.5 193,-2788.5 188.0355,-2787.9048 193.5356,-2784.032 183.0711,-2787.3097 183.0711,-2787.3097"/>
</g>
<!-- uniform_resource_transform -->
<g id="node2" class="node">
<title>uniform_resource_transform</title>
<polygon fill="#efefef" stroke="transparent" points="43,-3533.5 43,-3568.5 355,-3568.5 355,-3533.5 43,-3533.5"/>
<polygon fill="none" stroke="#000000" points="43,-3533.5 43,-3568.5 355,-3568.5 355,-3533.5 43,-3533.5"/>
<text text-anchor="start" x="49.8242" y="-3546.3" font-family="Arial Bold" font-size="18.00" fill="#000000">uniform_resource_transform</text>
<text text-anchor="start" x="275.8448" y="-3546.3" font-family="Arial" font-size="14.00" fill="#000000">    </text>
<text text-anchor="start" x="310.0496" y="-3546.3" font-family="Arial" font-size="14.00" fill="#666666">[table]</text>
<polygon fill="none" stroke="#000000" points="43,-3503.5 43,-3533.5 355,-3533.5 355,-3503.5 43,-3503.5"/>
<text text-anchor="start" x="50" y="-3514.9" font-family="Arial" font-size="14.00" fill="#000000">uniform_resource_transform_id    </text>
<text text-anchor="start" x="278.6704" y="-3514.9" font-family="Arial" font-size="14.00" fill="#666666">[ULID]</text>
<polygon fill="none" stroke="#000000" points="43,-3473.5 43,-3503.5 355,-3503.5 355,-3473.5 43,-3473.5"/>
<text text-anchor="start" x="50" y="-3484.9" font-family="Arial" font-size="14.00" fill="#000000">uniform_resource_id    </text>
<text text-anchor="start" x="211.777" y="-3484.9" font-family="Arial" font-size="14.00" fill="#666666">[ULID]</text>
<polygon fill="none" stroke="#000000" points="43,-3443.5 43,-3473.5 355,-3473.5 355,-3443.5 43,-3443.5"/>
<text text-anchor="start" x="50" y="-3454.9" font-family="Arial" font-size="14.00" fill="#000000">uri    </text>
<text text-anchor="start" x="99.7546" y="-3454.9" font-family="Arial" font-size="14.00" fill="#666666">[TEXT]</text>
<polygon fill="none" stroke="#000000" points="43,-3413.5 43,-3443.5 355,-3443.5 355,-3413.5 43,-3413.5"/>
<text text-anchor="start" x="50" y="-3424.9" font-family="Arial" font-size="14.00" fill="#000000">content_digest    </text>
<text text-anchor="start" x="175.244" y="-3424.9" font-family="Arial" font-size="14.00" fill="#666666">[TEXT]</text>
<polygon fill="none" stroke="#000000" points="43,-3383.5 43,-3413.5 355,-3413.5 355,-3383.5 43,-3383.5"/>
<text text-anchor="start" x="50" y="-3394.9" font-family="Arial" font-size="14.00" fill="#000000">content    </text>
<text text-anchor="start" x="130.1164" y="-3394.9" font-family="Arial" font-size="14.00" fill="#666666">[BLOB]</text>
<polygon fill="none" stroke="#000000" points="43,-3353.5 43,-3383.5 355,-3383.5 355,-3353.5 43,-3353.5"/>
<text text-anchor="start" x="50" y="-3364.9" font-family="Arial" font-size="14.00" fill="#000000">nature    </text>
<text text-anchor="start" x="123.8864" y="-3364.9" font-family="Arial" font-size="14.00" fill="#666666">[TEXT]</text>
<polygon fill="none" stroke="#000000" points="43,-3323.5 43,-3353.5 355,-3353.5 355,-3323.5 43,-3323.5"/>
<text text-anchor="start" x="50" y="-3334.9" font-family="Arial" font-size="14.00" fill="#000000">size_bytes    </text>
<text text-anchor="start" x="150.3324" y="-3334.9" font-family="Arial" font-size="14.00" fill="#666666">[INTEGER]</text>
<polygon fill="none" stroke="#000000" points="43,-3293.5 43,-3323.5 355,-3323.5 355,-3293.5 43,-3293.5"/>
<text text-anchor="start" x="50" y="-3304.9" font-family="Arial" font-size="14.00" fill="#000000">elaboration    </text>
<text text-anchor="start" x="153.4474" y="-3304.9" font-family="Arial" font-size="14.00" fill="#666666">[TEXT]</text>
<polygon fill="none" stroke="#000000" points="43,-3263.5 43,-3293.5 355,-3293.5 355,-3263.5 43,-3263.5"/>
<text text-anchor="start" x="50" y="-3274.9" font-family="Arial" font-size="14.00" fill="#000000">created_at    </text>
<text text-anchor="start" x="150.3422" y="-3274.9" font-family="Arial" font-size="14.00" fill="#666666">[TIMESTAMP]</text>
<polygon fill="none" stroke="#000000" points="43,-3233.5 43,-3263.5 355,-3263.5 355,-3233.5 43,-3233.5"/>
<text text-anchor="start" x="50" y="-3244.9" font-family="Arial" font-size="14.00" fill="#000000">created_by    </text>
<text text-anchor="start" x="153.4516" y="-3244.9" font-family="Arial" font-size="14.00" fill="#666666">[TEXT]</text>
<polygon fill="none" stroke="#000000" points="43,-3203.5 43,-3233.5 355,-3233.5 355,-3203.5 43,-3203.5"/>
<text text-anchor="start" x="50" y="-3214.9" font-family="Arial" font-size="14.00" fill="#000000">updated_at    </text>
<text text-anchor="start" x="154.2468" y="-3214.9" font-family="Arial" font-size="14.00" fill="#666666">[TIMESTAMP]</text>
<polygon fill="none" stroke="#000000" points="43,-3173.5 43,-3203.5 355,-3203.5 355,-3173.5 43,-3173.5"/>
<text text-anchor="start" x="50" y="-3184.9" font-family="Arial" font-size="14.00" fill="#000000">updated_by    </text>
<text text-anchor="start" x="157.3562" y="-3184.9" font-family="Arial" font-size="14.00" fill="#666666">[TEXT]</text>
<polygon fill="none" stroke="#000000" points="43,-3143.5 43,-3173.5 355,-3173.5 355,-3143.5 43,-3143.5"/>
<text text-anchor="start" x="50" y="-3154.9" font-family="Arial" font-size="14.00" fill="#000000">deleted_at    </text>
<text text-anchor="start" x="149.5708" y="-3154.9" font-family="Arial" font-size="14.00" fill="#666666">[TIMESTAMP]</text>
<polygon fill="none" stroke="#000000" points="43,-3113.5 43,-3143.5 355,-3143.5 355,-3113.5 43,-3113.5"/>
<text text-anchor="start" x="50" y="-3124.9" font-family="Arial" font-size="14.00" fill="#000000">deleted_by    </text>
<text text-anchor="start" x="152.6802" y="-3124.9" font-family="Arial" font-size="14.00" fill="#666666">[TEXT]</text>
<polygon fill="none" stroke="#000000" points="43,-3083.5 43,-3113.5 355,-3113.5 355,-3083.5 43,-3083.5"/>
<text text-anchor="start" x="50" y="-3094.9" font-family="Arial" font-size="14.00" fill="#000000">activity_log    </text>
<text text-anchor="start" x="153.4362" y="-3094.9" font-family="Arial" font-size="14.00" fill="#666666">[TEXT]</text>
</g>
<!-- uniform_resource_transform&#45;&gt;uniform_resource -->
<g id="edge1" class="edge">
<title>uniform_resource_transform:uniform_resource_id&#45;&gt;uniform_resource:uniform_resource_id</title>
<path fill="none" stroke="#000000" d="M363.9035,-3483.3936C401.0464,-3436.5781 375.3949,-3082.7001 355,-3041 314.925,-2959.061 233.075,-2996.939 193,-2915 174.1567,-2876.4723 150.1111,-2818.5 193,-2818.5"/>
<polygon fill="#000000" stroke="#000000" points="363.6746,-3483.5249 352.7612,-3484.5964 359.3373,-3486.0124 355,-3488.5 355,-3488.5 355,-3488.5 359.3373,-3486.0124 357.2388,-3492.4036 363.6746,-3483.5249 363.6746,-3483.5249"/>
</g>
<!-- ur_ingest_session_fs_path_entry -->
<g id="node3" class="node">
<title>ur_ingest_session_fs_path_entry</title>
<polygon fill="#efefef" stroke="transparent" points="459,-3623.5 459,-3658.5 809,-3658.5 809,-3623.5 459,-3623.5"/>
<polygon fill="none" stroke="#000000" points="459,-3623.5 459,-3658.5 809,-3658.5 809,-3623.5 459,-3623.5"/>
<text text-anchor="start" x="465.791" y="-3636.3" font-family="Arial Bold" font-size="18.00" fill="#000000">ur_ingest_session_fs_path_entry</text>
<text text-anchor="start" x="729.878" y="-3636.3" font-family="Arial" font-size="14.00" fill="#000000">    </text>
<text text-anchor="start" x="764.0828" y="-3636.3" font-family="Arial" font-size="14.00" fill="#666666">[table]</text>
<polygon fill="none" stroke="#000000" points="459,-3593.5 459,-3623.5 809,-3623.5 809,-3593.5 459,-3593.5"/>
<text text-anchor="start" x="466" y="-3604.9" font-family="Arial" font-size="14.00" fill="#000000">ur_ingest_session_fs_path_entry_id    </text>
<text text-anchor="start" x="724.2776" y="-3604.9" font-family="Arial" font-size="14.00" fill="#666666">[ULID]</text>
<polygon fill="none" stroke="#000000" points="459,-3563.5 459,-3593.5 809,-3593.5 809,-3563.5 459,-3563.5"/>
<text text-anchor="start" x="466" y="-3574.9" font-family="Arial" font-size="14.00" fill="#000000">ingest_session_id    </text>
<text text-anchor="start" x="611.4586" y="-3574.9" font-family="Arial" font-size="14.00" fill="#666666">[ULID]</text>
<polygon fill="none" stroke="#000000" points="459,-3533.5 459,-3563.5 809,-3563.5 809,-3533.5 459,-3533.5"/>
<text text-anchor="start" x="466" y="-3544.9" font-family="Arial" font-size="14.00" fill="#000000">ingest_fs_path_id    </text>
<text text-anchor="start" x="609.9158" y="-3544.9" font-family="Arial" font-size="14.00" fill="#666666">[ULID]</text>
<polygon fill="none" stroke="#000000" points="459,-3503.5 459,-3533.5 809,-3533.5 809,-3503.5 459,-3503.5"/>
<text text-anchor="start" x="466" y="-3514.9" font-family="Arial" font-size="14.00" fill="#000000">uniform_resource_id    </text>
<text text-anchor="start" x="627.777" y="-3514.9" font-family="Arial" font-size="14.00" fill="#666666">[ULID]</text>
<polygon fill="none" stroke="#000000" points="459,-3473.5 459,-3503.5 809,-3503.5 809,-3473.5 459,-3473.5"/>
<text text-anchor="start" x="466" y="-3484.9" font-family="Arial" font-size="14.00" fill="#000000">file_path_abs    </text>
<text text-anchor="start" x="583.46" y="-3484.9" font-family="Arial" font-size="14.00" fill="#666666">[TEXT]</text>
<polygon fill="none" stroke="#000000" points="459,-3443.5 459,-3473.5 809,-3473.5 809,-3443.5 459,-3443.5"/>
<text text-anchor="start" x="466" y="-3454.9" font-family="Arial" font-size="14.00" fill="#000000">file_path_rel_parent    </text>
<text text-anchor="start" x="623.9088" y="-3454.9" font-family="Arial" font-size="14.00" fill="#666666">[TEXT]</text>
<polygon fill="none" stroke="#000000" points="459,-3413.5 459,-3443.5 809,-3443.5 809,-3413.5 459,-3413.5"/>
<text text-anchor="start" x="466" y="-3424.9" font-family="Arial" font-size="14.00" fill="#000000">file_path_rel    </text>
<text text-anchor="start" x="576.4446" y="-3424.9" font-family="Arial" font-size="14.00" fill="#666666">[TEXT]</text>
<polygon fill="none" stroke="#000000" points="459,-3383.5 459,-3413.5 809,-3413.5 809,-3383.5 459,-3383.5"/>
<text text-anchor="start" x="466" y="-3394.9" font-family="Arial" font-size="14.00" fill="#000000">file_basename    </text>
<text text-anchor="start" x="591.23" y="-3394.9" font-family="Arial" font-size="14.00" fill="#666666">[TEXT]</text>
<polygon fill="none" stroke="#000000" points="459,-3353.5 459,-3383.5 809,-3383.5 809,-3353.5 459,-3353.5"/>
<text text-anchor="start" x="466" y="-3364.9" font-family="Arial" font-size="14.00" fill="#000000">file_extn    </text>
<text text-anchor="start" x="552.3296" y="-3364.9" font-family="Arial" font-size="14.00" fill="#666666">[TEXT]</text>
<polygon fill="none" stroke="#000000" points="459,-3323.5 459,-3353.5 809,-3353.5 809,-3323.5 459,-3323.5"/>
<text text-anchor="start" x="466" y="-3334.9" font-family="Arial" font-size="14.00" fill="#000000">captured_executable    </text>
<text text-anchor="start" x="630.1444" y="-3334.9" font-family="Arial" font-size="14.00" fill="#666666">[TEXT]</text>
<polygon fill="none" stroke="#000000" points="459,-3293.5 459,-3323.5 809,-3323.5 809,-3293.5 459,-3293.5"/>
<text text-anchor="start" x="466" y="-3304.9" font-family="Arial" font-size="14.00" fill="#000000">ur_status    </text>
<text text-anchor="start" x="557.777" y="-3304.9" font-family="Arial" font-size="14.00" fill="#666666">[TEXT]</text>
<polygon fill="none" stroke="#000000" points="459,-3263.5 459,-3293.5 809,-3293.5 809,-3263.5 459,-3263.5"/>
<text text-anchor="start" x="466" y="-3274.9" font-family="Arial" font-size="14.00" fill="#000000">ur_diagnostics    </text>
<text text-anchor="start" x="590.4474" y="-3274.9" font-family="Arial" font-size="14.00" fill="#666666">[TEXT]</text>
<polygon fill="none" stroke="#000000" points="459,-3233.5 459,-3263.5 809,-3263.5 809,-3233.5 459,-3233.5"/>
<text text-anchor="start" x="466" y="-3244.9" font-family="Arial" font-size="14.00" fill="#000000">ur_transformations    </text>
<text text-anchor="start" x="616.8864" y="-3244.9" font-family="Arial" font-size="14.00" fill="#666666">[TEXT]</text>
<polygon fill="none" stroke="#000000" points="459,-3203.5 459,-3233.5 809,-3233.5 809,-3203.5 459,-3203.5"/>
<text text-anchor="start" x="466" y="-3214.9" font-family="Arial" font-size="14.00" fill="#000000">elaboration    </text>
<text text-anchor="start" x="569.4474" y="-3214.9" font-family="Arial" font-size="14.00" fill="#666666">[TEXT]</text>
<polygon fill="none" stroke="#000000" points="459,-3173.5 459,-3203.5 809,-3203.5 809,-3173.5 459,-3173.5"/>
<text text-anchor="start" x="466" y="-3184.9" font-family="Arial" font-size="14.00" fill="#000000">created_at    </text>
<text text-anchor="start" x="566.3422" y="-3184.9" font-family="Arial" font-size="14.00" fill="#666666">[TIMESTAMP]</text>
<polygon fill="none" stroke="#000000" points="459,-3143.5 459,-3173.5 809,-3173.5 809,-3143.5 459,-3143.5"/>
<text text-anchor="start" x="466" y="-3154.9" font-family="Arial" font-size="14.00" fill="#000000">created_by    </text>
<text text-anchor="start" x="569.4516" y="-3154.9" font-family="Arial" font-size="14.00" fill="#666666">[TEXT]</text>
<polygon fill="none" stroke="#000000" points="459,-3113.5 459,-3143.5 809,-3143.5 809,-3113.5 459,-3113.5"/>
<text text-anchor="start" x="466" y="-3124.9" font-family="Arial" font-size="14.00" fill="#000000">updated_at    </text>
<text text-anchor="start" x="570.2468" y="-3124.9" font-family="Arial" font-size="14.00" fill="#666666">[TIMESTAMP]</text>
<polygon fill="none" stroke="#000000" points="459,-3083.5 459,-3113.5 809,-3113.5 809,-3083.5 459,-3083.5"/>
<text text-anchor="start" x="466" y="-3094.9" font-family="Arial" font-size="14.00" fill="#000000">updated_by    </text>
<text text-anchor="start" x="573.3562" y="-3094.9" font-family="Arial" font-size="14.00" fill="#666666">[TEXT]</text>
<polygon fill="none" stroke="#000000" points="459,-3053.5 459,-3083.5 809,-3083.5 809,-3053.5 459,-3053.5"/>
<text text-anchor="start" x="466" y="-3064.9" font-family="Arial" font-size="14.00" fill="#000000">deleted_at    </text>
<text text-anchor="start" x="565.5708" y="-3064.9" font-family="Arial" font-size="14.00" fill="#666666">[TIMESTAMP]</text>
<polygon fill="none" stroke="#000000" points="459,-3023.5 459,-3053.5 809,-3053.5 809,-3023.5 459,-3023.5"/>
<text text-anchor="start" x="466" y="-3034.9" font-family="Arial" font-size="14.00" fill="#000000">deleted_by    </text>
<text text-anchor="start" x="568.6802" y="-3034.9" font-family="Arial" font-size="14.00" fill="#666666">[TEXT]</text>
<polygon fill="none" stroke="#000000" points="459,-2993.5 459,-3023.5 809,-3023.5 809,-2993.5 459,-2993.5"/>
<text text-anchor="start" x="466" y="-3004.9" font-family="Arial" font-size="14.00" fill="#000000">activity_log    </text>
<text text-anchor="start" x="569.4362" y="-3004.9" font-family="Arial" font-size="14.00" fill="#666666">[TEXT]</text>
</g>
<!-- ur_ingest_session_fs_path_entry&#45;&gt;uniform_resource -->
<g id="edge2" class="edge">
<title>ur_ingest_session_fs_path_entry:uniform_resource_id&#45;&gt;uniform_resource:uniform_resource_id</title>
<path fill="none" stroke="#000000" d="M449.6387,-3514.3892C391.1092,-3457.022 493.405,-2818.5 419,-2818.5"/>
<polygon fill="#000000" stroke="#000000" points="449.8439,-3514.4792 457.1906,-3522.6202 454.422,-3516.4896 459,-3518.5 459,-3518.5 459,-3518.5 454.422,-3516.4896 460.8094,-3514.3798 449.8439,-3514.4792 449.8439,-3514.4792"/>
</g>
<!-- ur_ingest_session_fs_path_entry&#45;&gt;ur_ingest_session -->
<g id="edge3" class="edge">
<title>ur_ingest_session_fs_path_entry:ingest_session_id&#45;&gt;ur_ingest_session:ur_ingest_session_id</title>
<path fill="none" stroke="#000000" d="M819.2074,-3577.0453C1027.7587,-3516.2712 872.1862,-1571.5 652,-1571.5"/>
<polygon fill="#000000" stroke="#000000" points="818.9,-3577.0891 808.3651,-3574.045 813.95,-3577.7945 809,-3578.5 809,-3578.5 809,-3578.5 813.95,-3577.7945 809.6349,-3582.955 818.9,-3577.0891 818.9,-3577.0891"/>
</g>
<!-- ur_ingest_session_fs_path_entry&#45;&gt;ur_ingest_session_fs_path -->
<g id="edge4" class="edge">
<title>ur_ingest_session_fs_path_entry:ingest_fs_path_id&#45;&gt;ur_ingest_session_fs_path:ur_ingest_session_fs_path_id</title>
<path fill="none" stroke="#000000" d="M449.7916,-3544.5122C397.9273,-3495.6331 446.6412,-3012.7938 459,-2951 462.3993,-2934.0033 468.4257,-2931.4126 474,-2915 586.8495,-2582.733 631.5049,-2499.9462 677,-2152 682.3877,-2110.7952 718.5556,-2058.5 677,-2058.5"/>
<polygon fill="#000000" stroke="#000000" points="449.8235,-3544.5259 457.2117,-3552.6294 454.4118,-3546.513 459,-3548.5 459,-3548.5 459,-3548.5 454.4118,-3546.513 460.7883,-3544.3706 449.8235,-3544.5259 449.8235,-3544.5259"/>
</g>
<!-- ur_ingest_session&#45;&gt;device -->
<g id="edge7" class="edge">
<title>ur_ingest_session:device_id&#45;&gt;device:device_id</title>
<path fill="none" stroke="#000000" d="M662.1625,-1540.8481C893.3239,-1510.7369 799.5331,-447.5 559,-447.5"/>
<polygon fill="#000000" stroke="#000000" points="661.9795,-1540.8598 651.7119,-1537.0092 656.9897,-1541.1799 652,-1541.5 652,-1541.5 652,-1541.5 656.9897,-1541.1799 652.2881,-1545.9908 661.9795,-1540.8598 661.9795,-1540.8598"/>
</g>
<!-- behavior -->
<g id="node7" class="node">
<title>behavior</title>
<polygon fill="#efefef" stroke="transparent" points="340,-1009.5 340,-1044.5 571,-1044.5 571,-1009.5 340,-1009.5"/>
<polygon fill="none" stroke="#000000" points="340,-1009.5 340,-1044.5 571,-1044.5 571,-1009.5 340,-1009.5"/>
<text text-anchor="start" x="384.8258" y="-1022.3" font-family="Arial Bold" font-size="18.00" fill="#000000">behavior</text>
<text text-anchor="start" x="453.8432" y="-1022.3" font-family="Arial" font-size="14.00" fill="#000000">    </text>
<text text-anchor="start" x="488.048" y="-1022.3" font-family="Arial" font-size="14.00" fill="#666666">[table]</text>
<polygon fill="none" stroke="#000000" points="340,-979.5 340,-1009.5 571,-1009.5 571,-979.5 340,-979.5"/>
<text text-anchor="start" x="347" y="-990.9" font-family="Arial" font-size="14.00" fill="#000000">behavior_id    </text>
<text text-anchor="start" x="453.5568" y="-990.9" font-family="Arial" font-size="14.00" fill="#666666">[ULID]</text>
<polygon fill="none" stroke="#000000" points="340,-949.5 340,-979.5 571,-979.5 571,-949.5 340,-949.5"/>
<text text-anchor="start" x="347" y="-960.9" font-family="Arial" font-size="14.00" fill="#000000">device_id    </text>
<text text-anchor="start" x="440.331" y="-960.9" font-family="Arial" font-size="14.00" fill="#666666">[ULID]</text>
<polygon fill="none" stroke="#000000" points="340,-919.5 340,-949.5 571,-949.5 571,-919.5 340,-919.5"/>
<text text-anchor="start" x="347" y="-930.9" font-family="Arial" font-size="14.00" fill="#000000">behavior_name    </text>
<text text-anchor="start" x="477.676" y="-930.9" font-family="Arial" font-size="14.00" fill="#666666">[TEXT]</text>
<polygon fill="none" stroke="#000000" points="340,-889.5 340,-919.5 571,-919.5 571,-889.5 340,-889.5"/>
<text text-anchor="start" x="347" y="-900.9" font-family="Arial" font-size="14.00" fill="#000000">behavior_conf_json    </text>
<text text-anchor="start" x="502.5778" y="-900.9" font-family="Arial" font-size="14.00" fill="#666666">[TEXT]</text>
<polygon fill="none" stroke="#000000" points="340,-859.5 340,-889.5 571,-889.5 571,-859.5 340,-859.5"/>
<text text-anchor="start" x="346.5996" y="-870.9" font-family="Arial" font-size="14.00" fill="#000000">assurance_schema_id    </text>
<text text-anchor="start" x="520.8408" y="-870.9" font-family="Arial" font-size="14.00" fill="#666666">[TEXT]</text>
<polygon fill="none" stroke="#000000" points="340,-829.5 340,-859.5 571,-859.5 571,-829.5 340,-829.5"/>
<text text-anchor="start" x="347" y="-840.9" font-family="Arial" font-size="14.00" fill="#000000">governance    </text>
<text text-anchor="start" x="454.3436" y="-840.9" font-family="Arial" font-size="14.00" fill="#666666">[TEXT]</text>
<polygon fill="none" stroke="#000000" points="340,-799.5 340,-829.5 571,-829.5 571,-799.5 340,-799.5"/>
<text text-anchor="start" x="347" y="-810.9" font-family="Arial" font-size="14.00" fill="#000000">created_at    </text>
<text text-anchor="start" x="447.3422" y="-810.9" font-family="Arial" font-size="14.00" fill="#666666">[TIMESTAMP]</text>
<polygon fill="none" stroke="#000000" points="340,-769.5 340,-799.5 571,-799.5 571,-769.5 340,-769.5"/>
<text text-anchor="start" x="347" y="-780.9" font-family="Arial" font-size="14.00" fill="#000000">created_by    </text>
<text text-anchor="start" x="450.4516" y="-780.9" font-family="Arial" font-size="14.00" fill="#666666">[TEXT]</text>
<polygon fill="none" stroke="#000000" points="340,-739.5 340,-769.5 571,-769.5 571,-739.5 340,-739.5"/>
<text text-anchor="start" x="347" y="-750.9" font-family="Arial" font-size="14.00" fill="#000000">updated_at    </text>
<text text-anchor="start" x="451.2468" y="-750.9" font-family="Arial" font-size="14.00" fill="#666666">[TIMESTAMP]</text>
<polygon fill="none" stroke="#000000" points="340,-709.5 340,-739.5 571,-739.5 571,-709.5 340,-709.5"/>
<text text-anchor="start" x="347" y="-720.9" font-family="Arial" font-size="14.00" fill="#000000">updated_by    </text>
<text text-anchor="start" x="454.3562" y="-720.9" font-family="Arial" font-size="14.00" fill="#666666">[TEXT]</text>
<polygon fill="none" stroke="#000000" points="340,-679.5 340,-709.5 571,-709.5 571,-679.5 340,-679.5"/>
<text text-anchor="start" x="347" y="-690.9" font-family="Arial" font-size="14.00" fill="#000000">deleted_at    </text>
<text text-anchor="start" x="446.5708" y="-690.9" font-family="Arial" font-size="14.00" fill="#666666">[TIMESTAMP]</text>
<polygon fill="none" stroke="#000000" points="340,-649.5 340,-679.5 571,-679.5 571,-649.5 340,-649.5"/>
<text text-anchor="start" x="347" y="-660.9" font-family="Arial" font-size="14.00" fill="#000000">deleted_by    </text>
<text text-anchor="start" x="449.6802" y="-660.9" font-family="Arial" font-size="14.00" fill="#666666">[TEXT]</text>
<polygon fill="none" stroke="#000000" points="340,-619.5 340,-649.5 571,-649.5 571,-619.5 340,-619.5"/>
<text text-anchor="start" x="347" y="-630.9" font-family="Arial" font-size="14.00" fill="#000000">activity_log    </text>
<text text-anchor="start" x="450.4362" y="-630.9" font-family="Arial" font-size="14.00" fill="#666666">[TEXT]</text>
</g>
<!-- ur_ingest_session&#45;&gt;behavior -->
<g id="edge10" class="edge">
<title>ur_ingest_session:behavior_id&#45;&gt;behavior:behavior_id</title>
<path fill="none" stroke="#000000" d="M391.7005,-1511.1832C232.4161,-1501.1474 295.8687,-1255.1204 402,-1124 450.3163,-1064.3074 522.6837,-1147.6926 571,-1088 597.1446,-1055.6995 612.5556,-994.5 571,-994.5"/>
<polygon fill="#000000" stroke="#000000" points="392.0047,-1511.1925 401.8616,-1515.9979 397.0024,-1511.3462 402,-1511.5 402,-1511.5 402,-1511.5 397.0024,-1511.3462 402.1384,-1507.0021 392.0047,-1511.1925 392.0047,-1511.1925"/>
</g>
<!-- ur_ingest_session_fs_path&#45;&gt;ur_ingest_session -->
<g id="edge9" class="edge">
<title>ur_ingest_session_fs_path:ingest_session_id&#45;&gt;ur_ingest_session:ur_ingest_session_id</title>
<path fill="none" stroke="#000000" d="M685.6584,-2023.3677C724.6277,-1973.1602 699.6753,-1571.5 652,-1571.5"/>
<polygon fill="#000000" stroke="#000000" points="685.6023,-2023.4009 674.7054,-2024.629 681.3012,-2025.9504 677,-2028.5 677,-2028.5 677,-2028.5 681.3012,-2025.9504 679.2946,-2032.371 685.6023,-2023.4009 685.6023,-2023.4009"/>
</g>
<!-- behavior&#45;&gt;device -->
<g id="edge6" class="edge">
<title>behavior:device_id&#45;&gt;device:device_id</title>
<path fill="none" stroke="#000000" d="M330.9005,-959.712C284.0453,-907.5922 297.7946,-447.5 352,-447.5"/>
<polygon fill="#000000" stroke="#000000" points="331.1503,-959.8434 337.9046,-968.4824 335.5751,-962.1717 340,-964.5 340,-964.5 340,-964.5 335.5751,-962.1717 342.0954,-960.5176 331.1503,-959.8434 331.1503,-959.8434"/>
</g>
</g>
</svg>
