<?xml version="1.0" encoding="UTF-8" standalone="no"?>
<!DOCTYPE svg PUBLIC "-//W3C//DTD SVG 1.1//EN"
 "http://www.w3.org/Graphics/SVG/1.1/DTD/svg11.dtd">
<!-- Generated by graphviz version 2.40.1 (20161225.0304)
 -->
<!-- Title: uniform_resource Pages: 1 -->
<svg width="683pt" height="3133pt"
 viewBox="0.00 0.00 683.09 3133.00" xmlns="http://www.w3.org/2000/svg" xmlns:xlink="http://www.w3.org/1999/xlink">
<g id="graph0" class="graph" transform="scale(1 1) rotate(0) translate(4 3129)">
<title>uniform_resource</title>
<polygon fill="#ffffff" stroke="transparent" points="-4,4 -4,-3129 679.0945,-3129 679.0945,4 -4,4"/>
<!-- uniform_resource -->
<g id="node1" class="node">
<title>uniform_resource</title>
<polygon fill="#efefef" stroke="transparent" points="75.5397,-2316.5 75.5397,-2351.5 301.5397,-2351.5 301.5397,-2316.5 75.5397,-2316.5"/>
<polygon fill="none" stroke="#000000" points="75.5397,-2316.5 75.5397,-2351.5 301.5397,-2351.5 301.5397,-2316.5 75.5397,-2316.5"/>
<text text-anchor="start" x="82.3668" y="-2329.3" font-family="Arial Bold" font-size="18.00" fill="#000000">uniform_resource</text>
<text text-anchor="start" x="222.3816" y="-2329.3" font-family="Arial" font-size="14.00" fill="#000000">    </text>
<text text-anchor="start" x="256.5864" y="-2329.3" font-family="Arial" font-size="14.00" fill="#666666">[table]</text>
<polygon fill="none" stroke="#000000" points="75.5397,-2286.5 75.5397,-2316.5 301.5397,-2316.5 301.5397,-2286.5 75.5397,-2286.5"/>
<text text-anchor="start" x="82.5397" y="-2297.9" font-family="Arial" font-size="14.00" fill="#000000">uniform_resource_id </text>
<text text-anchor="start" x="214.0025" y="-2297.9" font-family="Arial" font-size="14.00" fill="#666666">[ULID]</text>
<polygon fill="none" stroke="#000000" points="75.5397,-2256.5 75.5397,-2286.5 301.5397,-2286.5 301.5397,-2256.5 75.5397,-2256.5"/>
<text text-anchor="start" x="82.5397" y="-2267.9" font-family="Arial" font-size="14.00" fill="#000000">device_id </text>
<text text-anchor="start" x="145.5565" y="-2267.9" font-family="Arial" font-size="14.00" fill="#666666">[ULID]</text>
<polygon fill="none" stroke="#000000" points="75.5397,-2226.5 75.5397,-2256.5 301.5397,-2256.5 301.5397,-2226.5 75.5397,-2226.5"/>
<text text-anchor="start" x="82.5397" y="-2237.9" font-family="Arial" font-size="14.00" fill="#000000">walk_session_id </text>
<text text-anchor="start" x="188.3349" y="-2237.9" font-family="Arial" font-size="14.00" fill="#666666">[ULID]</text>
<polygon fill="none" stroke="#000000" points="75.5397,-2196.5 75.5397,-2226.5 301.5397,-2226.5 301.5397,-2196.5 75.5397,-2196.5"/>
<text text-anchor="start" x="82.5397" y="-2207.9" font-family="Arial" font-size="14.00" fill="#000000">walk_path_id </text>
<text text-anchor="start" x="168.1189" y="-2207.9" font-family="Arial" font-size="14.00" fill="#666666">[ULID]</text>
<polygon fill="none" stroke="#000000" points="75.5397,-2166.5 75.5397,-2196.5 301.5397,-2196.5 301.5397,-2166.5 75.5397,-2166.5"/>
<text text-anchor="start" x="82.5397" y="-2177.9" font-family="Arial" font-size="14.00" fill="#000000">uri </text>
<text text-anchor="start" x="101.9801" y="-2177.9" font-family="Arial" font-size="14.00" fill="#666666">[TEXT]</text>
<polygon fill="none" stroke="#000000" points="75.5397,-2136.5 75.5397,-2166.5 301.5397,-2166.5 301.5397,-2136.5 75.5397,-2136.5"/>
<text text-anchor="start" x="82.5397" y="-2147.9" font-family="Arial" font-size="14.00" fill="#000000">content_digest </text>
<text text-anchor="start" x="177.4695" y="-2147.9" font-family="Arial" font-size="14.00" fill="#666666">[TEXT]</text>
<polygon fill="none" stroke="#000000" points="75.5397,-2106.5 75.5397,-2136.5 301.5397,-2136.5 301.5397,-2106.5 75.5397,-2106.5"/>
<text text-anchor="start" x="82.5397" y="-2117.9" font-family="Arial" font-size="14.00" fill="#000000">content </text>
<text text-anchor="start" x="132.3419" y="-2117.9" font-family="Arial" font-size="14.00" fill="#666666">[BLOB]</text>
<polygon fill="none" stroke="#000000" points="75.5397,-2076.5 75.5397,-2106.5 301.5397,-2106.5 301.5397,-2076.5 75.5397,-2076.5"/>
<text text-anchor="start" x="82.5397" y="-2087.9" font-family="Arial" font-size="14.00" fill="#000000">nature </text>
<text text-anchor="start" x="126.1119" y="-2087.9" font-family="Arial" font-size="14.00" fill="#666666">[TEXT]</text>
<polygon fill="none" stroke="#000000" points="75.5397,-2046.5 75.5397,-2076.5 301.5397,-2076.5 301.5397,-2046.5 75.5397,-2046.5"/>
<text text-anchor="start" x="82.5397" y="-2057.9" font-family="Arial" font-size="14.00" fill="#000000">size_bytes </text>
<text text-anchor="start" x="152.5579" y="-2057.9" font-family="Arial" font-size="14.00" fill="#666666">[INTEGER]</text>
<polygon fill="none" stroke="#000000" points="75.5397,-2016.5 75.5397,-2046.5 301.5397,-2046.5 301.5397,-2016.5 75.5397,-2016.5"/>
<text text-anchor="start" x="82.5397" y="-2027.9" font-family="Arial" font-size="14.00" fill="#000000">last_modified_at </text>
<text text-anchor="start" x="188.3433" y="-2027.9" font-family="Arial" font-size="14.00" fill="#666666">[INTEGER]</text>
<polygon fill="none" stroke="#000000" points="75.5397,-1986.5 75.5397,-2016.5 301.5397,-2016.5 301.5397,-1986.5 75.5397,-1986.5"/>
<text text-anchor="start" x="82.5397" y="-1997.9" font-family="Arial" font-size="14.00" fill="#000000">content_fm_body_attrs </text>
<text text-anchor="start" x="228.8131" y="-1997.9" font-family="Arial" font-size="14.00" fill="#666666">[TEXT]</text>
<polygon fill="none" stroke="#000000" points="75.5397,-1956.5 75.5397,-1986.5 301.5397,-1986.5 301.5397,-1956.5 75.5397,-1956.5"/>
<text text-anchor="start" x="82.5397" y="-1967.9" font-family="Arial" font-size="14.00" fill="#000000">frontmatter </text>
<text text-anchor="start" x="154.1049" y="-1967.9" font-family="Arial" font-size="14.00" fill="#666666">[TEXT]</text>
<polygon fill="none" stroke="#000000" points="75.5397,-1926.5 75.5397,-1956.5 301.5397,-1956.5 301.5397,-1926.5 75.5397,-1926.5"/>
<text text-anchor="start" x="82.5397" y="-1937.9" font-family="Arial" font-size="14.00" fill="#000000">elaboration </text>
<text text-anchor="start" x="155.6729" y="-1937.9" font-family="Arial" font-size="14.00" fill="#666666">[TEXT]</text>
<polygon fill="none" stroke="#000000" points="75.5397,-1896.5 75.5397,-1926.5 301.5397,-1926.5 301.5397,-1896.5 75.5397,-1896.5"/>
<text text-anchor="start" x="82.5397" y="-1907.9" font-family="Arial" font-size="14.00" fill="#000000">created_at </text>
<text text-anchor="start" x="152.5677" y="-1907.9" font-family="Arial" font-size="14.00" fill="#666666">[TIMESTAMP]</text>
<polygon fill="none" stroke="#000000" points="75.5397,-1866.5 75.5397,-1896.5 301.5397,-1896.5 301.5397,-1866.5 75.5397,-1866.5"/>
<text text-anchor="start" x="82.5397" y="-1877.9" font-family="Arial" font-size="14.00" fill="#000000">created_by </text>
<text text-anchor="start" x="155.6771" y="-1877.9" font-family="Arial" font-size="14.00" fill="#666666">[TEXT]</text>
<polygon fill="none" stroke="#000000" points="75.5397,-1836.5 75.5397,-1866.5 301.5397,-1866.5 301.5397,-1836.5 75.5397,-1836.5"/>
<text text-anchor="start" x="82.5397" y="-1847.9" font-family="Arial" font-size="14.00" fill="#000000">updated_at </text>
<text text-anchor="start" x="156.4723" y="-1847.9" font-family="Arial" font-size="14.00" fill="#666666">[TIMESTAMP]</text>
<polygon fill="none" stroke="#000000" points="75.5397,-1806.5 75.5397,-1836.5 301.5397,-1836.5 301.5397,-1806.5 75.5397,-1806.5"/>
<text text-anchor="start" x="82.5397" y="-1817.9" font-family="Arial" font-size="14.00" fill="#000000">updated_by </text>
<text text-anchor="start" x="159.5817" y="-1817.9" font-family="Arial" font-size="14.00" fill="#666666">[TEXT]</text>
<polygon fill="none" stroke="#000000" points="75.5397,-1776.5 75.5397,-1806.5 301.5397,-1806.5 301.5397,-1776.5 75.5397,-1776.5"/>
<text text-anchor="start" x="82.5397" y="-1787.9" font-family="Arial" font-size="14.00" fill="#000000">deleted_at </text>
<text text-anchor="start" x="151.7963" y="-1787.9" font-family="Arial" font-size="14.00" fill="#666666">[TIMESTAMP]</text>
<polygon fill="none" stroke="#000000" points="75.5397,-1746.5 75.5397,-1776.5 301.5397,-1776.5 301.5397,-1746.5 75.5397,-1746.5"/>
<text text-anchor="start" x="82.5397" y="-1757.9" font-family="Arial" font-size="14.00" fill="#000000">deleted_by </text>
<text text-anchor="start" x="154.9057" y="-1757.9" font-family="Arial" font-size="14.00" fill="#666666">[TEXT]</text>
<polygon fill="none" stroke="#000000" points="75.5397,-1716.5 75.5397,-1746.5 301.5397,-1746.5 301.5397,-1716.5 75.5397,-1716.5"/>
<text text-anchor="start" x="82.5397" y="-1727.9" font-family="Arial" font-size="14.00" fill="#000000">activity_log </text>
<text text-anchor="start" x="155.6617" y="-1727.9" font-family="Arial" font-size="14.00" fill="#666666">[TEXT]</text>
<polygon fill="none" stroke="#000000" stroke-width="3" points="74.0397,-1715.5 74.0397,-2353.5 303.0397,-2353.5 303.0397,-1715.5 74.0397,-1715.5"/>
</g>
<!-- ur_walk_session -->
<g id="node3" class="node">
<title>ur_walk_session</title>
<polygon fill="#efefef" stroke="transparent" points="238.5397,-1069.5 238.5397,-1104.5 479.5397,-1104.5 479.5397,-1069.5 238.5397,-1069.5"/>
<polygon fill="none" stroke="#000000" points="238.5397,-1069.5 238.5397,-1104.5 479.5397,-1104.5 479.5397,-1069.5 238.5397,-1069.5"/>
<text text-anchor="start" x="256.3651" y="-1082.3" font-family="Arial Bold" font-size="18.00" fill="#000000">ur_walk_session</text>
<text text-anchor="start" x="389.3833" y="-1082.3" font-family="Arial" font-size="14.00" fill="#000000">    </text>
<text text-anchor="start" x="423.5881" y="-1082.3" font-family="Arial" font-size="14.00" fill="#666666">[table]</text>
<polygon fill="none" stroke="#000000" points="238.5397,-1039.5 238.5397,-1069.5 479.5397,-1069.5 479.5397,-1039.5 238.5397,-1039.5"/>
<text text-anchor="start" x="245.5397" y="-1050.9" font-family="Arial" font-size="14.00" fill="#000000">ur_walk_session_id    </text>
<text text-anchor="start" x="401.8749" y="-1050.9" font-family="Arial" font-size="14.00" fill="#666666">[ULID]</text>
<polygon fill="none" stroke="#000000" points="238.5397,-1009.5 238.5397,-1039.5 479.5397,-1039.5 479.5397,-1009.5 238.5397,-1009.5"/>
<text text-anchor="start" x="245.5397" y="-1020.9" font-family="Arial" font-size="14.00" fill="#000000">device_id    </text>
<text text-anchor="start" x="338.8707" y="-1020.9" font-family="Arial" font-size="14.00" fill="#666666">[ULID]</text>
<polygon fill="none" stroke="#000000" points="238.5397,-979.5 238.5397,-1009.5 479.5397,-1009.5 479.5397,-979.5 238.5397,-979.5"/>
<text text-anchor="start" x="245.5397" y="-990.9" font-family="Arial" font-size="14.00" fill="#000000">walk_started_at    </text>
<text text-anchor="start" x="377.7683" y="-990.9" font-family="Arial" font-size="14.00" fill="#666666">[TIMESTAMP]</text>
<polygon fill="none" stroke="#000000" points="238.5397,-949.5 238.5397,-979.5 479.5397,-979.5 479.5397,-949.5 238.5397,-949.5"/>
<text text-anchor="start" x="245.4808" y="-960.9" font-family="Arial" font-size="14.00" fill="#000000">walk_finished_at    </text>
<text text-anchor="start" x="383.154" y="-960.9" font-family="Arial" font-size="14.00" fill="#666666">[TIMESTAMP]</text>
<polygon fill="none" stroke="#000000" points="238.5397,-919.5 238.5397,-949.5 479.5397,-949.5 479.5397,-919.5 238.5397,-919.5"/>
<text text-anchor="start" x="245.5397" y="-930.9" font-family="Arial" font-size="14.00" fill="#000000">ignore_paths_regex    </text>
<text text-anchor="start" x="403.4541" y="-930.9" font-family="Arial" font-size="14.00" fill="#666666">[TEXT]</text>
<polygon fill="none" stroke="#000000" points="238.5397,-889.5 238.5397,-919.5 479.5397,-919.5 479.5397,-889.5 238.5397,-889.5"/>
<text text-anchor="start" x="245.5397" y="-900.9" font-family="Arial" font-size="14.00" fill="#000000">blobs_regex    </text>
<text text-anchor="start" x="355.9899" y="-900.9" font-family="Arial" font-size="14.00" fill="#666666">[TEXT]</text>
<polygon fill="none" stroke="#000000" points="238.5397,-859.5 238.5397,-889.5 479.5397,-889.5 479.5397,-859.5 238.5397,-859.5"/>
<text text-anchor="start" x="245.5397" y="-870.9" font-family="Arial" font-size="14.00" fill="#000000">digests_regex    </text>
<text text-anchor="start" x="366.8805" y="-870.9" font-family="Arial" font-size="14.00" fill="#666666">[TEXT]</text>
<polygon fill="none" stroke="#000000" points="238.5397,-829.5 238.5397,-859.5 479.5397,-859.5 479.5397,-829.5 238.5397,-829.5"/>
<text text-anchor="start" x="245.5397" y="-840.9" font-family="Arial" font-size="14.00" fill="#000000">elaboration    </text>
<text text-anchor="start" x="348.9871" y="-840.9" font-family="Arial" font-size="14.00" fill="#666666">[TEXT]</text>
<polygon fill="none" stroke="#000000" points="238.5397,-799.5 238.5397,-829.5 479.5397,-829.5 479.5397,-799.5 238.5397,-799.5"/>
<text text-anchor="start" x="245.5397" y="-810.9" font-family="Arial" font-size="14.00" fill="#000000">created_at    </text>
<text text-anchor="start" x="345.8819" y="-810.9" font-family="Arial" font-size="14.00" fill="#666666">[TIMESTAMP]</text>
<polygon fill="none" stroke="#000000" points="238.5397,-769.5 238.5397,-799.5 479.5397,-799.5 479.5397,-769.5 238.5397,-769.5"/>
<text text-anchor="start" x="245.5397" y="-780.9" font-family="Arial" font-size="14.00" fill="#000000">created_by    </text>
<text text-anchor="start" x="348.9913" y="-780.9" font-family="Arial" font-size="14.00" fill="#666666">[TEXT]</text>
<polygon fill="none" stroke="#000000" points="238.5397,-739.5 238.5397,-769.5 479.5397,-769.5 479.5397,-739.5 238.5397,-739.5"/>
<text text-anchor="start" x="245.5397" y="-750.9" font-family="Arial" font-size="14.00" fill="#000000">updated_at    </text>
<text text-anchor="start" x="349.7865" y="-750.9" font-family="Arial" font-size="14.00" fill="#666666">[TIMESTAMP]</text>
<polygon fill="none" stroke="#000000" points="238.5397,-709.5 238.5397,-739.5 479.5397,-739.5 479.5397,-709.5 238.5397,-709.5"/>
<text text-anchor="start" x="245.5397" y="-720.9" font-family="Arial" font-size="14.00" fill="#000000">updated_by    </text>
<text text-anchor="start" x="352.8959" y="-720.9" font-family="Arial" font-size="14.00" fill="#666666">[TEXT]</text>
<polygon fill="none" stroke="#000000" points="238.5397,-679.5 238.5397,-709.5 479.5397,-709.5 479.5397,-679.5 238.5397,-679.5"/>
<text text-anchor="start" x="245.5397" y="-690.9" font-family="Arial" font-size="14.00" fill="#000000">deleted_at    </text>
<text text-anchor="start" x="345.1105" y="-690.9" font-family="Arial" font-size="14.00" fill="#666666">[TIMESTAMP]</text>
<polygon fill="none" stroke="#000000" points="238.5397,-649.5 238.5397,-679.5 479.5397,-679.5 479.5397,-649.5 238.5397,-649.5"/>
<text text-anchor="start" x="245.5397" y="-660.9" font-family="Arial" font-size="14.00" fill="#000000">deleted_by    </text>
<text text-anchor="start" x="348.2199" y="-660.9" font-family="Arial" font-size="14.00" fill="#666666">[TEXT]</text>
<polygon fill="none" stroke="#000000" points="238.5397,-619.5 238.5397,-649.5 479.5397,-649.5 479.5397,-619.5 238.5397,-619.5"/>
<text text-anchor="start" x="245.5397" y="-630.9" font-family="Arial" font-size="14.00" fill="#000000">activity_log    </text>
<text text-anchor="start" x="348.9759" y="-630.9" font-family="Arial" font-size="14.00" fill="#666666">[TEXT]</text>
</g>
<!-- uniform_resource&#45;&gt;ur_walk_session -->
<g id="edge6" class="edge">
<title>uniform_resource:walk_session_id&#45;&gt;ur_walk_session:ur_walk_session_id</title>
<path fill="none" stroke="#000000" d="M65.5502,-2240.4756C-48.0744,-2216.3818 8.3457,-1774.3955 75.5397,-1671 97.0068,-1637.9672 133.5274,-1666.9756 156.5397,-1635 232.6412,-1529.2569 108.259,-1054.5 238.5397,-1054.5"/>
<polygon fill="#000000" stroke="#000000" points="65.5918,-2240.4798 75.0806,-2245.9765 70.5657,-2240.9899 75.5397,-2241.5 75.5397,-2241.5 75.5397,-2241.5 70.5657,-2240.9899 75.9988,-2237.0235 65.5918,-2240.4798 65.5918,-2240.4798"/>
</g>
<!-- ur_walk_session_path -->
<g id="node4" class="node">
<title>ur_walk_session_path</title>
<polygon fill="#efefef" stroke="transparent" points="251.5397,-1556.5 251.5397,-1591.5 515.5397,-1591.5 515.5397,-1556.5 251.5397,-1556.5"/>
<polygon fill="none" stroke="#000000" points="251.5397,-1556.5 251.5397,-1591.5 515.5397,-1591.5 515.5397,-1556.5 251.5397,-1556.5"/>
<text text-anchor="start" x="258.3516" y="-1569.3" font-family="Arial Bold" font-size="18.00" fill="#000000">ur_walk_session_path</text>
<text text-anchor="start" x="436.3968" y="-1569.3" font-family="Arial" font-size="14.00" fill="#000000">    </text>
<text text-anchor="start" x="470.6016" y="-1569.3" font-family="Arial" font-size="14.00" fill="#666666">[table]</text>
<polygon fill="none" stroke="#000000" points="251.5397,-1526.5 251.5397,-1556.5 515.5397,-1556.5 515.5397,-1526.5 251.5397,-1526.5"/>
<text text-anchor="start" x="258.5397" y="-1537.9" font-family="Arial" font-size="14.00" fill="#000000">ur_walk_session_path_id    </text>
<text text-anchor="start" x="449.8959" y="-1537.9" font-family="Arial" font-size="14.00" fill="#666666">[ULID]</text>
<polygon fill="none" stroke="#000000" points="251.5397,-1496.5 251.5397,-1526.5 515.5397,-1526.5 515.5397,-1496.5 251.5397,-1496.5"/>
<text text-anchor="start" x="258.5397" y="-1507.9" font-family="Arial" font-size="14.00" fill="#000000">walk_session_id    </text>
<text text-anchor="start" x="394.6491" y="-1507.9" font-family="Arial" font-size="14.00" fill="#666666">[ULID]</text>
<polygon fill="none" stroke="#000000" points="251.5397,-1466.5 251.5397,-1496.5 515.5397,-1496.5 515.5397,-1466.5 251.5397,-1466.5"/>
<text text-anchor="start" x="258.5397" y="-1477.9" font-family="Arial" font-size="14.00" fill="#000000">root_path    </text>
<text text-anchor="start" x="351.8819" y="-1477.9" font-family="Arial" font-size="14.00" fill="#666666">[TEXT]</text>
<polygon fill="none" stroke="#000000" points="251.5397,-1436.5 251.5397,-1466.5 515.5397,-1466.5 515.5397,-1436.5 251.5397,-1436.5"/>
<text text-anchor="start" x="258.5397" y="-1447.9" font-family="Arial" font-size="14.00" fill="#000000">elaboration    </text>
<text text-anchor="start" x="361.9871" y="-1447.9" font-family="Arial" font-size="14.00" fill="#666666">[TEXT]</text>
<polygon fill="none" stroke="#000000" points="251.5397,-1406.5 251.5397,-1436.5 515.5397,-1436.5 515.5397,-1406.5 251.5397,-1406.5"/>
<text text-anchor="start" x="258.5397" y="-1417.9" font-family="Arial" font-size="14.00" fill="#000000">created_at    </text>
<text text-anchor="start" x="358.8819" y="-1417.9" font-family="Arial" font-size="14.00" fill="#666666">[TIMESTAMP]</text>
<polygon fill="none" stroke="#000000" points="251.5397,-1376.5 251.5397,-1406.5 515.5397,-1406.5 515.5397,-1376.5 251.5397,-1376.5"/>
<text text-anchor="start" x="258.5397" y="-1387.9" font-family="Arial" font-size="14.00" fill="#000000">created_by    </text>
<text text-anchor="start" x="361.9913" y="-1387.9" font-family="Arial" font-size="14.00" fill="#666666">[TEXT]</text>
<polygon fill="none" stroke="#000000" points="251.5397,-1346.5 251.5397,-1376.5 515.5397,-1376.5 515.5397,-1346.5 251.5397,-1346.5"/>
<text text-anchor="start" x="258.5397" y="-1357.9" font-family="Arial" font-size="14.00" fill="#000000">updated_at    </text>
<text text-anchor="start" x="362.7865" y="-1357.9" font-family="Arial" font-size="14.00" fill="#666666">[TIMESTAMP]</text>
<polygon fill="none" stroke="#000000" points="251.5397,-1316.5 251.5397,-1346.5 515.5397,-1346.5 515.5397,-1316.5 251.5397,-1316.5"/>
<text text-anchor="start" x="258.5397" y="-1327.9" font-family="Arial" font-size="14.00" fill="#000000">updated_by    </text>
<text text-anchor="start" x="365.8959" y="-1327.9" font-family="Arial" font-size="14.00" fill="#666666">[TEXT]</text>
<polygon fill="none" stroke="#000000" points="251.5397,-1286.5 251.5397,-1316.5 515.5397,-1316.5 515.5397,-1286.5 251.5397,-1286.5"/>
<text text-anchor="start" x="258.5397" y="-1297.9" font-family="Arial" font-size="14.00" fill="#000000">deleted_at    </text>
<text text-anchor="start" x="358.1105" y="-1297.9" font-family="Arial" font-size="14.00" fill="#666666">[TIMESTAMP]</text>
<polygon fill="none" stroke="#000000" points="251.5397,-1256.5 251.5397,-1286.5 515.5397,-1286.5 515.5397,-1256.5 251.5397,-1256.5"/>
<text text-anchor="start" x="258.5397" y="-1267.9" font-family="Arial" font-size="14.00" fill="#000000">deleted_by    </text>
<text text-anchor="start" x="361.2199" y="-1267.9" font-family="Arial" font-size="14.00" fill="#666666">[TEXT]</text>
<polygon fill="none" stroke="#000000" points="251.5397,-1226.5 251.5397,-1256.5 515.5397,-1256.5 515.5397,-1226.5 251.5397,-1226.5"/>
<text text-anchor="start" x="258.5397" y="-1237.9" font-family="Arial" font-size="14.00" fill="#000000">activity_log    </text>
<text text-anchor="start" x="361.9759" y="-1237.9" font-family="Arial" font-size="14.00" fill="#666666">[TEXT]</text>
</g>
<!-- uniform_resource&#45;&gt;ur_walk_session_path -->
<g id="edge8" class="edge">
<title>uniform_resource:walk_path_id&#45;&gt;ur_walk_session_path:ur_walk_session_path_id</title>
<path fill="none" stroke="#000000" d="M311.6237,-2210.4026C417.8306,-2186.3743 354.6944,-1774.7705 301.5397,-1671 289.0557,-1646.6283 264.0236,-1659.3717 251.5397,-1635 232.5943,-1598.0143 209.9841,-1541.5 251.5397,-1541.5"/>
<polygon fill="#000000" stroke="#000000" points="311.481,-2210.4181 301.0528,-2207.0264 306.5103,-2210.959 301.5397,-2211.5 301.5397,-2211.5 301.5397,-2211.5 306.5103,-2210.959 302.0265,-2215.9736 311.481,-2210.4181 311.481,-2210.4181"/>
</g>
<!-- device -->
<g id="node5" class="node">
<title>device</title>
<polygon fill="#efefef" stroke="transparent" points="146.5397,-462.5 146.5397,-497.5 353.5397,-497.5 353.5397,-462.5 146.5397,-462.5"/>
<polygon fill="none" stroke="#000000" points="146.5397,-462.5 146.5397,-497.5 353.5397,-497.5 353.5397,-462.5 146.5397,-462.5"/>
<text text-anchor="start" x="187.8678" y="-475.3" font-family="Arial Bold" font-size="18.00" fill="#000000">device</text>
<text text-anchor="start" x="239.8806" y="-475.3" font-family="Arial" font-size="14.00" fill="#000000">    </text>
<text text-anchor="start" x="274.0854" y="-475.3" font-family="Arial" font-size="14.00" fill="#666666">[table]</text>
<polygon fill="none" stroke="#000000" points="146.5397,-432.5 146.5397,-462.5 353.5397,-462.5 353.5397,-432.5 146.5397,-432.5"/>
<text text-anchor="start" x="153.5397" y="-443.9" font-family="Arial" font-size="14.00" fill="#000000">device_id    </text>
<text text-anchor="start" x="246.8707" y="-443.9" font-family="Arial" font-size="14.00" fill="#666666">[ULID]</text>
<polygon fill="none" stroke="#000000" points="146.5397,-402.5 146.5397,-432.5 353.5397,-432.5 353.5397,-402.5 146.5397,-402.5"/>
<text text-anchor="start" x="153.5397" y="-413.9" font-family="Arial" font-size="14.00" fill="#000000">name    </text>
<text text-anchor="start" x="222.7529" y="-413.9" font-family="Arial" font-size="14.00" fill="#666666">[TEXT]</text>
<polygon fill="none" stroke="#000000" points="146.5397,-372.5 146.5397,-402.5 353.5397,-402.5 353.5397,-372.5 146.5397,-372.5"/>
<text text-anchor="start" x="153.5397" y="-383.9" font-family="Arial" font-size="14.00" fill="#000000">state    </text>
<text text-anchor="start" x="218.0909" y="-383.9" font-family="Arial" font-size="14.00" fill="#666666">[TEXT]</text>
<polygon fill="none" stroke="#000000" points="146.5397,-342.5 146.5397,-372.5 353.5397,-372.5 353.5397,-342.5 146.5397,-342.5"/>
<text text-anchor="start" x="153.5397" y="-353.9" font-family="Arial" font-size="14.00" fill="#000000">boundary    </text>
<text text-anchor="start" x="246.1007" y="-353.9" font-family="Arial" font-size="14.00" fill="#666666">[TEXT]</text>
<polygon fill="none" stroke="#000000" points="146.5397,-312.5 146.5397,-342.5 353.5397,-342.5 353.5397,-312.5 146.5397,-312.5"/>
<text text-anchor="start" x="153.5397" y="-323.9" font-family="Arial" font-size="14.00" fill="#000000">segmentation    </text>
<text text-anchor="start" x="271.7711" y="-323.9" font-family="Arial" font-size="14.00" fill="#666666">[TEXT]</text>
<polygon fill="none" stroke="#000000" points="146.5397,-282.5 146.5397,-312.5 353.5397,-312.5 353.5397,-282.5 146.5397,-282.5"/>
<text text-anchor="start" x="153.5397" y="-293.9" font-family="Arial" font-size="14.00" fill="#000000">state_sysinfo    </text>
<text text-anchor="start" x="269.4359" y="-293.9" font-family="Arial" font-size="14.00" fill="#666666">[TEXT]</text>
<polygon fill="none" stroke="#000000" points="146.5397,-252.5 146.5397,-282.5 353.5397,-282.5 353.5397,-252.5 146.5397,-252.5"/>
<text text-anchor="start" x="153.5397" y="-263.9" font-family="Arial" font-size="14.00" fill="#000000">elaboration    </text>
<text text-anchor="start" x="256.9871" y="-263.9" font-family="Arial" font-size="14.00" fill="#666666">[TEXT]</text>
<polygon fill="none" stroke="#000000" points="146.5397,-222.5 146.5397,-252.5 353.5397,-252.5 353.5397,-222.5 146.5397,-222.5"/>
<text text-anchor="start" x="153.5397" y="-233.9" font-family="Arial" font-size="14.00" fill="#000000">created_at    </text>
<text text-anchor="start" x="253.8819" y="-233.9" font-family="Arial" font-size="14.00" fill="#666666">[TIMESTAMP]</text>
<polygon fill="none" stroke="#000000" points="146.5397,-192.5 146.5397,-222.5 353.5397,-222.5 353.5397,-192.5 146.5397,-192.5"/>
<text text-anchor="start" x="153.5397" y="-203.9" font-family="Arial" font-size="14.00" fill="#000000">created_by    </text>
<text text-anchor="start" x="256.9913" y="-203.9" font-family="Arial" font-size="14.00" fill="#666666">[TEXT]</text>
<polygon fill="none" stroke="#000000" points="146.5397,-162.5 146.5397,-192.5 353.5397,-192.5 353.5397,-162.5 146.5397,-162.5"/>
<text text-anchor="start" x="153.194" y="-173.9" font-family="Arial" font-size="14.00" fill="#000000">updated_at    </text>
<text text-anchor="start" x="257.4408" y="-173.9" font-family="Arial" font-size="14.00" fill="#666666">[TIMESTAMP]</text>
<polygon fill="none" stroke="#000000" points="146.5397,-132.5 146.5397,-162.5 353.5397,-162.5 353.5397,-132.5 146.5397,-132.5"/>
<text text-anchor="start" x="153.5397" y="-143.9" font-family="Arial" font-size="14.00" fill="#000000">updated_by    </text>
<text text-anchor="start" x="260.8959" y="-143.9" font-family="Arial" font-size="14.00" fill="#666666">[TEXT]</text>
<polygon fill="none" stroke="#000000" points="146.5397,-102.5 146.5397,-132.5 353.5397,-132.5 353.5397,-102.5 146.5397,-102.5"/>
<text text-anchor="start" x="153.5397" y="-113.9" font-family="Arial" font-size="14.00" fill="#000000">deleted_at    </text>
<text text-anchor="start" x="253.1105" y="-113.9" font-family="Arial" font-size="14.00" fill="#666666">[TIMESTAMP]</text>
<polygon fill="none" stroke="#000000" points="146.5397,-72.5 146.5397,-102.5 353.5397,-102.5 353.5397,-72.5 146.5397,-72.5"/>
<text text-anchor="start" x="153.5397" y="-83.9" font-family="Arial" font-size="14.00" fill="#000000">deleted_by    </text>
<text text-anchor="start" x="256.2199" y="-83.9" font-family="Arial" font-size="14.00" fill="#666666">[TEXT]</text>
<polygon fill="none" stroke="#000000" points="146.5397,-42.5 146.5397,-72.5 353.5397,-72.5 353.5397,-42.5 146.5397,-42.5"/>
<text text-anchor="start" x="153.5397" y="-53.9" font-family="Arial" font-size="14.00" fill="#000000">activity_log    </text>
<text text-anchor="start" x="256.9759" y="-53.9" font-family="Arial" font-size="14.00" fill="#666666">[TEXT]</text>
</g>
<!-- uniform_resource&#45;&gt;device -->
<g id="edge4" class="edge">
<title>uniform_resource:device_id&#45;&gt;device:device_id</title>
<path fill="none" stroke="#000000" d="M66.7996,-2266.5862C-21.5437,-2162.7342 48.1996,-447.5 146.5397,-447.5"/>
<polygon fill="#000000" stroke="#000000" points="66.8228,-2266.5992 73.3343,-2275.4226 71.1812,-2269.0496 75.5397,-2271.5 75.5397,-2271.5 75.5397,-2271.5 71.1812,-2269.0496 77.745,-2267.5774 66.8228,-2266.5992 66.8228,-2266.5992"/>
</g>
<!-- ur_walk_session_path_fs_entry -->
<g id="node2" class="node">
<title>ur_walk_session_path_fs_entry</title>
<polygon fill="#efefef" stroke="transparent" points="214.5397,-3046.5 214.5397,-3081.5 552.5397,-3081.5 552.5397,-3046.5 214.5397,-3046.5"/>
<polygon fill="none" stroke="#000000" points="214.5397,-3046.5 214.5397,-3081.5 552.5397,-3081.5 552.5397,-3046.5 214.5397,-3046.5"/>
<text text-anchor="start" x="221.3409" y="-3059.3" font-family="Arial Bold" font-size="18.00" fill="#000000">ur_walk_session_path_fs_entry</text>
<text text-anchor="start" x="473.4075" y="-3059.3" font-family="Arial" font-size="14.00" fill="#000000">    </text>
<text text-anchor="start" x="507.6123" y="-3059.3" font-family="Arial" font-size="14.00" fill="#666666">[table]</text>
<polygon fill="none" stroke="#000000" points="214.5397,-3016.5 214.5397,-3046.5 552.5397,-3046.5 552.5397,-3016.5 214.5397,-3016.5"/>
<text text-anchor="start" x="221.5397" y="-3027.9" font-family="Arial" font-size="14.00" fill="#000000">ur_walk_session_path_fs_entry_id    </text>
<text text-anchor="start" x="470.4681" y="-3027.9" font-family="Arial" font-size="14.00" fill="#666666">[ULID]</text>
<polygon fill="none" stroke="#000000" points="214.5397,-2986.5 214.5397,-3016.5 552.5397,-3016.5 552.5397,-2986.5 214.5397,-2986.5"/>
<text text-anchor="start" x="221.5397" y="-2997.9" font-family="Arial" font-size="14.00" fill="#000000">walk_session_id    </text>
<text text-anchor="start" x="357.6491" y="-2997.9" font-family="Arial" font-size="14.00" fill="#666666">[ULID]</text>
<polygon fill="none" stroke="#000000" points="214.5397,-2956.5 214.5397,-2986.5 552.5397,-2986.5 552.5397,-2956.5 214.5397,-2956.5"/>
<text text-anchor="start" x="221.5397" y="-2967.9" font-family="Arial" font-size="14.00" fill="#000000">walk_path_id    </text>
<text text-anchor="start" x="337.4331" y="-2967.9" font-family="Arial" font-size="14.00" fill="#666666">[ULID]</text>
<polygon fill="none" stroke="#000000" points="214.5397,-2926.5 214.5397,-2956.5 552.5397,-2956.5 552.5397,-2926.5 214.5397,-2926.5"/>
<text text-anchor="start" x="221.5397" y="-2937.9" font-family="Arial" font-size="14.00" fill="#000000">uniform_resource_id    </text>
<text text-anchor="start" x="383.3167" y="-2937.9" font-family="Arial" font-size="14.00" fill="#666666">[ULID]</text>
<polygon fill="none" stroke="#000000" points="214.5397,-2896.5 214.5397,-2926.5 552.5397,-2926.5 552.5397,-2896.5 214.5397,-2896.5"/>
<text text-anchor="start" x="221.5397" y="-2907.9" font-family="Arial" font-size="14.00" fill="#000000">file_path_abs    </text>
<text text-anchor="start" x="338.9997" y="-2907.9" font-family="Arial" font-size="14.00" fill="#666666">[TEXT]</text>
<polygon fill="none" stroke="#000000" points="214.5397,-2866.5 214.5397,-2896.5 552.5397,-2896.5 552.5397,-2866.5 214.5397,-2866.5"/>
<text text-anchor="start" x="221.5397" y="-2877.9" font-family="Arial" font-size="14.00" fill="#000000">file_path_rel_parent    </text>
<text text-anchor="start" x="379.4485" y="-2877.9" font-family="Arial" font-size="14.00" fill="#666666">[TEXT]</text>
<polygon fill="none" stroke="#000000" points="214.5397,-2836.5 214.5397,-2866.5 552.5397,-2866.5 552.5397,-2836.5 214.5397,-2836.5"/>
<text text-anchor="start" x="221.5397" y="-2847.9" font-family="Arial" font-size="14.00" fill="#000000">file_path_rel    </text>
<text text-anchor="start" x="331.9843" y="-2847.9" font-family="Arial" font-size="14.00" fill="#666666">[TEXT]</text>
<polygon fill="none" stroke="#000000" points="214.5397,-2806.5 214.5397,-2836.5 552.5397,-2836.5 552.5397,-2806.5 214.5397,-2806.5"/>
<text text-anchor="start" x="221.5397" y="-2817.9" font-family="Arial" font-size="14.00" fill="#000000">file_basename    </text>
<text text-anchor="start" x="346.7697" y="-2817.9" font-family="Arial" font-size="14.00" fill="#666666">[TEXT]</text>
<polygon fill="none" stroke="#000000" points="214.5397,-2776.5 214.5397,-2806.5 552.5397,-2806.5 552.5397,-2776.5 214.5397,-2776.5"/>
<text text-anchor="start" x="221.5397" y="-2787.9" font-family="Arial" font-size="14.00" fill="#000000">file_extn    </text>
<text text-anchor="start" x="307.8693" y="-2787.9" font-family="Arial" font-size="14.00" fill="#666666">[TEXT]</text>
<polygon fill="none" stroke="#000000" points="214.5397,-2746.5 214.5397,-2776.5 552.5397,-2776.5 552.5397,-2746.5 214.5397,-2746.5"/>
<text text-anchor="start" x="221.5397" y="-2757.9" font-family="Arial" font-size="14.00" fill="#000000">ur_status    </text>
<text text-anchor="start" x="313.3167" y="-2757.9" font-family="Arial" font-size="14.00" fill="#666666">[TEXT]</text>
<polygon fill="none" stroke="#000000" points="214.5397,-2716.5 214.5397,-2746.5 552.5397,-2746.5 552.5397,-2716.5 214.5397,-2716.5"/>
<text text-anchor="start" x="221.5397" y="-2727.9" font-family="Arial" font-size="14.00" fill="#000000">ur_status_explanation    </text>
<text text-anchor="start" x="392.6813" y="-2727.9" font-family="Arial" font-size="14.00" fill="#666666">[TEXT]</text>
<polygon fill="none" stroke="#000000" points="214.5397,-2686.5 214.5397,-2716.5 552.5397,-2716.5 552.5397,-2686.5 214.5397,-2686.5"/>
<text text-anchor="start" x="221.5397" y="-2697.9" font-family="Arial" font-size="14.00" fill="#000000">elaboration    </text>
<text text-anchor="start" x="324.9871" y="-2697.9" font-family="Arial" font-size="14.00" fill="#666666">[TEXT]</text>
<polygon fill="none" stroke="#000000" points="214.5397,-2656.5 214.5397,-2686.5 552.5397,-2686.5 552.5397,-2656.5 214.5397,-2656.5"/>
<text text-anchor="start" x="221.5397" y="-2667.9" font-family="Arial" font-size="14.00" fill="#000000">created_at    </text>
<text text-anchor="start" x="321.8819" y="-2667.9" font-family="Arial" font-size="14.00" fill="#666666">[TIMESTAMP]</text>
<polygon fill="none" stroke="#000000" points="214.5397,-2626.5 214.5397,-2656.5 552.5397,-2656.5 552.5397,-2626.5 214.5397,-2626.5"/>
<text text-anchor="start" x="221.5397" y="-2637.9" font-family="Arial" font-size="14.00" fill="#000000">created_by    </text>
<text text-anchor="start" x="324.9913" y="-2637.9" font-family="Arial" font-size="14.00" fill="#666666">[TEXT]</text>
<polygon fill="none" stroke="#000000" points="214.5397,-2596.5 214.5397,-2626.5 552.5397,-2626.5 552.5397,-2596.5 214.5397,-2596.5"/>
<text text-anchor="start" x="221.5397" y="-2607.9" font-family="Arial" font-size="14.00" fill="#000000">updated_at    </text>
<text text-anchor="start" x="325.7865" y="-2607.9" font-family="Arial" font-size="14.00" fill="#666666">[TIMESTAMP]</text>
<polygon fill="none" stroke="#000000" points="214.5397,-2566.5 214.5397,-2596.5 552.5397,-2596.5 552.5397,-2566.5 214.5397,-2566.5"/>
<text text-anchor="start" x="221.5397" y="-2577.9" font-family="Arial" font-size="14.00" fill="#000000">updated_by    </text>
<text text-anchor="start" x="328.8959" y="-2577.9" font-family="Arial" font-size="14.00" fill="#666666">[TEXT]</text>
<polygon fill="none" stroke="#000000" points="214.5397,-2536.5 214.5397,-2566.5 552.5397,-2566.5 552.5397,-2536.5 214.5397,-2536.5"/>
<text text-anchor="start" x="221.5397" y="-2547.9" font-family="Arial" font-size="14.00" fill="#000000">deleted_at    </text>
<text text-anchor="start" x="321.1105" y="-2547.9" font-family="Arial" font-size="14.00" fill="#666666">[TIMESTAMP]</text>
<polygon fill="none" stroke="#000000" points="214.5397,-2506.5 214.5397,-2536.5 552.5397,-2536.5 552.5397,-2506.5 214.5397,-2506.5"/>
<text text-anchor="start" x="221.5397" y="-2517.9" font-family="Arial" font-size="14.00" fill="#000000">deleted_by    </text>
<text text-anchor="start" x="324.2199" y="-2517.9" font-family="Arial" font-size="14.00" fill="#666666">[TEXT]</text>
<polygon fill="none" stroke="#000000" points="214.5397,-2476.5 214.5397,-2506.5 552.5397,-2506.5 552.5397,-2476.5 214.5397,-2476.5"/>
<text text-anchor="start" x="221.5397" y="-2487.9" font-family="Arial" font-size="14.00" fill="#000000">activity_log    </text>
<text text-anchor="start" x="324.9759" y="-2487.9" font-family="Arial" font-size="14.00" fill="#666666">[TEXT]</text>
</g>
<!-- ur_walk_session_path_fs_entry&#45;&gt;uniform_resource -->
<g id="edge1" class="edge">
<title>ur_walk_session_path_fs_entry:uniform_resource_id&#45;&gt;uniform_resource:uniform_resource_id</title>
<path fill="none" stroke="#000000" d="M204.52,-2941.2816C-7.9764,-2931.8435 91.0914,-2618.6817 214.5397,-2434 237.7944,-2399.2103 278.2849,-2432.7897 301.5397,-2398 325.3738,-2362.3435 344.4285,-2301.5 301.5397,-2301.5"/>
<polygon fill="#000000" stroke="#000000" points="204.542,-2941.282 214.4416,-2945.9989 209.5408,-2941.391 214.5397,-2941.5 214.5397,-2941.5 214.5397,-2941.5 209.5408,-2941.391 214.6377,-2937.0011 204.542,-2941.282 204.542,-2941.282"/>
</g>
<!-- ur_walk_session_path_fs_entry&#45;&gt;ur_walk_session -->
<g id="edge2" class="edge">
<title>ur_walk_session_path_fs_entry:walk_session_id&#45;&gt;ur_walk_session:ur_walk_session_id</title>
<path fill="none" stroke="#000000" d="M562.8785,-3001.3261C814.0877,-2992.6727 563.2959,-2662.7374 566.5397,-2398 570.2052,-2098.8416 778.7205,-1054.5 479.5397,-1054.5"/>
<polygon fill="#000000" stroke="#000000" points="562.5382,-3001.3318 552.4639,-2997.0006 557.5389,-3001.4159 552.5397,-3001.5 552.5397,-3001.5 552.5397,-3001.5 557.5389,-3001.4159 552.6154,-3005.9994 562.5382,-3001.3318 562.5382,-3001.3318"/>
</g>
<!-- ur_walk_session_path_fs_entry&#45;&gt;ur_walk_session_path -->
<g id="edge3" class="edge">
<title>ur_walk_session_path_fs_entry:walk_path_id&#45;&gt;ur_walk_session_path:ur_walk_session_path_id</title>
<path fill="none" stroke="#000000" d="M557.5332,-2962.7389C588.8729,-2843.243 553.4514,-1541.5 515.5397,-1541.5"/>
<polygon fill="#000000" stroke="#000000" points="557.4916,-2962.8121 548.6301,-2969.2716 555.0156,-2967.1561 552.5397,-2971.5 552.5397,-2971.5 552.5397,-2971.5 555.0156,-2967.1561 556.4492,-2973.7284 557.4916,-2962.8121 557.4916,-2962.8121"/>
</g>
<!-- ur_walk_session&#45;&gt;device -->
<g id="edge5" class="edge">
<title>ur_walk_session:device_id&#45;&gt;device:device_id</title>
<path fill="none" stroke="#000000" d="M228.5652,-1023.1663C141.9697,-999.0247 181.7251,-654.3188 238.5397,-577 270.2527,-533.8418 321.8266,-584.1582 353.5397,-541 378.1462,-507.513 395.0952,-447.5 353.5397,-447.5"/>
<polygon fill="#000000" stroke="#000000" points="228.6279,-1023.1746 237.9432,-1028.9603 233.5838,-1023.8373 238.5397,-1024.5 238.5397,-1024.5 238.5397,-1024.5 233.5838,-1023.8373 239.1361,-1020.0397 228.6279,-1023.1746 228.6279,-1023.1746"/>
</g>
<!-- ur_walk_session_path&#45;&gt;ur_walk_session -->
<g id="edge7" class="edge">
<title>ur_walk_session_path:walk_session_id&#45;&gt;ur_walk_session:ur_walk_session_id</title>
<path fill="none" stroke="#000000" d="M241.5729,-1509.6102C181.304,-1485.4378 206.5696,-1236.6277 251.5397,-1184 318.1843,-1106.0068 412.895,-1225.9932 479.5397,-1148 506.5354,-1116.4074 521.0952,-1054.5 479.5397,-1054.5"/>
<polygon fill="#000000" stroke="#000000" points="241.7147,-1509.637 250.7013,-1515.9212 246.6272,-1510.5685 251.5397,-1511.5 251.5397,-1511.5 251.5397,-1511.5 246.6272,-1510.5685 252.378,-1507.0788 241.7147,-1509.637 241.7147,-1509.637"/>
</g>
</g>
</svg>
