<?xml version="1.0" encoding="UTF-8" standalone="no"?>
<!DOCTYPE svg PUBLIC "-//W3C//DTD SVG 1.1//EN"
 "http://www.w3.org/Graphics/SVG/1.1/DTD/svg11.dtd">
<!-- Generated by graphviz version 2.40.1 (20161225.0304)
 -->
<!-- Title: uniform_resource_transform Pages: 1 -->
<svg width="1060pt" height="2093pt"
 viewBox="0.00 0.00 1059.50 2093.00" xmlns="http://www.w3.org/2000/svg" xmlns:xlink="http://www.w3.org/1999/xlink">
<g id="graph0" class="graph" transform="scale(1 1) rotate(0) translate(4 2089)">
<title>uniform_resource_transform</title>
<polygon fill="#ffffff" stroke="transparent" points="-4,4 -4,-2089 1055.5,-2089 1055.5,4 -4,4"/>
<!-- uniform_resource_transform -->
<g id="node1" class="node">
<title>uniform_resource_transform</title>
<polygon fill="#efefef" stroke="transparent" points="104.5,-1916.5 104.5,-1951.5 416.5,-1951.5 416.5,-1916.5 104.5,-1916.5"/>
<polygon fill="none" stroke="#000000" points="104.5,-1916.5 104.5,-1951.5 416.5,-1951.5 416.5,-1916.5 104.5,-1916.5"/>
<text text-anchor="start" x="111.3242" y="-1929.3" font-family="Arial Bold" font-size="18.00" fill="#000000">uniform_resource_transform</text>
<text text-anchor="start" x="337.3448" y="-1929.3" font-family="Arial" font-size="14.00" fill="#000000">    </text>
<text text-anchor="start" x="371.5496" y="-1929.3" font-family="Arial" font-size="14.00" fill="#666666">[table]</text>
<polygon fill="none" stroke="#000000" points="104.5,-1886.5 104.5,-1916.5 416.5,-1916.5 416.5,-1886.5 104.5,-1886.5"/>
<text text-anchor="start" x="111.5" y="-1897.9" font-family="Arial" font-size="14.00" fill="#000000">uniform_resource_transform_id </text>
<text text-anchor="start" x="309.8562" y="-1897.9" font-family="Arial" font-size="14.00" fill="#666666">[ULID]</text>
<polygon fill="none" stroke="#000000" points="104.5,-1856.5 104.5,-1886.5 416.5,-1886.5 416.5,-1856.5 104.5,-1856.5"/>
<text text-anchor="start" x="111.5" y="-1867.9" font-family="Arial" font-size="14.00" fill="#000000">uniform_resource_id </text>
<text text-anchor="start" x="242.9628" y="-1867.9" font-family="Arial" font-size="14.00" fill="#666666">[ULID]</text>
<polygon fill="none" stroke="#000000" points="104.5,-1826.5 104.5,-1856.5 416.5,-1856.5 416.5,-1826.5 104.5,-1826.5"/>
<text text-anchor="start" x="111.5" y="-1837.9" font-family="Arial" font-size="14.00" fill="#000000">uri </text>
<text text-anchor="start" x="130.9404" y="-1837.9" font-family="Arial" font-size="14.00" fill="#666666">[TEXT]</text>
<polygon fill="none" stroke="#000000" points="104.5,-1796.5 104.5,-1826.5 416.5,-1826.5 416.5,-1796.5 104.5,-1796.5"/>
<text text-anchor="start" x="111.5" y="-1807.9" font-family="Arial" font-size="14.00" fill="#000000">content_digest </text>
<text text-anchor="start" x="206.4298" y="-1807.9" font-family="Arial" font-size="14.00" fill="#666666">[TEXT]</text>
<polygon fill="none" stroke="#000000" points="104.5,-1766.5 104.5,-1796.5 416.5,-1796.5 416.5,-1766.5 104.5,-1766.5"/>
<text text-anchor="start" x="111.5" y="-1777.9" font-family="Arial" font-size="14.00" fill="#000000">content </text>
<text text-anchor="start" x="161.3022" y="-1777.9" font-family="Arial" font-size="14.00" fill="#666666">[BLOB]</text>
<polygon fill="none" stroke="#000000" points="104.5,-1736.5 104.5,-1766.5 416.5,-1766.5 416.5,-1736.5 104.5,-1736.5"/>
<text text-anchor="start" x="111.5" y="-1747.9" font-family="Arial" font-size="14.00" fill="#000000">nature </text>
<text text-anchor="start" x="155.0722" y="-1747.9" font-family="Arial" font-size="14.00" fill="#666666">[TEXT]</text>
<polygon fill="none" stroke="#000000" points="104.5,-1706.5 104.5,-1736.5 416.5,-1736.5 416.5,-1706.5 104.5,-1706.5"/>
<text text-anchor="start" x="111.5" y="-1717.9" font-family="Arial" font-size="14.00" fill="#000000">size_bytes </text>
<text text-anchor="start" x="181.5182" y="-1717.9" font-family="Arial" font-size="14.00" fill="#666666">[INTEGER]</text>
<polygon fill="none" stroke="#000000" points="104.5,-1676.5 104.5,-1706.5 416.5,-1706.5 416.5,-1676.5 104.5,-1676.5"/>
<text text-anchor="start" x="111.5" y="-1687.9" font-family="Arial" font-size="14.00" fill="#000000">elaboration </text>
<text text-anchor="start" x="184.6332" y="-1687.9" font-family="Arial" font-size="14.00" fill="#666666">[TEXT]</text>
<polygon fill="none" stroke="#000000" points="104.5,-1646.5 104.5,-1676.5 416.5,-1676.5 416.5,-1646.5 104.5,-1646.5"/>
<text text-anchor="start" x="111.5" y="-1657.9" font-family="Arial" font-size="14.00" fill="#000000">created_at </text>
<text text-anchor="start" x="181.528" y="-1657.9" font-family="Arial" font-size="14.00" fill="#666666">[TIMESTAMP]</text>
<polygon fill="none" stroke="#000000" points="104.5,-1616.5 104.5,-1646.5 416.5,-1646.5 416.5,-1616.5 104.5,-1616.5"/>
<text text-anchor="start" x="111.5" y="-1627.9" font-family="Arial" font-size="14.00" fill="#000000">created_by </text>
<text text-anchor="start" x="184.6374" y="-1627.9" font-family="Arial" font-size="14.00" fill="#666666">[TEXT]</text>
<polygon fill="none" stroke="#000000" points="104.5,-1586.5 104.5,-1616.5 416.5,-1616.5 416.5,-1586.5 104.5,-1586.5"/>
<text text-anchor="start" x="111.5" y="-1597.9" font-family="Arial" font-size="14.00" fill="#000000">updated_at </text>
<text text-anchor="start" x="185.4326" y="-1597.9" font-family="Arial" font-size="14.00" fill="#666666">[TIMESTAMP]</text>
<polygon fill="none" stroke="#000000" points="104.5,-1556.5 104.5,-1586.5 416.5,-1586.5 416.5,-1556.5 104.5,-1556.5"/>
<text text-anchor="start" x="111.5" y="-1567.9" font-family="Arial" font-size="14.00" fill="#000000">updated_by </text>
<text text-anchor="start" x="188.542" y="-1567.9" font-family="Arial" font-size="14.00" fill="#666666">[TEXT]</text>
<polygon fill="none" stroke="#000000" points="104.5,-1526.5 104.5,-1556.5 416.5,-1556.5 416.5,-1526.5 104.5,-1526.5"/>
<text text-anchor="start" x="111.5" y="-1537.9" font-family="Arial" font-size="14.00" fill="#000000">deleted_at </text>
<text text-anchor="start" x="180.7566" y="-1537.9" font-family="Arial" font-size="14.00" fill="#666666">[TIMESTAMP]</text>
<polygon fill="none" stroke="#000000" points="104.5,-1496.5 104.5,-1526.5 416.5,-1526.5 416.5,-1496.5 104.5,-1496.5"/>
<text text-anchor="start" x="111.5" y="-1507.9" font-family="Arial" font-size="14.00" fill="#000000">deleted_by </text>
<text text-anchor="start" x="183.866" y="-1507.9" font-family="Arial" font-size="14.00" fill="#666666">[TEXT]</text>
<polygon fill="none" stroke="#000000" points="104.5,-1466.5 104.5,-1496.5 416.5,-1496.5 416.5,-1466.5 104.5,-1466.5"/>
<text text-anchor="start" x="111.5" y="-1477.9" font-family="Arial" font-size="14.00" fill="#000000">activity_log </text>
<text text-anchor="start" x="184.622" y="-1477.9" font-family="Arial" font-size="14.00" fill="#666666">[TEXT]</text>
<polygon fill="none" stroke="#000000" stroke-width="3" points="103,-1465.5 103,-1953.5 418,-1953.5 418,-1465.5 103,-1465.5"/>
</g>
<!-- uniform_resource -->
<g id="node2" class="node">
<title>uniform_resource</title>
<polygon fill="#efefef" stroke="transparent" points="362.5,-1219.5 362.5,-1254.5 596.5,-1254.5 596.5,-1219.5 362.5,-1219.5"/>
<polygon fill="none" stroke="#000000" points="362.5,-1219.5 362.5,-1254.5 596.5,-1254.5 596.5,-1219.5 362.5,-1219.5"/>
<text text-anchor="start" x="373.3271" y="-1232.3" font-family="Arial Bold" font-size="18.00" fill="#000000">uniform_resource</text>
<text text-anchor="start" x="513.3419" y="-1232.3" font-family="Arial" font-size="14.00" fill="#000000">    </text>
<text text-anchor="start" x="547.5467" y="-1232.3" font-family="Arial" font-size="14.00" fill="#666666">[table]</text>
<polygon fill="none" stroke="#000000" points="362.5,-1189.5 362.5,-1219.5 596.5,-1219.5 596.5,-1189.5 362.5,-1189.5"/>
<text text-anchor="start" x="369.5" y="-1200.9" font-family="Arial" font-size="14.00" fill="#000000">uniform_resource_id    </text>
<text text-anchor="start" x="531.277" y="-1200.9" font-family="Arial" font-size="14.00" fill="#666666">[ULID]</text>
<polygon fill="none" stroke="#000000" points="362.5,-1159.5 362.5,-1189.5 596.5,-1189.5 596.5,-1159.5 362.5,-1159.5"/>
<text text-anchor="start" x="369.5" y="-1170.9" font-family="Arial" font-size="14.00" fill="#000000">device_id    </text>
<text text-anchor="start" x="462.831" y="-1170.9" font-family="Arial" font-size="14.00" fill="#666666">[ULID]</text>
<polygon fill="none" stroke="#000000" points="362.5,-1129.5 362.5,-1159.5 596.5,-1159.5 596.5,-1129.5 362.5,-1129.5"/>
<text text-anchor="start" x="369.5" y="-1140.9" font-family="Arial" font-size="14.00" fill="#000000">ingest_session_id    </text>
<text text-anchor="start" x="514.9586" y="-1140.9" font-family="Arial" font-size="14.00" fill="#666666">[ULID]</text>
<polygon fill="none" stroke="#000000" points="362.5,-1099.5 362.5,-1129.5 596.5,-1129.5 596.5,-1099.5 362.5,-1099.5"/>
<text text-anchor="start" x="369.5" y="-1110.9" font-family="Arial" font-size="14.00" fill="#000000">ingest_fs_path_id    </text>
<text text-anchor="start" x="513.4158" y="-1110.9" font-family="Arial" font-size="14.00" fill="#666666">[ULID]</text>
<polygon fill="none" stroke="#000000" points="362.5,-1069.5 362.5,-1099.5 596.5,-1099.5 596.5,-1069.5 362.5,-1069.5"/>
<text text-anchor="start" x="369.5" y="-1080.9" font-family="Arial" font-size="14.00" fill="#000000">uri    </text>
<text text-anchor="start" x="419.2546" y="-1080.9" font-family="Arial" font-size="14.00" fill="#666666">[TEXT]</text>
<polygon fill="none" stroke="#000000" points="362.5,-1039.5 362.5,-1069.5 596.5,-1069.5 596.5,-1039.5 362.5,-1039.5"/>
<text text-anchor="start" x="369.5" y="-1050.9" font-family="Arial" font-size="14.00" fill="#000000">content_digest    </text>
<text text-anchor="start" x="494.744" y="-1050.9" font-family="Arial" font-size="14.00" fill="#666666">[TEXT]</text>
<polygon fill="none" stroke="#000000" points="362.5,-1009.5 362.5,-1039.5 596.5,-1039.5 596.5,-1009.5 362.5,-1009.5"/>
<text text-anchor="start" x="369.5" y="-1020.9" font-family="Arial" font-size="14.00" fill="#000000">content    </text>
<text text-anchor="start" x="449.6164" y="-1020.9" font-family="Arial" font-size="14.00" fill="#666666">[BLOB]</text>
<polygon fill="none" stroke="#000000" points="362.5,-979.5 362.5,-1009.5 596.5,-1009.5 596.5,-979.5 362.5,-979.5"/>
<text text-anchor="start" x="369.5" y="-990.9" font-family="Arial" font-size="14.00" fill="#000000">nature    </text>
<text text-anchor="start" x="443.3864" y="-990.9" font-family="Arial" font-size="14.00" fill="#666666">[TEXT]</text>
<polygon fill="none" stroke="#000000" points="362.5,-949.5 362.5,-979.5 596.5,-979.5 596.5,-949.5 362.5,-949.5"/>
<text text-anchor="start" x="369.5" y="-960.9" font-family="Arial" font-size="14.00" fill="#000000">size_bytes    </text>
<text text-anchor="start" x="469.8324" y="-960.9" font-family="Arial" font-size="14.00" fill="#666666">[INTEGER]</text>
<polygon fill="none" stroke="#000000" points="362.5,-919.5 362.5,-949.5 596.5,-949.5 596.5,-919.5 362.5,-919.5"/>
<text text-anchor="start" x="369.5" y="-930.9" font-family="Arial" font-size="14.00" fill="#000000">last_modified_at    </text>
<text text-anchor="start" x="505.6178" y="-930.9" font-family="Arial" font-size="14.00" fill="#666666">[INTEGER]</text>
<polygon fill="none" stroke="#000000" points="362.5,-889.5 362.5,-919.5 596.5,-919.5 596.5,-889.5 362.5,-889.5"/>
<text text-anchor="start" x="369.4264" y="-900.9" font-family="Arial" font-size="14.00" fill="#000000">content_fm_body_attrs    </text>
<text text-anchor="start" x="546.014" y="-900.9" font-family="Arial" font-size="14.00" fill="#666666">[TEXT]</text>
<polygon fill="none" stroke="#000000" points="362.5,-859.5 362.5,-889.5 596.5,-889.5 596.5,-859.5 362.5,-859.5"/>
<text text-anchor="start" x="369.5" y="-870.9" font-family="Arial" font-size="14.00" fill="#000000">frontmatter    </text>
<text text-anchor="start" x="471.3794" y="-870.9" font-family="Arial" font-size="14.00" fill="#666666">[TEXT]</text>
<polygon fill="none" stroke="#000000" points="362.5,-829.5 362.5,-859.5 596.5,-859.5 596.5,-829.5 362.5,-829.5"/>
<text text-anchor="start" x="369.5" y="-840.9" font-family="Arial" font-size="14.00" fill="#000000">elaboration    </text>
<text text-anchor="start" x="472.9474" y="-840.9" font-family="Arial" font-size="14.00" fill="#666666">[TEXT]</text>
<polygon fill="none" stroke="#000000" points="362.5,-799.5 362.5,-829.5 596.5,-829.5 596.5,-799.5 362.5,-799.5"/>
<text text-anchor="start" x="369.5" y="-810.9" font-family="Arial" font-size="14.00" fill="#000000">created_at    </text>
<text text-anchor="start" x="469.8422" y="-810.9" font-family="Arial" font-size="14.00" fill="#666666">[TIMESTAMP]</text>
<polygon fill="none" stroke="#000000" points="362.5,-769.5 362.5,-799.5 596.5,-799.5 596.5,-769.5 362.5,-769.5"/>
<text text-anchor="start" x="369.5" y="-780.9" font-family="Arial" font-size="14.00" fill="#000000">created_by    </text>
<text text-anchor="start" x="472.9516" y="-780.9" font-family="Arial" font-size="14.00" fill="#666666">[TEXT]</text>
<polygon fill="none" stroke="#000000" points="362.5,-739.5 362.5,-769.5 596.5,-769.5 596.5,-739.5 362.5,-739.5"/>
<text text-anchor="start" x="369.5" y="-750.9" font-family="Arial" font-size="14.00" fill="#000000">updated_at    </text>
<text text-anchor="start" x="473.7468" y="-750.9" font-family="Arial" font-size="14.00" fill="#666666">[TIMESTAMP]</text>
<polygon fill="none" stroke="#000000" points="362.5,-709.5 362.5,-739.5 596.5,-739.5 596.5,-709.5 362.5,-709.5"/>
<text text-anchor="start" x="369.5" y="-720.9" font-family="Arial" font-size="14.00" fill="#000000">updated_by    </text>
<text text-anchor="start" x="476.8562" y="-720.9" font-family="Arial" font-size="14.00" fill="#666666">[TEXT]</text>
<polygon fill="none" stroke="#000000" points="362.5,-679.5 362.5,-709.5 596.5,-709.5 596.5,-679.5 362.5,-679.5"/>
<text text-anchor="start" x="369.5" y="-690.9" font-family="Arial" font-size="14.00" fill="#000000">deleted_at    </text>
<text text-anchor="start" x="469.0708" y="-690.9" font-family="Arial" font-size="14.00" fill="#666666">[TIMESTAMP]</text>
<polygon fill="none" stroke="#000000" points="362.5,-649.5 362.5,-679.5 596.5,-679.5 596.5,-649.5 362.5,-649.5"/>
<text text-anchor="start" x="369.5" y="-660.9" font-family="Arial" font-size="14.00" fill="#000000">deleted_by    </text>
<text text-anchor="start" x="472.1802" y="-660.9" font-family="Arial" font-size="14.00" fill="#666666">[TEXT]</text>
<polygon fill="none" stroke="#000000" points="362.5,-619.5 362.5,-649.5 596.5,-649.5 596.5,-619.5 362.5,-619.5"/>
<text text-anchor="start" x="369.5" y="-630.9" font-family="Arial" font-size="14.00" fill="#000000">activity_log    </text>
<text text-anchor="start" x="472.9362" y="-630.9" font-family="Arial" font-size="14.00" fill="#666666">[TEXT]</text>
</g>
<!-- uniform_resource_transform&#45;&gt;uniform_resource -->
<g id="edge1" class="edge">
<title>uniform_resource_transform:uniform_resource_id&#45;&gt;uniform_resource:uniform_resource_id</title>
<path fill="none" stroke="#000000" d="M426.6595,-1870.1479C510.9393,-1846.357 436.3172,-1515.4369 416.5,-1421 396.1332,-1323.9438 263.3299,-1204.5 362.5,-1204.5"/>
<polygon fill="#000000" stroke="#000000" points="426.4126,-1870.1807 415.9063,-1867.0393 421.4563,-1870.8403 416.5,-1871.5 416.5,-1871.5 416.5,-1871.5 421.4563,-1870.8403 417.0937,-1875.9607 426.4126,-1870.1807 426.4126,-1870.1807"/>
</g>
<!-- device -->
<g id="node4" class="node">
<title>device</title>
<polygon fill="#efefef" stroke="transparent" points="43.5,-462.5 43.5,-497.5 250.5,-497.5 250.5,-462.5 43.5,-462.5"/>
<polygon fill="none" stroke="#000000" points="43.5,-462.5 43.5,-497.5 250.5,-497.5 250.5,-462.5 43.5,-462.5"/>
<text text-anchor="start" x="84.8281" y="-475.3" font-family="Arial Bold" font-size="18.00" fill="#000000">device</text>
<text text-anchor="start" x="136.8409" y="-475.3" font-family="Arial" font-size="14.00" fill="#000000">    </text>
<text text-anchor="start" x="171.0457" y="-475.3" font-family="Arial" font-size="14.00" fill="#666666">[table]</text>
<polygon fill="none" stroke="#000000" points="43.5,-432.5 43.5,-462.5 250.5,-462.5 250.5,-432.5 43.5,-432.5"/>
<text text-anchor="start" x="50.5" y="-443.9" font-family="Arial" font-size="14.00" fill="#000000">device_id    </text>
<text text-anchor="start" x="143.831" y="-443.9" font-family="Arial" font-size="14.00" fill="#666666">[ULID]</text>
<polygon fill="none" stroke="#000000" points="43.5,-402.5 43.5,-432.5 250.5,-432.5 250.5,-402.5 43.5,-402.5"/>
<text text-anchor="start" x="50.5" y="-413.9" font-family="Arial" font-size="14.00" fill="#000000">name    </text>
<text text-anchor="start" x="119.7132" y="-413.9" font-family="Arial" font-size="14.00" fill="#666666">[TEXT]</text>
<polygon fill="none" stroke="#000000" points="43.5,-372.5 43.5,-402.5 250.5,-402.5 250.5,-372.5 43.5,-372.5"/>
<text text-anchor="start" x="50.5" y="-383.9" font-family="Arial" font-size="14.00" fill="#000000">state    </text>
<text text-anchor="start" x="115.0512" y="-383.9" font-family="Arial" font-size="14.00" fill="#666666">[TEXT]</text>
<polygon fill="none" stroke="#000000" points="43.5,-342.5 43.5,-372.5 250.5,-372.5 250.5,-342.5 43.5,-342.5"/>
<text text-anchor="start" x="50.5" y="-353.9" font-family="Arial" font-size="14.00" fill="#000000">boundary    </text>
<text text-anchor="start" x="143.061" y="-353.9" font-family="Arial" font-size="14.00" fill="#666666">[TEXT]</text>
<polygon fill="none" stroke="#000000" points="43.5,-312.5 43.5,-342.5 250.5,-342.5 250.5,-312.5 43.5,-312.5"/>
<text text-anchor="start" x="50.5" y="-323.9" font-family="Arial" font-size="14.00" fill="#000000">segmentation    </text>
<text text-anchor="start" x="168.7314" y="-323.9" font-family="Arial" font-size="14.00" fill="#666666">[TEXT]</text>
<polygon fill="none" stroke="#000000" points="43.5,-282.5 43.5,-312.5 250.5,-312.5 250.5,-282.5 43.5,-282.5"/>
<text text-anchor="start" x="50.5" y="-293.9" font-family="Arial" font-size="14.00" fill="#000000">state_sysinfo    </text>
<text text-anchor="start" x="166.3962" y="-293.9" font-family="Arial" font-size="14.00" fill="#666666">[TEXT]</text>
<polygon fill="none" stroke="#000000" points="43.5,-252.5 43.5,-282.5 250.5,-282.5 250.5,-252.5 43.5,-252.5"/>
<text text-anchor="start" x="50.5" y="-263.9" font-family="Arial" font-size="14.00" fill="#000000">elaboration    </text>
<text text-anchor="start" x="153.9474" y="-263.9" font-family="Arial" font-size="14.00" fill="#666666">[TEXT]</text>
<polygon fill="none" stroke="#000000" points="43.5,-222.5 43.5,-252.5 250.5,-252.5 250.5,-222.5 43.5,-222.5"/>
<text text-anchor="start" x="50.5" y="-233.9" font-family="Arial" font-size="14.00" fill="#000000">created_at    </text>
<text text-anchor="start" x="150.8422" y="-233.9" font-family="Arial" font-size="14.00" fill="#666666">[TIMESTAMP]</text>
<polygon fill="none" stroke="#000000" points="43.5,-192.5 43.5,-222.5 250.5,-222.5 250.5,-192.5 43.5,-192.5"/>
<text text-anchor="start" x="50.5" y="-203.9" font-family="Arial" font-size="14.00" fill="#000000">created_by    </text>
<text text-anchor="start" x="153.9516" y="-203.9" font-family="Arial" font-size="14.00" fill="#666666">[TEXT]</text>
<polygon fill="none" stroke="#000000" points="43.5,-162.5 43.5,-192.5 250.5,-192.5 250.5,-162.5 43.5,-162.5"/>
<text text-anchor="start" x="50.1543" y="-173.9" font-family="Arial" font-size="14.00" fill="#000000">updated_at    </text>
<text text-anchor="start" x="154.4011" y="-173.9" font-family="Arial" font-size="14.00" fill="#666666">[TIMESTAMP]</text>
<polygon fill="none" stroke="#000000" points="43.5,-132.5 43.5,-162.5 250.5,-162.5 250.5,-132.5 43.5,-132.5"/>
<text text-anchor="start" x="50.5" y="-143.9" font-family="Arial" font-size="14.00" fill="#000000">updated_by    </text>
<text text-anchor="start" x="157.8562" y="-143.9" font-family="Arial" font-size="14.00" fill="#666666">[TEXT]</text>
<polygon fill="none" stroke="#000000" points="43.5,-102.5 43.5,-132.5 250.5,-132.5 250.5,-102.5 43.5,-102.5"/>
<text text-anchor="start" x="50.5" y="-113.9" font-family="Arial" font-size="14.00" fill="#000000">deleted_at    </text>
<text text-anchor="start" x="150.0708" y="-113.9" font-family="Arial" font-size="14.00" fill="#666666">[TIMESTAMP]</text>
<polygon fill="none" stroke="#000000" points="43.5,-72.5 43.5,-102.5 250.5,-102.5 250.5,-72.5 43.5,-72.5"/>
<text text-anchor="start" x="50.5" y="-83.9" font-family="Arial" font-size="14.00" fill="#000000">deleted_by    </text>
<text text-anchor="start" x="153.1802" y="-83.9" font-family="Arial" font-size="14.00" fill="#666666">[TEXT]</text>
<polygon fill="none" stroke="#000000" points="43.5,-42.5 43.5,-72.5 250.5,-72.5 250.5,-42.5 43.5,-42.5"/>
<text text-anchor="start" x="50.5" y="-53.9" font-family="Arial" font-size="14.00" fill="#000000">activity_log    </text>
<text text-anchor="start" x="153.9362" y="-53.9" font-family="Arial" font-size="14.00" fill="#666666">[TEXT]</text>
</g>
<!-- uniform_resource&#45;&gt;device -->
<g id="edge3" class="edge">
<title>uniform_resource:device_id&#45;&gt;device:device_id</title>
<path fill="none" stroke="#000000" d="M353.0971,-1170.9313C284.7666,-1116.0863 328.8785,-447.5 250.5,-447.5"/>
<polygon fill="#000000" stroke="#000000" points="353.1507,-1170.9516 360.9032,-1178.7072 357.8254,-1172.7258 362.5,-1174.5 362.5,-1174.5 362.5,-1174.5 357.8254,-1172.7258 364.0968,-1170.2928 353.1507,-1170.9516 353.1507,-1170.9516"/>
</g>
<!-- ur_ingest_session -->
<g id="node5" class="node">
<title>ur_ingest_session</title>
<polygon fill="#efefef" stroke="transparent" points="354.5,-462.5 354.5,-497.5 604.5,-497.5 604.5,-462.5 354.5,-462.5"/>
<polygon fill="none" stroke="#000000" points="354.5,-462.5 354.5,-497.5 604.5,-497.5 604.5,-462.5 354.5,-462.5"/>
<text text-anchor="start" x="370.8152" y="-475.3" font-family="Arial Bold" font-size="18.00" fill="#000000">ur_ingest_session</text>
<text text-anchor="start" x="515.8538" y="-475.3" font-family="Arial" font-size="14.00" fill="#000000">    </text>
<text text-anchor="start" x="550.0586" y="-475.3" font-family="Arial" font-size="14.00" fill="#666666">[table]</text>
<polygon fill="none" stroke="#000000" points="354.5,-432.5 354.5,-462.5 604.5,-462.5 604.5,-432.5 354.5,-432.5"/>
<text text-anchor="start" x="361.5" y="-443.9" font-family="Arial" font-size="14.00" fill="#000000">ur_ingest_session_id    </text>
<text text-anchor="start" x="527.1844" y="-443.9" font-family="Arial" font-size="14.00" fill="#666666">[ULID]</text>
<polygon fill="none" stroke="#000000" points="354.5,-402.5 354.5,-432.5 604.5,-432.5 604.5,-402.5 354.5,-402.5"/>
<text text-anchor="start" x="361.5" y="-413.9" font-family="Arial" font-size="14.00" fill="#000000">device_id    </text>
<text text-anchor="start" x="454.831" y="-413.9" font-family="Arial" font-size="14.00" fill="#666666">[ULID]</text>
<polygon fill="none" stroke="#000000" points="354.5,-372.5 354.5,-402.5 604.5,-402.5 604.5,-372.5 354.5,-372.5"/>
<text text-anchor="start" x="361.5" y="-383.9" font-family="Arial" font-size="14.00" fill="#000000">behavior_id    </text>
<text text-anchor="start" x="468.0568" y="-383.9" font-family="Arial" font-size="14.00" fill="#666666">[ULID]</text>
<polygon fill="none" stroke="#000000" points="354.5,-342.5 354.5,-372.5 604.5,-372.5 604.5,-342.5 354.5,-342.5"/>
<text text-anchor="start" x="361.5" y="-353.9" font-family="Arial" font-size="14.00" fill="#000000">behavior_json    </text>
<text text-anchor="start" x="482.8394" y="-353.9" font-family="Arial" font-size="14.00" fill="#666666">[TEXT]</text>
<polygon fill="none" stroke="#000000" points="354.5,-312.5 354.5,-342.5 604.5,-342.5 604.5,-312.5 354.5,-312.5"/>
<text text-anchor="start" x="361.5" y="-323.9" font-family="Arial" font-size="14.00" fill="#000000">ingest_started_at    </text>
<text text-anchor="start" x="503.0778" y="-323.9" font-family="Arial" font-size="14.00" fill="#666666">[TIMESTAMP]</text>
<polygon fill="none" stroke="#000000" points="354.5,-282.5 354.5,-312.5 604.5,-312.5 604.5,-282.5 354.5,-282.5"/>
<text text-anchor="start" x="361.2665" y="-293.9" font-family="Arial" font-size="14.00" fill="#000000">ingest_finished_at    </text>
<text text-anchor="start" x="508.2889" y="-293.9" font-family="Arial" font-size="14.00" fill="#666666">[TIMESTAMP]</text>
<polygon fill="none" stroke="#000000" points="354.5,-252.5 354.5,-282.5 604.5,-282.5 604.5,-252.5 354.5,-252.5"/>
<text text-anchor="start" x="361.5" y="-263.9" font-family="Arial" font-size="14.00" fill="#000000">elaboration    </text>
<text text-anchor="start" x="464.9474" y="-263.9" font-family="Arial" font-size="14.00" fill="#666666">[TEXT]</text>
<polygon fill="none" stroke="#000000" points="354.5,-222.5 354.5,-252.5 604.5,-252.5 604.5,-222.5 354.5,-222.5"/>
<text text-anchor="start" x="361.5" y="-233.9" font-family="Arial" font-size="14.00" fill="#000000">created_at    </text>
<text text-anchor="start" x="461.8422" y="-233.9" font-family="Arial" font-size="14.00" fill="#666666">[TIMESTAMP]</text>
<polygon fill="none" stroke="#000000" points="354.5,-192.5 354.5,-222.5 604.5,-222.5 604.5,-192.5 354.5,-192.5"/>
<text text-anchor="start" x="361.5" y="-203.9" font-family="Arial" font-size="14.00" fill="#000000">created_by    </text>
<text text-anchor="start" x="464.9516" y="-203.9" font-family="Arial" font-size="14.00" fill="#666666">[TEXT]</text>
<polygon fill="none" stroke="#000000" points="354.5,-162.5 354.5,-192.5 604.5,-192.5 604.5,-162.5 354.5,-162.5"/>
<text text-anchor="start" x="361.5" y="-173.9" font-family="Arial" font-size="14.00" fill="#000000">updated_at    </text>
<text text-anchor="start" x="465.7468" y="-173.9" font-family="Arial" font-size="14.00" fill="#666666">[TIMESTAMP]</text>
<polygon fill="none" stroke="#000000" points="354.5,-132.5 354.5,-162.5 604.5,-162.5 604.5,-132.5 354.5,-132.5"/>
<text text-anchor="start" x="361.5" y="-143.9" font-family="Arial" font-size="14.00" fill="#000000">updated_by    </text>
<text text-anchor="start" x="468.8562" y="-143.9" font-family="Arial" font-size="14.00" fill="#666666">[TEXT]</text>
<polygon fill="none" stroke="#000000" points="354.5,-102.5 354.5,-132.5 604.5,-132.5 604.5,-102.5 354.5,-102.5"/>
<text text-anchor="start" x="361.5" y="-113.9" font-family="Arial" font-size="14.00" fill="#000000">deleted_at    </text>
<text text-anchor="start" x="461.0708" y="-113.9" font-family="Arial" font-size="14.00" fill="#666666">[TIMESTAMP]</text>
<polygon fill="none" stroke="#000000" points="354.5,-72.5 354.5,-102.5 604.5,-102.5 604.5,-72.5 354.5,-72.5"/>
<text text-anchor="start" x="361.5" y="-83.9" font-family="Arial" font-size="14.00" fill="#000000">deleted_by    </text>
<text text-anchor="start" x="464.1802" y="-83.9" font-family="Arial" font-size="14.00" fill="#666666">[TEXT]</text>
<polygon fill="none" stroke="#000000" points="354.5,-42.5 354.5,-72.5 604.5,-72.5 604.5,-42.5 354.5,-42.5"/>
<text text-anchor="start" x="361.5" y="-53.9" font-family="Arial" font-size="14.00" fill="#000000">activity_log    </text>
<text text-anchor="start" x="464.9362" y="-53.9" font-family="Arial" font-size="14.00" fill="#666666">[TEXT]</text>
</g>
<!-- uniform_resource&#45;&gt;ur_ingest_session -->
<g id="edge4" class="edge">
<title>uniform_resource:ingest_session_id&#45;&gt;ur_ingest_session:ur_ingest_session_id</title>
<path fill="none" stroke="#000000" d="M606.0978,-1140.7499C674.4793,-1085.8884 678.6216,-447.5 604.5,-447.5"/>
<polygon fill="#000000" stroke="#000000" points="605.8143,-1140.8607 594.8623,-1140.3086 601.1571,-1142.6803 596.5,-1144.5 596.5,-1144.5 596.5,-1144.5 601.1571,-1142.6803 598.1377,-1148.6914 605.8143,-1140.8607 605.8143,-1140.8607"/>
</g>
<!-- ur_ingest_session_fs_path -->
<g id="node6" class="node">
<title>ur_ingest_session_fs_path</title>
<polygon fill="#efefef" stroke="transparent" points="708.5,-417.5 708.5,-452.5 1008.5,-452.5 1008.5,-417.5 708.5,-417.5"/>
<polygon fill="none" stroke="#000000" points="708.5,-417.5 708.5,-452.5 1008.5,-452.5 1008.5,-417.5 708.5,-417.5"/>
<text text-anchor="start" x="715.2975" y="-430.3" font-family="Arial Bold" font-size="18.00" fill="#000000">ur_ingest_session_fs_path</text>
<text text-anchor="start" x="929.3715" y="-430.3" font-family="Arial" font-size="14.00" fill="#000000">    </text>
<text text-anchor="start" x="963.5763" y="-430.3" font-family="Arial" font-size="14.00" fill="#666666">[table]</text>
<polygon fill="none" stroke="#000000" points="708.5,-387.5 708.5,-417.5 1008.5,-417.5 1008.5,-387.5 708.5,-387.5"/>
<text text-anchor="start" x="715.5" y="-398.9" font-family="Arial" font-size="14.00" fill="#000000">ur_ingest_session_fs_path_id    </text>
<text text-anchor="start" x="934.8786" y="-398.9" font-family="Arial" font-size="14.00" fill="#666666">[ULID]</text>
<polygon fill="none" stroke="#000000" points="708.5,-357.5 708.5,-387.5 1008.5,-387.5 1008.5,-357.5 708.5,-357.5"/>
<text text-anchor="start" x="715.5" y="-368.9" font-family="Arial" font-size="14.00" fill="#000000">ingest_session_id    </text>
<text text-anchor="start" x="860.9586" y="-368.9" font-family="Arial" font-size="14.00" fill="#666666">[ULID]</text>
<polygon fill="none" stroke="#000000" points="708.5,-327.5 708.5,-357.5 1008.5,-357.5 1008.5,-327.5 708.5,-327.5"/>
<text text-anchor="start" x="715.5" y="-338.9" font-family="Arial" font-size="14.00" fill="#000000">root_path    </text>
<text text-anchor="start" x="808.8422" y="-338.9" font-family="Arial" font-size="14.00" fill="#666666">[TEXT]</text>
<polygon fill="none" stroke="#000000" points="708.5,-297.5 708.5,-327.5 1008.5,-327.5 1008.5,-297.5 708.5,-297.5"/>
<text text-anchor="start" x="715.5" y="-308.9" font-family="Arial" font-size="14.00" fill="#000000">elaboration    </text>
<text text-anchor="start" x="818.9474" y="-308.9" font-family="Arial" font-size="14.00" fill="#666666">[TEXT]</text>
<polygon fill="none" stroke="#000000" points="708.5,-267.5 708.5,-297.5 1008.5,-297.5 1008.5,-267.5 708.5,-267.5"/>
<text text-anchor="start" x="715.5" y="-278.9" font-family="Arial" font-size="14.00" fill="#000000">created_at    </text>
<text text-anchor="start" x="815.8422" y="-278.9" font-family="Arial" font-size="14.00" fill="#666666">[TIMESTAMP]</text>
<polygon fill="none" stroke="#000000" points="708.5,-237.5 708.5,-267.5 1008.5,-267.5 1008.5,-237.5 708.5,-237.5"/>
<text text-anchor="start" x="715.5" y="-248.9" font-family="Arial" font-size="14.00" fill="#000000">created_by    </text>
<text text-anchor="start" x="818.9516" y="-248.9" font-family="Arial" font-size="14.00" fill="#666666">[TEXT]</text>
<polygon fill="none" stroke="#000000" points="708.5,-207.5 708.5,-237.5 1008.5,-237.5 1008.5,-207.5 708.5,-207.5"/>
<text text-anchor="start" x="715.5" y="-218.9" font-family="Arial" font-size="14.00" fill="#000000">updated_at    </text>
<text text-anchor="start" x="819.7468" y="-218.9" font-family="Arial" font-size="14.00" fill="#666666">[TIMESTAMP]</text>
<polygon fill="none" stroke="#000000" points="708.5,-177.5 708.5,-207.5 1008.5,-207.5 1008.5,-177.5 708.5,-177.5"/>
<text text-anchor="start" x="715.5" y="-188.9" font-family="Arial" font-size="14.00" fill="#000000">updated_by    </text>
<text text-anchor="start" x="822.8562" y="-188.9" font-family="Arial" font-size="14.00" fill="#666666">[TEXT]</text>
<polygon fill="none" stroke="#000000" points="708.5,-147.5 708.5,-177.5 1008.5,-177.5 1008.5,-147.5 708.5,-147.5"/>
<text text-anchor="start" x="715.5" y="-158.9" font-family="Arial" font-size="14.00" fill="#000000">deleted_at    </text>
<text text-anchor="start" x="815.0708" y="-158.9" font-family="Arial" font-size="14.00" fill="#666666">[TIMESTAMP]</text>
<polygon fill="none" stroke="#000000" points="708.5,-117.5 708.5,-147.5 1008.5,-147.5 1008.5,-117.5 708.5,-117.5"/>
<text text-anchor="start" x="715.5" y="-128.9" font-family="Arial" font-size="14.00" fill="#000000">deleted_by    </text>
<text text-anchor="start" x="818.1802" y="-128.9" font-family="Arial" font-size="14.00" fill="#666666">[TEXT]</text>
<polygon fill="none" stroke="#000000" points="708.5,-87.5 708.5,-117.5 1008.5,-117.5 1008.5,-87.5 708.5,-87.5"/>
<text text-anchor="start" x="715.5" y="-98.9" font-family="Arial" font-size="14.00" fill="#000000">activity_log    </text>
<text text-anchor="start" x="818.9362" y="-98.9" font-family="Arial" font-size="14.00" fill="#666666">[TEXT]</text>
</g>
<!-- uniform_resource&#45;&gt;ur_ingest_session_fs_path -->
<g id="edge5" class="edge">
<title>uniform_resource:ingest_fs_path_id&#45;&gt;ur_ingest_session_fs_path:ur_ingest_session_fs_path_id</title>
<path fill="none" stroke="#000000" d="M606.1333,-1110.6692C672.6813,-1054.6271 631.8572,-402.5 708.5,-402.5"/>
<polygon fill="#000000" stroke="#000000" points="605.7923,-1110.8048 594.8372,-1110.3185 601.1461,-1112.6524 596.5,-1114.5 596.5,-1114.5 596.5,-1114.5 601.1461,-1112.6524 598.1628,-1118.6815 605.7923,-1110.8048 605.7923,-1110.8048"/>
</g>
<!-- ur_ingest_session_fs_path_entry -->
<g id="node3" class="node">
<title>ur_ingest_session_fs_path_entry</title>
<polygon fill="#efefef" stroke="transparent" points="523.5,-2006.5 523.5,-2041.5 873.5,-2041.5 873.5,-2006.5 523.5,-2006.5"/>
<polygon fill="none" stroke="#000000" points="523.5,-2006.5 523.5,-2041.5 873.5,-2041.5 873.5,-2006.5 523.5,-2006.5"/>
<text text-anchor="start" x="530.291" y="-2019.3" font-family="Arial Bold" font-size="18.00" fill="#000000">ur_ingest_session_fs_path_entry</text>
<text text-anchor="start" x="794.378" y="-2019.3" font-family="Arial" font-size="14.00" fill="#000000">    </text>
<text text-anchor="start" x="828.5828" y="-2019.3" font-family="Arial" font-size="14.00" fill="#666666">[table]</text>
<polygon fill="none" stroke="#000000" points="523.5,-1976.5 523.5,-2006.5 873.5,-2006.5 873.5,-1976.5 523.5,-1976.5"/>
<text text-anchor="start" x="530.5" y="-1987.9" font-family="Arial" font-size="14.00" fill="#000000">ur_ingest_session_fs_path_entry_id    </text>
<text text-anchor="start" x="788.7776" y="-1987.9" font-family="Arial" font-size="14.00" fill="#666666">[ULID]</text>
<polygon fill="none" stroke="#000000" points="523.5,-1946.5 523.5,-1976.5 873.5,-1976.5 873.5,-1946.5 523.5,-1946.5"/>
<text text-anchor="start" x="530.5" y="-1957.9" font-family="Arial" font-size="14.00" fill="#000000">ingest_session_id    </text>
<text text-anchor="start" x="675.9586" y="-1957.9" font-family="Arial" font-size="14.00" fill="#666666">[ULID]</text>
<polygon fill="none" stroke="#000000" points="523.5,-1916.5 523.5,-1946.5 873.5,-1946.5 873.5,-1916.5 523.5,-1916.5"/>
<text text-anchor="start" x="530.5" y="-1927.9" font-family="Arial" font-size="14.00" fill="#000000">ingest_fs_path_id    </text>
<text text-anchor="start" x="674.4158" y="-1927.9" font-family="Arial" font-size="14.00" fill="#666666">[ULID]</text>
<polygon fill="none" stroke="#000000" points="523.5,-1886.5 523.5,-1916.5 873.5,-1916.5 873.5,-1886.5 523.5,-1886.5"/>
<text text-anchor="start" x="530.5" y="-1897.9" font-family="Arial" font-size="14.00" fill="#000000">uniform_resource_id    </text>
<text text-anchor="start" x="692.277" y="-1897.9" font-family="Arial" font-size="14.00" fill="#666666">[ULID]</text>
<polygon fill="none" stroke="#000000" points="523.5,-1856.5 523.5,-1886.5 873.5,-1886.5 873.5,-1856.5 523.5,-1856.5"/>
<text text-anchor="start" x="530.5" y="-1867.9" font-family="Arial" font-size="14.00" fill="#000000">file_path_abs    </text>
<text text-anchor="start" x="647.96" y="-1867.9" font-family="Arial" font-size="14.00" fill="#666666">[TEXT]</text>
<polygon fill="none" stroke="#000000" points="523.5,-1826.5 523.5,-1856.5 873.5,-1856.5 873.5,-1826.5 523.5,-1826.5"/>
<text text-anchor="start" x="530.5" y="-1837.9" font-family="Arial" font-size="14.00" fill="#000000">file_path_rel_parent    </text>
<text text-anchor="start" x="688.4088" y="-1837.9" font-family="Arial" font-size="14.00" fill="#666666">[TEXT]</text>
<polygon fill="none" stroke="#000000" points="523.5,-1796.5 523.5,-1826.5 873.5,-1826.5 873.5,-1796.5 523.5,-1796.5"/>
<text text-anchor="start" x="530.5" y="-1807.9" font-family="Arial" font-size="14.00" fill="#000000">file_path_rel    </text>
<text text-anchor="start" x="640.9446" y="-1807.9" font-family="Arial" font-size="14.00" fill="#666666">[TEXT]</text>
<polygon fill="none" stroke="#000000" points="523.5,-1766.5 523.5,-1796.5 873.5,-1796.5 873.5,-1766.5 523.5,-1766.5"/>
<text text-anchor="start" x="530.5" y="-1777.9" font-family="Arial" font-size="14.00" fill="#000000">file_basename    </text>
<text text-anchor="start" x="655.73" y="-1777.9" font-family="Arial" font-size="14.00" fill="#666666">[TEXT]</text>
<polygon fill="none" stroke="#000000" points="523.5,-1736.5 523.5,-1766.5 873.5,-1766.5 873.5,-1736.5 523.5,-1736.5"/>
<text text-anchor="start" x="530.5" y="-1747.9" font-family="Arial" font-size="14.00" fill="#000000">file_extn    </text>
<text text-anchor="start" x="616.8296" y="-1747.9" font-family="Arial" font-size="14.00" fill="#666666">[TEXT]</text>
<polygon fill="none" stroke="#000000" points="523.5,-1706.5 523.5,-1736.5 873.5,-1736.5 873.5,-1706.5 523.5,-1706.5"/>
<text text-anchor="start" x="530.5" y="-1717.9" font-family="Arial" font-size="14.00" fill="#000000">captured_executable    </text>
<text text-anchor="start" x="694.6444" y="-1717.9" font-family="Arial" font-size="14.00" fill="#666666">[TEXT]</text>
<polygon fill="none" stroke="#000000" points="523.5,-1676.5 523.5,-1706.5 873.5,-1706.5 873.5,-1676.5 523.5,-1676.5"/>
<text text-anchor="start" x="530.5" y="-1687.9" font-family="Arial" font-size="14.00" fill="#000000">ur_status    </text>
<text text-anchor="start" x="622.277" y="-1687.9" font-family="Arial" font-size="14.00" fill="#666666">[TEXT]</text>
<polygon fill="none" stroke="#000000" points="523.5,-1646.5 523.5,-1676.5 873.5,-1676.5 873.5,-1646.5 523.5,-1646.5"/>
<text text-anchor="start" x="530.5" y="-1657.9" font-family="Arial" font-size="14.00" fill="#000000">ur_diagnostics    </text>
<text text-anchor="start" x="654.9474" y="-1657.9" font-family="Arial" font-size="14.00" fill="#666666">[TEXT]</text>
<polygon fill="none" stroke="#000000" points="523.5,-1616.5 523.5,-1646.5 873.5,-1646.5 873.5,-1616.5 523.5,-1616.5"/>
<text text-anchor="start" x="530.5" y="-1627.9" font-family="Arial" font-size="14.00" fill="#000000">ur_transformations    </text>
<text text-anchor="start" x="681.3864" y="-1627.9" font-family="Arial" font-size="14.00" fill="#666666">[TEXT]</text>
<polygon fill="none" stroke="#000000" points="523.5,-1586.5 523.5,-1616.5 873.5,-1616.5 873.5,-1586.5 523.5,-1586.5"/>
<text text-anchor="start" x="530.5" y="-1597.9" font-family="Arial" font-size="14.00" fill="#000000">elaboration    </text>
<text text-anchor="start" x="633.9474" y="-1597.9" font-family="Arial" font-size="14.00" fill="#666666">[TEXT]</text>
<polygon fill="none" stroke="#000000" points="523.5,-1556.5 523.5,-1586.5 873.5,-1586.5 873.5,-1556.5 523.5,-1556.5"/>
<text text-anchor="start" x="530.5" y="-1567.9" font-family="Arial" font-size="14.00" fill="#000000">created_at    </text>
<text text-anchor="start" x="630.8422" y="-1567.9" font-family="Arial" font-size="14.00" fill="#666666">[TIMESTAMP]</text>
<polygon fill="none" stroke="#000000" points="523.5,-1526.5 523.5,-1556.5 873.5,-1556.5 873.5,-1526.5 523.5,-1526.5"/>
<text text-anchor="start" x="530.5" y="-1537.9" font-family="Arial" font-size="14.00" fill="#000000">created_by    </text>
<text text-anchor="start" x="633.9516" y="-1537.9" font-family="Arial" font-size="14.00" fill="#666666">[TEXT]</text>
<polygon fill="none" stroke="#000000" points="523.5,-1496.5 523.5,-1526.5 873.5,-1526.5 873.5,-1496.5 523.5,-1496.5"/>
<text text-anchor="start" x="530.5" y="-1507.9" font-family="Arial" font-size="14.00" fill="#000000">updated_at    </text>
<text text-anchor="start" x="634.7468" y="-1507.9" font-family="Arial" font-size="14.00" fill="#666666">[TIMESTAMP]</text>
<polygon fill="none" stroke="#000000" points="523.5,-1466.5 523.5,-1496.5 873.5,-1496.5 873.5,-1466.5 523.5,-1466.5"/>
<text text-anchor="start" x="530.5" y="-1477.9" font-family="Arial" font-size="14.00" fill="#000000">updated_by    </text>
<text text-anchor="start" x="637.8562" y="-1477.9" font-family="Arial" font-size="14.00" fill="#666666">[TEXT]</text>
<polygon fill="none" stroke="#000000" points="523.5,-1436.5 523.5,-1466.5 873.5,-1466.5 873.5,-1436.5 523.5,-1436.5"/>
<text text-anchor="start" x="530.5" y="-1447.9" font-family="Arial" font-size="14.00" fill="#000000">deleted_at    </text>
<text text-anchor="start" x="630.0708" y="-1447.9" font-family="Arial" font-size="14.00" fill="#666666">[TIMESTAMP]</text>
<polygon fill="none" stroke="#000000" points="523.5,-1406.5 523.5,-1436.5 873.5,-1436.5 873.5,-1406.5 523.5,-1406.5"/>
<text text-anchor="start" x="530.5" y="-1417.9" font-family="Arial" font-size="14.00" fill="#000000">deleted_by    </text>
<text text-anchor="start" x="633.1802" y="-1417.9" font-family="Arial" font-size="14.00" fill="#666666">[TEXT]</text>
<polygon fill="none" stroke="#000000" points="523.5,-1376.5 523.5,-1406.5 873.5,-1406.5 873.5,-1376.5 523.5,-1376.5"/>
<text text-anchor="start" x="530.5" y="-1387.9" font-family="Arial" font-size="14.00" fill="#000000">activity_log    </text>
<text text-anchor="start" x="633.9362" y="-1387.9" font-family="Arial" font-size="14.00" fill="#666666">[TEXT]</text>
</g>
<!-- ur_ingest_session_fs_path_entry&#45;&gt;uniform_resource -->
<g id="edge2" class="edge">
<title>ur_ingest_session_fs_path_entry:uniform_resource_id&#45;&gt;uniform_resource:uniform_resource_id</title>
<path fill="none" stroke="#000000" d="M514.2856,-1897.3551C463.5928,-1848.5744 491.9584,-1384.7232 523.5,-1334 542.6029,-1303.2799 577.3971,-1328.7201 596.5,-1298 618.4441,-1262.7109 638.0556,-1204.5 596.5,-1204.5"/>
<polygon fill="#000000" stroke="#000000" points="514.3802,-1897.3976 521.6539,-1905.6039 518.9401,-1899.4488 523.5,-1901.5 523.5,-1901.5 523.5,-1901.5 518.9401,-1899.4488 525.3461,-1897.3961 514.3802,-1897.3976 514.3802,-1897.3976"/>
</g>
</g>
</svg>
