<?xml version="1.0" encoding="UTF-8" standalone="no"?>
<!DOCTYPE svg PUBLIC "-//W3C//DTD SVG 1.1//EN"
 "http://www.w3.org/Graphics/SVG/1.1/DTD/svg11.dtd">
<!-- Generated by graphviz version 2.40.1 (20161225.0304)
 -->
<!-- Title: ur_walk_session Pages: 1 -->
<svg width="636pt" height="3133pt"
 viewBox="0.00 0.00 635.70 3133.00" xmlns="http://www.w3.org/2000/svg" xmlns:xlink="http://www.w3.org/1999/xlink">
<g id="graph0" class="graph" transform="scale(1 1) rotate(0) translate(4 3129)">
<title>ur_walk_session</title>
<polygon fill="#ffffff" stroke="transparent" points="-4,4 -4,-3129 631.7044,-3129 631.7044,4 -4,4"/>
<!-- ur_walk_session -->
<g id="node1" class="node">
<title>ur_walk_session</title>
<polygon fill="#efefef" stroke="transparent" points="159.2674,-1072.5 159.2674,-1107.5 378.2674,-1107.5 378.2674,-1072.5 159.2674,-1072.5"/>
<polygon fill="none" stroke="#000000" points="159.2674,-1072.5 159.2674,-1107.5 378.2674,-1107.5 378.2674,-1072.5 159.2674,-1072.5"/>
<text text-anchor="start" x="166.0928" y="-1085.3" font-family="Arial Bold" font-size="18.00" fill="#000000">ur_walk_session</text>
<text text-anchor="start" x="299.111" y="-1085.3" font-family="Arial" font-size="14.00" fill="#000000">    </text>
<text text-anchor="start" x="333.3158" y="-1085.3" font-family="Arial" font-size="14.00" fill="#666666">[table]</text>
<polygon fill="none" stroke="#000000" points="159.2674,-1042.5 159.2674,-1072.5 378.2674,-1072.5 378.2674,-1042.5 159.2674,-1042.5"/>
<text text-anchor="start" x="166.2674" y="-1053.9" font-family="Arial" font-size="14.00" fill="#000000">ur_walk_session_id </text>
<text text-anchor="start" x="292.2884" y="-1053.9" font-family="Arial" font-size="14.00" fill="#666666">[ULID]</text>
<polygon fill="none" stroke="#000000" points="159.2674,-1012.5 159.2674,-1042.5 378.2674,-1042.5 378.2674,-1012.5 159.2674,-1012.5"/>
<text text-anchor="start" x="166.2674" y="-1023.9" font-family="Arial" font-size="14.00" fill="#000000">device_id </text>
<text text-anchor="start" x="229.2842" y="-1023.9" font-family="Arial" font-size="14.00" fill="#666666">[ULID]</text>
<polygon fill="none" stroke="#000000" points="159.2674,-982.5 159.2674,-1012.5 378.2674,-1012.5 378.2674,-982.5 159.2674,-982.5"/>
<text text-anchor="start" x="166.2674" y="-993.9" font-family="Arial" font-size="14.00" fill="#000000">walk_started_at </text>
<text text-anchor="start" x="268.1818" y="-993.9" font-family="Arial" font-size="14.00" fill="#666666">[TIMESTAMP]</text>
<polygon fill="none" stroke="#000000" points="159.2674,-952.5 159.2674,-982.5 378.2674,-982.5 378.2674,-952.5 159.2674,-952.5"/>
<text text-anchor="start" x="166.2674" y="-963.9" font-family="Arial" font-size="14.00" fill="#000000">walk_finished_at </text>
<text text-anchor="start" x="273.6264" y="-963.9" font-family="Arial" font-size="14.00" fill="#666666">[TIMESTAMP]</text>
<polygon fill="none" stroke="#000000" points="159.2674,-922.5 159.2674,-952.5 378.2674,-952.5 378.2674,-922.5 159.2674,-922.5"/>
<text text-anchor="start" x="166.2674" y="-933.9" font-family="Arial" font-size="14.00" fill="#000000">ignore_paths_regex </text>
<text text-anchor="start" x="293.8676" y="-933.9" font-family="Arial" font-size="14.00" fill="#666666">[TEXT]</text>
<polygon fill="none" stroke="#000000" points="159.2674,-892.5 159.2674,-922.5 378.2674,-922.5 378.2674,-892.5 159.2674,-892.5"/>
<text text-anchor="start" x="166.2674" y="-903.9" font-family="Arial" font-size="14.00" fill="#000000">blobs_regex </text>
<text text-anchor="start" x="246.4034" y="-903.9" font-family="Arial" font-size="14.00" fill="#666666">[TEXT]</text>
<polygon fill="none" stroke="#000000" points="159.2674,-862.5 159.2674,-892.5 378.2674,-892.5 378.2674,-862.5 159.2674,-862.5"/>
<text text-anchor="start" x="166.2674" y="-873.9" font-family="Arial" font-size="14.00" fill="#000000">digests_regex </text>
<text text-anchor="start" x="257.294" y="-873.9" font-family="Arial" font-size="14.00" fill="#666666">[TEXT]</text>
<polygon fill="none" stroke="#000000" points="159.2674,-832.5 159.2674,-862.5 378.2674,-862.5 378.2674,-832.5 159.2674,-832.5"/>
<text text-anchor="start" x="166.2674" y="-843.9" font-family="Arial" font-size="14.00" fill="#000000">elaboration </text>
<text text-anchor="start" x="239.4006" y="-843.9" font-family="Arial" font-size="14.00" fill="#666666">[TEXT]</text>
<polygon fill="none" stroke="#000000" points="159.2674,-802.5 159.2674,-832.5 378.2674,-832.5 378.2674,-802.5 159.2674,-802.5"/>
<text text-anchor="start" x="166.2674" y="-813.9" font-family="Arial" font-size="14.00" fill="#000000">created_at </text>
<text text-anchor="start" x="236.2954" y="-813.9" font-family="Arial" font-size="14.00" fill="#666666">[TIMESTAMP]</text>
<polygon fill="none" stroke="#000000" points="159.2674,-772.5 159.2674,-802.5 378.2674,-802.5 378.2674,-772.5 159.2674,-772.5"/>
<text text-anchor="start" x="166.2674" y="-783.9" font-family="Arial" font-size="14.00" fill="#000000">created_by </text>
<text text-anchor="start" x="239.4048" y="-783.9" font-family="Arial" font-size="14.00" fill="#666666">[TEXT]</text>
<polygon fill="none" stroke="#000000" points="159.2674,-742.5 159.2674,-772.5 378.2674,-772.5 378.2674,-742.5 159.2674,-742.5"/>
<text text-anchor="start" x="166.2674" y="-753.9" font-family="Arial" font-size="14.00" fill="#000000">updated_at </text>
<text text-anchor="start" x="240.2" y="-753.9" font-family="Arial" font-size="14.00" fill="#666666">[TIMESTAMP]</text>
<polygon fill="none" stroke="#000000" points="159.2674,-712.5 159.2674,-742.5 378.2674,-742.5 378.2674,-712.5 159.2674,-712.5"/>
<text text-anchor="start" x="166.2674" y="-723.9" font-family="Arial" font-size="14.00" fill="#000000">updated_by </text>
<text text-anchor="start" x="243.3094" y="-723.9" font-family="Arial" font-size="14.00" fill="#666666">[TEXT]</text>
<polygon fill="none" stroke="#000000" points="159.2674,-682.5 159.2674,-712.5 378.2674,-712.5 378.2674,-682.5 159.2674,-682.5"/>
<text text-anchor="start" x="166.2674" y="-693.9" font-family="Arial" font-size="14.00" fill="#000000">deleted_at </text>
<text text-anchor="start" x="235.524" y="-693.9" font-family="Arial" font-size="14.00" fill="#666666">[TIMESTAMP]</text>
<polygon fill="none" stroke="#000000" points="159.2674,-652.5 159.2674,-682.5 378.2674,-682.5 378.2674,-652.5 159.2674,-652.5"/>
<text text-anchor="start" x="166.2674" y="-663.9" font-family="Arial" font-size="14.00" fill="#000000">deleted_by </text>
<text text-anchor="start" x="238.6334" y="-663.9" font-family="Arial" font-size="14.00" fill="#666666">[TEXT]</text>
<polygon fill="none" stroke="#000000" points="159.2674,-622.5 159.2674,-652.5 378.2674,-652.5 378.2674,-622.5 159.2674,-622.5"/>
<text text-anchor="start" x="166.2674" y="-633.9" font-family="Arial" font-size="14.00" fill="#000000">activity_log </text>
<text text-anchor="start" x="239.3894" y="-633.9" font-family="Arial" font-size="14.00" fill="#666666">[TEXT]</text>
<polygon fill="none" stroke="#000000" stroke-width="3" points="157.2674,-621.5 157.2674,-1109.5 379.2674,-1109.5 379.2674,-621.5 157.2674,-621.5"/>
</g>
<!-- device -->
<g id="node5" class="node">
<title>device</title>
<polygon fill="#efefef" stroke="transparent" points="256.2674,-462.5 256.2674,-497.5 463.2674,-497.5 463.2674,-462.5 256.2674,-462.5"/>
<polygon fill="none" stroke="#000000" points="256.2674,-462.5 256.2674,-497.5 463.2674,-497.5 463.2674,-462.5 256.2674,-462.5"/>
<text text-anchor="start" x="297.5955" y="-475.3" font-family="Arial Bold" font-size="18.00" fill="#000000">device</text>
<text text-anchor="start" x="349.6083" y="-475.3" font-family="Arial" font-size="14.00" fill="#000000">    </text>
<text text-anchor="start" x="383.8131" y="-475.3" font-family="Arial" font-size="14.00" fill="#666666">[table]</text>
<polygon fill="none" stroke="#000000" points="256.2674,-432.5 256.2674,-462.5 463.2674,-462.5 463.2674,-432.5 256.2674,-432.5"/>
<text text-anchor="start" x="263.2674" y="-443.9" font-family="Arial" font-size="14.00" fill="#000000">device_id    </text>
<text text-anchor="start" x="356.5984" y="-443.9" font-family="Arial" font-size="14.00" fill="#666666">[ULID]</text>
<polygon fill="none" stroke="#000000" points="256.2674,-402.5 256.2674,-432.5 463.2674,-432.5 463.2674,-402.5 256.2674,-402.5"/>
<text text-anchor="start" x="263.2674" y="-413.9" font-family="Arial" font-size="14.00" fill="#000000">name    </text>
<text text-anchor="start" x="332.4806" y="-413.9" font-family="Arial" font-size="14.00" fill="#666666">[TEXT]</text>
<polygon fill="none" stroke="#000000" points="256.2674,-372.5 256.2674,-402.5 463.2674,-402.5 463.2674,-372.5 256.2674,-372.5"/>
<text text-anchor="start" x="263.2674" y="-383.9" font-family="Arial" font-size="14.00" fill="#000000">state    </text>
<text text-anchor="start" x="327.8186" y="-383.9" font-family="Arial" font-size="14.00" fill="#666666">[TEXT]</text>
<polygon fill="none" stroke="#000000" points="256.2674,-342.5 256.2674,-372.5 463.2674,-372.5 463.2674,-342.5 256.2674,-342.5"/>
<text text-anchor="start" x="263.2674" y="-353.9" font-family="Arial" font-size="14.00" fill="#000000">boundary    </text>
<text text-anchor="start" x="355.8284" y="-353.9" font-family="Arial" font-size="14.00" fill="#666666">[TEXT]</text>
<polygon fill="none" stroke="#000000" points="256.2674,-312.5 256.2674,-342.5 463.2674,-342.5 463.2674,-312.5 256.2674,-312.5"/>
<text text-anchor="start" x="263.2674" y="-323.9" font-family="Arial" font-size="14.00" fill="#000000">segmentation    </text>
<text text-anchor="start" x="381.4988" y="-323.9" font-family="Arial" font-size="14.00" fill="#666666">[TEXT]</text>
<polygon fill="none" stroke="#000000" points="256.2674,-282.5 256.2674,-312.5 463.2674,-312.5 463.2674,-282.5 256.2674,-282.5"/>
<text text-anchor="start" x="263.2674" y="-293.9" font-family="Arial" font-size="14.00" fill="#000000">state_sysinfo    </text>
<text text-anchor="start" x="379.1636" y="-293.9" font-family="Arial" font-size="14.00" fill="#666666">[TEXT]</text>
<polygon fill="none" stroke="#000000" points="256.2674,-252.5 256.2674,-282.5 463.2674,-282.5 463.2674,-252.5 256.2674,-252.5"/>
<text text-anchor="start" x="263.2674" y="-263.9" font-family="Arial" font-size="14.00" fill="#000000">elaboration    </text>
<text text-anchor="start" x="366.7148" y="-263.9" font-family="Arial" font-size="14.00" fill="#666666">[TEXT]</text>
<polygon fill="none" stroke="#000000" points="256.2674,-222.5 256.2674,-252.5 463.2674,-252.5 463.2674,-222.5 256.2674,-222.5"/>
<text text-anchor="start" x="263.2674" y="-233.9" font-family="Arial" font-size="14.00" fill="#000000">created_at    </text>
<text text-anchor="start" x="363.6096" y="-233.9" font-family="Arial" font-size="14.00" fill="#666666">[TIMESTAMP]</text>
<polygon fill="none" stroke="#000000" points="256.2674,-192.5 256.2674,-222.5 463.2674,-222.5 463.2674,-192.5 256.2674,-192.5"/>
<text text-anchor="start" x="263.2674" y="-203.9" font-family="Arial" font-size="14.00" fill="#000000">created_by    </text>
<text text-anchor="start" x="366.719" y="-203.9" font-family="Arial" font-size="14.00" fill="#666666">[TEXT]</text>
<polygon fill="none" stroke="#000000" points="256.2674,-162.5 256.2674,-192.5 463.2674,-192.5 463.2674,-162.5 256.2674,-162.5"/>
<text text-anchor="start" x="262.9217" y="-173.9" font-family="Arial" font-size="14.00" fill="#000000">updated_at    </text>
<text text-anchor="start" x="367.1685" y="-173.9" font-family="Arial" font-size="14.00" fill="#666666">[TIMESTAMP]</text>
<polygon fill="none" stroke="#000000" points="256.2674,-132.5 256.2674,-162.5 463.2674,-162.5 463.2674,-132.5 256.2674,-132.5"/>
<text text-anchor="start" x="263.2674" y="-143.9" font-family="Arial" font-size="14.00" fill="#000000">updated_by    </text>
<text text-anchor="start" x="370.6236" y="-143.9" font-family="Arial" font-size="14.00" fill="#666666">[TEXT]</text>
<polygon fill="none" stroke="#000000" points="256.2674,-102.5 256.2674,-132.5 463.2674,-132.5 463.2674,-102.5 256.2674,-102.5"/>
<text text-anchor="start" x="263.2674" y="-113.9" font-family="Arial" font-size="14.00" fill="#000000">deleted_at    </text>
<text text-anchor="start" x="362.8382" y="-113.9" font-family="Arial" font-size="14.00" fill="#666666">[TIMESTAMP]</text>
<polygon fill="none" stroke="#000000" points="256.2674,-72.5 256.2674,-102.5 463.2674,-102.5 463.2674,-72.5 256.2674,-72.5"/>
<text text-anchor="start" x="263.2674" y="-83.9" font-family="Arial" font-size="14.00" fill="#000000">deleted_by    </text>
<text text-anchor="start" x="365.9476" y="-83.9" font-family="Arial" font-size="14.00" fill="#666666">[TEXT]</text>
<polygon fill="none" stroke="#000000" points="256.2674,-42.5 256.2674,-72.5 463.2674,-72.5 463.2674,-42.5 256.2674,-42.5"/>
<text text-anchor="start" x="263.2674" y="-53.9" font-family="Arial" font-size="14.00" fill="#000000">activity_log    </text>
<text text-anchor="start" x="366.7036" y="-53.9" font-family="Arial" font-size="14.00" fill="#666666">[TEXT]</text>
</g>
<!-- ur_walk_session&#45;&gt;device -->
<g id="edge8" class="edge">
<title>ur_walk_session:device_id&#45;&gt;device:device_id</title>
<path fill="none" stroke="#000000" d="M388.3111,-1026.1556C475.5296,-1001.8207 436.1008,-654.3643 378.2674,-577 344.4184,-531.7198 290.1165,-586.2802 256.2674,-541 231.3864,-507.7164 214.7119,-447.5 256.2674,-447.5"/>
<polygon fill="#000000" stroke="#000000" points="388.179,-1026.1732 377.6704,-1023.0398 383.2232,-1026.8366 378.2674,-1027.5 378.2674,-1027.5 378.2674,-1027.5 383.2232,-1026.8366 378.8645,-1031.9602 388.179,-1026.1732 388.179,-1026.1732"/>
</g>
<!-- ur_walk_session_path -->
<g id="node2" class="node">
<title>ur_walk_session_path</title>
<polygon fill="#efefef" stroke="transparent" points="108.2674,-1562.5 108.2674,-1597.5 372.2674,-1597.5 372.2674,-1562.5 108.2674,-1562.5"/>
<polygon fill="none" stroke="#000000" points="108.2674,-1562.5 108.2674,-1597.5 372.2674,-1597.5 372.2674,-1562.5 108.2674,-1562.5"/>
<text text-anchor="start" x="115.0793" y="-1575.3" font-family="Arial Bold" font-size="18.00" fill="#000000">ur_walk_session_path</text>
<text text-anchor="start" x="293.1245" y="-1575.3" font-family="Arial" font-size="14.00" fill="#000000">    </text>
<text text-anchor="start" x="327.3293" y="-1575.3" font-family="Arial" font-size="14.00" fill="#666666">[table]</text>
<polygon fill="none" stroke="#000000" points="108.2674,-1532.5 108.2674,-1562.5 372.2674,-1562.5 372.2674,-1532.5 108.2674,-1532.5"/>
<text text-anchor="start" x="115.2674" y="-1543.9" font-family="Arial" font-size="14.00" fill="#000000">ur_walk_session_path_id    </text>
<text text-anchor="start" x="306.6236" y="-1543.9" font-family="Arial" font-size="14.00" fill="#666666">[ULID]</text>
<polygon fill="none" stroke="#000000" points="108.2674,-1502.5 108.2674,-1532.5 372.2674,-1532.5 372.2674,-1502.5 108.2674,-1502.5"/>
<text text-anchor="start" x="115.2674" y="-1513.9" font-family="Arial" font-size="14.00" fill="#000000">walk_session_id    </text>
<text text-anchor="start" x="251.3768" y="-1513.9" font-family="Arial" font-size="14.00" fill="#666666">[ULID]</text>
<polygon fill="none" stroke="#000000" points="108.2674,-1472.5 108.2674,-1502.5 372.2674,-1502.5 372.2674,-1472.5 108.2674,-1472.5"/>
<text text-anchor="start" x="115.2674" y="-1483.9" font-family="Arial" font-size="14.00" fill="#000000">root_path    </text>
<text text-anchor="start" x="208.6096" y="-1483.9" font-family="Arial" font-size="14.00" fill="#666666">[TEXT]</text>
<polygon fill="none" stroke="#000000" points="108.2674,-1442.5 108.2674,-1472.5 372.2674,-1472.5 372.2674,-1442.5 108.2674,-1442.5"/>
<text text-anchor="start" x="115.2674" y="-1453.9" font-family="Arial" font-size="14.00" fill="#000000">elaboration    </text>
<text text-anchor="start" x="218.7148" y="-1453.9" font-family="Arial" font-size="14.00" fill="#666666">[TEXT]</text>
<polygon fill="none" stroke="#000000" points="108.2674,-1412.5 108.2674,-1442.5 372.2674,-1442.5 372.2674,-1412.5 108.2674,-1412.5"/>
<text text-anchor="start" x="115.2674" y="-1423.9" font-family="Arial" font-size="14.00" fill="#000000">created_at    </text>
<text text-anchor="start" x="215.6096" y="-1423.9" font-family="Arial" font-size="14.00" fill="#666666">[TIMESTAMP]</text>
<polygon fill="none" stroke="#000000" points="108.2674,-1382.5 108.2674,-1412.5 372.2674,-1412.5 372.2674,-1382.5 108.2674,-1382.5"/>
<text text-anchor="start" x="115.2674" y="-1393.9" font-family="Arial" font-size="14.00" fill="#000000">created_by    </text>
<text text-anchor="start" x="218.719" y="-1393.9" font-family="Arial" font-size="14.00" fill="#666666">[TEXT]</text>
<polygon fill="none" stroke="#000000" points="108.2674,-1352.5 108.2674,-1382.5 372.2674,-1382.5 372.2674,-1352.5 108.2674,-1352.5"/>
<text text-anchor="start" x="115.2674" y="-1363.9" font-family="Arial" font-size="14.00" fill="#000000">updated_at    </text>
<text text-anchor="start" x="219.5142" y="-1363.9" font-family="Arial" font-size="14.00" fill="#666666">[TIMESTAMP]</text>
<polygon fill="none" stroke="#000000" points="108.2674,-1322.5 108.2674,-1352.5 372.2674,-1352.5 372.2674,-1322.5 108.2674,-1322.5"/>
<text text-anchor="start" x="115.2674" y="-1333.9" font-family="Arial" font-size="14.00" fill="#000000">updated_by    </text>
<text text-anchor="start" x="222.6236" y="-1333.9" font-family="Arial" font-size="14.00" fill="#666666">[TEXT]</text>
<polygon fill="none" stroke="#000000" points="108.2674,-1292.5 108.2674,-1322.5 372.2674,-1322.5 372.2674,-1292.5 108.2674,-1292.5"/>
<text text-anchor="start" x="115.2674" y="-1303.9" font-family="Arial" font-size="14.00" fill="#000000">deleted_at    </text>
<text text-anchor="start" x="214.8382" y="-1303.9" font-family="Arial" font-size="14.00" fill="#666666">[TIMESTAMP]</text>
<polygon fill="none" stroke="#000000" points="108.2674,-1262.5 108.2674,-1292.5 372.2674,-1292.5 372.2674,-1262.5 108.2674,-1262.5"/>
<text text-anchor="start" x="115.2674" y="-1273.9" font-family="Arial" font-size="14.00" fill="#000000">deleted_by    </text>
<text text-anchor="start" x="217.9476" y="-1273.9" font-family="Arial" font-size="14.00" fill="#666666">[TEXT]</text>
<polygon fill="none" stroke="#000000" points="108.2674,-1232.5 108.2674,-1262.5 372.2674,-1262.5 372.2674,-1232.5 108.2674,-1232.5"/>
<text text-anchor="start" x="115.2674" y="-1243.9" font-family="Arial" font-size="14.00" fill="#000000">activity_log    </text>
<text text-anchor="start" x="218.7036" y="-1243.9" font-family="Arial" font-size="14.00" fill="#666666">[TEXT]</text>
</g>
<!-- ur_walk_session_path&#45;&gt;ur_walk_session -->
<g id="edge1" class="edge">
<title>ur_walk_session_path:walk_session_id&#45;&gt;ur_walk_session:ur_walk_session_id</title>
<path fill="none" stroke="#000000" d="M382.2322,-1515.6119C442.4752,-1491.4615 416.9519,-1242.8705 372.2674,-1190 310.2931,-1116.6722 221.2417,-1227.3278 159.2674,-1154 131.5825,-1121.2433 116.3785,-1057.5 159.2674,-1057.5"/>
<polygon fill="#000000" stroke="#000000" points="382.0926,-1515.6383 371.4297,-1513.0787 377.18,-1516.5692 372.2674,-1517.5 372.2674,-1517.5 372.2674,-1517.5 377.18,-1516.5692 373.1052,-1521.9213 382.0926,-1515.6383 382.0926,-1515.6383"/>
</g>
<!-- uniform_resource -->
<g id="node3" class="node">
<title>uniform_resource</title>
<polygon fill="#efefef" stroke="transparent" points="318.2674,-2319.5 318.2674,-2354.5 552.2674,-2354.5 552.2674,-2319.5 318.2674,-2319.5"/>
<polygon fill="none" stroke="#000000" points="318.2674,-2319.5 318.2674,-2354.5 552.2674,-2354.5 552.2674,-2319.5 318.2674,-2319.5"/>
<text text-anchor="start" x="329.0945" y="-2332.3" font-family="Arial Bold" font-size="18.00" fill="#000000">uniform_resource</text>
<text text-anchor="start" x="469.1093" y="-2332.3" font-family="Arial" font-size="14.00" fill="#000000">    </text>
<text text-anchor="start" x="503.3141" y="-2332.3" font-family="Arial" font-size="14.00" fill="#666666">[table]</text>
<polygon fill="none" stroke="#000000" points="318.2674,-2289.5 318.2674,-2319.5 552.2674,-2319.5 552.2674,-2289.5 318.2674,-2289.5"/>
<text text-anchor="start" x="325.2674" y="-2300.9" font-family="Arial" font-size="14.00" fill="#000000">uniform_resource_id    </text>
<text text-anchor="start" x="487.0444" y="-2300.9" font-family="Arial" font-size="14.00" fill="#666666">[ULID]</text>
<polygon fill="none" stroke="#000000" points="318.2674,-2259.5 318.2674,-2289.5 552.2674,-2289.5 552.2674,-2259.5 318.2674,-2259.5"/>
<text text-anchor="start" x="325.2674" y="-2270.9" font-family="Arial" font-size="14.00" fill="#000000">device_id    </text>
<text text-anchor="start" x="418.5984" y="-2270.9" font-family="Arial" font-size="14.00" fill="#666666">[ULID]</text>
<polygon fill="none" stroke="#000000" points="318.2674,-2229.5 318.2674,-2259.5 552.2674,-2259.5 552.2674,-2229.5 318.2674,-2229.5"/>
<text text-anchor="start" x="325.2674" y="-2240.9" font-family="Arial" font-size="14.00" fill="#000000">walk_session_id    </text>
<text text-anchor="start" x="461.3768" y="-2240.9" font-family="Arial" font-size="14.00" fill="#666666">[ULID]</text>
<polygon fill="none" stroke="#000000" points="318.2674,-2199.5 318.2674,-2229.5 552.2674,-2229.5 552.2674,-2199.5 318.2674,-2199.5"/>
<text text-anchor="start" x="325.2674" y="-2210.9" font-family="Arial" font-size="14.00" fill="#000000">walk_path_id    </text>
<text text-anchor="start" x="441.1608" y="-2210.9" font-family="Arial" font-size="14.00" fill="#666666">[ULID]</text>
<polygon fill="none" stroke="#000000" points="318.2674,-2169.5 318.2674,-2199.5 552.2674,-2199.5 552.2674,-2169.5 318.2674,-2169.5"/>
<text text-anchor="start" x="325.2674" y="-2180.9" font-family="Arial" font-size="14.00" fill="#000000">uri    </text>
<text text-anchor="start" x="375.022" y="-2180.9" font-family="Arial" font-size="14.00" fill="#666666">[TEXT]</text>
<polygon fill="none" stroke="#000000" points="318.2674,-2139.5 318.2674,-2169.5 552.2674,-2169.5 552.2674,-2139.5 318.2674,-2139.5"/>
<text text-anchor="start" x="325.2674" y="-2150.9" font-family="Arial" font-size="14.00" fill="#000000">content_digest    </text>
<text text-anchor="start" x="450.5114" y="-2150.9" font-family="Arial" font-size="14.00" fill="#666666">[TEXT]</text>
<polygon fill="none" stroke="#000000" points="318.2674,-2109.5 318.2674,-2139.5 552.2674,-2139.5 552.2674,-2109.5 318.2674,-2109.5"/>
<text text-anchor="start" x="325.2674" y="-2120.9" font-family="Arial" font-size="14.00" fill="#000000">content    </text>
<text text-anchor="start" x="405.3838" y="-2120.9" font-family="Arial" font-size="14.00" fill="#666666">[BLOB]</text>
<polygon fill="none" stroke="#000000" points="318.2674,-2079.5 318.2674,-2109.5 552.2674,-2109.5 552.2674,-2079.5 318.2674,-2079.5"/>
<text text-anchor="start" x="325.2674" y="-2090.9" font-family="Arial" font-size="14.00" fill="#000000">nature    </text>
<text text-anchor="start" x="399.1538" y="-2090.9" font-family="Arial" font-size="14.00" fill="#666666">[TEXT]</text>
<polygon fill="none" stroke="#000000" points="318.2674,-2049.5 318.2674,-2079.5 552.2674,-2079.5 552.2674,-2049.5 318.2674,-2049.5"/>
<text text-anchor="start" x="325.2674" y="-2060.9" font-family="Arial" font-size="14.00" fill="#000000">size_bytes    </text>
<text text-anchor="start" x="425.5998" y="-2060.9" font-family="Arial" font-size="14.00" fill="#666666">[INTEGER]</text>
<polygon fill="none" stroke="#000000" points="318.2674,-2019.5 318.2674,-2049.5 552.2674,-2049.5 552.2674,-2019.5 318.2674,-2019.5"/>
<text text-anchor="start" x="325.2674" y="-2030.9" font-family="Arial" font-size="14.00" fill="#000000">last_modified_at    </text>
<text text-anchor="start" x="461.3852" y="-2030.9" font-family="Arial" font-size="14.00" fill="#666666">[INTEGER]</text>
<polygon fill="none" stroke="#000000" points="318.2674,-1989.5 318.2674,-2019.5 552.2674,-2019.5 552.2674,-1989.5 318.2674,-1989.5"/>
<text text-anchor="start" x="325.1938" y="-2000.9" font-family="Arial" font-size="14.00" fill="#000000">content_fm_body_attrs    </text>
<text text-anchor="start" x="501.7814" y="-2000.9" font-family="Arial" font-size="14.00" fill="#666666">[TEXT]</text>
<polygon fill="none" stroke="#000000" points="318.2674,-1959.5 318.2674,-1989.5 552.2674,-1989.5 552.2674,-1959.5 318.2674,-1959.5"/>
<text text-anchor="start" x="325.2674" y="-1970.9" font-family="Arial" font-size="14.00" fill="#000000">frontmatter    </text>
<text text-anchor="start" x="427.1468" y="-1970.9" font-family="Arial" font-size="14.00" fill="#666666">[TEXT]</text>
<polygon fill="none" stroke="#000000" points="318.2674,-1929.5 318.2674,-1959.5 552.2674,-1959.5 552.2674,-1929.5 318.2674,-1929.5"/>
<text text-anchor="start" x="325.2674" y="-1940.9" font-family="Arial" font-size="14.00" fill="#000000">elaboration    </text>
<text text-anchor="start" x="428.7148" y="-1940.9" font-family="Arial" font-size="14.00" fill="#666666">[TEXT]</text>
<polygon fill="none" stroke="#000000" points="318.2674,-1899.5 318.2674,-1929.5 552.2674,-1929.5 552.2674,-1899.5 318.2674,-1899.5"/>
<text text-anchor="start" x="325.2674" y="-1910.9" font-family="Arial" font-size="14.00" fill="#000000">created_at    </text>
<text text-anchor="start" x="425.6096" y="-1910.9" font-family="Arial" font-size="14.00" fill="#666666">[TIMESTAMP]</text>
<polygon fill="none" stroke="#000000" points="318.2674,-1869.5 318.2674,-1899.5 552.2674,-1899.5 552.2674,-1869.5 318.2674,-1869.5"/>
<text text-anchor="start" x="325.2674" y="-1880.9" font-family="Arial" font-size="14.00" fill="#000000">created_by    </text>
<text text-anchor="start" x="428.719" y="-1880.9" font-family="Arial" font-size="14.00" fill="#666666">[TEXT]</text>
<polygon fill="none" stroke="#000000" points="318.2674,-1839.5 318.2674,-1869.5 552.2674,-1869.5 552.2674,-1839.5 318.2674,-1839.5"/>
<text text-anchor="start" x="325.2674" y="-1850.9" font-family="Arial" font-size="14.00" fill="#000000">updated_at    </text>
<text text-anchor="start" x="429.5142" y="-1850.9" font-family="Arial" font-size="14.00" fill="#666666">[TIMESTAMP]</text>
<polygon fill="none" stroke="#000000" points="318.2674,-1809.5 318.2674,-1839.5 552.2674,-1839.5 552.2674,-1809.5 318.2674,-1809.5"/>
<text text-anchor="start" x="325.2674" y="-1820.9" font-family="Arial" font-size="14.00" fill="#000000">updated_by    </text>
<text text-anchor="start" x="432.6236" y="-1820.9" font-family="Arial" font-size="14.00" fill="#666666">[TEXT]</text>
<polygon fill="none" stroke="#000000" points="318.2674,-1779.5 318.2674,-1809.5 552.2674,-1809.5 552.2674,-1779.5 318.2674,-1779.5"/>
<text text-anchor="start" x="325.2674" y="-1790.9" font-family="Arial" font-size="14.00" fill="#000000">deleted_at    </text>
<text text-anchor="start" x="424.8382" y="-1790.9" font-family="Arial" font-size="14.00" fill="#666666">[TIMESTAMP]</text>
<polygon fill="none" stroke="#000000" points="318.2674,-1749.5 318.2674,-1779.5 552.2674,-1779.5 552.2674,-1749.5 318.2674,-1749.5"/>
<text text-anchor="start" x="325.2674" y="-1760.9" font-family="Arial" font-size="14.00" fill="#000000">deleted_by    </text>
<text text-anchor="start" x="427.9476" y="-1760.9" font-family="Arial" font-size="14.00" fill="#666666">[TEXT]</text>
<polygon fill="none" stroke="#000000" points="318.2674,-1719.5 318.2674,-1749.5 552.2674,-1749.5 552.2674,-1719.5 318.2674,-1719.5"/>
<text text-anchor="start" x="325.2674" y="-1730.9" font-family="Arial" font-size="14.00" fill="#000000">activity_log    </text>
<text text-anchor="start" x="428.7036" y="-1730.9" font-family="Arial" font-size="14.00" fill="#666666">[TEXT]</text>
</g>
<!-- uniform_resource&#45;&gt;ur_walk_session -->
<g id="edge4" class="edge">
<title>uniform_resource:walk_session_id&#45;&gt;ur_walk_session:ur_walk_session_id</title>
<path fill="none" stroke="#000000" d="M562.5465,-2243.4061C675.1698,-2218.5978 619.9425,-1779.1569 552.2674,-1677 529.6098,-1642.7978 491.5245,-1674.0871 467.2674,-1641 389.7147,-1535.2164 509.4338,-1057.5 378.2674,-1057.5"/>
<polygon fill="#000000" stroke="#000000" points="562.2113,-2243.4417 551.7912,-2240.0253 557.2394,-2243.9708 552.2674,-2244.5 552.2674,-2244.5 552.2674,-2244.5 557.2394,-2243.9708 552.7437,-2248.9747 562.2113,-2243.4417 562.2113,-2243.4417"/>
</g>
<!-- uniform_resource&#45;&gt;ur_walk_session_path -->
<g id="edge2" class="edge">
<title>uniform_resource:walk_path_id&#45;&gt;ur_walk_session_path:ur_walk_session_path_id</title>
<path fill="none" stroke="#000000" d="M308.9805,-2210.0003C262.1075,-2160.9627 291.6832,-1726.6731 318.2674,-1677 331.8779,-1651.5686 358.657,-1666.4314 372.2674,-1641 391.8758,-1604.3615 413.823,-1547.5 372.2674,-1547.5"/>
<polygon fill="#000000" stroke="#000000" points="309.2681,-2210.1396 316.3052,-2218.5497 313.7678,-2212.3198 318.2674,-2214.5 318.2674,-2214.5 318.2674,-2214.5 313.7678,-2212.3198 320.2296,-2210.4503 309.2681,-2210.1396 309.2681,-2210.1396"/>
</g>
<!-- uniform_resource&#45;&gt;device -->
<g id="edge6" class="edge">
<title>uniform_resource:device_id&#45;&gt;device:device_id</title>
<path fill="none" stroke="#000000" d="M560.9775,-2269.5781C648.4876,-2165.5553 561.8114,-447.5 463.2674,-447.5"/>
<polygon fill="#000000" stroke="#000000" points="560.9736,-2269.5803 550.0536,-2270.5822 556.6205,-2272.0401 552.2674,-2274.5 552.2674,-2274.5 552.2674,-2274.5 556.6205,-2272.0401 554.4813,-2278.4178 560.9736,-2269.5803 560.9736,-2269.5803"/>
</g>
<!-- ur_walk_session_path_fs_entry -->
<g id="node4" class="node">
<title>ur_walk_session_path_fs_entry</title>
<polygon fill="#efefef" stroke="transparent" points="71.2674,-3046.5 71.2674,-3081.5 409.2674,-3081.5 409.2674,-3046.5 71.2674,-3046.5"/>
<polygon fill="none" stroke="#000000" points="71.2674,-3046.5 71.2674,-3081.5 409.2674,-3081.5 409.2674,-3046.5 71.2674,-3046.5"/>
<text text-anchor="start" x="78.0686" y="-3059.3" font-family="Arial Bold" font-size="18.00" fill="#000000">ur_walk_session_path_fs_entry</text>
<text text-anchor="start" x="330.1352" y="-3059.3" font-family="Arial" font-size="14.00" fill="#000000">    </text>
<text text-anchor="start" x="364.34" y="-3059.3" font-family="Arial" font-size="14.00" fill="#666666">[table]</text>
<polygon fill="none" stroke="#000000" points="71.2674,-3016.5 71.2674,-3046.5 409.2674,-3046.5 409.2674,-3016.5 71.2674,-3016.5"/>
<text text-anchor="start" x="78.2674" y="-3027.9" font-family="Arial" font-size="14.00" fill="#000000">ur_walk_session_path_fs_entry_id    </text>
<text text-anchor="start" x="327.1958" y="-3027.9" font-family="Arial" font-size="14.00" fill="#666666">[ULID]</text>
<polygon fill="none" stroke="#000000" points="71.2674,-2986.5 71.2674,-3016.5 409.2674,-3016.5 409.2674,-2986.5 71.2674,-2986.5"/>
<text text-anchor="start" x="78.2674" y="-2997.9" font-family="Arial" font-size="14.00" fill="#000000">walk_session_id    </text>
<text text-anchor="start" x="214.3768" y="-2997.9" font-family="Arial" font-size="14.00" fill="#666666">[ULID]</text>
<polygon fill="none" stroke="#000000" points="71.2674,-2956.5 71.2674,-2986.5 409.2674,-2986.5 409.2674,-2956.5 71.2674,-2956.5"/>
<text text-anchor="start" x="78.2674" y="-2967.9" font-family="Arial" font-size="14.00" fill="#000000">walk_path_id    </text>
<text text-anchor="start" x="194.1608" y="-2967.9" font-family="Arial" font-size="14.00" fill="#666666">[ULID]</text>
<polygon fill="none" stroke="#000000" points="71.2674,-2926.5 71.2674,-2956.5 409.2674,-2956.5 409.2674,-2926.5 71.2674,-2926.5"/>
<text text-anchor="start" x="78.2674" y="-2937.9" font-family="Arial" font-size="14.00" fill="#000000">uniform_resource_id    </text>
<text text-anchor="start" x="240.0444" y="-2937.9" font-family="Arial" font-size="14.00" fill="#666666">[ULID]</text>
<polygon fill="none" stroke="#000000" points="71.2674,-2896.5 71.2674,-2926.5 409.2674,-2926.5 409.2674,-2896.5 71.2674,-2896.5"/>
<text text-anchor="start" x="78.2674" y="-2907.9" font-family="Arial" font-size="14.00" fill="#000000">file_path_abs    </text>
<text text-anchor="start" x="195.7274" y="-2907.9" font-family="Arial" font-size="14.00" fill="#666666">[TEXT]</text>
<polygon fill="none" stroke="#000000" points="71.2674,-2866.5 71.2674,-2896.5 409.2674,-2896.5 409.2674,-2866.5 71.2674,-2866.5"/>
<text text-anchor="start" x="78.2674" y="-2877.9" font-family="Arial" font-size="14.00" fill="#000000">file_path_rel_parent    </text>
<text text-anchor="start" x="236.1762" y="-2877.9" font-family="Arial" font-size="14.00" fill="#666666">[TEXT]</text>
<polygon fill="none" stroke="#000000" points="71.2674,-2836.5 71.2674,-2866.5 409.2674,-2866.5 409.2674,-2836.5 71.2674,-2836.5"/>
<text text-anchor="start" x="78.2674" y="-2847.9" font-family="Arial" font-size="14.00" fill="#000000">file_path_rel    </text>
<text text-anchor="start" x="188.712" y="-2847.9" font-family="Arial" font-size="14.00" fill="#666666">[TEXT]</text>
<polygon fill="none" stroke="#000000" points="71.2674,-2806.5 71.2674,-2836.5 409.2674,-2836.5 409.2674,-2806.5 71.2674,-2806.5"/>
<text text-anchor="start" x="78.2674" y="-2817.9" font-family="Arial" font-size="14.00" fill="#000000">file_basename    </text>
<text text-anchor="start" x="203.4974" y="-2817.9" font-family="Arial" font-size="14.00" fill="#666666">[TEXT]</text>
<polygon fill="none" stroke="#000000" points="71.2674,-2776.5 71.2674,-2806.5 409.2674,-2806.5 409.2674,-2776.5 71.2674,-2776.5"/>
<text text-anchor="start" x="78.2674" y="-2787.9" font-family="Arial" font-size="14.00" fill="#000000">file_extn    </text>
<text text-anchor="start" x="164.597" y="-2787.9" font-family="Arial" font-size="14.00" fill="#666666">[TEXT]</text>
<polygon fill="none" stroke="#000000" points="71.2674,-2746.5 71.2674,-2776.5 409.2674,-2776.5 409.2674,-2746.5 71.2674,-2746.5"/>
<text text-anchor="start" x="78.2674" y="-2757.9" font-family="Arial" font-size="14.00" fill="#000000">ur_status    </text>
<text text-anchor="start" x="170.0444" y="-2757.9" font-family="Arial" font-size="14.00" fill="#666666">[TEXT]</text>
<polygon fill="none" stroke="#000000" points="71.2674,-2716.5 71.2674,-2746.5 409.2674,-2746.5 409.2674,-2716.5 71.2674,-2716.5"/>
<text text-anchor="start" x="78.2674" y="-2727.9" font-family="Arial" font-size="14.00" fill="#000000">ur_status_explanation    </text>
<text text-anchor="start" x="249.409" y="-2727.9" font-family="Arial" font-size="14.00" fill="#666666">[TEXT]</text>
<polygon fill="none" stroke="#000000" points="71.2674,-2686.5 71.2674,-2716.5 409.2674,-2716.5 409.2674,-2686.5 71.2674,-2686.5"/>
<text text-anchor="start" x="78.2674" y="-2697.9" font-family="Arial" font-size="14.00" fill="#000000">elaboration    </text>
<text text-anchor="start" x="181.7148" y="-2697.9" font-family="Arial" font-size="14.00" fill="#666666">[TEXT]</text>
<polygon fill="none" stroke="#000000" points="71.2674,-2656.5 71.2674,-2686.5 409.2674,-2686.5 409.2674,-2656.5 71.2674,-2656.5"/>
<text text-anchor="start" x="78.2674" y="-2667.9" font-family="Arial" font-size="14.00" fill="#000000">created_at    </text>
<text text-anchor="start" x="178.6096" y="-2667.9" font-family="Arial" font-size="14.00" fill="#666666">[TIMESTAMP]</text>
<polygon fill="none" stroke="#000000" points="71.2674,-2626.5 71.2674,-2656.5 409.2674,-2656.5 409.2674,-2626.5 71.2674,-2626.5"/>
<text text-anchor="start" x="78.2674" y="-2637.9" font-family="Arial" font-size="14.00" fill="#000000">created_by    </text>
<text text-anchor="start" x="181.719" y="-2637.9" font-family="Arial" font-size="14.00" fill="#666666">[TEXT]</text>
<polygon fill="none" stroke="#000000" points="71.2674,-2596.5 71.2674,-2626.5 409.2674,-2626.5 409.2674,-2596.5 71.2674,-2596.5"/>
<text text-anchor="start" x="78.2674" y="-2607.9" font-family="Arial" font-size="14.00" fill="#000000">updated_at    </text>
<text text-anchor="start" x="182.5142" y="-2607.9" font-family="Arial" font-size="14.00" fill="#666666">[TIMESTAMP]</text>
<polygon fill="none" stroke="#000000" points="71.2674,-2566.5 71.2674,-2596.5 409.2674,-2596.5 409.2674,-2566.5 71.2674,-2566.5"/>
<text text-anchor="start" x="78.2674" y="-2577.9" font-family="Arial" font-size="14.00" fill="#000000">updated_by    </text>
<text text-anchor="start" x="185.6236" y="-2577.9" font-family="Arial" font-size="14.00" fill="#666666">[TEXT]</text>
<polygon fill="none" stroke="#000000" points="71.2674,-2536.5 71.2674,-2566.5 409.2674,-2566.5 409.2674,-2536.5 71.2674,-2536.5"/>
<text text-anchor="start" x="78.2674" y="-2547.9" font-family="Arial" font-size="14.00" fill="#000000">deleted_at    </text>
<text text-anchor="start" x="177.8382" y="-2547.9" font-family="Arial" font-size="14.00" fill="#666666">[TIMESTAMP]</text>
<polygon fill="none" stroke="#000000" points="71.2674,-2506.5 71.2674,-2536.5 409.2674,-2536.5 409.2674,-2506.5 71.2674,-2506.5"/>
<text text-anchor="start" x="78.2674" y="-2517.9" font-family="Arial" font-size="14.00" fill="#000000">deleted_by    </text>
<text text-anchor="start" x="180.9476" y="-2517.9" font-family="Arial" font-size="14.00" fill="#666666">[TEXT]</text>
<polygon fill="none" stroke="#000000" points="71.2674,-2476.5 71.2674,-2506.5 409.2674,-2506.5 409.2674,-2476.5 71.2674,-2476.5"/>
<text text-anchor="start" x="78.2674" y="-2487.9" font-family="Arial" font-size="14.00" fill="#000000">activity_log    </text>
<text text-anchor="start" x="181.7036" y="-2487.9" font-family="Arial" font-size="14.00" fill="#666666">[TEXT]</text>
</g>
<!-- ur_walk_session_path_fs_entry&#45;&gt;ur_walk_session -->
<g id="edge7" class="edge">
<title>ur_walk_session_path_fs_entry:walk_session_id&#45;&gt;ur_walk_session:ur_walk_session_id</title>
<path fill="none" stroke="#000000" d="M61.1073,-2999.5363C-73.5618,-2945.3941 57.0813,-1788.6304 56.2674,-1641 54.8158,-1377.6613 -104.0753,-1057.5 159.2674,-1057.5"/>
<polygon fill="#000000" stroke="#000000" points="61.4491,-2999.6023 70.4135,-3005.9182 66.3583,-3000.5511 71.2674,-3001.5 71.2674,-3001.5 71.2674,-3001.5 66.3583,-3000.5511 72.1214,-2997.0818 61.4491,-2999.6023 61.4491,-2999.6023"/>
</g>
<!-- ur_walk_session_path_fs_entry&#45;&gt;ur_walk_session_path -->
<g id="edge3" class="edge">
<title>ur_walk_session_path_fs_entry:walk_path_id&#45;&gt;ur_walk_session_path:ur_walk_session_path_id</title>
<path fill="none" stroke="#000000" d="M419.5533,-2971.2769C645.4484,-2961.3074 553.9764,-2619.6544 409.2674,-2434 368.9767,-2382.309 306.5582,-2449.691 266.2674,-2398 69.2698,-2145.2619 79.6354,-1937.4863 266.2674,-1677 295.245,-1636.5555 343.2899,-1681.4445 372.2674,-1641 396.4701,-1607.2199 413.823,-1547.5 372.2674,-1547.5"/>
<polygon fill="#000000" stroke="#000000" points="419.2651,-2971.283 409.1698,-2967.0011 414.2663,-2971.3915 409.2674,-2971.5 409.2674,-2971.5 409.2674,-2971.5 414.2663,-2971.3915 409.3651,-2975.9989 419.2651,-2971.283 419.2651,-2971.283"/>
</g>
<!-- ur_walk_session_path_fs_entry&#45;&gt;uniform_resource -->
<g id="edge5" class="edge">
<title>ur_walk_session_path_fs_entry:uniform_resource_id&#45;&gt;uniform_resource:uniform_resource_id</title>
<path fill="none" stroke="#000000" d="M419.2881,-2941.281C631.8271,-2931.8141 534.1551,-2617.7114 409.2674,-2434 384.815,-2398.0301 342.7199,-2433.9699 318.2674,-2398 294.9049,-2363.6335 276.7119,-2304.5 318.2674,-2304.5"/>
<polygon fill="#000000" stroke="#000000" points="419.265,-2941.2814 409.1691,-2937.0011 414.2662,-2941.3907 409.2674,-2941.5 409.2674,-2941.5 409.2674,-2941.5 414.2662,-2941.3907 409.3658,-2945.9989 419.265,-2941.2814 419.265,-2941.2814"/>
</g>
</g>
</svg>
