<?xml version="1.0" encoding="UTF-8" standalone="no"?>
<!DOCTYPE svg PUBLIC "-//W3C//DTD SVG 1.1//EN"
 "http://www.w3.org/Graphics/SVG/1.1/DTD/svg11.dtd">
<!-- Generated by graphviz version 2.40.1 (20161225.0304)
 -->
<!-- Title: ur_walk_session_path_fs_entry Pages: 1 -->
<svg width="636pt" height="3133pt"
 viewBox="0.00 0.00 636.19 3133.00" xmlns="http://www.w3.org/2000/svg" xmlns:xlink="http://www.w3.org/1999/xlink">
<g id="graph0" class="graph" transform="scale(1 1) rotate(0) translate(4 3129)">
<title>ur_walk_session_path_fs_entry</title>
<polygon fill="#ffffff" stroke="transparent" points="-4,4 -4,-3129 632.1936,-3129 632.1936,4 -4,4"/>
<!-- ur_walk_session_path_fs_entry -->
<g id="node1" class="node">
<title>ur_walk_session_path_fs_entry</title>
<polygon fill="#efefef" stroke="transparent" points="71.7566,-3043.5 71.7566,-3078.5 409.7566,-3078.5 409.7566,-3043.5 71.7566,-3043.5"/>
<polygon fill="none" stroke="#000000" points="71.7566,-3043.5 71.7566,-3078.5 409.7566,-3078.5 409.7566,-3043.5 71.7566,-3043.5"/>
<text text-anchor="start" x="78.5578" y="-3056.3" font-family="Arial Bold" font-size="18.00" fill="#000000">ur_walk_session_path_fs_entry</text>
<text text-anchor="start" x="330.6244" y="-3056.3" font-family="Arial" font-size="14.00" fill="#000000">    </text>
<text text-anchor="start" x="364.8292" y="-3056.3" font-family="Arial" font-size="14.00" fill="#666666">[table]</text>
<polygon fill="none" stroke="#000000" points="71.7566,-3013.5 71.7566,-3043.5 409.7566,-3043.5 409.7566,-3013.5 71.7566,-3013.5"/>
<text text-anchor="start" x="78.7566" y="-3024.9" font-family="Arial" font-size="14.00" fill="#000000">ur_walk_session_path_fs_entry_id </text>
<text text-anchor="start" x="297.3708" y="-3024.9" font-family="Arial" font-size="14.00" fill="#666666">[ULID]</text>
<polygon fill="none" stroke="#000000" points="71.7566,-2983.5 71.7566,-3013.5 409.7566,-3013.5 409.7566,-2983.5 71.7566,-2983.5"/>
<text text-anchor="start" x="78.7566" y="-2994.9" font-family="Arial" font-size="14.00" fill="#000000">walk_session_id </text>
<text text-anchor="start" x="184.5518" y="-2994.9" font-family="Arial" font-size="14.00" fill="#666666">[ULID]</text>
<polygon fill="none" stroke="#000000" points="71.7566,-2953.5 71.7566,-2983.5 409.7566,-2983.5 409.7566,-2953.5 71.7566,-2953.5"/>
<text text-anchor="start" x="78.7566" y="-2964.9" font-family="Arial" font-size="14.00" fill="#000000">walk_path_id </text>
<text text-anchor="start" x="164.3358" y="-2964.9" font-family="Arial" font-size="14.00" fill="#666666">[ULID]</text>
<polygon fill="none" stroke="#000000" points="71.7566,-2923.5 71.7566,-2953.5 409.7566,-2953.5 409.7566,-2923.5 71.7566,-2923.5"/>
<text text-anchor="start" x="78.7566" y="-2934.9" font-family="Arial" font-size="14.00" fill="#000000">uniform_resource_id </text>
<text text-anchor="start" x="210.2194" y="-2934.9" font-family="Arial" font-size="14.00" fill="#666666">[ULID]</text>
<polygon fill="none" stroke="#000000" points="71.7566,-2893.5 71.7566,-2923.5 409.7566,-2923.5 409.7566,-2893.5 71.7566,-2893.5"/>
<text text-anchor="start" x="78.7566" y="-2904.9" font-family="Arial" font-size="14.00" fill="#000000">file_path_abs </text>
<text text-anchor="start" x="165.9024" y="-2904.9" font-family="Arial" font-size="14.00" fill="#666666">[TEXT]</text>
<polygon fill="none" stroke="#000000" points="71.7566,-2863.5 71.7566,-2893.5 409.7566,-2893.5 409.7566,-2863.5 71.7566,-2863.5"/>
<text text-anchor="start" x="78.7566" y="-2874.9" font-family="Arial" font-size="14.00" fill="#000000">file_path_rel_parent </text>
<text text-anchor="start" x="206.3512" y="-2874.9" font-family="Arial" font-size="14.00" fill="#666666">[TEXT]</text>
<polygon fill="none" stroke="#000000" points="71.7566,-2833.5 71.7566,-2863.5 409.7566,-2863.5 409.7566,-2833.5 71.7566,-2833.5"/>
<text text-anchor="start" x="78.7566" y="-2844.9" font-family="Arial" font-size="14.00" fill="#000000">file_path_rel </text>
<text text-anchor="start" x="158.887" y="-2844.9" font-family="Arial" font-size="14.00" fill="#666666">[TEXT]</text>
<polygon fill="none" stroke="#000000" points="71.7566,-2803.5 71.7566,-2833.5 409.7566,-2833.5 409.7566,-2803.5 71.7566,-2803.5"/>
<text text-anchor="start" x="78.7566" y="-2814.9" font-family="Arial" font-size="14.00" fill="#000000">file_basename </text>
<text text-anchor="start" x="173.6724" y="-2814.9" font-family="Arial" font-size="14.00" fill="#666666">[TEXT]</text>
<polygon fill="none" stroke="#000000" points="71.7566,-2773.5 71.7566,-2803.5 409.7566,-2803.5 409.7566,-2773.5 71.7566,-2773.5"/>
<text text-anchor="start" x="78.7566" y="-2784.9" font-family="Arial" font-size="14.00" fill="#000000">file_extn </text>
<text text-anchor="start" x="134.772" y="-2784.9" font-family="Arial" font-size="14.00" fill="#666666">[TEXT]</text>
<polygon fill="none" stroke="#000000" points="71.7566,-2743.5 71.7566,-2773.5 409.7566,-2773.5 409.7566,-2743.5 71.7566,-2743.5"/>
<text text-anchor="start" x="78.7566" y="-2754.9" font-family="Arial" font-size="14.00" fill="#000000">ur_status </text>
<text text-anchor="start" x="140.2194" y="-2754.9" font-family="Arial" font-size="14.00" fill="#666666">[TEXT]</text>
<polygon fill="none" stroke="#000000" points="71.7566,-2713.5 71.7566,-2743.5 409.7566,-2743.5 409.7566,-2713.5 71.7566,-2713.5"/>
<text text-anchor="start" x="78.7566" y="-2724.9" font-family="Arial" font-size="14.00" fill="#000000">ur_status_explanation </text>
<text text-anchor="start" x="219.584" y="-2724.9" font-family="Arial" font-size="14.00" fill="#666666">[TEXT]</text>
<polygon fill="none" stroke="#000000" points="71.7566,-2683.5 71.7566,-2713.5 409.7566,-2713.5 409.7566,-2683.5 71.7566,-2683.5"/>
<text text-anchor="start" x="78.7566" y="-2694.9" font-family="Arial" font-size="14.00" fill="#000000">elaboration </text>
<text text-anchor="start" x="151.8898" y="-2694.9" font-family="Arial" font-size="14.00" fill="#666666">[TEXT]</text>
<polygon fill="none" stroke="#000000" points="71.7566,-2653.5 71.7566,-2683.5 409.7566,-2683.5 409.7566,-2653.5 71.7566,-2653.5"/>
<text text-anchor="start" x="78.7566" y="-2664.9" font-family="Arial" font-size="14.00" fill="#000000">created_at </text>
<text text-anchor="start" x="148.7846" y="-2664.9" font-family="Arial" font-size="14.00" fill="#666666">[TIMESTAMP]</text>
<polygon fill="none" stroke="#000000" points="71.7566,-2623.5 71.7566,-2653.5 409.7566,-2653.5 409.7566,-2623.5 71.7566,-2623.5"/>
<text text-anchor="start" x="78.7566" y="-2634.9" font-family="Arial" font-size="14.00" fill="#000000">created_by </text>
<text text-anchor="start" x="151.894" y="-2634.9" font-family="Arial" font-size="14.00" fill="#666666">[TEXT]</text>
<polygon fill="none" stroke="#000000" points="71.7566,-2593.5 71.7566,-2623.5 409.7566,-2623.5 409.7566,-2593.5 71.7566,-2593.5"/>
<text text-anchor="start" x="78.7566" y="-2604.9" font-family="Arial" font-size="14.00" fill="#000000">updated_at </text>
<text text-anchor="start" x="152.6892" y="-2604.9" font-family="Arial" font-size="14.00" fill="#666666">[TIMESTAMP]</text>
<polygon fill="none" stroke="#000000" points="71.7566,-2563.5 71.7566,-2593.5 409.7566,-2593.5 409.7566,-2563.5 71.7566,-2563.5"/>
<text text-anchor="start" x="78.7566" y="-2574.9" font-family="Arial" font-size="14.00" fill="#000000">updated_by </text>
<text text-anchor="start" x="155.7986" y="-2574.9" font-family="Arial" font-size="14.00" fill="#666666">[TEXT]</text>
<polygon fill="none" stroke="#000000" points="71.7566,-2533.5 71.7566,-2563.5 409.7566,-2563.5 409.7566,-2533.5 71.7566,-2533.5"/>
<text text-anchor="start" x="78.7566" y="-2544.9" font-family="Arial" font-size="14.00" fill="#000000">deleted_at </text>
<text text-anchor="start" x="148.0132" y="-2544.9" font-family="Arial" font-size="14.00" fill="#666666">[TIMESTAMP]</text>
<polygon fill="none" stroke="#000000" points="71.7566,-2503.5 71.7566,-2533.5 409.7566,-2533.5 409.7566,-2503.5 71.7566,-2503.5"/>
<text text-anchor="start" x="78.7566" y="-2514.9" font-family="Arial" font-size="14.00" fill="#000000">deleted_by </text>
<text text-anchor="start" x="151.1226" y="-2514.9" font-family="Arial" font-size="14.00" fill="#666666">[TEXT]</text>
<polygon fill="none" stroke="#000000" points="71.7566,-2473.5 71.7566,-2503.5 409.7566,-2503.5 409.7566,-2473.5 71.7566,-2473.5"/>
<text text-anchor="start" x="78.7566" y="-2484.9" font-family="Arial" font-size="14.00" fill="#000000">activity_log </text>
<text text-anchor="start" x="151.8786" y="-2484.9" font-family="Arial" font-size="14.00" fill="#666666">[TEXT]</text>
<polygon fill="none" stroke="#000000" stroke-width="3" points="70.2566,-2472.5 70.2566,-3080.5 411.2566,-3080.5 411.2566,-2472.5 70.2566,-2472.5"/>
</g>
<!-- ur_walk_session -->
<g id="node2" class="node">
<title>ur_walk_session</title>
<polygon fill="#efefef" stroke="transparent" points="144.7566,-1069.5 144.7566,-1104.5 385.7566,-1104.5 385.7566,-1069.5 144.7566,-1069.5"/>
<polygon fill="none" stroke="#000000" points="144.7566,-1069.5 144.7566,-1104.5 385.7566,-1104.5 385.7566,-1069.5 144.7566,-1069.5"/>
<text text-anchor="start" x="162.582" y="-1082.3" font-family="Arial Bold" font-size="18.00" fill="#000000">ur_walk_session</text>
<text text-anchor="start" x="295.6002" y="-1082.3" font-family="Arial" font-size="14.00" fill="#000000">    </text>
<text text-anchor="start" x="329.805" y="-1082.3" font-family="Arial" font-size="14.00" fill="#666666">[table]</text>
<polygon fill="none" stroke="#000000" points="144.7566,-1039.5 144.7566,-1069.5 385.7566,-1069.5 385.7566,-1039.5 144.7566,-1039.5"/>
<text text-anchor="start" x="151.7566" y="-1050.9" font-family="Arial" font-size="14.00" fill="#000000">ur_walk_session_id    </text>
<text text-anchor="start" x="308.0918" y="-1050.9" font-family="Arial" font-size="14.00" fill="#666666">[ULID]</text>
<polygon fill="none" stroke="#000000" points="144.7566,-1009.5 144.7566,-1039.5 385.7566,-1039.5 385.7566,-1009.5 144.7566,-1009.5"/>
<text text-anchor="start" x="151.7566" y="-1020.9" font-family="Arial" font-size="14.00" fill="#000000">device_id    </text>
<text text-anchor="start" x="245.0876" y="-1020.9" font-family="Arial" font-size="14.00" fill="#666666">[ULID]</text>
<polygon fill="none" stroke="#000000" points="144.7566,-979.5 144.7566,-1009.5 385.7566,-1009.5 385.7566,-979.5 144.7566,-979.5"/>
<text text-anchor="start" x="151.7566" y="-990.9" font-family="Arial" font-size="14.00" fill="#000000">walk_started_at    </text>
<text text-anchor="start" x="283.9852" y="-990.9" font-family="Arial" font-size="14.00" fill="#666666">[TIMESTAMP]</text>
<polygon fill="none" stroke="#000000" points="144.7566,-949.5 144.7566,-979.5 385.7566,-979.5 385.7566,-949.5 144.7566,-949.5"/>
<text text-anchor="start" x="151.6977" y="-960.9" font-family="Arial" font-size="14.00" fill="#000000">walk_finished_at    </text>
<text text-anchor="start" x="289.3709" y="-960.9" font-family="Arial" font-size="14.00" fill="#666666">[TIMESTAMP]</text>
<polygon fill="none" stroke="#000000" points="144.7566,-919.5 144.7566,-949.5 385.7566,-949.5 385.7566,-919.5 144.7566,-919.5"/>
<text text-anchor="start" x="151.7566" y="-930.9" font-family="Arial" font-size="14.00" fill="#000000">ignore_paths_regex    </text>
<text text-anchor="start" x="309.671" y="-930.9" font-family="Arial" font-size="14.00" fill="#666666">[TEXT]</text>
<polygon fill="none" stroke="#000000" points="144.7566,-889.5 144.7566,-919.5 385.7566,-919.5 385.7566,-889.5 144.7566,-889.5"/>
<text text-anchor="start" x="151.7566" y="-900.9" font-family="Arial" font-size="14.00" fill="#000000">blobs_regex    </text>
<text text-anchor="start" x="262.2068" y="-900.9" font-family="Arial" font-size="14.00" fill="#666666">[TEXT]</text>
<polygon fill="none" stroke="#000000" points="144.7566,-859.5 144.7566,-889.5 385.7566,-889.5 385.7566,-859.5 144.7566,-859.5"/>
<text text-anchor="start" x="151.7566" y="-870.9" font-family="Arial" font-size="14.00" fill="#000000">digests_regex    </text>
<text text-anchor="start" x="273.0974" y="-870.9" font-family="Arial" font-size="14.00" fill="#666666">[TEXT]</text>
<polygon fill="none" stroke="#000000" points="144.7566,-829.5 144.7566,-859.5 385.7566,-859.5 385.7566,-829.5 144.7566,-829.5"/>
<text text-anchor="start" x="151.7566" y="-840.9" font-family="Arial" font-size="14.00" fill="#000000">elaboration    </text>
<text text-anchor="start" x="255.204" y="-840.9" font-family="Arial" font-size="14.00" fill="#666666">[TEXT]</text>
<polygon fill="none" stroke="#000000" points="144.7566,-799.5 144.7566,-829.5 385.7566,-829.5 385.7566,-799.5 144.7566,-799.5"/>
<text text-anchor="start" x="151.7566" y="-810.9" font-family="Arial" font-size="14.00" fill="#000000">created_at    </text>
<text text-anchor="start" x="252.0988" y="-810.9" font-family="Arial" font-size="14.00" fill="#666666">[TIMESTAMP]</text>
<polygon fill="none" stroke="#000000" points="144.7566,-769.5 144.7566,-799.5 385.7566,-799.5 385.7566,-769.5 144.7566,-769.5"/>
<text text-anchor="start" x="151.7566" y="-780.9" font-family="Arial" font-size="14.00" fill="#000000">created_by    </text>
<text text-anchor="start" x="255.2082" y="-780.9" font-family="Arial" font-size="14.00" fill="#666666">[TEXT]</text>
<polygon fill="none" stroke="#000000" points="144.7566,-739.5 144.7566,-769.5 385.7566,-769.5 385.7566,-739.5 144.7566,-739.5"/>
<text text-anchor="start" x="151.7566" y="-750.9" font-family="Arial" font-size="14.00" fill="#000000">updated_at    </text>
<text text-anchor="start" x="256.0034" y="-750.9" font-family="Arial" font-size="14.00" fill="#666666">[TIMESTAMP]</text>
<polygon fill="none" stroke="#000000" points="144.7566,-709.5 144.7566,-739.5 385.7566,-739.5 385.7566,-709.5 144.7566,-709.5"/>
<text text-anchor="start" x="151.7566" y="-720.9" font-family="Arial" font-size="14.00" fill="#000000">updated_by    </text>
<text text-anchor="start" x="259.1128" y="-720.9" font-family="Arial" font-size="14.00" fill="#666666">[TEXT]</text>
<polygon fill="none" stroke="#000000" points="144.7566,-679.5 144.7566,-709.5 385.7566,-709.5 385.7566,-679.5 144.7566,-679.5"/>
<text text-anchor="start" x="151.7566" y="-690.9" font-family="Arial" font-size="14.00" fill="#000000">deleted_at    </text>
<text text-anchor="start" x="251.3274" y="-690.9" font-family="Arial" font-size="14.00" fill="#666666">[TIMESTAMP]</text>
<polygon fill="none" stroke="#000000" points="144.7566,-649.5 144.7566,-679.5 385.7566,-679.5 385.7566,-649.5 144.7566,-649.5"/>
<text text-anchor="start" x="151.7566" y="-660.9" font-family="Arial" font-size="14.00" fill="#000000">deleted_by    </text>
<text text-anchor="start" x="254.4368" y="-660.9" font-family="Arial" font-size="14.00" fill="#666666">[TEXT]</text>
<polygon fill="none" stroke="#000000" points="144.7566,-619.5 144.7566,-649.5 385.7566,-649.5 385.7566,-619.5 144.7566,-619.5"/>
<text text-anchor="start" x="151.7566" y="-630.9" font-family="Arial" font-size="14.00" fill="#000000">activity_log    </text>
<text text-anchor="start" x="255.1928" y="-630.9" font-family="Arial" font-size="14.00" fill="#666666">[TEXT]</text>
</g>
<!-- ur_walk_session_path_fs_entry&#45;&gt;ur_walk_session -->
<g id="edge1" class="edge">
<title>ur_walk_session_path_fs_entry:walk_session_id&#45;&gt;ur_walk_session:ur_walk_session_id</title>
<path fill="none" stroke="#000000" d="M61.5741,-2996.532C-73.3906,-2942.2704 57.5704,-1782.9559 56.7566,-1635 55.3213,-1374.0563 -116.1911,-1054.5 144.7566,-1054.5"/>
<polygon fill="#000000" stroke="#000000" points="61.9383,-2996.6023 70.9026,-3002.9182 66.8474,-2997.5511 71.7566,-2998.5 71.7566,-2998.5 71.7566,-2998.5 66.8474,-2997.5511 72.6106,-2994.0818 61.9383,-2996.6023 61.9383,-2996.6023"/>
</g>
<!-- ur_walk_session_path -->
<g id="node3" class="node">
<title>ur_walk_session_path</title>
<polygon fill="#efefef" stroke="transparent" points="108.7566,-1556.5 108.7566,-1591.5 372.7566,-1591.5 372.7566,-1556.5 108.7566,-1556.5"/>
<polygon fill="none" stroke="#000000" points="108.7566,-1556.5 108.7566,-1591.5 372.7566,-1591.5 372.7566,-1556.5 108.7566,-1556.5"/>
<text text-anchor="start" x="115.5685" y="-1569.3" font-family="Arial Bold" font-size="18.00" fill="#000000">ur_walk_session_path</text>
<text text-anchor="start" x="293.6137" y="-1569.3" font-family="Arial" font-size="14.00" fill="#000000">    </text>
<text text-anchor="start" x="327.8185" y="-1569.3" font-family="Arial" font-size="14.00" fill="#666666">[table]</text>
<polygon fill="none" stroke="#000000" points="108.7566,-1526.5 108.7566,-1556.5 372.7566,-1556.5 372.7566,-1526.5 108.7566,-1526.5"/>
<text text-anchor="start" x="115.7566" y="-1537.9" font-family="Arial" font-size="14.00" fill="#000000">ur_walk_session_path_id    </text>
<text text-anchor="start" x="307.1128" y="-1537.9" font-family="Arial" font-size="14.00" fill="#666666">[ULID]</text>
<polygon fill="none" stroke="#000000" points="108.7566,-1496.5 108.7566,-1526.5 372.7566,-1526.5 372.7566,-1496.5 108.7566,-1496.5"/>
<text text-anchor="start" x="115.7566" y="-1507.9" font-family="Arial" font-size="14.00" fill="#000000">walk_session_id    </text>
<text text-anchor="start" x="251.866" y="-1507.9" font-family="Arial" font-size="14.00" fill="#666666">[ULID]</text>
<polygon fill="none" stroke="#000000" points="108.7566,-1466.5 108.7566,-1496.5 372.7566,-1496.5 372.7566,-1466.5 108.7566,-1466.5"/>
<text text-anchor="start" x="115.7566" y="-1477.9" font-family="Arial" font-size="14.00" fill="#000000">root_path    </text>
<text text-anchor="start" x="209.0988" y="-1477.9" font-family="Arial" font-size="14.00" fill="#666666">[TEXT]</text>
<polygon fill="none" stroke="#000000" points="108.7566,-1436.5 108.7566,-1466.5 372.7566,-1466.5 372.7566,-1436.5 108.7566,-1436.5"/>
<text text-anchor="start" x="115.7566" y="-1447.9" font-family="Arial" font-size="14.00" fill="#000000">elaboration    </text>
<text text-anchor="start" x="219.204" y="-1447.9" font-family="Arial" font-size="14.00" fill="#666666">[TEXT]</text>
<polygon fill="none" stroke="#000000" points="108.7566,-1406.5 108.7566,-1436.5 372.7566,-1436.5 372.7566,-1406.5 108.7566,-1406.5"/>
<text text-anchor="start" x="115.7566" y="-1417.9" font-family="Arial" font-size="14.00" fill="#000000">created_at    </text>
<text text-anchor="start" x="216.0988" y="-1417.9" font-family="Arial" font-size="14.00" fill="#666666">[TIMESTAMP]</text>
<polygon fill="none" stroke="#000000" points="108.7566,-1376.5 108.7566,-1406.5 372.7566,-1406.5 372.7566,-1376.5 108.7566,-1376.5"/>
<text text-anchor="start" x="115.7566" y="-1387.9" font-family="Arial" font-size="14.00" fill="#000000">created_by    </text>
<text text-anchor="start" x="219.2082" y="-1387.9" font-family="Arial" font-size="14.00" fill="#666666">[TEXT]</text>
<polygon fill="none" stroke="#000000" points="108.7566,-1346.5 108.7566,-1376.5 372.7566,-1376.5 372.7566,-1346.5 108.7566,-1346.5"/>
<text text-anchor="start" x="115.7566" y="-1357.9" font-family="Arial" font-size="14.00" fill="#000000">updated_at    </text>
<text text-anchor="start" x="220.0034" y="-1357.9" font-family="Arial" font-size="14.00" fill="#666666">[TIMESTAMP]</text>
<polygon fill="none" stroke="#000000" points="108.7566,-1316.5 108.7566,-1346.5 372.7566,-1346.5 372.7566,-1316.5 108.7566,-1316.5"/>
<text text-anchor="start" x="115.7566" y="-1327.9" font-family="Arial" font-size="14.00" fill="#000000">updated_by    </text>
<text text-anchor="start" x="223.1128" y="-1327.9" font-family="Arial" font-size="14.00" fill="#666666">[TEXT]</text>
<polygon fill="none" stroke="#000000" points="108.7566,-1286.5 108.7566,-1316.5 372.7566,-1316.5 372.7566,-1286.5 108.7566,-1286.5"/>
<text text-anchor="start" x="115.7566" y="-1297.9" font-family="Arial" font-size="14.00" fill="#000000">deleted_at    </text>
<text text-anchor="start" x="215.3274" y="-1297.9" font-family="Arial" font-size="14.00" fill="#666666">[TIMESTAMP]</text>
<polygon fill="none" stroke="#000000" points="108.7566,-1256.5 108.7566,-1286.5 372.7566,-1286.5 372.7566,-1256.5 108.7566,-1256.5"/>
<text text-anchor="start" x="115.7566" y="-1267.9" font-family="Arial" font-size="14.00" fill="#000000">deleted_by    </text>
<text text-anchor="start" x="218.4368" y="-1267.9" font-family="Arial" font-size="14.00" fill="#666666">[TEXT]</text>
<polygon fill="none" stroke="#000000" points="108.7566,-1226.5 108.7566,-1256.5 372.7566,-1256.5 372.7566,-1226.5 108.7566,-1226.5"/>
<text text-anchor="start" x="115.7566" y="-1237.9" font-family="Arial" font-size="14.00" fill="#000000">activity_log    </text>
<text text-anchor="start" x="219.1928" y="-1237.9" font-family="Arial" font-size="14.00" fill="#666666">[TEXT]</text>
</g>
<!-- ur_walk_session_path_fs_entry&#45;&gt;ur_walk_session_path -->
<g id="edge5" class="edge">
<title>ur_walk_session_path_fs_entry:walk_path_id&#45;&gt;ur_walk_session_path:ur_walk_session_path_id</title>
<path fill="none" stroke="#000000" d="M419.762,-2968.2903C647.3469,-2958.591 555.3453,-2614.7831 409.7566,-2428 369.4658,-2376.309 307.0473,-2443.691 266.7566,-2392 69.7589,-2139.2619 80.1245,-1931.4863 266.7566,-1671 295.7341,-1630.5555 343.7791,-1675.4445 372.7566,-1635 396.9592,-1601.2199 414.3121,-1541.5 372.7566,-1541.5"/>
<polygon fill="#000000" stroke="#000000" points="419.7544,-2968.2904 409.6622,-2964.001 414.7555,-2968.3952 409.7566,-2968.5 409.7566,-2968.5 409.7566,-2968.5 414.7555,-2968.3952 409.8509,-2972.999 419.7544,-2968.2904 419.7544,-2968.2904"/>
</g>
<!-- uniform_resource -->
<g id="node4" class="node">
<title>uniform_resource</title>
<polygon fill="#efefef" stroke="transparent" points="318.7566,-2313.5 318.7566,-2348.5 552.7566,-2348.5 552.7566,-2313.5 318.7566,-2313.5"/>
<polygon fill="none" stroke="#000000" points="318.7566,-2313.5 318.7566,-2348.5 552.7566,-2348.5 552.7566,-2313.5 318.7566,-2313.5"/>
<text text-anchor="start" x="329.5837" y="-2326.3" font-family="Arial Bold" font-size="18.00" fill="#000000">uniform_resource</text>
<text text-anchor="start" x="469.5985" y="-2326.3" font-family="Arial" font-size="14.00" fill="#000000">    </text>
<text text-anchor="start" x="503.8033" y="-2326.3" font-family="Arial" font-size="14.00" fill="#666666">[table]</text>
<polygon fill="none" stroke="#000000" points="318.7566,-2283.5 318.7566,-2313.5 552.7566,-2313.5 552.7566,-2283.5 318.7566,-2283.5"/>
<text text-anchor="start" x="325.7566" y="-2294.9" font-family="Arial" font-size="14.00" fill="#000000">uniform_resource_id    </text>
<text text-anchor="start" x="487.5336" y="-2294.9" font-family="Arial" font-size="14.00" fill="#666666">[ULID]</text>
<polygon fill="none" stroke="#000000" points="318.7566,-2253.5 318.7566,-2283.5 552.7566,-2283.5 552.7566,-2253.5 318.7566,-2253.5"/>
<text text-anchor="start" x="325.7566" y="-2264.9" font-family="Arial" font-size="14.00" fill="#000000">device_id    </text>
<text text-anchor="start" x="419.0876" y="-2264.9" font-family="Arial" font-size="14.00" fill="#666666">[ULID]</text>
<polygon fill="none" stroke="#000000" points="318.7566,-2223.5 318.7566,-2253.5 552.7566,-2253.5 552.7566,-2223.5 318.7566,-2223.5"/>
<text text-anchor="start" x="325.7566" y="-2234.9" font-family="Arial" font-size="14.00" fill="#000000">walk_session_id    </text>
<text text-anchor="start" x="461.866" y="-2234.9" font-family="Arial" font-size="14.00" fill="#666666">[ULID]</text>
<polygon fill="none" stroke="#000000" points="318.7566,-2193.5 318.7566,-2223.5 552.7566,-2223.5 552.7566,-2193.5 318.7566,-2193.5"/>
<text text-anchor="start" x="325.7566" y="-2204.9" font-family="Arial" font-size="14.00" fill="#000000">walk_path_id    </text>
<text text-anchor="start" x="441.65" y="-2204.9" font-family="Arial" font-size="14.00" fill="#666666">[ULID]</text>
<polygon fill="none" stroke="#000000" points="318.7566,-2163.5 318.7566,-2193.5 552.7566,-2193.5 552.7566,-2163.5 318.7566,-2163.5"/>
<text text-anchor="start" x="325.7566" y="-2174.9" font-family="Arial" font-size="14.00" fill="#000000">uri    </text>
<text text-anchor="start" x="375.5112" y="-2174.9" font-family="Arial" font-size="14.00" fill="#666666">[TEXT]</text>
<polygon fill="none" stroke="#000000" points="318.7566,-2133.5 318.7566,-2163.5 552.7566,-2163.5 552.7566,-2133.5 318.7566,-2133.5"/>
<text text-anchor="start" x="325.7566" y="-2144.9" font-family="Arial" font-size="14.00" fill="#000000">content_digest    </text>
<text text-anchor="start" x="451.0006" y="-2144.9" font-family="Arial" font-size="14.00" fill="#666666">[TEXT]</text>
<polygon fill="none" stroke="#000000" points="318.7566,-2103.5 318.7566,-2133.5 552.7566,-2133.5 552.7566,-2103.5 318.7566,-2103.5"/>
<text text-anchor="start" x="325.7566" y="-2114.9" font-family="Arial" font-size="14.00" fill="#000000">content    </text>
<text text-anchor="start" x="405.873" y="-2114.9" font-family="Arial" font-size="14.00" fill="#666666">[BLOB]</text>
<polygon fill="none" stroke="#000000" points="318.7566,-2073.5 318.7566,-2103.5 552.7566,-2103.5 552.7566,-2073.5 318.7566,-2073.5"/>
<text text-anchor="start" x="325.7566" y="-2084.9" font-family="Arial" font-size="14.00" fill="#000000">nature    </text>
<text text-anchor="start" x="399.643" y="-2084.9" font-family="Arial" font-size="14.00" fill="#666666">[TEXT]</text>
<polygon fill="none" stroke="#000000" points="318.7566,-2043.5 318.7566,-2073.5 552.7566,-2073.5 552.7566,-2043.5 318.7566,-2043.5"/>
<text text-anchor="start" x="325.7566" y="-2054.9" font-family="Arial" font-size="14.00" fill="#000000">size_bytes    </text>
<text text-anchor="start" x="426.089" y="-2054.9" font-family="Arial" font-size="14.00" fill="#666666">[INTEGER]</text>
<polygon fill="none" stroke="#000000" points="318.7566,-2013.5 318.7566,-2043.5 552.7566,-2043.5 552.7566,-2013.5 318.7566,-2013.5"/>
<text text-anchor="start" x="325.7566" y="-2024.9" font-family="Arial" font-size="14.00" fill="#000000">last_modified_at    </text>
<text text-anchor="start" x="461.8744" y="-2024.9" font-family="Arial" font-size="14.00" fill="#666666">[INTEGER]</text>
<polygon fill="none" stroke="#000000" points="318.7566,-1983.5 318.7566,-2013.5 552.7566,-2013.5 552.7566,-1983.5 318.7566,-1983.5"/>
<text text-anchor="start" x="325.683" y="-1994.9" font-family="Arial" font-size="14.00" fill="#000000">content_fm_body_attrs    </text>
<text text-anchor="start" x="502.2706" y="-1994.9" font-family="Arial" font-size="14.00" fill="#666666">[TEXT]</text>
<polygon fill="none" stroke="#000000" points="318.7566,-1953.5 318.7566,-1983.5 552.7566,-1983.5 552.7566,-1953.5 318.7566,-1953.5"/>
<text text-anchor="start" x="325.7566" y="-1964.9" font-family="Arial" font-size="14.00" fill="#000000">frontmatter    </text>
<text text-anchor="start" x="427.636" y="-1964.9" font-family="Arial" font-size="14.00" fill="#666666">[TEXT]</text>
<polygon fill="none" stroke="#000000" points="318.7566,-1923.5 318.7566,-1953.5 552.7566,-1953.5 552.7566,-1923.5 318.7566,-1923.5"/>
<text text-anchor="start" x="325.7566" y="-1934.9" font-family="Arial" font-size="14.00" fill="#000000">elaboration    </text>
<text text-anchor="start" x="429.204" y="-1934.9" font-family="Arial" font-size="14.00" fill="#666666">[TEXT]</text>
<polygon fill="none" stroke="#000000" points="318.7566,-1893.5 318.7566,-1923.5 552.7566,-1923.5 552.7566,-1893.5 318.7566,-1893.5"/>
<text text-anchor="start" x="325.7566" y="-1904.9" font-family="Arial" font-size="14.00" fill="#000000">created_at    </text>
<text text-anchor="start" x="426.0988" y="-1904.9" font-family="Arial" font-size="14.00" fill="#666666">[TIMESTAMP]</text>
<polygon fill="none" stroke="#000000" points="318.7566,-1863.5 318.7566,-1893.5 552.7566,-1893.5 552.7566,-1863.5 318.7566,-1863.5"/>
<text text-anchor="start" x="325.7566" y="-1874.9" font-family="Arial" font-size="14.00" fill="#000000">created_by    </text>
<text text-anchor="start" x="429.2082" y="-1874.9" font-family="Arial" font-size="14.00" fill="#666666">[TEXT]</text>
<polygon fill="none" stroke="#000000" points="318.7566,-1833.5 318.7566,-1863.5 552.7566,-1863.5 552.7566,-1833.5 318.7566,-1833.5"/>
<text text-anchor="start" x="325.7566" y="-1844.9" font-family="Arial" font-size="14.00" fill="#000000">updated_at    </text>
<text text-anchor="start" x="430.0034" y="-1844.9" font-family="Arial" font-size="14.00" fill="#666666">[TIMESTAMP]</text>
<polygon fill="none" stroke="#000000" points="318.7566,-1803.5 318.7566,-1833.5 552.7566,-1833.5 552.7566,-1803.5 318.7566,-1803.5"/>
<text text-anchor="start" x="325.7566" y="-1814.9" font-family="Arial" font-size="14.00" fill="#000000">updated_by    </text>
<text text-anchor="start" x="433.1128" y="-1814.9" font-family="Arial" font-size="14.00" fill="#666666">[TEXT]</text>
<polygon fill="none" stroke="#000000" points="318.7566,-1773.5 318.7566,-1803.5 552.7566,-1803.5 552.7566,-1773.5 318.7566,-1773.5"/>
<text text-anchor="start" x="325.7566" y="-1784.9" font-family="Arial" font-size="14.00" fill="#000000">deleted_at    </text>
<text text-anchor="start" x="425.3274" y="-1784.9" font-family="Arial" font-size="14.00" fill="#666666">[TIMESTAMP]</text>
<polygon fill="none" stroke="#000000" points="318.7566,-1743.5 318.7566,-1773.5 552.7566,-1773.5 552.7566,-1743.5 318.7566,-1743.5"/>
<text text-anchor="start" x="325.7566" y="-1754.9" font-family="Arial" font-size="14.00" fill="#000000">deleted_by    </text>
<text text-anchor="start" x="428.4368" y="-1754.9" font-family="Arial" font-size="14.00" fill="#666666">[TEXT]</text>
<polygon fill="none" stroke="#000000" points="318.7566,-1713.5 318.7566,-1743.5 552.7566,-1743.5 552.7566,-1713.5 318.7566,-1713.5"/>
<text text-anchor="start" x="325.7566" y="-1724.9" font-family="Arial" font-size="14.00" fill="#000000">activity_log    </text>
<text text-anchor="start" x="429.1928" y="-1724.9" font-family="Arial" font-size="14.00" fill="#666666">[TEXT]</text>
</g>
<!-- ur_walk_session_path_fs_entry&#45;&gt;uniform_resource -->
<g id="edge7" class="edge">
<title>ur_walk_session_path_fs_entry:uniform_resource_id&#45;&gt;uniform_resource:uniform_resource_id</title>
<path fill="none" stroke="#000000" d="M419.8364,-2938.2797C633.6319,-2928.7568 535.3825,-2612.7973 409.7566,-2428 385.3041,-2392.0301 343.209,-2427.9699 318.7566,-2392 295.3941,-2357.6335 277.201,-2298.5 318.7566,-2298.5"/>
<polygon fill="#000000" stroke="#000000" points="419.7542,-2938.2814 409.6582,-2934.0011 414.7554,-2938.3907 409.7566,-2938.5 409.7566,-2938.5 409.7566,-2938.5 414.7554,-2938.3907 409.855,-2942.9989 419.7542,-2938.2814 419.7542,-2938.2814"/>
</g>
<!-- device -->
<g id="node5" class="node">
<title>device</title>
<polygon fill="#efefef" stroke="transparent" points="256.7566,-462.5 256.7566,-497.5 463.7566,-497.5 463.7566,-462.5 256.7566,-462.5"/>
<polygon fill="none" stroke="#000000" points="256.7566,-462.5 256.7566,-497.5 463.7566,-497.5 463.7566,-462.5 256.7566,-462.5"/>
<text text-anchor="start" x="298.0847" y="-475.3" font-family="Arial Bold" font-size="18.00" fill="#000000">device</text>
<text text-anchor="start" x="350.0975" y="-475.3" font-family="Arial" font-size="14.00" fill="#000000">    </text>
<text text-anchor="start" x="384.3023" y="-475.3" font-family="Arial" font-size="14.00" fill="#666666">[table]</text>
<polygon fill="none" stroke="#000000" points="256.7566,-432.5 256.7566,-462.5 463.7566,-462.5 463.7566,-432.5 256.7566,-432.5"/>
<text text-anchor="start" x="263.7566" y="-443.9" font-family="Arial" font-size="14.00" fill="#000000">device_id    </text>
<text text-anchor="start" x="357.0876" y="-443.9" font-family="Arial" font-size="14.00" fill="#666666">[ULID]</text>
<polygon fill="none" stroke="#000000" points="256.7566,-402.5 256.7566,-432.5 463.7566,-432.5 463.7566,-402.5 256.7566,-402.5"/>
<text text-anchor="start" x="263.7566" y="-413.9" font-family="Arial" font-size="14.00" fill="#000000">name    </text>
<text text-anchor="start" x="332.9698" y="-413.9" font-family="Arial" font-size="14.00" fill="#666666">[TEXT]</text>
<polygon fill="none" stroke="#000000" points="256.7566,-372.5 256.7566,-402.5 463.7566,-402.5 463.7566,-372.5 256.7566,-372.5"/>
<text text-anchor="start" x="263.7566" y="-383.9" font-family="Arial" font-size="14.00" fill="#000000">state    </text>
<text text-anchor="start" x="328.3078" y="-383.9" font-family="Arial" font-size="14.00" fill="#666666">[TEXT]</text>
<polygon fill="none" stroke="#000000" points="256.7566,-342.5 256.7566,-372.5 463.7566,-372.5 463.7566,-342.5 256.7566,-342.5"/>
<text text-anchor="start" x="263.7566" y="-353.9" font-family="Arial" font-size="14.00" fill="#000000">boundary    </text>
<text text-anchor="start" x="356.3176" y="-353.9" font-family="Arial" font-size="14.00" fill="#666666">[TEXT]</text>
<polygon fill="none" stroke="#000000" points="256.7566,-312.5 256.7566,-342.5 463.7566,-342.5 463.7566,-312.5 256.7566,-312.5"/>
<text text-anchor="start" x="263.7566" y="-323.9" font-family="Arial" font-size="14.00" fill="#000000">segmentation    </text>
<text text-anchor="start" x="381.988" y="-323.9" font-family="Arial" font-size="14.00" fill="#666666">[TEXT]</text>
<polygon fill="none" stroke="#000000" points="256.7566,-282.5 256.7566,-312.5 463.7566,-312.5 463.7566,-282.5 256.7566,-282.5"/>
<text text-anchor="start" x="263.7566" y="-293.9" font-family="Arial" font-size="14.00" fill="#000000">state_sysinfo    </text>
<text text-anchor="start" x="379.6528" y="-293.9" font-family="Arial" font-size="14.00" fill="#666666">[TEXT]</text>
<polygon fill="none" stroke="#000000" points="256.7566,-252.5 256.7566,-282.5 463.7566,-282.5 463.7566,-252.5 256.7566,-252.5"/>
<text text-anchor="start" x="263.7566" y="-263.9" font-family="Arial" font-size="14.00" fill="#000000">elaboration    </text>
<text text-anchor="start" x="367.204" y="-263.9" font-family="Arial" font-size="14.00" fill="#666666">[TEXT]</text>
<polygon fill="none" stroke="#000000" points="256.7566,-222.5 256.7566,-252.5 463.7566,-252.5 463.7566,-222.5 256.7566,-222.5"/>
<text text-anchor="start" x="263.7566" y="-233.9" font-family="Arial" font-size="14.00" fill="#000000">created_at    </text>
<text text-anchor="start" x="364.0988" y="-233.9" font-family="Arial" font-size="14.00" fill="#666666">[TIMESTAMP]</text>
<polygon fill="none" stroke="#000000" points="256.7566,-192.5 256.7566,-222.5 463.7566,-222.5 463.7566,-192.5 256.7566,-192.5"/>
<text text-anchor="start" x="263.7566" y="-203.9" font-family="Arial" font-size="14.00" fill="#000000">created_by    </text>
<text text-anchor="start" x="367.2082" y="-203.9" font-family="Arial" font-size="14.00" fill="#666666">[TEXT]</text>
<polygon fill="none" stroke="#000000" points="256.7566,-162.5 256.7566,-192.5 463.7566,-192.5 463.7566,-162.5 256.7566,-162.5"/>
<text text-anchor="start" x="263.4109" y="-173.9" font-family="Arial" font-size="14.00" fill="#000000">updated_at    </text>
<text text-anchor="start" x="367.6577" y="-173.9" font-family="Arial" font-size="14.00" fill="#666666">[TIMESTAMP]</text>
<polygon fill="none" stroke="#000000" points="256.7566,-132.5 256.7566,-162.5 463.7566,-162.5 463.7566,-132.5 256.7566,-132.5"/>
<text text-anchor="start" x="263.7566" y="-143.9" font-family="Arial" font-size="14.00" fill="#000000">updated_by    </text>
<text text-anchor="start" x="371.1128" y="-143.9" font-family="Arial" font-size="14.00" fill="#666666">[TEXT]</text>
<polygon fill="none" stroke="#000000" points="256.7566,-102.5 256.7566,-132.5 463.7566,-132.5 463.7566,-102.5 256.7566,-102.5"/>
<text text-anchor="start" x="263.7566" y="-113.9" font-family="Arial" font-size="14.00" fill="#000000">deleted_at    </text>
<text text-anchor="start" x="363.3274" y="-113.9" font-family="Arial" font-size="14.00" fill="#666666">[TIMESTAMP]</text>
<polygon fill="none" stroke="#000000" points="256.7566,-72.5 256.7566,-102.5 463.7566,-102.5 463.7566,-72.5 256.7566,-72.5"/>
<text text-anchor="start" x="263.7566" y="-83.9" font-family="Arial" font-size="14.00" fill="#000000">deleted_by    </text>
<text text-anchor="start" x="366.4368" y="-83.9" font-family="Arial" font-size="14.00" fill="#666666">[TEXT]</text>
<polygon fill="none" stroke="#000000" points="256.7566,-42.5 256.7566,-72.5 463.7566,-72.5 463.7566,-42.5 256.7566,-42.5"/>
<text text-anchor="start" x="263.7566" y="-53.9" font-family="Arial" font-size="14.00" fill="#000000">activity_log    </text>
<text text-anchor="start" x="367.1928" y="-53.9" font-family="Arial" font-size="14.00" fill="#666666">[TEXT]</text>
</g>
<!-- ur_walk_session&#45;&gt;device -->
<g id="edge4" class="edge">
<title>ur_walk_session:device_id&#45;&gt;device:device_id</title>
<path fill="none" stroke="#000000" d="M395.7355,-1023.163C482.4109,-998.9617 443.7717,-653.4221 385.7566,-577 349.7654,-529.5896 292.7477,-588.4104 256.7566,-541 231.6301,-507.9013 215.201,-447.5 256.7566,-447.5"/>
<polygon fill="#000000" stroke="#000000" points="395.668,-1023.1719 385.159,-1020.0399 390.7123,-1023.836 385.7566,-1024.5 385.7566,-1024.5 385.7566,-1024.5 390.7123,-1023.836 386.3542,-1028.9601 395.668,-1023.1719 395.668,-1023.1719"/>
</g>
<!-- ur_walk_session_path&#45;&gt;ur_walk_session -->
<g id="edge2" class="edge">
<title>ur_walk_session_path:walk_session_id&#45;&gt;ur_walk_session:ur_walk_session_id</title>
<path fill="none" stroke="#000000" d="M382.7234,-1509.6102C442.9923,-1485.4378 417.7267,-1236.6277 372.7566,-1184 306.1119,-1106.0068 211.4013,-1225.9932 144.7566,-1148 117.7609,-1116.4074 103.201,-1054.5 144.7566,-1054.5"/>
<polygon fill="#000000" stroke="#000000" points="382.5815,-1509.637 371.9182,-1507.0788 377.6691,-1510.5685 372.7566,-1511.5 372.7566,-1511.5 372.7566,-1511.5 377.6691,-1510.5685 373.5949,-1515.9212 382.5815,-1509.637 382.5815,-1509.637"/>
</g>
<!-- uniform_resource&#45;&gt;ur_walk_session -->
<g id="edge3" class="edge">
<title>uniform_resource:walk_session_id&#45;&gt;ur_walk_session:ur_walk_session_id</title>
<path fill="none" stroke="#000000" d="M563.0357,-2237.4061C675.659,-2212.5978 620.4317,-1773.1569 552.7566,-1671 530.0989,-1636.7978 492.0136,-1668.0871 467.7566,-1635 390.7275,-1529.9307 516.0372,-1054.5 385.7566,-1054.5"/>
<polygon fill="#000000" stroke="#000000" points="562.7004,-2237.4417 552.2803,-2234.0253 557.7285,-2237.9708 552.7566,-2238.5 552.7566,-2238.5 552.7566,-2238.5 557.7285,-2237.9708 553.2328,-2242.9747 562.7004,-2237.4417 562.7004,-2237.4417"/>
</g>
<!-- uniform_resource&#45;&gt;ur_walk_session_path -->
<g id="edge6" class="edge">
<title>uniform_resource:walk_path_id&#45;&gt;ur_walk_session_path:ur_walk_session_path_id</title>
<path fill="none" stroke="#000000" d="M309.4696,-2204.0003C262.5967,-2154.9627 292.1723,-1720.6731 318.7566,-1671 332.3671,-1645.5686 359.1461,-1660.4314 372.7566,-1635 392.3649,-1598.3615 414.3121,-1541.5 372.7566,-1541.5"/>
<polygon fill="#000000" stroke="#000000" points="309.7573,-2204.1396 316.7944,-2212.5497 314.2569,-2206.3198 318.7566,-2208.5 318.7566,-2208.5 318.7566,-2208.5 314.2569,-2206.3198 320.7188,-2204.4503 309.7573,-2204.1396 309.7573,-2204.1396"/>
</g>
<!-- uniform_resource&#45;&gt;device -->
<g id="edge8" class="edge">
<title>uniform_resource:device_id&#45;&gt;device:device_id</title>
<path fill="none" stroke="#000000" d="M561.7002,-2263.2762C648.4695,-2156.4658 561.8788,-447.5 463.7566,-447.5"/>
<polygon fill="#000000" stroke="#000000" points="561.3916,-2263.4564 550.487,-2264.6143 557.0741,-2265.9782 552.7566,-2268.5 552.7566,-2268.5 552.7566,-2268.5 557.0741,-2265.9782 555.0262,-2272.3857 561.3916,-2263.4564 561.3916,-2263.4564"/>
</g>
</g>
</svg>
