<?xml version="1.0" encoding="UTF-8" standalone="no"?>
<!DOCTYPE svg PUBLIC "-//W3C//DTD SVG 1.1//EN"
 "http://www.w3.org/Graphics/SVG/1.1/DTD/svg11.dtd">
<!-- Generated by graphviz version 2.40.1 (20161225.0304)
 -->
<!-- Title: ur_walk_session_path_fs_entry Pages: 1 -->
<svg width="690pt" height="3073pt"
 viewBox="0.00 0.00 689.95 3073.00" xmlns="http://www.w3.org/2000/svg" xmlns:xlink="http://www.w3.org/1999/xlink">
<g id="graph0" class="graph" transform="scale(1 1) rotate(0) translate(4 3069)">
<title>ur_walk_session_path_fs_entry</title>
<polygon fill="#ffffff" stroke="transparent" points="-4,4 -4,-3069 685.9518,-3069 685.9518,4 -4,4"/>
<!-- ur_walk_session_path_fs_entry -->
<g id="node1" class="node">
<title>ur_walk_session_path_fs_entry</title>
<polygon fill="#efefef" stroke="transparent" points="125.5148,-2983.5 125.5148,-3018.5 463.5148,-3018.5 463.5148,-2983.5 125.5148,-2983.5"/>
<polygon fill="none" stroke="#000000" points="125.5148,-2983.5 125.5148,-3018.5 463.5148,-3018.5 463.5148,-2983.5 125.5148,-2983.5"/>
<text text-anchor="start" x="132.316" y="-2996.3" font-family="Arial Bold" font-size="18.00" fill="#000000">ur_walk_session_path_fs_entry</text>
<text text-anchor="start" x="384.3826" y="-2996.3" font-family="Arial" font-size="14.00" fill="#000000">    </text>
<text text-anchor="start" x="418.5874" y="-2996.3" font-family="Arial" font-size="14.00" fill="#666666">[table]</text>
<polygon fill="none" stroke="#000000" points="125.5148,-2953.5 125.5148,-2983.5 463.5148,-2983.5 463.5148,-2953.5 125.5148,-2953.5"/>
<text text-anchor="start" x="132.5148" y="-2964.9" font-family="Arial" font-size="14.00" fill="#000000">ur_walk_session_path_fs_entry_id </text>
<text text-anchor="start" x="351.129" y="-2964.9" font-family="Arial" font-size="14.00" fill="#666666">[ULID]</text>
<polygon fill="none" stroke="#000000" points="125.5148,-2923.5 125.5148,-2953.5 463.5148,-2953.5 463.5148,-2923.5 125.5148,-2923.5"/>
<text text-anchor="start" x="132.5148" y="-2934.9" font-family="Arial" font-size="14.00" fill="#000000">walk_session_id </text>
<text text-anchor="start" x="238.31" y="-2934.9" font-family="Arial" font-size="14.00" fill="#666666">[ULID]</text>
<polygon fill="none" stroke="#000000" points="125.5148,-2893.5 125.5148,-2923.5 463.5148,-2923.5 463.5148,-2893.5 125.5148,-2893.5"/>
<text text-anchor="start" x="132.5148" y="-2904.9" font-family="Arial" font-size="14.00" fill="#000000">walk_path_id </text>
<text text-anchor="start" x="218.094" y="-2904.9" font-family="Arial" font-size="14.00" fill="#666666">[ULID]</text>
<polygon fill="none" stroke="#000000" points="125.5148,-2863.5 125.5148,-2893.5 463.5148,-2893.5 463.5148,-2863.5 125.5148,-2863.5"/>
<text text-anchor="start" x="132.5148" y="-2874.9" font-family="Arial" font-size="14.00" fill="#000000">uniform_resource_id </text>
<text text-anchor="start" x="263.9776" y="-2874.9" font-family="Arial" font-size="14.00" fill="#666666">[ULID]</text>
<polygon fill="none" stroke="#000000" points="125.5148,-2833.5 125.5148,-2863.5 463.5148,-2863.5 463.5148,-2833.5 125.5148,-2833.5"/>
<text text-anchor="start" x="132.5148" y="-2844.9" font-family="Arial" font-size="14.00" fill="#000000">file_path_abs </text>
<text text-anchor="start" x="219.6606" y="-2844.9" font-family="Arial" font-size="14.00" fill="#666666">[TEXT]</text>
<polygon fill="none" stroke="#000000" points="125.5148,-2803.5 125.5148,-2833.5 463.5148,-2833.5 463.5148,-2803.5 125.5148,-2803.5"/>
<text text-anchor="start" x="132.5148" y="-2814.9" font-family="Arial" font-size="14.00" fill="#000000">file_path_rel_parent </text>
<text text-anchor="start" x="260.1094" y="-2814.9" font-family="Arial" font-size="14.00" fill="#666666">[TEXT]</text>
<polygon fill="none" stroke="#000000" points="125.5148,-2773.5 125.5148,-2803.5 463.5148,-2803.5 463.5148,-2773.5 125.5148,-2773.5"/>
<text text-anchor="start" x="132.5148" y="-2784.9" font-family="Arial" font-size="14.00" fill="#000000">file_path_rel </text>
<text text-anchor="start" x="212.6452" y="-2784.9" font-family="Arial" font-size="14.00" fill="#666666">[TEXT]</text>
<polygon fill="none" stroke="#000000" points="125.5148,-2743.5 125.5148,-2773.5 463.5148,-2773.5 463.5148,-2743.5 125.5148,-2743.5"/>
<text text-anchor="start" x="132.5148" y="-2754.9" font-family="Arial" font-size="14.00" fill="#000000">file_basename </text>
<text text-anchor="start" x="227.4306" y="-2754.9" font-family="Arial" font-size="14.00" fill="#666666">[TEXT]</text>
<polygon fill="none" stroke="#000000" points="125.5148,-2713.5 125.5148,-2743.5 463.5148,-2743.5 463.5148,-2713.5 125.5148,-2713.5"/>
<text text-anchor="start" x="132.5148" y="-2724.9" font-family="Arial" font-size="14.00" fill="#000000">file_extn </text>
<text text-anchor="start" x="188.5302" y="-2724.9" font-family="Arial" font-size="14.00" fill="#666666">[TEXT]</text>
<polygon fill="none" stroke="#000000" points="125.5148,-2683.5 125.5148,-2713.5 463.5148,-2713.5 463.5148,-2683.5 125.5148,-2683.5"/>
<text text-anchor="start" x="132.5148" y="-2694.9" font-family="Arial" font-size="14.00" fill="#000000">elaboration </text>
<text text-anchor="start" x="205.648" y="-2694.9" font-family="Arial" font-size="14.00" fill="#666666">[TEXT]</text>
<polygon fill="none" stroke="#000000" points="125.5148,-2653.5 125.5148,-2683.5 463.5148,-2683.5 463.5148,-2653.5 125.5148,-2653.5"/>
<text text-anchor="start" x="132.5148" y="-2664.9" font-family="Arial" font-size="14.00" fill="#000000">created_at </text>
<text text-anchor="start" x="202.5428" y="-2664.9" font-family="Arial" font-size="14.00" fill="#666666">[TIMESTAMP]</text>
<polygon fill="none" stroke="#000000" points="125.5148,-2623.5 125.5148,-2653.5 463.5148,-2653.5 463.5148,-2623.5 125.5148,-2623.5"/>
<text text-anchor="start" x="132.5148" y="-2634.9" font-family="Arial" font-size="14.00" fill="#000000">created_by </text>
<text text-anchor="start" x="205.6522" y="-2634.9" font-family="Arial" font-size="14.00" fill="#666666">[TEXT]</text>
<polygon fill="none" stroke="#000000" points="125.5148,-2593.5 125.5148,-2623.5 463.5148,-2623.5 463.5148,-2593.5 125.5148,-2593.5"/>
<text text-anchor="start" x="132.5148" y="-2604.9" font-family="Arial" font-size="14.00" fill="#000000">updated_at </text>
<text text-anchor="start" x="206.4474" y="-2604.9" font-family="Arial" font-size="14.00" fill="#666666">[TIMESTAMP]</text>
<polygon fill="none" stroke="#000000" points="125.5148,-2563.5 125.5148,-2593.5 463.5148,-2593.5 463.5148,-2563.5 125.5148,-2563.5"/>
<text text-anchor="start" x="132.5148" y="-2574.9" font-family="Arial" font-size="14.00" fill="#000000">updated_by </text>
<text text-anchor="start" x="209.5568" y="-2574.9" font-family="Arial" font-size="14.00" fill="#666666">[TEXT]</text>
<polygon fill="none" stroke="#000000" points="125.5148,-2533.5 125.5148,-2563.5 463.5148,-2563.5 463.5148,-2533.5 125.5148,-2533.5"/>
<text text-anchor="start" x="132.5148" y="-2544.9" font-family="Arial" font-size="14.00" fill="#000000">deleted_at </text>
<text text-anchor="start" x="201.7714" y="-2544.9" font-family="Arial" font-size="14.00" fill="#666666">[TIMESTAMP]</text>
<polygon fill="none" stroke="#000000" points="125.5148,-2503.5 125.5148,-2533.5 463.5148,-2533.5 463.5148,-2503.5 125.5148,-2503.5"/>
<text text-anchor="start" x="132.5148" y="-2514.9" font-family="Arial" font-size="14.00" fill="#000000">deleted_by </text>
<text text-anchor="start" x="204.8808" y="-2514.9" font-family="Arial" font-size="14.00" fill="#666666">[TEXT]</text>
<polygon fill="none" stroke="#000000" points="125.5148,-2473.5 125.5148,-2503.5 463.5148,-2503.5 463.5148,-2473.5 125.5148,-2473.5"/>
<text text-anchor="start" x="132.5148" y="-2484.9" font-family="Arial" font-size="14.00" fill="#000000">activity_log </text>
<text text-anchor="start" x="205.6368" y="-2484.9" font-family="Arial" font-size="14.00" fill="#666666">[TEXT]</text>
<polygon fill="none" stroke="#000000" stroke-width="3" points="124.0148,-2472.5 124.0148,-3020.5 465.0148,-3020.5 465.0148,-2472.5 124.0148,-2472.5"/>
</g>
<!-- ur_walk_session -->
<g id="node2" class="node">
<title>ur_walk_session</title>
<polygon fill="#efefef" stroke="transparent" points="198.5148,-1069.5 198.5148,-1104.5 439.5148,-1104.5 439.5148,-1069.5 198.5148,-1069.5"/>
<polygon fill="none" stroke="#000000" points="198.5148,-1069.5 198.5148,-1104.5 439.5148,-1104.5 439.5148,-1069.5 198.5148,-1069.5"/>
<text text-anchor="start" x="216.3402" y="-1082.3" font-family="Arial Bold" font-size="18.00" fill="#000000">ur_walk_session</text>
<text text-anchor="start" x="349.3584" y="-1082.3" font-family="Arial" font-size="14.00" fill="#000000">    </text>
<text text-anchor="start" x="383.5632" y="-1082.3" font-family="Arial" font-size="14.00" fill="#666666">[table]</text>
<polygon fill="none" stroke="#000000" points="198.5148,-1039.5 198.5148,-1069.5 439.5148,-1069.5 439.5148,-1039.5 198.5148,-1039.5"/>
<text text-anchor="start" x="205.5148" y="-1050.9" font-family="Arial" font-size="14.00" fill="#000000">ur_walk_session_id    </text>
<text text-anchor="start" x="361.85" y="-1050.9" font-family="Arial" font-size="14.00" fill="#666666">[ULID]</text>
<polygon fill="none" stroke="#000000" points="198.5148,-1009.5 198.5148,-1039.5 439.5148,-1039.5 439.5148,-1009.5 198.5148,-1009.5"/>
<text text-anchor="start" x="205.5148" y="-1020.9" font-family="Arial" font-size="14.00" fill="#000000">device_id    </text>
<text text-anchor="start" x="298.8458" y="-1020.9" font-family="Arial" font-size="14.00" fill="#666666">[ULID]</text>
<polygon fill="none" stroke="#000000" points="198.5148,-979.5 198.5148,-1009.5 439.5148,-1009.5 439.5148,-979.5 198.5148,-979.5"/>
<text text-anchor="start" x="205.5148" y="-990.9" font-family="Arial" font-size="14.00" fill="#000000">walk_started_at    </text>
<text text-anchor="start" x="337.7434" y="-990.9" font-family="Arial" font-size="14.00" fill="#666666">[TIMESTAMP]</text>
<polygon fill="none" stroke="#000000" points="198.5148,-949.5 198.5148,-979.5 439.5148,-979.5 439.5148,-949.5 198.5148,-949.5"/>
<text text-anchor="start" x="205.4559" y="-960.9" font-family="Arial" font-size="14.00" fill="#000000">walk_finished_at    </text>
<text text-anchor="start" x="343.1291" y="-960.9" font-family="Arial" font-size="14.00" fill="#666666">[TIMESTAMP]</text>
<polygon fill="none" stroke="#000000" points="198.5148,-919.5 198.5148,-949.5 439.5148,-949.5 439.5148,-919.5 198.5148,-919.5"/>
<text text-anchor="start" x="205.5148" y="-930.9" font-family="Arial" font-size="14.00" fill="#000000">ignore_paths_regex    </text>
<text text-anchor="start" x="363.4292" y="-930.9" font-family="Arial" font-size="14.00" fill="#666666">[TEXT]</text>
<polygon fill="none" stroke="#000000" points="198.5148,-889.5 198.5148,-919.5 439.5148,-919.5 439.5148,-889.5 198.5148,-889.5"/>
<text text-anchor="start" x="205.5148" y="-900.9" font-family="Arial" font-size="14.00" fill="#000000">blobs_regex    </text>
<text text-anchor="start" x="315.965" y="-900.9" font-family="Arial" font-size="14.00" fill="#666666">[TEXT]</text>
<polygon fill="none" stroke="#000000" points="198.5148,-859.5 198.5148,-889.5 439.5148,-889.5 439.5148,-859.5 198.5148,-859.5"/>
<text text-anchor="start" x="205.5148" y="-870.9" font-family="Arial" font-size="14.00" fill="#000000">digests_regex    </text>
<text text-anchor="start" x="326.8556" y="-870.9" font-family="Arial" font-size="14.00" fill="#666666">[TEXT]</text>
<polygon fill="none" stroke="#000000" points="198.5148,-829.5 198.5148,-859.5 439.5148,-859.5 439.5148,-829.5 198.5148,-829.5"/>
<text text-anchor="start" x="205.5148" y="-840.9" font-family="Arial" font-size="14.00" fill="#000000">elaboration    </text>
<text text-anchor="start" x="308.9622" y="-840.9" font-family="Arial" font-size="14.00" fill="#666666">[TEXT]</text>
<polygon fill="none" stroke="#000000" points="198.5148,-799.5 198.5148,-829.5 439.5148,-829.5 439.5148,-799.5 198.5148,-799.5"/>
<text text-anchor="start" x="205.5148" y="-810.9" font-family="Arial" font-size="14.00" fill="#000000">created_at    </text>
<text text-anchor="start" x="305.857" y="-810.9" font-family="Arial" font-size="14.00" fill="#666666">[TIMESTAMP]</text>
<polygon fill="none" stroke="#000000" points="198.5148,-769.5 198.5148,-799.5 439.5148,-799.5 439.5148,-769.5 198.5148,-769.5"/>
<text text-anchor="start" x="205.5148" y="-780.9" font-family="Arial" font-size="14.00" fill="#000000">created_by    </text>
<text text-anchor="start" x="308.9664" y="-780.9" font-family="Arial" font-size="14.00" fill="#666666">[TEXT]</text>
<polygon fill="none" stroke="#000000" points="198.5148,-739.5 198.5148,-769.5 439.5148,-769.5 439.5148,-739.5 198.5148,-739.5"/>
<text text-anchor="start" x="205.5148" y="-750.9" font-family="Arial" font-size="14.00" fill="#000000">updated_at    </text>
<text text-anchor="start" x="309.7616" y="-750.9" font-family="Arial" font-size="14.00" fill="#666666">[TIMESTAMP]</text>
<polygon fill="none" stroke="#000000" points="198.5148,-709.5 198.5148,-739.5 439.5148,-739.5 439.5148,-709.5 198.5148,-709.5"/>
<text text-anchor="start" x="205.5148" y="-720.9" font-family="Arial" font-size="14.00" fill="#000000">updated_by    </text>
<text text-anchor="start" x="312.871" y="-720.9" font-family="Arial" font-size="14.00" fill="#666666">[TEXT]</text>
<polygon fill="none" stroke="#000000" points="198.5148,-679.5 198.5148,-709.5 439.5148,-709.5 439.5148,-679.5 198.5148,-679.5"/>
<text text-anchor="start" x="205.5148" y="-690.9" font-family="Arial" font-size="14.00" fill="#000000">deleted_at    </text>
<text text-anchor="start" x="305.0856" y="-690.9" font-family="Arial" font-size="14.00" fill="#666666">[TIMESTAMP]</text>
<polygon fill="none" stroke="#000000" points="198.5148,-649.5 198.5148,-679.5 439.5148,-679.5 439.5148,-649.5 198.5148,-649.5"/>
<text text-anchor="start" x="205.5148" y="-660.9" font-family="Arial" font-size="14.00" fill="#000000">deleted_by    </text>
<text text-anchor="start" x="308.195" y="-660.9" font-family="Arial" font-size="14.00" fill="#666666">[TEXT]</text>
<polygon fill="none" stroke="#000000" points="198.5148,-619.5 198.5148,-649.5 439.5148,-649.5 439.5148,-619.5 198.5148,-619.5"/>
<text text-anchor="start" x="205.5148" y="-630.9" font-family="Arial" font-size="14.00" fill="#000000">activity_log    </text>
<text text-anchor="start" x="308.951" y="-630.9" font-family="Arial" font-size="14.00" fill="#666666">[TEXT]</text>
</g>
<!-- ur_walk_session_path_fs_entry&#45;&gt;ur_walk_session -->
<g id="edge1" class="edge">
<title>ur_walk_session_path_fs_entry:walk_session_id&#45;&gt;ur_walk_session:ur_walk_session_id</title>
<path fill="none" stroke="#000000" d="M115.6075,-2937.0483C-81.5876,-2878.2743 -7.6,-1054.5 198.5148,-1054.5"/>
<polygon fill="#000000" stroke="#000000" points="115.6204,-2937.0501 124.8623,-2942.9525 120.5676,-2937.7751 125.5148,-2938.5 125.5148,-2938.5 125.5148,-2938.5 120.5676,-2937.7751 126.1672,-2934.0475 115.6204,-2937.0501 115.6204,-2937.0501"/>
</g>
<!-- ur_walk_session_path -->
<g id="node3" class="node">
<title>ur_walk_session_path</title>
<polygon fill="#efefef" stroke="transparent" points="162.5148,-1556.5 162.5148,-1591.5 426.5148,-1591.5 426.5148,-1556.5 162.5148,-1556.5"/>
<polygon fill="none" stroke="#000000" points="162.5148,-1556.5 162.5148,-1591.5 426.5148,-1591.5 426.5148,-1556.5 162.5148,-1556.5"/>
<text text-anchor="start" x="169.3267" y="-1569.3" font-family="Arial Bold" font-size="18.00" fill="#000000">ur_walk_session_path</text>
<text text-anchor="start" x="347.3719" y="-1569.3" font-family="Arial" font-size="14.00" fill="#000000">    </text>
<text text-anchor="start" x="381.5767" y="-1569.3" font-family="Arial" font-size="14.00" fill="#666666">[table]</text>
<polygon fill="none" stroke="#000000" points="162.5148,-1526.5 162.5148,-1556.5 426.5148,-1556.5 426.5148,-1526.5 162.5148,-1526.5"/>
<text text-anchor="start" x="169.5148" y="-1537.9" font-family="Arial" font-size="14.00" fill="#000000">ur_walk_session_path_id    </text>
<text text-anchor="start" x="360.871" y="-1537.9" font-family="Arial" font-size="14.00" fill="#666666">[ULID]</text>
<polygon fill="none" stroke="#000000" points="162.5148,-1496.5 162.5148,-1526.5 426.5148,-1526.5 426.5148,-1496.5 162.5148,-1496.5"/>
<text text-anchor="start" x="169.5148" y="-1507.9" font-family="Arial" font-size="14.00" fill="#000000">walk_session_id    </text>
<text text-anchor="start" x="305.6242" y="-1507.9" font-family="Arial" font-size="14.00" fill="#666666">[ULID]</text>
<polygon fill="none" stroke="#000000" points="162.5148,-1466.5 162.5148,-1496.5 426.5148,-1496.5 426.5148,-1466.5 162.5148,-1466.5"/>
<text text-anchor="start" x="169.5148" y="-1477.9" font-family="Arial" font-size="14.00" fill="#000000">root_path    </text>
<text text-anchor="start" x="262.857" y="-1477.9" font-family="Arial" font-size="14.00" fill="#666666">[TEXT]</text>
<polygon fill="none" stroke="#000000" points="162.5148,-1436.5 162.5148,-1466.5 426.5148,-1466.5 426.5148,-1436.5 162.5148,-1436.5"/>
<text text-anchor="start" x="169.5148" y="-1447.9" font-family="Arial" font-size="14.00" fill="#000000">elaboration    </text>
<text text-anchor="start" x="272.9622" y="-1447.9" font-family="Arial" font-size="14.00" fill="#666666">[TEXT]</text>
<polygon fill="none" stroke="#000000" points="162.5148,-1406.5 162.5148,-1436.5 426.5148,-1436.5 426.5148,-1406.5 162.5148,-1406.5"/>
<text text-anchor="start" x="169.5148" y="-1417.9" font-family="Arial" font-size="14.00" fill="#000000">created_at    </text>
<text text-anchor="start" x="269.857" y="-1417.9" font-family="Arial" font-size="14.00" fill="#666666">[TIMESTAMP]</text>
<polygon fill="none" stroke="#000000" points="162.5148,-1376.5 162.5148,-1406.5 426.5148,-1406.5 426.5148,-1376.5 162.5148,-1376.5"/>
<text text-anchor="start" x="169.5148" y="-1387.9" font-family="Arial" font-size="14.00" fill="#000000">created_by    </text>
<text text-anchor="start" x="272.9664" y="-1387.9" font-family="Arial" font-size="14.00" fill="#666666">[TEXT]</text>
<polygon fill="none" stroke="#000000" points="162.5148,-1346.5 162.5148,-1376.5 426.5148,-1376.5 426.5148,-1346.5 162.5148,-1346.5"/>
<text text-anchor="start" x="169.5148" y="-1357.9" font-family="Arial" font-size="14.00" fill="#000000">updated_at    </text>
<text text-anchor="start" x="273.7616" y="-1357.9" font-family="Arial" font-size="14.00" fill="#666666">[TIMESTAMP]</text>
<polygon fill="none" stroke="#000000" points="162.5148,-1316.5 162.5148,-1346.5 426.5148,-1346.5 426.5148,-1316.5 162.5148,-1316.5"/>
<text text-anchor="start" x="169.5148" y="-1327.9" font-family="Arial" font-size="14.00" fill="#000000">updated_by    </text>
<text text-anchor="start" x="276.871" y="-1327.9" font-family="Arial" font-size="14.00" fill="#666666">[TEXT]</text>
<polygon fill="none" stroke="#000000" points="162.5148,-1286.5 162.5148,-1316.5 426.5148,-1316.5 426.5148,-1286.5 162.5148,-1286.5"/>
<text text-anchor="start" x="169.5148" y="-1297.9" font-family="Arial" font-size="14.00" fill="#000000">deleted_at    </text>
<text text-anchor="start" x="269.0856" y="-1297.9" font-family="Arial" font-size="14.00" fill="#666666">[TIMESTAMP]</text>
<polygon fill="none" stroke="#000000" points="162.5148,-1256.5 162.5148,-1286.5 426.5148,-1286.5 426.5148,-1256.5 162.5148,-1256.5"/>
<text text-anchor="start" x="169.5148" y="-1267.9" font-family="Arial" font-size="14.00" fill="#000000">deleted_by    </text>
<text text-anchor="start" x="272.195" y="-1267.9" font-family="Arial" font-size="14.00" fill="#666666">[TEXT]</text>
<polygon fill="none" stroke="#000000" points="162.5148,-1226.5 162.5148,-1256.5 426.5148,-1256.5 426.5148,-1226.5 162.5148,-1226.5"/>
<text text-anchor="start" x="169.5148" y="-1237.9" font-family="Arial" font-size="14.00" fill="#000000">activity_log    </text>
<text text-anchor="start" x="272.951" y="-1237.9" font-family="Arial" font-size="14.00" fill="#666666">[TEXT]</text>
</g>
<!-- ur_walk_session_path_fs_entry&#45;&gt;ur_walk_session_path -->
<g id="edge5" class="edge">
<title>ur_walk_session_path_fs_entry:walk_path_id&#45;&gt;ur_walk_session_path:ur_walk_session_path_id</title>
<path fill="none" stroke="#000000" d="M473.6086,-2908.2588C674.4064,-2898.4805 592.6856,-2593.7197 463.5148,-2428 423.224,-2376.309 360.8056,-2443.691 320.5148,-2392 123.5171,-2139.2619 133.8827,-1931.4863 320.5148,-1671 349.4923,-1630.5555 397.5373,-1675.4445 426.5148,-1635 450.7174,-1601.2199 468.0703,-1541.5 426.5148,-1541.5"/>
<polygon fill="#000000" stroke="#000000" points="473.5119,-2908.261 463.4073,-2904.0013 468.5134,-2908.3805 463.5148,-2908.5 463.5148,-2908.5 463.5148,-2908.5 468.5134,-2908.3805 463.6223,-2912.9987 473.5119,-2908.261 473.5119,-2908.261"/>
</g>
<!-- uniform_resource -->
<g id="node4" class="node">
<title>uniform_resource</title>
<polygon fill="#efefef" stroke="transparent" points="372.5148,-2313.5 372.5148,-2348.5 606.5148,-2348.5 606.5148,-2313.5 372.5148,-2313.5"/>
<polygon fill="none" stroke="#000000" points="372.5148,-2313.5 372.5148,-2348.5 606.5148,-2348.5 606.5148,-2313.5 372.5148,-2313.5"/>
<text text-anchor="start" x="383.3419" y="-2326.3" font-family="Arial Bold" font-size="18.00" fill="#000000">uniform_resource</text>
<text text-anchor="start" x="523.3567" y="-2326.3" font-family="Arial" font-size="14.00" fill="#000000">    </text>
<text text-anchor="start" x="557.5615" y="-2326.3" font-family="Arial" font-size="14.00" fill="#666666">[table]</text>
<polygon fill="none" stroke="#000000" points="372.5148,-2283.5 372.5148,-2313.5 606.5148,-2313.5 606.5148,-2283.5 372.5148,-2283.5"/>
<text text-anchor="start" x="379.5148" y="-2294.9" font-family="Arial" font-size="14.00" fill="#000000">uniform_resource_id    </text>
<text text-anchor="start" x="541.2918" y="-2294.9" font-family="Arial" font-size="14.00" fill="#666666">[ULID]</text>
<polygon fill="none" stroke="#000000" points="372.5148,-2253.5 372.5148,-2283.5 606.5148,-2283.5 606.5148,-2253.5 372.5148,-2253.5"/>
<text text-anchor="start" x="379.5148" y="-2264.9" font-family="Arial" font-size="14.00" fill="#000000">device_id    </text>
<text text-anchor="start" x="472.8458" y="-2264.9" font-family="Arial" font-size="14.00" fill="#666666">[ULID]</text>
<polygon fill="none" stroke="#000000" points="372.5148,-2223.5 372.5148,-2253.5 606.5148,-2253.5 606.5148,-2223.5 372.5148,-2223.5"/>
<text text-anchor="start" x="379.5148" y="-2234.9" font-family="Arial" font-size="14.00" fill="#000000">walk_session_id    </text>
<text text-anchor="start" x="515.6242" y="-2234.9" font-family="Arial" font-size="14.00" fill="#666666">[ULID]</text>
<polygon fill="none" stroke="#000000" points="372.5148,-2193.5 372.5148,-2223.5 606.5148,-2223.5 606.5148,-2193.5 372.5148,-2193.5"/>
<text text-anchor="start" x="379.5148" y="-2204.9" font-family="Arial" font-size="14.00" fill="#000000">walk_path_id    </text>
<text text-anchor="start" x="495.4082" y="-2204.9" font-family="Arial" font-size="14.00" fill="#666666">[ULID]</text>
<polygon fill="none" stroke="#000000" points="372.5148,-2163.5 372.5148,-2193.5 606.5148,-2193.5 606.5148,-2163.5 372.5148,-2163.5"/>
<text text-anchor="start" x="379.5148" y="-2174.9" font-family="Arial" font-size="14.00" fill="#000000">uri    </text>
<text text-anchor="start" x="429.2694" y="-2174.9" font-family="Arial" font-size="14.00" fill="#666666">[TEXT]</text>
<polygon fill="none" stroke="#000000" points="372.5148,-2133.5 372.5148,-2163.5 606.5148,-2163.5 606.5148,-2133.5 372.5148,-2133.5"/>
<text text-anchor="start" x="379.5148" y="-2144.9" font-family="Arial" font-size="14.00" fill="#000000">content_digest    </text>
<text text-anchor="start" x="504.7588" y="-2144.9" font-family="Arial" font-size="14.00" fill="#666666">[TEXT]</text>
<polygon fill="none" stroke="#000000" points="372.5148,-2103.5 372.5148,-2133.5 606.5148,-2133.5 606.5148,-2103.5 372.5148,-2103.5"/>
<text text-anchor="start" x="379.5148" y="-2114.9" font-family="Arial" font-size="14.00" fill="#000000">content    </text>
<text text-anchor="start" x="459.6312" y="-2114.9" font-family="Arial" font-size="14.00" fill="#666666">[BLOB]</text>
<polygon fill="none" stroke="#000000" points="372.5148,-2073.5 372.5148,-2103.5 606.5148,-2103.5 606.5148,-2073.5 372.5148,-2073.5"/>
<text text-anchor="start" x="379.5148" y="-2084.9" font-family="Arial" font-size="14.00" fill="#000000">nature    </text>
<text text-anchor="start" x="453.4012" y="-2084.9" font-family="Arial" font-size="14.00" fill="#666666">[TEXT]</text>
<polygon fill="none" stroke="#000000" points="372.5148,-2043.5 372.5148,-2073.5 606.5148,-2073.5 606.5148,-2043.5 372.5148,-2043.5"/>
<text text-anchor="start" x="379.5148" y="-2054.9" font-family="Arial" font-size="14.00" fill="#000000">size_bytes    </text>
<text text-anchor="start" x="479.8472" y="-2054.9" font-family="Arial" font-size="14.00" fill="#666666">[INTEGER]</text>
<polygon fill="none" stroke="#000000" points="372.5148,-2013.5 372.5148,-2043.5 606.5148,-2043.5 606.5148,-2013.5 372.5148,-2013.5"/>
<text text-anchor="start" x="379.5148" y="-2024.9" font-family="Arial" font-size="14.00" fill="#000000">last_modified_at    </text>
<text text-anchor="start" x="515.6326" y="-2024.9" font-family="Arial" font-size="14.00" fill="#666666">[INTEGER]</text>
<polygon fill="none" stroke="#000000" points="372.5148,-1983.5 372.5148,-2013.5 606.5148,-2013.5 606.5148,-1983.5 372.5148,-1983.5"/>
<text text-anchor="start" x="379.4412" y="-1994.9" font-family="Arial" font-size="14.00" fill="#000000">content_fm_body_attrs    </text>
<text text-anchor="start" x="556.0288" y="-1994.9" font-family="Arial" font-size="14.00" fill="#666666">[TEXT]</text>
<polygon fill="none" stroke="#000000" points="372.5148,-1953.5 372.5148,-1983.5 606.5148,-1983.5 606.5148,-1953.5 372.5148,-1953.5"/>
<text text-anchor="start" x="379.5148" y="-1964.9" font-family="Arial" font-size="14.00" fill="#000000">frontmatter    </text>
<text text-anchor="start" x="481.3942" y="-1964.9" font-family="Arial" font-size="14.00" fill="#666666">[TEXT]</text>
<polygon fill="none" stroke="#000000" points="372.5148,-1923.5 372.5148,-1953.5 606.5148,-1953.5 606.5148,-1923.5 372.5148,-1923.5"/>
<text text-anchor="start" x="379.5148" y="-1934.9" font-family="Arial" font-size="14.00" fill="#000000">elaboration    </text>
<text text-anchor="start" x="482.9622" y="-1934.9" font-family="Arial" font-size="14.00" fill="#666666">[TEXT]</text>
<polygon fill="none" stroke="#000000" points="372.5148,-1893.5 372.5148,-1923.5 606.5148,-1923.5 606.5148,-1893.5 372.5148,-1893.5"/>
<text text-anchor="start" x="379.5148" y="-1904.9" font-family="Arial" font-size="14.00" fill="#000000">created_at    </text>
<text text-anchor="start" x="479.857" y="-1904.9" font-family="Arial" font-size="14.00" fill="#666666">[TIMESTAMP]</text>
<polygon fill="none" stroke="#000000" points="372.5148,-1863.5 372.5148,-1893.5 606.5148,-1893.5 606.5148,-1863.5 372.5148,-1863.5"/>
<text text-anchor="start" x="379.5148" y="-1874.9" font-family="Arial" font-size="14.00" fill="#000000">created_by    </text>
<text text-anchor="start" x="482.9664" y="-1874.9" font-family="Arial" font-size="14.00" fill="#666666">[TEXT]</text>
<polygon fill="none" stroke="#000000" points="372.5148,-1833.5 372.5148,-1863.5 606.5148,-1863.5 606.5148,-1833.5 372.5148,-1833.5"/>
<text text-anchor="start" x="379.5148" y="-1844.9" font-family="Arial" font-size="14.00" fill="#000000">updated_at    </text>
<text text-anchor="start" x="483.7616" y="-1844.9" font-family="Arial" font-size="14.00" fill="#666666">[TIMESTAMP]</text>
<polygon fill="none" stroke="#000000" points="372.5148,-1803.5 372.5148,-1833.5 606.5148,-1833.5 606.5148,-1803.5 372.5148,-1803.5"/>
<text text-anchor="start" x="379.5148" y="-1814.9" font-family="Arial" font-size="14.00" fill="#000000">updated_by    </text>
<text text-anchor="start" x="486.871" y="-1814.9" font-family="Arial" font-size="14.00" fill="#666666">[TEXT]</text>
<polygon fill="none" stroke="#000000" points="372.5148,-1773.5 372.5148,-1803.5 606.5148,-1803.5 606.5148,-1773.5 372.5148,-1773.5"/>
<text text-anchor="start" x="379.5148" y="-1784.9" font-family="Arial" font-size="14.00" fill="#000000">deleted_at    </text>
<text text-anchor="start" x="479.0856" y="-1784.9" font-family="Arial" font-size="14.00" fill="#666666">[TIMESTAMP]</text>
<polygon fill="none" stroke="#000000" points="372.5148,-1743.5 372.5148,-1773.5 606.5148,-1773.5 606.5148,-1743.5 372.5148,-1743.5"/>
<text text-anchor="start" x="379.5148" y="-1754.9" font-family="Arial" font-size="14.00" fill="#000000">deleted_by    </text>
<text text-anchor="start" x="482.195" y="-1754.9" font-family="Arial" font-size="14.00" fill="#666666">[TEXT]</text>
<polygon fill="none" stroke="#000000" points="372.5148,-1713.5 372.5148,-1743.5 606.5148,-1743.5 606.5148,-1713.5 372.5148,-1713.5"/>
<text text-anchor="start" x="379.5148" y="-1724.9" font-family="Arial" font-size="14.00" fill="#000000">activity_log    </text>
<text text-anchor="start" x="482.951" y="-1724.9" font-family="Arial" font-size="14.00" fill="#666666">[TEXT]</text>
</g>
<!-- ur_walk_session_path_fs_entry&#45;&gt;uniform_resource -->
<g id="edge7" class="edge">
<title>ur_walk_session_path_fs_entry:uniform_resource_id&#45;&gt;uniform_resource:uniform_resource_id</title>
<path fill="none" stroke="#000000" d="M473.5292,-2878.2524C660.7336,-2868.7965 574.1558,-2590.7544 463.5148,-2428 439.0623,-2392.0301 396.9672,-2427.9699 372.5148,-2392 349.1523,-2357.6335 330.9592,-2298.5 372.5148,-2298.5"/>
<polygon fill="#000000" stroke="#000000" points="473.5117,-2878.2527 463.4035,-2874.0014 468.5133,-2878.3764 463.5148,-2878.5 463.5148,-2878.5 463.5148,-2878.5 468.5133,-2878.3764 463.6261,-2882.9986 473.5117,-2878.2527 473.5117,-2878.2527"/>
</g>
<!-- device -->
<g id="node5" class="node">
<title>device</title>
<polygon fill="#efefef" stroke="transparent" points="310.5148,-462.5 310.5148,-497.5 517.5148,-497.5 517.5148,-462.5 310.5148,-462.5"/>
<polygon fill="none" stroke="#000000" points="310.5148,-462.5 310.5148,-497.5 517.5148,-497.5 517.5148,-462.5 310.5148,-462.5"/>
<text text-anchor="start" x="351.8429" y="-475.3" font-family="Arial Bold" font-size="18.00" fill="#000000">device</text>
<text text-anchor="start" x="403.8557" y="-475.3" font-family="Arial" font-size="14.00" fill="#000000">    </text>
<text text-anchor="start" x="438.0605" y="-475.3" font-family="Arial" font-size="14.00" fill="#666666">[table]</text>
<polygon fill="none" stroke="#000000" points="310.5148,-432.5 310.5148,-462.5 517.5148,-462.5 517.5148,-432.5 310.5148,-432.5"/>
<text text-anchor="start" x="317.5148" y="-443.9" font-family="Arial" font-size="14.00" fill="#000000">device_id    </text>
<text text-anchor="start" x="410.8458" y="-443.9" font-family="Arial" font-size="14.00" fill="#666666">[ULID]</text>
<polygon fill="none" stroke="#000000" points="310.5148,-402.5 310.5148,-432.5 517.5148,-432.5 517.5148,-402.5 310.5148,-402.5"/>
<text text-anchor="start" x="317.5148" y="-413.9" font-family="Arial" font-size="14.00" fill="#000000">name    </text>
<text text-anchor="start" x="386.728" y="-413.9" font-family="Arial" font-size="14.00" fill="#666666">[TEXT]</text>
<polygon fill="none" stroke="#000000" points="310.5148,-372.5 310.5148,-402.5 517.5148,-402.5 517.5148,-372.5 310.5148,-372.5"/>
<text text-anchor="start" x="317.5148" y="-383.9" font-family="Arial" font-size="14.00" fill="#000000">state    </text>
<text text-anchor="start" x="382.066" y="-383.9" font-family="Arial" font-size="14.00" fill="#666666">[TEXT]</text>
<polygon fill="none" stroke="#000000" points="310.5148,-342.5 310.5148,-372.5 517.5148,-372.5 517.5148,-342.5 310.5148,-342.5"/>
<text text-anchor="start" x="317.5148" y="-353.9" font-family="Arial" font-size="14.00" fill="#000000">boundary    </text>
<text text-anchor="start" x="410.0758" y="-353.9" font-family="Arial" font-size="14.00" fill="#666666">[TEXT]</text>
<polygon fill="none" stroke="#000000" points="310.5148,-312.5 310.5148,-342.5 517.5148,-342.5 517.5148,-312.5 310.5148,-312.5"/>
<text text-anchor="start" x="317.5148" y="-323.9" font-family="Arial" font-size="14.00" fill="#000000">segmentation    </text>
<text text-anchor="start" x="435.7462" y="-323.9" font-family="Arial" font-size="14.00" fill="#666666">[TEXT]</text>
<polygon fill="none" stroke="#000000" points="310.5148,-282.5 310.5148,-312.5 517.5148,-312.5 517.5148,-282.5 310.5148,-282.5"/>
<text text-anchor="start" x="317.5148" y="-293.9" font-family="Arial" font-size="14.00" fill="#000000">state_sysinfo    </text>
<text text-anchor="start" x="433.411" y="-293.9" font-family="Arial" font-size="14.00" fill="#666666">[TEXT]</text>
<polygon fill="none" stroke="#000000" points="310.5148,-252.5 310.5148,-282.5 517.5148,-282.5 517.5148,-252.5 310.5148,-252.5"/>
<text text-anchor="start" x="317.5148" y="-263.9" font-family="Arial" font-size="14.00" fill="#000000">elaboration    </text>
<text text-anchor="start" x="420.9622" y="-263.9" font-family="Arial" font-size="14.00" fill="#666666">[TEXT]</text>
<polygon fill="none" stroke="#000000" points="310.5148,-222.5 310.5148,-252.5 517.5148,-252.5 517.5148,-222.5 310.5148,-222.5"/>
<text text-anchor="start" x="317.5148" y="-233.9" font-family="Arial" font-size="14.00" fill="#000000">created_at    </text>
<text text-anchor="start" x="417.857" y="-233.9" font-family="Arial" font-size="14.00" fill="#666666">[TIMESTAMP]</text>
<polygon fill="none" stroke="#000000" points="310.5148,-192.5 310.5148,-222.5 517.5148,-222.5 517.5148,-192.5 310.5148,-192.5"/>
<text text-anchor="start" x="317.5148" y="-203.9" font-family="Arial" font-size="14.00" fill="#000000">created_by    </text>
<text text-anchor="start" x="420.9664" y="-203.9" font-family="Arial" font-size="14.00" fill="#666666">[TEXT]</text>
<polygon fill="none" stroke="#000000" points="310.5148,-162.5 310.5148,-192.5 517.5148,-192.5 517.5148,-162.5 310.5148,-162.5"/>
<text text-anchor="start" x="317.1691" y="-173.9" font-family="Arial" font-size="14.00" fill="#000000">updated_at    </text>
<text text-anchor="start" x="421.4159" y="-173.9" font-family="Arial" font-size="14.00" fill="#666666">[TIMESTAMP]</text>
<polygon fill="none" stroke="#000000" points="310.5148,-132.5 310.5148,-162.5 517.5148,-162.5 517.5148,-132.5 310.5148,-132.5"/>
<text text-anchor="start" x="317.5148" y="-143.9" font-family="Arial" font-size="14.00" fill="#000000">updated_by    </text>
<text text-anchor="start" x="424.871" y="-143.9" font-family="Arial" font-size="14.00" fill="#666666">[TEXT]</text>
<polygon fill="none" stroke="#000000" points="310.5148,-102.5 310.5148,-132.5 517.5148,-132.5 517.5148,-102.5 310.5148,-102.5"/>
<text text-anchor="start" x="317.5148" y="-113.9" font-family="Arial" font-size="14.00" fill="#000000">deleted_at    </text>
<text text-anchor="start" x="417.0856" y="-113.9" font-family="Arial" font-size="14.00" fill="#666666">[TIMESTAMP]</text>
<polygon fill="none" stroke="#000000" points="310.5148,-72.5 310.5148,-102.5 517.5148,-102.5 517.5148,-72.5 310.5148,-72.5"/>
<text text-anchor="start" x="317.5148" y="-83.9" font-family="Arial" font-size="14.00" fill="#000000">deleted_by    </text>
<text text-anchor="start" x="420.195" y="-83.9" font-family="Arial" font-size="14.00" fill="#666666">[TEXT]</text>
<polygon fill="none" stroke="#000000" points="310.5148,-42.5 310.5148,-72.5 517.5148,-72.5 517.5148,-42.5 310.5148,-42.5"/>
<text text-anchor="start" x="317.5148" y="-53.9" font-family="Arial" font-size="14.00" fill="#000000">activity_log    </text>
<text text-anchor="start" x="420.951" y="-53.9" font-family="Arial" font-size="14.00" fill="#666666">[TEXT]</text>
</g>
<!-- ur_walk_session&#45;&gt;device -->
<g id="edge4" class="edge">
<title>ur_walk_session:device_id&#45;&gt;device:device_id</title>
<path fill="none" stroke="#000000" d="M449.4937,-1023.163C536.1691,-998.9617 497.5299,-653.4221 439.5148,-577 403.5236,-529.5896 346.5059,-588.4104 310.5148,-541 285.3883,-507.9013 268.9592,-447.5 310.5148,-447.5"/>
<polygon fill="#000000" stroke="#000000" points="449.4262,-1023.1719 438.9172,-1020.0399 444.4705,-1023.836 439.5148,-1024.5 439.5148,-1024.5 439.5148,-1024.5 444.4705,-1023.836 440.1124,-1028.9601 449.4262,-1023.1719 449.4262,-1023.1719"/>
</g>
<!-- ur_walk_session_path&#45;&gt;ur_walk_session -->
<g id="edge2" class="edge">
<title>ur_walk_session_path:walk_session_id&#45;&gt;ur_walk_session:ur_walk_session_id</title>
<path fill="none" stroke="#000000" d="M436.4816,-1509.6102C496.7505,-1485.4378 471.4849,-1236.6277 426.5148,-1184 359.8701,-1106.0068 265.1595,-1225.9932 198.5148,-1148 171.5191,-1116.4074 156.9592,-1054.5 198.5148,-1054.5"/>
<polygon fill="#000000" stroke="#000000" points="436.3397,-1509.637 425.6765,-1507.0788 431.4273,-1510.5685 426.5148,-1511.5 426.5148,-1511.5 426.5148,-1511.5 431.4273,-1510.5685 427.3531,-1515.9212 436.3397,-1509.637 436.3397,-1509.637"/>
</g>
<!-- uniform_resource&#45;&gt;ur_walk_session -->
<g id="edge3" class="edge">
<title>uniform_resource:walk_session_id&#45;&gt;ur_walk_session:ur_walk_session_id</title>
<path fill="none" stroke="#000000" d="M616.7939,-2237.4061C729.4172,-2212.5978 674.1899,-1773.1569 606.5148,-1671 583.8571,-1636.7978 545.7718,-1668.0871 521.5148,-1635 444.4857,-1529.9307 569.7954,-1054.5 439.5148,-1054.5"/>
<polygon fill="#000000" stroke="#000000" points="616.4586,-2237.4417 606.0386,-2234.0253 611.4867,-2237.9708 606.5148,-2238.5 606.5148,-2238.5 606.5148,-2238.5 611.4867,-2237.9708 606.991,-2242.9747 616.4586,-2237.4417 616.4586,-2237.4417"/>
</g>
<!-- uniform_resource&#45;&gt;ur_walk_session_path -->
<g id="edge6" class="edge">
<title>uniform_resource:walk_path_id&#45;&gt;ur_walk_session_path:ur_walk_session_path_id</title>
<path fill="none" stroke="#000000" d="M363.2279,-2204.0003C316.3549,-2154.9627 345.9305,-1720.6731 372.5148,-1671 386.1253,-1645.5686 412.9043,-1660.4314 426.5148,-1635 446.1231,-1598.3615 468.0703,-1541.5 426.5148,-1541.5"/>
<polygon fill="#000000" stroke="#000000" points="363.5155,-2204.1396 370.5526,-2212.5497 368.0151,-2206.3198 372.5148,-2208.5 372.5148,-2208.5 372.5148,-2208.5 368.0151,-2206.3198 374.477,-2204.4503 363.5155,-2204.1396 363.5155,-2204.1396"/>
</g>
<!-- uniform_resource&#45;&gt;device -->
<g id="edge8" class="edge">
<title>uniform_resource:device_id&#45;&gt;device:device_id</title>
<path fill="none" stroke="#000000" d="M615.4584,-2263.2762C702.2277,-2156.4658 615.637,-447.5 517.5148,-447.5"/>
<polygon fill="#000000" stroke="#000000" points="615.1498,-2263.4564 604.2452,-2264.6143 610.8323,-2265.9782 606.5148,-2268.5 606.5148,-2268.5 606.5148,-2268.5 610.8323,-2265.9782 608.7844,-2272.3857 615.1498,-2263.4564 615.1498,-2263.4564"/>
</g>
</g>
</svg>
