<?xml version="1.0" encoding="UTF-8" standalone="no"?>
<!DOCTYPE svg PUBLIC "-//W3C//DTD SVG 1.1//EN"
 "http://www.w3.org/Graphics/SVG/1.1/DTD/svg11.dtd">
<!-- Generated by graphviz version 2.40.1 (20161225.0304)
 -->
<!-- Title: ur_walk_session_path Pages: 1 -->
<svg width="691pt" height="3103pt"
 viewBox="0.00 0.00 690.93 3103.00" xmlns="http://www.w3.org/2000/svg" xmlns:xlink="http://www.w3.org/1999/xlink">
<g id="graph0" class="graph" transform="scale(1 1) rotate(0) translate(4 3099)">
<title>ur_walk_session_path</title>
<polygon fill="#ffffff" stroke="transparent" points="-4,4 -4,-3099 686.9318,-3099 686.9318,4 -4,4"/>
<!-- ur_walk_session_path -->
<g id="node1" class="node">
<title>ur_walk_session_path</title>
<polygon fill="#efefef" stroke="transparent" points="259.5,-1529.5 259.5,-1564.5 523.5,-1564.5 523.5,-1529.5 259.5,-1529.5"/>
<polygon fill="none" stroke="#000000" points="259.5,-1529.5 259.5,-1564.5 523.5,-1564.5 523.5,-1529.5 259.5,-1529.5"/>
<text text-anchor="start" x="266.3119" y="-1542.3" font-family="Arial Bold" font-size="18.00" fill="#000000">ur_walk_session_path</text>
<text text-anchor="start" x="444.3571" y="-1542.3" font-family="Arial" font-size="14.00" fill="#000000">    </text>
<text text-anchor="start" x="478.5619" y="-1542.3" font-family="Arial" font-size="14.00" fill="#666666">[table]</text>
<polygon fill="none" stroke="#000000" points="259.5,-1499.5 259.5,-1529.5 523.5,-1529.5 523.5,-1499.5 259.5,-1499.5"/>
<text text-anchor="start" x="266.5" y="-1510.9" font-family="Arial" font-size="14.00" fill="#000000">ur_walk_session_path_id </text>
<text text-anchor="start" x="427.542" y="-1510.9" font-family="Arial" font-size="14.00" fill="#666666">[ULID]</text>
<polygon fill="none" stroke="#000000" points="259.5,-1469.5 259.5,-1499.5 523.5,-1499.5 523.5,-1469.5 259.5,-1469.5"/>
<text text-anchor="start" x="266.5" y="-1480.9" font-family="Arial" font-size="14.00" fill="#000000">walk_session_id </text>
<text text-anchor="start" x="372.2952" y="-1480.9" font-family="Arial" font-size="14.00" fill="#666666">[ULID]</text>
<polygon fill="none" stroke="#000000" points="259.5,-1439.5 259.5,-1469.5 523.5,-1469.5 523.5,-1439.5 259.5,-1439.5"/>
<text text-anchor="start" x="266.5" y="-1450.9" font-family="Arial" font-size="14.00" fill="#000000">root_path </text>
<text text-anchor="start" x="329.528" y="-1450.9" font-family="Arial" font-size="14.00" fill="#666666">[TEXT]</text>
<polygon fill="none" stroke="#000000" points="259.5,-1409.5 259.5,-1439.5 523.5,-1439.5 523.5,-1409.5 259.5,-1409.5"/>
<text text-anchor="start" x="266.5" y="-1420.9" font-family="Arial" font-size="14.00" fill="#000000">elaboration </text>
<text text-anchor="start" x="339.6332" y="-1420.9" font-family="Arial" font-size="14.00" fill="#666666">[TEXT]</text>
<polygon fill="none" stroke="#000000" points="259.5,-1379.5 259.5,-1409.5 523.5,-1409.5 523.5,-1379.5 259.5,-1379.5"/>
<text text-anchor="start" x="266.5" y="-1390.9" font-family="Arial" font-size="14.00" fill="#000000">created_at </text>
<text text-anchor="start" x="336.528" y="-1390.9" font-family="Arial" font-size="14.00" fill="#666666">[TIMESTAMP]</text>
<polygon fill="none" stroke="#000000" points="259.5,-1349.5 259.5,-1379.5 523.5,-1379.5 523.5,-1349.5 259.5,-1349.5"/>
<text text-anchor="start" x="266.5" y="-1360.9" font-family="Arial" font-size="14.00" fill="#000000">created_by </text>
<text text-anchor="start" x="339.6374" y="-1360.9" font-family="Arial" font-size="14.00" fill="#666666">[TEXT]</text>
<polygon fill="none" stroke="#000000" points="259.5,-1319.5 259.5,-1349.5 523.5,-1349.5 523.5,-1319.5 259.5,-1319.5"/>
<text text-anchor="start" x="266.5" y="-1330.9" font-family="Arial" font-size="14.00" fill="#000000">updated_at </text>
<text text-anchor="start" x="340.4326" y="-1330.9" font-family="Arial" font-size="14.00" fill="#666666">[TIMESTAMP]</text>
<polygon fill="none" stroke="#000000" points="259.5,-1289.5 259.5,-1319.5 523.5,-1319.5 523.5,-1289.5 259.5,-1289.5"/>
<text text-anchor="start" x="266.5" y="-1300.9" font-family="Arial" font-size="14.00" fill="#000000">updated_by </text>
<text text-anchor="start" x="343.542" y="-1300.9" font-family="Arial" font-size="14.00" fill="#666666">[TEXT]</text>
<polygon fill="none" stroke="#000000" points="259.5,-1259.5 259.5,-1289.5 523.5,-1289.5 523.5,-1259.5 259.5,-1259.5"/>
<text text-anchor="start" x="266.5" y="-1270.9" font-family="Arial" font-size="14.00" fill="#000000">deleted_at </text>
<text text-anchor="start" x="335.7566" y="-1270.9" font-family="Arial" font-size="14.00" fill="#666666">[TIMESTAMP]</text>
<polygon fill="none" stroke="#000000" points="259.5,-1229.5 259.5,-1259.5 523.5,-1259.5 523.5,-1229.5 259.5,-1229.5"/>
<text text-anchor="start" x="266.5" y="-1240.9" font-family="Arial" font-size="14.00" fill="#000000">deleted_by </text>
<text text-anchor="start" x="338.866" y="-1240.9" font-family="Arial" font-size="14.00" fill="#666666">[TEXT]</text>
<polygon fill="none" stroke="#000000" points="259.5,-1199.5 259.5,-1229.5 523.5,-1229.5 523.5,-1199.5 259.5,-1199.5"/>
<text text-anchor="start" x="266.5" y="-1210.9" font-family="Arial" font-size="14.00" fill="#000000">activity_log </text>
<text text-anchor="start" x="339.622" y="-1210.9" font-family="Arial" font-size="14.00" fill="#666666">[TEXT]</text>
<polygon fill="none" stroke="#000000" stroke-width="3" points="258,-1198.5 258,-1566.5 525,-1566.5 525,-1198.5 258,-1198.5"/>
</g>
<!-- ur_walk_session -->
<g id="node5" class="node">
<title>ur_walk_session</title>
<polygon fill="#efefef" stroke="transparent" points="270.5,-1039.5 270.5,-1074.5 511.5,-1074.5 511.5,-1039.5 270.5,-1039.5"/>
<polygon fill="none" stroke="#000000" points="270.5,-1039.5 270.5,-1074.5 511.5,-1074.5 511.5,-1039.5 270.5,-1039.5"/>
<text text-anchor="start" x="288.3254" y="-1052.3" font-family="Arial Bold" font-size="18.00" fill="#000000">ur_walk_session</text>
<text text-anchor="start" x="421.3436" y="-1052.3" font-family="Arial" font-size="14.00" fill="#000000">    </text>
<text text-anchor="start" x="455.5484" y="-1052.3" font-family="Arial" font-size="14.00" fill="#666666">[table]</text>
<polygon fill="none" stroke="#000000" points="270.5,-1009.5 270.5,-1039.5 511.5,-1039.5 511.5,-1009.5 270.5,-1009.5"/>
<text text-anchor="start" x="277.5" y="-1020.9" font-family="Arial" font-size="14.00" fill="#000000">ur_walk_session_id    </text>
<text text-anchor="start" x="433.8352" y="-1020.9" font-family="Arial" font-size="14.00" fill="#666666">[ULID]</text>
<polygon fill="none" stroke="#000000" points="270.5,-979.5 270.5,-1009.5 511.5,-1009.5 511.5,-979.5 270.5,-979.5"/>
<text text-anchor="start" x="277.5" y="-990.9" font-family="Arial" font-size="14.00" fill="#000000">device_id    </text>
<text text-anchor="start" x="370.831" y="-990.9" font-family="Arial" font-size="14.00" fill="#666666">[ULID]</text>
<polygon fill="none" stroke="#000000" points="270.5,-949.5 270.5,-979.5 511.5,-979.5 511.5,-949.5 270.5,-949.5"/>
<text text-anchor="start" x="277.5" y="-960.9" font-family="Arial" font-size="14.00" fill="#000000">behavior_id    </text>
<text text-anchor="start" x="384.0568" y="-960.9" font-family="Arial" font-size="14.00" fill="#666666">[ULID]</text>
<polygon fill="none" stroke="#000000" points="270.5,-919.5 270.5,-949.5 511.5,-949.5 511.5,-919.5 270.5,-919.5"/>
<text text-anchor="start" x="277.5" y="-930.9" font-family="Arial" font-size="14.00" fill="#000000">behavior_json    </text>
<text text-anchor="start" x="398.8394" y="-930.9" font-family="Arial" font-size="14.00" fill="#666666">[TEXT]</text>
<polygon fill="none" stroke="#000000" points="270.5,-889.5 270.5,-919.5 511.5,-919.5 511.5,-889.5 270.5,-889.5"/>
<text text-anchor="start" x="277.5" y="-900.9" font-family="Arial" font-size="14.00" fill="#000000">walk_started_at    </text>
<text text-anchor="start" x="409.7286" y="-900.9" font-family="Arial" font-size="14.00" fill="#666666">[TIMESTAMP]</text>
<polygon fill="none" stroke="#000000" points="270.5,-859.5 270.5,-889.5 511.5,-889.5 511.5,-859.5 270.5,-859.5"/>
<text text-anchor="start" x="277.4411" y="-870.9" font-family="Arial" font-size="14.00" fill="#000000">walk_finished_at    </text>
<text text-anchor="start" x="415.1143" y="-870.9" font-family="Arial" font-size="14.00" fill="#666666">[TIMESTAMP]</text>
<polygon fill="none" stroke="#000000" points="270.5,-829.5 270.5,-859.5 511.5,-859.5 511.5,-829.5 270.5,-829.5"/>
<text text-anchor="start" x="277.5" y="-840.9" font-family="Arial" font-size="14.00" fill="#000000">elaboration    </text>
<text text-anchor="start" x="380.9474" y="-840.9" font-family="Arial" font-size="14.00" fill="#666666">[TEXT]</text>
<polygon fill="none" stroke="#000000" points="270.5,-799.5 270.5,-829.5 511.5,-829.5 511.5,-799.5 270.5,-799.5"/>
<text text-anchor="start" x="277.5" y="-810.9" font-family="Arial" font-size="14.00" fill="#000000">created_at    </text>
<text text-anchor="start" x="377.8422" y="-810.9" font-family="Arial" font-size="14.00" fill="#666666">[TIMESTAMP]</text>
<polygon fill="none" stroke="#000000" points="270.5,-769.5 270.5,-799.5 511.5,-799.5 511.5,-769.5 270.5,-769.5"/>
<text text-anchor="start" x="277.5" y="-780.9" font-family="Arial" font-size="14.00" fill="#000000">created_by    </text>
<text text-anchor="start" x="380.9516" y="-780.9" font-family="Arial" font-size="14.00" fill="#666666">[TEXT]</text>
<polygon fill="none" stroke="#000000" points="270.5,-739.5 270.5,-769.5 511.5,-769.5 511.5,-739.5 270.5,-739.5"/>
<text text-anchor="start" x="277.5" y="-750.9" font-family="Arial" font-size="14.00" fill="#000000">updated_at    </text>
<text text-anchor="start" x="381.7468" y="-750.9" font-family="Arial" font-size="14.00" fill="#666666">[TIMESTAMP]</text>
<polygon fill="none" stroke="#000000" points="270.5,-709.5 270.5,-739.5 511.5,-739.5 511.5,-709.5 270.5,-709.5"/>
<text text-anchor="start" x="277.5" y="-720.9" font-family="Arial" font-size="14.00" fill="#000000">updated_by    </text>
<text text-anchor="start" x="384.8562" y="-720.9" font-family="Arial" font-size="14.00" fill="#666666">[TEXT]</text>
<polygon fill="none" stroke="#000000" points="270.5,-679.5 270.5,-709.5 511.5,-709.5 511.5,-679.5 270.5,-679.5"/>
<text text-anchor="start" x="277.5" y="-690.9" font-family="Arial" font-size="14.00" fill="#000000">deleted_at    </text>
<text text-anchor="start" x="377.0708" y="-690.9" font-family="Arial" font-size="14.00" fill="#666666">[TIMESTAMP]</text>
<polygon fill="none" stroke="#000000" points="270.5,-649.5 270.5,-679.5 511.5,-679.5 511.5,-649.5 270.5,-649.5"/>
<text text-anchor="start" x="277.5" y="-660.9" font-family="Arial" font-size="14.00" fill="#000000">deleted_by    </text>
<text text-anchor="start" x="380.1802" y="-660.9" font-family="Arial" font-size="14.00" fill="#666666">[TEXT]</text>
<polygon fill="none" stroke="#000000" points="270.5,-619.5 270.5,-649.5 511.5,-649.5 511.5,-619.5 270.5,-619.5"/>
<text text-anchor="start" x="277.5" y="-630.9" font-family="Arial" font-size="14.00" fill="#000000">activity_log    </text>
<text text-anchor="start" x="380.9362" y="-630.9" font-family="Arial" font-size="14.00" fill="#666666">[TEXT]</text>
</g>
<!-- ur_walk_session_path&#45;&gt;ur_walk_session -->
<g id="edge7" class="edge">
<title>ur_walk_session_path:walk_session_id&#45;&gt;ur_walk_session:ur_walk_session_id</title>
<path fill="none" stroke="#000000" d="M249.4391,-1482.5905C188.5829,-1458.1664 213.7287,-1206.7747 259.5,-1154 333.6276,-1068.5301 437.3724,-1203.4699 511.5,-1118 538.7273,-1086.6067 553.0556,-1024.5 511.5,-1024.5"/>
<polygon fill="#000000" stroke="#000000" points="249.6754,-1482.6353 258.6609,-1488.9211 254.5877,-1483.5676 259.5,-1484.5 259.5,-1484.5 259.5,-1484.5 254.5877,-1483.5676 260.3391,-1480.0789 249.6754,-1482.6353 249.6754,-1482.6353"/>
</g>
<!-- uniform_resource -->
<g id="node2" class="node">
<title>uniform_resource</title>
<polygon fill="#efefef" stroke="transparent" points="77.5,-2289.5 77.5,-2324.5 311.5,-2324.5 311.5,-2289.5 77.5,-2289.5"/>
<polygon fill="none" stroke="#000000" points="77.5,-2289.5 77.5,-2324.5 311.5,-2324.5 311.5,-2289.5 77.5,-2289.5"/>
<text text-anchor="start" x="88.3271" y="-2302.3" font-family="Arial Bold" font-size="18.00" fill="#000000">uniform_resource</text>
<text text-anchor="start" x="228.3419" y="-2302.3" font-family="Arial" font-size="14.00" fill="#000000">    </text>
<text text-anchor="start" x="262.5467" y="-2302.3" font-family="Arial" font-size="14.00" fill="#666666">[table]</text>
<polygon fill="none" stroke="#000000" points="77.5,-2259.5 77.5,-2289.5 311.5,-2289.5 311.5,-2259.5 77.5,-2259.5"/>
<text text-anchor="start" x="84.5" y="-2270.9" font-family="Arial" font-size="14.00" fill="#000000">uniform_resource_id    </text>
<text text-anchor="start" x="246.277" y="-2270.9" font-family="Arial" font-size="14.00" fill="#666666">[ULID]</text>
<polygon fill="none" stroke="#000000" points="77.5,-2229.5 77.5,-2259.5 311.5,-2259.5 311.5,-2229.5 77.5,-2229.5"/>
<text text-anchor="start" x="84.5" y="-2240.9" font-family="Arial" font-size="14.00" fill="#000000">device_id    </text>
<text text-anchor="start" x="177.831" y="-2240.9" font-family="Arial" font-size="14.00" fill="#666666">[ULID]</text>
<polygon fill="none" stroke="#000000" points="77.5,-2199.5 77.5,-2229.5 311.5,-2229.5 311.5,-2199.5 77.5,-2199.5"/>
<text text-anchor="start" x="84.5" y="-2210.9" font-family="Arial" font-size="14.00" fill="#000000">walk_session_id    </text>
<text text-anchor="start" x="220.6094" y="-2210.9" font-family="Arial" font-size="14.00" fill="#666666">[ULID]</text>
<polygon fill="none" stroke="#000000" points="77.5,-2169.5 77.5,-2199.5 311.5,-2199.5 311.5,-2169.5 77.5,-2169.5"/>
<text text-anchor="start" x="84.5" y="-2180.9" font-family="Arial" font-size="14.00" fill="#000000">walk_path_id    </text>
<text text-anchor="start" x="200.3934" y="-2180.9" font-family="Arial" font-size="14.00" fill="#666666">[ULID]</text>
<polygon fill="none" stroke="#000000" points="77.5,-2139.5 77.5,-2169.5 311.5,-2169.5 311.5,-2139.5 77.5,-2139.5"/>
<text text-anchor="start" x="84.5" y="-2150.9" font-family="Arial" font-size="14.00" fill="#000000">uri    </text>
<text text-anchor="start" x="134.2546" y="-2150.9" font-family="Arial" font-size="14.00" fill="#666666">[TEXT]</text>
<polygon fill="none" stroke="#000000" points="77.5,-2109.5 77.5,-2139.5 311.5,-2139.5 311.5,-2109.5 77.5,-2109.5"/>
<text text-anchor="start" x="84.5" y="-2120.9" font-family="Arial" font-size="14.00" fill="#000000">content_digest    </text>
<text text-anchor="start" x="209.744" y="-2120.9" font-family="Arial" font-size="14.00" fill="#666666">[TEXT]</text>
<polygon fill="none" stroke="#000000" points="77.5,-2079.5 77.5,-2109.5 311.5,-2109.5 311.5,-2079.5 77.5,-2079.5"/>
<text text-anchor="start" x="84.5" y="-2090.9" font-family="Arial" font-size="14.00" fill="#000000">content    </text>
<text text-anchor="start" x="164.6164" y="-2090.9" font-family="Arial" font-size="14.00" fill="#666666">[BLOB]</text>
<polygon fill="none" stroke="#000000" points="77.5,-2049.5 77.5,-2079.5 311.5,-2079.5 311.5,-2049.5 77.5,-2049.5"/>
<text text-anchor="start" x="84.5" y="-2060.9" font-family="Arial" font-size="14.00" fill="#000000">nature    </text>
<text text-anchor="start" x="158.3864" y="-2060.9" font-family="Arial" font-size="14.00" fill="#666666">[TEXT]</text>
<polygon fill="none" stroke="#000000" points="77.5,-2019.5 77.5,-2049.5 311.5,-2049.5 311.5,-2019.5 77.5,-2019.5"/>
<text text-anchor="start" x="84.5" y="-2030.9" font-family="Arial" font-size="14.00" fill="#000000">size_bytes    </text>
<text text-anchor="start" x="184.8324" y="-2030.9" font-family="Arial" font-size="14.00" fill="#666666">[INTEGER]</text>
<polygon fill="none" stroke="#000000" points="77.5,-1989.5 77.5,-2019.5 311.5,-2019.5 311.5,-1989.5 77.5,-1989.5"/>
<text text-anchor="start" x="84.5" y="-2000.9" font-family="Arial" font-size="14.00" fill="#000000">last_modified_at    </text>
<text text-anchor="start" x="220.6178" y="-2000.9" font-family="Arial" font-size="14.00" fill="#666666">[INTEGER]</text>
<polygon fill="none" stroke="#000000" points="77.5,-1959.5 77.5,-1989.5 311.5,-1989.5 311.5,-1959.5 77.5,-1959.5"/>
<text text-anchor="start" x="84.4264" y="-1970.9" font-family="Arial" font-size="14.00" fill="#000000">content_fm_body_attrs    </text>
<text text-anchor="start" x="261.014" y="-1970.9" font-family="Arial" font-size="14.00" fill="#666666">[TEXT]</text>
<polygon fill="none" stroke="#000000" points="77.5,-1929.5 77.5,-1959.5 311.5,-1959.5 311.5,-1929.5 77.5,-1929.5"/>
<text text-anchor="start" x="84.5" y="-1940.9" font-family="Arial" font-size="14.00" fill="#000000">frontmatter    </text>
<text text-anchor="start" x="186.3794" y="-1940.9" font-family="Arial" font-size="14.00" fill="#666666">[TEXT]</text>
<polygon fill="none" stroke="#000000" points="77.5,-1899.5 77.5,-1929.5 311.5,-1929.5 311.5,-1899.5 77.5,-1899.5"/>
<text text-anchor="start" x="84.5" y="-1910.9" font-family="Arial" font-size="14.00" fill="#000000">elaboration    </text>
<text text-anchor="start" x="187.9474" y="-1910.9" font-family="Arial" font-size="14.00" fill="#666666">[TEXT]</text>
<polygon fill="none" stroke="#000000" points="77.5,-1869.5 77.5,-1899.5 311.5,-1899.5 311.5,-1869.5 77.5,-1869.5"/>
<text text-anchor="start" x="84.5" y="-1880.9" font-family="Arial" font-size="14.00" fill="#000000">created_at    </text>
<text text-anchor="start" x="184.8422" y="-1880.9" font-family="Arial" font-size="14.00" fill="#666666">[TIMESTAMP]</text>
<polygon fill="none" stroke="#000000" points="77.5,-1839.5 77.5,-1869.5 311.5,-1869.5 311.5,-1839.5 77.5,-1839.5"/>
<text text-anchor="start" x="84.5" y="-1850.9" font-family="Arial" font-size="14.00" fill="#000000">created_by    </text>
<text text-anchor="start" x="187.9516" y="-1850.9" font-family="Arial" font-size="14.00" fill="#666666">[TEXT]</text>
<polygon fill="none" stroke="#000000" points="77.5,-1809.5 77.5,-1839.5 311.5,-1839.5 311.5,-1809.5 77.5,-1809.5"/>
<text text-anchor="start" x="84.5" y="-1820.9" font-family="Arial" font-size="14.00" fill="#000000">updated_at    </text>
<text text-anchor="start" x="188.7468" y="-1820.9" font-family="Arial" font-size="14.00" fill="#666666">[TIMESTAMP]</text>
<polygon fill="none" stroke="#000000" points="77.5,-1779.5 77.5,-1809.5 311.5,-1809.5 311.5,-1779.5 77.5,-1779.5"/>
<text text-anchor="start" x="84.5" y="-1790.9" font-family="Arial" font-size="14.00" fill="#000000">updated_by    </text>
<text text-anchor="start" x="191.8562" y="-1790.9" font-family="Arial" font-size="14.00" fill="#666666">[TEXT]</text>
<polygon fill="none" stroke="#000000" points="77.5,-1749.5 77.5,-1779.5 311.5,-1779.5 311.5,-1749.5 77.5,-1749.5"/>
<text text-anchor="start" x="84.5" y="-1760.9" font-family="Arial" font-size="14.00" fill="#000000">deleted_at    </text>
<text text-anchor="start" x="184.0708" y="-1760.9" font-family="Arial" font-size="14.00" fill="#666666">[TIMESTAMP]</text>
<polygon fill="none" stroke="#000000" points="77.5,-1719.5 77.5,-1749.5 311.5,-1749.5 311.5,-1719.5 77.5,-1719.5"/>
<text text-anchor="start" x="84.5" y="-1730.9" font-family="Arial" font-size="14.00" fill="#000000">deleted_by    </text>
<text text-anchor="start" x="187.1802" y="-1730.9" font-family="Arial" font-size="14.00" fill="#666666">[TEXT]</text>
<polygon fill="none" stroke="#000000" points="77.5,-1689.5 77.5,-1719.5 311.5,-1719.5 311.5,-1689.5 77.5,-1689.5"/>
<text text-anchor="start" x="84.5" y="-1700.9" font-family="Arial" font-size="14.00" fill="#000000">activity_log    </text>
<text text-anchor="start" x="187.9362" y="-1700.9" font-family="Arial" font-size="14.00" fill="#666666">[TEXT]</text>
</g>
<!-- uniform_resource&#45;&gt;ur_walk_session_path -->
<g id="edge1" class="edge">
<title>uniform_resource:walk_path_id&#45;&gt;ur_walk_session_path:ur_walk_session_path_id</title>
<path fill="none" stroke="#000000" d="M320.7827,-2180.0025C367.6104,-2130.9889 337.6475,-1696.9044 311.5,-1647 298.4544,-1622.1015 272.5456,-1635.8985 259.5,-1611 239.595,-1573.0099 216.6111,-1514.5 259.5,-1514.5"/>
<polygon fill="#000000" stroke="#000000" points="320.4994,-2180.1397 309.5379,-2180.4503 315.9997,-2182.3199 311.5,-2184.5 311.5,-2184.5 311.5,-2184.5 315.9997,-2182.3199 313.4621,-2188.5497 320.4994,-2180.1397 320.4994,-2180.1397"/>
</g>
<!-- device -->
<g id="node4" class="node">
<title>device</title>
<polygon fill="#efefef" stroke="transparent" points="43.5,-462.5 43.5,-497.5 250.5,-497.5 250.5,-462.5 43.5,-462.5"/>
<polygon fill="none" stroke="#000000" points="43.5,-462.5 43.5,-497.5 250.5,-497.5 250.5,-462.5 43.5,-462.5"/>
<text text-anchor="start" x="84.8281" y="-475.3" font-family="Arial Bold" font-size="18.00" fill="#000000">device</text>
<text text-anchor="start" x="136.8409" y="-475.3" font-family="Arial" font-size="14.00" fill="#000000">    </text>
<text text-anchor="start" x="171.0457" y="-475.3" font-family="Arial" font-size="14.00" fill="#666666">[table]</text>
<polygon fill="none" stroke="#000000" points="43.5,-432.5 43.5,-462.5 250.5,-462.5 250.5,-432.5 43.5,-432.5"/>
<text text-anchor="start" x="50.5" y="-443.9" font-family="Arial" font-size="14.00" fill="#000000">device_id    </text>
<text text-anchor="start" x="143.831" y="-443.9" font-family="Arial" font-size="14.00" fill="#666666">[ULID]</text>
<polygon fill="none" stroke="#000000" points="43.5,-402.5 43.5,-432.5 250.5,-432.5 250.5,-402.5 43.5,-402.5"/>
<text text-anchor="start" x="50.5" y="-413.9" font-family="Arial" font-size="14.00" fill="#000000">name    </text>
<text text-anchor="start" x="119.7132" y="-413.9" font-family="Arial" font-size="14.00" fill="#666666">[TEXT]</text>
<polygon fill="none" stroke="#000000" points="43.5,-372.5 43.5,-402.5 250.5,-402.5 250.5,-372.5 43.5,-372.5"/>
<text text-anchor="start" x="50.5" y="-383.9" font-family="Arial" font-size="14.00" fill="#000000">state    </text>
<text text-anchor="start" x="115.0512" y="-383.9" font-family="Arial" font-size="14.00" fill="#666666">[TEXT]</text>
<polygon fill="none" stroke="#000000" points="43.5,-342.5 43.5,-372.5 250.5,-372.5 250.5,-342.5 43.5,-342.5"/>
<text text-anchor="start" x="50.5" y="-353.9" font-family="Arial" font-size="14.00" fill="#000000">boundary    </text>
<text text-anchor="start" x="143.061" y="-353.9" font-family="Arial" font-size="14.00" fill="#666666">[TEXT]</text>
<polygon fill="none" stroke="#000000" points="43.5,-312.5 43.5,-342.5 250.5,-342.5 250.5,-312.5 43.5,-312.5"/>
<text text-anchor="start" x="50.5" y="-323.9" font-family="Arial" font-size="14.00" fill="#000000">segmentation    </text>
<text text-anchor="start" x="168.7314" y="-323.9" font-family="Arial" font-size="14.00" fill="#666666">[TEXT]</text>
<polygon fill="none" stroke="#000000" points="43.5,-282.5 43.5,-312.5 250.5,-312.5 250.5,-282.5 43.5,-282.5"/>
<text text-anchor="start" x="50.5" y="-293.9" font-family="Arial" font-size="14.00" fill="#000000">state_sysinfo    </text>
<text text-anchor="start" x="166.3962" y="-293.9" font-family="Arial" font-size="14.00" fill="#666666">[TEXT]</text>
<polygon fill="none" stroke="#000000" points="43.5,-252.5 43.5,-282.5 250.5,-282.5 250.5,-252.5 43.5,-252.5"/>
<text text-anchor="start" x="50.5" y="-263.9" font-family="Arial" font-size="14.00" fill="#000000">elaboration    </text>
<text text-anchor="start" x="153.9474" y="-263.9" font-family="Arial" font-size="14.00" fill="#666666">[TEXT]</text>
<polygon fill="none" stroke="#000000" points="43.5,-222.5 43.5,-252.5 250.5,-252.5 250.5,-222.5 43.5,-222.5"/>
<text text-anchor="start" x="50.5" y="-233.9" font-family="Arial" font-size="14.00" fill="#000000">created_at    </text>
<text text-anchor="start" x="150.8422" y="-233.9" font-family="Arial" font-size="14.00" fill="#666666">[TIMESTAMP]</text>
<polygon fill="none" stroke="#000000" points="43.5,-192.5 43.5,-222.5 250.5,-222.5 250.5,-192.5 43.5,-192.5"/>
<text text-anchor="start" x="50.5" y="-203.9" font-family="Arial" font-size="14.00" fill="#000000">created_by    </text>
<text text-anchor="start" x="153.9516" y="-203.9" font-family="Arial" font-size="14.00" fill="#666666">[TEXT]</text>
<polygon fill="none" stroke="#000000" points="43.5,-162.5 43.5,-192.5 250.5,-192.5 250.5,-162.5 43.5,-162.5"/>
<text text-anchor="start" x="50.1543" y="-173.9" font-family="Arial" font-size="14.00" fill="#000000">updated_at    </text>
<text text-anchor="start" x="154.4011" y="-173.9" font-family="Arial" font-size="14.00" fill="#666666">[TIMESTAMP]</text>
<polygon fill="none" stroke="#000000" points="43.5,-132.5 43.5,-162.5 250.5,-162.5 250.5,-132.5 43.5,-132.5"/>
<text text-anchor="start" x="50.5" y="-143.9" font-family="Arial" font-size="14.00" fill="#000000">updated_by    </text>
<text text-anchor="start" x="157.8562" y="-143.9" font-family="Arial" font-size="14.00" fill="#666666">[TEXT]</text>
<polygon fill="none" stroke="#000000" points="43.5,-102.5 43.5,-132.5 250.5,-132.5 250.5,-102.5 43.5,-102.5"/>
<text text-anchor="start" x="50.5" y="-113.9" font-family="Arial" font-size="14.00" fill="#000000">deleted_at    </text>
<text text-anchor="start" x="150.0708" y="-113.9" font-family="Arial" font-size="14.00" fill="#666666">[TIMESTAMP]</text>
<polygon fill="none" stroke="#000000" points="43.5,-72.5 43.5,-102.5 250.5,-102.5 250.5,-72.5 43.5,-72.5"/>
<text text-anchor="start" x="50.5" y="-83.9" font-family="Arial" font-size="14.00" fill="#000000">deleted_by    </text>
<text text-anchor="start" x="153.1802" y="-83.9" font-family="Arial" font-size="14.00" fill="#666666">[TEXT]</text>
<polygon fill="none" stroke="#000000" points="43.5,-42.5 43.5,-72.5 250.5,-72.5 250.5,-42.5 43.5,-42.5"/>
<text text-anchor="start" x="50.5" y="-53.9" font-family="Arial" font-size="14.00" fill="#000000">activity_log    </text>
<text text-anchor="start" x="153.9362" y="-53.9" font-family="Arial" font-size="14.00" fill="#666666">[TEXT]</text>
</g>
<!-- uniform_resource&#45;&gt;device -->
<g id="edge3" class="edge">
<title>uniform_resource:device_id&#45;&gt;device:device_id</title>
<path fill="none" stroke="#000000" d="M67.5261,-2243.5448C-48.8113,-2220.2095 69.0963,-1776.0034 77.5,-1647 108.6771,-1168.4055 14.9423,-1011.7356 217.5,-577 226.6669,-557.3257 242.6314,-561.2286 250.5,-541 265.5648,-502.2713 292.0556,-447.5 250.5,-447.5"/>
<polygon fill="#000000" stroke="#000000" points="67.5455,-2243.5465 77.0709,-2248.9795 72.5228,-2244.0233 77.5,-2244.5 77.5,-2244.5 77.5,-2244.5 72.5228,-2244.0233 77.9291,-2240.0205 67.5455,-2243.5465 67.5455,-2243.5465"/>
</g>
<!-- uniform_resource&#45;&gt;ur_walk_session -->
<g id="edge4" class="edge">
<title>uniform_resource:walk_session_id&#45;&gt;ur_walk_session:ur_walk_session_id</title>
<path fill="none" stroke="#000000" d="M67.2215,-2213.4065C-45.39,-2188.606 10.043,-1749.3011 77.5,-1647 99.8595,-1613.0909 137.575,-1643.8234 161.5,-1611 221.5837,-1528.5695 176.058,-1251.9586 204.5,-1154 222.5124,-1091.9626 205.9006,-1024.5 270.5,-1024.5"/>
<polygon fill="#000000" stroke="#000000" points="67.5561,-2213.442 77.0239,-2218.9747 72.5281,-2213.971 77.5,-2214.5 77.5,-2214.5 77.5,-2214.5 72.5281,-2213.971 77.9761,-2210.0253 67.5561,-2213.442 67.5561,-2213.442"/>
</g>
<!-- ur_walk_session_path_fs_entry -->
<g id="node3" class="node">
<title>ur_walk_session_path_fs_entry</title>
<polygon fill="#efefef" stroke="transparent" points="222.5,-3016.5 222.5,-3051.5 560.5,-3051.5 560.5,-3016.5 222.5,-3016.5"/>
<polygon fill="none" stroke="#000000" points="222.5,-3016.5 222.5,-3051.5 560.5,-3051.5 560.5,-3016.5 222.5,-3016.5"/>
<text text-anchor="start" x="229.3012" y="-3029.3" font-family="Arial Bold" font-size="18.00" fill="#000000">ur_walk_session_path_fs_entry</text>
<text text-anchor="start" x="481.3678" y="-3029.3" font-family="Arial" font-size="14.00" fill="#000000">    </text>
<text text-anchor="start" x="515.5726" y="-3029.3" font-family="Arial" font-size="14.00" fill="#666666">[table]</text>
<polygon fill="none" stroke="#000000" points="222.5,-2986.5 222.5,-3016.5 560.5,-3016.5 560.5,-2986.5 222.5,-2986.5"/>
<text text-anchor="start" x="229.5" y="-2997.9" font-family="Arial" font-size="14.00" fill="#000000">ur_walk_session_path_fs_entry_id    </text>
<text text-anchor="start" x="478.4284" y="-2997.9" font-family="Arial" font-size="14.00" fill="#666666">[ULID]</text>
<polygon fill="none" stroke="#000000" points="222.5,-2956.5 222.5,-2986.5 560.5,-2986.5 560.5,-2956.5 222.5,-2956.5"/>
<text text-anchor="start" x="229.5" y="-2967.9" font-family="Arial" font-size="14.00" fill="#000000">walk_session_id    </text>
<text text-anchor="start" x="365.6094" y="-2967.9" font-family="Arial" font-size="14.00" fill="#666666">[ULID]</text>
<polygon fill="none" stroke="#000000" points="222.5,-2926.5 222.5,-2956.5 560.5,-2956.5 560.5,-2926.5 222.5,-2926.5"/>
<text text-anchor="start" x="229.5" y="-2937.9" font-family="Arial" font-size="14.00" fill="#000000">walk_path_id    </text>
<text text-anchor="start" x="345.3934" y="-2937.9" font-family="Arial" font-size="14.00" fill="#666666">[ULID]</text>
<polygon fill="none" stroke="#000000" points="222.5,-2896.5 222.5,-2926.5 560.5,-2926.5 560.5,-2896.5 222.5,-2896.5"/>
<text text-anchor="start" x="229.5" y="-2907.9" font-family="Arial" font-size="14.00" fill="#000000">uniform_resource_id    </text>
<text text-anchor="start" x="391.277" y="-2907.9" font-family="Arial" font-size="14.00" fill="#666666">[ULID]</text>
<polygon fill="none" stroke="#000000" points="222.5,-2866.5 222.5,-2896.5 560.5,-2896.5 560.5,-2866.5 222.5,-2866.5"/>
<text text-anchor="start" x="229.5" y="-2877.9" font-family="Arial" font-size="14.00" fill="#000000">file_path_abs    </text>
<text text-anchor="start" x="346.96" y="-2877.9" font-family="Arial" font-size="14.00" fill="#666666">[TEXT]</text>
<polygon fill="none" stroke="#000000" points="222.5,-2836.5 222.5,-2866.5 560.5,-2866.5 560.5,-2836.5 222.5,-2836.5"/>
<text text-anchor="start" x="229.5" y="-2847.9" font-family="Arial" font-size="14.00" fill="#000000">file_path_rel_parent    </text>
<text text-anchor="start" x="387.4088" y="-2847.9" font-family="Arial" font-size="14.00" fill="#666666">[TEXT]</text>
<polygon fill="none" stroke="#000000" points="222.5,-2806.5 222.5,-2836.5 560.5,-2836.5 560.5,-2806.5 222.5,-2806.5"/>
<text text-anchor="start" x="229.5" y="-2817.9" font-family="Arial" font-size="14.00" fill="#000000">file_path_rel    </text>
<text text-anchor="start" x="339.9446" y="-2817.9" font-family="Arial" font-size="14.00" fill="#666666">[TEXT]</text>
<polygon fill="none" stroke="#000000" points="222.5,-2776.5 222.5,-2806.5 560.5,-2806.5 560.5,-2776.5 222.5,-2776.5"/>
<text text-anchor="start" x="229.5" y="-2787.9" font-family="Arial" font-size="14.00" fill="#000000">file_basename    </text>
<text text-anchor="start" x="354.73" y="-2787.9" font-family="Arial" font-size="14.00" fill="#666666">[TEXT]</text>
<polygon fill="none" stroke="#000000" points="222.5,-2746.5 222.5,-2776.5 560.5,-2776.5 560.5,-2746.5 222.5,-2746.5"/>
<text text-anchor="start" x="229.5" y="-2757.9" font-family="Arial" font-size="14.00" fill="#000000">file_extn    </text>
<text text-anchor="start" x="315.8296" y="-2757.9" font-family="Arial" font-size="14.00" fill="#666666">[TEXT]</text>
<polygon fill="none" stroke="#000000" points="222.5,-2716.5 222.5,-2746.5 560.5,-2746.5 560.5,-2716.5 222.5,-2716.5"/>
<text text-anchor="start" x="229.5" y="-2727.9" font-family="Arial" font-size="14.00" fill="#000000">ur_status    </text>
<text text-anchor="start" x="321.277" y="-2727.9" font-family="Arial" font-size="14.00" fill="#666666">[TEXT]</text>
<polygon fill="none" stroke="#000000" points="222.5,-2686.5 222.5,-2716.5 560.5,-2716.5 560.5,-2686.5 222.5,-2686.5"/>
<text text-anchor="start" x="229.5" y="-2697.9" font-family="Arial" font-size="14.00" fill="#000000">ur_status_explanation    </text>
<text text-anchor="start" x="400.6416" y="-2697.9" font-family="Arial" font-size="14.00" fill="#666666">[TEXT]</text>
<polygon fill="none" stroke="#000000" points="222.5,-2656.5 222.5,-2686.5 560.5,-2686.5 560.5,-2656.5 222.5,-2656.5"/>
<text text-anchor="start" x="229.5" y="-2667.9" font-family="Arial" font-size="14.00" fill="#000000">elaboration    </text>
<text text-anchor="start" x="332.9474" y="-2667.9" font-family="Arial" font-size="14.00" fill="#666666">[TEXT]</text>
<polygon fill="none" stroke="#000000" points="222.5,-2626.5 222.5,-2656.5 560.5,-2656.5 560.5,-2626.5 222.5,-2626.5"/>
<text text-anchor="start" x="229.5" y="-2637.9" font-family="Arial" font-size="14.00" fill="#000000">created_at    </text>
<text text-anchor="start" x="329.8422" y="-2637.9" font-family="Arial" font-size="14.00" fill="#666666">[TIMESTAMP]</text>
<polygon fill="none" stroke="#000000" points="222.5,-2596.5 222.5,-2626.5 560.5,-2626.5 560.5,-2596.5 222.5,-2596.5"/>
<text text-anchor="start" x="229.5" y="-2607.9" font-family="Arial" font-size="14.00" fill="#000000">created_by    </text>
<text text-anchor="start" x="332.9516" y="-2607.9" font-family="Arial" font-size="14.00" fill="#666666">[TEXT]</text>
<polygon fill="none" stroke="#000000" points="222.5,-2566.5 222.5,-2596.5 560.5,-2596.5 560.5,-2566.5 222.5,-2566.5"/>
<text text-anchor="start" x="229.5" y="-2577.9" font-family="Arial" font-size="14.00" fill="#000000">updated_at    </text>
<text text-anchor="start" x="333.7468" y="-2577.9" font-family="Arial" font-size="14.00" fill="#666666">[TIMESTAMP]</text>
<polygon fill="none" stroke="#000000" points="222.5,-2536.5 222.5,-2566.5 560.5,-2566.5 560.5,-2536.5 222.5,-2536.5"/>
<text text-anchor="start" x="229.5" y="-2547.9" font-family="Arial" font-size="14.00" fill="#000000">updated_by    </text>
<text text-anchor="start" x="336.8562" y="-2547.9" font-family="Arial" font-size="14.00" fill="#666666">[TEXT]</text>
<polygon fill="none" stroke="#000000" points="222.5,-2506.5 222.5,-2536.5 560.5,-2536.5 560.5,-2506.5 222.5,-2506.5"/>
<text text-anchor="start" x="229.5" y="-2517.9" font-family="Arial" font-size="14.00" fill="#000000">deleted_at    </text>
<text text-anchor="start" x="329.0708" y="-2517.9" font-family="Arial" font-size="14.00" fill="#666666">[TIMESTAMP]</text>
<polygon fill="none" stroke="#000000" points="222.5,-2476.5 222.5,-2506.5 560.5,-2506.5 560.5,-2476.5 222.5,-2476.5"/>
<text text-anchor="start" x="229.5" y="-2487.9" font-family="Arial" font-size="14.00" fill="#000000">deleted_by    </text>
<text text-anchor="start" x="332.1802" y="-2487.9" font-family="Arial" font-size="14.00" fill="#666666">[TEXT]</text>
<polygon fill="none" stroke="#000000" points="222.5,-2446.5 222.5,-2476.5 560.5,-2476.5 560.5,-2446.5 222.5,-2446.5"/>
<text text-anchor="start" x="229.5" y="-2457.9" font-family="Arial" font-size="14.00" fill="#000000">activity_log    </text>
<text text-anchor="start" x="332.9362" y="-2457.9" font-family="Arial" font-size="14.00" fill="#666666">[TEXT]</text>
</g>
<!-- ur_walk_session_path_fs_entry&#45;&gt;ur_walk_session_path -->
<g id="edge5" class="edge">
<title>ur_walk_session_path_fs_entry:walk_path_id&#45;&gt;ur_walk_session_path:ur_walk_session_path_id</title>
<path fill="none" stroke="#000000" d="M565.4826,-2932.7573C596.7501,-2813.5121 561.3322,-1514.5 523.5,-1514.5"/>
<polygon fill="#000000" stroke="#000000" points="565.4516,-2932.8119 556.5904,-2939.2718 562.9758,-2937.156 560.5,-2941.5 560.5,-2941.5 560.5,-2941.5 562.9758,-2937.156 564.4096,-2943.7282 565.4516,-2932.8119 565.4516,-2932.8119"/>
</g>
<!-- ur_walk_session_path_fs_entry&#45;&gt;uniform_resource -->
<g id="edge2" class="edge">
<title>ur_walk_session_path_fs_entry:uniform_resource_id&#45;&gt;uniform_resource:uniform_resource_id</title>
<path fill="none" stroke="#000000" d="M212.4799,-2911.2813C-.0383,-2901.8285 98.3172,-2588.1885 222.5,-2404 246.3531,-2368.621 287.6469,-2403.379 311.5,-2368 334.7306,-2333.5442 353.0556,-2274.5 311.5,-2274.5"/>
<polygon fill="#000000" stroke="#000000" points="212.5024,-2911.2817 222.4018,-2915.9989 217.5012,-2911.3908 222.5,-2911.5 222.5,-2911.5 222.5,-2911.5 217.5012,-2911.3908 222.5982,-2907.0011 212.5024,-2911.2817 212.5024,-2911.2817"/>
</g>
<!-- ur_walk_session_path_fs_entry&#45;&gt;ur_walk_session -->
<g id="edge6" class="edge">
<title>ur_walk_session_path_fs_entry:walk_session_id&#45;&gt;ur_walk_session:ur_walk_session_id</title>
<path fill="none" stroke="#000000" d="M570.8386,-2971.3261C822.0342,-2962.6725 570.7303,-2632.7305 574.5,-2368 578.7556,-2069.1467 810.3836,-1024.5 511.5,-1024.5"/>
<polygon fill="#000000" stroke="#000000" points="570.4986,-2971.3317 560.4243,-2967.0006 565.4993,-2971.4159 560.5,-2971.5 560.5,-2971.5 560.5,-2971.5 565.4993,-2971.4159 560.5757,-2975.9994 570.4986,-2971.3317 570.4986,-2971.3317"/>
</g>
<!-- ur_walk_session&#45;&gt;device -->
<g id="edge8" class="edge">
<title>ur_walk_session:device_id&#45;&gt;device:device_id</title>
<path fill="none" stroke="#000000" d="M261.6701,-989.4342C220.674,-934.29 307.8736,-447.5 250.5,-447.5"/>
<polygon fill="#000000" stroke="#000000" points="261.8261,-989.5236 268.2606,-998.4033 266.163,-992.0118 270.5,-994.5 270.5,-994.5 270.5,-994.5 266.163,-992.0118 272.7394,-990.5967 261.8261,-989.5236 261.8261,-989.5236"/>
</g>
<!-- behavior -->
<g id="node6" class="node">
<title>behavior</title>
<polygon fill="#efefef" stroke="transparent" points="354.5,-447.5 354.5,-482.5 585.5,-482.5 585.5,-447.5 354.5,-447.5"/>
<polygon fill="none" stroke="#000000" points="354.5,-447.5 354.5,-482.5 585.5,-482.5 585.5,-447.5 354.5,-447.5"/>
<text text-anchor="start" x="399.3258" y="-460.3" font-family="Arial Bold" font-size="18.00" fill="#000000">behavior</text>
<text text-anchor="start" x="468.3432" y="-460.3" font-family="Arial" font-size="14.00" fill="#000000">    </text>
<text text-anchor="start" x="502.548" y="-460.3" font-family="Arial" font-size="14.00" fill="#666666">[table]</text>
<polygon fill="none" stroke="#000000" points="354.5,-417.5 354.5,-447.5 585.5,-447.5 585.5,-417.5 354.5,-417.5"/>
<text text-anchor="start" x="361.5" y="-428.9" font-family="Arial" font-size="14.00" fill="#000000">behavior_id    </text>
<text text-anchor="start" x="468.0568" y="-428.9" font-family="Arial" font-size="14.00" fill="#666666">[ULID]</text>
<polygon fill="none" stroke="#000000" points="354.5,-387.5 354.5,-417.5 585.5,-417.5 585.5,-387.5 354.5,-387.5"/>
<text text-anchor="start" x="361.5" y="-398.9" font-family="Arial" font-size="14.00" fill="#000000">device_id    </text>
<text text-anchor="start" x="454.831" y="-398.9" font-family="Arial" font-size="14.00" fill="#666666">[ULID]</text>
<polygon fill="none" stroke="#000000" points="354.5,-357.5 354.5,-387.5 585.5,-387.5 585.5,-357.5 354.5,-357.5"/>
<text text-anchor="start" x="361.5" y="-368.9" font-family="Arial" font-size="14.00" fill="#000000">behavior_name    </text>
<text text-anchor="start" x="492.176" y="-368.9" font-family="Arial" font-size="14.00" fill="#666666">[TEXT]</text>
<polygon fill="none" stroke="#000000" points="354.5,-327.5 354.5,-357.5 585.5,-357.5 585.5,-327.5 354.5,-327.5"/>
<text text-anchor="start" x="361.5" y="-338.9" font-family="Arial" font-size="14.00" fill="#000000">behavior_conf_json    </text>
<text text-anchor="start" x="517.0778" y="-338.9" font-family="Arial" font-size="14.00" fill="#666666">[TEXT]</text>
<polygon fill="none" stroke="#000000" points="354.5,-297.5 354.5,-327.5 585.5,-327.5 585.5,-297.5 354.5,-297.5"/>
<text text-anchor="start" x="361.0996" y="-308.9" font-family="Arial" font-size="14.00" fill="#000000">assurance_schema_id    </text>
<text text-anchor="start" x="535.3408" y="-308.9" font-family="Arial" font-size="14.00" fill="#666666">[TEXT]</text>
<polygon fill="none" stroke="#000000" points="354.5,-267.5 354.5,-297.5 585.5,-297.5 585.5,-267.5 354.5,-267.5"/>
<text text-anchor="start" x="361.5" y="-278.9" font-family="Arial" font-size="14.00" fill="#000000">governance    </text>
<text text-anchor="start" x="468.8436" y="-278.9" font-family="Arial" font-size="14.00" fill="#666666">[TEXT]</text>
<polygon fill="none" stroke="#000000" points="354.5,-237.5 354.5,-267.5 585.5,-267.5 585.5,-237.5 354.5,-237.5"/>
<text text-anchor="start" x="361.5" y="-248.9" font-family="Arial" font-size="14.00" fill="#000000">created_at    </text>
<text text-anchor="start" x="461.8422" y="-248.9" font-family="Arial" font-size="14.00" fill="#666666">[TIMESTAMP]</text>
<polygon fill="none" stroke="#000000" points="354.5,-207.5 354.5,-237.5 585.5,-237.5 585.5,-207.5 354.5,-207.5"/>
<text text-anchor="start" x="361.5" y="-218.9" font-family="Arial" font-size="14.00" fill="#000000">created_by    </text>
<text text-anchor="start" x="464.9516" y="-218.9" font-family="Arial" font-size="14.00" fill="#666666">[TEXT]</text>
<polygon fill="none" stroke="#000000" points="354.5,-177.5 354.5,-207.5 585.5,-207.5 585.5,-177.5 354.5,-177.5"/>
<text text-anchor="start" x="361.5" y="-188.9" font-family="Arial" font-size="14.00" fill="#000000">updated_at    </text>
<text text-anchor="start" x="465.7468" y="-188.9" font-family="Arial" font-size="14.00" fill="#666666">[TIMESTAMP]</text>
<polygon fill="none" stroke="#000000" points="354.5,-147.5 354.5,-177.5 585.5,-177.5 585.5,-147.5 354.5,-147.5"/>
<text text-anchor="start" x="361.5" y="-158.9" font-family="Arial" font-size="14.00" fill="#000000">updated_by    </text>
<text text-anchor="start" x="468.8562" y="-158.9" font-family="Arial" font-size="14.00" fill="#666666">[TEXT]</text>
<polygon fill="none" stroke="#000000" points="354.5,-117.5 354.5,-147.5 585.5,-147.5 585.5,-117.5 354.5,-117.5"/>
<text text-anchor="start" x="361.5" y="-128.9" font-family="Arial" font-size="14.00" fill="#000000">deleted_at    </text>
<text text-anchor="start" x="461.0708" y="-128.9" font-family="Arial" font-size="14.00" fill="#666666">[TIMESTAMP]</text>
<polygon fill="none" stroke="#000000" points="354.5,-87.5 354.5,-117.5 585.5,-117.5 585.5,-87.5 354.5,-87.5"/>
<text text-anchor="start" x="361.5" y="-98.9" font-family="Arial" font-size="14.00" fill="#000000">deleted_by    </text>
<text text-anchor="start" x="464.1802" y="-98.9" font-family="Arial" font-size="14.00" fill="#666666">[TEXT]</text>
<polygon fill="none" stroke="#000000" points="354.5,-57.5 354.5,-87.5 585.5,-87.5 585.5,-57.5 354.5,-57.5"/>
<text text-anchor="start" x="361.5" y="-68.9" font-family="Arial" font-size="14.00" fill="#000000">activity_log    </text>
<text text-anchor="start" x="464.9362" y="-68.9" font-family="Arial" font-size="14.00" fill="#666666">[TEXT]</text>
</g>
<!-- ur_walk_session&#45;&gt;behavior -->
<g id="edge9" class="edge">
<title>ur_walk_session:behavior_id&#45;&gt;behavior:behavior_id</title>
<path fill="none" stroke="#000000" d="M521.7907,-964.19C680.7979,-954.3668 610.6586,-713.4698 511.5,-577 468.3738,-517.6464 397.6262,-585.3536 354.5,-526 330.0731,-492.3817 312.9444,-432.5 354.5,-432.5"/>
<polygon fill="#000000" stroke="#000000" points="521.4955,-964.1988 511.3644,-960.002 516.4977,-964.3494 511.5,-964.5 511.5,-964.5 511.5,-964.5 516.4977,-964.3494 511.6356,-968.998 521.4955,-964.1988 521.4955,-964.1988"/>
</g>
</g>
</svg>
