<?xml version="1.0" encoding="UTF-8" standalone="no"?>
<!DOCTYPE svg PUBLIC "-//W3C//DTD SVG 1.1//EN"
 "http://www.w3.org/Graphics/SVG/1.1/DTD/svg11.dtd">
<!-- Generated by graphviz version 2.40.1 (20161225.0304)
 -->
<!-- Title: ur_walk_session_path Pages: 1 -->
<svg width="689pt" height="3133pt"
 viewBox="0.00 0.00 688.80 3133.00" xmlns="http://www.w3.org/2000/svg" xmlns:xlink="http://www.w3.org/1999/xlink">
<g id="graph0" class="graph" transform="scale(1 1) rotate(0) translate(4 3129)">
<title>ur_walk_session_path</title>
<polygon fill="#ffffff" stroke="transparent" points="-4,4 -4,-3129 684.7969,-3129 684.7969,4 -4,4"/>
<!-- ur_walk_session_path -->
<g id="node1" class="node">
<title>ur_walk_session_path</title>
<polygon fill="#efefef" stroke="transparent" points="257.3651,-1559.5 257.3651,-1594.5 521.3651,-1594.5 521.3651,-1559.5 257.3651,-1559.5"/>
<polygon fill="none" stroke="#000000" points="257.3651,-1559.5 257.3651,-1594.5 521.3651,-1594.5 521.3651,-1559.5 257.3651,-1559.5"/>
<text text-anchor="start" x="264.177" y="-1572.3" font-family="Arial Bold" font-size="18.00" fill="#000000">ur_walk_session_path</text>
<text text-anchor="start" x="442.2222" y="-1572.3" font-family="Arial" font-size="14.00" fill="#000000">    </text>
<text text-anchor="start" x="476.427" y="-1572.3" font-family="Arial" font-size="14.00" fill="#666666">[table]</text>
<polygon fill="none" stroke="#000000" points="257.3651,-1529.5 257.3651,-1559.5 521.3651,-1559.5 521.3651,-1529.5 257.3651,-1529.5"/>
<text text-anchor="start" x="264.3651" y="-1540.9" font-family="Arial" font-size="14.00" fill="#000000">ur_walk_session_path_id </text>
<text text-anchor="start" x="425.4071" y="-1540.9" font-family="Arial" font-size="14.00" fill="#666666">[ULID]</text>
<polygon fill="none" stroke="#000000" points="257.3651,-1499.5 257.3651,-1529.5 521.3651,-1529.5 521.3651,-1499.5 257.3651,-1499.5"/>
<text text-anchor="start" x="264.3651" y="-1510.9" font-family="Arial" font-size="14.00" fill="#000000">walk_session_id </text>
<text text-anchor="start" x="370.1603" y="-1510.9" font-family="Arial" font-size="14.00" fill="#666666">[ULID]</text>
<polygon fill="none" stroke="#000000" points="257.3651,-1469.5 257.3651,-1499.5 521.3651,-1499.5 521.3651,-1469.5 257.3651,-1469.5"/>
<text text-anchor="start" x="264.3651" y="-1480.9" font-family="Arial" font-size="14.00" fill="#000000">root_path </text>
<text text-anchor="start" x="327.3931" y="-1480.9" font-family="Arial" font-size="14.00" fill="#666666">[TEXT]</text>
<polygon fill="none" stroke="#000000" points="257.3651,-1439.5 257.3651,-1469.5 521.3651,-1469.5 521.3651,-1439.5 257.3651,-1439.5"/>
<text text-anchor="start" x="264.3651" y="-1450.9" font-family="Arial" font-size="14.00" fill="#000000">elaboration </text>
<text text-anchor="start" x="337.4983" y="-1450.9" font-family="Arial" font-size="14.00" fill="#666666">[TEXT]</text>
<polygon fill="none" stroke="#000000" points="257.3651,-1409.5 257.3651,-1439.5 521.3651,-1439.5 521.3651,-1409.5 257.3651,-1409.5"/>
<text text-anchor="start" x="264.3651" y="-1420.9" font-family="Arial" font-size="14.00" fill="#000000">created_at </text>
<text text-anchor="start" x="334.3931" y="-1420.9" font-family="Arial" font-size="14.00" fill="#666666">[TIMESTAMP]</text>
<polygon fill="none" stroke="#000000" points="257.3651,-1379.5 257.3651,-1409.5 521.3651,-1409.5 521.3651,-1379.5 257.3651,-1379.5"/>
<text text-anchor="start" x="264.3651" y="-1390.9" font-family="Arial" font-size="14.00" fill="#000000">created_by </text>
<text text-anchor="start" x="337.5025" y="-1390.9" font-family="Arial" font-size="14.00" fill="#666666">[TEXT]</text>
<polygon fill="none" stroke="#000000" points="257.3651,-1349.5 257.3651,-1379.5 521.3651,-1379.5 521.3651,-1349.5 257.3651,-1349.5"/>
<text text-anchor="start" x="264.3651" y="-1360.9" font-family="Arial" font-size="14.00" fill="#000000">updated_at </text>
<text text-anchor="start" x="338.2977" y="-1360.9" font-family="Arial" font-size="14.00" fill="#666666">[TIMESTAMP]</text>
<polygon fill="none" stroke="#000000" points="257.3651,-1319.5 257.3651,-1349.5 521.3651,-1349.5 521.3651,-1319.5 257.3651,-1319.5"/>
<text text-anchor="start" x="264.3651" y="-1330.9" font-family="Arial" font-size="14.00" fill="#000000">updated_by </text>
<text text-anchor="start" x="341.4071" y="-1330.9" font-family="Arial" font-size="14.00" fill="#666666">[TEXT]</text>
<polygon fill="none" stroke="#000000" points="257.3651,-1289.5 257.3651,-1319.5 521.3651,-1319.5 521.3651,-1289.5 257.3651,-1289.5"/>
<text text-anchor="start" x="264.3651" y="-1300.9" font-family="Arial" font-size="14.00" fill="#000000">deleted_at </text>
<text text-anchor="start" x="333.6217" y="-1300.9" font-family="Arial" font-size="14.00" fill="#666666">[TIMESTAMP]</text>
<polygon fill="none" stroke="#000000" points="257.3651,-1259.5 257.3651,-1289.5 521.3651,-1289.5 521.3651,-1259.5 257.3651,-1259.5"/>
<text text-anchor="start" x="264.3651" y="-1270.9" font-family="Arial" font-size="14.00" fill="#000000">deleted_by </text>
<text text-anchor="start" x="336.7311" y="-1270.9" font-family="Arial" font-size="14.00" fill="#666666">[TEXT]</text>
<polygon fill="none" stroke="#000000" points="257.3651,-1229.5 257.3651,-1259.5 521.3651,-1259.5 521.3651,-1229.5 257.3651,-1229.5"/>
<text text-anchor="start" x="264.3651" y="-1240.9" font-family="Arial" font-size="14.00" fill="#000000">activity_log </text>
<text text-anchor="start" x="337.4871" y="-1240.9" font-family="Arial" font-size="14.00" fill="#666666">[TEXT]</text>
<polygon fill="none" stroke="#000000" stroke-width="3" points="255.8651,-1228.5 255.8651,-1596.5 522.8651,-1596.5 522.8651,-1228.5 255.8651,-1228.5"/>
</g>
<!-- ur_walk_session -->
<g id="node5" class="node">
<title>ur_walk_session</title>
<polygon fill="#efefef" stroke="transparent" points="242.3651,-1069.5 242.3651,-1104.5 483.3651,-1104.5 483.3651,-1069.5 242.3651,-1069.5"/>
<polygon fill="none" stroke="#000000" points="242.3651,-1069.5 242.3651,-1104.5 483.3651,-1104.5 483.3651,-1069.5 242.3651,-1069.5"/>
<text text-anchor="start" x="260.1905" y="-1082.3" font-family="Arial Bold" font-size="18.00" fill="#000000">ur_walk_session</text>
<text text-anchor="start" x="393.2087" y="-1082.3" font-family="Arial" font-size="14.00" fill="#000000">    </text>
<text text-anchor="start" x="427.4135" y="-1082.3" font-family="Arial" font-size="14.00" fill="#666666">[table]</text>
<polygon fill="none" stroke="#000000" points="242.3651,-1039.5 242.3651,-1069.5 483.3651,-1069.5 483.3651,-1039.5 242.3651,-1039.5"/>
<text text-anchor="start" x="249.3651" y="-1050.9" font-family="Arial" font-size="14.00" fill="#000000">ur_walk_session_id    </text>
<text text-anchor="start" x="405.7003" y="-1050.9" font-family="Arial" font-size="14.00" fill="#666666">[ULID]</text>
<polygon fill="none" stroke="#000000" points="242.3651,-1009.5 242.3651,-1039.5 483.3651,-1039.5 483.3651,-1009.5 242.3651,-1009.5"/>
<text text-anchor="start" x="249.3651" y="-1020.9" font-family="Arial" font-size="14.00" fill="#000000">device_id    </text>
<text text-anchor="start" x="342.6961" y="-1020.9" font-family="Arial" font-size="14.00" fill="#666666">[ULID]</text>
<polygon fill="none" stroke="#000000" points="242.3651,-979.5 242.3651,-1009.5 483.3651,-1009.5 483.3651,-979.5 242.3651,-979.5"/>
<text text-anchor="start" x="249.3651" y="-990.9" font-family="Arial" font-size="14.00" fill="#000000">walk_started_at    </text>
<text text-anchor="start" x="381.5937" y="-990.9" font-family="Arial" font-size="14.00" fill="#666666">[TIMESTAMP]</text>
<polygon fill="none" stroke="#000000" points="242.3651,-949.5 242.3651,-979.5 483.3651,-979.5 483.3651,-949.5 242.3651,-949.5"/>
<text text-anchor="start" x="249.3062" y="-960.9" font-family="Arial" font-size="14.00" fill="#000000">walk_finished_at    </text>
<text text-anchor="start" x="386.9794" y="-960.9" font-family="Arial" font-size="14.00" fill="#666666">[TIMESTAMP]</text>
<polygon fill="none" stroke="#000000" points="242.3651,-919.5 242.3651,-949.5 483.3651,-949.5 483.3651,-919.5 242.3651,-919.5"/>
<text text-anchor="start" x="249.3651" y="-930.9" font-family="Arial" font-size="14.00" fill="#000000">ignore_paths_regex    </text>
<text text-anchor="start" x="407.2795" y="-930.9" font-family="Arial" font-size="14.00" fill="#666666">[TEXT]</text>
<polygon fill="none" stroke="#000000" points="242.3651,-889.5 242.3651,-919.5 483.3651,-919.5 483.3651,-889.5 242.3651,-889.5"/>
<text text-anchor="start" x="249.3651" y="-900.9" font-family="Arial" font-size="14.00" fill="#000000">blobs_regex    </text>
<text text-anchor="start" x="359.8153" y="-900.9" font-family="Arial" font-size="14.00" fill="#666666">[TEXT]</text>
<polygon fill="none" stroke="#000000" points="242.3651,-859.5 242.3651,-889.5 483.3651,-889.5 483.3651,-859.5 242.3651,-859.5"/>
<text text-anchor="start" x="249.3651" y="-870.9" font-family="Arial" font-size="14.00" fill="#000000">digests_regex    </text>
<text text-anchor="start" x="370.7059" y="-870.9" font-family="Arial" font-size="14.00" fill="#666666">[TEXT]</text>
<polygon fill="none" stroke="#000000" points="242.3651,-829.5 242.3651,-859.5 483.3651,-859.5 483.3651,-829.5 242.3651,-829.5"/>
<text text-anchor="start" x="249.3651" y="-840.9" font-family="Arial" font-size="14.00" fill="#000000">elaboration    </text>
<text text-anchor="start" x="352.8125" y="-840.9" font-family="Arial" font-size="14.00" fill="#666666">[TEXT]</text>
<polygon fill="none" stroke="#000000" points="242.3651,-799.5 242.3651,-829.5 483.3651,-829.5 483.3651,-799.5 242.3651,-799.5"/>
<text text-anchor="start" x="249.3651" y="-810.9" font-family="Arial" font-size="14.00" fill="#000000">created_at    </text>
<text text-anchor="start" x="349.7073" y="-810.9" font-family="Arial" font-size="14.00" fill="#666666">[TIMESTAMP]</text>
<polygon fill="none" stroke="#000000" points="242.3651,-769.5 242.3651,-799.5 483.3651,-799.5 483.3651,-769.5 242.3651,-769.5"/>
<text text-anchor="start" x="249.3651" y="-780.9" font-family="Arial" font-size="14.00" fill="#000000">created_by    </text>
<text text-anchor="start" x="352.8167" y="-780.9" font-family="Arial" font-size="14.00" fill="#666666">[TEXT]</text>
<polygon fill="none" stroke="#000000" points="242.3651,-739.5 242.3651,-769.5 483.3651,-769.5 483.3651,-739.5 242.3651,-739.5"/>
<text text-anchor="start" x="249.3651" y="-750.9" font-family="Arial" font-size="14.00" fill="#000000">updated_at    </text>
<text text-anchor="start" x="353.6119" y="-750.9" font-family="Arial" font-size="14.00" fill="#666666">[TIMESTAMP]</text>
<polygon fill="none" stroke="#000000" points="242.3651,-709.5 242.3651,-739.5 483.3651,-739.5 483.3651,-709.5 242.3651,-709.5"/>
<text text-anchor="start" x="249.3651" y="-720.9" font-family="Arial" font-size="14.00" fill="#000000">updated_by    </text>
<text text-anchor="start" x="356.7213" y="-720.9" font-family="Arial" font-size="14.00" fill="#666666">[TEXT]</text>
<polygon fill="none" stroke="#000000" points="242.3651,-679.5 242.3651,-709.5 483.3651,-709.5 483.3651,-679.5 242.3651,-679.5"/>
<text text-anchor="start" x="249.3651" y="-690.9" font-family="Arial" font-size="14.00" fill="#000000">deleted_at    </text>
<text text-anchor="start" x="348.9359" y="-690.9" font-family="Arial" font-size="14.00" fill="#666666">[TIMESTAMP]</text>
<polygon fill="none" stroke="#000000" points="242.3651,-649.5 242.3651,-679.5 483.3651,-679.5 483.3651,-649.5 242.3651,-649.5"/>
<text text-anchor="start" x="249.3651" y="-660.9" font-family="Arial" font-size="14.00" fill="#000000">deleted_by    </text>
<text text-anchor="start" x="352.0453" y="-660.9" font-family="Arial" font-size="14.00" fill="#666666">[TEXT]</text>
<polygon fill="none" stroke="#000000" points="242.3651,-619.5 242.3651,-649.5 483.3651,-649.5 483.3651,-619.5 242.3651,-619.5"/>
<text text-anchor="start" x="249.3651" y="-630.9" font-family="Arial" font-size="14.00" fill="#000000">activity_log    </text>
<text text-anchor="start" x="352.8013" y="-630.9" font-family="Arial" font-size="14.00" fill="#666666">[TEXT]</text>
</g>
<!-- ur_walk_session_path&#45;&gt;ur_walk_session -->
<g id="edge7" class="edge">
<title>ur_walk_session_path:walk_session_id&#45;&gt;ur_walk_session:ur_walk_session_id</title>
<path fill="none" stroke="#000000" d="M247.3073,-1512.5931C186.4896,-1488.2021 212.0193,-1237.1407 257.3651,-1184 323.3868,-1106.6293 417.3435,-1225.3707 483.3651,-1148 510.3393,-1116.389 524.9207,-1054.5 483.3651,-1054.5"/>
<polygon fill="#000000" stroke="#000000" points="247.5402,-1512.6372 256.5269,-1518.9212 252.4526,-1513.5686 257.3651,-1514.5 257.3651,-1514.5 257.3651,-1514.5 252.4526,-1513.5686 258.2034,-1510.0788 247.5402,-1512.6372 247.5402,-1512.6372"/>
</g>
<!-- uniform_resource -->
<g id="node2" class="node">
<title>uniform_resource</title>
<polygon fill="#efefef" stroke="transparent" points="75.3651,-2319.5 75.3651,-2354.5 309.3651,-2354.5 309.3651,-2319.5 75.3651,-2319.5"/>
<polygon fill="none" stroke="#000000" points="75.3651,-2319.5 75.3651,-2354.5 309.3651,-2354.5 309.3651,-2319.5 75.3651,-2319.5"/>
<text text-anchor="start" x="86.1922" y="-2332.3" font-family="Arial Bold" font-size="18.00" fill="#000000">uniform_resource</text>
<text text-anchor="start" x="226.207" y="-2332.3" font-family="Arial" font-size="14.00" fill="#000000">    </text>
<text text-anchor="start" x="260.4118" y="-2332.3" font-family="Arial" font-size="14.00" fill="#666666">[table]</text>
<polygon fill="none" stroke="#000000" points="75.3651,-2289.5 75.3651,-2319.5 309.3651,-2319.5 309.3651,-2289.5 75.3651,-2289.5"/>
<text text-anchor="start" x="82.3651" y="-2300.9" font-family="Arial" font-size="14.00" fill="#000000">uniform_resource_id    </text>
<text text-anchor="start" x="244.1421" y="-2300.9" font-family="Arial" font-size="14.00" fill="#666666">[ULID]</text>
<polygon fill="none" stroke="#000000" points="75.3651,-2259.5 75.3651,-2289.5 309.3651,-2289.5 309.3651,-2259.5 75.3651,-2259.5"/>
<text text-anchor="start" x="82.3651" y="-2270.9" font-family="Arial" font-size="14.00" fill="#000000">device_id    </text>
<text text-anchor="start" x="175.6961" y="-2270.9" font-family="Arial" font-size="14.00" fill="#666666">[ULID]</text>
<polygon fill="none" stroke="#000000" points="75.3651,-2229.5 75.3651,-2259.5 309.3651,-2259.5 309.3651,-2229.5 75.3651,-2229.5"/>
<text text-anchor="start" x="82.3651" y="-2240.9" font-family="Arial" font-size="14.00" fill="#000000">walk_session_id    </text>
<text text-anchor="start" x="218.4745" y="-2240.9" font-family="Arial" font-size="14.00" fill="#666666">[ULID]</text>
<polygon fill="none" stroke="#000000" points="75.3651,-2199.5 75.3651,-2229.5 309.3651,-2229.5 309.3651,-2199.5 75.3651,-2199.5"/>
<text text-anchor="start" x="82.3651" y="-2210.9" font-family="Arial" font-size="14.00" fill="#000000">walk_path_id    </text>
<text text-anchor="start" x="198.2585" y="-2210.9" font-family="Arial" font-size="14.00" fill="#666666">[ULID]</text>
<polygon fill="none" stroke="#000000" points="75.3651,-2169.5 75.3651,-2199.5 309.3651,-2199.5 309.3651,-2169.5 75.3651,-2169.5"/>
<text text-anchor="start" x="82.3651" y="-2180.9" font-family="Arial" font-size="14.00" fill="#000000">uri    </text>
<text text-anchor="start" x="132.1197" y="-2180.9" font-family="Arial" font-size="14.00" fill="#666666">[TEXT]</text>
<polygon fill="none" stroke="#000000" points="75.3651,-2139.5 75.3651,-2169.5 309.3651,-2169.5 309.3651,-2139.5 75.3651,-2139.5"/>
<text text-anchor="start" x="82.3651" y="-2150.9" font-family="Arial" font-size="14.00" fill="#000000">content_digest    </text>
<text text-anchor="start" x="207.6091" y="-2150.9" font-family="Arial" font-size="14.00" fill="#666666">[TEXT]</text>
<polygon fill="none" stroke="#000000" points="75.3651,-2109.5 75.3651,-2139.5 309.3651,-2139.5 309.3651,-2109.5 75.3651,-2109.5"/>
<text text-anchor="start" x="82.3651" y="-2120.9" font-family="Arial" font-size="14.00" fill="#000000">content    </text>
<text text-anchor="start" x="162.4815" y="-2120.9" font-family="Arial" font-size="14.00" fill="#666666">[BLOB]</text>
<polygon fill="none" stroke="#000000" points="75.3651,-2079.5 75.3651,-2109.5 309.3651,-2109.5 309.3651,-2079.5 75.3651,-2079.5"/>
<text text-anchor="start" x="82.3651" y="-2090.9" font-family="Arial" font-size="14.00" fill="#000000">nature    </text>
<text text-anchor="start" x="156.2515" y="-2090.9" font-family="Arial" font-size="14.00" fill="#666666">[TEXT]</text>
<polygon fill="none" stroke="#000000" points="75.3651,-2049.5 75.3651,-2079.5 309.3651,-2079.5 309.3651,-2049.5 75.3651,-2049.5"/>
<text text-anchor="start" x="82.3651" y="-2060.9" font-family="Arial" font-size="14.00" fill="#000000">size_bytes    </text>
<text text-anchor="start" x="182.6975" y="-2060.9" font-family="Arial" font-size="14.00" fill="#666666">[INTEGER]</text>
<polygon fill="none" stroke="#000000" points="75.3651,-2019.5 75.3651,-2049.5 309.3651,-2049.5 309.3651,-2019.5 75.3651,-2019.5"/>
<text text-anchor="start" x="82.3651" y="-2030.9" font-family="Arial" font-size="14.00" fill="#000000">last_modified_at    </text>
<text text-anchor="start" x="218.4829" y="-2030.9" font-family="Arial" font-size="14.00" fill="#666666">[INTEGER]</text>
<polygon fill="none" stroke="#000000" points="75.3651,-1989.5 75.3651,-2019.5 309.3651,-2019.5 309.3651,-1989.5 75.3651,-1989.5"/>
<text text-anchor="start" x="82.2915" y="-2000.9" font-family="Arial" font-size="14.00" fill="#000000">content_fm_body_attrs    </text>
<text text-anchor="start" x="258.8791" y="-2000.9" font-family="Arial" font-size="14.00" fill="#666666">[TEXT]</text>
<polygon fill="none" stroke="#000000" points="75.3651,-1959.5 75.3651,-1989.5 309.3651,-1989.5 309.3651,-1959.5 75.3651,-1959.5"/>
<text text-anchor="start" x="82.3651" y="-1970.9" font-family="Arial" font-size="14.00" fill="#000000">frontmatter    </text>
<text text-anchor="start" x="184.2445" y="-1970.9" font-family="Arial" font-size="14.00" fill="#666666">[TEXT]</text>
<polygon fill="none" stroke="#000000" points="75.3651,-1929.5 75.3651,-1959.5 309.3651,-1959.5 309.3651,-1929.5 75.3651,-1929.5"/>
<text text-anchor="start" x="82.3651" y="-1940.9" font-family="Arial" font-size="14.00" fill="#000000">elaboration    </text>
<text text-anchor="start" x="185.8125" y="-1940.9" font-family="Arial" font-size="14.00" fill="#666666">[TEXT]</text>
<polygon fill="none" stroke="#000000" points="75.3651,-1899.5 75.3651,-1929.5 309.3651,-1929.5 309.3651,-1899.5 75.3651,-1899.5"/>
<text text-anchor="start" x="82.3651" y="-1910.9" font-family="Arial" font-size="14.00" fill="#000000">created_at    </text>
<text text-anchor="start" x="182.7073" y="-1910.9" font-family="Arial" font-size="14.00" fill="#666666">[TIMESTAMP]</text>
<polygon fill="none" stroke="#000000" points="75.3651,-1869.5 75.3651,-1899.5 309.3651,-1899.5 309.3651,-1869.5 75.3651,-1869.5"/>
<text text-anchor="start" x="82.3651" y="-1880.9" font-family="Arial" font-size="14.00" fill="#000000">created_by    </text>
<text text-anchor="start" x="185.8167" y="-1880.9" font-family="Arial" font-size="14.00" fill="#666666">[TEXT]</text>
<polygon fill="none" stroke="#000000" points="75.3651,-1839.5 75.3651,-1869.5 309.3651,-1869.5 309.3651,-1839.5 75.3651,-1839.5"/>
<text text-anchor="start" x="82.3651" y="-1850.9" font-family="Arial" font-size="14.00" fill="#000000">updated_at    </text>
<text text-anchor="start" x="186.6119" y="-1850.9" font-family="Arial" font-size="14.00" fill="#666666">[TIMESTAMP]</text>
<polygon fill="none" stroke="#000000" points="75.3651,-1809.5 75.3651,-1839.5 309.3651,-1839.5 309.3651,-1809.5 75.3651,-1809.5"/>
<text text-anchor="start" x="82.3651" y="-1820.9" font-family="Arial" font-size="14.00" fill="#000000">updated_by    </text>
<text text-anchor="start" x="189.7213" y="-1820.9" font-family="Arial" font-size="14.00" fill="#666666">[TEXT]</text>
<polygon fill="none" stroke="#000000" points="75.3651,-1779.5 75.3651,-1809.5 309.3651,-1809.5 309.3651,-1779.5 75.3651,-1779.5"/>
<text text-anchor="start" x="82.3651" y="-1790.9" font-family="Arial" font-size="14.00" fill="#000000">deleted_at    </text>
<text text-anchor="start" x="181.9359" y="-1790.9" font-family="Arial" font-size="14.00" fill="#666666">[TIMESTAMP]</text>
<polygon fill="none" stroke="#000000" points="75.3651,-1749.5 75.3651,-1779.5 309.3651,-1779.5 309.3651,-1749.5 75.3651,-1749.5"/>
<text text-anchor="start" x="82.3651" y="-1760.9" font-family="Arial" font-size="14.00" fill="#000000">deleted_by    </text>
<text text-anchor="start" x="185.0453" y="-1760.9" font-family="Arial" font-size="14.00" fill="#666666">[TEXT]</text>
<polygon fill="none" stroke="#000000" points="75.3651,-1719.5 75.3651,-1749.5 309.3651,-1749.5 309.3651,-1719.5 75.3651,-1719.5"/>
<text text-anchor="start" x="82.3651" y="-1730.9" font-family="Arial" font-size="14.00" fill="#000000">activity_log    </text>
<text text-anchor="start" x="185.8013" y="-1730.9" font-family="Arial" font-size="14.00" fill="#666666">[TEXT]</text>
</g>
<!-- uniform_resource&#45;&gt;ur_walk_session_path -->
<g id="edge1" class="edge">
<title>uniform_resource:walk_path_id&#45;&gt;ur_walk_session_path:ur_walk_session_path_id</title>
<path fill="none" stroke="#000000" d="M318.6479,-2210.0025C365.4756,-2160.9889 335.5127,-1726.9044 309.3651,-1677 296.3195,-1652.1015 270.4108,-1665.8985 257.3651,-1641 237.4601,-1603.0099 214.4762,-1544.5 257.3651,-1544.5"/>
<polygon fill="#000000" stroke="#000000" points="318.3645,-2210.1397 307.403,-2210.4503 313.8648,-2212.3199 309.3651,-2214.5 309.3651,-2214.5 309.3651,-2214.5 313.8648,-2212.3199 311.3273,-2218.5497 318.3645,-2210.1397 318.3645,-2210.1397"/>
</g>
<!-- device -->
<g id="node4" class="node">
<title>device</title>
<polygon fill="#efefef" stroke="transparent" points="150.3651,-462.5 150.3651,-497.5 357.3651,-497.5 357.3651,-462.5 150.3651,-462.5"/>
<polygon fill="none" stroke="#000000" points="150.3651,-462.5 150.3651,-497.5 357.3651,-497.5 357.3651,-462.5 150.3651,-462.5"/>
<text text-anchor="start" x="191.6932" y="-475.3" font-family="Arial Bold" font-size="18.00" fill="#000000">device</text>
<text text-anchor="start" x="243.706" y="-475.3" font-family="Arial" font-size="14.00" fill="#000000">    </text>
<text text-anchor="start" x="277.9108" y="-475.3" font-family="Arial" font-size="14.00" fill="#666666">[table]</text>
<polygon fill="none" stroke="#000000" points="150.3651,-432.5 150.3651,-462.5 357.3651,-462.5 357.3651,-432.5 150.3651,-432.5"/>
<text text-anchor="start" x="157.3651" y="-443.9" font-family="Arial" font-size="14.00" fill="#000000">device_id    </text>
<text text-anchor="start" x="250.6961" y="-443.9" font-family="Arial" font-size="14.00" fill="#666666">[ULID]</text>
<polygon fill="none" stroke="#000000" points="150.3651,-402.5 150.3651,-432.5 357.3651,-432.5 357.3651,-402.5 150.3651,-402.5"/>
<text text-anchor="start" x="157.3651" y="-413.9" font-family="Arial" font-size="14.00" fill="#000000">name    </text>
<text text-anchor="start" x="226.5783" y="-413.9" font-family="Arial" font-size="14.00" fill="#666666">[TEXT]</text>
<polygon fill="none" stroke="#000000" points="150.3651,-372.5 150.3651,-402.5 357.3651,-402.5 357.3651,-372.5 150.3651,-372.5"/>
<text text-anchor="start" x="157.3651" y="-383.9" font-family="Arial" font-size="14.00" fill="#000000">state    </text>
<text text-anchor="start" x="221.9163" y="-383.9" font-family="Arial" font-size="14.00" fill="#666666">[TEXT]</text>
<polygon fill="none" stroke="#000000" points="150.3651,-342.5 150.3651,-372.5 357.3651,-372.5 357.3651,-342.5 150.3651,-342.5"/>
<text text-anchor="start" x="157.3651" y="-353.9" font-family="Arial" font-size="14.00" fill="#000000">boundary    </text>
<text text-anchor="start" x="249.9261" y="-353.9" font-family="Arial" font-size="14.00" fill="#666666">[TEXT]</text>
<polygon fill="none" stroke="#000000" points="150.3651,-312.5 150.3651,-342.5 357.3651,-342.5 357.3651,-312.5 150.3651,-312.5"/>
<text text-anchor="start" x="157.3651" y="-323.9" font-family="Arial" font-size="14.00" fill="#000000">segmentation    </text>
<text text-anchor="start" x="275.5965" y="-323.9" font-family="Arial" font-size="14.00" fill="#666666">[TEXT]</text>
<polygon fill="none" stroke="#000000" points="150.3651,-282.5 150.3651,-312.5 357.3651,-312.5 357.3651,-282.5 150.3651,-282.5"/>
<text text-anchor="start" x="157.3651" y="-293.9" font-family="Arial" font-size="14.00" fill="#000000">state_sysinfo    </text>
<text text-anchor="start" x="273.2613" y="-293.9" font-family="Arial" font-size="14.00" fill="#666666">[TEXT]</text>
<polygon fill="none" stroke="#000000" points="150.3651,-252.5 150.3651,-282.5 357.3651,-282.5 357.3651,-252.5 150.3651,-252.5"/>
<text text-anchor="start" x="157.3651" y="-263.9" font-family="Arial" font-size="14.00" fill="#000000">elaboration    </text>
<text text-anchor="start" x="260.8125" y="-263.9" font-family="Arial" font-size="14.00" fill="#666666">[TEXT]</text>
<polygon fill="none" stroke="#000000" points="150.3651,-222.5 150.3651,-252.5 357.3651,-252.5 357.3651,-222.5 150.3651,-222.5"/>
<text text-anchor="start" x="157.3651" y="-233.9" font-family="Arial" font-size="14.00" fill="#000000">created_at    </text>
<text text-anchor="start" x="257.7073" y="-233.9" font-family="Arial" font-size="14.00" fill="#666666">[TIMESTAMP]</text>
<polygon fill="none" stroke="#000000" points="150.3651,-192.5 150.3651,-222.5 357.3651,-222.5 357.3651,-192.5 150.3651,-192.5"/>
<text text-anchor="start" x="157.3651" y="-203.9" font-family="Arial" font-size="14.00" fill="#000000">created_by    </text>
<text text-anchor="start" x="260.8167" y="-203.9" font-family="Arial" font-size="14.00" fill="#666666">[TEXT]</text>
<polygon fill="none" stroke="#000000" points="150.3651,-162.5 150.3651,-192.5 357.3651,-192.5 357.3651,-162.5 150.3651,-162.5"/>
<text text-anchor="start" x="157.0194" y="-173.9" font-family="Arial" font-size="14.00" fill="#000000">updated_at    </text>
<text text-anchor="start" x="261.2662" y="-173.9" font-family="Arial" font-size="14.00" fill="#666666">[TIMESTAMP]</text>
<polygon fill="none" stroke="#000000" points="150.3651,-132.5 150.3651,-162.5 357.3651,-162.5 357.3651,-132.5 150.3651,-132.5"/>
<text text-anchor="start" x="157.3651" y="-143.9" font-family="Arial" font-size="14.00" fill="#000000">updated_by    </text>
<text text-anchor="start" x="264.7213" y="-143.9" font-family="Arial" font-size="14.00" fill="#666666">[TEXT]</text>
<polygon fill="none" stroke="#000000" points="150.3651,-102.5 150.3651,-132.5 357.3651,-132.5 357.3651,-102.5 150.3651,-102.5"/>
<text text-anchor="start" x="157.3651" y="-113.9" font-family="Arial" font-size="14.00" fill="#000000">deleted_at    </text>
<text text-anchor="start" x="256.9359" y="-113.9" font-family="Arial" font-size="14.00" fill="#666666">[TIMESTAMP]</text>
<polygon fill="none" stroke="#000000" points="150.3651,-72.5 150.3651,-102.5 357.3651,-102.5 357.3651,-72.5 150.3651,-72.5"/>
<text text-anchor="start" x="157.3651" y="-83.9" font-family="Arial" font-size="14.00" fill="#000000">deleted_by    </text>
<text text-anchor="start" x="260.0453" y="-83.9" font-family="Arial" font-size="14.00" fill="#666666">[TEXT]</text>
<polygon fill="none" stroke="#000000" points="150.3651,-42.5 150.3651,-72.5 357.3651,-72.5 357.3651,-42.5 150.3651,-42.5"/>
<text text-anchor="start" x="157.3651" y="-53.9" font-family="Arial" font-size="14.00" fill="#000000">activity_log    </text>
<text text-anchor="start" x="260.8013" y="-53.9" font-family="Arial" font-size="14.00" fill="#666666">[TEXT]</text>
</g>
<!-- uniform_resource&#45;&gt;device -->
<g id="edge3" class="edge">
<title>uniform_resource:device_id&#45;&gt;device:device_id</title>
<path fill="none" stroke="#000000" d="M66.6205,-2269.5781C-21.655,-2165.5553 51.855,-447.5 150.3651,-447.5"/>
<polygon fill="#000000" stroke="#000000" points="66.6506,-2269.5951 73.1579,-2278.4215 71.0079,-2272.0475 75.3651,-2274.5 75.3651,-2274.5 75.3651,-2274.5 71.0079,-2272.0475 77.5723,-2270.5785 66.6506,-2269.5951 66.6506,-2269.5951"/>
</g>
<!-- uniform_resource&#45;&gt;ur_walk_session -->
<g id="edge4" class="edge">
<title>uniform_resource:walk_session_id&#45;&gt;ur_walk_session:ur_walk_session_id</title>
<path fill="none" stroke="#000000" d="M65.0866,-2243.4065C-47.5249,-2218.606 7.9082,-1779.3011 75.3651,-1677 97.7247,-1643.0909 135.4402,-1673.8234 159.3651,-1641 236.9005,-1534.6269 110.7332,-1054.5 242.3651,-1054.5"/>
<polygon fill="#000000" stroke="#000000" points="65.4213,-2243.442 74.889,-2248.9747 70.3932,-2243.971 75.3651,-2244.5 75.3651,-2244.5 75.3651,-2244.5 70.3932,-2243.971 75.8412,-2240.0253 65.4213,-2243.442 65.4213,-2243.442"/>
</g>
<!-- ur_walk_session_path_fs_entry -->
<g id="node3" class="node">
<title>ur_walk_session_path_fs_entry</title>
<polygon fill="#efefef" stroke="transparent" points="220.3651,-3046.5 220.3651,-3081.5 558.3651,-3081.5 558.3651,-3046.5 220.3651,-3046.5"/>
<polygon fill="none" stroke="#000000" points="220.3651,-3046.5 220.3651,-3081.5 558.3651,-3081.5 558.3651,-3046.5 220.3651,-3046.5"/>
<text text-anchor="start" x="227.1663" y="-3059.3" font-family="Arial Bold" font-size="18.00" fill="#000000">ur_walk_session_path_fs_entry</text>
<text text-anchor="start" x="479.2329" y="-3059.3" font-family="Arial" font-size="14.00" fill="#000000">    </text>
<text text-anchor="start" x="513.4377" y="-3059.3" font-family="Arial" font-size="14.00" fill="#666666">[table]</text>
<polygon fill="none" stroke="#000000" points="220.3651,-3016.5 220.3651,-3046.5 558.3651,-3046.5 558.3651,-3016.5 220.3651,-3016.5"/>
<text text-anchor="start" x="227.3651" y="-3027.9" font-family="Arial" font-size="14.00" fill="#000000">ur_walk_session_path_fs_entry_id    </text>
<text text-anchor="start" x="476.2935" y="-3027.9" font-family="Arial" font-size="14.00" fill="#666666">[ULID]</text>
<polygon fill="none" stroke="#000000" points="220.3651,-2986.5 220.3651,-3016.5 558.3651,-3016.5 558.3651,-2986.5 220.3651,-2986.5"/>
<text text-anchor="start" x="227.3651" y="-2997.9" font-family="Arial" font-size="14.00" fill="#000000">walk_session_id    </text>
<text text-anchor="start" x="363.4745" y="-2997.9" font-family="Arial" font-size="14.00" fill="#666666">[ULID]</text>
<polygon fill="none" stroke="#000000" points="220.3651,-2956.5 220.3651,-2986.5 558.3651,-2986.5 558.3651,-2956.5 220.3651,-2956.5"/>
<text text-anchor="start" x="227.3651" y="-2967.9" font-family="Arial" font-size="14.00" fill="#000000">walk_path_id    </text>
<text text-anchor="start" x="343.2585" y="-2967.9" font-family="Arial" font-size="14.00" fill="#666666">[ULID]</text>
<polygon fill="none" stroke="#000000" points="220.3651,-2926.5 220.3651,-2956.5 558.3651,-2956.5 558.3651,-2926.5 220.3651,-2926.5"/>
<text text-anchor="start" x="227.3651" y="-2937.9" font-family="Arial" font-size="14.00" fill="#000000">uniform_resource_id    </text>
<text text-anchor="start" x="389.1421" y="-2937.9" font-family="Arial" font-size="14.00" fill="#666666">[ULID]</text>
<polygon fill="none" stroke="#000000" points="220.3651,-2896.5 220.3651,-2926.5 558.3651,-2926.5 558.3651,-2896.5 220.3651,-2896.5"/>
<text text-anchor="start" x="227.3651" y="-2907.9" font-family="Arial" font-size="14.00" fill="#000000">file_path_abs    </text>
<text text-anchor="start" x="344.8251" y="-2907.9" font-family="Arial" font-size="14.00" fill="#666666">[TEXT]</text>
<polygon fill="none" stroke="#000000" points="220.3651,-2866.5 220.3651,-2896.5 558.3651,-2896.5 558.3651,-2866.5 220.3651,-2866.5"/>
<text text-anchor="start" x="227.3651" y="-2877.9" font-family="Arial" font-size="14.00" fill="#000000">file_path_rel_parent    </text>
<text text-anchor="start" x="385.2739" y="-2877.9" font-family="Arial" font-size="14.00" fill="#666666">[TEXT]</text>
<polygon fill="none" stroke="#000000" points="220.3651,-2836.5 220.3651,-2866.5 558.3651,-2866.5 558.3651,-2836.5 220.3651,-2836.5"/>
<text text-anchor="start" x="227.3651" y="-2847.9" font-family="Arial" font-size="14.00" fill="#000000">file_path_rel    </text>
<text text-anchor="start" x="337.8097" y="-2847.9" font-family="Arial" font-size="14.00" fill="#666666">[TEXT]</text>
<polygon fill="none" stroke="#000000" points="220.3651,-2806.5 220.3651,-2836.5 558.3651,-2836.5 558.3651,-2806.5 220.3651,-2806.5"/>
<text text-anchor="start" x="227.3651" y="-2817.9" font-family="Arial" font-size="14.00" fill="#000000">file_basename    </text>
<text text-anchor="start" x="352.5951" y="-2817.9" font-family="Arial" font-size="14.00" fill="#666666">[TEXT]</text>
<polygon fill="none" stroke="#000000" points="220.3651,-2776.5 220.3651,-2806.5 558.3651,-2806.5 558.3651,-2776.5 220.3651,-2776.5"/>
<text text-anchor="start" x="227.3651" y="-2787.9" font-family="Arial" font-size="14.00" fill="#000000">file_extn    </text>
<text text-anchor="start" x="313.6947" y="-2787.9" font-family="Arial" font-size="14.00" fill="#666666">[TEXT]</text>
<polygon fill="none" stroke="#000000" points="220.3651,-2746.5 220.3651,-2776.5 558.3651,-2776.5 558.3651,-2746.5 220.3651,-2746.5"/>
<text text-anchor="start" x="227.3651" y="-2757.9" font-family="Arial" font-size="14.00" fill="#000000">ur_status    </text>
<text text-anchor="start" x="319.1421" y="-2757.9" font-family="Arial" font-size="14.00" fill="#666666">[TEXT]</text>
<polygon fill="none" stroke="#000000" points="220.3651,-2716.5 220.3651,-2746.5 558.3651,-2746.5 558.3651,-2716.5 220.3651,-2716.5"/>
<text text-anchor="start" x="227.3651" y="-2727.9" font-family="Arial" font-size="14.00" fill="#000000">ur_status_explanation    </text>
<text text-anchor="start" x="398.5067" y="-2727.9" font-family="Arial" font-size="14.00" fill="#666666">[TEXT]</text>
<polygon fill="none" stroke="#000000" points="220.3651,-2686.5 220.3651,-2716.5 558.3651,-2716.5 558.3651,-2686.5 220.3651,-2686.5"/>
<text text-anchor="start" x="227.3651" y="-2697.9" font-family="Arial" font-size="14.00" fill="#000000">elaboration    </text>
<text text-anchor="start" x="330.8125" y="-2697.9" font-family="Arial" font-size="14.00" fill="#666666">[TEXT]</text>
<polygon fill="none" stroke="#000000" points="220.3651,-2656.5 220.3651,-2686.5 558.3651,-2686.5 558.3651,-2656.5 220.3651,-2656.5"/>
<text text-anchor="start" x="227.3651" y="-2667.9" font-family="Arial" font-size="14.00" fill="#000000">created_at    </text>
<text text-anchor="start" x="327.7073" y="-2667.9" font-family="Arial" font-size="14.00" fill="#666666">[TIMESTAMP]</text>
<polygon fill="none" stroke="#000000" points="220.3651,-2626.5 220.3651,-2656.5 558.3651,-2656.5 558.3651,-2626.5 220.3651,-2626.5"/>
<text text-anchor="start" x="227.3651" y="-2637.9" font-family="Arial" font-size="14.00" fill="#000000">created_by    </text>
<text text-anchor="start" x="330.8167" y="-2637.9" font-family="Arial" font-size="14.00" fill="#666666">[TEXT]</text>
<polygon fill="none" stroke="#000000" points="220.3651,-2596.5 220.3651,-2626.5 558.3651,-2626.5 558.3651,-2596.5 220.3651,-2596.5"/>
<text text-anchor="start" x="227.3651" y="-2607.9" font-family="Arial" font-size="14.00" fill="#000000">updated_at    </text>
<text text-anchor="start" x="331.6119" y="-2607.9" font-family="Arial" font-size="14.00" fill="#666666">[TIMESTAMP]</text>
<polygon fill="none" stroke="#000000" points="220.3651,-2566.5 220.3651,-2596.5 558.3651,-2596.5 558.3651,-2566.5 220.3651,-2566.5"/>
<text text-anchor="start" x="227.3651" y="-2577.9" font-family="Arial" font-size="14.00" fill="#000000">updated_by    </text>
<text text-anchor="start" x="334.7213" y="-2577.9" font-family="Arial" font-size="14.00" fill="#666666">[TEXT]</text>
<polygon fill="none" stroke="#000000" points="220.3651,-2536.5 220.3651,-2566.5 558.3651,-2566.5 558.3651,-2536.5 220.3651,-2536.5"/>
<text text-anchor="start" x="227.3651" y="-2547.9" font-family="Arial" font-size="14.00" fill="#000000">deleted_at    </text>
<text text-anchor="start" x="326.9359" y="-2547.9" font-family="Arial" font-size="14.00" fill="#666666">[TIMESTAMP]</text>
<polygon fill="none" stroke="#000000" points="220.3651,-2506.5 220.3651,-2536.5 558.3651,-2536.5 558.3651,-2506.5 220.3651,-2506.5"/>
<text text-anchor="start" x="227.3651" y="-2517.9" font-family="Arial" font-size="14.00" fill="#000000">deleted_by    </text>
<text text-anchor="start" x="330.0453" y="-2517.9" font-family="Arial" font-size="14.00" fill="#666666">[TEXT]</text>
<polygon fill="none" stroke="#000000" points="220.3651,-2476.5 220.3651,-2506.5 558.3651,-2506.5 558.3651,-2476.5 220.3651,-2476.5"/>
<text text-anchor="start" x="227.3651" y="-2487.9" font-family="Arial" font-size="14.00" fill="#000000">activity_log    </text>
<text text-anchor="start" x="330.8013" y="-2487.9" font-family="Arial" font-size="14.00" fill="#666666">[TEXT]</text>
</g>
<!-- ur_walk_session_path_fs_entry&#45;&gt;ur_walk_session_path -->
<g id="edge5" class="edge">
<title>ur_walk_session_path_fs_entry:walk_path_id&#45;&gt;ur_walk_session_path:ur_walk_session_path_id</title>
<path fill="none" stroke="#000000" d="M563.3478,-2962.7573C594.6153,-2843.5121 559.1974,-1544.5 521.3651,-1544.5"/>
<polygon fill="#000000" stroke="#000000" points="563.3167,-2962.8119 554.4555,-2969.2718 560.8409,-2967.156 558.3651,-2971.5 558.3651,-2971.5 558.3651,-2971.5 560.8409,-2967.156 562.2748,-2973.7282 563.3167,-2962.8119 563.3167,-2962.8119"/>
</g>
<!-- ur_walk_session_path_fs_entry&#45;&gt;uniform_resource -->
<g id="edge2" class="edge">
<title>ur_walk_session_path_fs_entry:uniform_resource_id&#45;&gt;uniform_resource:uniform_resource_id</title>
<path fill="none" stroke="#000000" d="M210.345,-2941.2813C-2.1732,-2931.8285 96.1823,-2618.1885 220.3651,-2434 244.2182,-2398.621 285.5121,-2433.379 309.3651,-2398 332.5958,-2363.5442 350.9207,-2304.5 309.3651,-2304.5"/>
<polygon fill="#000000" stroke="#000000" points="210.3675,-2941.2817 220.2669,-2945.9989 215.3663,-2941.3908 220.3651,-2941.5 220.3651,-2941.5 220.3651,-2941.5 215.3663,-2941.3908 220.4634,-2937.0011 210.3675,-2941.2817 210.3675,-2941.2817"/>
</g>
<!-- ur_walk_session_path_fs_entry&#45;&gt;ur_walk_session -->
<g id="edge6" class="edge">
<title>ur_walk_session_path_fs_entry:walk_session_id&#45;&gt;ur_walk_session:ur_walk_session_id</title>
<path fill="none" stroke="#000000" d="M568.7037,-3001.3261C819.8993,-2992.6725 568.5954,-2662.7305 572.3651,-2398 576.6254,-2098.8204 782.5751,-1054.5 483.3651,-1054.5"/>
<polygon fill="#000000" stroke="#000000" points="568.3637,-3001.3317 558.2894,-2997.0006 563.3644,-3001.4159 558.3651,-3001.5 558.3651,-3001.5 558.3651,-3001.5 563.3644,-3001.4159 558.4408,-3005.9994 568.3637,-3001.3317 568.3637,-3001.3317"/>
</g>
<!-- ur_walk_session&#45;&gt;device -->
<g id="edge8" class="edge">
<title>ur_walk_session:device_id&#45;&gt;device:device_id</title>
<path fill="none" stroke="#000000" d="M232.3907,-1023.1663C145.7952,-999.0247 185.5506,-654.3188 242.3651,-577 274.0782,-533.8418 325.6521,-584.1582 357.3651,-541 381.9717,-507.513 398.9207,-447.5 357.3651,-447.5"/>
<polygon fill="#000000" stroke="#000000" points="232.4533,-1023.1746 241.7687,-1028.9603 237.4092,-1023.8373 242.3651,-1024.5 242.3651,-1024.5 242.3651,-1024.5 237.4092,-1023.8373 242.9616,-1020.0397 232.4533,-1023.1746 232.4533,-1023.1746"/>
</g>
</g>
</svg>
