<?xml version="1.0" encoding="UTF-8" standalone="no"?>
<!DOCTYPE svg PUBLIC "-//W3C//DTD SVG 1.1//EN"
 "http://www.w3.org/Graphics/SVG/1.1/DTD/svg11.dtd">
<!-- Generated by graphviz version 2.40.1 (20161225.0304)
 -->
<!-- Title: ur_walk_session Pages: 1 -->
<svg width="633pt" height="3073pt"
 viewBox="0.00 0.00 632.74 3073.00" xmlns="http://www.w3.org/2000/svg" xmlns:xlink="http://www.w3.org/1999/xlink">
<g id="graph0" class="graph" transform="scale(1 1) rotate(0) translate(4 3069)">
<title>ur_walk_session</title>
<polygon fill="#ffffff" stroke="transparent" points="-4,4 -4,-3069 628.7416,-3069 628.7416,4 -4,4"/>
<!-- ur_walk_session -->
<g id="node1" class="node">
<title>ur_walk_session</title>
<polygon fill="#efefef" stroke="transparent" points="156.3046,-1072.5 156.3046,-1107.5 375.3046,-1107.5 375.3046,-1072.5 156.3046,-1072.5"/>
<polygon fill="none" stroke="#000000" points="156.3046,-1072.5 156.3046,-1107.5 375.3046,-1107.5 375.3046,-1072.5 156.3046,-1072.5"/>
<text text-anchor="start" x="163.13" y="-1085.3" font-family="Arial Bold" font-size="18.00" fill="#000000">ur_walk_session</text>
<text text-anchor="start" x="296.1482" y="-1085.3" font-family="Arial" font-size="14.00" fill="#000000">    </text>
<text text-anchor="start" x="330.353" y="-1085.3" font-family="Arial" font-size="14.00" fill="#666666">[table]</text>
<polygon fill="none" stroke="#000000" points="156.3046,-1042.5 156.3046,-1072.5 375.3046,-1072.5 375.3046,-1042.5 156.3046,-1042.5"/>
<text text-anchor="start" x="163.3046" y="-1053.9" font-family="Arial" font-size="14.00" fill="#000000">ur_walk_session_id </text>
<text text-anchor="start" x="289.3256" y="-1053.9" font-family="Arial" font-size="14.00" fill="#666666">[ULID]</text>
<polygon fill="none" stroke="#000000" points="156.3046,-1012.5 156.3046,-1042.5 375.3046,-1042.5 375.3046,-1012.5 156.3046,-1012.5"/>
<text text-anchor="start" x="163.3046" y="-1023.9" font-family="Arial" font-size="14.00" fill="#000000">device_id </text>
<text text-anchor="start" x="226.3214" y="-1023.9" font-family="Arial" font-size="14.00" fill="#666666">[ULID]</text>
<polygon fill="none" stroke="#000000" points="156.3046,-982.5 156.3046,-1012.5 375.3046,-1012.5 375.3046,-982.5 156.3046,-982.5"/>
<text text-anchor="start" x="163.3046" y="-993.9" font-family="Arial" font-size="14.00" fill="#000000">walk_started_at </text>
<text text-anchor="start" x="265.219" y="-993.9" font-family="Arial" font-size="14.00" fill="#666666">[TIMESTAMP]</text>
<polygon fill="none" stroke="#000000" points="156.3046,-952.5 156.3046,-982.5 375.3046,-982.5 375.3046,-952.5 156.3046,-952.5"/>
<text text-anchor="start" x="163.3046" y="-963.9" font-family="Arial" font-size="14.00" fill="#000000">walk_finished_at </text>
<text text-anchor="start" x="270.6636" y="-963.9" font-family="Arial" font-size="14.00" fill="#666666">[TIMESTAMP]</text>
<polygon fill="none" stroke="#000000" points="156.3046,-922.5 156.3046,-952.5 375.3046,-952.5 375.3046,-922.5 156.3046,-922.5"/>
<text text-anchor="start" x="163.3046" y="-933.9" font-family="Arial" font-size="14.00" fill="#000000">ignore_paths_regex </text>
<text text-anchor="start" x="290.9048" y="-933.9" font-family="Arial" font-size="14.00" fill="#666666">[TEXT]</text>
<polygon fill="none" stroke="#000000" points="156.3046,-892.5 156.3046,-922.5 375.3046,-922.5 375.3046,-892.5 156.3046,-892.5"/>
<text text-anchor="start" x="163.3046" y="-903.9" font-family="Arial" font-size="14.00" fill="#000000">blobs_regex </text>
<text text-anchor="start" x="243.4406" y="-903.9" font-family="Arial" font-size="14.00" fill="#666666">[TEXT]</text>
<polygon fill="none" stroke="#000000" points="156.3046,-862.5 156.3046,-892.5 375.3046,-892.5 375.3046,-862.5 156.3046,-862.5"/>
<text text-anchor="start" x="163.3046" y="-873.9" font-family="Arial" font-size="14.00" fill="#000000">digests_regex </text>
<text text-anchor="start" x="254.3312" y="-873.9" font-family="Arial" font-size="14.00" fill="#666666">[TEXT]</text>
<polygon fill="none" stroke="#000000" points="156.3046,-832.5 156.3046,-862.5 375.3046,-862.5 375.3046,-832.5 156.3046,-832.5"/>
<text text-anchor="start" x="163.3046" y="-843.9" font-family="Arial" font-size="14.00" fill="#000000">elaboration </text>
<text text-anchor="start" x="236.4378" y="-843.9" font-family="Arial" font-size="14.00" fill="#666666">[TEXT]</text>
<polygon fill="none" stroke="#000000" points="156.3046,-802.5 156.3046,-832.5 375.3046,-832.5 375.3046,-802.5 156.3046,-802.5"/>
<text text-anchor="start" x="163.3046" y="-813.9" font-family="Arial" font-size="14.00" fill="#000000">created_at </text>
<text text-anchor="start" x="233.3326" y="-813.9" font-family="Arial" font-size="14.00" fill="#666666">[TIMESTAMP]</text>
<polygon fill="none" stroke="#000000" points="156.3046,-772.5 156.3046,-802.5 375.3046,-802.5 375.3046,-772.5 156.3046,-772.5"/>
<text text-anchor="start" x="163.3046" y="-783.9" font-family="Arial" font-size="14.00" fill="#000000">created_by </text>
<text text-anchor="start" x="236.442" y="-783.9" font-family="Arial" font-size="14.00" fill="#666666">[TEXT]</text>
<polygon fill="none" stroke="#000000" points="156.3046,-742.5 156.3046,-772.5 375.3046,-772.5 375.3046,-742.5 156.3046,-742.5"/>
<text text-anchor="start" x="163.3046" y="-753.9" font-family="Arial" font-size="14.00" fill="#000000">updated_at </text>
<text text-anchor="start" x="237.2372" y="-753.9" font-family="Arial" font-size="14.00" fill="#666666">[TIMESTAMP]</text>
<polygon fill="none" stroke="#000000" points="156.3046,-712.5 156.3046,-742.5 375.3046,-742.5 375.3046,-712.5 156.3046,-712.5"/>
<text text-anchor="start" x="163.3046" y="-723.9" font-family="Arial" font-size="14.00" fill="#000000">updated_by </text>
<text text-anchor="start" x="240.3466" y="-723.9" font-family="Arial" font-size="14.00" fill="#666666">[TEXT]</text>
<polygon fill="none" stroke="#000000" points="156.3046,-682.5 156.3046,-712.5 375.3046,-712.5 375.3046,-682.5 156.3046,-682.5"/>
<text text-anchor="start" x="163.3046" y="-693.9" font-family="Arial" font-size="14.00" fill="#000000">deleted_at </text>
<text text-anchor="start" x="232.5612" y="-693.9" font-family="Arial" font-size="14.00" fill="#666666">[TIMESTAMP]</text>
<polygon fill="none" stroke="#000000" points="156.3046,-652.5 156.3046,-682.5 375.3046,-682.5 375.3046,-652.5 156.3046,-652.5"/>
<text text-anchor="start" x="163.3046" y="-663.9" font-family="Arial" font-size="14.00" fill="#000000">deleted_by </text>
<text text-anchor="start" x="235.6706" y="-663.9" font-family="Arial" font-size="14.00" fill="#666666">[TEXT]</text>
<polygon fill="none" stroke="#000000" points="156.3046,-622.5 156.3046,-652.5 375.3046,-652.5 375.3046,-622.5 156.3046,-622.5"/>
<text text-anchor="start" x="163.3046" y="-633.9" font-family="Arial" font-size="14.00" fill="#000000">activity_log </text>
<text text-anchor="start" x="236.4266" y="-633.9" font-family="Arial" font-size="14.00" fill="#666666">[TEXT]</text>
<polygon fill="none" stroke="#000000" stroke-width="3" points="154.3046,-621.5 154.3046,-1109.5 376.3046,-1109.5 376.3046,-621.5 154.3046,-621.5"/>
</g>
<!-- device -->
<g id="node5" class="node">
<title>device</title>
<polygon fill="#efefef" stroke="transparent" points="253.3046,-462.5 253.3046,-497.5 460.3046,-497.5 460.3046,-462.5 253.3046,-462.5"/>
<polygon fill="none" stroke="#000000" points="253.3046,-462.5 253.3046,-497.5 460.3046,-497.5 460.3046,-462.5 253.3046,-462.5"/>
<text text-anchor="start" x="294.6327" y="-475.3" font-family="Arial Bold" font-size="18.00" fill="#000000">device</text>
<text text-anchor="start" x="346.6455" y="-475.3" font-family="Arial" font-size="14.00" fill="#000000">    </text>
<text text-anchor="start" x="380.8503" y="-475.3" font-family="Arial" font-size="14.00" fill="#666666">[table]</text>
<polygon fill="none" stroke="#000000" points="253.3046,-432.5 253.3046,-462.5 460.3046,-462.5 460.3046,-432.5 253.3046,-432.5"/>
<text text-anchor="start" x="260.3046" y="-443.9" font-family="Arial" font-size="14.00" fill="#000000">device_id    </text>
<text text-anchor="start" x="353.6356" y="-443.9" font-family="Arial" font-size="14.00" fill="#666666">[ULID]</text>
<polygon fill="none" stroke="#000000" points="253.3046,-402.5 253.3046,-432.5 460.3046,-432.5 460.3046,-402.5 253.3046,-402.5"/>
<text text-anchor="start" x="260.3046" y="-413.9" font-family="Arial" font-size="14.00" fill="#000000">name    </text>
<text text-anchor="start" x="329.5178" y="-413.9" font-family="Arial" font-size="14.00" fill="#666666">[TEXT]</text>
<polygon fill="none" stroke="#000000" points="253.3046,-372.5 253.3046,-402.5 460.3046,-402.5 460.3046,-372.5 253.3046,-372.5"/>
<text text-anchor="start" x="260.3046" y="-383.9" font-family="Arial" font-size="14.00" fill="#000000">state    </text>
<text text-anchor="start" x="324.8558" y="-383.9" font-family="Arial" font-size="14.00" fill="#666666">[TEXT]</text>
<polygon fill="none" stroke="#000000" points="253.3046,-342.5 253.3046,-372.5 460.3046,-372.5 460.3046,-342.5 253.3046,-342.5"/>
<text text-anchor="start" x="260.3046" y="-353.9" font-family="Arial" font-size="14.00" fill="#000000">boundary    </text>
<text text-anchor="start" x="352.8656" y="-353.9" font-family="Arial" font-size="14.00" fill="#666666">[TEXT]</text>
<polygon fill="none" stroke="#000000" points="253.3046,-312.5 253.3046,-342.5 460.3046,-342.5 460.3046,-312.5 253.3046,-312.5"/>
<text text-anchor="start" x="260.3046" y="-323.9" font-family="Arial" font-size="14.00" fill="#000000">segmentation    </text>
<text text-anchor="start" x="378.536" y="-323.9" font-family="Arial" font-size="14.00" fill="#666666">[TEXT]</text>
<polygon fill="none" stroke="#000000" points="253.3046,-282.5 253.3046,-312.5 460.3046,-312.5 460.3046,-282.5 253.3046,-282.5"/>
<text text-anchor="start" x="260.3046" y="-293.9" font-family="Arial" font-size="14.00" fill="#000000">state_sysinfo    </text>
<text text-anchor="start" x="376.2008" y="-293.9" font-family="Arial" font-size="14.00" fill="#666666">[TEXT]</text>
<polygon fill="none" stroke="#000000" points="253.3046,-252.5 253.3046,-282.5 460.3046,-282.5 460.3046,-252.5 253.3046,-252.5"/>
<text text-anchor="start" x="260.3046" y="-263.9" font-family="Arial" font-size="14.00" fill="#000000">elaboration    </text>
<text text-anchor="start" x="363.752" y="-263.9" font-family="Arial" font-size="14.00" fill="#666666">[TEXT]</text>
<polygon fill="none" stroke="#000000" points="253.3046,-222.5 253.3046,-252.5 460.3046,-252.5 460.3046,-222.5 253.3046,-222.5"/>
<text text-anchor="start" x="260.3046" y="-233.9" font-family="Arial" font-size="14.00" fill="#000000">created_at    </text>
<text text-anchor="start" x="360.6468" y="-233.9" font-family="Arial" font-size="14.00" fill="#666666">[TIMESTAMP]</text>
<polygon fill="none" stroke="#000000" points="253.3046,-192.5 253.3046,-222.5 460.3046,-222.5 460.3046,-192.5 253.3046,-192.5"/>
<text text-anchor="start" x="260.3046" y="-203.9" font-family="Arial" font-size="14.00" fill="#000000">created_by    </text>
<text text-anchor="start" x="363.7562" y="-203.9" font-family="Arial" font-size="14.00" fill="#666666">[TEXT]</text>
<polygon fill="none" stroke="#000000" points="253.3046,-162.5 253.3046,-192.5 460.3046,-192.5 460.3046,-162.5 253.3046,-162.5"/>
<text text-anchor="start" x="259.9589" y="-173.9" font-family="Arial" font-size="14.00" fill="#000000">updated_at    </text>
<text text-anchor="start" x="364.2057" y="-173.9" font-family="Arial" font-size="14.00" fill="#666666">[TIMESTAMP]</text>
<polygon fill="none" stroke="#000000" points="253.3046,-132.5 253.3046,-162.5 460.3046,-162.5 460.3046,-132.5 253.3046,-132.5"/>
<text text-anchor="start" x="260.3046" y="-143.9" font-family="Arial" font-size="14.00" fill="#000000">updated_by    </text>
<text text-anchor="start" x="367.6608" y="-143.9" font-family="Arial" font-size="14.00" fill="#666666">[TEXT]</text>
<polygon fill="none" stroke="#000000" points="253.3046,-102.5 253.3046,-132.5 460.3046,-132.5 460.3046,-102.5 253.3046,-102.5"/>
<text text-anchor="start" x="260.3046" y="-113.9" font-family="Arial" font-size="14.00" fill="#000000">deleted_at    </text>
<text text-anchor="start" x="359.8754" y="-113.9" font-family="Arial" font-size="14.00" fill="#666666">[TIMESTAMP]</text>
<polygon fill="none" stroke="#000000" points="253.3046,-72.5 253.3046,-102.5 460.3046,-102.5 460.3046,-72.5 253.3046,-72.5"/>
<text text-anchor="start" x="260.3046" y="-83.9" font-family="Arial" font-size="14.00" fill="#000000">deleted_by    </text>
<text text-anchor="start" x="362.9848" y="-83.9" font-family="Arial" font-size="14.00" fill="#666666">[TEXT]</text>
<polygon fill="none" stroke="#000000" points="253.3046,-42.5 253.3046,-72.5 460.3046,-72.5 460.3046,-42.5 253.3046,-42.5"/>
<text text-anchor="start" x="260.3046" y="-53.9" font-family="Arial" font-size="14.00" fill="#000000">activity_log    </text>
<text text-anchor="start" x="363.7408" y="-53.9" font-family="Arial" font-size="14.00" fill="#666666">[TEXT]</text>
</g>
<!-- ur_walk_session&#45;&gt;device -->
<g id="edge8" class="edge">
<title>ur_walk_session:device_id&#45;&gt;device:device_id</title>
<path fill="none" stroke="#000000" d="M385.3482,-1026.1556C472.5667,-1001.8207 433.1379,-654.3643 375.3046,-577 341.4555,-531.7198 287.1536,-586.2802 253.3046,-541 228.4235,-507.7164 211.749,-447.5 253.3046,-447.5"/>
<polygon fill="#000000" stroke="#000000" points="385.2162,-1026.1732 374.7075,-1023.0398 380.2604,-1026.8366 375.3046,-1027.5 375.3046,-1027.5 375.3046,-1027.5 380.2604,-1026.8366 375.9016,-1031.9602 385.2162,-1026.1732 385.2162,-1026.1732"/>
</g>
<!-- ur_walk_session_path -->
<g id="node2" class="node">
<title>ur_walk_session_path</title>
<polygon fill="#efefef" stroke="transparent" points="105.3046,-1562.5 105.3046,-1597.5 369.3046,-1597.5 369.3046,-1562.5 105.3046,-1562.5"/>
<polygon fill="none" stroke="#000000" points="105.3046,-1562.5 105.3046,-1597.5 369.3046,-1597.5 369.3046,-1562.5 105.3046,-1562.5"/>
<text text-anchor="start" x="112.1165" y="-1575.3" font-family="Arial Bold" font-size="18.00" fill="#000000">ur_walk_session_path</text>
<text text-anchor="start" x="290.1617" y="-1575.3" font-family="Arial" font-size="14.00" fill="#000000">    </text>
<text text-anchor="start" x="324.3665" y="-1575.3" font-family="Arial" font-size="14.00" fill="#666666">[table]</text>
<polygon fill="none" stroke="#000000" points="105.3046,-1532.5 105.3046,-1562.5 369.3046,-1562.5 369.3046,-1532.5 105.3046,-1532.5"/>
<text text-anchor="start" x="112.3046" y="-1543.9" font-family="Arial" font-size="14.00" fill="#000000">ur_walk_session_path_id    </text>
<text text-anchor="start" x="303.6608" y="-1543.9" font-family="Arial" font-size="14.00" fill="#666666">[ULID]</text>
<polygon fill="none" stroke="#000000" points="105.3046,-1502.5 105.3046,-1532.5 369.3046,-1532.5 369.3046,-1502.5 105.3046,-1502.5"/>
<text text-anchor="start" x="112.3046" y="-1513.9" font-family="Arial" font-size="14.00" fill="#000000">walk_session_id    </text>
<text text-anchor="start" x="248.414" y="-1513.9" font-family="Arial" font-size="14.00" fill="#666666">[ULID]</text>
<polygon fill="none" stroke="#000000" points="105.3046,-1472.5 105.3046,-1502.5 369.3046,-1502.5 369.3046,-1472.5 105.3046,-1472.5"/>
<text text-anchor="start" x="112.3046" y="-1483.9" font-family="Arial" font-size="14.00" fill="#000000">root_path    </text>
<text text-anchor="start" x="205.6468" y="-1483.9" font-family="Arial" font-size="14.00" fill="#666666">[TEXT]</text>
<polygon fill="none" stroke="#000000" points="105.3046,-1442.5 105.3046,-1472.5 369.3046,-1472.5 369.3046,-1442.5 105.3046,-1442.5"/>
<text text-anchor="start" x="112.3046" y="-1453.9" font-family="Arial" font-size="14.00" fill="#000000">elaboration    </text>
<text text-anchor="start" x="215.752" y="-1453.9" font-family="Arial" font-size="14.00" fill="#666666">[TEXT]</text>
<polygon fill="none" stroke="#000000" points="105.3046,-1412.5 105.3046,-1442.5 369.3046,-1442.5 369.3046,-1412.5 105.3046,-1412.5"/>
<text text-anchor="start" x="112.3046" y="-1423.9" font-family="Arial" font-size="14.00" fill="#000000">created_at    </text>
<text text-anchor="start" x="212.6468" y="-1423.9" font-family="Arial" font-size="14.00" fill="#666666">[TIMESTAMP]</text>
<polygon fill="none" stroke="#000000" points="105.3046,-1382.5 105.3046,-1412.5 369.3046,-1412.5 369.3046,-1382.5 105.3046,-1382.5"/>
<text text-anchor="start" x="112.3046" y="-1393.9" font-family="Arial" font-size="14.00" fill="#000000">created_by    </text>
<text text-anchor="start" x="215.7562" y="-1393.9" font-family="Arial" font-size="14.00" fill="#666666">[TEXT]</text>
<polygon fill="none" stroke="#000000" points="105.3046,-1352.5 105.3046,-1382.5 369.3046,-1382.5 369.3046,-1352.5 105.3046,-1352.5"/>
<text text-anchor="start" x="112.3046" y="-1363.9" font-family="Arial" font-size="14.00" fill="#000000">updated_at    </text>
<text text-anchor="start" x="216.5514" y="-1363.9" font-family="Arial" font-size="14.00" fill="#666666">[TIMESTAMP]</text>
<polygon fill="none" stroke="#000000" points="105.3046,-1322.5 105.3046,-1352.5 369.3046,-1352.5 369.3046,-1322.5 105.3046,-1322.5"/>
<text text-anchor="start" x="112.3046" y="-1333.9" font-family="Arial" font-size="14.00" fill="#000000">updated_by    </text>
<text text-anchor="start" x="219.6608" y="-1333.9" font-family="Arial" font-size="14.00" fill="#666666">[TEXT]</text>
<polygon fill="none" stroke="#000000" points="105.3046,-1292.5 105.3046,-1322.5 369.3046,-1322.5 369.3046,-1292.5 105.3046,-1292.5"/>
<text text-anchor="start" x="112.3046" y="-1303.9" font-family="Arial" font-size="14.00" fill="#000000">deleted_at    </text>
<text text-anchor="start" x="211.8754" y="-1303.9" font-family="Arial" font-size="14.00" fill="#666666">[TIMESTAMP]</text>
<polygon fill="none" stroke="#000000" points="105.3046,-1262.5 105.3046,-1292.5 369.3046,-1292.5 369.3046,-1262.5 105.3046,-1262.5"/>
<text text-anchor="start" x="112.3046" y="-1273.9" font-family="Arial" font-size="14.00" fill="#000000">deleted_by    </text>
<text text-anchor="start" x="214.9848" y="-1273.9" font-family="Arial" font-size="14.00" fill="#666666">[TEXT]</text>
<polygon fill="none" stroke="#000000" points="105.3046,-1232.5 105.3046,-1262.5 369.3046,-1262.5 369.3046,-1232.5 105.3046,-1232.5"/>
<text text-anchor="start" x="112.3046" y="-1243.9" font-family="Arial" font-size="14.00" fill="#000000">activity_log    </text>
<text text-anchor="start" x="215.7408" y="-1243.9" font-family="Arial" font-size="14.00" fill="#666666">[TEXT]</text>
</g>
<!-- ur_walk_session_path&#45;&gt;ur_walk_session -->
<g id="edge1" class="edge">
<title>ur_walk_session_path:walk_session_id&#45;&gt;ur_walk_session:ur_walk_session_id</title>
<path fill="none" stroke="#000000" d="M379.2693,-1515.6119C439.5124,-1491.4615 413.989,-1242.8705 369.3046,-1190 307.3302,-1116.6722 218.2789,-1227.3278 156.3046,-1154 128.6196,-1121.2433 113.4157,-1057.5 156.3046,-1057.5"/>
<polygon fill="#000000" stroke="#000000" points="379.1297,-1515.6383 368.4668,-1513.0787 374.2171,-1516.5692 369.3046,-1517.5 369.3046,-1517.5 369.3046,-1517.5 374.2171,-1516.5692 370.1423,-1521.9213 379.1297,-1515.6383 379.1297,-1515.6383"/>
</g>
<!-- uniform_resource -->
<g id="node3" class="node">
<title>uniform_resource</title>
<polygon fill="#efefef" stroke="transparent" points="315.3046,-2319.5 315.3046,-2354.5 549.3046,-2354.5 549.3046,-2319.5 315.3046,-2319.5"/>
<polygon fill="none" stroke="#000000" points="315.3046,-2319.5 315.3046,-2354.5 549.3046,-2354.5 549.3046,-2319.5 315.3046,-2319.5"/>
<text text-anchor="start" x="326.1317" y="-2332.3" font-family="Arial Bold" font-size="18.00" fill="#000000">uniform_resource</text>
<text text-anchor="start" x="466.1465" y="-2332.3" font-family="Arial" font-size="14.00" fill="#000000">    </text>
<text text-anchor="start" x="500.3513" y="-2332.3" font-family="Arial" font-size="14.00" fill="#666666">[table]</text>
<polygon fill="none" stroke="#000000" points="315.3046,-2289.5 315.3046,-2319.5 549.3046,-2319.5 549.3046,-2289.5 315.3046,-2289.5"/>
<text text-anchor="start" x="322.3046" y="-2300.9" font-family="Arial" font-size="14.00" fill="#000000">uniform_resource_id    </text>
<text text-anchor="start" x="484.0816" y="-2300.9" font-family="Arial" font-size="14.00" fill="#666666">[ULID]</text>
<polygon fill="none" stroke="#000000" points="315.3046,-2259.5 315.3046,-2289.5 549.3046,-2289.5 549.3046,-2259.5 315.3046,-2259.5"/>
<text text-anchor="start" x="322.3046" y="-2270.9" font-family="Arial" font-size="14.00" fill="#000000">device_id    </text>
<text text-anchor="start" x="415.6356" y="-2270.9" font-family="Arial" font-size="14.00" fill="#666666">[ULID]</text>
<polygon fill="none" stroke="#000000" points="315.3046,-2229.5 315.3046,-2259.5 549.3046,-2259.5 549.3046,-2229.5 315.3046,-2229.5"/>
<text text-anchor="start" x="322.3046" y="-2240.9" font-family="Arial" font-size="14.00" fill="#000000">walk_session_id    </text>
<text text-anchor="start" x="458.414" y="-2240.9" font-family="Arial" font-size="14.00" fill="#666666">[ULID]</text>
<polygon fill="none" stroke="#000000" points="315.3046,-2199.5 315.3046,-2229.5 549.3046,-2229.5 549.3046,-2199.5 315.3046,-2199.5"/>
<text text-anchor="start" x="322.3046" y="-2210.9" font-family="Arial" font-size="14.00" fill="#000000">walk_path_id    </text>
<text text-anchor="start" x="438.198" y="-2210.9" font-family="Arial" font-size="14.00" fill="#666666">[ULID]</text>
<polygon fill="none" stroke="#000000" points="315.3046,-2169.5 315.3046,-2199.5 549.3046,-2199.5 549.3046,-2169.5 315.3046,-2169.5"/>
<text text-anchor="start" x="322.3046" y="-2180.9" font-family="Arial" font-size="14.00" fill="#000000">uri    </text>
<text text-anchor="start" x="372.0592" y="-2180.9" font-family="Arial" font-size="14.00" fill="#666666">[TEXT]</text>
<polygon fill="none" stroke="#000000" points="315.3046,-2139.5 315.3046,-2169.5 549.3046,-2169.5 549.3046,-2139.5 315.3046,-2139.5"/>
<text text-anchor="start" x="322.3046" y="-2150.9" font-family="Arial" font-size="14.00" fill="#000000">content_digest    </text>
<text text-anchor="start" x="447.5486" y="-2150.9" font-family="Arial" font-size="14.00" fill="#666666">[TEXT]</text>
<polygon fill="none" stroke="#000000" points="315.3046,-2109.5 315.3046,-2139.5 549.3046,-2139.5 549.3046,-2109.5 315.3046,-2109.5"/>
<text text-anchor="start" x="322.3046" y="-2120.9" font-family="Arial" font-size="14.00" fill="#000000">content    </text>
<text text-anchor="start" x="402.421" y="-2120.9" font-family="Arial" font-size="14.00" fill="#666666">[BLOB]</text>
<polygon fill="none" stroke="#000000" points="315.3046,-2079.5 315.3046,-2109.5 549.3046,-2109.5 549.3046,-2079.5 315.3046,-2079.5"/>
<text text-anchor="start" x="322.3046" y="-2090.9" font-family="Arial" font-size="14.00" fill="#000000">nature    </text>
<text text-anchor="start" x="396.191" y="-2090.9" font-family="Arial" font-size="14.00" fill="#666666">[TEXT]</text>
<polygon fill="none" stroke="#000000" points="315.3046,-2049.5 315.3046,-2079.5 549.3046,-2079.5 549.3046,-2049.5 315.3046,-2049.5"/>
<text text-anchor="start" x="322.3046" y="-2060.9" font-family="Arial" font-size="14.00" fill="#000000">size_bytes    </text>
<text text-anchor="start" x="422.637" y="-2060.9" font-family="Arial" font-size="14.00" fill="#666666">[INTEGER]</text>
<polygon fill="none" stroke="#000000" points="315.3046,-2019.5 315.3046,-2049.5 549.3046,-2049.5 549.3046,-2019.5 315.3046,-2019.5"/>
<text text-anchor="start" x="322.3046" y="-2030.9" font-family="Arial" font-size="14.00" fill="#000000">last_modified_at    </text>
<text text-anchor="start" x="458.4224" y="-2030.9" font-family="Arial" font-size="14.00" fill="#666666">[INTEGER]</text>
<polygon fill="none" stroke="#000000" points="315.3046,-1989.5 315.3046,-2019.5 549.3046,-2019.5 549.3046,-1989.5 315.3046,-1989.5"/>
<text text-anchor="start" x="322.231" y="-2000.9" font-family="Arial" font-size="14.00" fill="#000000">content_fm_body_attrs    </text>
<text text-anchor="start" x="498.8186" y="-2000.9" font-family="Arial" font-size="14.00" fill="#666666">[TEXT]</text>
<polygon fill="none" stroke="#000000" points="315.3046,-1959.5 315.3046,-1989.5 549.3046,-1989.5 549.3046,-1959.5 315.3046,-1959.5"/>
<text text-anchor="start" x="322.3046" y="-1970.9" font-family="Arial" font-size="14.00" fill="#000000">frontmatter    </text>
<text text-anchor="start" x="424.184" y="-1970.9" font-family="Arial" font-size="14.00" fill="#666666">[TEXT]</text>
<polygon fill="none" stroke="#000000" points="315.3046,-1929.5 315.3046,-1959.5 549.3046,-1959.5 549.3046,-1929.5 315.3046,-1929.5"/>
<text text-anchor="start" x="322.3046" y="-1940.9" font-family="Arial" font-size="14.00" fill="#000000">elaboration    </text>
<text text-anchor="start" x="425.752" y="-1940.9" font-family="Arial" font-size="14.00" fill="#666666">[TEXT]</text>
<polygon fill="none" stroke="#000000" points="315.3046,-1899.5 315.3046,-1929.5 549.3046,-1929.5 549.3046,-1899.5 315.3046,-1899.5"/>
<text text-anchor="start" x="322.3046" y="-1910.9" font-family="Arial" font-size="14.00" fill="#000000">created_at    </text>
<text text-anchor="start" x="422.6468" y="-1910.9" font-family="Arial" font-size="14.00" fill="#666666">[TIMESTAMP]</text>
<polygon fill="none" stroke="#000000" points="315.3046,-1869.5 315.3046,-1899.5 549.3046,-1899.5 549.3046,-1869.5 315.3046,-1869.5"/>
<text text-anchor="start" x="322.3046" y="-1880.9" font-family="Arial" font-size="14.00" fill="#000000">created_by    </text>
<text text-anchor="start" x="425.7562" y="-1880.9" font-family="Arial" font-size="14.00" fill="#666666">[TEXT]</text>
<polygon fill="none" stroke="#000000" points="315.3046,-1839.5 315.3046,-1869.5 549.3046,-1869.5 549.3046,-1839.5 315.3046,-1839.5"/>
<text text-anchor="start" x="322.3046" y="-1850.9" font-family="Arial" font-size="14.00" fill="#000000">updated_at    </text>
<text text-anchor="start" x="426.5514" y="-1850.9" font-family="Arial" font-size="14.00" fill="#666666">[TIMESTAMP]</text>
<polygon fill="none" stroke="#000000" points="315.3046,-1809.5 315.3046,-1839.5 549.3046,-1839.5 549.3046,-1809.5 315.3046,-1809.5"/>
<text text-anchor="start" x="322.3046" y="-1820.9" font-family="Arial" font-size="14.00" fill="#000000">updated_by    </text>
<text text-anchor="start" x="429.6608" y="-1820.9" font-family="Arial" font-size="14.00" fill="#666666">[TEXT]</text>
<polygon fill="none" stroke="#000000" points="315.3046,-1779.5 315.3046,-1809.5 549.3046,-1809.5 549.3046,-1779.5 315.3046,-1779.5"/>
<text text-anchor="start" x="322.3046" y="-1790.9" font-family="Arial" font-size="14.00" fill="#000000">deleted_at    </text>
<text text-anchor="start" x="421.8754" y="-1790.9" font-family="Arial" font-size="14.00" fill="#666666">[TIMESTAMP]</text>
<polygon fill="none" stroke="#000000" points="315.3046,-1749.5 315.3046,-1779.5 549.3046,-1779.5 549.3046,-1749.5 315.3046,-1749.5"/>
<text text-anchor="start" x="322.3046" y="-1760.9" font-family="Arial" font-size="14.00" fill="#000000">deleted_by    </text>
<text text-anchor="start" x="424.9848" y="-1760.9" font-family="Arial" font-size="14.00" fill="#666666">[TEXT]</text>
<polygon fill="none" stroke="#000000" points="315.3046,-1719.5 315.3046,-1749.5 549.3046,-1749.5 549.3046,-1719.5 315.3046,-1719.5"/>
<text text-anchor="start" x="322.3046" y="-1730.9" font-family="Arial" font-size="14.00" fill="#000000">activity_log    </text>
<text text-anchor="start" x="425.7408" y="-1730.9" font-family="Arial" font-size="14.00" fill="#666666">[TEXT]</text>
</g>
<!-- uniform_resource&#45;&gt;ur_walk_session -->
<g id="edge4" class="edge">
<title>uniform_resource:walk_session_id&#45;&gt;ur_walk_session:ur_walk_session_id</title>
<path fill="none" stroke="#000000" d="M559.5836,-2243.4061C672.207,-2218.5978 616.9796,-1779.1569 549.3046,-1677 526.6469,-1642.7978 488.5616,-1674.0871 464.3046,-1641 386.7518,-1535.2164 506.4709,-1057.5 375.3046,-1057.5"/>
<polygon fill="#000000" stroke="#000000" points="559.2484,-2243.4417 548.8283,-2240.0253 554.2765,-2243.9708 549.3046,-2244.5 549.3046,-2244.5 549.3046,-2244.5 554.2765,-2243.9708 549.7808,-2248.9747 559.2484,-2243.4417 559.2484,-2243.4417"/>
</g>
<!-- uniform_resource&#45;&gt;ur_walk_session_path -->
<g id="edge2" class="edge">
<title>uniform_resource:walk_path_id&#45;&gt;ur_walk_session_path:ur_walk_session_path_id</title>
<path fill="none" stroke="#000000" d="M306.0176,-2210.0003C259.1446,-2160.9627 288.7203,-1726.6731 315.3046,-1677 328.915,-1651.5686 355.6941,-1666.4314 369.3046,-1641 388.9129,-1604.3615 410.8601,-1547.5 369.3046,-1547.5"/>
<polygon fill="#000000" stroke="#000000" points="306.3053,-2210.1396 313.3424,-2218.5497 310.8049,-2212.3198 315.3046,-2214.5 315.3046,-2214.5 315.3046,-2214.5 310.8049,-2212.3198 317.2667,-2210.4503 306.3053,-2210.1396 306.3053,-2210.1396"/>
</g>
<!-- uniform_resource&#45;&gt;device -->
<g id="edge6" class="edge">
<title>uniform_resource:device_id&#45;&gt;device:device_id</title>
<path fill="none" stroke="#000000" d="M558.0146,-2269.5781C645.5247,-2165.5553 558.8485,-447.5 460.3046,-447.5"/>
<polygon fill="#000000" stroke="#000000" points="558.0107,-2269.5803 547.0907,-2270.5822 553.6576,-2272.0401 549.3046,-2274.5 549.3046,-2274.5 549.3046,-2274.5 553.6576,-2272.0401 551.5184,-2278.4178 558.0107,-2269.5803 558.0107,-2269.5803"/>
</g>
<!-- ur_walk_session_path_fs_entry -->
<g id="node4" class="node">
<title>ur_walk_session_path_fs_entry</title>
<polygon fill="#efefef" stroke="transparent" points="68.3046,-2986.5 68.3046,-3021.5 406.3046,-3021.5 406.3046,-2986.5 68.3046,-2986.5"/>
<polygon fill="none" stroke="#000000" points="68.3046,-2986.5 68.3046,-3021.5 406.3046,-3021.5 406.3046,-2986.5 68.3046,-2986.5"/>
<text text-anchor="start" x="75.1058" y="-2999.3" font-family="Arial Bold" font-size="18.00" fill="#000000">ur_walk_session_path_fs_entry</text>
<text text-anchor="start" x="327.1724" y="-2999.3" font-family="Arial" font-size="14.00" fill="#000000">    </text>
<text text-anchor="start" x="361.3772" y="-2999.3" font-family="Arial" font-size="14.00" fill="#666666">[table]</text>
<polygon fill="none" stroke="#000000" points="68.3046,-2956.5 68.3046,-2986.5 406.3046,-2986.5 406.3046,-2956.5 68.3046,-2956.5"/>
<text text-anchor="start" x="75.3046" y="-2967.9" font-family="Arial" font-size="14.00" fill="#000000">ur_walk_session_path_fs_entry_id    </text>
<text text-anchor="start" x="324.233" y="-2967.9" font-family="Arial" font-size="14.00" fill="#666666">[ULID]</text>
<polygon fill="none" stroke="#000000" points="68.3046,-2926.5 68.3046,-2956.5 406.3046,-2956.5 406.3046,-2926.5 68.3046,-2926.5"/>
<text text-anchor="start" x="75.3046" y="-2937.9" font-family="Arial" font-size="14.00" fill="#000000">walk_session_id    </text>
<text text-anchor="start" x="211.414" y="-2937.9" font-family="Arial" font-size="14.00" fill="#666666">[ULID]</text>
<polygon fill="none" stroke="#000000" points="68.3046,-2896.5 68.3046,-2926.5 406.3046,-2926.5 406.3046,-2896.5 68.3046,-2896.5"/>
<text text-anchor="start" x="75.3046" y="-2907.9" font-family="Arial" font-size="14.00" fill="#000000">walk_path_id    </text>
<text text-anchor="start" x="191.198" y="-2907.9" font-family="Arial" font-size="14.00" fill="#666666">[ULID]</text>
<polygon fill="none" stroke="#000000" points="68.3046,-2866.5 68.3046,-2896.5 406.3046,-2896.5 406.3046,-2866.5 68.3046,-2866.5"/>
<text text-anchor="start" x="75.3046" y="-2877.9" font-family="Arial" font-size="14.00" fill="#000000">uniform_resource_id    </text>
<text text-anchor="start" x="237.0816" y="-2877.9" font-family="Arial" font-size="14.00" fill="#666666">[ULID]</text>
<polygon fill="none" stroke="#000000" points="68.3046,-2836.5 68.3046,-2866.5 406.3046,-2866.5 406.3046,-2836.5 68.3046,-2836.5"/>
<text text-anchor="start" x="75.3046" y="-2847.9" font-family="Arial" font-size="14.00" fill="#000000">file_path_abs    </text>
<text text-anchor="start" x="192.7646" y="-2847.9" font-family="Arial" font-size="14.00" fill="#666666">[TEXT]</text>
<polygon fill="none" stroke="#000000" points="68.3046,-2806.5 68.3046,-2836.5 406.3046,-2836.5 406.3046,-2806.5 68.3046,-2806.5"/>
<text text-anchor="start" x="75.3046" y="-2817.9" font-family="Arial" font-size="14.00" fill="#000000">file_path_rel_parent    </text>
<text text-anchor="start" x="233.2134" y="-2817.9" font-family="Arial" font-size="14.00" fill="#666666">[TEXT]</text>
<polygon fill="none" stroke="#000000" points="68.3046,-2776.5 68.3046,-2806.5 406.3046,-2806.5 406.3046,-2776.5 68.3046,-2776.5"/>
<text text-anchor="start" x="75.3046" y="-2787.9" font-family="Arial" font-size="14.00" fill="#000000">file_path_rel    </text>
<text text-anchor="start" x="185.7492" y="-2787.9" font-family="Arial" font-size="14.00" fill="#666666">[TEXT]</text>
<polygon fill="none" stroke="#000000" points="68.3046,-2746.5 68.3046,-2776.5 406.3046,-2776.5 406.3046,-2746.5 68.3046,-2746.5"/>
<text text-anchor="start" x="75.3046" y="-2757.9" font-family="Arial" font-size="14.00" fill="#000000">file_basename    </text>
<text text-anchor="start" x="200.5346" y="-2757.9" font-family="Arial" font-size="14.00" fill="#666666">[TEXT]</text>
<polygon fill="none" stroke="#000000" points="68.3046,-2716.5 68.3046,-2746.5 406.3046,-2746.5 406.3046,-2716.5 68.3046,-2716.5"/>
<text text-anchor="start" x="75.3046" y="-2727.9" font-family="Arial" font-size="14.00" fill="#000000">file_extn    </text>
<text text-anchor="start" x="161.6342" y="-2727.9" font-family="Arial" font-size="14.00" fill="#666666">[TEXT]</text>
<polygon fill="none" stroke="#000000" points="68.3046,-2686.5 68.3046,-2716.5 406.3046,-2716.5 406.3046,-2686.5 68.3046,-2686.5"/>
<text text-anchor="start" x="75.3046" y="-2697.9" font-family="Arial" font-size="14.00" fill="#000000">elaboration    </text>
<text text-anchor="start" x="178.752" y="-2697.9" font-family="Arial" font-size="14.00" fill="#666666">[TEXT]</text>
<polygon fill="none" stroke="#000000" points="68.3046,-2656.5 68.3046,-2686.5 406.3046,-2686.5 406.3046,-2656.5 68.3046,-2656.5"/>
<text text-anchor="start" x="75.3046" y="-2667.9" font-family="Arial" font-size="14.00" fill="#000000">created_at    </text>
<text text-anchor="start" x="175.6468" y="-2667.9" font-family="Arial" font-size="14.00" fill="#666666">[TIMESTAMP]</text>
<polygon fill="none" stroke="#000000" points="68.3046,-2626.5 68.3046,-2656.5 406.3046,-2656.5 406.3046,-2626.5 68.3046,-2626.5"/>
<text text-anchor="start" x="75.3046" y="-2637.9" font-family="Arial" font-size="14.00" fill="#000000">created_by    </text>
<text text-anchor="start" x="178.7562" y="-2637.9" font-family="Arial" font-size="14.00" fill="#666666">[TEXT]</text>
<polygon fill="none" stroke="#000000" points="68.3046,-2596.5 68.3046,-2626.5 406.3046,-2626.5 406.3046,-2596.5 68.3046,-2596.5"/>
<text text-anchor="start" x="75.3046" y="-2607.9" font-family="Arial" font-size="14.00" fill="#000000">updated_at    </text>
<text text-anchor="start" x="179.5514" y="-2607.9" font-family="Arial" font-size="14.00" fill="#666666">[TIMESTAMP]</text>
<polygon fill="none" stroke="#000000" points="68.3046,-2566.5 68.3046,-2596.5 406.3046,-2596.5 406.3046,-2566.5 68.3046,-2566.5"/>
<text text-anchor="start" x="75.3046" y="-2577.9" font-family="Arial" font-size="14.00" fill="#000000">updated_by    </text>
<text text-anchor="start" x="182.6608" y="-2577.9" font-family="Arial" font-size="14.00" fill="#666666">[TEXT]</text>
<polygon fill="none" stroke="#000000" points="68.3046,-2536.5 68.3046,-2566.5 406.3046,-2566.5 406.3046,-2536.5 68.3046,-2536.5"/>
<text text-anchor="start" x="75.3046" y="-2547.9" font-family="Arial" font-size="14.00" fill="#000000">deleted_at    </text>
<text text-anchor="start" x="174.8754" y="-2547.9" font-family="Arial" font-size="14.00" fill="#666666">[TIMESTAMP]</text>
<polygon fill="none" stroke="#000000" points="68.3046,-2506.5 68.3046,-2536.5 406.3046,-2536.5 406.3046,-2506.5 68.3046,-2506.5"/>
<text text-anchor="start" x="75.3046" y="-2517.9" font-family="Arial" font-size="14.00" fill="#000000">deleted_by    </text>
<text text-anchor="start" x="177.9848" y="-2517.9" font-family="Arial" font-size="14.00" fill="#666666">[TEXT]</text>
<polygon fill="none" stroke="#000000" points="68.3046,-2476.5 68.3046,-2506.5 406.3046,-2506.5 406.3046,-2476.5 68.3046,-2476.5"/>
<text text-anchor="start" x="75.3046" y="-2487.9" font-family="Arial" font-size="14.00" fill="#000000">activity_log    </text>
<text text-anchor="start" x="178.7408" y="-2487.9" font-family="Arial" font-size="14.00" fill="#666666">[TEXT]</text>
</g>
<!-- ur_walk_session_path_fs_entry&#45;&gt;ur_walk_session -->
<g id="edge7" class="edge">
<title>ur_walk_session_path_fs_entry:walk_session_id&#45;&gt;ur_walk_session:ur_walk_session_id</title>
<path fill="none" stroke="#000000" d="M58.2059,-2939.4645C-69.9188,-2885.6579 54.1176,-1781.9792 53.3046,-1641 51.7859,-1377.6617 -107.0382,-1057.5 156.3046,-1057.5"/>
<polygon fill="#000000" stroke="#000000" points="58.5017,-2939.524 67.4154,-2945.9113 63.4031,-2940.512 68.3046,-2941.5 68.3046,-2941.5 68.3046,-2941.5 63.4031,-2940.512 69.1937,-2937.0887 58.5017,-2939.524 58.5017,-2939.524"/>
</g>
<!-- ur_walk_session_path_fs_entry&#45;&gt;ur_walk_session_path -->
<g id="edge3" class="edge">
<title>ur_walk_session_path_fs_entry:walk_path_id&#45;&gt;ur_walk_session_path:ur_walk_session_path_id</title>
<path fill="none" stroke="#000000" d="M416.3354,-2911.2603C615.8794,-2901.543 534.6688,-2598.685 406.3046,-2434 366.0138,-2382.309 303.5953,-2449.691 263.3046,-2398 66.3069,-2145.2619 76.6725,-1937.4863 263.3046,-1677 292.2821,-1636.5555 340.327,-1681.4445 369.3046,-1641 393.5072,-1607.2199 410.8601,-1547.5 369.3046,-1547.5"/>
<polygon fill="#000000" stroke="#000000" points="416.3017,-2911.261 406.197,-2907.0013 411.3031,-2911.3805 406.3046,-2911.5 406.3046,-2911.5 406.3046,-2911.5 411.3031,-2911.3805 406.4121,-2915.9987 416.3017,-2911.261 416.3017,-2911.261"/>
</g>
<!-- ur_walk_session_path_fs_entry&#45;&gt;uniform_resource -->
<g id="edge5" class="edge">
<title>ur_walk_session_path_fs_entry:uniform_resource_id&#45;&gt;uniform_resource:uniform_resource_id</title>
<path fill="none" stroke="#000000" d="M416.5292,-2881.2398C602.1246,-2871.5868 516.1542,-2595.5902 406.3046,-2434 381.8521,-2398.0301 339.757,-2433.9699 315.3046,-2398 291.9421,-2363.6335 273.749,-2304.5 315.3046,-2304.5"/>
<polygon fill="#000000" stroke="#000000" points="416.3013,-2881.2455 406.19,-2877.0015 411.3029,-2881.3728 406.3046,-2881.5 406.3046,-2881.5 406.3046,-2881.5 411.3029,-2881.3728 406.4191,-2885.9985 416.3013,-2881.2455 416.3013,-2881.2455"/>
</g>
</g>
</svg>
