<?xml version="1.0" encoding="UTF-8" standalone="no"?>
<!DOCTYPE svg PUBLIC "-//W3C//DTD SVG 1.1//EN"
 "http://www.w3.org/Graphics/SVG/1.1/DTD/svg11.dtd">
<!-- Generated by graphviz version 2.40.1 (20161225.0304)
 -->
<!-- Title: ur_walk_session_path_fs_entry Pages: 1 -->
<svg width="669pt" height="3103pt"
 viewBox="0.00 0.00 668.93 3103.00" xmlns="http://www.w3.org/2000/svg" xmlns:xlink="http://www.w3.org/1999/xlink">
<g id="graph0" class="graph" transform="scale(1 1) rotate(0) translate(4 3099)">
<title>ur_walk_session_path_fs_entry</title>
<polygon fill="#ffffff" stroke="transparent" points="-4,4 -4,-3099 664.9258,-3099 664.9258,4 -4,4"/>
<!-- ur_walk_session_path_fs_entry -->
<g id="node1" class="node">
<title>ur_walk_session_path_fs_entry</title>
<polygon fill="#efefef" stroke="transparent" points="86.9624,-3013.5 86.9624,-3048.5 424.9624,-3048.5 424.9624,-3013.5 86.9624,-3013.5"/>
<polygon fill="none" stroke="#000000" points="86.9624,-3013.5 86.9624,-3048.5 424.9624,-3048.5 424.9624,-3013.5 86.9624,-3013.5"/>
<text text-anchor="start" x="93.7636" y="-3026.3" font-family="Arial Bold" font-size="18.00" fill="#000000">ur_walk_session_path_fs_entry</text>
<text text-anchor="start" x="345.8302" y="-3026.3" font-family="Arial" font-size="14.00" fill="#000000">    </text>
<text text-anchor="start" x="380.035" y="-3026.3" font-family="Arial" font-size="14.00" fill="#666666">[table]</text>
<polygon fill="none" stroke="#000000" points="86.9624,-2983.5 86.9624,-3013.5 424.9624,-3013.5 424.9624,-2983.5 86.9624,-2983.5"/>
<text text-anchor="start" x="93.9624" y="-2994.9" font-family="Arial" font-size="14.00" fill="#000000">ur_walk_session_path_fs_entry_id </text>
<text text-anchor="start" x="312.5766" y="-2994.9" font-family="Arial" font-size="14.00" fill="#666666">[ULID]</text>
<polygon fill="none" stroke="#000000" points="86.9624,-2953.5 86.9624,-2983.5 424.9624,-2983.5 424.9624,-2953.5 86.9624,-2953.5"/>
<text text-anchor="start" x="93.9624" y="-2964.9" font-family="Arial" font-size="14.00" fill="#000000">walk_session_id </text>
<text text-anchor="start" x="199.7576" y="-2964.9" font-family="Arial" font-size="14.00" fill="#666666">[ULID]</text>
<polygon fill="none" stroke="#000000" points="86.9624,-2923.5 86.9624,-2953.5 424.9624,-2953.5 424.9624,-2923.5 86.9624,-2923.5"/>
<text text-anchor="start" x="93.9624" y="-2934.9" font-family="Arial" font-size="14.00" fill="#000000">walk_path_id </text>
<text text-anchor="start" x="179.5416" y="-2934.9" font-family="Arial" font-size="14.00" fill="#666666">[ULID]</text>
<polygon fill="none" stroke="#000000" points="86.9624,-2893.5 86.9624,-2923.5 424.9624,-2923.5 424.9624,-2893.5 86.9624,-2893.5"/>
<text text-anchor="start" x="93.9624" y="-2904.9" font-family="Arial" font-size="14.00" fill="#000000">uniform_resource_id </text>
<text text-anchor="start" x="225.4252" y="-2904.9" font-family="Arial" font-size="14.00" fill="#666666">[ULID]</text>
<polygon fill="none" stroke="#000000" points="86.9624,-2863.5 86.9624,-2893.5 424.9624,-2893.5 424.9624,-2863.5 86.9624,-2863.5"/>
<text text-anchor="start" x="93.9624" y="-2874.9" font-family="Arial" font-size="14.00" fill="#000000">file_path_abs </text>
<text text-anchor="start" x="181.1082" y="-2874.9" font-family="Arial" font-size="14.00" fill="#666666">[TEXT]</text>
<polygon fill="none" stroke="#000000" points="86.9624,-2833.5 86.9624,-2863.5 424.9624,-2863.5 424.9624,-2833.5 86.9624,-2833.5"/>
<text text-anchor="start" x="93.9624" y="-2844.9" font-family="Arial" font-size="14.00" fill="#000000">file_path_rel_parent </text>
<text text-anchor="start" x="221.557" y="-2844.9" font-family="Arial" font-size="14.00" fill="#666666">[TEXT]</text>
<polygon fill="none" stroke="#000000" points="86.9624,-2803.5 86.9624,-2833.5 424.9624,-2833.5 424.9624,-2803.5 86.9624,-2803.5"/>
<text text-anchor="start" x="93.9624" y="-2814.9" font-family="Arial" font-size="14.00" fill="#000000">file_path_rel </text>
<text text-anchor="start" x="174.0928" y="-2814.9" font-family="Arial" font-size="14.00" fill="#666666">[TEXT]</text>
<polygon fill="none" stroke="#000000" points="86.9624,-2773.5 86.9624,-2803.5 424.9624,-2803.5 424.9624,-2773.5 86.9624,-2773.5"/>
<text text-anchor="start" x="93.9624" y="-2784.9" font-family="Arial" font-size="14.00" fill="#000000">file_basename </text>
<text text-anchor="start" x="188.8782" y="-2784.9" font-family="Arial" font-size="14.00" fill="#666666">[TEXT]</text>
<polygon fill="none" stroke="#000000" points="86.9624,-2743.5 86.9624,-2773.5 424.9624,-2773.5 424.9624,-2743.5 86.9624,-2743.5"/>
<text text-anchor="start" x="93.9624" y="-2754.9" font-family="Arial" font-size="14.00" fill="#000000">file_extn </text>
<text text-anchor="start" x="149.9778" y="-2754.9" font-family="Arial" font-size="14.00" fill="#666666">[TEXT]</text>
<polygon fill="none" stroke="#000000" points="86.9624,-2713.5 86.9624,-2743.5 424.9624,-2743.5 424.9624,-2713.5 86.9624,-2713.5"/>
<text text-anchor="start" x="93.9624" y="-2724.9" font-family="Arial" font-size="14.00" fill="#000000">ur_status </text>
<text text-anchor="start" x="155.4252" y="-2724.9" font-family="Arial" font-size="14.00" fill="#666666">[TEXT]</text>
<polygon fill="none" stroke="#000000" points="86.9624,-2683.5 86.9624,-2713.5 424.9624,-2713.5 424.9624,-2683.5 86.9624,-2683.5"/>
<text text-anchor="start" x="93.9624" y="-2694.9" font-family="Arial" font-size="14.00" fill="#000000">ur_diagnostics </text>
<text text-anchor="start" x="188.0956" y="-2694.9" font-family="Arial" font-size="14.00" fill="#666666">[TEXT]</text>
<polygon fill="none" stroke="#000000" points="86.9624,-2653.5 86.9624,-2683.5 424.9624,-2683.5 424.9624,-2653.5 86.9624,-2653.5"/>
<text text-anchor="start" x="93.9624" y="-2664.9" font-family="Arial" font-size="14.00" fill="#000000">elaboration </text>
<text text-anchor="start" x="167.0956" y="-2664.9" font-family="Arial" font-size="14.00" fill="#666666">[TEXT]</text>
<polygon fill="none" stroke="#000000" points="86.9624,-2623.5 86.9624,-2653.5 424.9624,-2653.5 424.9624,-2623.5 86.9624,-2623.5"/>
<text text-anchor="start" x="93.9624" y="-2634.9" font-family="Arial" font-size="14.00" fill="#000000">created_at </text>
<text text-anchor="start" x="163.9904" y="-2634.9" font-family="Arial" font-size="14.00" fill="#666666">[TIMESTAMP]</text>
<polygon fill="none" stroke="#000000" points="86.9624,-2593.5 86.9624,-2623.5 424.9624,-2623.5 424.9624,-2593.5 86.9624,-2593.5"/>
<text text-anchor="start" x="93.9624" y="-2604.9" font-family="Arial" font-size="14.00" fill="#000000">created_by </text>
<text text-anchor="start" x="167.0998" y="-2604.9" font-family="Arial" font-size="14.00" fill="#666666">[TEXT]</text>
<polygon fill="none" stroke="#000000" points="86.9624,-2563.5 86.9624,-2593.5 424.9624,-2593.5 424.9624,-2563.5 86.9624,-2563.5"/>
<text text-anchor="start" x="93.9624" y="-2574.9" font-family="Arial" font-size="14.00" fill="#000000">updated_at </text>
<text text-anchor="start" x="167.895" y="-2574.9" font-family="Arial" font-size="14.00" fill="#666666">[TIMESTAMP]</text>
<polygon fill="none" stroke="#000000" points="86.9624,-2533.5 86.9624,-2563.5 424.9624,-2563.5 424.9624,-2533.5 86.9624,-2533.5"/>
<text text-anchor="start" x="93.9624" y="-2544.9" font-family="Arial" font-size="14.00" fill="#000000">updated_by </text>
<text text-anchor="start" x="171.0044" y="-2544.9" font-family="Arial" font-size="14.00" fill="#666666">[TEXT]</text>
<polygon fill="none" stroke="#000000" points="86.9624,-2503.5 86.9624,-2533.5 424.9624,-2533.5 424.9624,-2503.5 86.9624,-2503.5"/>
<text text-anchor="start" x="93.9624" y="-2514.9" font-family="Arial" font-size="14.00" fill="#000000">deleted_at </text>
<text text-anchor="start" x="163.219" y="-2514.9" font-family="Arial" font-size="14.00" fill="#666666">[TIMESTAMP]</text>
<polygon fill="none" stroke="#000000" points="86.9624,-2473.5 86.9624,-2503.5 424.9624,-2503.5 424.9624,-2473.5 86.9624,-2473.5"/>
<text text-anchor="start" x="93.9624" y="-2484.9" font-family="Arial" font-size="14.00" fill="#000000">deleted_by </text>
<text text-anchor="start" x="166.3284" y="-2484.9" font-family="Arial" font-size="14.00" fill="#666666">[TEXT]</text>
<polygon fill="none" stroke="#000000" points="86.9624,-2443.5 86.9624,-2473.5 424.9624,-2473.5 424.9624,-2443.5 86.9624,-2443.5"/>
<text text-anchor="start" x="93.9624" y="-2454.9" font-family="Arial" font-size="14.00" fill="#000000">activity_log </text>
<text text-anchor="start" x="167.0844" y="-2454.9" font-family="Arial" font-size="14.00" fill="#666666">[TEXT]</text>
<polygon fill="none" stroke="#000000" stroke-width="3" points="85.4624,-2442.5 85.4624,-3050.5 426.4624,-3050.5 426.4624,-2442.5 85.4624,-2442.5"/>
</g>
<!-- ur_walk_session -->
<g id="node2" class="node">
<title>ur_walk_session</title>
<polygon fill="#efefef" stroke="transparent" points="134.9624,-1039.5 134.9624,-1074.5 375.9624,-1074.5 375.9624,-1039.5 134.9624,-1039.5"/>
<polygon fill="none" stroke="#000000" points="134.9624,-1039.5 134.9624,-1074.5 375.9624,-1074.5 375.9624,-1039.5 134.9624,-1039.5"/>
<text text-anchor="start" x="152.7878" y="-1052.3" font-family="Arial Bold" font-size="18.00" fill="#000000">ur_walk_session</text>
<text text-anchor="start" x="285.806" y="-1052.3" font-family="Arial" font-size="14.00" fill="#000000">    </text>
<text text-anchor="start" x="320.0108" y="-1052.3" font-family="Arial" font-size="14.00" fill="#666666">[table]</text>
<polygon fill="none" stroke="#000000" points="134.9624,-1009.5 134.9624,-1039.5 375.9624,-1039.5 375.9624,-1009.5 134.9624,-1009.5"/>
<text text-anchor="start" x="141.9624" y="-1020.9" font-family="Arial" font-size="14.00" fill="#000000">ur_walk_session_id    </text>
<text text-anchor="start" x="298.2976" y="-1020.9" font-family="Arial" font-size="14.00" fill="#666666">[ULID]</text>
<polygon fill="none" stroke="#000000" points="134.9624,-979.5 134.9624,-1009.5 375.9624,-1009.5 375.9624,-979.5 134.9624,-979.5"/>
<text text-anchor="start" x="141.9624" y="-990.9" font-family="Arial" font-size="14.00" fill="#000000">device_id    </text>
<text text-anchor="start" x="235.2934" y="-990.9" font-family="Arial" font-size="14.00" fill="#666666">[ULID]</text>
<polygon fill="none" stroke="#000000" points="134.9624,-949.5 134.9624,-979.5 375.9624,-979.5 375.9624,-949.5 134.9624,-949.5"/>
<text text-anchor="start" x="141.9624" y="-960.9" font-family="Arial" font-size="14.00" fill="#000000">behavior_id    </text>
<text text-anchor="start" x="248.5192" y="-960.9" font-family="Arial" font-size="14.00" fill="#666666">[ULID]</text>
<polygon fill="none" stroke="#000000" points="134.9624,-919.5 134.9624,-949.5 375.9624,-949.5 375.9624,-919.5 134.9624,-919.5"/>
<text text-anchor="start" x="141.9624" y="-930.9" font-family="Arial" font-size="14.00" fill="#000000">behavior_json    </text>
<text text-anchor="start" x="263.3018" y="-930.9" font-family="Arial" font-size="14.00" fill="#666666">[TEXT]</text>
<polygon fill="none" stroke="#000000" points="134.9624,-889.5 134.9624,-919.5 375.9624,-919.5 375.9624,-889.5 134.9624,-889.5"/>
<text text-anchor="start" x="141.9624" y="-900.9" font-family="Arial" font-size="14.00" fill="#000000">walk_started_at    </text>
<text text-anchor="start" x="274.191" y="-900.9" font-family="Arial" font-size="14.00" fill="#666666">[TIMESTAMP]</text>
<polygon fill="none" stroke="#000000" points="134.9624,-859.5 134.9624,-889.5 375.9624,-889.5 375.9624,-859.5 134.9624,-859.5"/>
<text text-anchor="start" x="141.9035" y="-870.9" font-family="Arial" font-size="14.00" fill="#000000">walk_finished_at    </text>
<text text-anchor="start" x="279.5767" y="-870.9" font-family="Arial" font-size="14.00" fill="#666666">[TIMESTAMP]</text>
<polygon fill="none" stroke="#000000" points="134.9624,-829.5 134.9624,-859.5 375.9624,-859.5 375.9624,-829.5 134.9624,-829.5"/>
<text text-anchor="start" x="141.9624" y="-840.9" font-family="Arial" font-size="14.00" fill="#000000">elaboration    </text>
<text text-anchor="start" x="245.4098" y="-840.9" font-family="Arial" font-size="14.00" fill="#666666">[TEXT]</text>
<polygon fill="none" stroke="#000000" points="134.9624,-799.5 134.9624,-829.5 375.9624,-829.5 375.9624,-799.5 134.9624,-799.5"/>
<text text-anchor="start" x="141.9624" y="-810.9" font-family="Arial" font-size="14.00" fill="#000000">created_at    </text>
<text text-anchor="start" x="242.3046" y="-810.9" font-family="Arial" font-size="14.00" fill="#666666">[TIMESTAMP]</text>
<polygon fill="none" stroke="#000000" points="134.9624,-769.5 134.9624,-799.5 375.9624,-799.5 375.9624,-769.5 134.9624,-769.5"/>
<text text-anchor="start" x="141.9624" y="-780.9" font-family="Arial" font-size="14.00" fill="#000000">created_by    </text>
<text text-anchor="start" x="245.414" y="-780.9" font-family="Arial" font-size="14.00" fill="#666666">[TEXT]</text>
<polygon fill="none" stroke="#000000" points="134.9624,-739.5 134.9624,-769.5 375.9624,-769.5 375.9624,-739.5 134.9624,-739.5"/>
<text text-anchor="start" x="141.9624" y="-750.9" font-family="Arial" font-size="14.00" fill="#000000">updated_at    </text>
<text text-anchor="start" x="246.2092" y="-750.9" font-family="Arial" font-size="14.00" fill="#666666">[TIMESTAMP]</text>
<polygon fill="none" stroke="#000000" points="134.9624,-709.5 134.9624,-739.5 375.9624,-739.5 375.9624,-709.5 134.9624,-709.5"/>
<text text-anchor="start" x="141.9624" y="-720.9" font-family="Arial" font-size="14.00" fill="#000000">updated_by    </text>
<text text-anchor="start" x="249.3186" y="-720.9" font-family="Arial" font-size="14.00" fill="#666666">[TEXT]</text>
<polygon fill="none" stroke="#000000" points="134.9624,-679.5 134.9624,-709.5 375.9624,-709.5 375.9624,-679.5 134.9624,-679.5"/>
<text text-anchor="start" x="141.9624" y="-690.9" font-family="Arial" font-size="14.00" fill="#000000">deleted_at    </text>
<text text-anchor="start" x="241.5332" y="-690.9" font-family="Arial" font-size="14.00" fill="#666666">[TIMESTAMP]</text>
<polygon fill="none" stroke="#000000" points="134.9624,-649.5 134.9624,-679.5 375.9624,-679.5 375.9624,-649.5 134.9624,-649.5"/>
<text text-anchor="start" x="141.9624" y="-660.9" font-family="Arial" font-size="14.00" fill="#000000">deleted_by    </text>
<text text-anchor="start" x="244.6426" y="-660.9" font-family="Arial" font-size="14.00" fill="#666666">[TEXT]</text>
<polygon fill="none" stroke="#000000" points="134.9624,-619.5 134.9624,-649.5 375.9624,-649.5 375.9624,-619.5 134.9624,-619.5"/>
<text text-anchor="start" x="141.9624" y="-630.9" font-family="Arial" font-size="14.00" fill="#000000">activity_log    </text>
<text text-anchor="start" x="245.3986" y="-630.9" font-family="Arial" font-size="14.00" fill="#666666">[TEXT]</text>
</g>
<!-- ur_walk_session_path_fs_entry&#45;&gt;ur_walk_session -->
<g id="edge1" class="edge">
<title>ur_walk_session_path_fs_entry:walk_session_id&#45;&gt;ur_walk_session:ur_walk_session_id</title>
<path fill="none" stroke="#000000" d="M76.7799,-2966.532C-58.1847,-2912.2704 72.7762,-1752.9559 71.9624,-1605 70.535,-1345.489 -124.5525,-1024.5 134.9624,-1024.5"/>
<polygon fill="#000000" stroke="#000000" points="77.1441,-2966.6023 86.1084,-2972.9182 82.0533,-2967.5511 86.9624,-2968.5 86.9624,-2968.5 86.9624,-2968.5 82.0533,-2967.5511 87.8164,-2964.0818 77.1441,-2966.6023 77.1441,-2966.6023"/>
</g>
<!-- ur_walk_session_path -->
<g id="node3" class="node">
<title>ur_walk_session_path</title>
<polygon fill="#efefef" stroke="transparent" points="123.9624,-1526.5 123.9624,-1561.5 387.9624,-1561.5 387.9624,-1526.5 123.9624,-1526.5"/>
<polygon fill="none" stroke="#000000" points="123.9624,-1526.5 123.9624,-1561.5 387.9624,-1561.5 387.9624,-1526.5 123.9624,-1526.5"/>
<text text-anchor="start" x="130.7743" y="-1539.3" font-family="Arial Bold" font-size="18.00" fill="#000000">ur_walk_session_path</text>
<text text-anchor="start" x="308.8195" y="-1539.3" font-family="Arial" font-size="14.00" fill="#000000">    </text>
<text text-anchor="start" x="343.0243" y="-1539.3" font-family="Arial" font-size="14.00" fill="#666666">[table]</text>
<polygon fill="none" stroke="#000000" points="123.9624,-1496.5 123.9624,-1526.5 387.9624,-1526.5 387.9624,-1496.5 123.9624,-1496.5"/>
<text text-anchor="start" x="130.9624" y="-1507.9" font-family="Arial" font-size="14.00" fill="#000000">ur_walk_session_path_id    </text>
<text text-anchor="start" x="322.3186" y="-1507.9" font-family="Arial" font-size="14.00" fill="#666666">[ULID]</text>
<polygon fill="none" stroke="#000000" points="123.9624,-1466.5 123.9624,-1496.5 387.9624,-1496.5 387.9624,-1466.5 123.9624,-1466.5"/>
<text text-anchor="start" x="130.9624" y="-1477.9" font-family="Arial" font-size="14.00" fill="#000000">walk_session_id    </text>
<text text-anchor="start" x="267.0718" y="-1477.9" font-family="Arial" font-size="14.00" fill="#666666">[ULID]</text>
<polygon fill="none" stroke="#000000" points="123.9624,-1436.5 123.9624,-1466.5 387.9624,-1466.5 387.9624,-1436.5 123.9624,-1436.5"/>
<text text-anchor="start" x="130.9624" y="-1447.9" font-family="Arial" font-size="14.00" fill="#000000">root_path    </text>
<text text-anchor="start" x="224.3046" y="-1447.9" font-family="Arial" font-size="14.00" fill="#666666">[TEXT]</text>
<polygon fill="none" stroke="#000000" points="123.9624,-1406.5 123.9624,-1436.5 387.9624,-1436.5 387.9624,-1406.5 123.9624,-1406.5"/>
<text text-anchor="start" x="130.9624" y="-1417.9" font-family="Arial" font-size="14.00" fill="#000000">elaboration    </text>
<text text-anchor="start" x="234.4098" y="-1417.9" font-family="Arial" font-size="14.00" fill="#666666">[TEXT]</text>
<polygon fill="none" stroke="#000000" points="123.9624,-1376.5 123.9624,-1406.5 387.9624,-1406.5 387.9624,-1376.5 123.9624,-1376.5"/>
<text text-anchor="start" x="130.9624" y="-1387.9" font-family="Arial" font-size="14.00" fill="#000000">created_at    </text>
<text text-anchor="start" x="231.3046" y="-1387.9" font-family="Arial" font-size="14.00" fill="#666666">[TIMESTAMP]</text>
<polygon fill="none" stroke="#000000" points="123.9624,-1346.5 123.9624,-1376.5 387.9624,-1376.5 387.9624,-1346.5 123.9624,-1346.5"/>
<text text-anchor="start" x="130.9624" y="-1357.9" font-family="Arial" font-size="14.00" fill="#000000">created_by    </text>
<text text-anchor="start" x="234.414" y="-1357.9" font-family="Arial" font-size="14.00" fill="#666666">[TEXT]</text>
<polygon fill="none" stroke="#000000" points="123.9624,-1316.5 123.9624,-1346.5 387.9624,-1346.5 387.9624,-1316.5 123.9624,-1316.5"/>
<text text-anchor="start" x="130.9624" y="-1327.9" font-family="Arial" font-size="14.00" fill="#000000">updated_at    </text>
<text text-anchor="start" x="235.2092" y="-1327.9" font-family="Arial" font-size="14.00" fill="#666666">[TIMESTAMP]</text>
<polygon fill="none" stroke="#000000" points="123.9624,-1286.5 123.9624,-1316.5 387.9624,-1316.5 387.9624,-1286.5 123.9624,-1286.5"/>
<text text-anchor="start" x="130.9624" y="-1297.9" font-family="Arial" font-size="14.00" fill="#000000">updated_by    </text>
<text text-anchor="start" x="238.3186" y="-1297.9" font-family="Arial" font-size="14.00" fill="#666666">[TEXT]</text>
<polygon fill="none" stroke="#000000" points="123.9624,-1256.5 123.9624,-1286.5 387.9624,-1286.5 387.9624,-1256.5 123.9624,-1256.5"/>
<text text-anchor="start" x="130.9624" y="-1267.9" font-family="Arial" font-size="14.00" fill="#000000">deleted_at    </text>
<text text-anchor="start" x="230.5332" y="-1267.9" font-family="Arial" font-size="14.00" fill="#666666">[TIMESTAMP]</text>
<polygon fill="none" stroke="#000000" points="123.9624,-1226.5 123.9624,-1256.5 387.9624,-1256.5 387.9624,-1226.5 123.9624,-1226.5"/>
<text text-anchor="start" x="130.9624" y="-1237.9" font-family="Arial" font-size="14.00" fill="#000000">deleted_by    </text>
<text text-anchor="start" x="233.6426" y="-1237.9" font-family="Arial" font-size="14.00" fill="#666666">[TEXT]</text>
<polygon fill="none" stroke="#000000" points="123.9624,-1196.5 123.9624,-1226.5 387.9624,-1226.5 387.9624,-1196.5 123.9624,-1196.5"/>
<text text-anchor="start" x="130.9624" y="-1207.9" font-family="Arial" font-size="14.00" fill="#000000">activity_log    </text>
<text text-anchor="start" x="234.3986" y="-1207.9" font-family="Arial" font-size="14.00" fill="#666666">[TEXT]</text>
</g>
<!-- ur_walk_session_path_fs_entry&#45;&gt;ur_walk_session_path -->
<g id="edge6" class="edge">
<title>ur_walk_session_path_fs_entry:walk_path_id&#45;&gt;ur_walk_session_path:ur_walk_session_path_id</title>
<path fill="none" stroke="#000000" d="M434.9678,-2938.2903C662.5528,-2928.591 570.5512,-2584.7831 424.9624,-2398 384.6717,-2346.309 322.2532,-2413.691 281.9624,-2362 84.9648,-2109.2619 95.3303,-1901.4863 281.9624,-1641 310.9399,-1600.5555 358.9849,-1645.4445 387.9624,-1605 412.1651,-1571.2199 429.518,-1511.5 387.9624,-1511.5"/>
<polygon fill="#000000" stroke="#000000" points="434.9602,-2938.2904 424.8681,-2934.001 429.9613,-2938.3952 424.9624,-2938.5 424.9624,-2938.5 424.9624,-2938.5 429.9613,-2938.3952 425.0568,-2942.999 434.9602,-2938.2904 434.9602,-2938.2904"/>
</g>
<!-- uniform_resource -->
<g id="node4" class="node">
<title>uniform_resource</title>
<polygon fill="#efefef" stroke="transparent" points="333.9624,-2283.5 333.9624,-2318.5 567.9624,-2318.5 567.9624,-2283.5 333.9624,-2283.5"/>
<polygon fill="none" stroke="#000000" points="333.9624,-2283.5 333.9624,-2318.5 567.9624,-2318.5 567.9624,-2283.5 333.9624,-2283.5"/>
<text text-anchor="start" x="344.7895" y="-2296.3" font-family="Arial Bold" font-size="18.00" fill="#000000">uniform_resource</text>
<text text-anchor="start" x="484.8043" y="-2296.3" font-family="Arial" font-size="14.00" fill="#000000">    </text>
<text text-anchor="start" x="519.0091" y="-2296.3" font-family="Arial" font-size="14.00" fill="#666666">[table]</text>
<polygon fill="none" stroke="#000000" points="333.9624,-2253.5 333.9624,-2283.5 567.9624,-2283.5 567.9624,-2253.5 333.9624,-2253.5"/>
<text text-anchor="start" x="340.9624" y="-2264.9" font-family="Arial" font-size="14.00" fill="#000000">uniform_resource_id    </text>
<text text-anchor="start" x="502.7394" y="-2264.9" font-family="Arial" font-size="14.00" fill="#666666">[ULID]</text>
<polygon fill="none" stroke="#000000" points="333.9624,-2223.5 333.9624,-2253.5 567.9624,-2253.5 567.9624,-2223.5 333.9624,-2223.5"/>
<text text-anchor="start" x="340.9624" y="-2234.9" font-family="Arial" font-size="14.00" fill="#000000">device_id    </text>
<text text-anchor="start" x="434.2934" y="-2234.9" font-family="Arial" font-size="14.00" fill="#666666">[ULID]</text>
<polygon fill="none" stroke="#000000" points="333.9624,-2193.5 333.9624,-2223.5 567.9624,-2223.5 567.9624,-2193.5 333.9624,-2193.5"/>
<text text-anchor="start" x="340.9624" y="-2204.9" font-family="Arial" font-size="14.00" fill="#000000">walk_session_id    </text>
<text text-anchor="start" x="477.0718" y="-2204.9" font-family="Arial" font-size="14.00" fill="#666666">[ULID]</text>
<polygon fill="none" stroke="#000000" points="333.9624,-2163.5 333.9624,-2193.5 567.9624,-2193.5 567.9624,-2163.5 333.9624,-2163.5"/>
<text text-anchor="start" x="340.9624" y="-2174.9" font-family="Arial" font-size="14.00" fill="#000000">walk_path_id    </text>
<text text-anchor="start" x="456.8558" y="-2174.9" font-family="Arial" font-size="14.00" fill="#666666">[ULID]</text>
<polygon fill="none" stroke="#000000" points="333.9624,-2133.5 333.9624,-2163.5 567.9624,-2163.5 567.9624,-2133.5 333.9624,-2133.5"/>
<text text-anchor="start" x="340.9624" y="-2144.9" font-family="Arial" font-size="14.00" fill="#000000">uri    </text>
<text text-anchor="start" x="390.717" y="-2144.9" font-family="Arial" font-size="14.00" fill="#666666">[TEXT]</text>
<polygon fill="none" stroke="#000000" points="333.9624,-2103.5 333.9624,-2133.5 567.9624,-2133.5 567.9624,-2103.5 333.9624,-2103.5"/>
<text text-anchor="start" x="340.9624" y="-2114.9" font-family="Arial" font-size="14.00" fill="#000000">content_digest    </text>
<text text-anchor="start" x="466.2064" y="-2114.9" font-family="Arial" font-size="14.00" fill="#666666">[TEXT]</text>
<polygon fill="none" stroke="#000000" points="333.9624,-2073.5 333.9624,-2103.5 567.9624,-2103.5 567.9624,-2073.5 333.9624,-2073.5"/>
<text text-anchor="start" x="340.9624" y="-2084.9" font-family="Arial" font-size="14.00" fill="#000000">content    </text>
<text text-anchor="start" x="421.0788" y="-2084.9" font-family="Arial" font-size="14.00" fill="#666666">[BLOB]</text>
<polygon fill="none" stroke="#000000" points="333.9624,-2043.5 333.9624,-2073.5 567.9624,-2073.5 567.9624,-2043.5 333.9624,-2043.5"/>
<text text-anchor="start" x="340.9624" y="-2054.9" font-family="Arial" font-size="14.00" fill="#000000">nature    </text>
<text text-anchor="start" x="414.8488" y="-2054.9" font-family="Arial" font-size="14.00" fill="#666666">[TEXT]</text>
<polygon fill="none" stroke="#000000" points="333.9624,-2013.5 333.9624,-2043.5 567.9624,-2043.5 567.9624,-2013.5 333.9624,-2013.5"/>
<text text-anchor="start" x="340.9624" y="-2024.9" font-family="Arial" font-size="14.00" fill="#000000">size_bytes    </text>
<text text-anchor="start" x="441.2948" y="-2024.9" font-family="Arial" font-size="14.00" fill="#666666">[INTEGER]</text>
<polygon fill="none" stroke="#000000" points="333.9624,-1983.5 333.9624,-2013.5 567.9624,-2013.5 567.9624,-1983.5 333.9624,-1983.5"/>
<text text-anchor="start" x="340.9624" y="-1994.9" font-family="Arial" font-size="14.00" fill="#000000">last_modified_at    </text>
<text text-anchor="start" x="477.0802" y="-1994.9" font-family="Arial" font-size="14.00" fill="#666666">[INTEGER]</text>
<polygon fill="none" stroke="#000000" points="333.9624,-1953.5 333.9624,-1983.5 567.9624,-1983.5 567.9624,-1953.5 333.9624,-1953.5"/>
<text text-anchor="start" x="340.8888" y="-1964.9" font-family="Arial" font-size="14.00" fill="#000000">content_fm_body_attrs    </text>
<text text-anchor="start" x="517.4764" y="-1964.9" font-family="Arial" font-size="14.00" fill="#666666">[TEXT]</text>
<polygon fill="none" stroke="#000000" points="333.9624,-1923.5 333.9624,-1953.5 567.9624,-1953.5 567.9624,-1923.5 333.9624,-1923.5"/>
<text text-anchor="start" x="340.9624" y="-1934.9" font-family="Arial" font-size="14.00" fill="#000000">frontmatter    </text>
<text text-anchor="start" x="442.8418" y="-1934.9" font-family="Arial" font-size="14.00" fill="#666666">[TEXT]</text>
<polygon fill="none" stroke="#000000" points="333.9624,-1893.5 333.9624,-1923.5 567.9624,-1923.5 567.9624,-1893.5 333.9624,-1893.5"/>
<text text-anchor="start" x="340.9624" y="-1904.9" font-family="Arial" font-size="14.00" fill="#000000">elaboration    </text>
<text text-anchor="start" x="444.4098" y="-1904.9" font-family="Arial" font-size="14.00" fill="#666666">[TEXT]</text>
<polygon fill="none" stroke="#000000" points="333.9624,-1863.5 333.9624,-1893.5 567.9624,-1893.5 567.9624,-1863.5 333.9624,-1863.5"/>
<text text-anchor="start" x="340.9624" y="-1874.9" font-family="Arial" font-size="14.00" fill="#000000">created_at    </text>
<text text-anchor="start" x="441.3046" y="-1874.9" font-family="Arial" font-size="14.00" fill="#666666">[TIMESTAMP]</text>
<polygon fill="none" stroke="#000000" points="333.9624,-1833.5 333.9624,-1863.5 567.9624,-1863.5 567.9624,-1833.5 333.9624,-1833.5"/>
<text text-anchor="start" x="340.9624" y="-1844.9" font-family="Arial" font-size="14.00" fill="#000000">created_by    </text>
<text text-anchor="start" x="444.414" y="-1844.9" font-family="Arial" font-size="14.00" fill="#666666">[TEXT]</text>
<polygon fill="none" stroke="#000000" points="333.9624,-1803.5 333.9624,-1833.5 567.9624,-1833.5 567.9624,-1803.5 333.9624,-1803.5"/>
<text text-anchor="start" x="340.9624" y="-1814.9" font-family="Arial" font-size="14.00" fill="#000000">updated_at    </text>
<text text-anchor="start" x="445.2092" y="-1814.9" font-family="Arial" font-size="14.00" fill="#666666">[TIMESTAMP]</text>
<polygon fill="none" stroke="#000000" points="333.9624,-1773.5 333.9624,-1803.5 567.9624,-1803.5 567.9624,-1773.5 333.9624,-1773.5"/>
<text text-anchor="start" x="340.9624" y="-1784.9" font-family="Arial" font-size="14.00" fill="#000000">updated_by    </text>
<text text-anchor="start" x="448.3186" y="-1784.9" font-family="Arial" font-size="14.00" fill="#666666">[TEXT]</text>
<polygon fill="none" stroke="#000000" points="333.9624,-1743.5 333.9624,-1773.5 567.9624,-1773.5 567.9624,-1743.5 333.9624,-1743.5"/>
<text text-anchor="start" x="340.9624" y="-1754.9" font-family="Arial" font-size="14.00" fill="#000000">deleted_at    </text>
<text text-anchor="start" x="440.5332" y="-1754.9" font-family="Arial" font-size="14.00" fill="#666666">[TIMESTAMP]</text>
<polygon fill="none" stroke="#000000" points="333.9624,-1713.5 333.9624,-1743.5 567.9624,-1743.5 567.9624,-1713.5 333.9624,-1713.5"/>
<text text-anchor="start" x="340.9624" y="-1724.9" font-family="Arial" font-size="14.00" fill="#000000">deleted_by    </text>
<text text-anchor="start" x="443.6426" y="-1724.9" font-family="Arial" font-size="14.00" fill="#666666">[TEXT]</text>
<polygon fill="none" stroke="#000000" points="333.9624,-1683.5 333.9624,-1713.5 567.9624,-1713.5 567.9624,-1683.5 333.9624,-1683.5"/>
<text text-anchor="start" x="340.9624" y="-1694.9" font-family="Arial" font-size="14.00" fill="#000000">activity_log    </text>
<text text-anchor="start" x="444.3986" y="-1694.9" font-family="Arial" font-size="14.00" fill="#666666">[TEXT]</text>
</g>
<!-- ur_walk_session_path_fs_entry&#45;&gt;uniform_resource -->
<g id="edge8" class="edge">
<title>ur_walk_session_path_fs_entry:uniform_resource_id&#45;&gt;uniform_resource:uniform_resource_id</title>
<path fill="none" stroke="#000000" d="M435.0423,-2908.2797C648.8377,-2898.7568 550.5884,-2582.7973 424.9624,-2398 400.51,-2362.0301 358.4149,-2397.9699 333.9624,-2362 310.5999,-2327.6335 292.4069,-2268.5 333.9624,-2268.5"/>
<polygon fill="#000000" stroke="#000000" points="434.96,-2908.2814 424.864,-2904.0011 429.9612,-2908.3907 424.9624,-2908.5 424.9624,-2908.5 424.9624,-2908.5 429.9612,-2908.3907 425.0608,-2912.9989 434.96,-2908.2814 434.96,-2908.2814"/>
</g>
<!-- device -->
<g id="node5" class="node">
<title>device</title>
<polygon fill="#efefef" stroke="transparent" points="392.9624,-462.5 392.9624,-497.5 599.9624,-497.5 599.9624,-462.5 392.9624,-462.5"/>
<polygon fill="none" stroke="#000000" points="392.9624,-462.5 392.9624,-497.5 599.9624,-497.5 599.9624,-462.5 392.9624,-462.5"/>
<text text-anchor="start" x="434.2905" y="-475.3" font-family="Arial Bold" font-size="18.00" fill="#000000">device</text>
<text text-anchor="start" x="486.3033" y="-475.3" font-family="Arial" font-size="14.00" fill="#000000">    </text>
<text text-anchor="start" x="520.5081" y="-475.3" font-family="Arial" font-size="14.00" fill="#666666">[table]</text>
<polygon fill="none" stroke="#000000" points="392.9624,-432.5 392.9624,-462.5 599.9624,-462.5 599.9624,-432.5 392.9624,-432.5"/>
<text text-anchor="start" x="399.9624" y="-443.9" font-family="Arial" font-size="14.00" fill="#000000">device_id    </text>
<text text-anchor="start" x="493.2934" y="-443.9" font-family="Arial" font-size="14.00" fill="#666666">[ULID]</text>
<polygon fill="none" stroke="#000000" points="392.9624,-402.5 392.9624,-432.5 599.9624,-432.5 599.9624,-402.5 392.9624,-402.5"/>
<text text-anchor="start" x="399.9624" y="-413.9" font-family="Arial" font-size="14.00" fill="#000000">name    </text>
<text text-anchor="start" x="469.1756" y="-413.9" font-family="Arial" font-size="14.00" fill="#666666">[TEXT]</text>
<polygon fill="none" stroke="#000000" points="392.9624,-372.5 392.9624,-402.5 599.9624,-402.5 599.9624,-372.5 392.9624,-372.5"/>
<text text-anchor="start" x="399.9624" y="-383.9" font-family="Arial" font-size="14.00" fill="#000000">state    </text>
<text text-anchor="start" x="464.5136" y="-383.9" font-family="Arial" font-size="14.00" fill="#666666">[TEXT]</text>
<polygon fill="none" stroke="#000000" points="392.9624,-342.5 392.9624,-372.5 599.9624,-372.5 599.9624,-342.5 392.9624,-342.5"/>
<text text-anchor="start" x="399.9624" y="-353.9" font-family="Arial" font-size="14.00" fill="#000000">boundary    </text>
<text text-anchor="start" x="492.5234" y="-353.9" font-family="Arial" font-size="14.00" fill="#666666">[TEXT]</text>
<polygon fill="none" stroke="#000000" points="392.9624,-312.5 392.9624,-342.5 599.9624,-342.5 599.9624,-312.5 392.9624,-312.5"/>
<text text-anchor="start" x="399.9624" y="-323.9" font-family="Arial" font-size="14.00" fill="#000000">segmentation    </text>
<text text-anchor="start" x="518.1938" y="-323.9" font-family="Arial" font-size="14.00" fill="#666666">[TEXT]</text>
<polygon fill="none" stroke="#000000" points="392.9624,-282.5 392.9624,-312.5 599.9624,-312.5 599.9624,-282.5 392.9624,-282.5"/>
<text text-anchor="start" x="399.9624" y="-293.9" font-family="Arial" font-size="14.00" fill="#000000">state_sysinfo    </text>
<text text-anchor="start" x="515.8586" y="-293.9" font-family="Arial" font-size="14.00" fill="#666666">[TEXT]</text>
<polygon fill="none" stroke="#000000" points="392.9624,-252.5 392.9624,-282.5 599.9624,-282.5 599.9624,-252.5 392.9624,-252.5"/>
<text text-anchor="start" x="399.9624" y="-263.9" font-family="Arial" font-size="14.00" fill="#000000">elaboration    </text>
<text text-anchor="start" x="503.4098" y="-263.9" font-family="Arial" font-size="14.00" fill="#666666">[TEXT]</text>
<polygon fill="none" stroke="#000000" points="392.9624,-222.5 392.9624,-252.5 599.9624,-252.5 599.9624,-222.5 392.9624,-222.5"/>
<text text-anchor="start" x="399.9624" y="-233.9" font-family="Arial" font-size="14.00" fill="#000000">created_at    </text>
<text text-anchor="start" x="500.3046" y="-233.9" font-family="Arial" font-size="14.00" fill="#666666">[TIMESTAMP]</text>
<polygon fill="none" stroke="#000000" points="392.9624,-192.5 392.9624,-222.5 599.9624,-222.5 599.9624,-192.5 392.9624,-192.5"/>
<text text-anchor="start" x="399.9624" y="-203.9" font-family="Arial" font-size="14.00" fill="#000000">created_by    </text>
<text text-anchor="start" x="503.414" y="-203.9" font-family="Arial" font-size="14.00" fill="#666666">[TEXT]</text>
<polygon fill="none" stroke="#000000" points="392.9624,-162.5 392.9624,-192.5 599.9624,-192.5 599.9624,-162.5 392.9624,-162.5"/>
<text text-anchor="start" x="399.6167" y="-173.9" font-family="Arial" font-size="14.00" fill="#000000">updated_at    </text>
<text text-anchor="start" x="503.8635" y="-173.9" font-family="Arial" font-size="14.00" fill="#666666">[TIMESTAMP]</text>
<polygon fill="none" stroke="#000000" points="392.9624,-132.5 392.9624,-162.5 599.9624,-162.5 599.9624,-132.5 392.9624,-132.5"/>
<text text-anchor="start" x="399.9624" y="-143.9" font-family="Arial" font-size="14.00" fill="#000000">updated_by    </text>
<text text-anchor="start" x="507.3186" y="-143.9" font-family="Arial" font-size="14.00" fill="#666666">[TEXT]</text>
<polygon fill="none" stroke="#000000" points="392.9624,-102.5 392.9624,-132.5 599.9624,-132.5 599.9624,-102.5 392.9624,-102.5"/>
<text text-anchor="start" x="399.9624" y="-113.9" font-family="Arial" font-size="14.00" fill="#000000">deleted_at    </text>
<text text-anchor="start" x="499.5332" y="-113.9" font-family="Arial" font-size="14.00" fill="#666666">[TIMESTAMP]</text>
<polygon fill="none" stroke="#000000" points="392.9624,-72.5 392.9624,-102.5 599.9624,-102.5 599.9624,-72.5 392.9624,-72.5"/>
<text text-anchor="start" x="399.9624" y="-83.9" font-family="Arial" font-size="14.00" fill="#000000">deleted_by    </text>
<text text-anchor="start" x="502.6426" y="-83.9" font-family="Arial" font-size="14.00" fill="#666666">[TEXT]</text>
<polygon fill="none" stroke="#000000" points="392.9624,-42.5 392.9624,-72.5 599.9624,-72.5 599.9624,-42.5 392.9624,-42.5"/>
<text text-anchor="start" x="399.9624" y="-53.9" font-family="Arial" font-size="14.00" fill="#000000">activity_log    </text>
<text text-anchor="start" x="503.3986" y="-53.9" font-family="Arial" font-size="14.00" fill="#666666">[TEXT]</text>
</g>
<!-- ur_walk_session&#45;&gt;device -->
<g id="edge4" class="edge">
<title>ur_walk_session:device_id&#45;&gt;device:device_id</title>
<path fill="none" stroke="#000000" d="M381.5663,-985.9079C400.2721,-916.3178 364.8154,-447.5 392.9624,-447.5"/>
<polygon fill="#000000" stroke="#000000" points="381.4254,-986.124 372.1932,-992.0417 378.6939,-990.312 375.9624,-994.5 375.9624,-994.5 375.9624,-994.5 378.6939,-990.312 379.7316,-996.9583 381.4254,-986.124 381.4254,-986.124"/>
</g>
<!-- behavior -->
<g id="node6" class="node">
<title>behavior</title>
<polygon fill="#efefef" stroke="transparent" points="57.9624,-447.5 57.9624,-482.5 288.9624,-482.5 288.9624,-447.5 57.9624,-447.5"/>
<polygon fill="none" stroke="#000000" points="57.9624,-447.5 57.9624,-482.5 288.9624,-482.5 288.9624,-447.5 57.9624,-447.5"/>
<text text-anchor="start" x="102.7882" y="-460.3" font-family="Arial Bold" font-size="18.00" fill="#000000">behavior</text>
<text text-anchor="start" x="171.8056" y="-460.3" font-family="Arial" font-size="14.00" fill="#000000">    </text>
<text text-anchor="start" x="206.0104" y="-460.3" font-family="Arial" font-size="14.00" fill="#666666">[table]</text>
<polygon fill="none" stroke="#000000" points="57.9624,-417.5 57.9624,-447.5 288.9624,-447.5 288.9624,-417.5 57.9624,-417.5"/>
<text text-anchor="start" x="64.9624" y="-428.9" font-family="Arial" font-size="14.00" fill="#000000">behavior_id    </text>
<text text-anchor="start" x="171.5192" y="-428.9" font-family="Arial" font-size="14.00" fill="#666666">[ULID]</text>
<polygon fill="none" stroke="#000000" points="57.9624,-387.5 57.9624,-417.5 288.9624,-417.5 288.9624,-387.5 57.9624,-387.5"/>
<text text-anchor="start" x="64.9624" y="-398.9" font-family="Arial" font-size="14.00" fill="#000000">device_id    </text>
<text text-anchor="start" x="158.2934" y="-398.9" font-family="Arial" font-size="14.00" fill="#666666">[ULID]</text>
<polygon fill="none" stroke="#000000" points="57.9624,-357.5 57.9624,-387.5 288.9624,-387.5 288.9624,-357.5 57.9624,-357.5"/>
<text text-anchor="start" x="64.9624" y="-368.9" font-family="Arial" font-size="14.00" fill="#000000">behavior_name    </text>
<text text-anchor="start" x="195.6384" y="-368.9" font-family="Arial" font-size="14.00" fill="#666666">[TEXT]</text>
<polygon fill="none" stroke="#000000" points="57.9624,-327.5 57.9624,-357.5 288.9624,-357.5 288.9624,-327.5 57.9624,-327.5"/>
<text text-anchor="start" x="64.9624" y="-338.9" font-family="Arial" font-size="14.00" fill="#000000">behavior_conf_json    </text>
<text text-anchor="start" x="220.5402" y="-338.9" font-family="Arial" font-size="14.00" fill="#666666">[TEXT]</text>
<polygon fill="none" stroke="#000000" points="57.9624,-297.5 57.9624,-327.5 288.9624,-327.5 288.9624,-297.5 57.9624,-297.5"/>
<text text-anchor="start" x="64.562" y="-308.9" font-family="Arial" font-size="14.00" fill="#000000">assurance_schema_id    </text>
<text text-anchor="start" x="238.8032" y="-308.9" font-family="Arial" font-size="14.00" fill="#666666">[TEXT]</text>
<polygon fill="none" stroke="#000000" points="57.9624,-267.5 57.9624,-297.5 288.9624,-297.5 288.9624,-267.5 57.9624,-267.5"/>
<text text-anchor="start" x="64.9624" y="-278.9" font-family="Arial" font-size="14.00" fill="#000000">governance    </text>
<text text-anchor="start" x="172.306" y="-278.9" font-family="Arial" font-size="14.00" fill="#666666">[TEXT]</text>
<polygon fill="none" stroke="#000000" points="57.9624,-237.5 57.9624,-267.5 288.9624,-267.5 288.9624,-237.5 57.9624,-237.5"/>
<text text-anchor="start" x="64.9624" y="-248.9" font-family="Arial" font-size="14.00" fill="#000000">created_at    </text>
<text text-anchor="start" x="165.3046" y="-248.9" font-family="Arial" font-size="14.00" fill="#666666">[TIMESTAMP]</text>
<polygon fill="none" stroke="#000000" points="57.9624,-207.5 57.9624,-237.5 288.9624,-237.5 288.9624,-207.5 57.9624,-207.5"/>
<text text-anchor="start" x="64.9624" y="-218.9" font-family="Arial" font-size="14.00" fill="#000000">created_by    </text>
<text text-anchor="start" x="168.414" y="-218.9" font-family="Arial" font-size="14.00" fill="#666666">[TEXT]</text>
<polygon fill="none" stroke="#000000" points="57.9624,-177.5 57.9624,-207.5 288.9624,-207.5 288.9624,-177.5 57.9624,-177.5"/>
<text text-anchor="start" x="64.9624" y="-188.9" font-family="Arial" font-size="14.00" fill="#000000">updated_at    </text>
<text text-anchor="start" x="169.2092" y="-188.9" font-family="Arial" font-size="14.00" fill="#666666">[TIMESTAMP]</text>
<polygon fill="none" stroke="#000000" points="57.9624,-147.5 57.9624,-177.5 288.9624,-177.5 288.9624,-147.5 57.9624,-147.5"/>
<text text-anchor="start" x="64.9624" y="-158.9" font-family="Arial" font-size="14.00" fill="#000000">updated_by    </text>
<text text-anchor="start" x="172.3186" y="-158.9" font-family="Arial" font-size="14.00" fill="#666666">[TEXT]</text>
<polygon fill="none" stroke="#000000" points="57.9624,-117.5 57.9624,-147.5 288.9624,-147.5 288.9624,-117.5 57.9624,-117.5"/>
<text text-anchor="start" x="64.9624" y="-128.9" font-family="Arial" font-size="14.00" fill="#000000">deleted_at    </text>
<text text-anchor="start" x="164.5332" y="-128.9" font-family="Arial" font-size="14.00" fill="#666666">[TIMESTAMP]</text>
<polygon fill="none" stroke="#000000" points="57.9624,-87.5 57.9624,-117.5 288.9624,-117.5 288.9624,-87.5 57.9624,-87.5"/>
<text text-anchor="start" x="64.9624" y="-98.9" font-family="Arial" font-size="14.00" fill="#000000">deleted_by    </text>
<text text-anchor="start" x="167.6426" y="-98.9" font-family="Arial" font-size="14.00" fill="#666666">[TEXT]</text>
<polygon fill="none" stroke="#000000" points="57.9624,-57.5 57.9624,-87.5 288.9624,-87.5 288.9624,-57.5 57.9624,-57.5"/>
<text text-anchor="start" x="64.9624" y="-68.9" font-family="Arial" font-size="14.00" fill="#000000">activity_log    </text>
<text text-anchor="start" x="168.3986" y="-68.9" font-family="Arial" font-size="14.00" fill="#666666">[TEXT]</text>
</g>
<!-- ur_walk_session&#45;&gt;behavior -->
<g id="edge5" class="edge">
<title>ur_walk_session:behavior_id&#45;&gt;behavior:behavior_id</title>
<path fill="none" stroke="#000000" d="M124.6722,-964.1903C-34.3195,-954.3784 36.1941,-713.7525 134.9624,-577 177.1771,-518.5505 246.7478,-584.4495 288.9624,-526 313.2932,-492.3121 330.518,-432.5 288.9624,-432.5"/>
<polygon fill="#000000" stroke="#000000" points="124.9669,-964.1991 134.827,-968.998 129.9647,-964.3495 134.9624,-964.5 134.9624,-964.5 134.9624,-964.5 129.9647,-964.3495 135.0978,-960.002 124.9669,-964.1991 124.9669,-964.1991"/>
</g>
<!-- ur_walk_session_path&#45;&gt;ur_walk_session -->
<g id="edge2" class="edge">
<title>ur_walk_session_path:walk_session_id&#45;&gt;ur_walk_session:ur_walk_session_id</title>
<path fill="none" stroke="#000000" d="M113.9929,-1479.6078C53.6891,-1455.4054 78.6066,-1206.2957 123.9624,-1154 198.09,-1068.5301 301.8348,-1203.4699 375.9624,-1118 403.1897,-1086.6067 417.518,-1024.5 375.9624,-1024.5"/>
<polygon fill="#000000" stroke="#000000" points="114.1378,-1479.6353 123.1233,-1485.9211 119.0501,-1480.5676 123.9624,-1481.5 123.9624,-1481.5 123.9624,-1481.5 119.0501,-1480.5676 124.8016,-1477.0789 114.1378,-1479.6353 114.1378,-1479.6353"/>
</g>
<!-- uniform_resource&#45;&gt;ur_walk_session -->
<g id="edge3" class="edge">
<title>uniform_resource:walk_session_id&#45;&gt;ur_walk_session:ur_walk_session_id</title>
<path fill="none" stroke="#000000" d="M578.2415,-2207.4061C690.8648,-2182.5978 635.6375,-1743.1569 567.9624,-1641 545.3048,-1606.7978 507.2195,-1638.0871 482.9624,-1605 405.4057,-1499.2109 507.1355,-1024.5 375.9624,-1024.5"/>
<polygon fill="#000000" stroke="#000000" points="577.9063,-2207.4417 567.4862,-2204.0253 572.9343,-2207.9708 567.9624,-2208.5 567.9624,-2208.5 567.9624,-2208.5 572.9343,-2207.9708 568.4387,-2212.9747 577.9063,-2207.4417 577.9063,-2207.4417"/>
</g>
<!-- uniform_resource&#45;&gt;ur_walk_session_path -->
<g id="edge7" class="edge">
<title>uniform_resource:walk_path_id&#45;&gt;ur_walk_session_path:ur_walk_session_path_id</title>
<path fill="none" stroke="#000000" d="M324.6755,-2174.0003C277.8025,-2124.9627 307.3782,-1690.6731 333.9624,-1641 347.5729,-1615.5686 374.352,-1630.4314 387.9624,-1605 407.5707,-1568.3615 429.518,-1511.5 387.9624,-1511.5"/>
<polygon fill="#000000" stroke="#000000" points="324.9631,-2174.1396 332.0002,-2182.5497 329.4628,-2176.3198 333.9624,-2178.5 333.9624,-2178.5 333.9624,-2178.5 329.4628,-2176.3198 335.9246,-2174.4503 324.9631,-2174.1396 324.9631,-2174.1396"/>
</g>
<!-- uniform_resource&#45;&gt;device -->
<g id="edge9" class="edge">
<title>uniform_resource:device_id&#45;&gt;device:device_id</title>
<path fill="none" stroke="#000000" d="M576.8131,-2233.6751C669.2953,-2131.702 696.4656,-447.5 599.9624,-447.5"/>
<polygon fill="#000000" stroke="#000000" points="576.7425,-2233.7135 565.8085,-2234.5489 572.3525,-2236.1068 567.9624,-2238.5 567.9624,-2238.5 567.9624,-2238.5 572.3525,-2236.1068 570.1163,-2242.4511 576.7425,-2233.7135 576.7425,-2233.7135"/>
</g>
</g>
</svg>
