<?xml version="1.0" encoding="UTF-8" standalone="no"?>
<!DOCTYPE svg PUBLIC "-//W3C//DTD SVG 1.1//EN"
 "http://www.w3.org/Graphics/SVG/1.1/DTD/svg11.dtd">
<!-- Generated by graphviz version 2.40.1 (20161225.0304)
 -->
<!-- Title: ur_walk_session Pages: 1 -->
<svg width="745pt" height="3650pt"
 viewBox="0.00 0.00 744.82 3650.00" xmlns="http://www.w3.org/2000/svg" xmlns:xlink="http://www.w3.org/1999/xlink">
<g id="graph0" class="graph" transform="scale(1 1) rotate(0) translate(4 3646)">
<title>ur_walk_session</title>
<polygon fill="#ffffff" stroke="transparent" points="-4,4 -4,-3646 740.8157,-3646 740.8157,4 -4,4"/>
<!-- ur_walk_session -->
<g id="node1" class="node">
<title>ur_walk_session</title>
<polygon fill="#efefef" stroke="transparent" points="194.8053,-1589.5 194.8053,-1624.5 413.8053,-1624.5 413.8053,-1589.5 194.8053,-1589.5"/>
<polygon fill="none" stroke="#000000" points="194.8053,-1589.5 194.8053,-1624.5 413.8053,-1624.5 413.8053,-1589.5 194.8053,-1589.5"/>
<text text-anchor="start" x="201.6307" y="-1602.3" font-family="Arial Bold" font-size="18.00" fill="#000000">ur_walk_session</text>
<text text-anchor="start" x="334.6489" y="-1602.3" font-family="Arial" font-size="14.00" fill="#000000">    </text>
<text text-anchor="start" x="368.8537" y="-1602.3" font-family="Arial" font-size="14.00" fill="#666666">[table]</text>
<polygon fill="none" stroke="#000000" points="194.8053,-1559.5 194.8053,-1589.5 413.8053,-1589.5 413.8053,-1559.5 194.8053,-1559.5"/>
<text text-anchor="start" x="201.8053" y="-1570.9" font-family="Arial" font-size="14.00" fill="#000000">ur_walk_session_id </text>
<text text-anchor="start" x="327.8263" y="-1570.9" font-family="Arial" font-size="14.00" fill="#666666">[ULID]</text>
<polygon fill="none" stroke="#000000" points="194.8053,-1529.5 194.8053,-1559.5 413.8053,-1559.5 413.8053,-1529.5 194.8053,-1529.5"/>
<text text-anchor="start" x="201.8053" y="-1540.9" font-family="Arial" font-size="14.00" fill="#000000">device_id </text>
<text text-anchor="start" x="264.8221" y="-1540.9" font-family="Arial" font-size="14.00" fill="#666666">[ULID]</text>
<polygon fill="none" stroke="#000000" points="194.8053,-1499.5 194.8053,-1529.5 413.8053,-1529.5 413.8053,-1499.5 194.8053,-1499.5"/>
<text text-anchor="start" x="201.8053" y="-1510.9" font-family="Arial" font-size="14.00" fill="#000000">behavior_id </text>
<text text-anchor="start" x="278.0479" y="-1510.9" font-family="Arial" font-size="14.00" fill="#666666">[ULID]</text>
<polygon fill="none" stroke="#000000" points="194.8053,-1469.5 194.8053,-1499.5 413.8053,-1499.5 413.8053,-1469.5 194.8053,-1469.5"/>
<text text-anchor="start" x="201.8053" y="-1480.9" font-family="Arial" font-size="14.00" fill="#000000">behavior_json </text>
<text text-anchor="start" x="292.8305" y="-1480.9" font-family="Arial" font-size="14.00" fill="#666666">[TEXT]</text>
<polygon fill="none" stroke="#000000" points="194.8053,-1439.5 194.8053,-1469.5 413.8053,-1469.5 413.8053,-1439.5 194.8053,-1439.5"/>
<text text-anchor="start" x="201.8053" y="-1450.9" font-family="Arial" font-size="14.00" fill="#000000">walk_started_at </text>
<text text-anchor="start" x="303.7197" y="-1450.9" font-family="Arial" font-size="14.00" fill="#666666">[TIMESTAMP]</text>
<polygon fill="none" stroke="#000000" points="194.8053,-1409.5 194.8053,-1439.5 413.8053,-1439.5 413.8053,-1409.5 194.8053,-1409.5"/>
<text text-anchor="start" x="201.8053" y="-1420.9" font-family="Arial" font-size="14.00" fill="#000000">walk_finished_at </text>
<text text-anchor="start" x="309.1643" y="-1420.9" font-family="Arial" font-size="14.00" fill="#666666">[TIMESTAMP]</text>
<polygon fill="none" stroke="#000000" points="194.8053,-1379.5 194.8053,-1409.5 413.8053,-1409.5 413.8053,-1379.5 194.8053,-1379.5"/>
<text text-anchor="start" x="201.8053" y="-1390.9" font-family="Arial" font-size="14.00" fill="#000000">elaboration </text>
<text text-anchor="start" x="274.9385" y="-1390.9" font-family="Arial" font-size="14.00" fill="#666666">[TEXT]</text>
<polygon fill="none" stroke="#000000" points="194.8053,-1349.5 194.8053,-1379.5 413.8053,-1379.5 413.8053,-1349.5 194.8053,-1349.5"/>
<text text-anchor="start" x="201.8053" y="-1360.9" font-family="Arial" font-size="14.00" fill="#000000">created_at </text>
<text text-anchor="start" x="271.8333" y="-1360.9" font-family="Arial" font-size="14.00" fill="#666666">[TIMESTAMP]</text>
<polygon fill="none" stroke="#000000" points="194.8053,-1319.5 194.8053,-1349.5 413.8053,-1349.5 413.8053,-1319.5 194.8053,-1319.5"/>
<text text-anchor="start" x="201.8053" y="-1330.9" font-family="Arial" font-size="14.00" fill="#000000">created_by </text>
<text text-anchor="start" x="274.9427" y="-1330.9" font-family="Arial" font-size="14.00" fill="#666666">[TEXT]</text>
<polygon fill="none" stroke="#000000" points="194.8053,-1289.5 194.8053,-1319.5 413.8053,-1319.5 413.8053,-1289.5 194.8053,-1289.5"/>
<text text-anchor="start" x="201.8053" y="-1300.9" font-family="Arial" font-size="14.00" fill="#000000">updated_at </text>
<text text-anchor="start" x="275.7379" y="-1300.9" font-family="Arial" font-size="14.00" fill="#666666">[TIMESTAMP]</text>
<polygon fill="none" stroke="#000000" points="194.8053,-1259.5 194.8053,-1289.5 413.8053,-1289.5 413.8053,-1259.5 194.8053,-1259.5"/>
<text text-anchor="start" x="201.8053" y="-1270.9" font-family="Arial" font-size="14.00" fill="#000000">updated_by </text>
<text text-anchor="start" x="278.8473" y="-1270.9" font-family="Arial" font-size="14.00" fill="#666666">[TEXT]</text>
<polygon fill="none" stroke="#000000" points="194.8053,-1229.5 194.8053,-1259.5 413.8053,-1259.5 413.8053,-1229.5 194.8053,-1229.5"/>
<text text-anchor="start" x="201.8053" y="-1240.9" font-family="Arial" font-size="14.00" fill="#000000">deleted_at </text>
<text text-anchor="start" x="271.0619" y="-1240.9" font-family="Arial" font-size="14.00" fill="#666666">[TIMESTAMP]</text>
<polygon fill="none" stroke="#000000" points="194.8053,-1199.5 194.8053,-1229.5 413.8053,-1229.5 413.8053,-1199.5 194.8053,-1199.5"/>
<text text-anchor="start" x="201.8053" y="-1210.9" font-family="Arial" font-size="14.00" fill="#000000">deleted_by </text>
<text text-anchor="start" x="274.1713" y="-1210.9" font-family="Arial" font-size="14.00" fill="#666666">[TEXT]</text>
<polygon fill="none" stroke="#000000" points="194.8053,-1169.5 194.8053,-1199.5 413.8053,-1199.5 413.8053,-1169.5 194.8053,-1169.5"/>
<text text-anchor="start" x="201.8053" y="-1180.9" font-family="Arial" font-size="14.00" fill="#000000">activity_log </text>
<text text-anchor="start" x="274.9273" y="-1180.9" font-family="Arial" font-size="14.00" fill="#666666">[TEXT]</text>
<polygon fill="none" stroke="#000000" stroke-width="3" points="192.8053,-1168.5 192.8053,-1626.5 414.8053,-1626.5 414.8053,-1168.5 192.8053,-1168.5"/>
</g>
<!-- device -->
<g id="node5" class="node">
<title>device</title>
<polygon fill="#efefef" stroke="transparent" points="255.8053,-462.5 255.8053,-497.5 462.8053,-497.5 462.8053,-462.5 255.8053,-462.5"/>
<polygon fill="none" stroke="#000000" points="255.8053,-462.5 255.8053,-497.5 462.8053,-497.5 462.8053,-462.5 255.8053,-462.5"/>
<text text-anchor="start" x="297.1334" y="-475.3" font-family="Arial Bold" font-size="18.00" fill="#000000">device</text>
<text text-anchor="start" x="349.1462" y="-475.3" font-family="Arial" font-size="14.00" fill="#000000">    </text>
<text text-anchor="start" x="383.351" y="-475.3" font-family="Arial" font-size="14.00" fill="#666666">[table]</text>
<polygon fill="none" stroke="#000000" points="255.8053,-432.5 255.8053,-462.5 462.8053,-462.5 462.8053,-432.5 255.8053,-432.5"/>
<text text-anchor="start" x="262.8053" y="-443.9" font-family="Arial" font-size="14.00" fill="#000000">device_id    </text>
<text text-anchor="start" x="356.1363" y="-443.9" font-family="Arial" font-size="14.00" fill="#666666">[ULID]</text>
<polygon fill="none" stroke="#000000" points="255.8053,-402.5 255.8053,-432.5 462.8053,-432.5 462.8053,-402.5 255.8053,-402.5"/>
<text text-anchor="start" x="262.8053" y="-413.9" font-family="Arial" font-size="14.00" fill="#000000">name    </text>
<text text-anchor="start" x="332.0185" y="-413.9" font-family="Arial" font-size="14.00" fill="#666666">[TEXT]</text>
<polygon fill="none" stroke="#000000" points="255.8053,-372.5 255.8053,-402.5 462.8053,-402.5 462.8053,-372.5 255.8053,-372.5"/>
<text text-anchor="start" x="262.8053" y="-383.9" font-family="Arial" font-size="14.00" fill="#000000">state    </text>
<text text-anchor="start" x="327.3565" y="-383.9" font-family="Arial" font-size="14.00" fill="#666666">[TEXT]</text>
<polygon fill="none" stroke="#000000" points="255.8053,-342.5 255.8053,-372.5 462.8053,-372.5 462.8053,-342.5 255.8053,-342.5"/>
<text text-anchor="start" x="262.8053" y="-353.9" font-family="Arial" font-size="14.00" fill="#000000">boundary    </text>
<text text-anchor="start" x="355.3663" y="-353.9" font-family="Arial" font-size="14.00" fill="#666666">[TEXT]</text>
<polygon fill="none" stroke="#000000" points="255.8053,-312.5 255.8053,-342.5 462.8053,-342.5 462.8053,-312.5 255.8053,-312.5"/>
<text text-anchor="start" x="262.8053" y="-323.9" font-family="Arial" font-size="14.00" fill="#000000">segmentation    </text>
<text text-anchor="start" x="381.0367" y="-323.9" font-family="Arial" font-size="14.00" fill="#666666">[TEXT]</text>
<polygon fill="none" stroke="#000000" points="255.8053,-282.5 255.8053,-312.5 462.8053,-312.5 462.8053,-282.5 255.8053,-282.5"/>
<text text-anchor="start" x="262.8053" y="-293.9" font-family="Arial" font-size="14.00" fill="#000000">state_sysinfo    </text>
<text text-anchor="start" x="378.7015" y="-293.9" font-family="Arial" font-size="14.00" fill="#666666">[TEXT]</text>
<polygon fill="none" stroke="#000000" points="255.8053,-252.5 255.8053,-282.5 462.8053,-282.5 462.8053,-252.5 255.8053,-252.5"/>
<text text-anchor="start" x="262.8053" y="-263.9" font-family="Arial" font-size="14.00" fill="#000000">elaboration    </text>
<text text-anchor="start" x="366.2527" y="-263.9" font-family="Arial" font-size="14.00" fill="#666666">[TEXT]</text>
<polygon fill="none" stroke="#000000" points="255.8053,-222.5 255.8053,-252.5 462.8053,-252.5 462.8053,-222.5 255.8053,-222.5"/>
<text text-anchor="start" x="262.8053" y="-233.9" font-family="Arial" font-size="14.00" fill="#000000">created_at    </text>
<text text-anchor="start" x="363.1475" y="-233.9" font-family="Arial" font-size="14.00" fill="#666666">[TIMESTAMP]</text>
<polygon fill="none" stroke="#000000" points="255.8053,-192.5 255.8053,-222.5 462.8053,-222.5 462.8053,-192.5 255.8053,-192.5"/>
<text text-anchor="start" x="262.8053" y="-203.9" font-family="Arial" font-size="14.00" fill="#000000">created_by    </text>
<text text-anchor="start" x="366.2569" y="-203.9" font-family="Arial" font-size="14.00" fill="#666666">[TEXT]</text>
<polygon fill="none" stroke="#000000" points="255.8053,-162.5 255.8053,-192.5 462.8053,-192.5 462.8053,-162.5 255.8053,-162.5"/>
<text text-anchor="start" x="262.4596" y="-173.9" font-family="Arial" font-size="14.00" fill="#000000">updated_at    </text>
<text text-anchor="start" x="366.7064" y="-173.9" font-family="Arial" font-size="14.00" fill="#666666">[TIMESTAMP]</text>
<polygon fill="none" stroke="#000000" points="255.8053,-132.5 255.8053,-162.5 462.8053,-162.5 462.8053,-132.5 255.8053,-132.5"/>
<text text-anchor="start" x="262.8053" y="-143.9" font-family="Arial" font-size="14.00" fill="#000000">updated_by    </text>
<text text-anchor="start" x="370.1615" y="-143.9" font-family="Arial" font-size="14.00" fill="#666666">[TEXT]</text>
<polygon fill="none" stroke="#000000" points="255.8053,-102.5 255.8053,-132.5 462.8053,-132.5 462.8053,-102.5 255.8053,-102.5"/>
<text text-anchor="start" x="262.8053" y="-113.9" font-family="Arial" font-size="14.00" fill="#000000">deleted_at    </text>
<text text-anchor="start" x="362.3761" y="-113.9" font-family="Arial" font-size="14.00" fill="#666666">[TIMESTAMP]</text>
<polygon fill="none" stroke="#000000" points="255.8053,-72.5 255.8053,-102.5 462.8053,-102.5 462.8053,-72.5 255.8053,-72.5"/>
<text text-anchor="start" x="262.8053" y="-83.9" font-family="Arial" font-size="14.00" fill="#000000">deleted_by    </text>
<text text-anchor="start" x="365.4855" y="-83.9" font-family="Arial" font-size="14.00" fill="#666666">[TEXT]</text>
<polygon fill="none" stroke="#000000" points="255.8053,-42.5 255.8053,-72.5 462.8053,-72.5 462.8053,-42.5 255.8053,-42.5"/>
<text text-anchor="start" x="262.8053" y="-53.9" font-family="Arial" font-size="14.00" fill="#000000">activity_log    </text>
<text text-anchor="start" x="366.2415" y="-53.9" font-family="Arial" font-size="14.00" fill="#666666">[TEXT]</text>
</g>
<!-- ur_walk_session&#45;&gt;device -->
<g id="edge8" class="edge">
<title>ur_walk_session:device_id&#45;&gt;device:device_id</title>
<path fill="none" stroke="#000000" d="M184.6167,-1543.8464C-47.5848,-1513.6526 15.1082,-447.5 255.8053,-447.5"/>
<polygon fill="#000000" stroke="#000000" points="184.8258,-1543.8597 194.5171,-1548.9908 189.8155,-1544.1798 194.8053,-1544.5 194.8053,-1544.5 194.8053,-1544.5 189.8155,-1544.1798 195.0934,-1540.0092 184.8258,-1543.8597 184.8258,-1543.8597"/>
</g>
<!-- behavior -->
<g id="node6" class="node">
<title>behavior</title>
<polygon fill="#efefef" stroke="transparent" points="243.8053,-1009.5 243.8053,-1044.5 474.8053,-1044.5 474.8053,-1009.5 243.8053,-1009.5"/>
<polygon fill="none" stroke="#000000" points="243.8053,-1009.5 243.8053,-1044.5 474.8053,-1044.5 474.8053,-1009.5 243.8053,-1009.5"/>
<text text-anchor="start" x="288.6311" y="-1022.3" font-family="Arial Bold" font-size="18.00" fill="#000000">behavior</text>
<text text-anchor="start" x="357.6485" y="-1022.3" font-family="Arial" font-size="14.00" fill="#000000">    </text>
<text text-anchor="start" x="391.8533" y="-1022.3" font-family="Arial" font-size="14.00" fill="#666666">[table]</text>
<polygon fill="none" stroke="#000000" points="243.8053,-979.5 243.8053,-1009.5 474.8053,-1009.5 474.8053,-979.5 243.8053,-979.5"/>
<text text-anchor="start" x="250.8053" y="-990.9" font-family="Arial" font-size="14.00" fill="#000000">behavior_id    </text>
<text text-anchor="start" x="357.3621" y="-990.9" font-family="Arial" font-size="14.00" fill="#666666">[ULID]</text>
<polygon fill="none" stroke="#000000" points="243.8053,-949.5 243.8053,-979.5 474.8053,-979.5 474.8053,-949.5 243.8053,-949.5"/>
<text text-anchor="start" x="250.8053" y="-960.9" font-family="Arial" font-size="14.00" fill="#000000">device_id    </text>
<text text-anchor="start" x="344.1363" y="-960.9" font-family="Arial" font-size="14.00" fill="#666666">[ULID]</text>
<polygon fill="none" stroke="#000000" points="243.8053,-919.5 243.8053,-949.5 474.8053,-949.5 474.8053,-919.5 243.8053,-919.5"/>
<text text-anchor="start" x="250.8053" y="-930.9" font-family="Arial" font-size="14.00" fill="#000000">behavior_name    </text>
<text text-anchor="start" x="381.4813" y="-930.9" font-family="Arial" font-size="14.00" fill="#666666">[TEXT]</text>
<polygon fill="none" stroke="#000000" points="243.8053,-889.5 243.8053,-919.5 474.8053,-919.5 474.8053,-889.5 243.8053,-889.5"/>
<text text-anchor="start" x="250.8053" y="-900.9" font-family="Arial" font-size="14.00" fill="#000000">behavior_conf_json    </text>
<text text-anchor="start" x="406.3831" y="-900.9" font-family="Arial" font-size="14.00" fill="#666666">[TEXT]</text>
<polygon fill="none" stroke="#000000" points="243.8053,-859.5 243.8053,-889.5 474.8053,-889.5 474.8053,-859.5 243.8053,-859.5"/>
<text text-anchor="start" x="250.4049" y="-870.9" font-family="Arial" font-size="14.00" fill="#000000">assurance_schema_id    </text>
<text text-anchor="start" x="424.6461" y="-870.9" font-family="Arial" font-size="14.00" fill="#666666">[TEXT]</text>
<polygon fill="none" stroke="#000000" points="243.8053,-829.5 243.8053,-859.5 474.8053,-859.5 474.8053,-829.5 243.8053,-829.5"/>
<text text-anchor="start" x="250.8053" y="-840.9" font-family="Arial" font-size="14.00" fill="#000000">governance    </text>
<text text-anchor="start" x="358.1489" y="-840.9" font-family="Arial" font-size="14.00" fill="#666666">[TEXT]</text>
<polygon fill="none" stroke="#000000" points="243.8053,-799.5 243.8053,-829.5 474.8053,-829.5 474.8053,-799.5 243.8053,-799.5"/>
<text text-anchor="start" x="250.8053" y="-810.9" font-family="Arial" font-size="14.00" fill="#000000">created_at    </text>
<text text-anchor="start" x="351.1475" y="-810.9" font-family="Arial" font-size="14.00" fill="#666666">[TIMESTAMP]</text>
<polygon fill="none" stroke="#000000" points="243.8053,-769.5 243.8053,-799.5 474.8053,-799.5 474.8053,-769.5 243.8053,-769.5"/>
<text text-anchor="start" x="250.8053" y="-780.9" font-family="Arial" font-size="14.00" fill="#000000">created_by    </text>
<text text-anchor="start" x="354.2569" y="-780.9" font-family="Arial" font-size="14.00" fill="#666666">[TEXT]</text>
<polygon fill="none" stroke="#000000" points="243.8053,-739.5 243.8053,-769.5 474.8053,-769.5 474.8053,-739.5 243.8053,-739.5"/>
<text text-anchor="start" x="250.8053" y="-750.9" font-family="Arial" font-size="14.00" fill="#000000">updated_at    </text>
<text text-anchor="start" x="355.0521" y="-750.9" font-family="Arial" font-size="14.00" fill="#666666">[TIMESTAMP]</text>
<polygon fill="none" stroke="#000000" points="243.8053,-709.5 243.8053,-739.5 474.8053,-739.5 474.8053,-709.5 243.8053,-709.5"/>
<text text-anchor="start" x="250.8053" y="-720.9" font-family="Arial" font-size="14.00" fill="#000000">updated_by    </text>
<text text-anchor="start" x="358.1615" y="-720.9" font-family="Arial" font-size="14.00" fill="#666666">[TEXT]</text>
<polygon fill="none" stroke="#000000" points="243.8053,-679.5 243.8053,-709.5 474.8053,-709.5 474.8053,-679.5 243.8053,-679.5"/>
<text text-anchor="start" x="250.8053" y="-690.9" font-family="Arial" font-size="14.00" fill="#000000">deleted_at    </text>
<text text-anchor="start" x="350.3761" y="-690.9" font-family="Arial" font-size="14.00" fill="#666666">[TIMESTAMP]</text>
<polygon fill="none" stroke="#000000" points="243.8053,-649.5 243.8053,-679.5 474.8053,-679.5 474.8053,-649.5 243.8053,-649.5"/>
<text text-anchor="start" x="250.8053" y="-660.9" font-family="Arial" font-size="14.00" fill="#000000">deleted_by    </text>
<text text-anchor="start" x="353.4855" y="-660.9" font-family="Arial" font-size="14.00" fill="#666666">[TEXT]</text>
<polygon fill="none" stroke="#000000" points="243.8053,-619.5 243.8053,-649.5 474.8053,-649.5 474.8053,-619.5 243.8053,-619.5"/>
<text text-anchor="start" x="250.8053" y="-630.9" font-family="Arial" font-size="14.00" fill="#000000">activity_log    </text>
<text text-anchor="start" x="354.2415" y="-630.9" font-family="Arial" font-size="14.00" fill="#666666">[TEXT]</text>
</g>
<!-- ur_walk_session&#45;&gt;behavior -->
<g id="edge10" class="edge">
<title>ur_walk_session:behavior_id&#45;&gt;behavior:behavior_id</title>
<path fill="none" stroke="#000000" d="M424.1846,-1514.1807C584.7053,-1504.0646 520.8375,-1256.0714 413.8053,-1124 365.1794,-1063.9986 292.4311,-1148.0014 243.8053,-1088 217.6413,-1055.7152 202.2497,-994.5 243.8053,-994.5"/>
<polygon fill="#000000" stroke="#000000" points="423.8005,-1514.1924 413.6669,-1510.0021 418.8029,-1514.3462 413.8053,-1514.5 413.8053,-1514.5 413.8053,-1514.5 418.8029,-1514.3462 413.9437,-1518.9979 423.8005,-1514.1924 423.8005,-1514.1924"/>
</g>
<!-- ur_walk_session_path -->
<g id="node2" class="node">
<title>ur_walk_session_path</title>
<polygon fill="#efefef" stroke="transparent" points="172.8053,-2079.5 172.8053,-2114.5 436.8053,-2114.5 436.8053,-2079.5 172.8053,-2079.5"/>
<polygon fill="none" stroke="#000000" points="172.8053,-2079.5 172.8053,-2114.5 436.8053,-2114.5 436.8053,-2079.5 172.8053,-2079.5"/>
<text text-anchor="start" x="179.6172" y="-2092.3" font-family="Arial Bold" font-size="18.00" fill="#000000">ur_walk_session_path</text>
<text text-anchor="start" x="357.6624" y="-2092.3" font-family="Arial" font-size="14.00" fill="#000000">    </text>
<text text-anchor="start" x="391.8672" y="-2092.3" font-family="Arial" font-size="14.00" fill="#666666">[table]</text>
<polygon fill="none" stroke="#000000" points="172.8053,-2049.5 172.8053,-2079.5 436.8053,-2079.5 436.8053,-2049.5 172.8053,-2049.5"/>
<text text-anchor="start" x="179.8053" y="-2060.9" font-family="Arial" font-size="14.00" fill="#000000">ur_walk_session_path_id    </text>
<text text-anchor="start" x="371.1615" y="-2060.9" font-family="Arial" font-size="14.00" fill="#666666">[ULID]</text>
<polygon fill="none" stroke="#000000" points="172.8053,-2019.5 172.8053,-2049.5 436.8053,-2049.5 436.8053,-2019.5 172.8053,-2019.5"/>
<text text-anchor="start" x="179.8053" y="-2030.9" font-family="Arial" font-size="14.00" fill="#000000">walk_session_id    </text>
<text text-anchor="start" x="315.9147" y="-2030.9" font-family="Arial" font-size="14.00" fill="#666666">[ULID]</text>
<polygon fill="none" stroke="#000000" points="172.8053,-1989.5 172.8053,-2019.5 436.8053,-2019.5 436.8053,-1989.5 172.8053,-1989.5"/>
<text text-anchor="start" x="179.8053" y="-2000.9" font-family="Arial" font-size="14.00" fill="#000000">root_path    </text>
<text text-anchor="start" x="273.1475" y="-2000.9" font-family="Arial" font-size="14.00" fill="#666666">[TEXT]</text>
<polygon fill="none" stroke="#000000" points="172.8053,-1959.5 172.8053,-1989.5 436.8053,-1989.5 436.8053,-1959.5 172.8053,-1959.5"/>
<text text-anchor="start" x="179.8053" y="-1970.9" font-family="Arial" font-size="14.00" fill="#000000">elaboration    </text>
<text text-anchor="start" x="283.2527" y="-1970.9" font-family="Arial" font-size="14.00" fill="#666666">[TEXT]</text>
<polygon fill="none" stroke="#000000" points="172.8053,-1929.5 172.8053,-1959.5 436.8053,-1959.5 436.8053,-1929.5 172.8053,-1929.5"/>
<text text-anchor="start" x="179.8053" y="-1940.9" font-family="Arial" font-size="14.00" fill="#000000">created_at    </text>
<text text-anchor="start" x="280.1475" y="-1940.9" font-family="Arial" font-size="14.00" fill="#666666">[TIMESTAMP]</text>
<polygon fill="none" stroke="#000000" points="172.8053,-1899.5 172.8053,-1929.5 436.8053,-1929.5 436.8053,-1899.5 172.8053,-1899.5"/>
<text text-anchor="start" x="179.8053" y="-1910.9" font-family="Arial" font-size="14.00" fill="#000000">created_by    </text>
<text text-anchor="start" x="283.2569" y="-1910.9" font-family="Arial" font-size="14.00" fill="#666666">[TEXT]</text>
<polygon fill="none" stroke="#000000" points="172.8053,-1869.5 172.8053,-1899.5 436.8053,-1899.5 436.8053,-1869.5 172.8053,-1869.5"/>
<text text-anchor="start" x="179.8053" y="-1880.9" font-family="Arial" font-size="14.00" fill="#000000">updated_at    </text>
<text text-anchor="start" x="284.0521" y="-1880.9" font-family="Arial" font-size="14.00" fill="#666666">[TIMESTAMP]</text>
<polygon fill="none" stroke="#000000" points="172.8053,-1839.5 172.8053,-1869.5 436.8053,-1869.5 436.8053,-1839.5 172.8053,-1839.5"/>
<text text-anchor="start" x="179.8053" y="-1850.9" font-family="Arial" font-size="14.00" fill="#000000">updated_by    </text>
<text text-anchor="start" x="287.1615" y="-1850.9" font-family="Arial" font-size="14.00" fill="#666666">[TEXT]</text>
<polygon fill="none" stroke="#000000" points="172.8053,-1809.5 172.8053,-1839.5 436.8053,-1839.5 436.8053,-1809.5 172.8053,-1809.5"/>
<text text-anchor="start" x="179.8053" y="-1820.9" font-family="Arial" font-size="14.00" fill="#000000">deleted_at    </text>
<text text-anchor="start" x="279.3761" y="-1820.9" font-family="Arial" font-size="14.00" fill="#666666">[TIMESTAMP]</text>
<polygon fill="none" stroke="#000000" points="172.8053,-1779.5 172.8053,-1809.5 436.8053,-1809.5 436.8053,-1779.5 172.8053,-1779.5"/>
<text text-anchor="start" x="179.8053" y="-1790.9" font-family="Arial" font-size="14.00" fill="#000000">deleted_by    </text>
<text text-anchor="start" x="282.4855" y="-1790.9" font-family="Arial" font-size="14.00" fill="#666666">[TEXT]</text>
<polygon fill="none" stroke="#000000" points="172.8053,-1749.5 172.8053,-1779.5 436.8053,-1779.5 436.8053,-1749.5 172.8053,-1749.5"/>
<text text-anchor="start" x="179.8053" y="-1760.9" font-family="Arial" font-size="14.00" fill="#000000">activity_log    </text>
<text text-anchor="start" x="283.2415" y="-1760.9" font-family="Arial" font-size="14.00" fill="#666666">[TEXT]</text>
</g>
<!-- ur_walk_session_path&#45;&gt;ur_walk_session -->
<g id="edge1" class="edge">
<title>ur_walk_session_path:walk_session_id&#45;&gt;ur_walk_session:ur_walk_session_id</title>
<path fill="none" stroke="#000000" d="M162.8369,-2032.6089C102.5482,-2008.4195 127.6166,-1759.4402 172.8053,-1707 243.5018,-1624.9586 343.1088,-1753.0414 413.8053,-1671 441.8026,-1638.5099 456.6942,-1574.5 413.8053,-1574.5"/>
<polygon fill="#000000" stroke="#000000" points="162.9805,-2032.636 171.9665,-2038.9211 167.8929,-2033.568 172.8053,-2034.5 172.8053,-2034.5 172.8053,-2034.5 167.8929,-2033.568 173.6441,-2030.0789 162.9805,-2032.636 162.9805,-2032.636"/>
</g>
<!-- uniform_resource -->
<g id="node3" class="node">
<title>uniform_resource</title>
<polygon fill="#efefef" stroke="transparent" points="382.8053,-2836.5 382.8053,-2871.5 616.8053,-2871.5 616.8053,-2836.5 382.8053,-2836.5"/>
<polygon fill="none" stroke="#000000" points="382.8053,-2836.5 382.8053,-2871.5 616.8053,-2871.5 616.8053,-2836.5 382.8053,-2836.5"/>
<text text-anchor="start" x="393.6324" y="-2849.3" font-family="Arial Bold" font-size="18.00" fill="#000000">uniform_resource</text>
<text text-anchor="start" x="533.6472" y="-2849.3" font-family="Arial" font-size="14.00" fill="#000000">    </text>
<text text-anchor="start" x="567.852" y="-2849.3" font-family="Arial" font-size="14.00" fill="#666666">[table]</text>
<polygon fill="none" stroke="#000000" points="382.8053,-2806.5 382.8053,-2836.5 616.8053,-2836.5 616.8053,-2806.5 382.8053,-2806.5"/>
<text text-anchor="start" x="389.8053" y="-2817.9" font-family="Arial" font-size="14.00" fill="#000000">uniform_resource_id    </text>
<text text-anchor="start" x="551.5823" y="-2817.9" font-family="Arial" font-size="14.00" fill="#666666">[ULID]</text>
<polygon fill="none" stroke="#000000" points="382.8053,-2776.5 382.8053,-2806.5 616.8053,-2806.5 616.8053,-2776.5 382.8053,-2776.5"/>
<text text-anchor="start" x="389.8053" y="-2787.9" font-family="Arial" font-size="14.00" fill="#000000">device_id    </text>
<text text-anchor="start" x="483.1363" y="-2787.9" font-family="Arial" font-size="14.00" fill="#666666">[ULID]</text>
<polygon fill="none" stroke="#000000" points="382.8053,-2746.5 382.8053,-2776.5 616.8053,-2776.5 616.8053,-2746.5 382.8053,-2746.5"/>
<text text-anchor="start" x="389.8053" y="-2757.9" font-family="Arial" font-size="14.00" fill="#000000">walk_session_id    </text>
<text text-anchor="start" x="525.9147" y="-2757.9" font-family="Arial" font-size="14.00" fill="#666666">[ULID]</text>
<polygon fill="none" stroke="#000000" points="382.8053,-2716.5 382.8053,-2746.5 616.8053,-2746.5 616.8053,-2716.5 382.8053,-2716.5"/>
<text text-anchor="start" x="389.8053" y="-2727.9" font-family="Arial" font-size="14.00" fill="#000000">walk_path_id    </text>
<text text-anchor="start" x="505.6987" y="-2727.9" font-family="Arial" font-size="14.00" fill="#666666">[ULID]</text>
<polygon fill="none" stroke="#000000" points="382.8053,-2686.5 382.8053,-2716.5 616.8053,-2716.5 616.8053,-2686.5 382.8053,-2686.5"/>
<text text-anchor="start" x="389.8053" y="-2697.9" font-family="Arial" font-size="14.00" fill="#000000">uri    </text>
<text text-anchor="start" x="439.5599" y="-2697.9" font-family="Arial" font-size="14.00" fill="#666666">[TEXT]</text>
<polygon fill="none" stroke="#000000" points="382.8053,-2656.5 382.8053,-2686.5 616.8053,-2686.5 616.8053,-2656.5 382.8053,-2656.5"/>
<text text-anchor="start" x="389.8053" y="-2667.9" font-family="Arial" font-size="14.00" fill="#000000">content_digest    </text>
<text text-anchor="start" x="515.0493" y="-2667.9" font-family="Arial" font-size="14.00" fill="#666666">[TEXT]</text>
<polygon fill="none" stroke="#000000" points="382.8053,-2626.5 382.8053,-2656.5 616.8053,-2656.5 616.8053,-2626.5 382.8053,-2626.5"/>
<text text-anchor="start" x="389.8053" y="-2637.9" font-family="Arial" font-size="14.00" fill="#000000">content    </text>
<text text-anchor="start" x="469.9217" y="-2637.9" font-family="Arial" font-size="14.00" fill="#666666">[BLOB]</text>
<polygon fill="none" stroke="#000000" points="382.8053,-2596.5 382.8053,-2626.5 616.8053,-2626.5 616.8053,-2596.5 382.8053,-2596.5"/>
<text text-anchor="start" x="389.8053" y="-2607.9" font-family="Arial" font-size="14.00" fill="#000000">nature    </text>
<text text-anchor="start" x="463.6917" y="-2607.9" font-family="Arial" font-size="14.00" fill="#666666">[TEXT]</text>
<polygon fill="none" stroke="#000000" points="382.8053,-2566.5 382.8053,-2596.5 616.8053,-2596.5 616.8053,-2566.5 382.8053,-2566.5"/>
<text text-anchor="start" x="389.8053" y="-2577.9" font-family="Arial" font-size="14.00" fill="#000000">size_bytes    </text>
<text text-anchor="start" x="490.1377" y="-2577.9" font-family="Arial" font-size="14.00" fill="#666666">[INTEGER]</text>
<polygon fill="none" stroke="#000000" points="382.8053,-2536.5 382.8053,-2566.5 616.8053,-2566.5 616.8053,-2536.5 382.8053,-2536.5"/>
<text text-anchor="start" x="389.8053" y="-2547.9" font-family="Arial" font-size="14.00" fill="#000000">last_modified_at    </text>
<text text-anchor="start" x="525.9231" y="-2547.9" font-family="Arial" font-size="14.00" fill="#666666">[INTEGER]</text>
<polygon fill="none" stroke="#000000" points="382.8053,-2506.5 382.8053,-2536.5 616.8053,-2536.5 616.8053,-2506.5 382.8053,-2506.5"/>
<text text-anchor="start" x="389.7317" y="-2517.9" font-family="Arial" font-size="14.00" fill="#000000">content_fm_body_attrs    </text>
<text text-anchor="start" x="566.3193" y="-2517.9" font-family="Arial" font-size="14.00" fill="#666666">[TEXT]</text>
<polygon fill="none" stroke="#000000" points="382.8053,-2476.5 382.8053,-2506.5 616.8053,-2506.5 616.8053,-2476.5 382.8053,-2476.5"/>
<text text-anchor="start" x="389.8053" y="-2487.9" font-family="Arial" font-size="14.00" fill="#000000">frontmatter    </text>
<text text-anchor="start" x="491.6847" y="-2487.9" font-family="Arial" font-size="14.00" fill="#666666">[TEXT]</text>
<polygon fill="none" stroke="#000000" points="382.8053,-2446.5 382.8053,-2476.5 616.8053,-2476.5 616.8053,-2446.5 382.8053,-2446.5"/>
<text text-anchor="start" x="389.8053" y="-2457.9" font-family="Arial" font-size="14.00" fill="#000000">elaboration    </text>
<text text-anchor="start" x="493.2527" y="-2457.9" font-family="Arial" font-size="14.00" fill="#666666">[TEXT]</text>
<polygon fill="none" stroke="#000000" points="382.8053,-2416.5 382.8053,-2446.5 616.8053,-2446.5 616.8053,-2416.5 382.8053,-2416.5"/>
<text text-anchor="start" x="389.8053" y="-2427.9" font-family="Arial" font-size="14.00" fill="#000000">created_at    </text>
<text text-anchor="start" x="490.1475" y="-2427.9" font-family="Arial" font-size="14.00" fill="#666666">[TIMESTAMP]</text>
<polygon fill="none" stroke="#000000" points="382.8053,-2386.5 382.8053,-2416.5 616.8053,-2416.5 616.8053,-2386.5 382.8053,-2386.5"/>
<text text-anchor="start" x="389.8053" y="-2397.9" font-family="Arial" font-size="14.00" fill="#000000">created_by    </text>
<text text-anchor="start" x="493.2569" y="-2397.9" font-family="Arial" font-size="14.00" fill="#666666">[TEXT]</text>
<polygon fill="none" stroke="#000000" points="382.8053,-2356.5 382.8053,-2386.5 616.8053,-2386.5 616.8053,-2356.5 382.8053,-2356.5"/>
<text text-anchor="start" x="389.8053" y="-2367.9" font-family="Arial" font-size="14.00" fill="#000000">updated_at    </text>
<text text-anchor="start" x="494.0521" y="-2367.9" font-family="Arial" font-size="14.00" fill="#666666">[TIMESTAMP]</text>
<polygon fill="none" stroke="#000000" points="382.8053,-2326.5 382.8053,-2356.5 616.8053,-2356.5 616.8053,-2326.5 382.8053,-2326.5"/>
<text text-anchor="start" x="389.8053" y="-2337.9" font-family="Arial" font-size="14.00" fill="#000000">updated_by    </text>
<text text-anchor="start" x="497.1615" y="-2337.9" font-family="Arial" font-size="14.00" fill="#666666">[TEXT]</text>
<polygon fill="none" stroke="#000000" points="382.8053,-2296.5 382.8053,-2326.5 616.8053,-2326.5 616.8053,-2296.5 382.8053,-2296.5"/>
<text text-anchor="start" x="389.8053" y="-2307.9" font-family="Arial" font-size="14.00" fill="#000000">deleted_at    </text>
<text text-anchor="start" x="489.3761" y="-2307.9" font-family="Arial" font-size="14.00" fill="#666666">[TIMESTAMP]</text>
<polygon fill="none" stroke="#000000" points="382.8053,-2266.5 382.8053,-2296.5 616.8053,-2296.5 616.8053,-2266.5 382.8053,-2266.5"/>
<text text-anchor="start" x="389.8053" y="-2277.9" font-family="Arial" font-size="14.00" fill="#000000">deleted_by    </text>
<text text-anchor="start" x="492.4855" y="-2277.9" font-family="Arial" font-size="14.00" fill="#666666">[TEXT]</text>
<polygon fill="none" stroke="#000000" points="382.8053,-2236.5 382.8053,-2266.5 616.8053,-2266.5 616.8053,-2236.5 382.8053,-2236.5"/>
<text text-anchor="start" x="389.8053" y="-2247.9" font-family="Arial" font-size="14.00" fill="#000000">activity_log    </text>
<text text-anchor="start" x="493.2415" y="-2247.9" font-family="Arial" font-size="14.00" fill="#666666">[TEXT]</text>
</g>
<!-- uniform_resource&#45;&gt;ur_walk_session -->
<g id="edge4" class="edge">
<title>uniform_resource:walk_session_id&#45;&gt;ur_walk_session:ur_walk_session_id</title>
<path fill="none" stroke="#000000" d="M627.0843,-2760.4061C739.7077,-2735.5978 684.4804,-2296.1569 616.8053,-2194 594.1476,-2159.7978 556.0623,-2191.0871 531.8053,-2158 472.2797,-2076.8058 519.044,-1803.0282 488.8053,-1707 468.4808,-1642.456 481.4737,-1574.5 413.8053,-1574.5"/>
<polygon fill="#000000" stroke="#000000" points="626.7491,-2760.4417 616.329,-2757.0253 621.7772,-2760.9708 616.8053,-2761.5 616.8053,-2761.5 616.8053,-2761.5 621.7772,-2760.9708 617.2815,-2765.9747 626.7491,-2760.4417 626.7491,-2760.4417"/>
</g>
<!-- uniform_resource&#45;&gt;ur_walk_session_path -->
<g id="edge2" class="edge">
<title>uniform_resource:walk_path_id&#45;&gt;ur_walk_session_path:ur_walk_session_path_id</title>
<path fill="none" stroke="#000000" d="M373.5183,-2727.0003C326.6454,-2677.9627 356.221,-2243.6731 382.8053,-2194 396.4157,-2168.5686 423.1948,-2183.4314 436.8053,-2158 456.4136,-2121.3615 478.3608,-2064.5 436.8053,-2064.5"/>
<polygon fill="#000000" stroke="#000000" points="373.806,-2727.1396 380.8431,-2735.5497 378.3056,-2729.3198 382.8053,-2731.5 382.8053,-2731.5 382.8053,-2731.5 378.3056,-2729.3198 384.7675,-2727.4503 373.806,-2727.1396 373.806,-2727.1396"/>
</g>
<!-- uniform_resource&#45;&gt;device -->
<g id="edge6" class="edge">
<title>uniform_resource:device_id&#45;&gt;device:device_id</title>
<path fill="none" stroke="#000000" d="M627.0369,-2791.3278C875.5971,-2782.7564 624.0896,-2455.9533 616.8053,-2194 605.9751,-1804.5336 852.4223,-447.5 462.8053,-447.5"/>
<polygon fill="#000000" stroke="#000000" points="626.8039,-2791.3316 616.7295,-2787.0006 621.8046,-2791.4158 616.8053,-2791.5 616.8053,-2791.5 616.8053,-2791.5 621.8046,-2791.4158 616.8811,-2795.9994 626.8039,-2791.3316 626.8039,-2791.3316"/>
</g>
<!-- ur_walk_session_path_fs_entry -->
<g id="node4" class="node">
<title>ur_walk_session_path_fs_entry</title>
<polygon fill="#efefef" stroke="transparent" points="135.8053,-3563.5 135.8053,-3598.5 473.8053,-3598.5 473.8053,-3563.5 135.8053,-3563.5"/>
<polygon fill="none" stroke="#000000" points="135.8053,-3563.5 135.8053,-3598.5 473.8053,-3598.5 473.8053,-3563.5 135.8053,-3563.5"/>
<text text-anchor="start" x="142.6065" y="-3576.3" font-family="Arial Bold" font-size="18.00" fill="#000000">ur_walk_session_path_fs_entry</text>
<text text-anchor="start" x="394.6731" y="-3576.3" font-family="Arial" font-size="14.00" fill="#000000">    </text>
<text text-anchor="start" x="428.8779" y="-3576.3" font-family="Arial" font-size="14.00" fill="#666666">[table]</text>
<polygon fill="none" stroke="#000000" points="135.8053,-3533.5 135.8053,-3563.5 473.8053,-3563.5 473.8053,-3533.5 135.8053,-3533.5"/>
<text text-anchor="start" x="142.8053" y="-3544.9" font-family="Arial" font-size="14.00" fill="#000000">ur_walk_session_path_fs_entry_id    </text>
<text text-anchor="start" x="391.7337" y="-3544.9" font-family="Arial" font-size="14.00" fill="#666666">[ULID]</text>
<polygon fill="none" stroke="#000000" points="135.8053,-3503.5 135.8053,-3533.5 473.8053,-3533.5 473.8053,-3503.5 135.8053,-3503.5"/>
<text text-anchor="start" x="142.8053" y="-3514.9" font-family="Arial" font-size="14.00" fill="#000000">walk_session_id    </text>
<text text-anchor="start" x="278.9147" y="-3514.9" font-family="Arial" font-size="14.00" fill="#666666">[ULID]</text>
<polygon fill="none" stroke="#000000" points="135.8053,-3473.5 135.8053,-3503.5 473.8053,-3503.5 473.8053,-3473.5 135.8053,-3473.5"/>
<text text-anchor="start" x="142.8053" y="-3484.9" font-family="Arial" font-size="14.00" fill="#000000">walk_path_id    </text>
<text text-anchor="start" x="258.6987" y="-3484.9" font-family="Arial" font-size="14.00" fill="#666666">[ULID]</text>
<polygon fill="none" stroke="#000000" points="135.8053,-3443.5 135.8053,-3473.5 473.8053,-3473.5 473.8053,-3443.5 135.8053,-3443.5"/>
<text text-anchor="start" x="142.8053" y="-3454.9" font-family="Arial" font-size="14.00" fill="#000000">uniform_resource_id    </text>
<text text-anchor="start" x="304.5823" y="-3454.9" font-family="Arial" font-size="14.00" fill="#666666">[ULID]</text>
<polygon fill="none" stroke="#000000" points="135.8053,-3413.5 135.8053,-3443.5 473.8053,-3443.5 473.8053,-3413.5 135.8053,-3413.5"/>
<text text-anchor="start" x="142.8053" y="-3424.9" font-family="Arial" font-size="14.00" fill="#000000">file_path_abs    </text>
<text text-anchor="start" x="260.2653" y="-3424.9" font-family="Arial" font-size="14.00" fill="#666666">[TEXT]</text>
<polygon fill="none" stroke="#000000" points="135.8053,-3383.5 135.8053,-3413.5 473.8053,-3413.5 473.8053,-3383.5 135.8053,-3383.5"/>
<text text-anchor="start" x="142.8053" y="-3394.9" font-family="Arial" font-size="14.00" fill="#000000">file_path_rel_parent    </text>
<text text-anchor="start" x="300.7141" y="-3394.9" font-family="Arial" font-size="14.00" fill="#666666">[TEXT]</text>
<polygon fill="none" stroke="#000000" points="135.8053,-3353.5 135.8053,-3383.5 473.8053,-3383.5 473.8053,-3353.5 135.8053,-3353.5"/>
<text text-anchor="start" x="142.8053" y="-3364.9" font-family="Arial" font-size="14.00" fill="#000000">file_path_rel    </text>
<text text-anchor="start" x="253.2499" y="-3364.9" font-family="Arial" font-size="14.00" fill="#666666">[TEXT]</text>
<polygon fill="none" stroke="#000000" points="135.8053,-3323.5 135.8053,-3353.5 473.8053,-3353.5 473.8053,-3323.5 135.8053,-3323.5"/>
<text text-anchor="start" x="142.8053" y="-3334.9" font-family="Arial" font-size="14.00" fill="#000000">file_basename    </text>
<text text-anchor="start" x="268.0353" y="-3334.9" font-family="Arial" font-size="14.00" fill="#666666">[TEXT]</text>
<polygon fill="none" stroke="#000000" points="135.8053,-3293.5 135.8053,-3323.5 473.8053,-3323.5 473.8053,-3293.5 135.8053,-3293.5"/>
<text text-anchor="start" x="142.8053" y="-3304.9" font-family="Arial" font-size="14.00" fill="#000000">file_extn    </text>
<text text-anchor="start" x="229.1349" y="-3304.9" font-family="Arial" font-size="14.00" fill="#666666">[TEXT]</text>
<polygon fill="none" stroke="#000000" points="135.8053,-3263.5 135.8053,-3293.5 473.8053,-3293.5 473.8053,-3263.5 135.8053,-3263.5"/>
<text text-anchor="start" x="142.8053" y="-3274.9" font-family="Arial" font-size="14.00" fill="#000000">ur_status    </text>
<text text-anchor="start" x="234.5823" y="-3274.9" font-family="Arial" font-size="14.00" fill="#666666">[TEXT]</text>
<polygon fill="none" stroke="#000000" points="135.8053,-3233.5 135.8053,-3263.5 473.8053,-3263.5 473.8053,-3233.5 135.8053,-3233.5"/>
<text text-anchor="start" x="142.8053" y="-3244.9" font-family="Arial" font-size="14.00" fill="#000000">ur_diagnostics    </text>
<text text-anchor="start" x="267.2527" y="-3244.9" font-family="Arial" font-size="14.00" fill="#666666">[TEXT]</text>
<polygon fill="none" stroke="#000000" points="135.8053,-3203.5 135.8053,-3233.5 473.8053,-3233.5 473.8053,-3203.5 135.8053,-3203.5"/>
<text text-anchor="start" x="142.8053" y="-3214.9" font-family="Arial" font-size="14.00" fill="#000000">elaboration    </text>
<text text-anchor="start" x="246.2527" y="-3214.9" font-family="Arial" font-size="14.00" fill="#666666">[TEXT]</text>
<polygon fill="none" stroke="#000000" points="135.8053,-3173.5 135.8053,-3203.5 473.8053,-3203.5 473.8053,-3173.5 135.8053,-3173.5"/>
<text text-anchor="start" x="142.8053" y="-3184.9" font-family="Arial" font-size="14.00" fill="#000000">created_at    </text>
<text text-anchor="start" x="243.1475" y="-3184.9" font-family="Arial" font-size="14.00" fill="#666666">[TIMESTAMP]</text>
<polygon fill="none" stroke="#000000" points="135.8053,-3143.5 135.8053,-3173.5 473.8053,-3173.5 473.8053,-3143.5 135.8053,-3143.5"/>
<text text-anchor="start" x="142.8053" y="-3154.9" font-family="Arial" font-size="14.00" fill="#000000">created_by    </text>
<text text-anchor="start" x="246.2569" y="-3154.9" font-family="Arial" font-size="14.00" fill="#666666">[TEXT]</text>
<polygon fill="none" stroke="#000000" points="135.8053,-3113.5 135.8053,-3143.5 473.8053,-3143.5 473.8053,-3113.5 135.8053,-3113.5"/>
<text text-anchor="start" x="142.8053" y="-3124.9" font-family="Arial" font-size="14.00" fill="#000000">updated_at    </text>
<text text-anchor="start" x="247.0521" y="-3124.9" font-family="Arial" font-size="14.00" fill="#666666">[TIMESTAMP]</text>
<polygon fill="none" stroke="#000000" points="135.8053,-3083.5 135.8053,-3113.5 473.8053,-3113.5 473.8053,-3083.5 135.8053,-3083.5"/>
<text text-anchor="start" x="142.8053" y="-3094.9" font-family="Arial" font-size="14.00" fill="#000000">updated_by    </text>
<text text-anchor="start" x="250.1615" y="-3094.9" font-family="Arial" font-size="14.00" fill="#666666">[TEXT]</text>
<polygon fill="none" stroke="#000000" points="135.8053,-3053.5 135.8053,-3083.5 473.8053,-3083.5 473.8053,-3053.5 135.8053,-3053.5"/>
<text text-anchor="start" x="142.8053" y="-3064.9" font-family="Arial" font-size="14.00" fill="#000000">deleted_at    </text>
<text text-anchor="start" x="242.3761" y="-3064.9" font-family="Arial" font-size="14.00" fill="#666666">[TIMESTAMP]</text>
<polygon fill="none" stroke="#000000" points="135.8053,-3023.5 135.8053,-3053.5 473.8053,-3053.5 473.8053,-3023.5 135.8053,-3023.5"/>
<text text-anchor="start" x="142.8053" y="-3034.9" font-family="Arial" font-size="14.00" fill="#000000">deleted_by    </text>
<text text-anchor="start" x="245.4855" y="-3034.9" font-family="Arial" font-size="14.00" fill="#666666">[TEXT]</text>
<polygon fill="none" stroke="#000000" points="135.8053,-2993.5 135.8053,-3023.5 473.8053,-3023.5 473.8053,-2993.5 135.8053,-2993.5"/>
<text text-anchor="start" x="142.8053" y="-3004.9" font-family="Arial" font-size="14.00" fill="#000000">activity_log    </text>
<text text-anchor="start" x="246.2415" y="-3004.9" font-family="Arial" font-size="14.00" fill="#666666">[TEXT]</text>
</g>
<!-- ur_walk_session_path_fs_entry&#45;&gt;ur_walk_session -->
<g id="edge7" class="edge">
<title>ur_walk_session_path_fs_entry:walk_session_id&#45;&gt;ur_walk_session:ur_walk_session_id</title>
<path fill="none" stroke="#000000" d="M125.8767,-3517.091C-78.4121,-3458.2246 -17.9176,-1574.5 194.8053,-1574.5"/>
<polygon fill="#000000" stroke="#000000" points="125.9045,-3517.0949 135.173,-3522.9554 130.8549,-3517.7974 135.8053,-3518.5 135.8053,-3518.5 135.8053,-3518.5 130.8549,-3517.7974 136.4376,-3514.0446 125.9045,-3517.0949 125.9045,-3517.0949"/>
</g>
<!-- ur_walk_session_path_fs_entry&#45;&gt;ur_walk_session_path -->
<g id="edge3" class="edge">
<title>ur_walk_session_path_fs_entry:walk_path_id&#45;&gt;ur_walk_session_path:ur_walk_session_path_id</title>
<path fill="none" stroke="#000000" d="M484.0912,-3488.2769C709.9862,-3478.3074 618.5142,-3136.6544 473.8053,-2951 433.5145,-2899.309 371.096,-2966.691 330.8053,-2915 133.8076,-2662.2619 144.1732,-2454.4863 330.8053,-2194 359.7828,-2153.5555 407.8278,-2198.4445 436.8053,-2158 461.0079,-2124.2199 478.3608,-2064.5 436.8053,-2064.5"/>
<polygon fill="#000000" stroke="#000000" points="483.8029,-3488.283 473.7076,-3484.0011 478.8041,-3488.3915 473.8053,-3488.5 473.8053,-3488.5 473.8053,-3488.5 478.8041,-3488.3915 473.9029,-3492.9989 483.8029,-3488.283 483.8029,-3488.283"/>
</g>
<!-- ur_walk_session_path_fs_entry&#45;&gt;uniform_resource -->
<g id="edge5" class="edge">
<title>ur_walk_session_path_fs_entry:uniform_resource_id&#45;&gt;uniform_resource:uniform_resource_id</title>
<path fill="none" stroke="#000000" d="M483.8259,-3458.281C696.365,-3448.8141 598.693,-3134.7114 473.8053,-2951 449.3528,-2915.0301 407.2577,-2950.9699 382.8053,-2915 359.4428,-2880.6335 341.2497,-2821.5 382.8053,-2821.5"/>
<polygon fill="#000000" stroke="#000000" points="483.8029,-3458.2814 473.7069,-3454.0011 478.8041,-3458.3907 473.8053,-3458.5 473.8053,-3458.5 473.8053,-3458.5 478.8041,-3458.3907 473.9037,-3462.9989 483.8029,-3458.2814 483.8029,-3458.2814"/>
</g>
<!-- behavior&#45;&gt;device -->
<g id="edge9" class="edge">
<title>behavior:device_id&#45;&gt;device:device_id</title>
<path fill="none" stroke="#000000" d="M234.7057,-959.712C187.8506,-907.5922 201.5999,-447.5 255.8053,-447.5"/>
<polygon fill="#000000" stroke="#000000" points="234.9556,-959.8434 241.7098,-968.4824 239.3804,-962.1717 243.8053,-964.5 243.8053,-964.5 243.8053,-964.5 239.3804,-962.1717 245.9007,-960.5176 234.9556,-959.8434 234.9556,-959.8434"/>
</g>
</g>
</svg>
