<?xml version="1.0" encoding="UTF-8" standalone="no"?>
<!DOCTYPE svg PUBLIC "-//W3C//DTD SVG 1.1//EN"
 "http://www.w3.org/Graphics/SVG/1.1/DTD/svg11.dtd">
<!-- Generated by graphviz version 2.40.1 (20161225.0304)
 -->
<!-- Title: ur_walk_session_path Pages: 1 -->
<svg width="905pt" height="3163pt"
 viewBox="0.00 0.00 904.67 3163.00" xmlns="http://www.w3.org/2000/svg" xmlns:xlink="http://www.w3.org/1999/xlink">
<g id="graph0" class="graph" transform="scale(1 1) rotate(0) translate(4 3159)">
<title>ur_walk_session_path</title>
<polygon fill="#ffffff" stroke="transparent" points="-4,4 -4,-3159 900.6733,-3159 900.6733,4 -4,4"/>
<!-- ur_walk_session_path -->
<g id="node1" class="node">
<title>ur_walk_session_path</title>
<polygon fill="#efefef" stroke="transparent" points="351,-1529.5 351,-1564.5 615,-1564.5 615,-1529.5 351,-1529.5"/>
<polygon fill="none" stroke="#000000" points="351,-1529.5 351,-1564.5 615,-1564.5 615,-1529.5 351,-1529.5"/>
<text text-anchor="start" x="357.8119" y="-1542.3" font-family="Arial Bold" font-size="18.00" fill="#000000">ur_walk_session_path</text>
<text text-anchor="start" x="535.8571" y="-1542.3" font-family="Arial" font-size="14.00" fill="#000000">    </text>
<text text-anchor="start" x="570.0619" y="-1542.3" font-family="Arial" font-size="14.00" fill="#666666">[table]</text>
<polygon fill="none" stroke="#000000" points="351,-1499.5 351,-1529.5 615,-1529.5 615,-1499.5 351,-1499.5"/>
<text text-anchor="start" x="358" y="-1510.9" font-family="Arial" font-size="14.00" fill="#000000">ur_walk_session_path_id </text>
<text text-anchor="start" x="519.042" y="-1510.9" font-family="Arial" font-size="14.00" fill="#666666">[ULID]</text>
<polygon fill="none" stroke="#000000" points="351,-1469.5 351,-1499.5 615,-1499.5 615,-1469.5 351,-1469.5"/>
<text text-anchor="start" x="358" y="-1480.9" font-family="Arial" font-size="14.00" fill="#000000">walk_session_id </text>
<text text-anchor="start" x="463.7952" y="-1480.9" font-family="Arial" font-size="14.00" fill="#666666">[ULID]</text>
<polygon fill="none" stroke="#000000" points="351,-1439.5 351,-1469.5 615,-1469.5 615,-1439.5 351,-1439.5"/>
<text text-anchor="start" x="358" y="-1450.9" font-family="Arial" font-size="14.00" fill="#000000">root_path </text>
<text text-anchor="start" x="421.028" y="-1450.9" font-family="Arial" font-size="14.00" fill="#666666">[TEXT]</text>
<polygon fill="none" stroke="#000000" points="351,-1409.5 351,-1439.5 615,-1439.5 615,-1409.5 351,-1409.5"/>
<text text-anchor="start" x="358" y="-1420.9" font-family="Arial" font-size="14.00" fill="#000000">elaboration </text>
<text text-anchor="start" x="431.1332" y="-1420.9" font-family="Arial" font-size="14.00" fill="#666666">[TEXT]</text>
<polygon fill="none" stroke="#000000" points="351,-1379.5 351,-1409.5 615,-1409.5 615,-1379.5 351,-1379.5"/>
<text text-anchor="start" x="358" y="-1390.9" font-family="Arial" font-size="14.00" fill="#000000">created_at </text>
<text text-anchor="start" x="428.028" y="-1390.9" font-family="Arial" font-size="14.00" fill="#666666">[TIMESTAMP]</text>
<polygon fill="none" stroke="#000000" points="351,-1349.5 351,-1379.5 615,-1379.5 615,-1349.5 351,-1349.5"/>
<text text-anchor="start" x="358" y="-1360.9" font-family="Arial" font-size="14.00" fill="#000000">created_by </text>
<text text-anchor="start" x="431.1374" y="-1360.9" font-family="Arial" font-size="14.00" fill="#666666">[TEXT]</text>
<polygon fill="none" stroke="#000000" points="351,-1319.5 351,-1349.5 615,-1349.5 615,-1319.5 351,-1319.5"/>
<text text-anchor="start" x="358" y="-1330.9" font-family="Arial" font-size="14.00" fill="#000000">updated_at </text>
<text text-anchor="start" x="431.9326" y="-1330.9" font-family="Arial" font-size="14.00" fill="#666666">[TIMESTAMP]</text>
<polygon fill="none" stroke="#000000" points="351,-1289.5 351,-1319.5 615,-1319.5 615,-1289.5 351,-1289.5"/>
<text text-anchor="start" x="358" y="-1300.9" font-family="Arial" font-size="14.00" fill="#000000">updated_by </text>
<text text-anchor="start" x="435.042" y="-1300.9" font-family="Arial" font-size="14.00" fill="#666666">[TEXT]</text>
<polygon fill="none" stroke="#000000" points="351,-1259.5 351,-1289.5 615,-1289.5 615,-1259.5 351,-1259.5"/>
<text text-anchor="start" x="358" y="-1270.9" font-family="Arial" font-size="14.00" fill="#000000">deleted_at </text>
<text text-anchor="start" x="427.2566" y="-1270.9" font-family="Arial" font-size="14.00" fill="#666666">[TIMESTAMP]</text>
<polygon fill="none" stroke="#000000" points="351,-1229.5 351,-1259.5 615,-1259.5 615,-1229.5 351,-1229.5"/>
<text text-anchor="start" x="358" y="-1240.9" font-family="Arial" font-size="14.00" fill="#000000">deleted_by </text>
<text text-anchor="start" x="430.366" y="-1240.9" font-family="Arial" font-size="14.00" fill="#666666">[TEXT]</text>
<polygon fill="none" stroke="#000000" points="351,-1199.5 351,-1229.5 615,-1229.5 615,-1199.5 351,-1199.5"/>
<text text-anchor="start" x="358" y="-1210.9" font-family="Arial" font-size="14.00" fill="#000000">activity_log </text>
<text text-anchor="start" x="431.122" y="-1210.9" font-family="Arial" font-size="14.00" fill="#666666">[TEXT]</text>
<polygon fill="none" stroke="#000000" stroke-width="3" points="349.5,-1198.5 349.5,-1566.5 616.5,-1566.5 616.5,-1198.5 349.5,-1198.5"/>
</g>
<!-- ur_walk_session -->
<g id="node6" class="node">
<title>ur_walk_session</title>
<polygon fill="#efefef" stroke="transparent" points="362,-1039.5 362,-1074.5 603,-1074.5 603,-1039.5 362,-1039.5"/>
<polygon fill="none" stroke="#000000" points="362,-1039.5 362,-1074.5 603,-1074.5 603,-1039.5 362,-1039.5"/>
<text text-anchor="start" x="379.8254" y="-1052.3" font-family="Arial Bold" font-size="18.00" fill="#000000">ur_walk_session</text>
<text text-anchor="start" x="512.8436" y="-1052.3" font-family="Arial" font-size="14.00" fill="#000000">    </text>
<text text-anchor="start" x="547.0484" y="-1052.3" font-family="Arial" font-size="14.00" fill="#666666">[table]</text>
<polygon fill="none" stroke="#000000" points="362,-1009.5 362,-1039.5 603,-1039.5 603,-1009.5 362,-1009.5"/>
<text text-anchor="start" x="369" y="-1020.9" font-family="Arial" font-size="14.00" fill="#000000">ur_walk_session_id    </text>
<text text-anchor="start" x="525.3352" y="-1020.9" font-family="Arial" font-size="14.00" fill="#666666">[ULID]</text>
<polygon fill="none" stroke="#000000" points="362,-979.5 362,-1009.5 603,-1009.5 603,-979.5 362,-979.5"/>
<text text-anchor="start" x="369" y="-990.9" font-family="Arial" font-size="14.00" fill="#000000">device_id    </text>
<text text-anchor="start" x="462.331" y="-990.9" font-family="Arial" font-size="14.00" fill="#666666">[ULID]</text>
<polygon fill="none" stroke="#000000" points="362,-949.5 362,-979.5 603,-979.5 603,-949.5 362,-949.5"/>
<text text-anchor="start" x="369" y="-960.9" font-family="Arial" font-size="14.00" fill="#000000">behavior_id    </text>
<text text-anchor="start" x="475.5568" y="-960.9" font-family="Arial" font-size="14.00" fill="#666666">[ULID]</text>
<polygon fill="none" stroke="#000000" points="362,-919.5 362,-949.5 603,-949.5 603,-919.5 362,-919.5"/>
<text text-anchor="start" x="369" y="-930.9" font-family="Arial" font-size="14.00" fill="#000000">behavior_json    </text>
<text text-anchor="start" x="490.3394" y="-930.9" font-family="Arial" font-size="14.00" fill="#666666">[TEXT]</text>
<polygon fill="none" stroke="#000000" points="362,-889.5 362,-919.5 603,-919.5 603,-889.5 362,-889.5"/>
<text text-anchor="start" x="369" y="-900.9" font-family="Arial" font-size="14.00" fill="#000000">walk_started_at    </text>
<text text-anchor="start" x="501.2286" y="-900.9" font-family="Arial" font-size="14.00" fill="#666666">[TIMESTAMP]</text>
<polygon fill="none" stroke="#000000" points="362,-859.5 362,-889.5 603,-889.5 603,-859.5 362,-859.5"/>
<text text-anchor="start" x="368.9411" y="-870.9" font-family="Arial" font-size="14.00" fill="#000000">walk_finished_at    </text>
<text text-anchor="start" x="506.6143" y="-870.9" font-family="Arial" font-size="14.00" fill="#666666">[TIMESTAMP]</text>
<polygon fill="none" stroke="#000000" points="362,-829.5 362,-859.5 603,-859.5 603,-829.5 362,-829.5"/>
<text text-anchor="start" x="369" y="-840.9" font-family="Arial" font-size="14.00" fill="#000000">elaboration    </text>
<text text-anchor="start" x="472.4474" y="-840.9" font-family="Arial" font-size="14.00" fill="#666666">[TEXT]</text>
<polygon fill="none" stroke="#000000" points="362,-799.5 362,-829.5 603,-829.5 603,-799.5 362,-799.5"/>
<text text-anchor="start" x="369" y="-810.9" font-family="Arial" font-size="14.00" fill="#000000">created_at    </text>
<text text-anchor="start" x="469.3422" y="-810.9" font-family="Arial" font-size="14.00" fill="#666666">[TIMESTAMP]</text>
<polygon fill="none" stroke="#000000" points="362,-769.5 362,-799.5 603,-799.5 603,-769.5 362,-769.5"/>
<text text-anchor="start" x="369" y="-780.9" font-family="Arial" font-size="14.00" fill="#000000">created_by    </text>
<text text-anchor="start" x="472.4516" y="-780.9" font-family="Arial" font-size="14.00" fill="#666666">[TEXT]</text>
<polygon fill="none" stroke="#000000" points="362,-739.5 362,-769.5 603,-769.5 603,-739.5 362,-739.5"/>
<text text-anchor="start" x="369" y="-750.9" font-family="Arial" font-size="14.00" fill="#000000">updated_at    </text>
<text text-anchor="start" x="473.2468" y="-750.9" font-family="Arial" font-size="14.00" fill="#666666">[TIMESTAMP]</text>
<polygon fill="none" stroke="#000000" points="362,-709.5 362,-739.5 603,-739.5 603,-709.5 362,-709.5"/>
<text text-anchor="start" x="369" y="-720.9" font-family="Arial" font-size="14.00" fill="#000000">updated_by    </text>
<text text-anchor="start" x="476.3562" y="-720.9" font-family="Arial" font-size="14.00" fill="#666666">[TEXT]</text>
<polygon fill="none" stroke="#000000" points="362,-679.5 362,-709.5 603,-709.5 603,-679.5 362,-679.5"/>
<text text-anchor="start" x="369" y="-690.9" font-family="Arial" font-size="14.00" fill="#000000">deleted_at    </text>
<text text-anchor="start" x="468.5708" y="-690.9" font-family="Arial" font-size="14.00" fill="#666666">[TIMESTAMP]</text>
<polygon fill="none" stroke="#000000" points="362,-649.5 362,-679.5 603,-679.5 603,-649.5 362,-649.5"/>
<text text-anchor="start" x="369" y="-660.9" font-family="Arial" font-size="14.00" fill="#000000">deleted_by    </text>
<text text-anchor="start" x="471.6802" y="-660.9" font-family="Arial" font-size="14.00" fill="#666666">[TEXT]</text>
<polygon fill="none" stroke="#000000" points="362,-619.5 362,-649.5 603,-649.5 603,-619.5 362,-619.5"/>
<text text-anchor="start" x="369" y="-630.9" font-family="Arial" font-size="14.00" fill="#000000">activity_log    </text>
<text text-anchor="start" x="472.4362" y="-630.9" font-family="Arial" font-size="14.00" fill="#666666">[TEXT]</text>
</g>
<!-- ur_walk_session_path&#45;&gt;ur_walk_session -->
<g id="edge8" class="edge">
<title>ur_walk_session_path:walk_session_id&#45;&gt;ur_walk_session:ur_walk_session_id</title>
<path fill="none" stroke="#000000" d="M340.9391,-1482.5905C280.0829,-1458.1664 305.2287,-1206.7747 351,-1154 425.1276,-1068.5301 528.8724,-1203.4699 603,-1118 630.2273,-1086.6067 644.5556,-1024.5 603,-1024.5"/>
<polygon fill="#000000" stroke="#000000" points="341.1754,-1482.6353 350.1609,-1488.9211 346.0877,-1483.5676 351,-1484.5 351,-1484.5 351,-1484.5 346.0877,-1483.5676 351.8391,-1480.0789 341.1754,-1482.6353 341.1754,-1482.6353"/>
</g>
<!-- uniform_resource -->
<g id="node2" class="node">
<title>uniform_resource</title>
<polygon fill="#efefef" stroke="transparent" points="160,-2289.5 160,-2324.5 394,-2324.5 394,-2289.5 160,-2289.5"/>
<polygon fill="none" stroke="#000000" points="160,-2289.5 160,-2324.5 394,-2324.5 394,-2289.5 160,-2289.5"/>
<text text-anchor="start" x="170.8271" y="-2302.3" font-family="Arial Bold" font-size="18.00" fill="#000000">uniform_resource</text>
<text text-anchor="start" x="310.8419" y="-2302.3" font-family="Arial" font-size="14.00" fill="#000000">    </text>
<text text-anchor="start" x="345.0467" y="-2302.3" font-family="Arial" font-size="14.00" fill="#666666">[table]</text>
<polygon fill="none" stroke="#000000" points="160,-2259.5 160,-2289.5 394,-2289.5 394,-2259.5 160,-2259.5"/>
<text text-anchor="start" x="167" y="-2270.9" font-family="Arial" font-size="14.00" fill="#000000">uniform_resource_id    </text>
<text text-anchor="start" x="328.777" y="-2270.9" font-family="Arial" font-size="14.00" fill="#666666">[ULID]</text>
<polygon fill="none" stroke="#000000" points="160,-2229.5 160,-2259.5 394,-2259.5 394,-2229.5 160,-2229.5"/>
<text text-anchor="start" x="167" y="-2240.9" font-family="Arial" font-size="14.00" fill="#000000">device_id    </text>
<text text-anchor="start" x="260.331" y="-2240.9" font-family="Arial" font-size="14.00" fill="#666666">[ULID]</text>
<polygon fill="none" stroke="#000000" points="160,-2199.5 160,-2229.5 394,-2229.5 394,-2199.5 160,-2199.5"/>
<text text-anchor="start" x="167" y="-2210.9" font-family="Arial" font-size="14.00" fill="#000000">walk_session_id    </text>
<text text-anchor="start" x="303.1094" y="-2210.9" font-family="Arial" font-size="14.00" fill="#666666">[ULID]</text>
<polygon fill="none" stroke="#000000" points="160,-2169.5 160,-2199.5 394,-2199.5 394,-2169.5 160,-2169.5"/>
<text text-anchor="start" x="167" y="-2180.9" font-family="Arial" font-size="14.00" fill="#000000">walk_path_id    </text>
<text text-anchor="start" x="282.8934" y="-2180.9" font-family="Arial" font-size="14.00" fill="#666666">[ULID]</text>
<polygon fill="none" stroke="#000000" points="160,-2139.5 160,-2169.5 394,-2169.5 394,-2139.5 160,-2139.5"/>
<text text-anchor="start" x="167" y="-2150.9" font-family="Arial" font-size="14.00" fill="#000000">uri    </text>
<text text-anchor="start" x="216.7546" y="-2150.9" font-family="Arial" font-size="14.00" fill="#666666">[TEXT]</text>
<polygon fill="none" stroke="#000000" points="160,-2109.5 160,-2139.5 394,-2139.5 394,-2109.5 160,-2109.5"/>
<text text-anchor="start" x="167" y="-2120.9" font-family="Arial" font-size="14.00" fill="#000000">content_digest    </text>
<text text-anchor="start" x="292.244" y="-2120.9" font-family="Arial" font-size="14.00" fill="#666666">[TEXT]</text>
<polygon fill="none" stroke="#000000" points="160,-2079.5 160,-2109.5 394,-2109.5 394,-2079.5 160,-2079.5"/>
<text text-anchor="start" x="167" y="-2090.9" font-family="Arial" font-size="14.00" fill="#000000">content    </text>
<text text-anchor="start" x="247.1164" y="-2090.9" font-family="Arial" font-size="14.00" fill="#666666">[BLOB]</text>
<polygon fill="none" stroke="#000000" points="160,-2049.5 160,-2079.5 394,-2079.5 394,-2049.5 160,-2049.5"/>
<text text-anchor="start" x="167" y="-2060.9" font-family="Arial" font-size="14.00" fill="#000000">nature    </text>
<text text-anchor="start" x="240.8864" y="-2060.9" font-family="Arial" font-size="14.00" fill="#666666">[TEXT]</text>
<polygon fill="none" stroke="#000000" points="160,-2019.5 160,-2049.5 394,-2049.5 394,-2019.5 160,-2019.5"/>
<text text-anchor="start" x="167" y="-2030.9" font-family="Arial" font-size="14.00" fill="#000000">size_bytes    </text>
<text text-anchor="start" x="267.3324" y="-2030.9" font-family="Arial" font-size="14.00" fill="#666666">[INTEGER]</text>
<polygon fill="none" stroke="#000000" points="160,-1989.5 160,-2019.5 394,-2019.5 394,-1989.5 160,-1989.5"/>
<text text-anchor="start" x="167" y="-2000.9" font-family="Arial" font-size="14.00" fill="#000000">last_modified_at    </text>
<text text-anchor="start" x="303.1178" y="-2000.9" font-family="Arial" font-size="14.00" fill="#666666">[INTEGER]</text>
<polygon fill="none" stroke="#000000" points="160,-1959.5 160,-1989.5 394,-1989.5 394,-1959.5 160,-1959.5"/>
<text text-anchor="start" x="166.9264" y="-1970.9" font-family="Arial" font-size="14.00" fill="#000000">content_fm_body_attrs    </text>
<text text-anchor="start" x="343.514" y="-1970.9" font-family="Arial" font-size="14.00" fill="#666666">[TEXT]</text>
<polygon fill="none" stroke="#000000" points="160,-1929.5 160,-1959.5 394,-1959.5 394,-1929.5 160,-1929.5"/>
<text text-anchor="start" x="167" y="-1940.9" font-family="Arial" font-size="14.00" fill="#000000">frontmatter    </text>
<text text-anchor="start" x="268.8794" y="-1940.9" font-family="Arial" font-size="14.00" fill="#666666">[TEXT]</text>
<polygon fill="none" stroke="#000000" points="160,-1899.5 160,-1929.5 394,-1929.5 394,-1899.5 160,-1899.5"/>
<text text-anchor="start" x="167" y="-1910.9" font-family="Arial" font-size="14.00" fill="#000000">elaboration    </text>
<text text-anchor="start" x="270.4474" y="-1910.9" font-family="Arial" font-size="14.00" fill="#666666">[TEXT]</text>
<polygon fill="none" stroke="#000000" points="160,-1869.5 160,-1899.5 394,-1899.5 394,-1869.5 160,-1869.5"/>
<text text-anchor="start" x="167" y="-1880.9" font-family="Arial" font-size="14.00" fill="#000000">created_at    </text>
<text text-anchor="start" x="267.3422" y="-1880.9" font-family="Arial" font-size="14.00" fill="#666666">[TIMESTAMP]</text>
<polygon fill="none" stroke="#000000" points="160,-1839.5 160,-1869.5 394,-1869.5 394,-1839.5 160,-1839.5"/>
<text text-anchor="start" x="167" y="-1850.9" font-family="Arial" font-size="14.00" fill="#000000">created_by    </text>
<text text-anchor="start" x="270.4516" y="-1850.9" font-family="Arial" font-size="14.00" fill="#666666">[TEXT]</text>
<polygon fill="none" stroke="#000000" points="160,-1809.5 160,-1839.5 394,-1839.5 394,-1809.5 160,-1809.5"/>
<text text-anchor="start" x="167" y="-1820.9" font-family="Arial" font-size="14.00" fill="#000000">updated_at    </text>
<text text-anchor="start" x="271.2468" y="-1820.9" font-family="Arial" font-size="14.00" fill="#666666">[TIMESTAMP]</text>
<polygon fill="none" stroke="#000000" points="160,-1779.5 160,-1809.5 394,-1809.5 394,-1779.5 160,-1779.5"/>
<text text-anchor="start" x="167" y="-1790.9" font-family="Arial" font-size="14.00" fill="#000000">updated_by    </text>
<text text-anchor="start" x="274.3562" y="-1790.9" font-family="Arial" font-size="14.00" fill="#666666">[TEXT]</text>
<polygon fill="none" stroke="#000000" points="160,-1749.5 160,-1779.5 394,-1779.5 394,-1749.5 160,-1749.5"/>
<text text-anchor="start" x="167" y="-1760.9" font-family="Arial" font-size="14.00" fill="#000000">deleted_at    </text>
<text text-anchor="start" x="266.5708" y="-1760.9" font-family="Arial" font-size="14.00" fill="#666666">[TIMESTAMP]</text>
<polygon fill="none" stroke="#000000" points="160,-1719.5 160,-1749.5 394,-1749.5 394,-1719.5 160,-1719.5"/>
<text text-anchor="start" x="167" y="-1730.9" font-family="Arial" font-size="14.00" fill="#000000">deleted_by    </text>
<text text-anchor="start" x="269.6802" y="-1730.9" font-family="Arial" font-size="14.00" fill="#666666">[TEXT]</text>
<polygon fill="none" stroke="#000000" points="160,-1689.5 160,-1719.5 394,-1719.5 394,-1689.5 160,-1689.5"/>
<text text-anchor="start" x="167" y="-1700.9" font-family="Arial" font-size="14.00" fill="#000000">activity_log    </text>
<text text-anchor="start" x="270.4362" y="-1700.9" font-family="Arial" font-size="14.00" fill="#666666">[TEXT]</text>
</g>
<!-- uniform_resource&#45;&gt;ur_walk_session_path -->
<g id="edge1" class="edge">
<title>uniform_resource:walk_path_id&#45;&gt;ur_walk_session_path:ur_walk_session_path_id</title>
<path fill="none" stroke="#000000" d="M404.2569,-2184.2947C628.8594,-2175.1167 493.5983,-1860.2801 394,-1647 383.4539,-1624.4165 361.5461,-1633.5835 351,-1611 332.8528,-1572.1395 308.1111,-1514.5 351,-1514.5"/>
<polygon fill="#000000" stroke="#000000" points="403.998,-2184.2998 393.9099,-2180.0009 398.999,-2184.3999 394,-2184.5 394,-2184.5 394,-2184.5 398.999,-2184.3999 394.0901,-2188.9991 403.998,-2184.2998 403.998,-2184.2998"/>
</g>
<!-- device -->
<g id="node5" class="node">
<title>device</title>
<polygon fill="#efefef" stroke="transparent" points="135,-462.5 135,-497.5 342,-497.5 342,-462.5 135,-462.5"/>
<polygon fill="none" stroke="#000000" points="135,-462.5 135,-497.5 342,-497.5 342,-462.5 135,-462.5"/>
<text text-anchor="start" x="176.3281" y="-475.3" font-family="Arial Bold" font-size="18.00" fill="#000000">device</text>
<text text-anchor="start" x="228.3409" y="-475.3" font-family="Arial" font-size="14.00" fill="#000000">    </text>
<text text-anchor="start" x="262.5457" y="-475.3" font-family="Arial" font-size="14.00" fill="#666666">[table]</text>
<polygon fill="none" stroke="#000000" points="135,-432.5 135,-462.5 342,-462.5 342,-432.5 135,-432.5"/>
<text text-anchor="start" x="142" y="-443.9" font-family="Arial" font-size="14.00" fill="#000000">device_id    </text>
<text text-anchor="start" x="235.331" y="-443.9" font-family="Arial" font-size="14.00" fill="#666666">[ULID]</text>
<polygon fill="none" stroke="#000000" points="135,-402.5 135,-432.5 342,-432.5 342,-402.5 135,-402.5"/>
<text text-anchor="start" x="142" y="-413.9" font-family="Arial" font-size="14.00" fill="#000000">name    </text>
<text text-anchor="start" x="211.2132" y="-413.9" font-family="Arial" font-size="14.00" fill="#666666">[TEXT]</text>
<polygon fill="none" stroke="#000000" points="135,-372.5 135,-402.5 342,-402.5 342,-372.5 135,-372.5"/>
<text text-anchor="start" x="142" y="-383.9" font-family="Arial" font-size="14.00" fill="#000000">state    </text>
<text text-anchor="start" x="206.5512" y="-383.9" font-family="Arial" font-size="14.00" fill="#666666">[TEXT]</text>
<polygon fill="none" stroke="#000000" points="135,-342.5 135,-372.5 342,-372.5 342,-342.5 135,-342.5"/>
<text text-anchor="start" x="142" y="-353.9" font-family="Arial" font-size="14.00" fill="#000000">boundary    </text>
<text text-anchor="start" x="234.561" y="-353.9" font-family="Arial" font-size="14.00" fill="#666666">[TEXT]</text>
<polygon fill="none" stroke="#000000" points="135,-312.5 135,-342.5 342,-342.5 342,-312.5 135,-312.5"/>
<text text-anchor="start" x="142" y="-323.9" font-family="Arial" font-size="14.00" fill="#000000">segmentation    </text>
<text text-anchor="start" x="260.2314" y="-323.9" font-family="Arial" font-size="14.00" fill="#666666">[TEXT]</text>
<polygon fill="none" stroke="#000000" points="135,-282.5 135,-312.5 342,-312.5 342,-282.5 135,-282.5"/>
<text text-anchor="start" x="142" y="-293.9" font-family="Arial" font-size="14.00" fill="#000000">state_sysinfo    </text>
<text text-anchor="start" x="257.8962" y="-293.9" font-family="Arial" font-size="14.00" fill="#666666">[TEXT]</text>
<polygon fill="none" stroke="#000000" points="135,-252.5 135,-282.5 342,-282.5 342,-252.5 135,-252.5"/>
<text text-anchor="start" x="142" y="-263.9" font-family="Arial" font-size="14.00" fill="#000000">elaboration    </text>
<text text-anchor="start" x="245.4474" y="-263.9" font-family="Arial" font-size="14.00" fill="#666666">[TEXT]</text>
<polygon fill="none" stroke="#000000" points="135,-222.5 135,-252.5 342,-252.5 342,-222.5 135,-222.5"/>
<text text-anchor="start" x="142" y="-233.9" font-family="Arial" font-size="14.00" fill="#000000">created_at    </text>
<text text-anchor="start" x="242.3422" y="-233.9" font-family="Arial" font-size="14.00" fill="#666666">[TIMESTAMP]</text>
<polygon fill="none" stroke="#000000" points="135,-192.5 135,-222.5 342,-222.5 342,-192.5 135,-192.5"/>
<text text-anchor="start" x="142" y="-203.9" font-family="Arial" font-size="14.00" fill="#000000">created_by    </text>
<text text-anchor="start" x="245.4516" y="-203.9" font-family="Arial" font-size="14.00" fill="#666666">[TEXT]</text>
<polygon fill="none" stroke="#000000" points="135,-162.5 135,-192.5 342,-192.5 342,-162.5 135,-162.5"/>
<text text-anchor="start" x="141.6543" y="-173.9" font-family="Arial" font-size="14.00" fill="#000000">updated_at    </text>
<text text-anchor="start" x="245.9011" y="-173.9" font-family="Arial" font-size="14.00" fill="#666666">[TIMESTAMP]</text>
<polygon fill="none" stroke="#000000" points="135,-132.5 135,-162.5 342,-162.5 342,-132.5 135,-132.5"/>
<text text-anchor="start" x="142" y="-143.9" font-family="Arial" font-size="14.00" fill="#000000">updated_by    </text>
<text text-anchor="start" x="249.3562" y="-143.9" font-family="Arial" font-size="14.00" fill="#666666">[TEXT]</text>
<polygon fill="none" stroke="#000000" points="135,-102.5 135,-132.5 342,-132.5 342,-102.5 135,-102.5"/>
<text text-anchor="start" x="142" y="-113.9" font-family="Arial" font-size="14.00" fill="#000000">deleted_at    </text>
<text text-anchor="start" x="241.5708" y="-113.9" font-family="Arial" font-size="14.00" fill="#666666">[TIMESTAMP]</text>
<polygon fill="none" stroke="#000000" points="135,-72.5 135,-102.5 342,-102.5 342,-72.5 135,-72.5"/>
<text text-anchor="start" x="142" y="-83.9" font-family="Arial" font-size="14.00" fill="#000000">deleted_by    </text>
<text text-anchor="start" x="244.6802" y="-83.9" font-family="Arial" font-size="14.00" fill="#666666">[TEXT]</text>
<polygon fill="none" stroke="#000000" points="135,-42.5 135,-72.5 342,-72.5 342,-42.5 135,-42.5"/>
<text text-anchor="start" x="142" y="-53.9" font-family="Arial" font-size="14.00" fill="#000000">activity_log    </text>
<text text-anchor="start" x="245.4362" y="-53.9" font-family="Arial" font-size="14.00" fill="#666666">[TEXT]</text>
</g>
<!-- uniform_resource&#45;&gt;device -->
<g id="edge4" class="edge">
<title>uniform_resource:device_id&#45;&gt;device:device_id</title>
<path fill="none" stroke="#000000" d="M149.7627,-2244.3275C-99.0774,-2235.7426 141.8852,-1908.4277 160,-1647 193.1905,-1168.0043 104.4203,-1011.3796 309,-577 318.2481,-557.3637 334.1314,-561.2286 342,-541 357.0648,-502.2713 383.5556,-447.5 342,-447.5"/>
<polygon fill="#000000" stroke="#000000" points="150.0014,-2244.3314 159.9241,-2248.9994 155.0007,-2244.4157 160,-2244.5 160,-2244.5 160,-2244.5 155.0007,-2244.4157 160.0759,-2240.0006 150.0014,-2244.3314 150.0014,-2244.3314"/>
</g>
<!-- uniform_resource&#45;&gt;ur_walk_session -->
<g id="edge5" class="edge">
<title>uniform_resource:walk_session_id&#45;&gt;ur_walk_session:ur_walk_session_id</title>
<path fill="none" stroke="#000000" d="M403.2364,-2210.3406C454.1862,-2161.3904 428.187,-1695.9792 394,-1647 367.4419,-1608.9506 322.5581,-1649.0494 296,-1611 237.8741,-1527.7239 272.2873,-1252.7484 296,-1154 311.0836,-1091.1862 297.4006,-1024.5 362,-1024.5"/>
<polygon fill="#000000" stroke="#000000" points="403.1181,-2210.3938 392.1522,-2210.3969 398.559,-2212.4469 394,-2214.5 394,-2214.5 394,-2214.5 398.559,-2212.4469 395.8478,-2218.6031 403.1181,-2210.3938 403.1181,-2210.3938"/>
</g>
<!-- uniform_resource_transform -->
<g id="node3" class="node">
<title>uniform_resource_transform</title>
<polygon fill="#efefef" stroke="transparent" points="43,-2986.5 43,-3021.5 355,-3021.5 355,-2986.5 43,-2986.5"/>
<polygon fill="none" stroke="#000000" points="43,-2986.5 43,-3021.5 355,-3021.5 355,-2986.5 43,-2986.5"/>
<text text-anchor="start" x="49.8242" y="-2999.3" font-family="Arial Bold" font-size="18.00" fill="#000000">uniform_resource_transform</text>
<text text-anchor="start" x="275.8448" y="-2999.3" font-family="Arial" font-size="14.00" fill="#000000">    </text>
<text text-anchor="start" x="310.0496" y="-2999.3" font-family="Arial" font-size="14.00" fill="#666666">[table]</text>
<polygon fill="none" stroke="#000000" points="43,-2956.5 43,-2986.5 355,-2986.5 355,-2956.5 43,-2956.5"/>
<text text-anchor="start" x="50" y="-2967.9" font-family="Arial" font-size="14.00" fill="#000000">uniform_resource_transform_id    </text>
<text text-anchor="start" x="278.6704" y="-2967.9" font-family="Arial" font-size="14.00" fill="#666666">[ULID]</text>
<polygon fill="none" stroke="#000000" points="43,-2926.5 43,-2956.5 355,-2956.5 355,-2926.5 43,-2926.5"/>
<text text-anchor="start" x="50" y="-2937.9" font-family="Arial" font-size="14.00" fill="#000000">uniform_resource_id    </text>
<text text-anchor="start" x="211.777" y="-2937.9" font-family="Arial" font-size="14.00" fill="#666666">[ULID]</text>
<polygon fill="none" stroke="#000000" points="43,-2896.5 43,-2926.5 355,-2926.5 355,-2896.5 43,-2896.5"/>
<text text-anchor="start" x="50" y="-2907.9" font-family="Arial" font-size="14.00" fill="#000000">uri    </text>
<text text-anchor="start" x="99.7546" y="-2907.9" font-family="Arial" font-size="14.00" fill="#666666">[TEXT]</text>
<polygon fill="none" stroke="#000000" points="43,-2866.5 43,-2896.5 355,-2896.5 355,-2866.5 43,-2866.5"/>
<text text-anchor="start" x="50" y="-2877.9" font-family="Arial" font-size="14.00" fill="#000000">content_digest    </text>
<text text-anchor="start" x="175.244" y="-2877.9" font-family="Arial" font-size="14.00" fill="#666666">[TEXT]</text>
<polygon fill="none" stroke="#000000" points="43,-2836.5 43,-2866.5 355,-2866.5 355,-2836.5 43,-2836.5"/>
<text text-anchor="start" x="50" y="-2847.9" font-family="Arial" font-size="14.00" fill="#000000">content    </text>
<text text-anchor="start" x="130.1164" y="-2847.9" font-family="Arial" font-size="14.00" fill="#666666">[BLOB]</text>
<polygon fill="none" stroke="#000000" points="43,-2806.5 43,-2836.5 355,-2836.5 355,-2806.5 43,-2806.5"/>
<text text-anchor="start" x="50" y="-2817.9" font-family="Arial" font-size="14.00" fill="#000000">nature    </text>
<text text-anchor="start" x="123.8864" y="-2817.9" font-family="Arial" font-size="14.00" fill="#666666">[TEXT]</text>
<polygon fill="none" stroke="#000000" points="43,-2776.5 43,-2806.5 355,-2806.5 355,-2776.5 43,-2776.5"/>
<text text-anchor="start" x="50" y="-2787.9" font-family="Arial" font-size="14.00" fill="#000000">size_bytes    </text>
<text text-anchor="start" x="150.3324" y="-2787.9" font-family="Arial" font-size="14.00" fill="#666666">[INTEGER]</text>
<polygon fill="none" stroke="#000000" points="43,-2746.5 43,-2776.5 355,-2776.5 355,-2746.5 43,-2746.5"/>
<text text-anchor="start" x="50" y="-2757.9" font-family="Arial" font-size="14.00" fill="#000000">elaboration    </text>
<text text-anchor="start" x="153.4474" y="-2757.9" font-family="Arial" font-size="14.00" fill="#666666">[TEXT]</text>
<polygon fill="none" stroke="#000000" points="43,-2716.5 43,-2746.5 355,-2746.5 355,-2716.5 43,-2716.5"/>
<text text-anchor="start" x="50" y="-2727.9" font-family="Arial" font-size="14.00" fill="#000000">created_at    </text>
<text text-anchor="start" x="150.3422" y="-2727.9" font-family="Arial" font-size="14.00" fill="#666666">[TIMESTAMP]</text>
<polygon fill="none" stroke="#000000" points="43,-2686.5 43,-2716.5 355,-2716.5 355,-2686.5 43,-2686.5"/>
<text text-anchor="start" x="50" y="-2697.9" font-family="Arial" font-size="14.00" fill="#000000">created_by    </text>
<text text-anchor="start" x="153.4516" y="-2697.9" font-family="Arial" font-size="14.00" fill="#666666">[TEXT]</text>
<polygon fill="none" stroke="#000000" points="43,-2656.5 43,-2686.5 355,-2686.5 355,-2656.5 43,-2656.5"/>
<text text-anchor="start" x="50" y="-2667.9" font-family="Arial" font-size="14.00" fill="#000000">updated_at    </text>
<text text-anchor="start" x="154.2468" y="-2667.9" font-family="Arial" font-size="14.00" fill="#666666">[TIMESTAMP]</text>
<polygon fill="none" stroke="#000000" points="43,-2626.5 43,-2656.5 355,-2656.5 355,-2626.5 43,-2626.5"/>
<text text-anchor="start" x="50" y="-2637.9" font-family="Arial" font-size="14.00" fill="#000000">updated_by    </text>
<text text-anchor="start" x="157.3562" y="-2637.9" font-family="Arial" font-size="14.00" fill="#666666">[TEXT]</text>
<polygon fill="none" stroke="#000000" points="43,-2596.5 43,-2626.5 355,-2626.5 355,-2596.5 43,-2596.5"/>
<text text-anchor="start" x="50" y="-2607.9" font-family="Arial" font-size="14.00" fill="#000000">deleted_at    </text>
<text text-anchor="start" x="149.5708" y="-2607.9" font-family="Arial" font-size="14.00" fill="#666666">[TIMESTAMP]</text>
<polygon fill="none" stroke="#000000" points="43,-2566.5 43,-2596.5 355,-2596.5 355,-2566.5 43,-2566.5"/>
<text text-anchor="start" x="50" y="-2577.9" font-family="Arial" font-size="14.00" fill="#000000">deleted_by    </text>
<text text-anchor="start" x="152.6802" y="-2577.9" font-family="Arial" font-size="14.00" fill="#666666">[TEXT]</text>
<polygon fill="none" stroke="#000000" points="43,-2536.5 43,-2566.5 355,-2566.5 355,-2536.5 43,-2536.5"/>
<text text-anchor="start" x="50" y="-2547.9" font-family="Arial" font-size="14.00" fill="#000000">activity_log    </text>
<text text-anchor="start" x="153.4362" y="-2547.9" font-family="Arial" font-size="14.00" fill="#666666">[TEXT]</text>
</g>
<!-- uniform_resource_transform&#45;&gt;uniform_resource -->
<g id="edge2" class="edge">
<title>uniform_resource_transform:uniform_resource_id&#45;&gt;uniform_resource:uniform_resource_id</title>
<path fill="none" stroke="#000000" d="M363.9273,-2936.3813C401.2857,-2889.4545 377.1966,-2534.7696 355,-2494 305.6606,-2403.3759 209.3394,-2458.6241 160,-2368 140.1296,-2331.503 118.4444,-2274.5 160,-2274.5"/>
<polygon fill="#000000" stroke="#000000" points="363.6752,-2936.5258 352.7616,-2937.5962 359.3376,-2939.0129 355,-2941.5 355,-2941.5 355,-2941.5 359.3376,-2939.0129 357.2384,-2945.4038 363.6752,-2936.5258 363.6752,-2936.5258"/>
</g>
<!-- ur_walk_session_path_fs_entry -->
<g id="node4" class="node">
<title>ur_walk_session_path_fs_entry</title>
<polygon fill="#efefef" stroke="transparent" points="459,-3076.5 459,-3111.5 797,-3111.5 797,-3076.5 459,-3076.5"/>
<polygon fill="none" stroke="#000000" points="459,-3076.5 459,-3111.5 797,-3111.5 797,-3076.5 459,-3076.5"/>
<text text-anchor="start" x="465.8012" y="-3089.3" font-family="Arial Bold" font-size="18.00" fill="#000000">ur_walk_session_path_fs_entry</text>
<text text-anchor="start" x="717.8678" y="-3089.3" font-family="Arial" font-size="14.00" fill="#000000">    </text>
<text text-anchor="start" x="752.0726" y="-3089.3" font-family="Arial" font-size="14.00" fill="#666666">[table]</text>
<polygon fill="none" stroke="#000000" points="459,-3046.5 459,-3076.5 797,-3076.5 797,-3046.5 459,-3046.5"/>
<text text-anchor="start" x="466" y="-3057.9" font-family="Arial" font-size="14.00" fill="#000000">ur_walk_session_path_fs_entry_id    </text>
<text text-anchor="start" x="714.9284" y="-3057.9" font-family="Arial" font-size="14.00" fill="#666666">[ULID]</text>
<polygon fill="none" stroke="#000000" points="459,-3016.5 459,-3046.5 797,-3046.5 797,-3016.5 459,-3016.5"/>
<text text-anchor="start" x="466" y="-3027.9" font-family="Arial" font-size="14.00" fill="#000000">walk_session_id    </text>
<text text-anchor="start" x="602.1094" y="-3027.9" font-family="Arial" font-size="14.00" fill="#666666">[ULID]</text>
<polygon fill="none" stroke="#000000" points="459,-2986.5 459,-3016.5 797,-3016.5 797,-2986.5 459,-2986.5"/>
<text text-anchor="start" x="466" y="-2997.9" font-family="Arial" font-size="14.00" fill="#000000">walk_path_id    </text>
<text text-anchor="start" x="581.8934" y="-2997.9" font-family="Arial" font-size="14.00" fill="#666666">[ULID]</text>
<polygon fill="none" stroke="#000000" points="459,-2956.5 459,-2986.5 797,-2986.5 797,-2956.5 459,-2956.5"/>
<text text-anchor="start" x="466" y="-2967.9" font-family="Arial" font-size="14.00" fill="#000000">uniform_resource_id    </text>
<text text-anchor="start" x="627.777" y="-2967.9" font-family="Arial" font-size="14.00" fill="#666666">[ULID]</text>
<polygon fill="none" stroke="#000000" points="459,-2926.5 459,-2956.5 797,-2956.5 797,-2926.5 459,-2926.5"/>
<text text-anchor="start" x="466" y="-2937.9" font-family="Arial" font-size="14.00" fill="#000000">file_path_abs    </text>
<text text-anchor="start" x="583.46" y="-2937.9" font-family="Arial" font-size="14.00" fill="#666666">[TEXT]</text>
<polygon fill="none" stroke="#000000" points="459,-2896.5 459,-2926.5 797,-2926.5 797,-2896.5 459,-2896.5"/>
<text text-anchor="start" x="466" y="-2907.9" font-family="Arial" font-size="14.00" fill="#000000">file_path_rel_parent    </text>
<text text-anchor="start" x="623.9088" y="-2907.9" font-family="Arial" font-size="14.00" fill="#666666">[TEXT]</text>
<polygon fill="none" stroke="#000000" points="459,-2866.5 459,-2896.5 797,-2896.5 797,-2866.5 459,-2866.5"/>
<text text-anchor="start" x="466" y="-2877.9" font-family="Arial" font-size="14.00" fill="#000000">file_path_rel    </text>
<text text-anchor="start" x="576.4446" y="-2877.9" font-family="Arial" font-size="14.00" fill="#666666">[TEXT]</text>
<polygon fill="none" stroke="#000000" points="459,-2836.5 459,-2866.5 797,-2866.5 797,-2836.5 459,-2836.5"/>
<text text-anchor="start" x="466" y="-2847.9" font-family="Arial" font-size="14.00" fill="#000000">file_basename    </text>
<text text-anchor="start" x="591.23" y="-2847.9" font-family="Arial" font-size="14.00" fill="#666666">[TEXT]</text>
<polygon fill="none" stroke="#000000" points="459,-2806.5 459,-2836.5 797,-2836.5 797,-2806.5 459,-2806.5"/>
<text text-anchor="start" x="466" y="-2817.9" font-family="Arial" font-size="14.00" fill="#000000">file_extn    </text>
<text text-anchor="start" x="552.3296" y="-2817.9" font-family="Arial" font-size="14.00" fill="#666666">[TEXT]</text>
<polygon fill="none" stroke="#000000" points="459,-2776.5 459,-2806.5 797,-2806.5 797,-2776.5 459,-2776.5"/>
<text text-anchor="start" x="466" y="-2787.9" font-family="Arial" font-size="14.00" fill="#000000">captured_executable    </text>
<text text-anchor="start" x="630.1444" y="-2787.9" font-family="Arial" font-size="14.00" fill="#666666">[TEXT]</text>
<polygon fill="none" stroke="#000000" points="459,-2746.5 459,-2776.5 797,-2776.5 797,-2746.5 459,-2746.5"/>
<text text-anchor="start" x="466" y="-2757.9" font-family="Arial" font-size="14.00" fill="#000000">ur_status    </text>
<text text-anchor="start" x="557.777" y="-2757.9" font-family="Arial" font-size="14.00" fill="#666666">[TEXT]</text>
<polygon fill="none" stroke="#000000" points="459,-2716.5 459,-2746.5 797,-2746.5 797,-2716.5 459,-2716.5"/>
<text text-anchor="start" x="466" y="-2727.9" font-family="Arial" font-size="14.00" fill="#000000">ur_diagnostics    </text>
<text text-anchor="start" x="590.4474" y="-2727.9" font-family="Arial" font-size="14.00" fill="#666666">[TEXT]</text>
<polygon fill="none" stroke="#000000" points="459,-2686.5 459,-2716.5 797,-2716.5 797,-2686.5 459,-2686.5"/>
<text text-anchor="start" x="466" y="-2697.9" font-family="Arial" font-size="14.00" fill="#000000">ur_transformations    </text>
<text text-anchor="start" x="616.8864" y="-2697.9" font-family="Arial" font-size="14.00" fill="#666666">[TEXT]</text>
<polygon fill="none" stroke="#000000" points="459,-2656.5 459,-2686.5 797,-2686.5 797,-2656.5 459,-2656.5"/>
<text text-anchor="start" x="466" y="-2667.9" font-family="Arial" font-size="14.00" fill="#000000">elaboration    </text>
<text text-anchor="start" x="569.4474" y="-2667.9" font-family="Arial" font-size="14.00" fill="#666666">[TEXT]</text>
<polygon fill="none" stroke="#000000" points="459,-2626.5 459,-2656.5 797,-2656.5 797,-2626.5 459,-2626.5"/>
<text text-anchor="start" x="466" y="-2637.9" font-family="Arial" font-size="14.00" fill="#000000">created_at    </text>
<text text-anchor="start" x="566.3422" y="-2637.9" font-family="Arial" font-size="14.00" fill="#666666">[TIMESTAMP]</text>
<polygon fill="none" stroke="#000000" points="459,-2596.5 459,-2626.5 797,-2626.5 797,-2596.5 459,-2596.5"/>
<text text-anchor="start" x="466" y="-2607.9" font-family="Arial" font-size="14.00" fill="#000000">created_by    </text>
<text text-anchor="start" x="569.4516" y="-2607.9" font-family="Arial" font-size="14.00" fill="#666666">[TEXT]</text>
<polygon fill="none" stroke="#000000" points="459,-2566.5 459,-2596.5 797,-2596.5 797,-2566.5 459,-2566.5"/>
<text text-anchor="start" x="466" y="-2577.9" font-family="Arial" font-size="14.00" fill="#000000">updated_at    </text>
<text text-anchor="start" x="570.2468" y="-2577.9" font-family="Arial" font-size="14.00" fill="#666666">[TIMESTAMP]</text>
<polygon fill="none" stroke="#000000" points="459,-2536.5 459,-2566.5 797,-2566.5 797,-2536.5 459,-2536.5"/>
<text text-anchor="start" x="466" y="-2547.9" font-family="Arial" font-size="14.00" fill="#000000">updated_by    </text>
<text text-anchor="start" x="573.3562" y="-2547.9" font-family="Arial" font-size="14.00" fill="#666666">[TEXT]</text>
<polygon fill="none" stroke="#000000" points="459,-2506.5 459,-2536.5 797,-2536.5 797,-2506.5 459,-2506.5"/>
<text text-anchor="start" x="466" y="-2517.9" font-family="Arial" font-size="14.00" fill="#000000">deleted_at    </text>
<text text-anchor="start" x="565.5708" y="-2517.9" font-family="Arial" font-size="14.00" fill="#666666">[TIMESTAMP]</text>
<polygon fill="none" stroke="#000000" points="459,-2476.5 459,-2506.5 797,-2506.5 797,-2476.5 459,-2476.5"/>
<text text-anchor="start" x="466" y="-2487.9" font-family="Arial" font-size="14.00" fill="#000000">deleted_by    </text>
<text text-anchor="start" x="568.6802" y="-2487.9" font-family="Arial" font-size="14.00" fill="#666666">[TEXT]</text>
<polygon fill="none" stroke="#000000" points="459,-2446.5 459,-2476.5 797,-2476.5 797,-2446.5 459,-2446.5"/>
<text text-anchor="start" x="466" y="-2457.9" font-family="Arial" font-size="14.00" fill="#000000">activity_log    </text>
<text text-anchor="start" x="569.4362" y="-2457.9" font-family="Arial" font-size="14.00" fill="#666666">[TEXT]</text>
</g>
<!-- ur_walk_session_path_fs_entry&#45;&gt;ur_walk_session_path -->
<g id="edge6" class="edge">
<title>ur_walk_session_path_fs_entry:walk_path_id&#45;&gt;ur_walk_session_path:ur_walk_session_path_id</title>
<path fill="none" stroke="#000000" d="M449.5247,-2997.2126C398.7853,-2946.7455 452.9019,-2466.5916 459,-2404 468.7299,-2304.1311 715.3418,-1514.5 615,-1514.5"/>
<polygon fill="#000000" stroke="#000000" points="449.8892,-2997.3775 457.1449,-3005.5998 454.4446,-2999.4388 459,-3001.5 459,-3001.5 459,-3001.5 454.4446,-2999.4388 460.8551,-2997.4002 449.8892,-2997.3775 449.8892,-2997.3775"/>
</g>
<!-- ur_walk_session_path_fs_entry&#45;&gt;uniform_resource -->
<g id="edge3" class="edge">
<title>ur_walk_session_path_fs_entry:uniform_resource_id&#45;&gt;uniform_resource:uniform_resource_id</title>
<path fill="none" stroke="#000000" d="M449.5065,-2967.4068C389.0162,-2910.2854 468.2864,-2274.5 394,-2274.5"/>
<polygon fill="#000000" stroke="#000000" points="449.8172,-2967.5407 457.2183,-2975.6323 454.4086,-2969.5203 459,-2971.5 459,-2971.5 459,-2971.5 454.4086,-2969.5203 460.7817,-2967.3677 449.8172,-2967.5407 449.8172,-2967.5407"/>
</g>
<!-- ur_walk_session_path_fs_entry&#45;&gt;ur_walk_session -->
<g id="edge7" class="edge">
<title>ur_walk_session_path_fs_entry:walk_session_id&#45;&gt;ur_walk_session:ur_walk_session_id</title>
<path fill="none" stroke="#000000" d="M807.1971,-3030.0453C1014.9695,-2969.2712 823.5388,-1024.5 603,-1024.5"/>
<polygon fill="#000000" stroke="#000000" points="806.8998,-3030.0877 796.3645,-3027.0451 801.9499,-3030.7938 797,-3031.5 797,-3031.5 797,-3031.5 801.9499,-3030.7938 797.6355,-3035.9549 806.8998,-3030.0877 806.8998,-3030.0877"/>
</g>
<!-- ur_walk_session&#45;&gt;device -->
<g id="edge9" class="edge">
<title>ur_walk_session:device_id&#45;&gt;device:device_id</title>
<path fill="none" stroke="#000000" d="M353.1701,-989.4342C312.174,-934.29 399.3736,-447.5 342,-447.5"/>
<polygon fill="#000000" stroke="#000000" points="353.3261,-989.5236 359.7606,-998.4033 357.663,-992.0118 362,-994.5 362,-994.5 362,-994.5 357.663,-992.0118 364.2394,-990.5967 353.3261,-989.5236 353.3261,-989.5236"/>
</g>
<!-- behavior -->
<g id="node7" class="node">
<title>behavior</title>
<polygon fill="#efefef" stroke="transparent" points="446,-447.5 446,-482.5 677,-482.5 677,-447.5 446,-447.5"/>
<polygon fill="none" stroke="#000000" points="446,-447.5 446,-482.5 677,-482.5 677,-447.5 446,-447.5"/>
<text text-anchor="start" x="490.8258" y="-460.3" font-family="Arial Bold" font-size="18.00" fill="#000000">behavior</text>
<text text-anchor="start" x="559.8432" y="-460.3" font-family="Arial" font-size="14.00" fill="#000000">    </text>
<text text-anchor="start" x="594.048" y="-460.3" font-family="Arial" font-size="14.00" fill="#666666">[table]</text>
<polygon fill="none" stroke="#000000" points="446,-417.5 446,-447.5 677,-447.5 677,-417.5 446,-417.5"/>
<text text-anchor="start" x="453" y="-428.9" font-family="Arial" font-size="14.00" fill="#000000">behavior_id    </text>
<text text-anchor="start" x="559.5568" y="-428.9" font-family="Arial" font-size="14.00" fill="#666666">[ULID]</text>
<polygon fill="none" stroke="#000000" points="446,-387.5 446,-417.5 677,-417.5 677,-387.5 446,-387.5"/>
<text text-anchor="start" x="453" y="-398.9" font-family="Arial" font-size="14.00" fill="#000000">device_id    </text>
<text text-anchor="start" x="546.331" y="-398.9" font-family="Arial" font-size="14.00" fill="#666666">[ULID]</text>
<polygon fill="none" stroke="#000000" points="446,-357.5 446,-387.5 677,-387.5 677,-357.5 446,-357.5"/>
<text text-anchor="start" x="453" y="-368.9" font-family="Arial" font-size="14.00" fill="#000000">behavior_name    </text>
<text text-anchor="start" x="583.676" y="-368.9" font-family="Arial" font-size="14.00" fill="#666666">[TEXT]</text>
<polygon fill="none" stroke="#000000" points="446,-327.5 446,-357.5 677,-357.5 677,-327.5 446,-327.5"/>
<text text-anchor="start" x="453" y="-338.9" font-family="Arial" font-size="14.00" fill="#000000">behavior_conf_json    </text>
<text text-anchor="start" x="608.5778" y="-338.9" font-family="Arial" font-size="14.00" fill="#666666">[TEXT]</text>
<polygon fill="none" stroke="#000000" points="446,-297.5 446,-327.5 677,-327.5 677,-297.5 446,-297.5"/>
<text text-anchor="start" x="452.5996" y="-308.9" font-family="Arial" font-size="14.00" fill="#000000">assurance_schema_id    </text>
<text text-anchor="start" x="626.8408" y="-308.9" font-family="Arial" font-size="14.00" fill="#666666">[TEXT]</text>
<polygon fill="none" stroke="#000000" points="446,-267.5 446,-297.5 677,-297.5 677,-267.5 446,-267.5"/>
<text text-anchor="start" x="453" y="-278.9" font-family="Arial" font-size="14.00" fill="#000000">governance    </text>
<text text-anchor="start" x="560.3436" y="-278.9" font-family="Arial" font-size="14.00" fill="#666666">[TEXT]</text>
<polygon fill="none" stroke="#000000" points="446,-237.5 446,-267.5 677,-267.5 677,-237.5 446,-237.5"/>
<text text-anchor="start" x="453" y="-248.9" font-family="Arial" font-size="14.00" fill="#000000">created_at    </text>
<text text-anchor="start" x="553.3422" y="-248.9" font-family="Arial" font-size="14.00" fill="#666666">[TIMESTAMP]</text>
<polygon fill="none" stroke="#000000" points="446,-207.5 446,-237.5 677,-237.5 677,-207.5 446,-207.5"/>
<text text-anchor="start" x="453" y="-218.9" font-family="Arial" font-size="14.00" fill="#000000">created_by    </text>
<text text-anchor="start" x="556.4516" y="-218.9" font-family="Arial" font-size="14.00" fill="#666666">[TEXT]</text>
<polygon fill="none" stroke="#000000" points="446,-177.5 446,-207.5 677,-207.5 677,-177.5 446,-177.5"/>
<text text-anchor="start" x="453" y="-188.9" font-family="Arial" font-size="14.00" fill="#000000">updated_at    </text>
<text text-anchor="start" x="557.2468" y="-188.9" font-family="Arial" font-size="14.00" fill="#666666">[TIMESTAMP]</text>
<polygon fill="none" stroke="#000000" points="446,-147.5 446,-177.5 677,-177.5 677,-147.5 446,-147.5"/>
<text text-anchor="start" x="453" y="-158.9" font-family="Arial" font-size="14.00" fill="#000000">updated_by    </text>
<text text-anchor="start" x="560.3562" y="-158.9" font-family="Arial" font-size="14.00" fill="#666666">[TEXT]</text>
<polygon fill="none" stroke="#000000" points="446,-117.5 446,-147.5 677,-147.5 677,-117.5 446,-117.5"/>
<text text-anchor="start" x="453" y="-128.9" font-family="Arial" font-size="14.00" fill="#000000">deleted_at    </text>
<text text-anchor="start" x="552.5708" y="-128.9" font-family="Arial" font-size="14.00" fill="#666666">[TIMESTAMP]</text>
<polygon fill="none" stroke="#000000" points="446,-87.5 446,-117.5 677,-117.5 677,-87.5 446,-87.5"/>
<text text-anchor="start" x="453" y="-98.9" font-family="Arial" font-size="14.00" fill="#000000">deleted_by    </text>
<text text-anchor="start" x="555.6802" y="-98.9" font-family="Arial" font-size="14.00" fill="#666666">[TEXT]</text>
<polygon fill="none" stroke="#000000" points="446,-57.5 446,-87.5 677,-87.5 677,-57.5 446,-57.5"/>
<text text-anchor="start" x="453" y="-68.9" font-family="Arial" font-size="14.00" fill="#000000">activity_log    </text>
<text text-anchor="start" x="556.4362" y="-68.9" font-family="Arial" font-size="14.00" fill="#666666">[TEXT]</text>
</g>
<!-- ur_walk_session&#45;&gt;behavior -->
<g id="edge10" class="edge">
<title>ur_walk_session:behavior_id&#45;&gt;behavior:behavior_id</title>
<path fill="none" stroke="#000000" d="M613.2907,-964.19C772.2979,-954.3668 702.1586,-713.4698 603,-577 559.8738,-517.6464 489.1262,-585.3536 446,-526 421.5731,-492.3817 404.4444,-432.5 446,-432.5"/>
<polygon fill="#000000" stroke="#000000" points="612.9955,-964.1988 602.8644,-960.002 607.9977,-964.3494 603,-964.5 603,-964.5 603,-964.5 607.9977,-964.3494 603.1356,-968.998 612.9955,-964.1988 612.9955,-964.1988"/>
</g>
</g>
</svg>
