<?xml version="1.0" encoding="UTF-8" standalone="no"?>
<!DOCTYPE svg PUBLIC "-//W3C//DTD SVG 1.1//EN"
 "http://www.w3.org/Graphics/SVG/1.1/DTD/svg11.dtd">
<!-- Generated by graphviz version 2.40.1 (20161225.0304)
 -->
<!-- Title: code_notebook_state Pages: 1 -->
<svg width="408pt" height="1799pt"
 viewBox="0.00 0.00 408.27 1799.00" xmlns="http://www.w3.org/2000/svg" xmlns:xlink="http://www.w3.org/1999/xlink">
<g id="graph0" class="graph" transform="scale(1 1) rotate(0) translate(4 1795)">
<title>code_notebook_state</title>
<polygon fill="#ffffff" stroke="transparent" points="-4,4 -4,-1795 404.2695,-1795 404.2695,4 -4,4"/>
<!-- code_notebook_state -->
<g id="node1" class="node">
<title>code_notebook_state</title>
<polygon fill="#efefef" stroke="transparent" points="48,-1709.5 48,-1744.5 306,-1744.5 306,-1709.5 48,-1709.5"/>
<polygon fill="none" stroke="#000000" points="48,-1709.5 48,-1744.5 306,-1744.5 306,-1709.5 48,-1709.5"/>
<text text-anchor="start" x="54.7909" y="-1722.3" font-family="Arial Bold" font-size="18.00" fill="#000000">code_notebook_state</text>
<text text-anchor="start" x="226.8781" y="-1722.3" font-family="Arial" font-size="14.00" fill="#000000">    </text>
<text text-anchor="start" x="261.0829" y="-1722.3" font-family="Arial" font-size="14.00" fill="#666666">[table]</text>
<polygon fill="none" stroke="#000000" points="48,-1679.5 48,-1709.5 306,-1709.5 306,-1679.5 48,-1679.5"/>
<text text-anchor="start" x="55" y="-1690.9" font-family="Arial" font-size="14.00" fill="#000000">code_notebook_state_id </text>
<text text-anchor="start" x="211.408" y="-1690.9" font-family="Arial" font-size="14.00" fill="#666666">[TEXT]</text>
<polygon fill="none" stroke="#000000" points="48,-1649.5 48,-1679.5 306,-1679.5 306,-1649.5 48,-1649.5"/>
<text text-anchor="start" x="55" y="-1660.9" font-family="Arial" font-size="14.00" fill="#000000">code_notebook_cell_id </text>
<text text-anchor="start" x="202.0574" y="-1660.9" font-family="Arial" font-size="14.00" fill="#666666">[TEXT]</text>
<polygon fill="none" stroke="#000000" points="48,-1619.5 48,-1649.5 306,-1649.5 306,-1619.5 48,-1619.5"/>
<text text-anchor="start" x="55" y="-1630.9" font-family="Arial" font-size="14.00" fill="#000000">from_state </text>
<text text-anchor="start" x="125.014" y="-1630.9" font-family="Arial" font-size="14.00" fill="#666666">[TEXT]</text>
<polygon fill="none" stroke="#000000" points="48,-1589.5 48,-1619.5 306,-1619.5 306,-1589.5 48,-1589.5"/>
<text text-anchor="start" x="55" y="-1600.9" font-family="Arial" font-size="14.00" fill="#000000">to_state </text>
<text text-anchor="start" x="108.6928" y="-1600.9" font-family="Arial" font-size="14.00" fill="#666666">[TEXT]</text>
<polygon fill="none" stroke="#000000" points="48,-1559.5 48,-1589.5 306,-1589.5 306,-1559.5 48,-1559.5"/>
<text text-anchor="start" x="55" y="-1570.9" font-family="Arial" font-size="14.00" fill="#000000">transition_result </text>
<text text-anchor="start" x="157.6816" y="-1570.9" font-family="Arial" font-size="14.00" fill="#666666">[TEXT]</text>
<polygon fill="none" stroke="#000000" points="48,-1529.5 48,-1559.5 306,-1559.5 306,-1529.5 48,-1529.5"/>
<text text-anchor="start" x="55" y="-1540.9" font-family="Arial" font-size="14.00" fill="#000000">transition_reason </text>
<text text-anchor="start" x="166.2496" y="-1540.9" font-family="Arial" font-size="14.00" fill="#666666">[TEXT]</text>
<polygon fill="none" stroke="#000000" points="48,-1499.5 48,-1529.5 306,-1529.5 306,-1499.5 48,-1499.5"/>
<text text-anchor="start" x="55" y="-1510.9" font-family="Arial" font-size="14.00" fill="#000000">transitioned_at </text>
<text text-anchor="start" x="150.697" y="-1510.9" font-family="Arial" font-size="14.00" fill="#666666">[TIMESTAMP]</text>
<polygon fill="none" stroke="#000000" points="48,-1469.5 48,-1499.5 306,-1499.5 306,-1469.5 48,-1469.5"/>
<text text-anchor="start" x="55" y="-1480.9" font-family="Arial" font-size="14.00" fill="#000000">elaboration </text>
<text text-anchor="start" x="128.1332" y="-1480.9" font-family="Arial" font-size="14.00" fill="#666666">[TEXT]</text>
<polygon fill="none" stroke="#000000" points="48,-1439.5 48,-1469.5 306,-1469.5 306,-1439.5 48,-1439.5"/>
<text text-anchor="start" x="55" y="-1450.9" font-family="Arial" font-size="14.00" fill="#000000">created_at </text>
<text text-anchor="start" x="125.028" y="-1450.9" font-family="Arial" font-size="14.00" fill="#666666">[TIMESTAMP]</text>
<polygon fill="none" stroke="#000000" points="48,-1409.5 48,-1439.5 306,-1439.5 306,-1409.5 48,-1409.5"/>
<text text-anchor="start" x="55" y="-1420.9" font-family="Arial" font-size="14.00" fill="#000000">created_by </text>
<text text-anchor="start" x="128.1374" y="-1420.9" font-family="Arial" font-size="14.00" fill="#666666">[TEXT]</text>
<polygon fill="none" stroke="#000000" points="48,-1379.5 48,-1409.5 306,-1409.5 306,-1379.5 48,-1379.5"/>
<text text-anchor="start" x="55" y="-1390.9" font-family="Arial" font-size="14.00" fill="#000000">updated_at </text>
<text text-anchor="start" x="128.9326" y="-1390.9" font-family="Arial" font-size="14.00" fill="#666666">[TIMESTAMP]</text>
<polygon fill="none" stroke="#000000" points="48,-1349.5 48,-1379.5 306,-1379.5 306,-1349.5 48,-1349.5"/>
<text text-anchor="start" x="55" y="-1360.9" font-family="Arial" font-size="14.00" fill="#000000">updated_by </text>
<text text-anchor="start" x="132.042" y="-1360.9" font-family="Arial" font-size="14.00" fill="#666666">[TEXT]</text>
<polygon fill="none" stroke="#000000" points="48,-1319.5 48,-1349.5 306,-1349.5 306,-1319.5 48,-1319.5"/>
<text text-anchor="start" x="55" y="-1330.9" font-family="Arial" font-size="14.00" fill="#000000">deleted_at </text>
<text text-anchor="start" x="124.2566" y="-1330.9" font-family="Arial" font-size="14.00" fill="#666666">[TIMESTAMP]</text>
<polygon fill="none" stroke="#000000" points="48,-1289.5 48,-1319.5 306,-1319.5 306,-1289.5 48,-1289.5"/>
<text text-anchor="start" x="55" y="-1300.9" font-family="Arial" font-size="14.00" fill="#000000">deleted_by </text>
<text text-anchor="start" x="127.366" y="-1300.9" font-family="Arial" font-size="14.00" fill="#666666">[TEXT]</text>
<polygon fill="none" stroke="#000000" points="48,-1259.5 48,-1289.5 306,-1289.5 306,-1259.5 48,-1259.5"/>
<text text-anchor="start" x="55" y="-1270.9" font-family="Arial" font-size="14.00" fill="#000000">activity_log </text>
<text text-anchor="start" x="128.122" y="-1270.9" font-family="Arial" font-size="14.00" fill="#666666">[TEXT]</text>
<polygon fill="none" stroke="#000000" stroke-width="3" points="46.5,-1258.5 46.5,-1746.5 307.5,-1746.5 307.5,-1258.5 46.5,-1258.5"/>
</g>
<!-- code_notebook_cell -->
<g id="node2" class="node">
<title>code_notebook_cell</title>
<polygon fill="#efefef" stroke="transparent" points="54,-1099.5 54,-1134.5 300,-1134.5 300,-1099.5 54,-1099.5"/>
<polygon fill="none" stroke="#000000" points="54,-1099.5 54,-1134.5 300,-1134.5 300,-1099.5 54,-1099.5"/>
<text text-anchor="start" x="60.802" y="-1112.3" font-family="Arial Bold" font-size="18.00" fill="#000000">code_notebook_cell</text>
<text text-anchor="start" x="220.867" y="-1112.3" font-family="Arial" font-size="14.00" fill="#000000">    </text>
<text text-anchor="start" x="255.0718" y="-1112.3" font-family="Arial" font-size="14.00" fill="#666666">[table]</text>
<polygon fill="none" stroke="#000000" points="54,-1069.5 54,-1099.5 300,-1099.5 300,-1069.5 54,-1069.5"/>
<text text-anchor="start" x="61" y="-1080.9" font-family="Arial" font-size="14.00" fill="#000000">code_notebook_cell_id    </text>
<text text-anchor="start" x="238.3716" y="-1080.9" font-family="Arial" font-size="14.00" fill="#666666">[TEXT]</text>
<polygon fill="none" stroke="#000000" points="54,-1039.5 54,-1069.5 300,-1069.5 300,-1039.5 54,-1039.5"/>
<text text-anchor="start" x="61" y="-1050.9" font-family="Arial" font-size="14.00" fill="#000000">notebook_kernel_id    </text>
<text text-anchor="start" x="217.3604" y="-1050.9" font-family="Arial" font-size="14.00" fill="#666666">[TEXT]</text>
<polygon fill="none" stroke="#000000" points="54,-1009.5 54,-1039.5 300,-1039.5 300,-1009.5 54,-1009.5"/>
<text text-anchor="start" x="61" y="-1020.9" font-family="Arial" font-size="14.00" fill="#000000">notebook_name    </text>
<text text-anchor="start" x="195.582" y="-1020.9" font-family="Arial" font-size="14.00" fill="#666666">[TEXT]</text>
<polygon fill="none" stroke="#000000" points="54,-979.5 54,-1009.5 300,-1009.5 300,-979.5 54,-979.5"/>
<text text-anchor="start" x="61" y="-990.9" font-family="Arial" font-size="14.00" fill="#000000">cell_name    </text>
<text text-anchor="start" x="158.9916" y="-990.9" font-family="Arial" font-size="14.00" fill="#666666">[TEXT]</text>
<polygon fill="none" stroke="#000000" points="54,-949.5 54,-979.5 300,-979.5 300,-949.5 54,-949.5"/>
<text text-anchor="start" x="61" y="-960.9" font-family="Arial" font-size="14.00" fill="#000000">cell_governance    </text>
<text text-anchor="start" x="197.122" y="-960.9" font-family="Arial" font-size="14.00" fill="#666666">[TEXT]</text>
<polygon fill="none" stroke="#000000" points="54,-919.5 54,-949.5 300,-949.5 300,-919.5 54,-919.5"/>
<text text-anchor="start" x="61" y="-930.9" font-family="Arial" font-size="14.00" fill="#000000">interpretable_code    </text>
<text text-anchor="start" x="211.129" y="-930.9" font-family="Arial" font-size="14.00" fill="#666666">[TEXT]</text>
<polygon fill="none" stroke="#000000" points="54,-889.5 54,-919.5 300,-919.5 300,-889.5 54,-889.5"/>
<text text-anchor="start" x="61" y="-900.9" font-family="Arial" font-size="14.00" fill="#000000">interpretable_code_hash    </text>
<text text-anchor="start" x="249.2594" y="-900.9" font-family="Arial" font-size="14.00" fill="#666666">[TEXT]</text>
<polygon fill="none" stroke="#000000" points="54,-859.5 54,-889.5 300,-889.5 300,-859.5 54,-859.5"/>
<text text-anchor="start" x="61" y="-870.9" font-family="Arial" font-size="14.00" fill="#000000">description    </text>
<text text-anchor="start" x="162.8822" y="-870.9" font-family="Arial" font-size="14.00" fill="#666666">[TEXT]</text>
<polygon fill="none" stroke="#000000" points="54,-829.5 54,-859.5 300,-859.5 300,-829.5 54,-829.5"/>
<text text-anchor="start" x="61" y="-840.9" font-family="Arial" font-size="14.00" fill="#000000">arguments    </text>
<text text-anchor="start" x="161.3296" y="-840.9" font-family="Arial" font-size="14.00" fill="#666666">[TEXT]</text>
<polygon fill="none" stroke="#000000" points="54,-799.5 54,-829.5 300,-829.5 300,-799.5 54,-799.5"/>
<text text-anchor="start" x="61" y="-810.9" font-family="Arial" font-size="14.00" fill="#000000">created_at    </text>
<text text-anchor="start" x="161.3422" y="-810.9" font-family="Arial" font-size="14.00" fill="#666666">[TIMESTAMP]</text>
<polygon fill="none" stroke="#000000" points="54,-769.5 54,-799.5 300,-799.5 300,-769.5 54,-769.5"/>
<text text-anchor="start" x="61" y="-780.9" font-family="Arial" font-size="14.00" fill="#000000">created_by    </text>
<text text-anchor="start" x="164.4516" y="-780.9" font-family="Arial" font-size="14.00" fill="#666666">[TEXT]</text>
<polygon fill="none" stroke="#000000" points="54,-739.5 54,-769.5 300,-769.5 300,-739.5 54,-739.5"/>
<text text-anchor="start" x="61" y="-750.9" font-family="Arial" font-size="14.00" fill="#000000">updated_at    </text>
<text text-anchor="start" x="165.2468" y="-750.9" font-family="Arial" font-size="14.00" fill="#666666">[TIMESTAMP]</text>
<polygon fill="none" stroke="#000000" points="54,-709.5 54,-739.5 300,-739.5 300,-709.5 54,-709.5"/>
<text text-anchor="start" x="61" y="-720.9" font-family="Arial" font-size="14.00" fill="#000000">updated_by    </text>
<text text-anchor="start" x="168.3562" y="-720.9" font-family="Arial" font-size="14.00" fill="#666666">[TEXT]</text>
<polygon fill="none" stroke="#000000" points="54,-679.5 54,-709.5 300,-709.5 300,-679.5 54,-679.5"/>
<text text-anchor="start" x="61" y="-690.9" font-family="Arial" font-size="14.00" fill="#000000">deleted_at    </text>
<text text-anchor="start" x="160.5708" y="-690.9" font-family="Arial" font-size="14.00" fill="#666666">[TIMESTAMP]</text>
<polygon fill="none" stroke="#000000" points="54,-649.5 54,-679.5 300,-679.5 300,-649.5 54,-649.5"/>
<text text-anchor="start" x="61" y="-660.9" font-family="Arial" font-size="14.00" fill="#000000">deleted_by    </text>
<text text-anchor="start" x="163.6802" y="-660.9" font-family="Arial" font-size="14.00" fill="#666666">[TEXT]</text>
<polygon fill="none" stroke="#000000" points="54,-619.5 54,-649.5 300,-649.5 300,-619.5 54,-619.5"/>
<text text-anchor="start" x="61" y="-630.9" font-family="Arial" font-size="14.00" fill="#000000">activity_log    </text>
<text text-anchor="start" x="164.4362" y="-630.9" font-family="Arial" font-size="14.00" fill="#666666">[TEXT]</text>
</g>
<!-- code_notebook_state&#45;&gt;code_notebook_cell -->
<g id="edge1" class="edge">
<title>code_notebook_state:code_notebook_cell_id&#45;&gt;code_notebook_cell:code_notebook_cell_id</title>
<path fill="none" stroke="#000000" d="M316.2712,-1663.2228C434.4758,-1633.2149 425.3713,-1084.5 300,-1084.5"/>
<polygon fill="#000000" stroke="#000000" points="315.9236,-1663.2659 305.4447,-1660.0344 310.9618,-1663.8829 306,-1664.5 306,-1664.5 306,-1664.5 310.9618,-1663.8829 306.5553,-1668.9656 315.9236,-1663.2659 315.9236,-1663.2659"/>
</g>
<!-- code_notebook_kernel -->
<g id="node3" class="node">
<title>code_notebook_kernel</title>
<polygon fill="#efefef" stroke="transparent" points="43,-462.5 43,-497.5 311,-497.5 311,-462.5 43,-462.5"/>
<polygon fill="none" stroke="#000000" points="43,-462.5 43,-497.5 311,-497.5 311,-462.5 43,-462.5"/>
<text text-anchor="start" x="49.7968" y="-475.3" font-family="Arial Bold" font-size="18.00" fill="#000000">code_notebook_kernel</text>
<text text-anchor="start" x="231.8722" y="-475.3" font-family="Arial" font-size="14.00" fill="#000000">    </text>
<text text-anchor="start" x="266.077" y="-475.3" font-family="Arial" font-size="14.00" fill="#666666">[table]</text>
<polygon fill="none" stroke="#000000" points="43,-432.5 43,-462.5 311,-462.5 311,-432.5 43,-432.5"/>
<text text-anchor="start" x="50" y="-443.9" font-family="Arial" font-size="14.00" fill="#000000">code_notebook_kernel_id    </text>
<text text-anchor="start" x="244.4908" y="-443.9" font-family="Arial" font-size="14.00" fill="#666666">[TEXT]</text>
<polygon fill="none" stroke="#000000" points="43,-402.5 43,-432.5 311,-432.5 311,-402.5 43,-402.5"/>
<text text-anchor="start" x="50" y="-413.9" font-family="Arial" font-size="14.00" fill="#000000">kernel_name    </text>
<text text-anchor="start" x="165.1108" y="-413.9" font-family="Arial" font-size="14.00" fill="#666666">[TEXT]</text>
<polygon fill="none" stroke="#000000" points="43,-372.5 43,-402.5 311,-402.5 311,-372.5 43,-372.5"/>
<text text-anchor="start" x="50" y="-383.9" font-family="Arial" font-size="14.00" fill="#000000">description    </text>
<text text-anchor="start" x="151.8822" y="-383.9" font-family="Arial" font-size="14.00" fill="#666666">[TEXT]</text>
<polygon fill="none" stroke="#000000" points="43,-342.5 43,-372.5 311,-372.5 311,-342.5 43,-342.5"/>
<text text-anchor="start" x="50" y="-353.9" font-family="Arial" font-size="14.00" fill="#000000">mime_type    </text>
<text text-anchor="start" x="152.6536" y="-353.9" font-family="Arial" font-size="14.00" fill="#666666">[TEXT]</text>
<polygon fill="none" stroke="#000000" points="43,-312.5 43,-342.5 311,-342.5 311,-312.5 43,-312.5"/>
<text text-anchor="start" x="50" y="-323.9" font-family="Arial" font-size="14.00" fill="#000000">file_extn    </text>
<text text-anchor="start" x="136.3296" y="-323.9" font-family="Arial" font-size="14.00" fill="#666666">[TEXT]</text>
<polygon fill="none" stroke="#000000" points="43,-282.5 43,-312.5 311,-312.5 311,-282.5 43,-282.5"/>
<text text-anchor="start" x="50" y="-293.9" font-family="Arial" font-size="14.00" fill="#000000">elaboration    </text>
<text text-anchor="start" x="153.4474" y="-293.9" font-family="Arial" font-size="14.00" fill="#666666">[TEXT]</text>
<polygon fill="none" stroke="#000000" points="43,-252.5 43,-282.5 311,-282.5 311,-252.5 43,-252.5"/>
<text text-anchor="start" x="50" y="-263.9" font-family="Arial" font-size="14.00" fill="#000000">governance    </text>
<text text-anchor="start" x="157.3436" y="-263.9" font-family="Arial" font-size="14.00" fill="#666666">[TEXT]</text>
<polygon fill="none" stroke="#000000" points="43,-222.5 43,-252.5 311,-252.5 311,-222.5 43,-222.5"/>
<text text-anchor="start" x="50" y="-233.9" font-family="Arial" font-size="14.00" fill="#000000">created_at    </text>
<text text-anchor="start" x="150.3422" y="-233.9" font-family="Arial" font-size="14.00" fill="#666666">[TIMESTAMP]</text>
<polygon fill="none" stroke="#000000" points="43,-192.5 43,-222.5 311,-222.5 311,-192.5 43,-192.5"/>
<text text-anchor="start" x="50" y="-203.9" font-family="Arial" font-size="14.00" fill="#000000">created_by    </text>
<text text-anchor="start" x="153.4516" y="-203.9" font-family="Arial" font-size="14.00" fill="#666666">[TEXT]</text>
<polygon fill="none" stroke="#000000" points="43,-162.5 43,-192.5 311,-192.5 311,-162.5 43,-162.5"/>
<text text-anchor="start" x="50" y="-173.9" font-family="Arial" font-size="14.00" fill="#000000">updated_at    </text>
<text text-anchor="start" x="154.2468" y="-173.9" font-family="Arial" font-size="14.00" fill="#666666">[TIMESTAMP]</text>
<polygon fill="none" stroke="#000000" points="43,-132.5 43,-162.5 311,-162.5 311,-132.5 43,-132.5"/>
<text text-anchor="start" x="50" y="-143.9" font-family="Arial" font-size="14.00" fill="#000000">updated_by    </text>
<text text-anchor="start" x="157.3562" y="-143.9" font-family="Arial" font-size="14.00" fill="#666666">[TEXT]</text>
<polygon fill="none" stroke="#000000" points="43,-102.5 43,-132.5 311,-132.5 311,-102.5 43,-102.5"/>
<text text-anchor="start" x="50" y="-113.9" font-family="Arial" font-size="14.00" fill="#000000">deleted_at    </text>
<text text-anchor="start" x="149.5708" y="-113.9" font-family="Arial" font-size="14.00" fill="#666666">[TIMESTAMP]</text>
<polygon fill="none" stroke="#000000" points="43,-72.5 43,-102.5 311,-102.5 311,-72.5 43,-72.5"/>
<text text-anchor="start" x="50" y="-83.9" font-family="Arial" font-size="14.00" fill="#000000">deleted_by    </text>
<text text-anchor="start" x="152.6802" y="-83.9" font-family="Arial" font-size="14.00" fill="#666666">[TEXT]</text>
<polygon fill="none" stroke="#000000" points="43,-42.5 43,-72.5 311,-72.5 311,-42.5 43,-42.5"/>
<text text-anchor="start" x="50" y="-53.9" font-family="Arial" font-size="14.00" fill="#000000">activity_log    </text>
<text text-anchor="start" x="153.4362" y="-53.9" font-family="Arial" font-size="14.00" fill="#666666">[TEXT]</text>
</g>
<!-- code_notebook_cell&#45;&gt;code_notebook_kernel -->
<g id="edge2" class="edge">
<title>code_notebook_cell:notebook_kernel_id&#45;&gt;code_notebook_kernel:code_notebook_kernel_id</title>
<path fill="none" stroke="#000000" d="M309.4748,-1050.2997C368.3427,-996.6699 375.1618,-447.5 311,-447.5"/>
<polygon fill="#000000" stroke="#000000" points="309.142,-1050.4472 298.1763,-1050.3861 304.571,-1052.4736 300,-1054.5 300,-1054.5 300,-1054.5 304.571,-1052.4736 301.8237,-1058.6139 309.142,-1050.4472 309.142,-1050.4472"/>
</g>
</g>
</svg>
