<?xml version="1.0" encoding="UTF-8" standalone="no"?>
<!DOCTYPE svg PUBLIC "-//W3C//DTD SVG 1.1//EN"
 "http://www.w3.org/Graphics/SVG/1.1/DTD/svg11.dtd">
<!-- Generated by graphviz version 2.40.1 (20161225.0304)
 -->
<!-- Title: code_notebook_kernel Pages: 1 -->
<svg width="368pt" height="1799pt"
 viewBox="0.00 0.00 368.00 1799.00" xmlns="http://www.w3.org/2000/svg" xmlns:xlink="http://www.w3.org/1999/xlink">
<g id="graph0" class="graph" transform="scale(1 1) rotate(0) translate(4 1795)">
<title>code_notebook_kernel</title>
<polygon fill="#ffffff" stroke="transparent" points="-4,4 -4,-1795 364,-1795 364,4 -4,4"/>
<!-- code_notebook_kernel -->
<g id="node1" class="node">
<title>code_notebook_kernel</title>
<polygon fill="#efefef" stroke="transparent" points="46,-465.5 46,-500.5 314,-500.5 314,-465.5 46,-465.5"/>
<polygon fill="none" stroke="#000000" points="46,-465.5 46,-500.5 314,-500.5 314,-465.5 46,-465.5"/>
<text text-anchor="start" x="52.7968" y="-478.3" font-family="Arial Bold" font-size="18.00" fill="#000000">code_notebook_kernel</text>
<text text-anchor="start" x="234.8722" y="-478.3" font-family="Arial" font-size="14.00" fill="#000000">    </text>
<text text-anchor="start" x="269.077" y="-478.3" font-family="Arial" font-size="14.00" fill="#666666">[table]</text>
<polygon fill="none" stroke="#000000" points="46,-435.5 46,-465.5 314,-465.5 314,-435.5 46,-435.5"/>
<text text-anchor="start" x="53" y="-446.9" font-family="Arial" font-size="14.00" fill="#000000">code_notebook_kernel_id </text>
<text text-anchor="start" x="217.1766" y="-446.9" font-family="Arial" font-size="14.00" fill="#666666">[TEXT]</text>
<polygon fill="none" stroke="#000000" points="46,-405.5 46,-435.5 314,-435.5 314,-405.5 46,-405.5"/>
<text text-anchor="start" x="53" y="-416.9" font-family="Arial" font-size="14.00" fill="#000000">kernel_name </text>
<text text-anchor="start" x="137.7966" y="-416.9" font-family="Arial" font-size="14.00" fill="#666666">[TEXT]</text>
<polygon fill="none" stroke="#000000" points="46,-375.5 46,-405.5 314,-405.5 314,-375.5 46,-375.5"/>
<text text-anchor="start" x="53" y="-386.9" font-family="Arial" font-size="14.00" fill="#000000">description </text>
<text text-anchor="start" x="124.568" y="-386.9" font-family="Arial" font-size="14.00" fill="#666666">[TEXT]</text>
<polygon fill="none" stroke="#000000" points="46,-345.5 46,-375.5 314,-375.5 314,-345.5 46,-345.5"/>
<text text-anchor="start" x="53" y="-356.9" font-family="Arial" font-size="14.00" fill="#000000">mime_type </text>
<text text-anchor="start" x="125.3394" y="-356.9" font-family="Arial" font-size="14.00" fill="#666666">[TEXT]</text>
<polygon fill="none" stroke="#000000" points="46,-315.5 46,-345.5 314,-345.5 314,-315.5 46,-315.5"/>
<text text-anchor="start" x="53" y="-326.9" font-family="Arial" font-size="14.00" fill="#000000">file_extn </text>
<text text-anchor="start" x="109.0154" y="-326.9" font-family="Arial" font-size="14.00" fill="#666666">[TEXT]</text>
<polygon fill="none" stroke="#000000" points="46,-285.5 46,-315.5 314,-315.5 314,-285.5 46,-285.5"/>
<text text-anchor="start" x="53" y="-296.9" font-family="Arial" font-size="14.00" fill="#000000">elaboration </text>
<text text-anchor="start" x="126.1332" y="-296.9" font-family="Arial" font-size="14.00" fill="#666666">[TEXT]</text>
<polygon fill="none" stroke="#000000" points="46,-255.5 46,-285.5 314,-285.5 314,-255.5 46,-255.5"/>
<text text-anchor="start" x="53" y="-266.9" font-family="Arial" font-size="14.00" fill="#000000">governance </text>
<text text-anchor="start" x="130.0294" y="-266.9" font-family="Arial" font-size="14.00" fill="#666666">[TEXT]</text>
<polygon fill="none" stroke="#000000" points="46,-225.5 46,-255.5 314,-255.5 314,-225.5 46,-225.5"/>
<text text-anchor="start" x="53" y="-236.9" font-family="Arial" font-size="14.00" fill="#000000">created_at </text>
<text text-anchor="start" x="123.028" y="-236.9" font-family="Arial" font-size="14.00" fill="#666666">[TIMESTAMP]</text>
<polygon fill="none" stroke="#000000" points="46,-195.5 46,-225.5 314,-225.5 314,-195.5 46,-195.5"/>
<text text-anchor="start" x="53" y="-206.9" font-family="Arial" font-size="14.00" fill="#000000">created_by </text>
<text text-anchor="start" x="126.1374" y="-206.9" font-family="Arial" font-size="14.00" fill="#666666">[TEXT]</text>
<polygon fill="none" stroke="#000000" points="46,-165.5 46,-195.5 314,-195.5 314,-165.5 46,-165.5"/>
<text text-anchor="start" x="53" y="-176.9" font-family="Arial" font-size="14.00" fill="#000000">updated_at </text>
<text text-anchor="start" x="126.9326" y="-176.9" font-family="Arial" font-size="14.00" fill="#666666">[TIMESTAMP]</text>
<polygon fill="none" stroke="#000000" points="46,-135.5 46,-165.5 314,-165.5 314,-135.5 46,-135.5"/>
<text text-anchor="start" x="53" y="-146.9" font-family="Arial" font-size="14.00" fill="#000000">updated_by </text>
<text text-anchor="start" x="130.042" y="-146.9" font-family="Arial" font-size="14.00" fill="#666666">[TEXT]</text>
<polygon fill="none" stroke="#000000" points="46,-105.5 46,-135.5 314,-135.5 314,-105.5 46,-105.5"/>
<text text-anchor="start" x="53" y="-116.9" font-family="Arial" font-size="14.00" fill="#000000">deleted_at </text>
<text text-anchor="start" x="122.2566" y="-116.9" font-family="Arial" font-size="14.00" fill="#666666">[TIMESTAMP]</text>
<polygon fill="none" stroke="#000000" points="46,-75.5 46,-105.5 314,-105.5 314,-75.5 46,-75.5"/>
<text text-anchor="start" x="53" y="-86.9" font-family="Arial" font-size="14.00" fill="#000000">deleted_by </text>
<text text-anchor="start" x="125.366" y="-86.9" font-family="Arial" font-size="14.00" fill="#666666">[TEXT]</text>
<polygon fill="none" stroke="#000000" points="46,-45.5 46,-75.5 314,-75.5 314,-45.5 46,-45.5"/>
<text text-anchor="start" x="53" y="-56.9" font-family="Arial" font-size="14.00" fill="#000000">activity_log </text>
<text text-anchor="start" x="126.122" y="-56.9" font-family="Arial" font-size="14.00" fill="#666666">[TEXT]</text>
<polygon fill="none" stroke="#000000" stroke-width="3" points="44.5,-44.5 44.5,-502.5 315.5,-502.5 315.5,-44.5 44.5,-44.5"/>
</g>
<!-- code_notebook_cell -->
<g id="node2" class="node">
<title>code_notebook_cell</title>
<polygon fill="#efefef" stroke="transparent" points="57,-1105.5 57,-1140.5 303,-1140.5 303,-1105.5 57,-1105.5"/>
<polygon fill="none" stroke="#000000" points="57,-1105.5 57,-1140.5 303,-1140.5 303,-1105.5 57,-1105.5"/>
<text text-anchor="start" x="63.802" y="-1118.3" font-family="Arial Bold" font-size="18.00" fill="#000000">code_notebook_cell</text>
<text text-anchor="start" x="223.867" y="-1118.3" font-family="Arial" font-size="14.00" fill="#000000">    </text>
<text text-anchor="start" x="258.0718" y="-1118.3" font-family="Arial" font-size="14.00" fill="#666666">[table]</text>
<polygon fill="none" stroke="#000000" points="57,-1075.5 57,-1105.5 303,-1105.5 303,-1075.5 57,-1075.5"/>
<text text-anchor="start" x="64" y="-1086.9" font-family="Arial" font-size="14.00" fill="#000000">code_notebook_cell_id    </text>
<text text-anchor="start" x="241.3716" y="-1086.9" font-family="Arial" font-size="14.00" fill="#666666">[TEXT]</text>
<polygon fill="none" stroke="#000000" points="57,-1045.5 57,-1075.5 303,-1075.5 303,-1045.5 57,-1045.5"/>
<text text-anchor="start" x="64" y="-1056.9" font-family="Arial" font-size="14.00" fill="#000000">notebook_kernel_id    </text>
<text text-anchor="start" x="220.3604" y="-1056.9" font-family="Arial" font-size="14.00" fill="#666666">[TEXT]</text>
<polygon fill="none" stroke="#000000" points="57,-1015.5 57,-1045.5 303,-1045.5 303,-1015.5 57,-1015.5"/>
<text text-anchor="start" x="64" y="-1026.9" font-family="Arial" font-size="14.00" fill="#000000">notebook_name    </text>
<text text-anchor="start" x="198.582" y="-1026.9" font-family="Arial" font-size="14.00" fill="#666666">[TEXT]</text>
<polygon fill="none" stroke="#000000" points="57,-985.5 57,-1015.5 303,-1015.5 303,-985.5 57,-985.5"/>
<text text-anchor="start" x="64" y="-996.9" font-family="Arial" font-size="14.00" fill="#000000">cell_name    </text>
<text text-anchor="start" x="161.9916" y="-996.9" font-family="Arial" font-size="14.00" fill="#666666">[TEXT]</text>
<polygon fill="none" stroke="#000000" points="57,-955.5 57,-985.5 303,-985.5 303,-955.5 57,-955.5"/>
<text text-anchor="start" x="64" y="-966.9" font-family="Arial" font-size="14.00" fill="#000000">cell_governance    </text>
<text text-anchor="start" x="200.122" y="-966.9" font-family="Arial" font-size="14.00" fill="#666666">[TEXT]</text>
<polygon fill="none" stroke="#000000" points="57,-925.5 57,-955.5 303,-955.5 303,-925.5 57,-925.5"/>
<text text-anchor="start" x="64" y="-936.9" font-family="Arial" font-size="14.00" fill="#000000">interpretable_code    </text>
<text text-anchor="start" x="214.129" y="-936.9" font-family="Arial" font-size="14.00" fill="#666666">[TEXT]</text>
<polygon fill="none" stroke="#000000" points="57,-895.5 57,-925.5 303,-925.5 303,-895.5 57,-895.5"/>
<text text-anchor="start" x="64" y="-906.9" font-family="Arial" font-size="14.00" fill="#000000">interpretable_code_hash    </text>
<text text-anchor="start" x="252.2594" y="-906.9" font-family="Arial" font-size="14.00" fill="#666666">[TEXT]</text>
<polygon fill="none" stroke="#000000" points="57,-865.5 57,-895.5 303,-895.5 303,-865.5 57,-865.5"/>
<text text-anchor="start" x="64" y="-876.9" font-family="Arial" font-size="14.00" fill="#000000">description    </text>
<text text-anchor="start" x="165.8822" y="-876.9" font-family="Arial" font-size="14.00" fill="#666666">[TEXT]</text>
<polygon fill="none" stroke="#000000" points="57,-835.5 57,-865.5 303,-865.5 303,-835.5 57,-835.5"/>
<text text-anchor="start" x="64" y="-846.9" font-family="Arial" font-size="14.00" fill="#000000">arguments    </text>
<text text-anchor="start" x="164.3296" y="-846.9" font-family="Arial" font-size="14.00" fill="#666666">[TEXT]</text>
<polygon fill="none" stroke="#000000" points="57,-805.5 57,-835.5 303,-835.5 303,-805.5 57,-805.5"/>
<text text-anchor="start" x="64" y="-816.9" font-family="Arial" font-size="14.00" fill="#000000">created_at    </text>
<text text-anchor="start" x="164.3422" y="-816.9" font-family="Arial" font-size="14.00" fill="#666666">[TIMESTAMP]</text>
<polygon fill="none" stroke="#000000" points="57,-775.5 57,-805.5 303,-805.5 303,-775.5 57,-775.5"/>
<text text-anchor="start" x="64" y="-786.9" font-family="Arial" font-size="14.00" fill="#000000">created_by    </text>
<text text-anchor="start" x="167.4516" y="-786.9" font-family="Arial" font-size="14.00" fill="#666666">[TEXT]</text>
<polygon fill="none" stroke="#000000" points="57,-745.5 57,-775.5 303,-775.5 303,-745.5 57,-745.5"/>
<text text-anchor="start" x="64" y="-756.9" font-family="Arial" font-size="14.00" fill="#000000">updated_at    </text>
<text text-anchor="start" x="168.2468" y="-756.9" font-family="Arial" font-size="14.00" fill="#666666">[TIMESTAMP]</text>
<polygon fill="none" stroke="#000000" points="57,-715.5 57,-745.5 303,-745.5 303,-715.5 57,-715.5"/>
<text text-anchor="start" x="64" y="-726.9" font-family="Arial" font-size="14.00" fill="#000000">updated_by    </text>
<text text-anchor="start" x="171.3562" y="-726.9" font-family="Arial" font-size="14.00" fill="#666666">[TEXT]</text>
<polygon fill="none" stroke="#000000" points="57,-685.5 57,-715.5 303,-715.5 303,-685.5 57,-685.5"/>
<text text-anchor="start" x="64" y="-696.9" font-family="Arial" font-size="14.00" fill="#000000">deleted_at    </text>
<text text-anchor="start" x="163.5708" y="-696.9" font-family="Arial" font-size="14.00" fill="#666666">[TIMESTAMP]</text>
<polygon fill="none" stroke="#000000" points="57,-655.5 57,-685.5 303,-685.5 303,-655.5 57,-655.5"/>
<text text-anchor="start" x="64" y="-666.9" font-family="Arial" font-size="14.00" fill="#000000">deleted_by    </text>
<text text-anchor="start" x="166.6802" y="-666.9" font-family="Arial" font-size="14.00" fill="#666666">[TEXT]</text>
<polygon fill="none" stroke="#000000" points="57,-625.5 57,-655.5 303,-655.5 303,-625.5 57,-625.5"/>
<text text-anchor="start" x="64" y="-636.9" font-family="Arial" font-size="14.00" fill="#000000">activity_log    </text>
<text text-anchor="start" x="167.4362" y="-636.9" font-family="Arial" font-size="14.00" fill="#666666">[TEXT]</text>
</g>
<!-- code_notebook_cell&#45;&gt;code_notebook_kernel -->
<g id="edge1" class="edge">
<title>code_notebook_cell:notebook_kernel_id&#45;&gt;code_notebook_kernel:code_notebook_kernel_id</title>
<path fill="none" stroke="#000000" d="M312.5213,-1056.279C371.6752,-1002.384 378.4788,-450.5 314,-450.5"/>
<polygon fill="#000000" stroke="#000000" points="312.1419,-1056.4471 301.1762,-1056.3861 307.571,-1058.4735 303,-1060.5 303,-1060.5 303,-1060.5 307.571,-1058.4735 304.8238,-1064.6139 312.1419,-1056.4471 312.1419,-1056.4471"/>
</g>
<!-- code_notebook_state -->
<g id="node3" class="node">
<title>code_notebook_state</title>
<polygon fill="#efefef" stroke="transparent" points="51,-1712.5 51,-1747.5 309,-1747.5 309,-1712.5 51,-1712.5"/>
<polygon fill="none" stroke="#000000" points="51,-1712.5 51,-1747.5 309,-1747.5 309,-1712.5 51,-1712.5"/>
<text text-anchor="start" x="57.7909" y="-1725.3" font-family="Arial Bold" font-size="18.00" fill="#000000">code_notebook_state</text>
<text text-anchor="start" x="229.8781" y="-1725.3" font-family="Arial" font-size="14.00" fill="#000000">    </text>
<text text-anchor="start" x="264.0829" y="-1725.3" font-family="Arial" font-size="14.00" fill="#666666">[table]</text>
<polygon fill="none" stroke="#000000" points="51,-1682.5 51,-1712.5 309,-1712.5 309,-1682.5 51,-1682.5"/>
<text text-anchor="start" x="58" y="-1693.9" font-family="Arial" font-size="14.00" fill="#000000">code_notebook_state_id    </text>
<text text-anchor="start" x="244.7222" y="-1693.9" font-family="Arial" font-size="14.00" fill="#666666">[TEXT]</text>
<polygon fill="none" stroke="#000000" points="51,-1652.5 51,-1682.5 309,-1682.5 309,-1652.5 51,-1652.5"/>
<text text-anchor="start" x="58" y="-1663.9" font-family="Arial" font-size="14.00" fill="#000000">code_notebook_cell_id    </text>
<text text-anchor="start" x="235.3716" y="-1663.9" font-family="Arial" font-size="14.00" fill="#666666">[TEXT]</text>
<polygon fill="none" stroke="#000000" points="51,-1622.5 51,-1652.5 309,-1652.5 309,-1622.5 51,-1622.5"/>
<text text-anchor="start" x="58" y="-1633.9" font-family="Arial" font-size="14.00" fill="#000000">from_state    </text>
<text text-anchor="start" x="158.3282" y="-1633.9" font-family="Arial" font-size="14.00" fill="#666666">[TEXT]</text>
<polygon fill="none" stroke="#000000" points="51,-1592.5 51,-1622.5 309,-1622.5 309,-1592.5 51,-1592.5"/>
<text text-anchor="start" x="58" y="-1603.9" font-family="Arial" font-size="14.00" fill="#000000">to_state    </text>
<text text-anchor="start" x="142.007" y="-1603.9" font-family="Arial" font-size="14.00" fill="#666666">[TEXT]</text>
<polygon fill="none" stroke="#000000" points="51,-1562.5 51,-1592.5 309,-1592.5 309,-1562.5 51,-1562.5"/>
<text text-anchor="start" x="58" y="-1573.9" font-family="Arial" font-size="14.00" fill="#000000">transition_result    </text>
<text text-anchor="start" x="190.9958" y="-1573.9" font-family="Arial" font-size="14.00" fill="#666666">[TEXT]</text>
<polygon fill="none" stroke="#000000" points="51,-1532.5 51,-1562.5 309,-1562.5 309,-1532.5 51,-1532.5"/>
<text text-anchor="start" x="58" y="-1543.9" font-family="Arial" font-size="14.00" fill="#000000">transition_reason    </text>
<text text-anchor="start" x="199.5638" y="-1543.9" font-family="Arial" font-size="14.00" fill="#666666">[TEXT]</text>
<polygon fill="none" stroke="#000000" points="51,-1502.5 51,-1532.5 309,-1532.5 309,-1502.5 51,-1502.5"/>
<text text-anchor="start" x="58" y="-1513.9" font-family="Arial" font-size="14.00" fill="#000000">transitioned_at    </text>
<text text-anchor="start" x="184.0112" y="-1513.9" font-family="Arial" font-size="14.00" fill="#666666">[TIMESTAMP]</text>
<polygon fill="none" stroke="#000000" points="51,-1472.5 51,-1502.5 309,-1502.5 309,-1472.5 51,-1472.5"/>
<text text-anchor="start" x="58" y="-1483.9" font-family="Arial" font-size="14.00" fill="#000000">elaboration    </text>
<text text-anchor="start" x="161.4474" y="-1483.9" font-family="Arial" font-size="14.00" fill="#666666">[TEXT]</text>
<polygon fill="none" stroke="#000000" points="51,-1442.5 51,-1472.5 309,-1472.5 309,-1442.5 51,-1442.5"/>
<text text-anchor="start" x="58" y="-1453.9" font-family="Arial" font-size="14.00" fill="#000000">created_at    </text>
<text text-anchor="start" x="158.3422" y="-1453.9" font-family="Arial" font-size="14.00" fill="#666666">[TIMESTAMP]</text>
<polygon fill="none" stroke="#000000" points="51,-1412.5 51,-1442.5 309,-1442.5 309,-1412.5 51,-1412.5"/>
<text text-anchor="start" x="58" y="-1423.9" font-family="Arial" font-size="14.00" fill="#000000">created_by    </text>
<text text-anchor="start" x="161.4516" y="-1423.9" font-family="Arial" font-size="14.00" fill="#666666">[TEXT]</text>
<polygon fill="none" stroke="#000000" points="51,-1382.5 51,-1412.5 309,-1412.5 309,-1382.5 51,-1382.5"/>
<text text-anchor="start" x="58" y="-1393.9" font-family="Arial" font-size="14.00" fill="#000000">updated_at    </text>
<text text-anchor="start" x="162.2468" y="-1393.9" font-family="Arial" font-size="14.00" fill="#666666">[TIMESTAMP]</text>
<polygon fill="none" stroke="#000000" points="51,-1352.5 51,-1382.5 309,-1382.5 309,-1352.5 51,-1352.5"/>
<text text-anchor="start" x="58" y="-1363.9" font-family="Arial" font-size="14.00" fill="#000000">updated_by    </text>
<text text-anchor="start" x="165.3562" y="-1363.9" font-family="Arial" font-size="14.00" fill="#666666">[TEXT]</text>
<polygon fill="none" stroke="#000000" points="51,-1322.5 51,-1352.5 309,-1352.5 309,-1322.5 51,-1322.5"/>
<text text-anchor="start" x="58" y="-1333.9" font-family="Arial" font-size="14.00" fill="#000000">deleted_at    </text>
<text text-anchor="start" x="157.5708" y="-1333.9" font-family="Arial" font-size="14.00" fill="#666666">[TIMESTAMP]</text>
<polygon fill="none" stroke="#000000" points="51,-1292.5 51,-1322.5 309,-1322.5 309,-1292.5 51,-1292.5"/>
<text text-anchor="start" x="58" y="-1303.9" font-family="Arial" font-size="14.00" fill="#000000">deleted_by    </text>
<text text-anchor="start" x="160.6802" y="-1303.9" font-family="Arial" font-size="14.00" fill="#666666">[TEXT]</text>
<polygon fill="none" stroke="#000000" points="51,-1262.5 51,-1292.5 309,-1292.5 309,-1262.5 51,-1262.5"/>
<text text-anchor="start" x="58" y="-1273.9" font-family="Arial" font-size="14.00" fill="#000000">activity_log    </text>
<text text-anchor="start" x="161.4362" y="-1273.9" font-family="Arial" font-size="14.00" fill="#666666">[TEXT]</text>
</g>
<!-- code_notebook_state&#45;&gt;code_notebook_cell -->
<g id="edge2" class="edge">
<title>code_notebook_state:code_notebook_cell_id&#45;&gt;code_notebook_cell:code_notebook_cell_id</title>
<path fill="none" stroke="#000000" d="M318.2266,-1663.1873C372.3553,-1610.3864 363.8588,-1090.5 303,-1090.5"/>
<polygon fill="#000000" stroke="#000000" points="318.0592,-1663.2655 307.0945,-1663.4233 313.5296,-1665.3828 309,-1667.5 309,-1667.5 309,-1667.5 313.5296,-1665.3828 310.9055,-1671.5767 318.0592,-1663.2655 318.0592,-1663.2655"/>
</g>
</g>
</svg>
