<?xml version="1.0" encoding="UTF-8" standalone="no"?>
<!DOCTYPE svg PUBLIC "-//W3C//DTD SVG 1.1//EN"
 "http://www.w3.org/Graphics/SVG/1.1/DTD/svg11.dtd">
<!-- Generated by graphviz version 2.40.1 (20161225.0304)
 -->
<!-- Title: code_notebook_cell Pages: 1 -->
<svg width="365pt" height="1799pt"
 viewBox="0.00 0.00 364.88 1799.00" xmlns="http://www.w3.org/2000/svg" xmlns:xlink="http://www.w3.org/1999/xlink">
<g id="graph0" class="graph" transform="scale(1 1) rotate(0) translate(4 1795)">
<title>code_notebook_cell</title>
<polygon fill="#ffffff" stroke="transparent" points="-4,4 -4,-1795 360.8817,-1795 360.8817,4 -4,4"/>
<!-- code_notebook_cell -->
<g id="node1" class="node">
<title>code_notebook_cell</title>
<polygon fill="#efefef" stroke="transparent" points="54,-1102.5 54,-1137.5 300,-1137.5 300,-1102.5 54,-1102.5"/>
<polygon fill="none" stroke="#000000" points="54,-1102.5 54,-1137.5 300,-1137.5 300,-1102.5 54,-1102.5"/>
<text text-anchor="start" x="60.802" y="-1115.3" font-family="Arial Bold" font-size="18.00" fill="#000000">code_notebook_cell</text>
<text text-anchor="start" x="220.867" y="-1115.3" font-family="Arial" font-size="14.00" fill="#000000">    </text>
<text text-anchor="start" x="255.0718" y="-1115.3" font-family="Arial" font-size="14.00" fill="#666666">[table]</text>
<polygon fill="none" stroke="#000000" points="54,-1072.5 54,-1102.5 300,-1102.5 300,-1072.5 54,-1072.5"/>
<text text-anchor="start" x="61" y="-1083.9" font-family="Arial" font-size="14.00" fill="#000000">code_notebook_cell_id </text>
<text text-anchor="start" x="208.0574" y="-1083.9" font-family="Arial" font-size="14.00" fill="#666666">[TEXT]</text>
<polygon fill="none" stroke="#000000" points="54,-1042.5 54,-1072.5 300,-1072.5 300,-1042.5 54,-1042.5"/>
<text text-anchor="start" x="61" y="-1053.9" font-family="Arial" font-size="14.00" fill="#000000">notebook_kernel_id </text>
<text text-anchor="start" x="187.0462" y="-1053.9" font-family="Arial" font-size="14.00" fill="#666666">[TEXT]</text>
<polygon fill="none" stroke="#000000" points="54,-1012.5 54,-1042.5 300,-1042.5 300,-1012.5 54,-1012.5"/>
<text text-anchor="start" x="61" y="-1023.9" font-family="Arial" font-size="14.00" fill="#000000">notebook_name </text>
<text text-anchor="start" x="165.2678" y="-1023.9" font-family="Arial" font-size="14.00" fill="#666666">[TEXT]</text>
<polygon fill="none" stroke="#000000" points="54,-982.5 54,-1012.5 300,-1012.5 300,-982.5 54,-982.5"/>
<text text-anchor="start" x="61" y="-993.9" font-family="Arial" font-size="14.00" fill="#000000">cell_name </text>
<text text-anchor="start" x="128.6774" y="-993.9" font-family="Arial" font-size="14.00" fill="#666666">[TEXT]</text>
<polygon fill="none" stroke="#000000" points="54,-952.5 54,-982.5 300,-982.5 300,-952.5 54,-952.5"/>
<text text-anchor="start" x="61" y="-963.9" font-family="Arial" font-size="14.00" fill="#000000">cell_governance </text>
<text text-anchor="start" x="166.8078" y="-963.9" font-family="Arial" font-size="14.00" fill="#666666">[TEXT]</text>
<polygon fill="none" stroke="#000000" points="54,-922.5 54,-952.5 300,-952.5 300,-922.5 54,-922.5"/>
<text text-anchor="start" x="61" y="-933.9" font-family="Arial" font-size="14.00" fill="#000000">interpretable_code </text>
<text text-anchor="start" x="180.8148" y="-933.9" font-family="Arial" font-size="14.00" fill="#666666">[TEXT]</text>
<polygon fill="none" stroke="#000000" points="54,-892.5 54,-922.5 300,-922.5 300,-892.5 54,-892.5"/>
<text text-anchor="start" x="61" y="-903.9" font-family="Arial" font-size="14.00" fill="#000000">interpretable_code_hash </text>
<text text-anchor="start" x="218.9452" y="-903.9" font-family="Arial" font-size="14.00" fill="#666666">[TEXT]</text>
<polygon fill="none" stroke="#000000" points="54,-862.5 54,-892.5 300,-892.5 300,-862.5 54,-862.5"/>
<text text-anchor="start" x="61" y="-873.9" font-family="Arial" font-size="14.00" fill="#000000">description </text>
<text text-anchor="start" x="132.568" y="-873.9" font-family="Arial" font-size="14.00" fill="#666666">[TEXT]</text>
<polygon fill="none" stroke="#000000" points="54,-832.5 54,-862.5 300,-862.5 300,-832.5 54,-832.5"/>
<text text-anchor="start" x="61" y="-843.9" font-family="Arial" font-size="14.00" fill="#000000">arguments </text>
<text text-anchor="start" x="131.0154" y="-843.9" font-family="Arial" font-size="14.00" fill="#666666">[TEXT]</text>
<polygon fill="none" stroke="#000000" points="54,-802.5 54,-832.5 300,-832.5 300,-802.5 54,-802.5"/>
<text text-anchor="start" x="61" y="-813.9" font-family="Arial" font-size="14.00" fill="#000000">created_at </text>
<text text-anchor="start" x="131.028" y="-813.9" font-family="Arial" font-size="14.00" fill="#666666">[TIMESTAMP]</text>
<polygon fill="none" stroke="#000000" points="54,-772.5 54,-802.5 300,-802.5 300,-772.5 54,-772.5"/>
<text text-anchor="start" x="61" y="-783.9" font-family="Arial" font-size="14.00" fill="#000000">created_by </text>
<text text-anchor="start" x="134.1374" y="-783.9" font-family="Arial" font-size="14.00" fill="#666666">[TEXT]</text>
<polygon fill="none" stroke="#000000" points="54,-742.5 54,-772.5 300,-772.5 300,-742.5 54,-742.5"/>
<text text-anchor="start" x="61" y="-753.9" font-family="Arial" font-size="14.00" fill="#000000">updated_at </text>
<text text-anchor="start" x="134.9326" y="-753.9" font-family="Arial" font-size="14.00" fill="#666666">[TIMESTAMP]</text>
<polygon fill="none" stroke="#000000" points="54,-712.5 54,-742.5 300,-742.5 300,-712.5 54,-712.5"/>
<text text-anchor="start" x="61" y="-723.9" font-family="Arial" font-size="14.00" fill="#000000">updated_by </text>
<text text-anchor="start" x="138.042" y="-723.9" font-family="Arial" font-size="14.00" fill="#666666">[TEXT]</text>
<polygon fill="none" stroke="#000000" points="54,-682.5 54,-712.5 300,-712.5 300,-682.5 54,-682.5"/>
<text text-anchor="start" x="61" y="-693.9" font-family="Arial" font-size="14.00" fill="#000000">deleted_at </text>
<text text-anchor="start" x="130.2566" y="-693.9" font-family="Arial" font-size="14.00" fill="#666666">[TIMESTAMP]</text>
<polygon fill="none" stroke="#000000" points="54,-652.5 54,-682.5 300,-682.5 300,-652.5 54,-652.5"/>
<text text-anchor="start" x="61" y="-663.9" font-family="Arial" font-size="14.00" fill="#000000">deleted_by </text>
<text text-anchor="start" x="133.366" y="-663.9" font-family="Arial" font-size="14.00" fill="#666666">[TEXT]</text>
<polygon fill="none" stroke="#000000" points="54,-622.5 54,-652.5 300,-652.5 300,-622.5 54,-622.5"/>
<text text-anchor="start" x="61" y="-633.9" font-family="Arial" font-size="14.00" fill="#000000">activity_log </text>
<text text-anchor="start" x="134.122" y="-633.9" font-family="Arial" font-size="14.00" fill="#666666">[TEXT]</text>
<polygon fill="none" stroke="#000000" stroke-width="3" points="52.5,-621.5 52.5,-1139.5 301.5,-1139.5 301.5,-621.5 52.5,-621.5"/>
</g>
<!-- code_notebook_kernel -->
<g id="node3" class="node">
<title>code_notebook_kernel</title>
<polygon fill="#efefef" stroke="transparent" points="43,-462.5 43,-497.5 311,-497.5 311,-462.5 43,-462.5"/>
<polygon fill="none" stroke="#000000" points="43,-462.5 43,-497.5 311,-497.5 311,-462.5 43,-462.5"/>
<text text-anchor="start" x="49.7968" y="-475.3" font-family="Arial Bold" font-size="18.00" fill="#000000">code_notebook_kernel</text>
<text text-anchor="start" x="231.8722" y="-475.3" font-family="Arial" font-size="14.00" fill="#000000">    </text>
<text text-anchor="start" x="266.077" y="-475.3" font-family="Arial" font-size="14.00" fill="#666666">[table]</text>
<polygon fill="none" stroke="#000000" points="43,-432.5 43,-462.5 311,-462.5 311,-432.5 43,-432.5"/>
<text text-anchor="start" x="50" y="-443.9" font-family="Arial" font-size="14.00" fill="#000000">code_notebook_kernel_id    </text>
<text text-anchor="start" x="244.4908" y="-443.9" font-family="Arial" font-size="14.00" fill="#666666">[TEXT]</text>
<polygon fill="none" stroke="#000000" points="43,-402.5 43,-432.5 311,-432.5 311,-402.5 43,-402.5"/>
<text text-anchor="start" x="50" y="-413.9" font-family="Arial" font-size="14.00" fill="#000000">kernel_name    </text>
<text text-anchor="start" x="165.1108" y="-413.9" font-family="Arial" font-size="14.00" fill="#666666">[TEXT]</text>
<polygon fill="none" stroke="#000000" points="43,-372.5 43,-402.5 311,-402.5 311,-372.5 43,-372.5"/>
<text text-anchor="start" x="50" y="-383.9" font-family="Arial" font-size="14.00" fill="#000000">description    </text>
<text text-anchor="start" x="151.8822" y="-383.9" font-family="Arial" font-size="14.00" fill="#666666">[TEXT]</text>
<polygon fill="none" stroke="#000000" points="43,-342.5 43,-372.5 311,-372.5 311,-342.5 43,-342.5"/>
<text text-anchor="start" x="50" y="-353.9" font-family="Arial" font-size="14.00" fill="#000000">mime_type    </text>
<text text-anchor="start" x="152.6536" y="-353.9" font-family="Arial" font-size="14.00" fill="#666666">[TEXT]</text>
<polygon fill="none" stroke="#000000" points="43,-312.5 43,-342.5 311,-342.5 311,-312.5 43,-312.5"/>
<text text-anchor="start" x="50" y="-323.9" font-family="Arial" font-size="14.00" fill="#000000">file_extn    </text>
<text text-anchor="start" x="136.3296" y="-323.9" font-family="Arial" font-size="14.00" fill="#666666">[TEXT]</text>
<polygon fill="none" stroke="#000000" points="43,-282.5 43,-312.5 311,-312.5 311,-282.5 43,-282.5"/>
<text text-anchor="start" x="50" y="-293.9" font-family="Arial" font-size="14.00" fill="#000000">elaboration    </text>
<text text-anchor="start" x="153.4474" y="-293.9" font-family="Arial" font-size="14.00" fill="#666666">[TEXT]</text>
<polygon fill="none" stroke="#000000" points="43,-252.5 43,-282.5 311,-282.5 311,-252.5 43,-252.5"/>
<text text-anchor="start" x="50" y="-263.9" font-family="Arial" font-size="14.00" fill="#000000">governance    </text>
<text text-anchor="start" x="157.3436" y="-263.9" font-family="Arial" font-size="14.00" fill="#666666">[TEXT]</text>
<polygon fill="none" stroke="#000000" points="43,-222.5 43,-252.5 311,-252.5 311,-222.5 43,-222.5"/>
<text text-anchor="start" x="50" y="-233.9" font-family="Arial" font-size="14.00" fill="#000000">created_at    </text>
<text text-anchor="start" x="150.3422" y="-233.9" font-family="Arial" font-size="14.00" fill="#666666">[TIMESTAMP]</text>
<polygon fill="none" stroke="#000000" points="43,-192.5 43,-222.5 311,-222.5 311,-192.5 43,-192.5"/>
<text text-anchor="start" x="50" y="-203.9" font-family="Arial" font-size="14.00" fill="#000000">created_by    </text>
<text text-anchor="start" x="153.4516" y="-203.9" font-family="Arial" font-size="14.00" fill="#666666">[TEXT]</text>
<polygon fill="none" stroke="#000000" points="43,-162.5 43,-192.5 311,-192.5 311,-162.5 43,-162.5"/>
<text text-anchor="start" x="50" y="-173.9" font-family="Arial" font-size="14.00" fill="#000000">updated_at    </text>
<text text-anchor="start" x="154.2468" y="-173.9" font-family="Arial" font-size="14.00" fill="#666666">[TIMESTAMP]</text>
<polygon fill="none" stroke="#000000" points="43,-132.5 43,-162.5 311,-162.5 311,-132.5 43,-132.5"/>
<text text-anchor="start" x="50" y="-143.9" font-family="Arial" font-size="14.00" fill="#000000">updated_by    </text>
<text text-anchor="start" x="157.3562" y="-143.9" font-family="Arial" font-size="14.00" fill="#666666">[TEXT]</text>
<polygon fill="none" stroke="#000000" points="43,-102.5 43,-132.5 311,-132.5 311,-102.5 43,-102.5"/>
<text text-anchor="start" x="50" y="-113.9" font-family="Arial" font-size="14.00" fill="#000000">deleted_at    </text>
<text text-anchor="start" x="149.5708" y="-113.9" font-family="Arial" font-size="14.00" fill="#666666">[TIMESTAMP]</text>
<polygon fill="none" stroke="#000000" points="43,-72.5 43,-102.5 311,-102.5 311,-72.5 43,-72.5"/>
<text text-anchor="start" x="50" y="-83.9" font-family="Arial" font-size="14.00" fill="#000000">deleted_by    </text>
<text text-anchor="start" x="152.6802" y="-83.9" font-family="Arial" font-size="14.00" fill="#666666">[TEXT]</text>
<polygon fill="none" stroke="#000000" points="43,-42.5 43,-72.5 311,-72.5 311,-42.5 43,-42.5"/>
<text text-anchor="start" x="50" y="-53.9" font-family="Arial" font-size="14.00" fill="#000000">activity_log    </text>
<text text-anchor="start" x="153.4362" y="-53.9" font-family="Arial" font-size="14.00" fill="#666666">[TEXT]</text>
</g>
<!-- code_notebook_cell&#45;&gt;code_notebook_kernel -->
<g id="edge2" class="edge">
<title>code_notebook_cell:notebook_kernel_id&#45;&gt;code_notebook_kernel:code_notebook_kernel_id</title>
<path fill="none" stroke="#000000" d="M309.5213,-1053.279C368.6752,-999.384 375.4788,-447.5 311,-447.5"/>
<polygon fill="#000000" stroke="#000000" points="309.1419,-1053.4471 298.1762,-1053.3861 304.571,-1055.4735 300,-1057.5 300,-1057.5 300,-1057.5 304.571,-1055.4735 301.8238,-1061.6139 309.1419,-1053.4471 309.1419,-1053.4471"/>
</g>
<!-- code_notebook_state -->
<g id="node2" class="node">
<title>code_notebook_state</title>
<polygon fill="#efefef" stroke="transparent" points="48,-1712.5 48,-1747.5 306,-1747.5 306,-1712.5 48,-1712.5"/>
<polygon fill="none" stroke="#000000" points="48,-1712.5 48,-1747.5 306,-1747.5 306,-1712.5 48,-1712.5"/>
<text text-anchor="start" x="54.7909" y="-1725.3" font-family="Arial Bold" font-size="18.00" fill="#000000">code_notebook_state</text>
<text text-anchor="start" x="226.8781" y="-1725.3" font-family="Arial" font-size="14.00" fill="#000000">    </text>
<text text-anchor="start" x="261.0829" y="-1725.3" font-family="Arial" font-size="14.00" fill="#666666">[table]</text>
<polygon fill="none" stroke="#000000" points="48,-1682.5 48,-1712.5 306,-1712.5 306,-1682.5 48,-1682.5"/>
<text text-anchor="start" x="55" y="-1693.9" font-family="Arial" font-size="14.00" fill="#000000">code_notebook_state_id    </text>
<text text-anchor="start" x="241.7222" y="-1693.9" font-family="Arial" font-size="14.00" fill="#666666">[TEXT]</text>
<polygon fill="none" stroke="#000000" points="48,-1652.5 48,-1682.5 306,-1682.5 306,-1652.5 48,-1652.5"/>
<text text-anchor="start" x="55" y="-1663.9" font-family="Arial" font-size="14.00" fill="#000000">code_notebook_cell_id    </text>
<text text-anchor="start" x="232.3716" y="-1663.9" font-family="Arial" font-size="14.00" fill="#666666">[TEXT]</text>
<polygon fill="none" stroke="#000000" points="48,-1622.5 48,-1652.5 306,-1652.5 306,-1622.5 48,-1622.5"/>
<text text-anchor="start" x="55" y="-1633.9" font-family="Arial" font-size="14.00" fill="#000000">from_state    </text>
<text text-anchor="start" x="155.3282" y="-1633.9" font-family="Arial" font-size="14.00" fill="#666666">[TEXT]</text>
<polygon fill="none" stroke="#000000" points="48,-1592.5 48,-1622.5 306,-1622.5 306,-1592.5 48,-1592.5"/>
<text text-anchor="start" x="55" y="-1603.9" font-family="Arial" font-size="14.00" fill="#000000">to_state    </text>
<text text-anchor="start" x="139.007" y="-1603.9" font-family="Arial" font-size="14.00" fill="#666666">[TEXT]</text>
<polygon fill="none" stroke="#000000" points="48,-1562.5 48,-1592.5 306,-1592.5 306,-1562.5 48,-1562.5"/>
<text text-anchor="start" x="55" y="-1573.9" font-family="Arial" font-size="14.00" fill="#000000">transition_result    </text>
<text text-anchor="start" x="187.9958" y="-1573.9" font-family="Arial" font-size="14.00" fill="#666666">[TEXT]</text>
<polygon fill="none" stroke="#000000" points="48,-1532.5 48,-1562.5 306,-1562.5 306,-1532.5 48,-1532.5"/>
<text text-anchor="start" x="55" y="-1543.9" font-family="Arial" font-size="14.00" fill="#000000">transition_reason    </text>
<text text-anchor="start" x="196.5638" y="-1543.9" font-family="Arial" font-size="14.00" fill="#666666">[TEXT]</text>
<polygon fill="none" stroke="#000000" points="48,-1502.5 48,-1532.5 306,-1532.5 306,-1502.5 48,-1502.5"/>
<text text-anchor="start" x="55" y="-1513.9" font-family="Arial" font-size="14.00" fill="#000000">transitioned_at    </text>
<text text-anchor="start" x="181.0112" y="-1513.9" font-family="Arial" font-size="14.00" fill="#666666">[TIMESTAMP]</text>
<polygon fill="none" stroke="#000000" points="48,-1472.5 48,-1502.5 306,-1502.5 306,-1472.5 48,-1472.5"/>
<text text-anchor="start" x="55" y="-1483.9" font-family="Arial" font-size="14.00" fill="#000000">elaboration    </text>
<text text-anchor="start" x="158.4474" y="-1483.9" font-family="Arial" font-size="14.00" fill="#666666">[TEXT]</text>
<polygon fill="none" stroke="#000000" points="48,-1442.5 48,-1472.5 306,-1472.5 306,-1442.5 48,-1442.5"/>
<text text-anchor="start" x="55" y="-1453.9" font-family="Arial" font-size="14.00" fill="#000000">created_at    </text>
<text text-anchor="start" x="155.3422" y="-1453.9" font-family="Arial" font-size="14.00" fill="#666666">[TIMESTAMP]</text>
<polygon fill="none" stroke="#000000" points="48,-1412.5 48,-1442.5 306,-1442.5 306,-1412.5 48,-1412.5"/>
<text text-anchor="start" x="55" y="-1423.9" font-family="Arial" font-size="14.00" fill="#000000">created_by    </text>
<text text-anchor="start" x="158.4516" y="-1423.9" font-family="Arial" font-size="14.00" fill="#666666">[TEXT]</text>
<polygon fill="none" stroke="#000000" points="48,-1382.5 48,-1412.5 306,-1412.5 306,-1382.5 48,-1382.5"/>
<text text-anchor="start" x="55" y="-1393.9" font-family="Arial" font-size="14.00" fill="#000000">updated_at    </text>
<text text-anchor="start" x="159.2468" y="-1393.9" font-family="Arial" font-size="14.00" fill="#666666">[TIMESTAMP]</text>
<polygon fill="none" stroke="#000000" points="48,-1352.5 48,-1382.5 306,-1382.5 306,-1352.5 48,-1352.5"/>
<text text-anchor="start" x="55" y="-1363.9" font-family="Arial" font-size="14.00" fill="#000000">updated_by    </text>
<text text-anchor="start" x="162.3562" y="-1363.9" font-family="Arial" font-size="14.00" fill="#666666">[TEXT]</text>
<polygon fill="none" stroke="#000000" points="48,-1322.5 48,-1352.5 306,-1352.5 306,-1322.5 48,-1322.5"/>
<text text-anchor="start" x="55" y="-1333.9" font-family="Arial" font-size="14.00" fill="#000000">deleted_at    </text>
<text text-anchor="start" x="154.5708" y="-1333.9" font-family="Arial" font-size="14.00" fill="#666666">[TIMESTAMP]</text>
<polygon fill="none" stroke="#000000" points="48,-1292.5 48,-1322.5 306,-1322.5 306,-1292.5 48,-1292.5"/>
<text text-anchor="start" x="55" y="-1303.9" font-family="Arial" font-size="14.00" fill="#000000">deleted_by    </text>
<text text-anchor="start" x="157.6802" y="-1303.9" font-family="Arial" font-size="14.00" fill="#666666">[TEXT]</text>
<polygon fill="none" stroke="#000000" points="48,-1262.5 48,-1292.5 306,-1292.5 306,-1262.5 48,-1262.5"/>
<text text-anchor="start" x="55" y="-1273.9" font-family="Arial" font-size="14.00" fill="#000000">activity_log    </text>
<text text-anchor="start" x="158.4362" y="-1273.9" font-family="Arial" font-size="14.00" fill="#666666">[TEXT]</text>
</g>
<!-- code_notebook_state&#45;&gt;code_notebook_cell -->
<g id="edge1" class="edge">
<title>code_notebook_state:code_notebook_cell_id&#45;&gt;code_notebook_cell:code_notebook_cell_id</title>
<path fill="none" stroke="#000000" d="M315.2748,-1663.1649C369.6878,-1610.0894 361.1751,-1087.5 300,-1087.5"/>
<polygon fill="#000000" stroke="#000000" points="315.0593,-1663.2656 304.0945,-1663.4233 310.5296,-1665.3828 306,-1667.5 306,-1667.5 306,-1667.5 310.5296,-1665.3828 307.9055,-1671.5767 315.0593,-1663.2656 315.0593,-1663.2656"/>
</g>
</g>
</svg>
