<?xml version="1.0" encoding="UTF-8" standalone="no"?>
<!DOCTYPE svg PUBLIC "-//W3C//DTD SVG 1.1//EN"
 "http://www.w3.org/Graphics/SVG/1.1/DTD/svg11.dtd">
<!-- Generated by graphviz version 2.40.1 (20161225.0304)
 -->
<!-- Title: Resource Surveillance Notebooks Schema Pages: 1 -->
<svg width="706pt" height="1793pt"
 viewBox="0.00 0.00 705.63 1793.00" xmlns="http://www.w3.org/2000/svg" xmlns:xlink="http://www.w3.org/1999/xlink">
<g id="graph0" class="graph" transform="scale(1 1) rotate(0) translate(4 1789)">
<title>Resource Surveillance Notebooks Schema</title>
<polygon fill="#ffffff" stroke="transparent" points="-4,4 -4,-1789 701.6343,-1789 701.6343,4 -4,4"/>
<!-- assurance_schema -->
<g id="node1" class="node">
<title>assurance_schema</title>
<polygon fill="#efefef" stroke="transparent" points="43,-1661.5 43,-1696.5 285,-1696.5 285,-1661.5 43,-1661.5"/>
<polygon fill="none" stroke="#000000" points="43,-1661.5 43,-1696.5 285,-1696.5 285,-1661.5 43,-1661.5"/>
<text text-anchor="start" x="49.8144" y="-1674.3" font-family="Arial Bold" font-size="18.00" fill="#000000">assurance_schema</text>
<text text-anchor="start" x="205.8546" y="-1674.3" font-family="Arial" font-size="14.00" fill="#000000">    </text>
<text text-anchor="start" x="240.0594" y="-1674.3" font-family="Arial" font-size="14.00" fill="#666666">[table]</text>
<polygon fill="none" stroke="#000000" points="43,-1631.5 43,-1661.5 285,-1661.5 285,-1631.5 43,-1631.5"/>
<text text-anchor="start" x="50" y="-1642.9" font-family="Arial" font-size="14.00" fill="#000000">assurance_schema_id    </text>
<text text-anchor="start" x="224.2412" y="-1642.9" font-family="Arial" font-size="14.00" fill="#666666">[TEXT]</text>
<polygon fill="none" stroke="#000000" points="43,-1601.5 43,-1631.5 285,-1631.5 285,-1601.5 43,-1601.5"/>
<text text-anchor="start" x="50" y="-1612.9" font-family="Arial" font-size="14.00" fill="#000000">assurance_type    </text>
<text text-anchor="start" x="183.0168" y="-1612.9" font-family="Arial" font-size="14.00" fill="#666666">[TEXT]</text>
<polygon fill="none" stroke="#000000" points="43,-1571.5 43,-1601.5 285,-1601.5 285,-1571.5 43,-1571.5"/>
<text text-anchor="start" x="50" y="-1582.9" font-family="Arial" font-size="14.00" fill="#000000">code    </text>
<text text-anchor="start" x="114.5526" y="-1582.9" font-family="Arial" font-size="14.00" fill="#666666">[TEXT]</text>
<polygon fill="none" stroke="#000000" points="43,-1541.5 43,-1571.5 285,-1571.5 285,-1541.5 43,-1541.5"/>
<text text-anchor="start" x="50" y="-1552.9" font-family="Arial" font-size="14.00" fill="#000000">code_json    </text>
<text text-anchor="start" x="148.007" y="-1552.9" font-family="Arial" font-size="14.00" fill="#666666">[TEXT]</text>
<polygon fill="none" stroke="#000000" points="43,-1511.5 43,-1541.5 285,-1541.5 285,-1511.5 43,-1511.5"/>
<text text-anchor="start" x="50" y="-1522.9" font-family="Arial" font-size="14.00" fill="#000000">governance    </text>
<text text-anchor="start" x="157.3436" y="-1522.9" font-family="Arial" font-size="14.00" fill="#666666">[TEXT]</text>
<polygon fill="none" stroke="#000000" points="43,-1481.5 43,-1511.5 285,-1511.5 285,-1481.5 43,-1481.5"/>
<text text-anchor="start" x="50" y="-1492.9" font-family="Arial" font-size="14.00" fill="#000000">created_at    </text>
<text text-anchor="start" x="150.3422" y="-1492.9" font-family="Arial" font-size="14.00" fill="#666666">[TIMESTAMP]</text>
<polygon fill="none" stroke="#000000" points="43,-1451.5 43,-1481.5 285,-1481.5 285,-1451.5 43,-1451.5"/>
<text text-anchor="start" x="50" y="-1462.9" font-family="Arial" font-size="14.00" fill="#000000">created_by    </text>
<text text-anchor="start" x="153.4516" y="-1462.9" font-family="Arial" font-size="14.00" fill="#666666">[TEXT]</text>
<polygon fill="none" stroke="#000000" points="43,-1421.5 43,-1451.5 285,-1451.5 285,-1421.5 43,-1421.5"/>
<text text-anchor="start" x="50" y="-1432.9" font-family="Arial" font-size="14.00" fill="#000000">updated_at    </text>
<text text-anchor="start" x="154.2468" y="-1432.9" font-family="Arial" font-size="14.00" fill="#666666">[TIMESTAMP]</text>
<polygon fill="none" stroke="#000000" points="43,-1391.5 43,-1421.5 285,-1421.5 285,-1391.5 43,-1391.5"/>
<text text-anchor="start" x="50" y="-1402.9" font-family="Arial" font-size="14.00" fill="#000000">updated_by    </text>
<text text-anchor="start" x="157.3562" y="-1402.9" font-family="Arial" font-size="14.00" fill="#666666">[TEXT]</text>
<polygon fill="none" stroke="#000000" points="43,-1361.5 43,-1391.5 285,-1391.5 285,-1361.5 43,-1361.5"/>
<text text-anchor="start" x="50" y="-1372.9" font-family="Arial" font-size="14.00" fill="#000000">deleted_at    </text>
<text text-anchor="start" x="149.5708" y="-1372.9" font-family="Arial" font-size="14.00" fill="#666666">[TIMESTAMP]</text>
<polygon fill="none" stroke="#000000" points="43,-1331.5 43,-1361.5 285,-1361.5 285,-1331.5 43,-1331.5"/>
<text text-anchor="start" x="50" y="-1342.9" font-family="Arial" font-size="14.00" fill="#000000">deleted_by    </text>
<text text-anchor="start" x="152.6802" y="-1342.9" font-family="Arial" font-size="14.00" fill="#666666">[TEXT]</text>
<polygon fill="none" stroke="#000000" points="43,-1301.5 43,-1331.5 285,-1331.5 285,-1301.5 43,-1301.5"/>
<text text-anchor="start" x="50" y="-1312.9" font-family="Arial" font-size="14.00" fill="#000000">activity_log    </text>
<text text-anchor="start" x="153.4362" y="-1312.9" font-family="Arial" font-size="14.00" fill="#666666">[TEXT]</text>
</g>
<!-- code_notebook_kernel -->
<g id="node2" class="node">
<title>code_notebook_kernel</title>
<polygon fill="#efefef" stroke="transparent" points="384,-462.5 384,-497.5 652,-497.5 652,-462.5 384,-462.5"/>
<polygon fill="none" stroke="#000000" points="384,-462.5 384,-497.5 652,-497.5 652,-462.5 384,-462.5"/>
<text text-anchor="start" x="390.7968" y="-475.3" font-family="Arial Bold" font-size="18.00" fill="#000000">code_notebook_kernel</text>
<text text-anchor="start" x="572.8722" y="-475.3" font-family="Arial" font-size="14.00" fill="#000000">    </text>
<text text-anchor="start" x="607.077" y="-475.3" font-family="Arial" font-size="14.00" fill="#666666">[table]</text>
<polygon fill="none" stroke="#000000" points="384,-432.5 384,-462.5 652,-462.5 652,-432.5 384,-432.5"/>
<text text-anchor="start" x="391" y="-443.9" font-family="Arial" font-size="14.00" fill="#000000">code_notebook_kernel_id    </text>
<text text-anchor="start" x="585.4908" y="-443.9" font-family="Arial" font-size="14.00" fill="#666666">[TEXT]</text>
<polygon fill="none" stroke="#000000" points="384,-402.5 384,-432.5 652,-432.5 652,-402.5 384,-402.5"/>
<text text-anchor="start" x="391" y="-413.9" font-family="Arial" font-size="14.00" fill="#000000">kernel_name    </text>
<text text-anchor="start" x="506.1108" y="-413.9" font-family="Arial" font-size="14.00" fill="#666666">[TEXT]</text>
<polygon fill="none" stroke="#000000" points="384,-372.5 384,-402.5 652,-402.5 652,-372.5 384,-372.5"/>
<text text-anchor="start" x="391" y="-383.9" font-family="Arial" font-size="14.00" fill="#000000">description    </text>
<text text-anchor="start" x="492.8822" y="-383.9" font-family="Arial" font-size="14.00" fill="#666666">[TEXT]</text>
<polygon fill="none" stroke="#000000" points="384,-342.5 384,-372.5 652,-372.5 652,-342.5 384,-342.5"/>
<text text-anchor="start" x="391" y="-353.9" font-family="Arial" font-size="14.00" fill="#000000">mime_type    </text>
<text text-anchor="start" x="493.6536" y="-353.9" font-family="Arial" font-size="14.00" fill="#666666">[TEXT]</text>
<polygon fill="none" stroke="#000000" points="384,-312.5 384,-342.5 652,-342.5 652,-312.5 384,-312.5"/>
<text text-anchor="start" x="391" y="-323.9" font-family="Arial" font-size="14.00" fill="#000000">file_extn    </text>
<text text-anchor="start" x="477.3296" y="-323.9" font-family="Arial" font-size="14.00" fill="#666666">[TEXT]</text>
<polygon fill="none" stroke="#000000" points="384,-282.5 384,-312.5 652,-312.5 652,-282.5 384,-282.5"/>
<text text-anchor="start" x="391" y="-293.9" font-family="Arial" font-size="14.00" fill="#000000">elaboration    </text>
<text text-anchor="start" x="494.4474" y="-293.9" font-family="Arial" font-size="14.00" fill="#666666">[TEXT]</text>
<polygon fill="none" stroke="#000000" points="384,-252.5 384,-282.5 652,-282.5 652,-252.5 384,-252.5"/>
<text text-anchor="start" x="391" y="-263.9" font-family="Arial" font-size="14.00" fill="#000000">governance    </text>
<text text-anchor="start" x="498.3436" y="-263.9" font-family="Arial" font-size="14.00" fill="#666666">[TEXT]</text>
<polygon fill="none" stroke="#000000" points="384,-222.5 384,-252.5 652,-252.5 652,-222.5 384,-222.5"/>
<text text-anchor="start" x="391" y="-233.9" font-family="Arial" font-size="14.00" fill="#000000">created_at    </text>
<text text-anchor="start" x="491.3422" y="-233.9" font-family="Arial" font-size="14.00" fill="#666666">[TIMESTAMP]</text>
<polygon fill="none" stroke="#000000" points="384,-192.5 384,-222.5 652,-222.5 652,-192.5 384,-192.5"/>
<text text-anchor="start" x="391" y="-203.9" font-family="Arial" font-size="14.00" fill="#000000">created_by    </text>
<text text-anchor="start" x="494.4516" y="-203.9" font-family="Arial" font-size="14.00" fill="#666666">[TEXT]</text>
<polygon fill="none" stroke="#000000" points="384,-162.5 384,-192.5 652,-192.5 652,-162.5 384,-162.5"/>
<text text-anchor="start" x="391" y="-173.9" font-family="Arial" font-size="14.00" fill="#000000">updated_at    </text>
<text text-anchor="start" x="495.2468" y="-173.9" font-family="Arial" font-size="14.00" fill="#666666">[TIMESTAMP]</text>
<polygon fill="none" stroke="#000000" points="384,-132.5 384,-162.5 652,-162.5 652,-132.5 384,-132.5"/>
<text text-anchor="start" x="391" y="-143.9" font-family="Arial" font-size="14.00" fill="#000000">updated_by    </text>
<text text-anchor="start" x="498.3562" y="-143.9" font-family="Arial" font-size="14.00" fill="#666666">[TEXT]</text>
<polygon fill="none" stroke="#000000" points="384,-102.5 384,-132.5 652,-132.5 652,-102.5 384,-102.5"/>
<text text-anchor="start" x="391" y="-113.9" font-family="Arial" font-size="14.00" fill="#000000">deleted_at    </text>
<text text-anchor="start" x="490.5708" y="-113.9" font-family="Arial" font-size="14.00" fill="#666666">[TIMESTAMP]</text>
<polygon fill="none" stroke="#000000" points="384,-72.5 384,-102.5 652,-102.5 652,-72.5 384,-72.5"/>
<text text-anchor="start" x="391" y="-83.9" font-family="Arial" font-size="14.00" fill="#000000">deleted_by    </text>
<text text-anchor="start" x="493.6802" y="-83.9" font-family="Arial" font-size="14.00" fill="#666666">[TEXT]</text>
<polygon fill="none" stroke="#000000" points="384,-42.5 384,-72.5 652,-72.5 652,-42.5 384,-42.5"/>
<text text-anchor="start" x="391" y="-53.9" font-family="Arial" font-size="14.00" fill="#000000">activity_log    </text>
<text text-anchor="start" x="494.4362" y="-53.9" font-family="Arial" font-size="14.00" fill="#666666">[TEXT]</text>
</g>
<!-- code_notebook_cell -->
<g id="node3" class="node">
<title>code_notebook_cell</title>
<polygon fill="#efefef" stroke="transparent" points="395,-1099.5 395,-1134.5 641,-1134.5 641,-1099.5 395,-1099.5"/>
<polygon fill="none" stroke="#000000" points="395,-1099.5 395,-1134.5 641,-1134.5 641,-1099.5 395,-1099.5"/>
<text text-anchor="start" x="401.802" y="-1112.3" font-family="Arial Bold" font-size="18.00" fill="#000000">code_notebook_cell</text>
<text text-anchor="start" x="561.867" y="-1112.3" font-family="Arial" font-size="14.00" fill="#000000">    </text>
<text text-anchor="start" x="596.0718" y="-1112.3" font-family="Arial" font-size="14.00" fill="#666666">[table]</text>
<polygon fill="none" stroke="#000000" points="395,-1069.5 395,-1099.5 641,-1099.5 641,-1069.5 395,-1069.5"/>
<text text-anchor="start" x="402" y="-1080.9" font-family="Arial" font-size="14.00" fill="#000000">code_notebook_cell_id    </text>
<text text-anchor="start" x="579.3716" y="-1080.9" font-family="Arial" font-size="14.00" fill="#666666">[TEXT]</text>
<polygon fill="none" stroke="#000000" points="395,-1039.5 395,-1069.5 641,-1069.5 641,-1039.5 395,-1039.5"/>
<text text-anchor="start" x="402" y="-1050.9" font-family="Arial" font-size="14.00" fill="#000000">notebook_kernel_id    </text>
<text text-anchor="start" x="558.3604" y="-1050.9" font-family="Arial" font-size="14.00" fill="#666666">[TEXT]</text>
<polygon fill="none" stroke="#000000" points="395,-1009.5 395,-1039.5 641,-1039.5 641,-1009.5 395,-1009.5"/>
<text text-anchor="start" x="402" y="-1020.9" font-family="Arial" font-size="14.00" fill="#000000">notebook_name    </text>
<text text-anchor="start" x="536.582" y="-1020.9" font-family="Arial" font-size="14.00" fill="#666666">[TEXT]</text>
<polygon fill="none" stroke="#000000" points="395,-979.5 395,-1009.5 641,-1009.5 641,-979.5 395,-979.5"/>
<text text-anchor="start" x="402" y="-990.9" font-family="Arial" font-size="14.00" fill="#000000">cell_name    </text>
<text text-anchor="start" x="499.9916" y="-990.9" font-family="Arial" font-size="14.00" fill="#666666">[TEXT]</text>
<polygon fill="none" stroke="#000000" points="395,-949.5 395,-979.5 641,-979.5 641,-949.5 395,-949.5"/>
<text text-anchor="start" x="402" y="-960.9" font-family="Arial" font-size="14.00" fill="#000000">cell_governance    </text>
<text text-anchor="start" x="538.122" y="-960.9" font-family="Arial" font-size="14.00" fill="#666666">[TEXT]</text>
<polygon fill="none" stroke="#000000" points="395,-919.5 395,-949.5 641,-949.5 641,-919.5 395,-919.5"/>
<text text-anchor="start" x="402" y="-930.9" font-family="Arial" font-size="14.00" fill="#000000">interpretable_code    </text>
<text text-anchor="start" x="552.129" y="-930.9" font-family="Arial" font-size="14.00" fill="#666666">[TEXT]</text>
<polygon fill="none" stroke="#000000" points="395,-889.5 395,-919.5 641,-919.5 641,-889.5 395,-889.5"/>
<text text-anchor="start" x="402" y="-900.9" font-family="Arial" font-size="14.00" fill="#000000">interpretable_code_hash    </text>
<text text-anchor="start" x="590.2594" y="-900.9" font-family="Arial" font-size="14.00" fill="#666666">[TEXT]</text>
<polygon fill="none" stroke="#000000" points="395,-859.5 395,-889.5 641,-889.5 641,-859.5 395,-859.5"/>
<text text-anchor="start" x="402" y="-870.9" font-family="Arial" font-size="14.00" fill="#000000">description    </text>
<text text-anchor="start" x="503.8822" y="-870.9" font-family="Arial" font-size="14.00" fill="#666666">[TEXT]</text>
<polygon fill="none" stroke="#000000" points="395,-829.5 395,-859.5 641,-859.5 641,-829.5 395,-829.5"/>
<text text-anchor="start" x="402" y="-840.9" font-family="Arial" font-size="14.00" fill="#000000">arguments    </text>
<text text-anchor="start" x="502.3296" y="-840.9" font-family="Arial" font-size="14.00" fill="#666666">[TEXT]</text>
<polygon fill="none" stroke="#000000" points="395,-799.5 395,-829.5 641,-829.5 641,-799.5 395,-799.5"/>
<text text-anchor="start" x="402" y="-810.9" font-family="Arial" font-size="14.00" fill="#000000">created_at    </text>
<text text-anchor="start" x="502.3422" y="-810.9" font-family="Arial" font-size="14.00" fill="#666666">[TIMESTAMP]</text>
<polygon fill="none" stroke="#000000" points="395,-769.5 395,-799.5 641,-799.5 641,-769.5 395,-769.5"/>
<text text-anchor="start" x="402" y="-780.9" font-family="Arial" font-size="14.00" fill="#000000">created_by    </text>
<text text-anchor="start" x="505.4516" y="-780.9" font-family="Arial" font-size="14.00" fill="#666666">[TEXT]</text>
<polygon fill="none" stroke="#000000" points="395,-739.5 395,-769.5 641,-769.5 641,-739.5 395,-739.5"/>
<text text-anchor="start" x="402" y="-750.9" font-family="Arial" font-size="14.00" fill="#000000">updated_at    </text>
<text text-anchor="start" x="506.2468" y="-750.9" font-family="Arial" font-size="14.00" fill="#666666">[TIMESTAMP]</text>
<polygon fill="none" stroke="#000000" points="395,-709.5 395,-739.5 641,-739.5 641,-709.5 395,-709.5"/>
<text text-anchor="start" x="402" y="-720.9" font-family="Arial" font-size="14.00" fill="#000000">updated_by    </text>
<text text-anchor="start" x="509.3562" y="-720.9" font-family="Arial" font-size="14.00" fill="#666666">[TEXT]</text>
<polygon fill="none" stroke="#000000" points="395,-679.5 395,-709.5 641,-709.5 641,-679.5 395,-679.5"/>
<text text-anchor="start" x="402" y="-690.9" font-family="Arial" font-size="14.00" fill="#000000">deleted_at    </text>
<text text-anchor="start" x="501.5708" y="-690.9" font-family="Arial" font-size="14.00" fill="#666666">[TIMESTAMP]</text>
<polygon fill="none" stroke="#000000" points="395,-649.5 395,-679.5 641,-679.5 641,-649.5 395,-649.5"/>
<text text-anchor="start" x="402" y="-660.9" font-family="Arial" font-size="14.00" fill="#000000">deleted_by    </text>
<text text-anchor="start" x="504.6802" y="-660.9" font-family="Arial" font-size="14.00" fill="#666666">[TEXT]</text>
<polygon fill="none" stroke="#000000" points="395,-619.5 395,-649.5 641,-649.5 641,-619.5 395,-619.5"/>
<text text-anchor="start" x="402" y="-630.9" font-family="Arial" font-size="14.00" fill="#000000">activity_log    </text>
<text text-anchor="start" x="505.4362" y="-630.9" font-family="Arial" font-size="14.00" fill="#666666">[TEXT]</text>
</g>
<!-- code_notebook_cell&#45;&gt;code_notebook_kernel -->
<g id="edge1" class="edge">
<title>code_notebook_cell:notebook_kernel_id&#45;&gt;code_notebook_kernel:code_notebook_kernel_id</title>
<path fill="none" stroke="#000000" d="M650.4748,-1050.2997C709.3427,-996.6699 716.1618,-447.5 652,-447.5"/>
<polygon fill="#000000" stroke="#000000" points="650.142,-1050.4472 639.1763,-1050.3861 645.571,-1052.4736 641,-1054.5 641,-1054.5 641,-1054.5 645.571,-1052.4736 642.8237,-1058.6139 650.142,-1050.4472 650.142,-1050.4472"/>
</g>
<!-- code_notebook_state -->
<g id="node4" class="node">
<title>code_notebook_state</title>
<polygon fill="#efefef" stroke="transparent" points="389,-1706.5 389,-1741.5 647,-1741.5 647,-1706.5 389,-1706.5"/>
<polygon fill="none" stroke="#000000" points="389,-1706.5 389,-1741.5 647,-1741.5 647,-1706.5 389,-1706.5"/>
<text text-anchor="start" x="395.7909" y="-1719.3" font-family="Arial Bold" font-size="18.00" fill="#000000">code_notebook_state</text>
<text text-anchor="start" x="567.8781" y="-1719.3" font-family="Arial" font-size="14.00" fill="#000000">    </text>
<text text-anchor="start" x="602.0829" y="-1719.3" font-family="Arial" font-size="14.00" fill="#666666">[table]</text>
<polygon fill="none" stroke="#000000" points="389,-1676.5 389,-1706.5 647,-1706.5 647,-1676.5 389,-1676.5"/>
<text text-anchor="start" x="396" y="-1687.9" font-family="Arial" font-size="14.00" fill="#000000">code_notebook_state_id    </text>
<text text-anchor="start" x="582.7222" y="-1687.9" font-family="Arial" font-size="14.00" fill="#666666">[TEXT]</text>
<polygon fill="none" stroke="#000000" points="389,-1646.5 389,-1676.5 647,-1676.5 647,-1646.5 389,-1646.5"/>
<text text-anchor="start" x="396" y="-1657.9" font-family="Arial" font-size="14.00" fill="#000000">code_notebook_cell_id    </text>
<text text-anchor="start" x="573.3716" y="-1657.9" font-family="Arial" font-size="14.00" fill="#666666">[TEXT]</text>
<polygon fill="none" stroke="#000000" points="389,-1616.5 389,-1646.5 647,-1646.5 647,-1616.5 389,-1616.5"/>
<text text-anchor="start" x="396" y="-1627.9" font-family="Arial" font-size="14.00" fill="#000000">from_state    </text>
<text text-anchor="start" x="496.3282" y="-1627.9" font-family="Arial" font-size="14.00" fill="#666666">[TEXT]</text>
<polygon fill="none" stroke="#000000" points="389,-1586.5 389,-1616.5 647,-1616.5 647,-1586.5 389,-1586.5"/>
<text text-anchor="start" x="396" y="-1597.9" font-family="Arial" font-size="14.00" fill="#000000">to_state    </text>
<text text-anchor="start" x="480.007" y="-1597.9" font-family="Arial" font-size="14.00" fill="#666666">[TEXT]</text>
<polygon fill="none" stroke="#000000" points="389,-1556.5 389,-1586.5 647,-1586.5 647,-1556.5 389,-1556.5"/>
<text text-anchor="start" x="396" y="-1567.9" font-family="Arial" font-size="14.00" fill="#000000">transition_result    </text>
<text text-anchor="start" x="528.9958" y="-1567.9" font-family="Arial" font-size="14.00" fill="#666666">[TEXT]</text>
<polygon fill="none" stroke="#000000" points="389,-1526.5 389,-1556.5 647,-1556.5 647,-1526.5 389,-1526.5"/>
<text text-anchor="start" x="396" y="-1537.9" font-family="Arial" font-size="14.00" fill="#000000">transition_reason    </text>
<text text-anchor="start" x="537.5638" y="-1537.9" font-family="Arial" font-size="14.00" fill="#666666">[TEXT]</text>
<polygon fill="none" stroke="#000000" points="389,-1496.5 389,-1526.5 647,-1526.5 647,-1496.5 389,-1496.5"/>
<text text-anchor="start" x="396" y="-1507.9" font-family="Arial" font-size="14.00" fill="#000000">transitioned_at    </text>
<text text-anchor="start" x="522.0112" y="-1507.9" font-family="Arial" font-size="14.00" fill="#666666">[TIMESTAMP]</text>
<polygon fill="none" stroke="#000000" points="389,-1466.5 389,-1496.5 647,-1496.5 647,-1466.5 389,-1466.5"/>
<text text-anchor="start" x="396" y="-1477.9" font-family="Arial" font-size="14.00" fill="#000000">elaboration    </text>
<text text-anchor="start" x="499.4474" y="-1477.9" font-family="Arial" font-size="14.00" fill="#666666">[TEXT]</text>
<polygon fill="none" stroke="#000000" points="389,-1436.5 389,-1466.5 647,-1466.5 647,-1436.5 389,-1436.5"/>
<text text-anchor="start" x="396" y="-1447.9" font-family="Arial" font-size="14.00" fill="#000000">created_at    </text>
<text text-anchor="start" x="496.3422" y="-1447.9" font-family="Arial" font-size="14.00" fill="#666666">[TIMESTAMP]</text>
<polygon fill="none" stroke="#000000" points="389,-1406.5 389,-1436.5 647,-1436.5 647,-1406.5 389,-1406.5"/>
<text text-anchor="start" x="396" y="-1417.9" font-family="Arial" font-size="14.00" fill="#000000">created_by    </text>
<text text-anchor="start" x="499.4516" y="-1417.9" font-family="Arial" font-size="14.00" fill="#666666">[TEXT]</text>
<polygon fill="none" stroke="#000000" points="389,-1376.5 389,-1406.5 647,-1406.5 647,-1376.5 389,-1376.5"/>
<text text-anchor="start" x="396" y="-1387.9" font-family="Arial" font-size="14.00" fill="#000000">updated_at    </text>
<text text-anchor="start" x="500.2468" y="-1387.9" font-family="Arial" font-size="14.00" fill="#666666">[TIMESTAMP]</text>
<polygon fill="none" stroke="#000000" points="389,-1346.5 389,-1376.5 647,-1376.5 647,-1346.5 389,-1346.5"/>
<text text-anchor="start" x="396" y="-1357.9" font-family="Arial" font-size="14.00" fill="#000000">updated_by    </text>
<text text-anchor="start" x="503.3562" y="-1357.9" font-family="Arial" font-size="14.00" fill="#666666">[TEXT]</text>
<polygon fill="none" stroke="#000000" points="389,-1316.5 389,-1346.5 647,-1346.5 647,-1316.5 389,-1316.5"/>
<text text-anchor="start" x="396" y="-1327.9" font-family="Arial" font-size="14.00" fill="#000000">deleted_at    </text>
<text text-anchor="start" x="495.5708" y="-1327.9" font-family="Arial" font-size="14.00" fill="#666666">[TIMESTAMP]</text>
<polygon fill="none" stroke="#000000" points="389,-1286.5 389,-1316.5 647,-1316.5 647,-1286.5 389,-1286.5"/>
<text text-anchor="start" x="396" y="-1297.9" font-family="Arial" font-size="14.00" fill="#000000">deleted_by    </text>
<text text-anchor="start" x="498.6802" y="-1297.9" font-family="Arial" font-size="14.00" fill="#666666">[TEXT]</text>
<polygon fill="none" stroke="#000000" points="389,-1256.5 389,-1286.5 647,-1286.5 647,-1256.5 389,-1256.5"/>
<text text-anchor="start" x="396" y="-1267.9" font-family="Arial" font-size="14.00" fill="#000000">activity_log    </text>
<text text-anchor="start" x="499.4362" y="-1267.9" font-family="Arial" font-size="14.00" fill="#666666">[TEXT]</text>
</g>
<!-- code_notebook_state&#45;&gt;code_notebook_cell -->
<g id="edge2" class="edge">
<title>code_notebook_state:code_notebook_cell_id&#45;&gt;code_notebook_cell:code_notebook_cell_id</title>
<path fill="none" stroke="#000000" d="M656.2266,-1657.1873C710.3553,-1604.3864 701.8588,-1084.5 641,-1084.5"/>
<polygon fill="#000000" stroke="#000000" points="656.0592,-1657.2655 645.0945,-1657.4233 651.5296,-1659.3828 647,-1661.5 647,-1661.5 647,-1661.5 651.5296,-1659.3828 648.9055,-1665.5767 656.0592,-1657.2655 656.0592,-1657.2655"/>
</g>
</g>
</svg>
